%TF.GenerationSoftware,KiCad,Pcbnew,8.0.0*%
%TF.CreationDate,2024-03-04T00:58:34-06:00*%
%TF.ProjectId,MicrocontrollerUnitBoard,4d696372-6f63-46f6-9e74-726f6c6c6572,rev?*%
%TF.SameCoordinates,Original*%
%TF.FileFunction,Soldermask,Bot*%
%TF.FilePolarity,Negative*%
%FSLAX46Y46*%
G04 Gerber Fmt 4.6, Leading zero omitted, Abs format (unit mm)*
G04 Created by KiCad (PCBNEW 8.0.0) date 2024-03-04 00:58:34*
%MOMM*%
%LPD*%
G01*
G04 APERTURE LIST*
G04 APERTURE END LIST*
G36*
X106041295Y-115005699D02*
G01*
X106285427Y-115064310D01*
X106517385Y-115160390D01*
X106731456Y-115291573D01*
X106922371Y-115454629D01*
X107085427Y-115645544D01*
X107216610Y-115859615D01*
X107312690Y-116091573D01*
X107371301Y-116335705D01*
X107391000Y-116586000D01*
X107371301Y-116836295D01*
X107312690Y-117080427D01*
X107216610Y-117312385D01*
X107085427Y-117526456D01*
X106922371Y-117717371D01*
X106731456Y-117880427D01*
X106517385Y-118011610D01*
X106285427Y-118107690D01*
X106041295Y-118166301D01*
X105791000Y-118186000D01*
X105540705Y-118166301D01*
X105296573Y-118107690D01*
X105064615Y-118011610D01*
X104850544Y-117880427D01*
X104659629Y-117717371D01*
X104496573Y-117526456D01*
X104365390Y-117312385D01*
X104269310Y-117080427D01*
X104210699Y-116836295D01*
X104191000Y-116586000D01*
X104210699Y-116335705D01*
X104269310Y-116091573D01*
X104365390Y-115859615D01*
X104496573Y-115645544D01*
X104659629Y-115454629D01*
X104850544Y-115291573D01*
X105064615Y-115160390D01*
X105296573Y-115064310D01*
X105540705Y-115005699D01*
X105791000Y-114986000D01*
X106041295Y-115005699D01*
G37*
G36*
X153412295Y-115005699D02*
G01*
X153656427Y-115064310D01*
X153888385Y-115160390D01*
X154102456Y-115291573D01*
X154293371Y-115454629D01*
X154456427Y-115645544D01*
X154587610Y-115859615D01*
X154683690Y-116091573D01*
X154742301Y-116335705D01*
X154762000Y-116586000D01*
X154742301Y-116836295D01*
X154683690Y-117080427D01*
X154587610Y-117312385D01*
X154456427Y-117526456D01*
X154293371Y-117717371D01*
X154102456Y-117880427D01*
X153888385Y-118011610D01*
X153656427Y-118107690D01*
X153412295Y-118166301D01*
X153162000Y-118186000D01*
X152911705Y-118166301D01*
X152667573Y-118107690D01*
X152435615Y-118011610D01*
X152221544Y-117880427D01*
X152030629Y-117717371D01*
X151867573Y-117526456D01*
X151736390Y-117312385D01*
X151640310Y-117080427D01*
X151581699Y-116836295D01*
X151562000Y-116586000D01*
X151581699Y-116335705D01*
X151640310Y-116091573D01*
X151736390Y-115859615D01*
X151867573Y-115645544D01*
X152030629Y-115454629D01*
X152221544Y-115291573D01*
X152435615Y-115160390D01*
X152667573Y-115064310D01*
X152911705Y-115005699D01*
X153162000Y-114986000D01*
X153412295Y-115005699D01*
G37*
G36*
X116146090Y-114081215D02*
G01*
X116333683Y-114138120D01*
X116506570Y-114230530D01*
X116658107Y-114354893D01*
X116782470Y-114506430D01*
X116874880Y-114679317D01*
X116931785Y-114866910D01*
X116951000Y-115062000D01*
X116931785Y-115257090D01*
X116874880Y-115444683D01*
X116782470Y-115617570D01*
X116658107Y-115769107D01*
X116506570Y-115893470D01*
X116333683Y-115985880D01*
X116146090Y-116042785D01*
X115951000Y-116062000D01*
X115755910Y-116042785D01*
X115568317Y-115985880D01*
X115395430Y-115893470D01*
X115243893Y-115769107D01*
X115119530Y-115617570D01*
X115027120Y-115444683D01*
X114970215Y-115257090D01*
X114951000Y-115062000D01*
X114970215Y-114866910D01*
X115027120Y-114679317D01*
X115119530Y-114506430D01*
X115243893Y-114354893D01*
X115395430Y-114230530D01*
X115568317Y-114138120D01*
X115755910Y-114081215D01*
X115951000Y-114062000D01*
X116146090Y-114081215D01*
G37*
G36*
X120972090Y-114081215D02*
G01*
X121159683Y-114138120D01*
X121332570Y-114230530D01*
X121484107Y-114354893D01*
X121608470Y-114506430D01*
X121700880Y-114679317D01*
X121757785Y-114866910D01*
X121777000Y-115062000D01*
X121757785Y-115257090D01*
X121700880Y-115444683D01*
X121608470Y-115617570D01*
X121484107Y-115769107D01*
X121332570Y-115893470D01*
X121159683Y-115985880D01*
X120972090Y-116042785D01*
X120777000Y-116062000D01*
X120581910Y-116042785D01*
X120394317Y-115985880D01*
X120221430Y-115893470D01*
X120069893Y-115769107D01*
X119945530Y-115617570D01*
X119853120Y-115444683D01*
X119796215Y-115257090D01*
X119777000Y-115062000D01*
X119796215Y-114866910D01*
X119853120Y-114679317D01*
X119945530Y-114506430D01*
X120069893Y-114354893D01*
X120221430Y-114230530D01*
X120394317Y-114138120D01*
X120581910Y-114081215D01*
X120777000Y-114062000D01*
X120972090Y-114081215D01*
G37*
G36*
X124655090Y-114081215D02*
G01*
X124842683Y-114138120D01*
X125015570Y-114230530D01*
X125167107Y-114354893D01*
X125291470Y-114506430D01*
X125383880Y-114679317D01*
X125440785Y-114866910D01*
X125460000Y-115062000D01*
X125440785Y-115257090D01*
X125383880Y-115444683D01*
X125291470Y-115617570D01*
X125167107Y-115769107D01*
X125015570Y-115893470D01*
X124842683Y-115985880D01*
X124655090Y-116042785D01*
X124460000Y-116062000D01*
X124264910Y-116042785D01*
X124077317Y-115985880D01*
X123904430Y-115893470D01*
X123752893Y-115769107D01*
X123628530Y-115617570D01*
X123536120Y-115444683D01*
X123479215Y-115257090D01*
X123460000Y-115062000D01*
X123479215Y-114866910D01*
X123536120Y-114679317D01*
X123628530Y-114506430D01*
X123752893Y-114354893D01*
X123904430Y-114230530D01*
X124077317Y-114138120D01*
X124264910Y-114081215D01*
X124460000Y-114062000D01*
X124655090Y-114081215D01*
G37*
G36*
X128084090Y-114081215D02*
G01*
X128271683Y-114138120D01*
X128444570Y-114230530D01*
X128596107Y-114354893D01*
X128720470Y-114506430D01*
X128812880Y-114679317D01*
X128869785Y-114866910D01*
X128889000Y-115062000D01*
X128869785Y-115257090D01*
X128812880Y-115444683D01*
X128720470Y-115617570D01*
X128596107Y-115769107D01*
X128444570Y-115893470D01*
X128271683Y-115985880D01*
X128084090Y-116042785D01*
X127889000Y-116062000D01*
X127693910Y-116042785D01*
X127506317Y-115985880D01*
X127333430Y-115893470D01*
X127181893Y-115769107D01*
X127057530Y-115617570D01*
X126965120Y-115444683D01*
X126908215Y-115257090D01*
X126889000Y-115062000D01*
X126908215Y-114866910D01*
X126965120Y-114679317D01*
X127057530Y-114506430D01*
X127181893Y-114354893D01*
X127333430Y-114230530D01*
X127506317Y-114138120D01*
X127693910Y-114081215D01*
X127889000Y-114062000D01*
X128084090Y-114081215D01*
G37*
G36*
X131513090Y-114081215D02*
G01*
X131700683Y-114138120D01*
X131873570Y-114230530D01*
X132025107Y-114354893D01*
X132149470Y-114506430D01*
X132241880Y-114679317D01*
X132298785Y-114866910D01*
X132318000Y-115062000D01*
X132298785Y-115257090D01*
X132241880Y-115444683D01*
X132149470Y-115617570D01*
X132025107Y-115769107D01*
X131873570Y-115893470D01*
X131700683Y-115985880D01*
X131513090Y-116042785D01*
X131318000Y-116062000D01*
X131122910Y-116042785D01*
X130935317Y-115985880D01*
X130762430Y-115893470D01*
X130610893Y-115769107D01*
X130486530Y-115617570D01*
X130394120Y-115444683D01*
X130337215Y-115257090D01*
X130318000Y-115062000D01*
X130337215Y-114866910D01*
X130394120Y-114679317D01*
X130486530Y-114506430D01*
X130610893Y-114354893D01*
X130762430Y-114230530D01*
X130935317Y-114138120D01*
X131122910Y-114081215D01*
X131318000Y-114062000D01*
X131513090Y-114081215D01*
G37*
G36*
X118051090Y-103032215D02*
G01*
X118238683Y-103089120D01*
X118411570Y-103181530D01*
X118563107Y-103305893D01*
X118687470Y-103457430D01*
X118779880Y-103630317D01*
X118836785Y-103817910D01*
X118856000Y-104013000D01*
X118836785Y-104208090D01*
X118779880Y-104395683D01*
X118687470Y-104568570D01*
X118563107Y-104720107D01*
X118411570Y-104844470D01*
X118238683Y-104936880D01*
X118051090Y-104993785D01*
X117856000Y-105013000D01*
X117660910Y-104993785D01*
X117473317Y-104936880D01*
X117300430Y-104844470D01*
X117148893Y-104720107D01*
X117024530Y-104568570D01*
X116932120Y-104395683D01*
X116875215Y-104208090D01*
X116856000Y-104013000D01*
X116875215Y-103817910D01*
X116932120Y-103630317D01*
X117024530Y-103457430D01*
X117148893Y-103305893D01*
X117300430Y-103181530D01*
X117473317Y-103089120D01*
X117660910Y-103032215D01*
X117856000Y-103013000D01*
X118051090Y-103032215D01*
G37*
G36*
X139895090Y-102143215D02*
G01*
X140082683Y-102200120D01*
X140255570Y-102292530D01*
X140407107Y-102416893D01*
X140531470Y-102568430D01*
X140623880Y-102741317D01*
X140680785Y-102928910D01*
X140700000Y-103124000D01*
X140680785Y-103319090D01*
X140623880Y-103506683D01*
X140531470Y-103679570D01*
X140407107Y-103831107D01*
X140255570Y-103955470D01*
X140082683Y-104047880D01*
X139895090Y-104104785D01*
X139700000Y-104124000D01*
X139504910Y-104104785D01*
X139317317Y-104047880D01*
X139144430Y-103955470D01*
X138992893Y-103831107D01*
X138868530Y-103679570D01*
X138776120Y-103506683D01*
X138719215Y-103319090D01*
X138700000Y-103124000D01*
X138719215Y-102928910D01*
X138776120Y-102741317D01*
X138868530Y-102568430D01*
X138992893Y-102416893D01*
X139144430Y-102292530D01*
X139317317Y-102200120D01*
X139504910Y-102143215D01*
X139700000Y-102124000D01*
X139895090Y-102143215D01*
G37*
G36*
X118051090Y-99857215D02*
G01*
X118238683Y-99914120D01*
X118411570Y-100006530D01*
X118563107Y-100130893D01*
X118687470Y-100282430D01*
X118779880Y-100455317D01*
X118836785Y-100642910D01*
X118856000Y-100838000D01*
X118836785Y-101033090D01*
X118779880Y-101220683D01*
X118687470Y-101393570D01*
X118563107Y-101545107D01*
X118411570Y-101669470D01*
X118238683Y-101761880D01*
X118051090Y-101818785D01*
X117856000Y-101838000D01*
X117660910Y-101818785D01*
X117473317Y-101761880D01*
X117300430Y-101669470D01*
X117148893Y-101545107D01*
X117024530Y-101393570D01*
X116932120Y-101220683D01*
X116875215Y-101033090D01*
X116856000Y-100838000D01*
X116875215Y-100642910D01*
X116932120Y-100455317D01*
X117024530Y-100282430D01*
X117148893Y-100130893D01*
X117300430Y-100006530D01*
X117473317Y-99914120D01*
X117660910Y-99857215D01*
X117856000Y-99838000D01*
X118051090Y-99857215D01*
G37*
G36*
X118051090Y-96682215D02*
G01*
X118238683Y-96739120D01*
X118411570Y-96831530D01*
X118563107Y-96955893D01*
X118687470Y-97107430D01*
X118779880Y-97280317D01*
X118836785Y-97467910D01*
X118856000Y-97663000D01*
X118836785Y-97858090D01*
X118779880Y-98045683D01*
X118687470Y-98218570D01*
X118563107Y-98370107D01*
X118411570Y-98494470D01*
X118238683Y-98586880D01*
X118051090Y-98643785D01*
X117856000Y-98663000D01*
X117660910Y-98643785D01*
X117473317Y-98586880D01*
X117300430Y-98494470D01*
X117148893Y-98370107D01*
X117024530Y-98218570D01*
X116932120Y-98045683D01*
X116875215Y-97858090D01*
X116856000Y-97663000D01*
X116875215Y-97467910D01*
X116932120Y-97280317D01*
X117024530Y-97107430D01*
X117148893Y-96955893D01*
X117300430Y-96831530D01*
X117473317Y-96739120D01*
X117660910Y-96682215D01*
X117856000Y-96663000D01*
X118051090Y-96682215D01*
G37*
G36*
X118051090Y-93507215D02*
G01*
X118238683Y-93564120D01*
X118411570Y-93656530D01*
X118563107Y-93780893D01*
X118687470Y-93932430D01*
X118779880Y-94105317D01*
X118836785Y-94292910D01*
X118856000Y-94488000D01*
X118836785Y-94683090D01*
X118779880Y-94870683D01*
X118687470Y-95043570D01*
X118563107Y-95195107D01*
X118411570Y-95319470D01*
X118238683Y-95411880D01*
X118051090Y-95468785D01*
X117856000Y-95488000D01*
X117660910Y-95468785D01*
X117473317Y-95411880D01*
X117300430Y-95319470D01*
X117148893Y-95195107D01*
X117024530Y-95043570D01*
X116932120Y-94870683D01*
X116875215Y-94683090D01*
X116856000Y-94488000D01*
X116875215Y-94292910D01*
X116932120Y-94105317D01*
X117024530Y-93932430D01*
X117148893Y-93780893D01*
X117300430Y-93656530D01*
X117473317Y-93564120D01*
X117660910Y-93507215D01*
X117856000Y-93488000D01*
X118051090Y-93507215D01*
G37*
G36*
X139895090Y-92364215D02*
G01*
X140082683Y-92421120D01*
X140255570Y-92513530D01*
X140407107Y-92637893D01*
X140531470Y-92789430D01*
X140623880Y-92962317D01*
X140680785Y-93149910D01*
X140700000Y-93345000D01*
X140680785Y-93540090D01*
X140623880Y-93727683D01*
X140531470Y-93900570D01*
X140407107Y-94052107D01*
X140255570Y-94176470D01*
X140082683Y-94268880D01*
X139895090Y-94325785D01*
X139700000Y-94345000D01*
X139504910Y-94325785D01*
X139317317Y-94268880D01*
X139144430Y-94176470D01*
X138992893Y-94052107D01*
X138868530Y-93900570D01*
X138776120Y-93727683D01*
X138719215Y-93540090D01*
X138700000Y-93345000D01*
X138719215Y-93149910D01*
X138776120Y-92962317D01*
X138868530Y-92789430D01*
X138992893Y-92637893D01*
X139144430Y-92513530D01*
X139317317Y-92421120D01*
X139504910Y-92364215D01*
X139700000Y-92345000D01*
X139895090Y-92364215D01*
G37*
G36*
X131005090Y-90840215D02*
G01*
X131192683Y-90897120D01*
X131365570Y-90989530D01*
X131517107Y-91113893D01*
X131641470Y-91265430D01*
X131733880Y-91438317D01*
X131790785Y-91625910D01*
X131810000Y-91821000D01*
X131790785Y-92016090D01*
X131733880Y-92203683D01*
X131641470Y-92376570D01*
X131517107Y-92528107D01*
X131365570Y-92652470D01*
X131192683Y-92744880D01*
X131005090Y-92801785D01*
X130810000Y-92821000D01*
X130614910Y-92801785D01*
X130427317Y-92744880D01*
X130254430Y-92652470D01*
X130102893Y-92528107D01*
X129978530Y-92376570D01*
X129886120Y-92203683D01*
X129829215Y-92016090D01*
X129810000Y-91821000D01*
X129829215Y-91625910D01*
X129886120Y-91438317D01*
X129978530Y-91265430D01*
X130102893Y-91113893D01*
X130254430Y-90989530D01*
X130427317Y-90897120D01*
X130614910Y-90840215D01*
X130810000Y-90821000D01*
X131005090Y-90840215D01*
G37*
G36*
X134180090Y-90840215D02*
G01*
X134367683Y-90897120D01*
X134540570Y-90989530D01*
X134692107Y-91113893D01*
X134816470Y-91265430D01*
X134908880Y-91438317D01*
X134965785Y-91625910D01*
X134985000Y-91821000D01*
X134965785Y-92016090D01*
X134908880Y-92203683D01*
X134816470Y-92376570D01*
X134692107Y-92528107D01*
X134540570Y-92652470D01*
X134367683Y-92744880D01*
X134180090Y-92801785D01*
X133985000Y-92821000D01*
X133789910Y-92801785D01*
X133602317Y-92744880D01*
X133429430Y-92652470D01*
X133277893Y-92528107D01*
X133153530Y-92376570D01*
X133061120Y-92203683D01*
X133004215Y-92016090D01*
X132985000Y-91821000D01*
X133004215Y-91625910D01*
X133061120Y-91438317D01*
X133153530Y-91265430D01*
X133277893Y-91113893D01*
X133429430Y-90989530D01*
X133602317Y-90897120D01*
X133789910Y-90840215D01*
X133985000Y-90821000D01*
X134180090Y-90840215D01*
G37*
G36*
X118051090Y-90459215D02*
G01*
X118238683Y-90516120D01*
X118411570Y-90608530D01*
X118563107Y-90732893D01*
X118687470Y-90884430D01*
X118779880Y-91057317D01*
X118836785Y-91244910D01*
X118856000Y-91440000D01*
X118836785Y-91635090D01*
X118779880Y-91822683D01*
X118687470Y-91995570D01*
X118563107Y-92147107D01*
X118411570Y-92271470D01*
X118238683Y-92363880D01*
X118051090Y-92420785D01*
X117856000Y-92440000D01*
X117660910Y-92420785D01*
X117473317Y-92363880D01*
X117300430Y-92271470D01*
X117148893Y-92147107D01*
X117024530Y-91995570D01*
X116932120Y-91822683D01*
X116875215Y-91635090D01*
X116856000Y-91440000D01*
X116875215Y-91244910D01*
X116932120Y-91057317D01*
X117024530Y-90884430D01*
X117148893Y-90732893D01*
X117300430Y-90608530D01*
X117473317Y-90516120D01*
X117660910Y-90459215D01*
X117856000Y-90440000D01*
X118051090Y-90459215D01*
G37*
G36*
X155897090Y-88935215D02*
G01*
X156084683Y-88992120D01*
X156257570Y-89084530D01*
X156409107Y-89208893D01*
X156533470Y-89360430D01*
X156625880Y-89533317D01*
X156682785Y-89720910D01*
X156702000Y-89916000D01*
X156682785Y-90111090D01*
X156625880Y-90298683D01*
X156533470Y-90471570D01*
X156409107Y-90623107D01*
X156257570Y-90747470D01*
X156084683Y-90839880D01*
X155897090Y-90896785D01*
X155702000Y-90916000D01*
X155506910Y-90896785D01*
X155319317Y-90839880D01*
X155146430Y-90747470D01*
X154994893Y-90623107D01*
X154870530Y-90471570D01*
X154778120Y-90298683D01*
X154721215Y-90111090D01*
X154702000Y-89916000D01*
X154721215Y-89720910D01*
X154778120Y-89533317D01*
X154870530Y-89360430D01*
X154994893Y-89208893D01*
X155146430Y-89084530D01*
X155319317Y-88992120D01*
X155506910Y-88935215D01*
X155702000Y-88916000D01*
X155897090Y-88935215D01*
G37*
G36*
X118051090Y-87284215D02*
G01*
X118238683Y-87341120D01*
X118411570Y-87433530D01*
X118563107Y-87557893D01*
X118687470Y-87709430D01*
X118779880Y-87882317D01*
X118836785Y-88069910D01*
X118856000Y-88265000D01*
X118836785Y-88460090D01*
X118779880Y-88647683D01*
X118687470Y-88820570D01*
X118563107Y-88972107D01*
X118411570Y-89096470D01*
X118238683Y-89188880D01*
X118051090Y-89245785D01*
X117856000Y-89265000D01*
X117660910Y-89245785D01*
X117473317Y-89188880D01*
X117300430Y-89096470D01*
X117148893Y-88972107D01*
X117024530Y-88820570D01*
X116932120Y-88647683D01*
X116875215Y-88460090D01*
X116856000Y-88265000D01*
X116875215Y-88069910D01*
X116932120Y-87882317D01*
X117024530Y-87709430D01*
X117148893Y-87557893D01*
X117300430Y-87433530D01*
X117473317Y-87341120D01*
X117660910Y-87284215D01*
X117856000Y-87265000D01*
X118051090Y-87284215D01*
G37*
G36*
X106041295Y-83255699D02*
G01*
X106285427Y-83314310D01*
X106517385Y-83410390D01*
X106731456Y-83541573D01*
X106922371Y-83704629D01*
X107085427Y-83895544D01*
X107216610Y-84109615D01*
X107312690Y-84341573D01*
X107371301Y-84585705D01*
X107391000Y-84836000D01*
X107371301Y-85086295D01*
X107312690Y-85330427D01*
X107216610Y-85562385D01*
X107085427Y-85776456D01*
X106922371Y-85967371D01*
X106731456Y-86130427D01*
X106517385Y-86261610D01*
X106285427Y-86357690D01*
X106041295Y-86416301D01*
X105791000Y-86436000D01*
X105540705Y-86416301D01*
X105296573Y-86357690D01*
X105064615Y-86261610D01*
X104850544Y-86130427D01*
X104659629Y-85967371D01*
X104496573Y-85776456D01*
X104365390Y-85562385D01*
X104269310Y-85330427D01*
X104210699Y-85086295D01*
X104191000Y-84836000D01*
X104210699Y-84585705D01*
X104269310Y-84341573D01*
X104365390Y-84109615D01*
X104496573Y-83895544D01*
X104659629Y-83704629D01*
X104850544Y-83541573D01*
X105064615Y-83410390D01*
X105296573Y-83314310D01*
X105540705Y-83255699D01*
X105791000Y-83236000D01*
X106041295Y-83255699D01*
G37*
G36*
X153412295Y-83255699D02*
G01*
X153656427Y-83314310D01*
X153888385Y-83410390D01*
X154102456Y-83541573D01*
X154293371Y-83704629D01*
X154456427Y-83895544D01*
X154587610Y-84109615D01*
X154683690Y-84341573D01*
X154742301Y-84585705D01*
X154762000Y-84836000D01*
X154742301Y-85086295D01*
X154683690Y-85330427D01*
X154587610Y-85562385D01*
X154456427Y-85776456D01*
X154293371Y-85967371D01*
X154102456Y-86130427D01*
X153888385Y-86261610D01*
X153656427Y-86357690D01*
X153412295Y-86416301D01*
X153162000Y-86436000D01*
X152911705Y-86416301D01*
X152667573Y-86357690D01*
X152435615Y-86261610D01*
X152221544Y-86130427D01*
X152030629Y-85967371D01*
X151867573Y-85776456D01*
X151736390Y-85562385D01*
X151640310Y-85330427D01*
X151581699Y-85086295D01*
X151562000Y-84836000D01*
X151581699Y-84585705D01*
X151640310Y-84341573D01*
X151736390Y-84109615D01*
X151867573Y-83895544D01*
X152030629Y-83704629D01*
X152221544Y-83541573D01*
X152435615Y-83410390D01*
X152667573Y-83314310D01*
X152911705Y-83255699D01*
X153162000Y-83236000D01*
X153412295Y-83255699D01*
G37*
G36*
X118051090Y-84010215D02*
G01*
X118238683Y-84067120D01*
X118411570Y-84159530D01*
X118563107Y-84283893D01*
X118687470Y-84435430D01*
X118779880Y-84608317D01*
X118836785Y-84795910D01*
X118856000Y-84991000D01*
X118836785Y-85186090D01*
X118779880Y-85373683D01*
X118687470Y-85546570D01*
X118563107Y-85698107D01*
X118411570Y-85822470D01*
X118238683Y-85914880D01*
X118051090Y-85971785D01*
X117856000Y-85991000D01*
X117660910Y-85971785D01*
X117473317Y-85914880D01*
X117300430Y-85822470D01*
X117148893Y-85698107D01*
X117024530Y-85546570D01*
X116932120Y-85373683D01*
X116875215Y-85186090D01*
X116856000Y-84991000D01*
X116875215Y-84795910D01*
X116932120Y-84608317D01*
X117024530Y-84435430D01*
X117148893Y-84283893D01*
X117300430Y-84159530D01*
X117473317Y-84067120D01*
X117660910Y-84010215D01*
X117856000Y-83991000D01*
X118051090Y-84010215D01*
G37*
G36*
X114749090Y-83982215D02*
G01*
X114936683Y-84039120D01*
X115109570Y-84131530D01*
X115261107Y-84255893D01*
X115385470Y-84407430D01*
X115477880Y-84580317D01*
X115534785Y-84767910D01*
X115554000Y-84963000D01*
X115534785Y-85158090D01*
X115477880Y-85345683D01*
X115385470Y-85518570D01*
X115261107Y-85670107D01*
X115109570Y-85794470D01*
X114936683Y-85886880D01*
X114749090Y-85943785D01*
X114554000Y-85963000D01*
X114358910Y-85943785D01*
X114171317Y-85886880D01*
X113998430Y-85794470D01*
X113846893Y-85670107D01*
X113722530Y-85518570D01*
X113630120Y-85345683D01*
X113573215Y-85158090D01*
X113554000Y-84963000D01*
X113573215Y-84767910D01*
X113630120Y-84580317D01*
X113722530Y-84407430D01*
X113846893Y-84255893D01*
X113998430Y-84131530D01*
X114171317Y-84039120D01*
X114358910Y-83982215D01*
X114554000Y-83963000D01*
X114749090Y-83982215D01*
G37*
G36*
X121353090Y-83982215D02*
G01*
X121540683Y-84039120D01*
X121713570Y-84131530D01*
X121865107Y-84255893D01*
X121989470Y-84407430D01*
X122081880Y-84580317D01*
X122138785Y-84767910D01*
X122158000Y-84963000D01*
X122138785Y-85158090D01*
X122081880Y-85345683D01*
X121989470Y-85518570D01*
X121865107Y-85670107D01*
X121713570Y-85794470D01*
X121540683Y-85886880D01*
X121353090Y-85943785D01*
X121158000Y-85963000D01*
X120962910Y-85943785D01*
X120775317Y-85886880D01*
X120602430Y-85794470D01*
X120450893Y-85670107D01*
X120326530Y-85518570D01*
X120234120Y-85345683D01*
X120177215Y-85158090D01*
X120158000Y-84963000D01*
X120177215Y-84767910D01*
X120234120Y-84580317D01*
X120326530Y-84407430D01*
X120450893Y-84255893D01*
X120602430Y-84131530D01*
X120775317Y-84039120D01*
X120962910Y-83982215D01*
X121158000Y-83963000D01*
X121353090Y-83982215D01*
G37*
G36*
X124655090Y-83982215D02*
G01*
X124842683Y-84039120D01*
X125015570Y-84131530D01*
X125167107Y-84255893D01*
X125291470Y-84407430D01*
X125383880Y-84580317D01*
X125440785Y-84767910D01*
X125460000Y-84963000D01*
X125440785Y-85158090D01*
X125383880Y-85345683D01*
X125291470Y-85518570D01*
X125167107Y-85670107D01*
X125015570Y-85794470D01*
X124842683Y-85886880D01*
X124655090Y-85943785D01*
X124460000Y-85963000D01*
X124264910Y-85943785D01*
X124077317Y-85886880D01*
X123904430Y-85794470D01*
X123752893Y-85670107D01*
X123628530Y-85518570D01*
X123536120Y-85345683D01*
X123479215Y-85158090D01*
X123460000Y-84963000D01*
X123479215Y-84767910D01*
X123536120Y-84580317D01*
X123628530Y-84407430D01*
X123752893Y-84255893D01*
X123904430Y-84131530D01*
X124077317Y-84039120D01*
X124264910Y-83982215D01*
X124460000Y-83963000D01*
X124655090Y-83982215D01*
G37*
M02*
