G04 #@! TF.GenerationSoftware,KiCad,Pcbnew,8.0.0*
G04 #@! TF.CreationDate,2024-03-04T18:14:40-06:00*
G04 #@! TF.ProjectId,MicrocontrollerUnitBoard,4d696372-6f63-46f6-9e74-726f6c6c6572,rev?*
G04 #@! TF.SameCoordinates,Original*
G04 #@! TF.FileFunction,Copper,L2,Bot*
G04 #@! TF.FilePolarity,Positive*
%FSLAX46Y46*%
G04 Gerber Fmt 4.6, Leading zero omitted, Abs format (unit mm)*
G04 Created by KiCad (PCBNEW 8.0.0) date 2024-03-04 18:14:40*
%MOMM*%
%LPD*%
G01*
G04 APERTURE LIST*
G04 #@! TA.AperFunction,ComponentPad*
%ADD10C,2.000000*%
G04 #@! TD*
G04 #@! TA.AperFunction,ViaPad*
%ADD11C,0.610000*%
G04 #@! TD*
G04 APERTURE END LIST*
D10*
X124460000Y-84963000D03*
X117856000Y-88265000D03*
X117856000Y-91440000D03*
X115951000Y-115062000D03*
X120777000Y-115062000D03*
X139700000Y-103124000D03*
X117856000Y-84991000D03*
X133985000Y-91821000D03*
X117856000Y-104013000D03*
X124460000Y-115062000D03*
X117856000Y-94488000D03*
X155702000Y-89916000D03*
X117856000Y-97663000D03*
X131318000Y-115062000D03*
X130810000Y-91821000D03*
X114554000Y-84963000D03*
X121158000Y-84963000D03*
X139700000Y-93345000D03*
X117856000Y-100838000D03*
X127889000Y-115062000D03*
D11*
X142367000Y-110363000D03*
X110998000Y-89662000D03*
X127889000Y-90170000D03*
X146558000Y-86995000D03*
X140335000Y-98298000D03*
X121928592Y-107501549D03*
G04 #@! TA.AperFunction,Conductor*
G36*
X157296039Y-82129685D02*
G01*
X157341794Y-82182489D01*
X157353000Y-82234000D01*
X157353000Y-89353099D01*
X157333315Y-89420138D01*
X157280511Y-89465893D01*
X157211353Y-89475837D01*
X157147797Y-89446812D01*
X157115444Y-89402909D01*
X157026173Y-89199393D01*
X156890166Y-88991217D01*
X156868557Y-88967744D01*
X156721744Y-88808262D01*
X156525509Y-88655526D01*
X156525507Y-88655525D01*
X156525506Y-88655524D01*
X156306811Y-88537172D01*
X156306802Y-88537169D01*
X156071616Y-88456429D01*
X155826335Y-88415500D01*
X155577665Y-88415500D01*
X155332383Y-88456429D01*
X155097197Y-88537169D01*
X155097188Y-88537172D01*
X154878493Y-88655524D01*
X154682257Y-88808261D01*
X154513833Y-88991217D01*
X154377826Y-89199393D01*
X154277936Y-89427118D01*
X154216892Y-89668175D01*
X154216890Y-89668187D01*
X154196357Y-89915994D01*
X154196357Y-89916005D01*
X154216890Y-90163812D01*
X154216892Y-90163824D01*
X154277936Y-90404881D01*
X154377826Y-90632606D01*
X154513833Y-90840782D01*
X154513836Y-90840785D01*
X154682256Y-91023738D01*
X154878491Y-91176474D01*
X155097190Y-91294828D01*
X155332386Y-91375571D01*
X155577665Y-91416500D01*
X155826335Y-91416500D01*
X156071614Y-91375571D01*
X156306810Y-91294828D01*
X156525509Y-91176474D01*
X156721744Y-91023738D01*
X156890164Y-90840785D01*
X157026173Y-90632607D01*
X157115444Y-90429090D01*
X157160400Y-90375604D01*
X157227136Y-90354914D01*
X157294464Y-90373589D01*
X157341007Y-90425699D01*
X157353000Y-90478900D01*
X157353000Y-117097000D01*
X157333315Y-117164039D01*
X157280511Y-117209794D01*
X157229000Y-117221000D01*
X155017467Y-117221000D01*
X154950428Y-117201315D01*
X154904673Y-117148511D01*
X154894729Y-117079353D01*
X154897692Y-117064907D01*
X154931693Y-116938014D01*
X154962500Y-116704011D01*
X154962500Y-116467989D01*
X154931693Y-116233986D01*
X154870606Y-116006007D01*
X154780284Y-115787951D01*
X154780282Y-115787948D01*
X154780280Y-115787943D01*
X154738118Y-115714918D01*
X154662273Y-115583550D01*
X154518592Y-115396301D01*
X154518587Y-115396295D01*
X154351704Y-115229412D01*
X154351697Y-115229406D01*
X154164454Y-115085730D01*
X154164453Y-115085729D01*
X154164450Y-115085727D01*
X154082957Y-115038677D01*
X153960056Y-114967719D01*
X153960045Y-114967714D01*
X153741993Y-114877394D01*
X153514010Y-114816306D01*
X153280020Y-114785501D01*
X153280017Y-114785500D01*
X153280011Y-114785500D01*
X153043989Y-114785500D01*
X153043983Y-114785500D01*
X153043979Y-114785501D01*
X152809989Y-114816306D01*
X152582006Y-114877394D01*
X152363954Y-114967714D01*
X152363943Y-114967719D01*
X152159545Y-115085730D01*
X151972302Y-115229406D01*
X151972295Y-115229412D01*
X151805412Y-115396295D01*
X151805406Y-115396302D01*
X151661730Y-115583545D01*
X151543719Y-115787943D01*
X151543714Y-115787954D01*
X151453394Y-116006006D01*
X151392306Y-116233989D01*
X151361501Y-116467979D01*
X151361500Y-116467995D01*
X151361500Y-116704004D01*
X151361501Y-116704020D01*
X151392306Y-116938012D01*
X151426308Y-117064907D01*
X151424645Y-117134757D01*
X151385482Y-117192619D01*
X151321254Y-117220123D01*
X151306533Y-117221000D01*
X107646467Y-117221000D01*
X107579428Y-117201315D01*
X107533673Y-117148511D01*
X107523729Y-117079353D01*
X107526692Y-117064907D01*
X107560693Y-116938014D01*
X107591500Y-116704011D01*
X107591500Y-116467989D01*
X107560693Y-116233986D01*
X107499606Y-116006007D01*
X107409284Y-115787951D01*
X107409282Y-115787948D01*
X107409280Y-115787943D01*
X107367118Y-115714918D01*
X107291273Y-115583550D01*
X107147592Y-115396301D01*
X107147587Y-115396295D01*
X106980704Y-115229412D01*
X106980697Y-115229406D01*
X106793454Y-115085730D01*
X106793453Y-115085729D01*
X106793450Y-115085727D01*
X106752362Y-115062005D01*
X114445859Y-115062005D01*
X114466385Y-115309729D01*
X114466387Y-115309738D01*
X114527412Y-115550717D01*
X114627266Y-115778364D01*
X114727564Y-115931882D01*
X115468037Y-115191409D01*
X115485075Y-115254993D01*
X115550901Y-115369007D01*
X115643993Y-115462099D01*
X115758007Y-115527925D01*
X115821590Y-115544962D01*
X115080942Y-116285609D01*
X115127768Y-116322055D01*
X115127770Y-116322056D01*
X115346385Y-116440364D01*
X115346396Y-116440369D01*
X115581506Y-116521083D01*
X115826707Y-116562000D01*
X116075293Y-116562000D01*
X116320493Y-116521083D01*
X116555603Y-116440369D01*
X116555614Y-116440364D01*
X116774228Y-116322057D01*
X116774231Y-116322055D01*
X116821056Y-116285609D01*
X116080409Y-115544962D01*
X116143993Y-115527925D01*
X116258007Y-115462099D01*
X116351099Y-115369007D01*
X116416925Y-115254993D01*
X116433962Y-115191410D01*
X117174434Y-115931882D01*
X117274731Y-115778369D01*
X117374587Y-115550717D01*
X117435612Y-115309738D01*
X117435614Y-115309729D01*
X117456141Y-115062005D01*
X119271357Y-115062005D01*
X119291890Y-115309812D01*
X119291892Y-115309824D01*
X119352936Y-115550881D01*
X119452826Y-115778606D01*
X119588833Y-115986782D01*
X119588836Y-115986785D01*
X119757256Y-116169738D01*
X119953491Y-116322474D01*
X119953493Y-116322475D01*
X120171332Y-116440364D01*
X120172190Y-116440828D01*
X120251325Y-116467995D01*
X120405964Y-116521083D01*
X120407386Y-116521571D01*
X120652665Y-116562500D01*
X120901335Y-116562500D01*
X121146614Y-116521571D01*
X121381810Y-116440828D01*
X121600509Y-116322474D01*
X121796744Y-116169738D01*
X121965164Y-115986785D01*
X122101173Y-115778607D01*
X122201063Y-115550881D01*
X122262108Y-115309821D01*
X122268771Y-115229412D01*
X122282643Y-115062005D01*
X122954357Y-115062005D01*
X122974890Y-115309812D01*
X122974892Y-115309824D01*
X123035936Y-115550881D01*
X123135826Y-115778606D01*
X123271833Y-115986782D01*
X123271836Y-115986785D01*
X123440256Y-116169738D01*
X123636491Y-116322474D01*
X123636493Y-116322475D01*
X123854332Y-116440364D01*
X123855190Y-116440828D01*
X123934325Y-116467995D01*
X124088964Y-116521083D01*
X124090386Y-116521571D01*
X124335665Y-116562500D01*
X124584335Y-116562500D01*
X124829614Y-116521571D01*
X125064810Y-116440828D01*
X125283509Y-116322474D01*
X125479744Y-116169738D01*
X125648164Y-115986785D01*
X125784173Y-115778607D01*
X125884063Y-115550881D01*
X125945108Y-115309821D01*
X125951771Y-115229412D01*
X125965643Y-115062005D01*
X126383357Y-115062005D01*
X126403890Y-115309812D01*
X126403892Y-115309824D01*
X126464936Y-115550881D01*
X126564826Y-115778606D01*
X126700833Y-115986782D01*
X126700836Y-115986785D01*
X126869256Y-116169738D01*
X127065491Y-116322474D01*
X127065493Y-116322475D01*
X127283332Y-116440364D01*
X127284190Y-116440828D01*
X127363325Y-116467995D01*
X127517964Y-116521083D01*
X127519386Y-116521571D01*
X127764665Y-116562500D01*
X128013335Y-116562500D01*
X128258614Y-116521571D01*
X128493810Y-116440828D01*
X128712509Y-116322474D01*
X128908744Y-116169738D01*
X129077164Y-115986785D01*
X129213173Y-115778607D01*
X129313063Y-115550881D01*
X129374108Y-115309821D01*
X129380771Y-115229412D01*
X129394643Y-115062005D01*
X129812357Y-115062005D01*
X129832890Y-115309812D01*
X129832892Y-115309824D01*
X129893936Y-115550881D01*
X129993826Y-115778606D01*
X130129833Y-115986782D01*
X130129836Y-115986785D01*
X130298256Y-116169738D01*
X130494491Y-116322474D01*
X130494493Y-116322475D01*
X130712332Y-116440364D01*
X130713190Y-116440828D01*
X130792325Y-116467995D01*
X130946964Y-116521083D01*
X130948386Y-116521571D01*
X131193665Y-116562500D01*
X131442335Y-116562500D01*
X131687614Y-116521571D01*
X131922810Y-116440828D01*
X132141509Y-116322474D01*
X132337744Y-116169738D01*
X132506164Y-115986785D01*
X132642173Y-115778607D01*
X132742063Y-115550881D01*
X132803108Y-115309821D01*
X132809771Y-115229412D01*
X132823643Y-115062005D01*
X132823643Y-115061994D01*
X132803109Y-114814187D01*
X132803107Y-114814175D01*
X132742063Y-114573118D01*
X132642173Y-114345393D01*
X132506166Y-114137217D01*
X132484557Y-114113744D01*
X132337744Y-113954262D01*
X132141509Y-113801526D01*
X132141507Y-113801525D01*
X132141506Y-113801524D01*
X131922811Y-113683172D01*
X131922802Y-113683169D01*
X131687616Y-113602429D01*
X131442335Y-113561500D01*
X131193665Y-113561500D01*
X130948383Y-113602429D01*
X130713197Y-113683169D01*
X130713188Y-113683172D01*
X130494493Y-113801524D01*
X130298257Y-113954261D01*
X130129833Y-114137217D01*
X129993826Y-114345393D01*
X129893936Y-114573118D01*
X129832892Y-114814175D01*
X129832890Y-114814187D01*
X129812357Y-115061994D01*
X129812357Y-115062005D01*
X129394643Y-115062005D01*
X129394643Y-115061994D01*
X129374109Y-114814187D01*
X129374107Y-114814175D01*
X129313063Y-114573118D01*
X129213173Y-114345393D01*
X129077166Y-114137217D01*
X129055557Y-114113744D01*
X128908744Y-113954262D01*
X128712509Y-113801526D01*
X128712507Y-113801525D01*
X128712506Y-113801524D01*
X128493811Y-113683172D01*
X128493802Y-113683169D01*
X128258616Y-113602429D01*
X128013335Y-113561500D01*
X127764665Y-113561500D01*
X127519383Y-113602429D01*
X127284197Y-113683169D01*
X127284188Y-113683172D01*
X127065493Y-113801524D01*
X126869257Y-113954261D01*
X126700833Y-114137217D01*
X126564826Y-114345393D01*
X126464936Y-114573118D01*
X126403892Y-114814175D01*
X126403890Y-114814187D01*
X126383357Y-115061994D01*
X126383357Y-115062005D01*
X125965643Y-115062005D01*
X125965643Y-115061994D01*
X125945109Y-114814187D01*
X125945107Y-114814175D01*
X125884063Y-114573118D01*
X125784173Y-114345393D01*
X125648166Y-114137217D01*
X125626557Y-114113744D01*
X125479744Y-113954262D01*
X125283509Y-113801526D01*
X125283507Y-113801525D01*
X125283506Y-113801524D01*
X125064811Y-113683172D01*
X125064802Y-113683169D01*
X124829616Y-113602429D01*
X124584335Y-113561500D01*
X124335665Y-113561500D01*
X124090383Y-113602429D01*
X123855197Y-113683169D01*
X123855188Y-113683172D01*
X123636493Y-113801524D01*
X123440257Y-113954261D01*
X123271833Y-114137217D01*
X123135826Y-114345393D01*
X123035936Y-114573118D01*
X122974892Y-114814175D01*
X122974890Y-114814187D01*
X122954357Y-115061994D01*
X122954357Y-115062005D01*
X122282643Y-115062005D01*
X122282643Y-115061994D01*
X122262109Y-114814187D01*
X122262107Y-114814175D01*
X122201063Y-114573118D01*
X122101173Y-114345393D01*
X121965166Y-114137217D01*
X121943557Y-114113744D01*
X121796744Y-113954262D01*
X121600509Y-113801526D01*
X121600507Y-113801525D01*
X121600506Y-113801524D01*
X121381811Y-113683172D01*
X121381802Y-113683169D01*
X121146616Y-113602429D01*
X120901335Y-113561500D01*
X120652665Y-113561500D01*
X120407383Y-113602429D01*
X120172197Y-113683169D01*
X120172188Y-113683172D01*
X119953493Y-113801524D01*
X119757257Y-113954261D01*
X119588833Y-114137217D01*
X119452826Y-114345393D01*
X119352936Y-114573118D01*
X119291892Y-114814175D01*
X119291890Y-114814187D01*
X119271357Y-115061994D01*
X119271357Y-115062005D01*
X117456141Y-115062005D01*
X117456141Y-115061994D01*
X117435614Y-114814270D01*
X117435612Y-114814261D01*
X117374587Y-114573282D01*
X117274731Y-114345630D01*
X117174434Y-114192116D01*
X116433962Y-114932589D01*
X116416925Y-114869007D01*
X116351099Y-114754993D01*
X116258007Y-114661901D01*
X116143993Y-114596075D01*
X116080410Y-114579037D01*
X116821057Y-113838390D01*
X116821056Y-113838389D01*
X116774229Y-113801943D01*
X116555614Y-113683635D01*
X116555603Y-113683630D01*
X116320493Y-113602916D01*
X116075293Y-113562000D01*
X115826707Y-113562000D01*
X115581506Y-113602916D01*
X115346396Y-113683630D01*
X115346390Y-113683632D01*
X115127761Y-113801949D01*
X115080942Y-113838388D01*
X115080942Y-113838390D01*
X115821590Y-114579037D01*
X115758007Y-114596075D01*
X115643993Y-114661901D01*
X115550901Y-114754993D01*
X115485075Y-114869007D01*
X115468037Y-114932589D01*
X114727564Y-114192116D01*
X114627267Y-114345632D01*
X114527412Y-114573282D01*
X114466387Y-114814261D01*
X114466385Y-114814270D01*
X114445859Y-115061994D01*
X114445859Y-115062005D01*
X106752362Y-115062005D01*
X106711957Y-115038677D01*
X106589056Y-114967719D01*
X106589045Y-114967714D01*
X106370993Y-114877394D01*
X106143010Y-114816306D01*
X105909020Y-114785501D01*
X105909017Y-114785500D01*
X105909011Y-114785500D01*
X105672989Y-114785500D01*
X105672983Y-114785500D01*
X105672979Y-114785501D01*
X105438989Y-114816306D01*
X105211006Y-114877394D01*
X104992954Y-114967714D01*
X104992943Y-114967719D01*
X104788545Y-115085730D01*
X104601302Y-115229406D01*
X104601295Y-115229412D01*
X104434412Y-115396295D01*
X104434406Y-115396302D01*
X104290730Y-115583545D01*
X104172719Y-115787943D01*
X104172714Y-115787954D01*
X104082394Y-116006006D01*
X104021306Y-116233989D01*
X103990501Y-116467979D01*
X103990500Y-116467995D01*
X103990500Y-116704004D01*
X103990501Y-116704020D01*
X104021306Y-116938012D01*
X104055308Y-117064907D01*
X104053645Y-117134757D01*
X104014482Y-117192619D01*
X103950254Y-117220123D01*
X103935533Y-117221000D01*
X101724000Y-117221000D01*
X101656961Y-117201315D01*
X101611206Y-117148511D01*
X101600000Y-117097000D01*
X101600000Y-104013005D01*
X116350357Y-104013005D01*
X116370890Y-104260812D01*
X116370892Y-104260824D01*
X116431936Y-104501881D01*
X116531826Y-104729606D01*
X116667833Y-104937782D01*
X116667836Y-104937785D01*
X116836256Y-105120738D01*
X117032491Y-105273474D01*
X117251190Y-105391828D01*
X117486386Y-105472571D01*
X117731665Y-105513500D01*
X117980335Y-105513500D01*
X118225614Y-105472571D01*
X118460810Y-105391828D01*
X118679509Y-105273474D01*
X118875744Y-105120738D01*
X119044164Y-104937785D01*
X119180173Y-104729607D01*
X119280063Y-104501881D01*
X119341108Y-104260821D01*
X119361643Y-104013000D01*
X119347358Y-103840607D01*
X119341109Y-103765187D01*
X119341107Y-103765175D01*
X119280063Y-103524118D01*
X119180173Y-103296393D01*
X119067547Y-103124005D01*
X138194357Y-103124005D01*
X138214890Y-103371812D01*
X138214892Y-103371824D01*
X138275936Y-103612881D01*
X138375826Y-103840606D01*
X138511833Y-104048782D01*
X138511836Y-104048785D01*
X138680256Y-104231738D01*
X138876491Y-104384474D01*
X139095190Y-104502828D01*
X139330386Y-104583571D01*
X139575665Y-104624500D01*
X139824335Y-104624500D01*
X140069614Y-104583571D01*
X140304810Y-104502828D01*
X140523509Y-104384474D01*
X140719744Y-104231738D01*
X140888164Y-104048785D01*
X141024173Y-103840607D01*
X141124063Y-103612881D01*
X141185108Y-103371821D01*
X141205643Y-103124000D01*
X141185108Y-102876179D01*
X141124063Y-102635119D01*
X141123646Y-102634169D01*
X141024173Y-102407393D01*
X140888166Y-102199217D01*
X140795425Y-102098474D01*
X140719744Y-102016262D01*
X140523509Y-101863526D01*
X140523507Y-101863525D01*
X140523506Y-101863524D01*
X140304811Y-101745172D01*
X140304802Y-101745169D01*
X140069616Y-101664429D01*
X139824335Y-101623500D01*
X139575665Y-101623500D01*
X139330383Y-101664429D01*
X139095197Y-101745169D01*
X139095188Y-101745172D01*
X138876493Y-101863524D01*
X138680257Y-102016261D01*
X138511833Y-102199217D01*
X138375826Y-102407393D01*
X138275936Y-102635118D01*
X138214892Y-102876175D01*
X138214890Y-102876187D01*
X138194357Y-103123994D01*
X138194357Y-103124005D01*
X119067547Y-103124005D01*
X119044166Y-103088217D01*
X119022557Y-103064744D01*
X118875744Y-102905262D01*
X118679509Y-102752526D01*
X118679507Y-102752525D01*
X118679506Y-102752524D01*
X118460811Y-102634172D01*
X118460802Y-102634169D01*
X118225616Y-102553429D01*
X118191935Y-102547809D01*
X118129050Y-102517359D01*
X118092610Y-102457744D01*
X118094185Y-102387892D01*
X118133274Y-102329981D01*
X118191935Y-102303191D01*
X118195638Y-102302572D01*
X118225614Y-102297571D01*
X118460810Y-102216828D01*
X118679509Y-102098474D01*
X118875744Y-101945738D01*
X119044164Y-101762785D01*
X119180173Y-101554607D01*
X119280063Y-101326881D01*
X119341108Y-101085821D01*
X119361643Y-100838000D01*
X119341108Y-100590179D01*
X119280063Y-100349119D01*
X119180173Y-100121393D01*
X119044166Y-99913217D01*
X119022557Y-99889744D01*
X118875744Y-99730262D01*
X118679509Y-99577526D01*
X118679507Y-99577525D01*
X118679506Y-99577524D01*
X118460811Y-99459172D01*
X118460802Y-99459169D01*
X118225616Y-99378429D01*
X118191935Y-99372809D01*
X118129050Y-99342359D01*
X118092610Y-99282744D01*
X118094185Y-99212892D01*
X118133274Y-99154981D01*
X118191935Y-99128191D01*
X118195638Y-99127572D01*
X118225614Y-99122571D01*
X118460810Y-99041828D01*
X118679509Y-98923474D01*
X118875744Y-98770738D01*
X119044164Y-98587785D01*
X119180173Y-98379607D01*
X119280063Y-98151881D01*
X119341108Y-97910821D01*
X119361643Y-97663000D01*
X119341108Y-97415179D01*
X119280063Y-97174119D01*
X119180173Y-96946393D01*
X119044166Y-96738217D01*
X119022557Y-96714744D01*
X118875744Y-96555262D01*
X118679509Y-96402526D01*
X118679507Y-96402525D01*
X118679506Y-96402524D01*
X118460811Y-96284172D01*
X118460802Y-96284169D01*
X118225616Y-96203429D01*
X118191935Y-96197809D01*
X118129050Y-96167359D01*
X118092610Y-96107744D01*
X118094185Y-96037892D01*
X118133274Y-95979981D01*
X118191935Y-95953191D01*
X118195638Y-95952572D01*
X118225614Y-95947571D01*
X118460810Y-95866828D01*
X118679509Y-95748474D01*
X118875744Y-95595738D01*
X119044164Y-95412785D01*
X119180173Y-95204607D01*
X119280063Y-94976881D01*
X119341108Y-94735821D01*
X119361643Y-94488000D01*
X119358721Y-94452738D01*
X119341109Y-94240187D01*
X119341107Y-94240175D01*
X119280063Y-93999118D01*
X119180173Y-93771393D01*
X119044166Y-93563217D01*
X119022557Y-93539744D01*
X118875744Y-93380262D01*
X118830446Y-93345005D01*
X138194357Y-93345005D01*
X138214890Y-93592812D01*
X138214892Y-93592824D01*
X138275936Y-93833881D01*
X138375826Y-94061606D01*
X138511833Y-94269782D01*
X138511836Y-94269785D01*
X138680256Y-94452738D01*
X138876491Y-94605474D01*
X139095190Y-94723828D01*
X139330386Y-94804571D01*
X139575665Y-94845500D01*
X139824335Y-94845500D01*
X140069614Y-94804571D01*
X140304810Y-94723828D01*
X140523509Y-94605474D01*
X140719744Y-94452738D01*
X140888164Y-94269785D01*
X141024173Y-94061607D01*
X141124063Y-93833881D01*
X141185108Y-93592821D01*
X141187561Y-93563215D01*
X141205643Y-93345005D01*
X141205643Y-93344994D01*
X141185109Y-93097187D01*
X141185107Y-93097175D01*
X141124063Y-92856118D01*
X141024173Y-92628393D01*
X140888166Y-92420217D01*
X140786594Y-92309881D01*
X140719744Y-92237262D01*
X140523509Y-92084526D01*
X140523507Y-92084525D01*
X140523506Y-92084524D01*
X140304811Y-91966172D01*
X140304802Y-91966169D01*
X140069616Y-91885429D01*
X139824335Y-91844500D01*
X139575665Y-91844500D01*
X139330383Y-91885429D01*
X139095197Y-91966169D01*
X139095188Y-91966172D01*
X138876493Y-92084524D01*
X138680257Y-92237261D01*
X138511833Y-92420217D01*
X138375826Y-92628393D01*
X138275936Y-92856118D01*
X138214892Y-93097175D01*
X138214890Y-93097187D01*
X138194357Y-93344994D01*
X138194357Y-93345005D01*
X118830446Y-93345005D01*
X118679509Y-93227526D01*
X118679507Y-93227525D01*
X118679506Y-93227524D01*
X118460811Y-93109172D01*
X118460802Y-93109169D01*
X118379567Y-93081281D01*
X118322552Y-93040896D01*
X118296421Y-92976096D01*
X118309472Y-92907456D01*
X118357561Y-92856769D01*
X118379567Y-92846719D01*
X118397034Y-92840722D01*
X118460810Y-92818828D01*
X118679509Y-92700474D01*
X118875744Y-92547738D01*
X119044164Y-92364785D01*
X119180173Y-92156607D01*
X119280063Y-91928881D01*
X119307381Y-91821005D01*
X129304357Y-91821005D01*
X129324890Y-92068812D01*
X129324892Y-92068824D01*
X129385936Y-92309881D01*
X129485826Y-92537606D01*
X129621833Y-92745782D01*
X129621836Y-92745785D01*
X129790256Y-92928738D01*
X129986491Y-93081474D01*
X130205190Y-93199828D01*
X130440386Y-93280571D01*
X130685665Y-93321500D01*
X130934335Y-93321500D01*
X131179614Y-93280571D01*
X131414810Y-93199828D01*
X131633509Y-93081474D01*
X131829744Y-92928738D01*
X131998164Y-92745785D01*
X132134173Y-92537607D01*
X132234063Y-92309881D01*
X132252453Y-92237261D01*
X132277294Y-92139167D01*
X132312834Y-92079011D01*
X132375254Y-92047619D01*
X132444738Y-92054957D01*
X132499223Y-92098696D01*
X132517706Y-92139167D01*
X132560936Y-92309881D01*
X132660826Y-92537606D01*
X132796833Y-92745782D01*
X132796836Y-92745785D01*
X132965256Y-92928738D01*
X133161491Y-93081474D01*
X133380190Y-93199828D01*
X133615386Y-93280571D01*
X133860665Y-93321500D01*
X134109335Y-93321500D01*
X134354614Y-93280571D01*
X134589810Y-93199828D01*
X134808509Y-93081474D01*
X135004744Y-92928738D01*
X135173164Y-92745785D01*
X135309173Y-92537607D01*
X135409063Y-92309881D01*
X135470108Y-92068821D01*
X135481704Y-91928881D01*
X135490643Y-91821005D01*
X135490643Y-91820994D01*
X135470109Y-91573187D01*
X135470107Y-91573175D01*
X135409063Y-91332118D01*
X135309173Y-91104393D01*
X135173166Y-90896217D01*
X135122134Y-90840782D01*
X135004744Y-90713262D01*
X134808509Y-90560526D01*
X134808507Y-90560525D01*
X134808506Y-90560524D01*
X134589811Y-90442172D01*
X134589802Y-90442169D01*
X134354616Y-90361429D01*
X134109335Y-90320500D01*
X133860665Y-90320500D01*
X133615383Y-90361429D01*
X133380197Y-90442169D01*
X133380188Y-90442172D01*
X133161493Y-90560524D01*
X132965257Y-90713261D01*
X132796833Y-90896217D01*
X132660826Y-91104393D01*
X132560937Y-91332117D01*
X132517706Y-91502833D01*
X132482166Y-91562988D01*
X132419746Y-91594380D01*
X132350262Y-91587042D01*
X132295777Y-91543303D01*
X132277294Y-91502833D01*
X132268884Y-91469626D01*
X132234063Y-91332119D01*
X132134173Y-91104393D01*
X132081479Y-91023738D01*
X131998166Y-90896217D01*
X131947134Y-90840782D01*
X131829744Y-90713262D01*
X131633509Y-90560526D01*
X131633507Y-90560525D01*
X131633506Y-90560524D01*
X131414811Y-90442172D01*
X131414802Y-90442169D01*
X131179616Y-90361429D01*
X130934335Y-90320500D01*
X130685665Y-90320500D01*
X130440383Y-90361429D01*
X130205197Y-90442169D01*
X130205188Y-90442172D01*
X129986493Y-90560524D01*
X129790257Y-90713261D01*
X129621833Y-90896217D01*
X129485826Y-91104393D01*
X129385936Y-91332118D01*
X129324892Y-91573175D01*
X129324890Y-91573187D01*
X129304357Y-91820994D01*
X129304357Y-91821005D01*
X119307381Y-91821005D01*
X119341108Y-91687821D01*
X119350607Y-91573187D01*
X119361643Y-91440005D01*
X119361643Y-91439994D01*
X119341109Y-91192187D01*
X119341107Y-91192175D01*
X119280063Y-90951118D01*
X119180173Y-90723393D01*
X119044166Y-90515217D01*
X118964880Y-90429090D01*
X118875744Y-90332262D01*
X118679509Y-90179526D01*
X118679507Y-90179525D01*
X118679506Y-90179524D01*
X118460811Y-90061172D01*
X118460802Y-90061169D01*
X118225616Y-89980429D01*
X118191935Y-89974809D01*
X118129050Y-89944359D01*
X118092610Y-89884744D01*
X118094185Y-89814892D01*
X118133274Y-89756981D01*
X118191935Y-89730191D01*
X118195638Y-89729572D01*
X118225614Y-89724571D01*
X118460810Y-89643828D01*
X118679509Y-89525474D01*
X118875744Y-89372738D01*
X119044164Y-89189785D01*
X119180173Y-88981607D01*
X119280063Y-88753881D01*
X119341108Y-88512821D01*
X119345781Y-88456429D01*
X119361643Y-88265005D01*
X119361643Y-88264994D01*
X119341109Y-88017187D01*
X119341107Y-88017175D01*
X119280063Y-87776118D01*
X119180173Y-87548393D01*
X119044166Y-87340217D01*
X119022557Y-87316744D01*
X118875744Y-87157262D01*
X118679509Y-87004526D01*
X118679507Y-87004525D01*
X118679506Y-87004524D01*
X118460811Y-86886172D01*
X118460802Y-86886169D01*
X118225616Y-86805429D01*
X117980335Y-86764500D01*
X117731665Y-86764500D01*
X117486383Y-86805429D01*
X117251197Y-86886169D01*
X117251188Y-86886172D01*
X117032493Y-87004524D01*
X116836257Y-87157261D01*
X116667833Y-87340217D01*
X116531826Y-87548393D01*
X116431936Y-87776118D01*
X116370892Y-88017175D01*
X116370890Y-88017187D01*
X116350357Y-88264994D01*
X116350357Y-88265005D01*
X116370890Y-88512812D01*
X116370892Y-88512824D01*
X116431936Y-88753881D01*
X116531826Y-88981606D01*
X116667833Y-89189782D01*
X116667836Y-89189785D01*
X116836256Y-89372738D01*
X117032491Y-89525474D01*
X117251190Y-89643828D01*
X117373319Y-89685755D01*
X117486382Y-89724570D01*
X117486384Y-89724570D01*
X117486386Y-89724571D01*
X117513381Y-89729075D01*
X117520065Y-89730191D01*
X117582950Y-89760641D01*
X117619389Y-89820256D01*
X117617814Y-89890108D01*
X117578724Y-89948020D01*
X117520065Y-89974809D01*
X117486382Y-89980429D01*
X117251197Y-90061169D01*
X117251188Y-90061172D01*
X117032493Y-90179524D01*
X116836257Y-90332261D01*
X116667833Y-90515217D01*
X116531826Y-90723393D01*
X116431936Y-90951118D01*
X116370892Y-91192175D01*
X116370890Y-91192187D01*
X116350357Y-91439994D01*
X116350357Y-91440005D01*
X116370890Y-91687812D01*
X116370892Y-91687824D01*
X116431936Y-91928881D01*
X116531826Y-92156606D01*
X116667833Y-92364782D01*
X116667836Y-92364785D01*
X116836256Y-92547738D01*
X117032491Y-92700474D01*
X117251190Y-92818828D01*
X117285635Y-92830653D01*
X117332432Y-92846719D01*
X117389447Y-92887105D01*
X117415578Y-92951904D01*
X117402526Y-93020544D01*
X117354438Y-93071232D01*
X117332432Y-93081281D01*
X117251197Y-93109169D01*
X117251188Y-93109172D01*
X117032493Y-93227524D01*
X116836257Y-93380261D01*
X116667833Y-93563217D01*
X116531826Y-93771393D01*
X116431936Y-93999118D01*
X116370892Y-94240175D01*
X116370890Y-94240187D01*
X116350357Y-94487994D01*
X116350357Y-94488005D01*
X116370890Y-94735812D01*
X116370892Y-94735824D01*
X116431936Y-94976881D01*
X116531826Y-95204606D01*
X116667833Y-95412782D01*
X116667836Y-95412785D01*
X116836256Y-95595738D01*
X117032491Y-95748474D01*
X117251190Y-95866828D01*
X117373319Y-95908755D01*
X117486382Y-95947570D01*
X117486384Y-95947570D01*
X117486386Y-95947571D01*
X117513381Y-95952075D01*
X117520065Y-95953191D01*
X117582950Y-95983641D01*
X117619389Y-96043256D01*
X117617814Y-96113108D01*
X117578724Y-96171020D01*
X117520065Y-96197809D01*
X117486382Y-96203429D01*
X117251197Y-96284169D01*
X117251188Y-96284172D01*
X117032493Y-96402524D01*
X116836257Y-96555261D01*
X116667833Y-96738217D01*
X116531826Y-96946393D01*
X116431936Y-97174118D01*
X116370892Y-97415175D01*
X116370890Y-97415187D01*
X116350357Y-97662994D01*
X116350357Y-97663005D01*
X116370890Y-97910812D01*
X116370892Y-97910824D01*
X116431936Y-98151881D01*
X116531826Y-98379606D01*
X116667833Y-98587782D01*
X116667836Y-98587785D01*
X116836256Y-98770738D01*
X117032491Y-98923474D01*
X117251190Y-99041828D01*
X117373319Y-99083755D01*
X117486382Y-99122570D01*
X117486384Y-99122570D01*
X117486386Y-99122571D01*
X117513381Y-99127075D01*
X117520065Y-99128191D01*
X117582950Y-99158641D01*
X117619389Y-99218256D01*
X117617814Y-99288108D01*
X117578724Y-99346020D01*
X117520065Y-99372809D01*
X117486382Y-99378429D01*
X117251197Y-99459169D01*
X117251188Y-99459172D01*
X117032493Y-99577524D01*
X116836257Y-99730261D01*
X116667833Y-99913217D01*
X116531826Y-100121393D01*
X116431936Y-100349118D01*
X116370892Y-100590175D01*
X116370890Y-100590187D01*
X116350357Y-100837994D01*
X116350357Y-100838005D01*
X116370890Y-101085812D01*
X116370892Y-101085824D01*
X116431936Y-101326881D01*
X116531826Y-101554606D01*
X116667833Y-101762782D01*
X116667836Y-101762785D01*
X116836256Y-101945738D01*
X117032491Y-102098474D01*
X117251190Y-102216828D01*
X117373319Y-102258755D01*
X117486382Y-102297570D01*
X117486384Y-102297570D01*
X117486386Y-102297571D01*
X117513381Y-102302075D01*
X117520065Y-102303191D01*
X117582950Y-102333641D01*
X117619389Y-102393256D01*
X117617814Y-102463108D01*
X117578724Y-102521020D01*
X117520065Y-102547809D01*
X117486382Y-102553429D01*
X117251197Y-102634169D01*
X117251188Y-102634172D01*
X117032493Y-102752524D01*
X116836257Y-102905261D01*
X116667833Y-103088217D01*
X116531826Y-103296393D01*
X116431936Y-103524118D01*
X116370892Y-103765175D01*
X116370890Y-103765187D01*
X116350357Y-104012994D01*
X116350357Y-104013005D01*
X101600000Y-104013005D01*
X101600000Y-84954004D01*
X103990500Y-84954004D01*
X103990501Y-84954020D01*
X104020777Y-85183993D01*
X104021307Y-85188014D01*
X104027396Y-85210738D01*
X104082394Y-85415993D01*
X104172714Y-85634045D01*
X104172719Y-85634056D01*
X104215044Y-85707364D01*
X104290727Y-85838450D01*
X104290729Y-85838453D01*
X104290730Y-85838454D01*
X104434406Y-86025697D01*
X104434412Y-86025704D01*
X104601295Y-86192587D01*
X104601302Y-86192593D01*
X104677493Y-86251056D01*
X104788550Y-86336273D01*
X104919918Y-86412118D01*
X104992943Y-86454280D01*
X104992948Y-86454282D01*
X104992951Y-86454284D01*
X105211007Y-86544606D01*
X105438986Y-86605693D01*
X105672989Y-86636500D01*
X105672996Y-86636500D01*
X105909004Y-86636500D01*
X105909011Y-86636500D01*
X106143014Y-86605693D01*
X106370993Y-86544606D01*
X106589049Y-86454284D01*
X106793450Y-86336273D01*
X106980699Y-86192592D01*
X107147592Y-86025699D01*
X107291273Y-85838450D01*
X107409284Y-85634049D01*
X107499606Y-85415993D01*
X107560693Y-85188014D01*
X107590316Y-84963005D01*
X113048859Y-84963005D01*
X113069385Y-85210729D01*
X113069387Y-85210738D01*
X113130412Y-85451717D01*
X113230266Y-85679364D01*
X113330564Y-85832882D01*
X114071037Y-85092409D01*
X114088075Y-85155993D01*
X114153901Y-85270007D01*
X114246993Y-85363099D01*
X114361007Y-85428925D01*
X114424590Y-85445962D01*
X113683942Y-86186609D01*
X113730768Y-86223055D01*
X113730770Y-86223056D01*
X113949385Y-86341364D01*
X113949396Y-86341369D01*
X114184506Y-86422083D01*
X114429707Y-86463000D01*
X114678293Y-86463000D01*
X114923493Y-86422083D01*
X115158603Y-86341369D01*
X115158614Y-86341364D01*
X115377228Y-86223057D01*
X115377231Y-86223055D01*
X115424056Y-86186609D01*
X114683409Y-85445962D01*
X114746993Y-85428925D01*
X114861007Y-85363099D01*
X114954099Y-85270007D01*
X115019925Y-85155993D01*
X115036962Y-85092410D01*
X115777434Y-85832882D01*
X115877731Y-85679369D01*
X115977587Y-85451717D01*
X116038612Y-85210738D01*
X116038614Y-85210729D01*
X116056821Y-84991005D01*
X116350859Y-84991005D01*
X116371385Y-85238729D01*
X116371387Y-85238738D01*
X116432412Y-85479717D01*
X116532266Y-85707364D01*
X116632564Y-85860882D01*
X117373037Y-85120409D01*
X117390075Y-85183993D01*
X117455901Y-85298007D01*
X117548993Y-85391099D01*
X117663007Y-85456925D01*
X117726590Y-85473962D01*
X116985942Y-86214609D01*
X117032768Y-86251055D01*
X117032770Y-86251056D01*
X117251385Y-86369364D01*
X117251396Y-86369369D01*
X117486506Y-86450083D01*
X117731707Y-86491000D01*
X117980293Y-86491000D01*
X118225493Y-86450083D01*
X118460603Y-86369369D01*
X118460614Y-86369364D01*
X118679228Y-86251057D01*
X118679231Y-86251055D01*
X118726056Y-86214609D01*
X117985409Y-85473962D01*
X118048993Y-85456925D01*
X118163007Y-85391099D01*
X118256099Y-85298007D01*
X118321925Y-85183993D01*
X118338962Y-85120410D01*
X119079434Y-85860882D01*
X119179731Y-85707369D01*
X119279587Y-85479717D01*
X119340612Y-85238738D01*
X119340614Y-85238729D01*
X119361141Y-84991005D01*
X119361141Y-84990994D01*
X119358822Y-84963005D01*
X119652859Y-84963005D01*
X119673385Y-85210729D01*
X119673387Y-85210738D01*
X119734412Y-85451717D01*
X119834266Y-85679364D01*
X119934564Y-85832882D01*
X120675037Y-85092409D01*
X120692075Y-85155993D01*
X120757901Y-85270007D01*
X120850993Y-85363099D01*
X120965007Y-85428925D01*
X121028590Y-85445962D01*
X120287942Y-86186609D01*
X120334768Y-86223055D01*
X120334770Y-86223056D01*
X120553385Y-86341364D01*
X120553396Y-86341369D01*
X120788506Y-86422083D01*
X121033707Y-86463000D01*
X121282293Y-86463000D01*
X121527493Y-86422083D01*
X121762603Y-86341369D01*
X121762614Y-86341364D01*
X121981228Y-86223057D01*
X121981231Y-86223055D01*
X122028056Y-86186609D01*
X121287409Y-85445962D01*
X121350993Y-85428925D01*
X121465007Y-85363099D01*
X121558099Y-85270007D01*
X121623925Y-85155993D01*
X121640962Y-85092410D01*
X122381434Y-85832882D01*
X122481731Y-85679369D01*
X122581587Y-85451717D01*
X122642612Y-85210738D01*
X122642614Y-85210729D01*
X122663141Y-84963005D01*
X122954859Y-84963005D01*
X122975385Y-85210729D01*
X122975387Y-85210738D01*
X123036412Y-85451717D01*
X123136266Y-85679364D01*
X123236564Y-85832882D01*
X123977037Y-85092409D01*
X123994075Y-85155993D01*
X124059901Y-85270007D01*
X124152993Y-85363099D01*
X124267007Y-85428925D01*
X124330590Y-85445962D01*
X123589942Y-86186609D01*
X123636768Y-86223055D01*
X123636770Y-86223056D01*
X123855385Y-86341364D01*
X123855396Y-86341369D01*
X124090506Y-86422083D01*
X124335707Y-86463000D01*
X124584293Y-86463000D01*
X124829493Y-86422083D01*
X125064603Y-86341369D01*
X125064614Y-86341364D01*
X125283228Y-86223057D01*
X125283231Y-86223055D01*
X125330056Y-86186609D01*
X124589409Y-85445962D01*
X124652993Y-85428925D01*
X124767007Y-85363099D01*
X124860099Y-85270007D01*
X124925925Y-85155993D01*
X124942962Y-85092410D01*
X125683434Y-85832882D01*
X125783731Y-85679369D01*
X125883587Y-85451717D01*
X125944612Y-85210738D01*
X125944614Y-85210729D01*
X125965141Y-84963005D01*
X125965141Y-84962994D01*
X125964396Y-84954004D01*
X151361500Y-84954004D01*
X151361501Y-84954020D01*
X151391777Y-85183993D01*
X151392307Y-85188014D01*
X151398396Y-85210738D01*
X151453394Y-85415993D01*
X151543714Y-85634045D01*
X151543719Y-85634056D01*
X151586044Y-85707364D01*
X151661727Y-85838450D01*
X151661729Y-85838453D01*
X151661730Y-85838454D01*
X151805406Y-86025697D01*
X151805412Y-86025704D01*
X151972295Y-86192587D01*
X151972302Y-86192593D01*
X152048493Y-86251056D01*
X152159550Y-86336273D01*
X152290918Y-86412118D01*
X152363943Y-86454280D01*
X152363948Y-86454282D01*
X152363951Y-86454284D01*
X152582007Y-86544606D01*
X152809986Y-86605693D01*
X153043989Y-86636500D01*
X153043996Y-86636500D01*
X153280004Y-86636500D01*
X153280011Y-86636500D01*
X153514014Y-86605693D01*
X153741993Y-86544606D01*
X153960049Y-86454284D01*
X154164450Y-86336273D01*
X154351699Y-86192592D01*
X154518592Y-86025699D01*
X154662273Y-85838450D01*
X154780284Y-85634049D01*
X154870606Y-85415993D01*
X154931693Y-85188014D01*
X154962500Y-84954011D01*
X154962500Y-84717989D01*
X154931693Y-84483986D01*
X154870606Y-84256007D01*
X154780284Y-84037951D01*
X154780282Y-84037948D01*
X154780280Y-84037943D01*
X154738118Y-83964918D01*
X154662273Y-83833550D01*
X154583540Y-83730943D01*
X154518593Y-83646302D01*
X154518587Y-83646295D01*
X154351704Y-83479412D01*
X154351697Y-83479406D01*
X154164454Y-83335730D01*
X154164453Y-83335729D01*
X154164450Y-83335727D01*
X154082957Y-83288677D01*
X153960056Y-83217719D01*
X153960045Y-83217714D01*
X153741993Y-83127394D01*
X153514010Y-83066306D01*
X153280020Y-83035501D01*
X153280017Y-83035500D01*
X153280011Y-83035500D01*
X153043989Y-83035500D01*
X153043983Y-83035500D01*
X153043979Y-83035501D01*
X152809989Y-83066306D01*
X152582006Y-83127394D01*
X152363954Y-83217714D01*
X152363943Y-83217719D01*
X152159545Y-83335730D01*
X151972302Y-83479406D01*
X151972295Y-83479412D01*
X151805412Y-83646295D01*
X151805406Y-83646302D01*
X151661730Y-83833545D01*
X151543719Y-84037943D01*
X151543714Y-84037954D01*
X151453394Y-84256006D01*
X151392306Y-84483989D01*
X151361501Y-84717979D01*
X151361500Y-84717995D01*
X151361500Y-84954004D01*
X125964396Y-84954004D01*
X125944614Y-84715270D01*
X125944612Y-84715261D01*
X125883587Y-84474282D01*
X125783731Y-84246630D01*
X125683434Y-84093116D01*
X124942962Y-84833589D01*
X124925925Y-84770007D01*
X124860099Y-84655993D01*
X124767007Y-84562901D01*
X124652993Y-84497075D01*
X124589410Y-84480037D01*
X125330057Y-83739390D01*
X125330056Y-83739389D01*
X125283229Y-83702943D01*
X125064614Y-83584635D01*
X125064603Y-83584630D01*
X124829493Y-83503916D01*
X124584293Y-83463000D01*
X124335707Y-83463000D01*
X124090506Y-83503916D01*
X123855396Y-83584630D01*
X123855390Y-83584632D01*
X123636761Y-83702949D01*
X123589942Y-83739388D01*
X123589942Y-83739390D01*
X124330590Y-84480037D01*
X124267007Y-84497075D01*
X124152993Y-84562901D01*
X124059901Y-84655993D01*
X123994075Y-84770007D01*
X123977037Y-84833589D01*
X123236564Y-84093116D01*
X123136267Y-84246632D01*
X123036412Y-84474282D01*
X122975387Y-84715261D01*
X122975385Y-84715270D01*
X122954859Y-84962994D01*
X122954859Y-84963005D01*
X122663141Y-84963005D01*
X122663141Y-84962994D01*
X122642614Y-84715270D01*
X122642612Y-84715261D01*
X122581587Y-84474282D01*
X122481731Y-84246630D01*
X122381434Y-84093116D01*
X121640962Y-84833589D01*
X121623925Y-84770007D01*
X121558099Y-84655993D01*
X121465007Y-84562901D01*
X121350993Y-84497075D01*
X121287410Y-84480037D01*
X122028057Y-83739390D01*
X122028056Y-83739389D01*
X121981229Y-83702943D01*
X121762614Y-83584635D01*
X121762603Y-83584630D01*
X121527493Y-83503916D01*
X121282293Y-83463000D01*
X121033707Y-83463000D01*
X120788506Y-83503916D01*
X120553396Y-83584630D01*
X120553390Y-83584632D01*
X120334761Y-83702949D01*
X120287942Y-83739388D01*
X120287942Y-83739390D01*
X121028590Y-84480037D01*
X120965007Y-84497075D01*
X120850993Y-84562901D01*
X120757901Y-84655993D01*
X120692075Y-84770007D01*
X120675037Y-84833589D01*
X119934564Y-84093116D01*
X119834267Y-84246632D01*
X119734412Y-84474282D01*
X119673387Y-84715261D01*
X119673385Y-84715270D01*
X119652859Y-84962994D01*
X119652859Y-84963005D01*
X119358822Y-84963005D01*
X119340614Y-84743270D01*
X119340612Y-84743261D01*
X119279587Y-84502282D01*
X119179731Y-84274630D01*
X119079434Y-84121116D01*
X118338962Y-84861589D01*
X118321925Y-84798007D01*
X118256099Y-84683993D01*
X118163007Y-84590901D01*
X118048993Y-84525075D01*
X117985410Y-84508037D01*
X118726057Y-83767390D01*
X118726056Y-83767389D01*
X118679229Y-83730943D01*
X118460614Y-83612635D01*
X118460603Y-83612630D01*
X118225493Y-83531916D01*
X117980293Y-83491000D01*
X117731707Y-83491000D01*
X117486506Y-83531916D01*
X117251396Y-83612630D01*
X117251390Y-83612632D01*
X117032761Y-83730949D01*
X116985942Y-83767388D01*
X116985942Y-83767390D01*
X117726590Y-84508037D01*
X117663007Y-84525075D01*
X117548993Y-84590901D01*
X117455901Y-84683993D01*
X117390075Y-84798007D01*
X117373037Y-84861589D01*
X116632564Y-84121116D01*
X116532267Y-84274632D01*
X116432412Y-84502282D01*
X116371387Y-84743261D01*
X116371385Y-84743270D01*
X116350859Y-84990994D01*
X116350859Y-84991005D01*
X116056821Y-84991005D01*
X116059141Y-84963005D01*
X116059141Y-84962994D01*
X116038614Y-84715270D01*
X116038612Y-84715261D01*
X115977587Y-84474282D01*
X115877731Y-84246630D01*
X115777434Y-84093116D01*
X115036962Y-84833589D01*
X115019925Y-84770007D01*
X114954099Y-84655993D01*
X114861007Y-84562901D01*
X114746993Y-84497075D01*
X114683410Y-84480037D01*
X115424057Y-83739390D01*
X115424056Y-83739389D01*
X115377229Y-83702943D01*
X115158614Y-83584635D01*
X115158603Y-83584630D01*
X114923493Y-83503916D01*
X114678293Y-83463000D01*
X114429707Y-83463000D01*
X114184506Y-83503916D01*
X113949396Y-83584630D01*
X113949390Y-83584632D01*
X113730761Y-83702949D01*
X113683942Y-83739388D01*
X113683942Y-83739390D01*
X114424590Y-84480037D01*
X114361007Y-84497075D01*
X114246993Y-84562901D01*
X114153901Y-84655993D01*
X114088075Y-84770007D01*
X114071037Y-84833589D01*
X113330564Y-84093116D01*
X113230267Y-84246632D01*
X113130412Y-84474282D01*
X113069387Y-84715261D01*
X113069385Y-84715270D01*
X113048859Y-84962994D01*
X113048859Y-84963005D01*
X107590316Y-84963005D01*
X107591500Y-84954011D01*
X107591500Y-84717989D01*
X107560693Y-84483986D01*
X107499606Y-84256007D01*
X107409284Y-84037951D01*
X107409282Y-84037948D01*
X107409280Y-84037943D01*
X107367118Y-83964918D01*
X107291273Y-83833550D01*
X107212540Y-83730943D01*
X107147593Y-83646302D01*
X107147587Y-83646295D01*
X106980704Y-83479412D01*
X106980697Y-83479406D01*
X106793454Y-83335730D01*
X106793453Y-83335729D01*
X106793450Y-83335727D01*
X106711957Y-83288677D01*
X106589056Y-83217719D01*
X106589045Y-83217714D01*
X106370993Y-83127394D01*
X106143010Y-83066306D01*
X105909020Y-83035501D01*
X105909017Y-83035500D01*
X105909011Y-83035500D01*
X105672989Y-83035500D01*
X105672983Y-83035500D01*
X105672979Y-83035501D01*
X105438989Y-83066306D01*
X105211006Y-83127394D01*
X104992954Y-83217714D01*
X104992943Y-83217719D01*
X104788545Y-83335730D01*
X104601302Y-83479406D01*
X104601295Y-83479412D01*
X104434412Y-83646295D01*
X104434406Y-83646302D01*
X104290730Y-83833545D01*
X104172719Y-84037943D01*
X104172714Y-84037954D01*
X104082394Y-84256006D01*
X104021306Y-84483989D01*
X103990501Y-84717979D01*
X103990500Y-84717995D01*
X103990500Y-84954004D01*
X101600000Y-84954004D01*
X101600000Y-82234000D01*
X101619685Y-82166961D01*
X101672489Y-82121206D01*
X101724000Y-82110000D01*
X157229000Y-82110000D01*
X157296039Y-82129685D01*
G37*
G04 #@! TD.AperFunction*
M02*
