G04 #@! TF.GenerationSoftware,KiCad,Pcbnew,8.0.0*
G04 #@! TF.CreationDate,2024-03-04T18:14:40-06:00*
G04 #@! TF.ProjectId,MicrocontrollerUnitBoard,4d696372-6f63-46f6-9e74-726f6c6c6572,rev?*
G04 #@! TF.SameCoordinates,Original*
G04 #@! TF.FileFunction,Legend,Top*
G04 #@! TF.FilePolarity,Positive*
%FSLAX46Y46*%
G04 Gerber Fmt 4.6, Leading zero omitted, Abs format (unit mm)*
G04 Created by KiCad (PCBNEW 8.0.0) date 2024-03-04 18:14:40*
%MOMM*%
%LPD*%
G01*
G04 APERTURE LIST*
%ADD10C,0.150000*%
%ADD11C,0.254000*%
%ADD12C,0.120000*%
%ADD13C,0.200000*%
%ADD14C,0.152400*%
%ADD15C,0.127000*%
%ADD16C,0.300000*%
G04 APERTURE END LIST*
D10*
X123983904Y-82306438D02*
X123888666Y-82258819D01*
X123888666Y-82258819D02*
X123745809Y-82258819D01*
X123745809Y-82258819D02*
X123602952Y-82306438D01*
X123602952Y-82306438D02*
X123507714Y-82401676D01*
X123507714Y-82401676D02*
X123460095Y-82496914D01*
X123460095Y-82496914D02*
X123412476Y-82687390D01*
X123412476Y-82687390D02*
X123412476Y-82830247D01*
X123412476Y-82830247D02*
X123460095Y-83020723D01*
X123460095Y-83020723D02*
X123507714Y-83115961D01*
X123507714Y-83115961D02*
X123602952Y-83211200D01*
X123602952Y-83211200D02*
X123745809Y-83258819D01*
X123745809Y-83258819D02*
X123841047Y-83258819D01*
X123841047Y-83258819D02*
X123983904Y-83211200D01*
X123983904Y-83211200D02*
X124031523Y-83163580D01*
X124031523Y-83163580D02*
X124031523Y-82830247D01*
X124031523Y-82830247D02*
X123841047Y-82830247D01*
X124460095Y-83258819D02*
X124460095Y-82258819D01*
X124460095Y-82258819D02*
X125031523Y-83258819D01*
X125031523Y-83258819D02*
X125031523Y-82258819D01*
X125507714Y-83258819D02*
X125507714Y-82258819D01*
X125507714Y-82258819D02*
X125745809Y-82258819D01*
X125745809Y-82258819D02*
X125888666Y-82306438D01*
X125888666Y-82306438D02*
X125983904Y-82401676D01*
X125983904Y-82401676D02*
X126031523Y-82496914D01*
X126031523Y-82496914D02*
X126079142Y-82687390D01*
X126079142Y-82687390D02*
X126079142Y-82830247D01*
X126079142Y-82830247D02*
X126031523Y-83020723D01*
X126031523Y-83020723D02*
X125983904Y-83115961D01*
X125983904Y-83115961D02*
X125888666Y-83211200D01*
X125888666Y-83211200D02*
X125745809Y-83258819D01*
X125745809Y-83258819D02*
X125507714Y-83258819D01*
X126983904Y-82258819D02*
X126507714Y-82258819D01*
X126507714Y-82258819D02*
X126460095Y-82735009D01*
X126460095Y-82735009D02*
X126507714Y-82687390D01*
X126507714Y-82687390D02*
X126602952Y-82639771D01*
X126602952Y-82639771D02*
X126841047Y-82639771D01*
X126841047Y-82639771D02*
X126936285Y-82687390D01*
X126936285Y-82687390D02*
X126983904Y-82735009D01*
X126983904Y-82735009D02*
X127031523Y-82830247D01*
X127031523Y-82830247D02*
X127031523Y-83068342D01*
X127031523Y-83068342D02*
X126983904Y-83163580D01*
X126983904Y-83163580D02*
X126936285Y-83211200D01*
X126936285Y-83211200D02*
X126841047Y-83258819D01*
X126841047Y-83258819D02*
X126602952Y-83258819D01*
X126602952Y-83258819D02*
X126507714Y-83211200D01*
X126507714Y-83211200D02*
X126460095Y-83163580D01*
X120372428Y-88719819D02*
X120039095Y-88243628D01*
X119801000Y-88719819D02*
X119801000Y-87719819D01*
X119801000Y-87719819D02*
X120181952Y-87719819D01*
X120181952Y-87719819D02*
X120277190Y-87767438D01*
X120277190Y-87767438D02*
X120324809Y-87815057D01*
X120324809Y-87815057D02*
X120372428Y-87910295D01*
X120372428Y-87910295D02*
X120372428Y-88053152D01*
X120372428Y-88053152D02*
X120324809Y-88148390D01*
X120324809Y-88148390D02*
X120277190Y-88196009D01*
X120277190Y-88196009D02*
X120181952Y-88243628D01*
X120181952Y-88243628D02*
X119801000Y-88243628D01*
X120753381Y-88672200D02*
X120896238Y-88719819D01*
X120896238Y-88719819D02*
X121134333Y-88719819D01*
X121134333Y-88719819D02*
X121229571Y-88672200D01*
X121229571Y-88672200D02*
X121277190Y-88624580D01*
X121277190Y-88624580D02*
X121324809Y-88529342D01*
X121324809Y-88529342D02*
X121324809Y-88434104D01*
X121324809Y-88434104D02*
X121277190Y-88338866D01*
X121277190Y-88338866D02*
X121229571Y-88291247D01*
X121229571Y-88291247D02*
X121134333Y-88243628D01*
X121134333Y-88243628D02*
X120943857Y-88196009D01*
X120943857Y-88196009D02*
X120848619Y-88148390D01*
X120848619Y-88148390D02*
X120801000Y-88100771D01*
X120801000Y-88100771D02*
X120753381Y-88005533D01*
X120753381Y-88005533D02*
X120753381Y-87910295D01*
X120753381Y-87910295D02*
X120801000Y-87815057D01*
X120801000Y-87815057D02*
X120848619Y-87767438D01*
X120848619Y-87767438D02*
X120943857Y-87719819D01*
X120943857Y-87719819D02*
X121181952Y-87719819D01*
X121181952Y-87719819D02*
X121324809Y-87767438D01*
X121610524Y-87719819D02*
X122181952Y-87719819D01*
X121896238Y-88719819D02*
X121896238Y-87719819D01*
X122277191Y-88815057D02*
X123039095Y-88815057D01*
X123277191Y-88719819D02*
X123277191Y-87719819D01*
X123277191Y-87719819D02*
X123848619Y-88719819D01*
X123848619Y-88719819D02*
X123848619Y-87719819D01*
X124848619Y-88719819D02*
X124277191Y-88719819D01*
X124562905Y-88719819D02*
X124562905Y-87719819D01*
X124562905Y-87719819D02*
X124467667Y-87862676D01*
X124467667Y-87862676D02*
X124372429Y-87957914D01*
X124372429Y-87957914D02*
X124277191Y-88005533D01*
X119761286Y-91894819D02*
X119761286Y-90894819D01*
X120237476Y-91894819D02*
X120237476Y-90894819D01*
X120237476Y-90894819D02*
X120808904Y-91894819D01*
X120808904Y-91894819D02*
X120808904Y-90894819D01*
X121142238Y-90894819D02*
X121713666Y-90894819D01*
X121427952Y-91894819D02*
X121427952Y-90894819D01*
X121808905Y-91990057D02*
X122570809Y-91990057D01*
X122808905Y-91894819D02*
X122808905Y-90894819D01*
X122808905Y-90894819D02*
X123380333Y-91894819D01*
X123380333Y-91894819D02*
X123380333Y-90894819D01*
X124380333Y-91894819D02*
X123808905Y-91894819D01*
X124094619Y-91894819D02*
X124094619Y-90894819D01*
X124094619Y-90894819D02*
X123999381Y-91037676D01*
X123999381Y-91037676D02*
X123904143Y-91132914D01*
X123904143Y-91132914D02*
X123808905Y-91180533D01*
X112045904Y-112405438D02*
X111950666Y-112357819D01*
X111950666Y-112357819D02*
X111807809Y-112357819D01*
X111807809Y-112357819D02*
X111664952Y-112405438D01*
X111664952Y-112405438D02*
X111569714Y-112500676D01*
X111569714Y-112500676D02*
X111522095Y-112595914D01*
X111522095Y-112595914D02*
X111474476Y-112786390D01*
X111474476Y-112786390D02*
X111474476Y-112929247D01*
X111474476Y-112929247D02*
X111522095Y-113119723D01*
X111522095Y-113119723D02*
X111569714Y-113214961D01*
X111569714Y-113214961D02*
X111664952Y-113310200D01*
X111664952Y-113310200D02*
X111807809Y-113357819D01*
X111807809Y-113357819D02*
X111903047Y-113357819D01*
X111903047Y-113357819D02*
X112045904Y-113310200D01*
X112045904Y-113310200D02*
X112093523Y-113262580D01*
X112093523Y-113262580D02*
X112093523Y-112929247D01*
X112093523Y-112929247D02*
X111903047Y-112929247D01*
X112522095Y-113357819D02*
X112522095Y-112357819D01*
X112522095Y-112357819D02*
X113093523Y-113357819D01*
X113093523Y-113357819D02*
X113093523Y-112357819D01*
X113569714Y-113357819D02*
X113569714Y-112357819D01*
X113569714Y-112357819D02*
X113807809Y-112357819D01*
X113807809Y-112357819D02*
X113950666Y-112405438D01*
X113950666Y-112405438D02*
X114045904Y-112500676D01*
X114045904Y-112500676D02*
X114093523Y-112595914D01*
X114093523Y-112595914D02*
X114141142Y-112786390D01*
X114141142Y-112786390D02*
X114141142Y-112929247D01*
X114141142Y-112929247D02*
X114093523Y-113119723D01*
X114093523Y-113119723D02*
X114045904Y-113214961D01*
X114045904Y-113214961D02*
X113950666Y-113310200D01*
X113950666Y-113310200D02*
X113807809Y-113357819D01*
X113807809Y-113357819D02*
X113569714Y-113357819D01*
X115093523Y-113357819D02*
X114522095Y-113357819D01*
X114807809Y-113357819D02*
X114807809Y-112357819D01*
X114807809Y-112357819D02*
X114712571Y-112500676D01*
X114712571Y-112500676D02*
X114617333Y-112595914D01*
X114617333Y-112595914D02*
X114522095Y-112643533D01*
X116538619Y-112357819D02*
X117157666Y-112357819D01*
X117157666Y-112357819D02*
X116824333Y-112738771D01*
X116824333Y-112738771D02*
X116967190Y-112738771D01*
X116967190Y-112738771D02*
X117062428Y-112786390D01*
X117062428Y-112786390D02*
X117110047Y-112834009D01*
X117110047Y-112834009D02*
X117157666Y-112929247D01*
X117157666Y-112929247D02*
X117157666Y-113167342D01*
X117157666Y-113167342D02*
X117110047Y-113262580D01*
X117110047Y-113262580D02*
X117062428Y-113310200D01*
X117062428Y-113310200D02*
X116967190Y-113357819D01*
X116967190Y-113357819D02*
X116681476Y-113357819D01*
X116681476Y-113357819D02*
X116586238Y-113310200D01*
X116586238Y-113310200D02*
X116538619Y-113262580D01*
X117586238Y-113262580D02*
X117633857Y-113310200D01*
X117633857Y-113310200D02*
X117586238Y-113357819D01*
X117586238Y-113357819D02*
X117538619Y-113310200D01*
X117538619Y-113310200D02*
X117586238Y-113262580D01*
X117586238Y-113262580D02*
X117586238Y-113357819D01*
X117967190Y-112357819D02*
X118586237Y-112357819D01*
X118586237Y-112357819D02*
X118252904Y-112738771D01*
X118252904Y-112738771D02*
X118395761Y-112738771D01*
X118395761Y-112738771D02*
X118490999Y-112786390D01*
X118490999Y-112786390D02*
X118538618Y-112834009D01*
X118538618Y-112834009D02*
X118586237Y-112929247D01*
X118586237Y-112929247D02*
X118586237Y-113167342D01*
X118586237Y-113167342D02*
X118538618Y-113262580D01*
X118538618Y-113262580D02*
X118490999Y-113310200D01*
X118490999Y-113310200D02*
X118395761Y-113357819D01*
X118395761Y-113357819D02*
X118110047Y-113357819D01*
X118110047Y-113357819D02*
X118014809Y-113310200D01*
X118014809Y-113310200D02*
X117967190Y-113262580D01*
X118871952Y-112357819D02*
X119205285Y-113357819D01*
X119205285Y-113357819D02*
X119538618Y-112357819D01*
X120395761Y-113357819D02*
X119824333Y-113357819D01*
X120110047Y-113357819D02*
X120110047Y-112357819D01*
X120110047Y-112357819D02*
X120014809Y-112500676D01*
X120014809Y-112500676D02*
X119919571Y-112595914D01*
X119919571Y-112595914D02*
X119824333Y-112643533D01*
X109728095Y-85290819D02*
X109728095Y-84290819D01*
X109728095Y-84767009D02*
X110299523Y-84767009D01*
X110299523Y-85290819D02*
X110299523Y-84290819D01*
X111204285Y-84624152D02*
X111204285Y-85290819D01*
X110966190Y-84243200D02*
X110728095Y-84957485D01*
X110728095Y-84957485D02*
X111347142Y-84957485D01*
X137771428Y-101419819D02*
X137438095Y-100943628D01*
X137200000Y-101419819D02*
X137200000Y-100419819D01*
X137200000Y-100419819D02*
X137580952Y-100419819D01*
X137580952Y-100419819D02*
X137676190Y-100467438D01*
X137676190Y-100467438D02*
X137723809Y-100515057D01*
X137723809Y-100515057D02*
X137771428Y-100610295D01*
X137771428Y-100610295D02*
X137771428Y-100753152D01*
X137771428Y-100753152D02*
X137723809Y-100848390D01*
X137723809Y-100848390D02*
X137676190Y-100896009D01*
X137676190Y-100896009D02*
X137580952Y-100943628D01*
X137580952Y-100943628D02*
X137200000Y-100943628D01*
X138200000Y-100896009D02*
X138533333Y-100896009D01*
X138676190Y-101419819D02*
X138200000Y-101419819D01*
X138200000Y-101419819D02*
X138200000Y-100419819D01*
X138200000Y-100419819D02*
X138676190Y-100419819D01*
X139057143Y-101372200D02*
X139200000Y-101419819D01*
X139200000Y-101419819D02*
X139438095Y-101419819D01*
X139438095Y-101419819D02*
X139533333Y-101372200D01*
X139533333Y-101372200D02*
X139580952Y-101324580D01*
X139580952Y-101324580D02*
X139628571Y-101229342D01*
X139628571Y-101229342D02*
X139628571Y-101134104D01*
X139628571Y-101134104D02*
X139580952Y-101038866D01*
X139580952Y-101038866D02*
X139533333Y-100991247D01*
X139533333Y-100991247D02*
X139438095Y-100943628D01*
X139438095Y-100943628D02*
X139247619Y-100896009D01*
X139247619Y-100896009D02*
X139152381Y-100848390D01*
X139152381Y-100848390D02*
X139104762Y-100800771D01*
X139104762Y-100800771D02*
X139057143Y-100705533D01*
X139057143Y-100705533D02*
X139057143Y-100610295D01*
X139057143Y-100610295D02*
X139104762Y-100515057D01*
X139104762Y-100515057D02*
X139152381Y-100467438D01*
X139152381Y-100467438D02*
X139247619Y-100419819D01*
X139247619Y-100419819D02*
X139485714Y-100419819D01*
X139485714Y-100419819D02*
X139628571Y-100467438D01*
X140057143Y-100896009D02*
X140390476Y-100896009D01*
X140533333Y-101419819D02*
X140057143Y-101419819D01*
X140057143Y-101419819D02*
X140057143Y-100419819D01*
X140057143Y-100419819D02*
X140533333Y-100419819D01*
X140819048Y-100419819D02*
X141390476Y-100419819D01*
X141104762Y-101419819D02*
X141104762Y-100419819D01*
X142247619Y-101419819D02*
X141676191Y-101419819D01*
X141961905Y-101419819D02*
X141961905Y-100419819D01*
X141961905Y-100419819D02*
X141866667Y-100562676D01*
X141866667Y-100562676D02*
X141771429Y-100657914D01*
X141771429Y-100657914D02*
X141676191Y-100705533D01*
X153704319Y-102505928D02*
X153704319Y-101934500D01*
X154704319Y-102220214D02*
X153704319Y-102220214D01*
X154180509Y-101601166D02*
X154180509Y-101267833D01*
X154704319Y-101124976D02*
X154704319Y-101601166D01*
X154704319Y-101601166D02*
X153704319Y-101601166D01*
X153704319Y-101601166D02*
X153704319Y-101124976D01*
X154656700Y-100744023D02*
X154704319Y-100601166D01*
X154704319Y-100601166D02*
X154704319Y-100363071D01*
X154704319Y-100363071D02*
X154656700Y-100267833D01*
X154656700Y-100267833D02*
X154609080Y-100220214D01*
X154609080Y-100220214D02*
X154513842Y-100172595D01*
X154513842Y-100172595D02*
X154418604Y-100172595D01*
X154418604Y-100172595D02*
X154323366Y-100220214D01*
X154323366Y-100220214D02*
X154275747Y-100267833D01*
X154275747Y-100267833D02*
X154228128Y-100363071D01*
X154228128Y-100363071D02*
X154180509Y-100553547D01*
X154180509Y-100553547D02*
X154132890Y-100648785D01*
X154132890Y-100648785D02*
X154085271Y-100696404D01*
X154085271Y-100696404D02*
X153990033Y-100744023D01*
X153990033Y-100744023D02*
X153894795Y-100744023D01*
X153894795Y-100744023D02*
X153799557Y-100696404D01*
X153799557Y-100696404D02*
X153751938Y-100648785D01*
X153751938Y-100648785D02*
X153704319Y-100553547D01*
X153704319Y-100553547D02*
X153704319Y-100315452D01*
X153704319Y-100315452D02*
X153751938Y-100172595D01*
X153704319Y-99886880D02*
X153704319Y-99315452D01*
X154704319Y-99601166D02*
X153704319Y-99601166D01*
X154704319Y-98458309D02*
X154704319Y-99029737D01*
X154704319Y-98744023D02*
X153704319Y-98744023D01*
X153704319Y-98744023D02*
X153847176Y-98839261D01*
X153847176Y-98839261D02*
X153942414Y-98934499D01*
X153942414Y-98934499D02*
X153990033Y-99029737D01*
D11*
X152869318Y-109210332D02*
X153776461Y-109210332D01*
X153776461Y-109210332D02*
X153957889Y-109270809D01*
X153957889Y-109270809D02*
X154078842Y-109391761D01*
X154078842Y-109391761D02*
X154139318Y-109573190D01*
X154139318Y-109573190D02*
X154139318Y-109694142D01*
X152990270Y-108666047D02*
X152929794Y-108605571D01*
X152929794Y-108605571D02*
X152869318Y-108484618D01*
X152869318Y-108484618D02*
X152869318Y-108182237D01*
X152869318Y-108182237D02*
X152929794Y-108061285D01*
X152929794Y-108061285D02*
X152990270Y-108000809D01*
X152990270Y-108000809D02*
X153111222Y-107940332D01*
X153111222Y-107940332D02*
X153232175Y-107940332D01*
X153232175Y-107940332D02*
X153413603Y-108000809D01*
X153413603Y-108000809D02*
X154139318Y-108726523D01*
X154139318Y-108726523D02*
X154139318Y-107940332D01*
D10*
X115728904Y-82306438D02*
X115633666Y-82258819D01*
X115633666Y-82258819D02*
X115490809Y-82258819D01*
X115490809Y-82258819D02*
X115347952Y-82306438D01*
X115347952Y-82306438D02*
X115252714Y-82401676D01*
X115252714Y-82401676D02*
X115205095Y-82496914D01*
X115205095Y-82496914D02*
X115157476Y-82687390D01*
X115157476Y-82687390D02*
X115157476Y-82830247D01*
X115157476Y-82830247D02*
X115205095Y-83020723D01*
X115205095Y-83020723D02*
X115252714Y-83115961D01*
X115252714Y-83115961D02*
X115347952Y-83211200D01*
X115347952Y-83211200D02*
X115490809Y-83258819D01*
X115490809Y-83258819D02*
X115586047Y-83258819D01*
X115586047Y-83258819D02*
X115728904Y-83211200D01*
X115728904Y-83211200D02*
X115776523Y-83163580D01*
X115776523Y-83163580D02*
X115776523Y-82830247D01*
X115776523Y-82830247D02*
X115586047Y-82830247D01*
X116205095Y-83258819D02*
X116205095Y-82258819D01*
X116205095Y-82258819D02*
X116776523Y-83258819D01*
X116776523Y-83258819D02*
X116776523Y-82258819D01*
X117252714Y-83258819D02*
X117252714Y-82258819D01*
X117252714Y-82258819D02*
X117490809Y-82258819D01*
X117490809Y-82258819D02*
X117633666Y-82306438D01*
X117633666Y-82306438D02*
X117728904Y-82401676D01*
X117728904Y-82401676D02*
X117776523Y-82496914D01*
X117776523Y-82496914D02*
X117824142Y-82687390D01*
X117824142Y-82687390D02*
X117824142Y-82830247D01*
X117824142Y-82830247D02*
X117776523Y-83020723D01*
X117776523Y-83020723D02*
X117728904Y-83115961D01*
X117728904Y-83115961D02*
X117633666Y-83211200D01*
X117633666Y-83211200D02*
X117490809Y-83258819D01*
X117490809Y-83258819D02*
X117252714Y-83258819D01*
X118157476Y-82258819D02*
X118776523Y-82258819D01*
X118776523Y-82258819D02*
X118443190Y-82639771D01*
X118443190Y-82639771D02*
X118586047Y-82639771D01*
X118586047Y-82639771D02*
X118681285Y-82687390D01*
X118681285Y-82687390D02*
X118728904Y-82735009D01*
X118728904Y-82735009D02*
X118776523Y-82830247D01*
X118776523Y-82830247D02*
X118776523Y-83068342D01*
X118776523Y-83068342D02*
X118728904Y-83163580D01*
X118728904Y-83163580D02*
X118681285Y-83211200D01*
X118681285Y-83211200D02*
X118586047Y-83258819D01*
X118586047Y-83258819D02*
X118300333Y-83258819D01*
X118300333Y-83258819D02*
X118205095Y-83211200D01*
X118205095Y-83211200D02*
X118157476Y-83163580D01*
X132627857Y-94307819D02*
X132627857Y-93307819D01*
X132627857Y-93307819D02*
X132865952Y-93307819D01*
X132865952Y-93307819D02*
X133008809Y-93355438D01*
X133008809Y-93355438D02*
X133104047Y-93450676D01*
X133104047Y-93450676D02*
X133151666Y-93545914D01*
X133151666Y-93545914D02*
X133199285Y-93736390D01*
X133199285Y-93736390D02*
X133199285Y-93879247D01*
X133199285Y-93879247D02*
X133151666Y-94069723D01*
X133151666Y-94069723D02*
X133104047Y-94164961D01*
X133104047Y-94164961D02*
X133008809Y-94260200D01*
X133008809Y-94260200D02*
X132865952Y-94307819D01*
X132865952Y-94307819D02*
X132627857Y-94307819D01*
X133627857Y-93926866D02*
X134389762Y-93926866D01*
X135389761Y-94307819D02*
X134818333Y-94307819D01*
X135104047Y-94307819D02*
X135104047Y-93307819D01*
X135104047Y-93307819D02*
X135008809Y-93450676D01*
X135008809Y-93450676D02*
X134913571Y-93545914D01*
X134913571Y-93545914D02*
X134818333Y-93593533D01*
X145375333Y-100337580D02*
X145327714Y-100385200D01*
X145327714Y-100385200D02*
X145184857Y-100432819D01*
X145184857Y-100432819D02*
X145089619Y-100432819D01*
X145089619Y-100432819D02*
X144946762Y-100385200D01*
X144946762Y-100385200D02*
X144851524Y-100289961D01*
X144851524Y-100289961D02*
X144803905Y-100194723D01*
X144803905Y-100194723D02*
X144756286Y-100004247D01*
X144756286Y-100004247D02*
X144756286Y-99861390D01*
X144756286Y-99861390D02*
X144803905Y-99670914D01*
X144803905Y-99670914D02*
X144851524Y-99575676D01*
X144851524Y-99575676D02*
X144946762Y-99480438D01*
X144946762Y-99480438D02*
X145089619Y-99432819D01*
X145089619Y-99432819D02*
X145184857Y-99432819D01*
X145184857Y-99432819D02*
X145327714Y-99480438D01*
X145327714Y-99480438D02*
X145375333Y-99528057D01*
X145756286Y-99528057D02*
X145803905Y-99480438D01*
X145803905Y-99480438D02*
X145899143Y-99432819D01*
X145899143Y-99432819D02*
X146137238Y-99432819D01*
X146137238Y-99432819D02*
X146232476Y-99480438D01*
X146232476Y-99480438D02*
X146280095Y-99528057D01*
X146280095Y-99528057D02*
X146327714Y-99623295D01*
X146327714Y-99623295D02*
X146327714Y-99718533D01*
X146327714Y-99718533D02*
X146280095Y-99861390D01*
X146280095Y-99861390D02*
X145708667Y-100432819D01*
X145708667Y-100432819D02*
X146327714Y-100432819D01*
X119872381Y-104467819D02*
X119872381Y-103467819D01*
X119872381Y-103467819D02*
X120205714Y-104182104D01*
X120205714Y-104182104D02*
X120539047Y-103467819D01*
X120539047Y-103467819D02*
X120539047Y-104467819D01*
X121205714Y-103467819D02*
X121396190Y-103467819D01*
X121396190Y-103467819D02*
X121491428Y-103515438D01*
X121491428Y-103515438D02*
X121586666Y-103610676D01*
X121586666Y-103610676D02*
X121634285Y-103801152D01*
X121634285Y-103801152D02*
X121634285Y-104134485D01*
X121634285Y-104134485D02*
X121586666Y-104324961D01*
X121586666Y-104324961D02*
X121491428Y-104420200D01*
X121491428Y-104420200D02*
X121396190Y-104467819D01*
X121396190Y-104467819D02*
X121205714Y-104467819D01*
X121205714Y-104467819D02*
X121110476Y-104420200D01*
X121110476Y-104420200D02*
X121015238Y-104324961D01*
X121015238Y-104324961D02*
X120967619Y-104134485D01*
X120967619Y-104134485D02*
X120967619Y-103801152D01*
X120967619Y-103801152D02*
X121015238Y-103610676D01*
X121015238Y-103610676D02*
X121110476Y-103515438D01*
X121110476Y-103515438D02*
X121205714Y-103467819D01*
X122015238Y-104420200D02*
X122158095Y-104467819D01*
X122158095Y-104467819D02*
X122396190Y-104467819D01*
X122396190Y-104467819D02*
X122491428Y-104420200D01*
X122491428Y-104420200D02*
X122539047Y-104372580D01*
X122539047Y-104372580D02*
X122586666Y-104277342D01*
X122586666Y-104277342D02*
X122586666Y-104182104D01*
X122586666Y-104182104D02*
X122539047Y-104086866D01*
X122539047Y-104086866D02*
X122491428Y-104039247D01*
X122491428Y-104039247D02*
X122396190Y-103991628D01*
X122396190Y-103991628D02*
X122205714Y-103944009D01*
X122205714Y-103944009D02*
X122110476Y-103896390D01*
X122110476Y-103896390D02*
X122062857Y-103848771D01*
X122062857Y-103848771D02*
X122015238Y-103753533D01*
X122015238Y-103753533D02*
X122015238Y-103658295D01*
X122015238Y-103658295D02*
X122062857Y-103563057D01*
X122062857Y-103563057D02*
X122110476Y-103515438D01*
X122110476Y-103515438D02*
X122205714Y-103467819D01*
X122205714Y-103467819D02*
X122443809Y-103467819D01*
X122443809Y-103467819D02*
X122586666Y-103515438D01*
X123015238Y-104467819D02*
X123015238Y-103467819D01*
X124015237Y-104467819D02*
X123443809Y-104467819D01*
X123729523Y-104467819D02*
X123729523Y-103467819D01*
X123729523Y-103467819D02*
X123634285Y-103610676D01*
X123634285Y-103610676D02*
X123539047Y-103705914D01*
X123539047Y-103705914D02*
X123443809Y-103753533D01*
X104987818Y-96438328D02*
X105702103Y-96438328D01*
X105702103Y-96438328D02*
X105844960Y-96485947D01*
X105844960Y-96485947D02*
X105940199Y-96581185D01*
X105940199Y-96581185D02*
X105987818Y-96724042D01*
X105987818Y-96724042D02*
X105987818Y-96819280D01*
X104987818Y-96057375D02*
X104987818Y-95438328D01*
X104987818Y-95438328D02*
X105368770Y-95771661D01*
X105368770Y-95771661D02*
X105368770Y-95628804D01*
X105368770Y-95628804D02*
X105416389Y-95533566D01*
X105416389Y-95533566D02*
X105464008Y-95485947D01*
X105464008Y-95485947D02*
X105559246Y-95438328D01*
X105559246Y-95438328D02*
X105797341Y-95438328D01*
X105797341Y-95438328D02*
X105892579Y-95485947D01*
X105892579Y-95485947D02*
X105940199Y-95533566D01*
X105940199Y-95533566D02*
X105987818Y-95628804D01*
X105987818Y-95628804D02*
X105987818Y-95914518D01*
X105987818Y-95914518D02*
X105940199Y-96009756D01*
X105940199Y-96009756D02*
X105892579Y-96057375D01*
X145375333Y-95449819D02*
X145042000Y-94973628D01*
X144803905Y-95449819D02*
X144803905Y-94449819D01*
X144803905Y-94449819D02*
X145184857Y-94449819D01*
X145184857Y-94449819D02*
X145280095Y-94497438D01*
X145280095Y-94497438D02*
X145327714Y-94545057D01*
X145327714Y-94545057D02*
X145375333Y-94640295D01*
X145375333Y-94640295D02*
X145375333Y-94783152D01*
X145375333Y-94783152D02*
X145327714Y-94878390D01*
X145327714Y-94878390D02*
X145280095Y-94926009D01*
X145280095Y-94926009D02*
X145184857Y-94973628D01*
X145184857Y-94973628D02*
X144803905Y-94973628D01*
X146327714Y-95449819D02*
X145756286Y-95449819D01*
X146042000Y-95449819D02*
X146042000Y-94449819D01*
X146042000Y-94449819D02*
X145946762Y-94592676D01*
X145946762Y-94592676D02*
X145851524Y-94687914D01*
X145851524Y-94687914D02*
X145756286Y-94735533D01*
X109728095Y-117040819D02*
X109728095Y-116040819D01*
X109728095Y-116517009D02*
X110299523Y-116517009D01*
X110299523Y-117040819D02*
X110299523Y-116040819D01*
X110680476Y-116040819D02*
X111299523Y-116040819D01*
X111299523Y-116040819D02*
X110966190Y-116421771D01*
X110966190Y-116421771D02*
X111109047Y-116421771D01*
X111109047Y-116421771D02*
X111204285Y-116469390D01*
X111204285Y-116469390D02*
X111251904Y-116517009D01*
X111251904Y-116517009D02*
X111299523Y-116612247D01*
X111299523Y-116612247D02*
X111299523Y-116850342D01*
X111299523Y-116850342D02*
X111251904Y-116945580D01*
X111251904Y-116945580D02*
X111204285Y-116993200D01*
X111204285Y-116993200D02*
X111109047Y-117040819D01*
X111109047Y-117040819D02*
X110823333Y-117040819D01*
X110823333Y-117040819D02*
X110728095Y-116993200D01*
X110728095Y-116993200D02*
X110680476Y-116945580D01*
X121618619Y-112357819D02*
X122237666Y-112357819D01*
X122237666Y-112357819D02*
X121904333Y-112738771D01*
X121904333Y-112738771D02*
X122047190Y-112738771D01*
X122047190Y-112738771D02*
X122142428Y-112786390D01*
X122142428Y-112786390D02*
X122190047Y-112834009D01*
X122190047Y-112834009D02*
X122237666Y-112929247D01*
X122237666Y-112929247D02*
X122237666Y-113167342D01*
X122237666Y-113167342D02*
X122190047Y-113262580D01*
X122190047Y-113262580D02*
X122142428Y-113310200D01*
X122142428Y-113310200D02*
X122047190Y-113357819D01*
X122047190Y-113357819D02*
X121761476Y-113357819D01*
X121761476Y-113357819D02*
X121666238Y-113310200D01*
X121666238Y-113310200D02*
X121618619Y-113262580D01*
X122666238Y-113262580D02*
X122713857Y-113310200D01*
X122713857Y-113310200D02*
X122666238Y-113357819D01*
X122666238Y-113357819D02*
X122618619Y-113310200D01*
X122618619Y-113310200D02*
X122666238Y-113262580D01*
X122666238Y-113262580D02*
X122666238Y-113357819D01*
X123047190Y-112357819D02*
X123666237Y-112357819D01*
X123666237Y-112357819D02*
X123332904Y-112738771D01*
X123332904Y-112738771D02*
X123475761Y-112738771D01*
X123475761Y-112738771D02*
X123570999Y-112786390D01*
X123570999Y-112786390D02*
X123618618Y-112834009D01*
X123618618Y-112834009D02*
X123666237Y-112929247D01*
X123666237Y-112929247D02*
X123666237Y-113167342D01*
X123666237Y-113167342D02*
X123618618Y-113262580D01*
X123618618Y-113262580D02*
X123570999Y-113310200D01*
X123570999Y-113310200D02*
X123475761Y-113357819D01*
X123475761Y-113357819D02*
X123190047Y-113357819D01*
X123190047Y-113357819D02*
X123094809Y-113310200D01*
X123094809Y-113310200D02*
X123047190Y-113262580D01*
X123951952Y-112357819D02*
X124285285Y-113357819D01*
X124285285Y-113357819D02*
X124618618Y-112357819D01*
X124904333Y-112453057D02*
X124951952Y-112405438D01*
X124951952Y-112405438D02*
X125047190Y-112357819D01*
X125047190Y-112357819D02*
X125285285Y-112357819D01*
X125285285Y-112357819D02*
X125380523Y-112405438D01*
X125380523Y-112405438D02*
X125428142Y-112453057D01*
X125428142Y-112453057D02*
X125475761Y-112548295D01*
X125475761Y-112548295D02*
X125475761Y-112643533D01*
X125475761Y-112643533D02*
X125428142Y-112786390D01*
X125428142Y-112786390D02*
X124856714Y-113357819D01*
X124856714Y-113357819D02*
X125475761Y-113357819D01*
X120372380Y-94847580D02*
X120324761Y-94895200D01*
X120324761Y-94895200D02*
X120181904Y-94942819D01*
X120181904Y-94942819D02*
X120086666Y-94942819D01*
X120086666Y-94942819D02*
X119943809Y-94895200D01*
X119943809Y-94895200D02*
X119848571Y-94799961D01*
X119848571Y-94799961D02*
X119800952Y-94704723D01*
X119800952Y-94704723D02*
X119753333Y-94514247D01*
X119753333Y-94514247D02*
X119753333Y-94371390D01*
X119753333Y-94371390D02*
X119800952Y-94180914D01*
X119800952Y-94180914D02*
X119848571Y-94085676D01*
X119848571Y-94085676D02*
X119943809Y-93990438D01*
X119943809Y-93990438D02*
X120086666Y-93942819D01*
X120086666Y-93942819D02*
X120181904Y-93942819D01*
X120181904Y-93942819D02*
X120324761Y-93990438D01*
X120324761Y-93990438D02*
X120372380Y-94038057D01*
X120753333Y-94895200D02*
X120896190Y-94942819D01*
X120896190Y-94942819D02*
X121134285Y-94942819D01*
X121134285Y-94942819D02*
X121229523Y-94895200D01*
X121229523Y-94895200D02*
X121277142Y-94847580D01*
X121277142Y-94847580D02*
X121324761Y-94752342D01*
X121324761Y-94752342D02*
X121324761Y-94657104D01*
X121324761Y-94657104D02*
X121277142Y-94561866D01*
X121277142Y-94561866D02*
X121229523Y-94514247D01*
X121229523Y-94514247D02*
X121134285Y-94466628D01*
X121134285Y-94466628D02*
X120943809Y-94419009D01*
X120943809Y-94419009D02*
X120848571Y-94371390D01*
X120848571Y-94371390D02*
X120800952Y-94323771D01*
X120800952Y-94323771D02*
X120753333Y-94228533D01*
X120753333Y-94228533D02*
X120753333Y-94133295D01*
X120753333Y-94133295D02*
X120800952Y-94038057D01*
X120800952Y-94038057D02*
X120848571Y-93990438D01*
X120848571Y-93990438D02*
X120943809Y-93942819D01*
X120943809Y-93942819D02*
X121181904Y-93942819D01*
X121181904Y-93942819D02*
X121324761Y-93990438D01*
X121515238Y-95038057D02*
X122277142Y-95038057D01*
X122515238Y-94942819D02*
X122515238Y-93942819D01*
X122515238Y-93942819D02*
X123086666Y-94942819D01*
X123086666Y-94942819D02*
X123086666Y-93942819D01*
X124086666Y-94942819D02*
X123515238Y-94942819D01*
X123800952Y-94942819D02*
X123800952Y-93942819D01*
X123800952Y-93942819D02*
X123705714Y-94085676D01*
X123705714Y-94085676D02*
X123610476Y-94180914D01*
X123610476Y-94180914D02*
X123515238Y-94228533D01*
X150860475Y-88211819D02*
X150384285Y-88211819D01*
X150384285Y-88211819D02*
X150384285Y-87211819D01*
X151193809Y-87688009D02*
X151527142Y-87688009D01*
X151669999Y-88211819D02*
X151193809Y-88211819D01*
X151193809Y-88211819D02*
X151193809Y-87211819D01*
X151193809Y-87211819D02*
X151669999Y-87211819D01*
X152098571Y-88211819D02*
X152098571Y-87211819D01*
X152098571Y-87211819D02*
X152336666Y-87211819D01*
X152336666Y-87211819D02*
X152479523Y-87259438D01*
X152479523Y-87259438D02*
X152574761Y-87354676D01*
X152574761Y-87354676D02*
X152622380Y-87449914D01*
X152622380Y-87449914D02*
X152669999Y-87640390D01*
X152669999Y-87640390D02*
X152669999Y-87783247D01*
X152669999Y-87783247D02*
X152622380Y-87973723D01*
X152622380Y-87973723D02*
X152574761Y-88068961D01*
X152574761Y-88068961D02*
X152479523Y-88164200D01*
X152479523Y-88164200D02*
X152336666Y-88211819D01*
X152336666Y-88211819D02*
X152098571Y-88211819D01*
X152955714Y-87211819D02*
X153527142Y-87211819D01*
X153241428Y-88211819D02*
X153241428Y-87211819D01*
X153860476Y-87688009D02*
X154193809Y-87688009D01*
X154336666Y-88211819D02*
X153860476Y-88211819D01*
X153860476Y-88211819D02*
X153860476Y-87211819D01*
X153860476Y-87211819D02*
X154336666Y-87211819D01*
X154717619Y-88164200D02*
X154860476Y-88211819D01*
X154860476Y-88211819D02*
X155098571Y-88211819D01*
X155098571Y-88211819D02*
X155193809Y-88164200D01*
X155193809Y-88164200D02*
X155241428Y-88116580D01*
X155241428Y-88116580D02*
X155289047Y-88021342D01*
X155289047Y-88021342D02*
X155289047Y-87926104D01*
X155289047Y-87926104D02*
X155241428Y-87830866D01*
X155241428Y-87830866D02*
X155193809Y-87783247D01*
X155193809Y-87783247D02*
X155098571Y-87735628D01*
X155098571Y-87735628D02*
X154908095Y-87688009D01*
X154908095Y-87688009D02*
X154812857Y-87640390D01*
X154812857Y-87640390D02*
X154765238Y-87592771D01*
X154765238Y-87592771D02*
X154717619Y-87497533D01*
X154717619Y-87497533D02*
X154717619Y-87402295D01*
X154717619Y-87402295D02*
X154765238Y-87307057D01*
X154765238Y-87307057D02*
X154812857Y-87259438D01*
X154812857Y-87259438D02*
X154908095Y-87211819D01*
X154908095Y-87211819D02*
X155146190Y-87211819D01*
X155146190Y-87211819D02*
X155289047Y-87259438D01*
X155574762Y-87211819D02*
X156146190Y-87211819D01*
X155860476Y-88211819D02*
X155860476Y-87211819D01*
X157003333Y-88211819D02*
X156431905Y-88211819D01*
X156717619Y-88211819D02*
X156717619Y-87211819D01*
X156717619Y-87211819D02*
X156622381Y-87354676D01*
X156622381Y-87354676D02*
X156527143Y-87449914D01*
X156527143Y-87449914D02*
X156431905Y-87497533D01*
X150823819Y-95289666D02*
X150347628Y-95622999D01*
X150823819Y-95861094D02*
X149823819Y-95861094D01*
X149823819Y-95861094D02*
X149823819Y-95480142D01*
X149823819Y-95480142D02*
X149871438Y-95384904D01*
X149871438Y-95384904D02*
X149919057Y-95337285D01*
X149919057Y-95337285D02*
X150014295Y-95289666D01*
X150014295Y-95289666D02*
X150157152Y-95289666D01*
X150157152Y-95289666D02*
X150252390Y-95337285D01*
X150252390Y-95337285D02*
X150300009Y-95384904D01*
X150300009Y-95384904D02*
X150347628Y-95480142D01*
X150347628Y-95480142D02*
X150347628Y-95861094D01*
X149823819Y-94956332D02*
X149823819Y-94337285D01*
X149823819Y-94337285D02*
X150204771Y-94670618D01*
X150204771Y-94670618D02*
X150204771Y-94527761D01*
X150204771Y-94527761D02*
X150252390Y-94432523D01*
X150252390Y-94432523D02*
X150300009Y-94384904D01*
X150300009Y-94384904D02*
X150395247Y-94337285D01*
X150395247Y-94337285D02*
X150633342Y-94337285D01*
X150633342Y-94337285D02*
X150728580Y-94384904D01*
X150728580Y-94384904D02*
X150776200Y-94432523D01*
X150776200Y-94432523D02*
X150823819Y-94527761D01*
X150823819Y-94527761D02*
X150823819Y-94813475D01*
X150823819Y-94813475D02*
X150776200Y-94908713D01*
X150776200Y-94908713D02*
X150728580Y-94956332D01*
X119753333Y-98070200D02*
X119896190Y-98117819D01*
X119896190Y-98117819D02*
X120134285Y-98117819D01*
X120134285Y-98117819D02*
X120229523Y-98070200D01*
X120229523Y-98070200D02*
X120277142Y-98022580D01*
X120277142Y-98022580D02*
X120324761Y-97927342D01*
X120324761Y-97927342D02*
X120324761Y-97832104D01*
X120324761Y-97832104D02*
X120277142Y-97736866D01*
X120277142Y-97736866D02*
X120229523Y-97689247D01*
X120229523Y-97689247D02*
X120134285Y-97641628D01*
X120134285Y-97641628D02*
X119943809Y-97594009D01*
X119943809Y-97594009D02*
X119848571Y-97546390D01*
X119848571Y-97546390D02*
X119800952Y-97498771D01*
X119800952Y-97498771D02*
X119753333Y-97403533D01*
X119753333Y-97403533D02*
X119753333Y-97308295D01*
X119753333Y-97308295D02*
X119800952Y-97213057D01*
X119800952Y-97213057D02*
X119848571Y-97165438D01*
X119848571Y-97165438D02*
X119943809Y-97117819D01*
X119943809Y-97117819D02*
X120181904Y-97117819D01*
X120181904Y-97117819D02*
X120324761Y-97165438D01*
X121324761Y-98022580D02*
X121277142Y-98070200D01*
X121277142Y-98070200D02*
X121134285Y-98117819D01*
X121134285Y-98117819D02*
X121039047Y-98117819D01*
X121039047Y-98117819D02*
X120896190Y-98070200D01*
X120896190Y-98070200D02*
X120800952Y-97974961D01*
X120800952Y-97974961D02*
X120753333Y-97879723D01*
X120753333Y-97879723D02*
X120705714Y-97689247D01*
X120705714Y-97689247D02*
X120705714Y-97546390D01*
X120705714Y-97546390D02*
X120753333Y-97355914D01*
X120753333Y-97355914D02*
X120800952Y-97260676D01*
X120800952Y-97260676D02*
X120896190Y-97165438D01*
X120896190Y-97165438D02*
X121039047Y-97117819D01*
X121039047Y-97117819D02*
X121134285Y-97117819D01*
X121134285Y-97117819D02*
X121277142Y-97165438D01*
X121277142Y-97165438D02*
X121324761Y-97213057D01*
X122229523Y-98117819D02*
X121753333Y-98117819D01*
X121753333Y-98117819D02*
X121753333Y-97117819D01*
X122562857Y-98117819D02*
X122562857Y-97117819D01*
X123134285Y-98117819D02*
X122705714Y-97546390D01*
X123134285Y-97117819D02*
X122562857Y-97689247D01*
X124086666Y-98117819D02*
X123515238Y-98117819D01*
X123800952Y-98117819D02*
X123800952Y-97117819D01*
X123800952Y-97117819D02*
X123705714Y-97260676D01*
X123705714Y-97260676D02*
X123610476Y-97355914D01*
X123610476Y-97355914D02*
X123515238Y-97403533D01*
X130117016Y-108992200D02*
X130259873Y-109039819D01*
X130259873Y-109039819D02*
X130497968Y-109039819D01*
X130497968Y-109039819D02*
X130593206Y-108992200D01*
X130593206Y-108992200D02*
X130640825Y-108944580D01*
X130640825Y-108944580D02*
X130688444Y-108849342D01*
X130688444Y-108849342D02*
X130688444Y-108754104D01*
X130688444Y-108754104D02*
X130640825Y-108658866D01*
X130640825Y-108658866D02*
X130593206Y-108611247D01*
X130593206Y-108611247D02*
X130497968Y-108563628D01*
X130497968Y-108563628D02*
X130307492Y-108516009D01*
X130307492Y-108516009D02*
X130212254Y-108468390D01*
X130212254Y-108468390D02*
X130164635Y-108420771D01*
X130164635Y-108420771D02*
X130117016Y-108325533D01*
X130117016Y-108325533D02*
X130117016Y-108230295D01*
X130117016Y-108230295D02*
X130164635Y-108135057D01*
X130164635Y-108135057D02*
X130212254Y-108087438D01*
X130212254Y-108087438D02*
X130307492Y-108039819D01*
X130307492Y-108039819D02*
X130545587Y-108039819D01*
X130545587Y-108039819D02*
X130688444Y-108087438D01*
X131021778Y-108039819D02*
X131259873Y-109039819D01*
X131259873Y-109039819D02*
X131450349Y-108325533D01*
X131450349Y-108325533D02*
X131640825Y-109039819D01*
X131640825Y-109039819D02*
X131878921Y-108039819D01*
X132212254Y-108135057D02*
X132259873Y-108087438D01*
X132259873Y-108087438D02*
X132355111Y-108039819D01*
X132355111Y-108039819D02*
X132593206Y-108039819D01*
X132593206Y-108039819D02*
X132688444Y-108087438D01*
X132688444Y-108087438D02*
X132736063Y-108135057D01*
X132736063Y-108135057D02*
X132783682Y-108230295D01*
X132783682Y-108230295D02*
X132783682Y-108325533D01*
X132783682Y-108325533D02*
X132736063Y-108468390D01*
X132736063Y-108468390D02*
X132164635Y-109039819D01*
X132164635Y-109039819D02*
X132783682Y-109039819D01*
X128016000Y-104488019D02*
X128016000Y-104726114D01*
X127777905Y-104630876D02*
X128016000Y-104726114D01*
X128016000Y-104726114D02*
X128254095Y-104630876D01*
X127873143Y-104916590D02*
X128016000Y-104726114D01*
X128016000Y-104726114D02*
X128158857Y-104916590D01*
X145375333Y-103577819D02*
X145042000Y-103101628D01*
X144803905Y-103577819D02*
X144803905Y-102577819D01*
X144803905Y-102577819D02*
X145184857Y-102577819D01*
X145184857Y-102577819D02*
X145280095Y-102625438D01*
X145280095Y-102625438D02*
X145327714Y-102673057D01*
X145327714Y-102673057D02*
X145375333Y-102768295D01*
X145375333Y-102768295D02*
X145375333Y-102911152D01*
X145375333Y-102911152D02*
X145327714Y-103006390D01*
X145327714Y-103006390D02*
X145280095Y-103054009D01*
X145280095Y-103054009D02*
X145184857Y-103101628D01*
X145184857Y-103101628D02*
X144803905Y-103101628D01*
X145756286Y-102673057D02*
X145803905Y-102625438D01*
X145803905Y-102625438D02*
X145899143Y-102577819D01*
X145899143Y-102577819D02*
X146137238Y-102577819D01*
X146137238Y-102577819D02*
X146232476Y-102625438D01*
X146232476Y-102625438D02*
X146280095Y-102673057D01*
X146280095Y-102673057D02*
X146327714Y-102768295D01*
X146327714Y-102768295D02*
X146327714Y-102863533D01*
X146327714Y-102863533D02*
X146280095Y-103006390D01*
X146280095Y-103006390D02*
X145708667Y-103577819D01*
X145708667Y-103577819D02*
X146327714Y-103577819D01*
D11*
X104654318Y-108102332D02*
X105561461Y-108102332D01*
X105561461Y-108102332D02*
X105742889Y-108162809D01*
X105742889Y-108162809D02*
X105863842Y-108283761D01*
X105863842Y-108283761D02*
X105924318Y-108465190D01*
X105924318Y-108465190D02*
X105924318Y-108586142D01*
X105924318Y-106832332D02*
X105924318Y-107558047D01*
X105924318Y-107195190D02*
X104654318Y-107195190D01*
X104654318Y-107195190D02*
X104835746Y-107316142D01*
X104835746Y-107316142D02*
X104956699Y-107437094D01*
X104956699Y-107437094D02*
X105017175Y-107558047D01*
D10*
X130381619Y-112357819D02*
X131000666Y-112357819D01*
X131000666Y-112357819D02*
X130667333Y-112738771D01*
X130667333Y-112738771D02*
X130810190Y-112738771D01*
X130810190Y-112738771D02*
X130905428Y-112786390D01*
X130905428Y-112786390D02*
X130953047Y-112834009D01*
X130953047Y-112834009D02*
X131000666Y-112929247D01*
X131000666Y-112929247D02*
X131000666Y-113167342D01*
X131000666Y-113167342D02*
X130953047Y-113262580D01*
X130953047Y-113262580D02*
X130905428Y-113310200D01*
X130905428Y-113310200D02*
X130810190Y-113357819D01*
X130810190Y-113357819D02*
X130524476Y-113357819D01*
X130524476Y-113357819D02*
X130429238Y-113310200D01*
X130429238Y-113310200D02*
X130381619Y-113262580D01*
X131429238Y-113262580D02*
X131476857Y-113310200D01*
X131476857Y-113310200D02*
X131429238Y-113357819D01*
X131429238Y-113357819D02*
X131381619Y-113310200D01*
X131381619Y-113310200D02*
X131429238Y-113262580D01*
X131429238Y-113262580D02*
X131429238Y-113357819D01*
X131810190Y-112357819D02*
X132429237Y-112357819D01*
X132429237Y-112357819D02*
X132095904Y-112738771D01*
X132095904Y-112738771D02*
X132238761Y-112738771D01*
X132238761Y-112738771D02*
X132333999Y-112786390D01*
X132333999Y-112786390D02*
X132381618Y-112834009D01*
X132381618Y-112834009D02*
X132429237Y-112929247D01*
X132429237Y-112929247D02*
X132429237Y-113167342D01*
X132429237Y-113167342D02*
X132381618Y-113262580D01*
X132381618Y-113262580D02*
X132333999Y-113310200D01*
X132333999Y-113310200D02*
X132238761Y-113357819D01*
X132238761Y-113357819D02*
X131953047Y-113357819D01*
X131953047Y-113357819D02*
X131857809Y-113310200D01*
X131857809Y-113310200D02*
X131810190Y-113262580D01*
X132714952Y-112357819D02*
X133048285Y-113357819D01*
X133048285Y-113357819D02*
X133381618Y-112357819D01*
X134143523Y-112691152D02*
X134143523Y-113357819D01*
X133905428Y-112310200D02*
X133667333Y-113024485D01*
X133667333Y-113024485D02*
X134286380Y-113024485D01*
X147828095Y-85036819D02*
X147828095Y-84036819D01*
X147828095Y-84513009D02*
X148399523Y-84513009D01*
X148399523Y-85036819D02*
X148399523Y-84036819D01*
X149399523Y-85036819D02*
X148828095Y-85036819D01*
X149113809Y-85036819D02*
X149113809Y-84036819D01*
X149113809Y-84036819D02*
X149018571Y-84179676D01*
X149018571Y-84179676D02*
X148923333Y-84274914D01*
X148923333Y-84274914D02*
X148828095Y-84322533D01*
X129452857Y-94307819D02*
X129452857Y-93307819D01*
X129452857Y-93307819D02*
X129690952Y-93307819D01*
X129690952Y-93307819D02*
X129833809Y-93355438D01*
X129833809Y-93355438D02*
X129929047Y-93450676D01*
X129929047Y-93450676D02*
X129976666Y-93545914D01*
X129976666Y-93545914D02*
X130024285Y-93736390D01*
X130024285Y-93736390D02*
X130024285Y-93879247D01*
X130024285Y-93879247D02*
X129976666Y-94069723D01*
X129976666Y-94069723D02*
X129929047Y-94164961D01*
X129929047Y-94164961D02*
X129833809Y-94260200D01*
X129833809Y-94260200D02*
X129690952Y-94307819D01*
X129690952Y-94307819D02*
X129452857Y-94307819D01*
X130452857Y-93926866D02*
X131214762Y-93926866D01*
X130833809Y-94307819D02*
X130833809Y-93545914D01*
X132214761Y-94307819D02*
X131643333Y-94307819D01*
X131929047Y-94307819D02*
X131929047Y-93307819D01*
X131929047Y-93307819D02*
X131833809Y-93450676D01*
X131833809Y-93450676D02*
X131738571Y-93545914D01*
X131738571Y-93545914D02*
X131643333Y-93593533D01*
X154506819Y-95289666D02*
X154030628Y-95622999D01*
X154506819Y-95861094D02*
X153506819Y-95861094D01*
X153506819Y-95861094D02*
X153506819Y-95480142D01*
X153506819Y-95480142D02*
X153554438Y-95384904D01*
X153554438Y-95384904D02*
X153602057Y-95337285D01*
X153602057Y-95337285D02*
X153697295Y-95289666D01*
X153697295Y-95289666D02*
X153840152Y-95289666D01*
X153840152Y-95289666D02*
X153935390Y-95337285D01*
X153935390Y-95337285D02*
X153983009Y-95384904D01*
X153983009Y-95384904D02*
X154030628Y-95480142D01*
X154030628Y-95480142D02*
X154030628Y-95861094D01*
X153840152Y-94432523D02*
X154506819Y-94432523D01*
X153459200Y-94670618D02*
X154173485Y-94908713D01*
X154173485Y-94908713D02*
X154173485Y-94289666D01*
X111156904Y-82306438D02*
X111061666Y-82258819D01*
X111061666Y-82258819D02*
X110918809Y-82258819D01*
X110918809Y-82258819D02*
X110775952Y-82306438D01*
X110775952Y-82306438D02*
X110680714Y-82401676D01*
X110680714Y-82401676D02*
X110633095Y-82496914D01*
X110633095Y-82496914D02*
X110585476Y-82687390D01*
X110585476Y-82687390D02*
X110585476Y-82830247D01*
X110585476Y-82830247D02*
X110633095Y-83020723D01*
X110633095Y-83020723D02*
X110680714Y-83115961D01*
X110680714Y-83115961D02*
X110775952Y-83211200D01*
X110775952Y-83211200D02*
X110918809Y-83258819D01*
X110918809Y-83258819D02*
X111014047Y-83258819D01*
X111014047Y-83258819D02*
X111156904Y-83211200D01*
X111156904Y-83211200D02*
X111204523Y-83163580D01*
X111204523Y-83163580D02*
X111204523Y-82830247D01*
X111204523Y-82830247D02*
X111014047Y-82830247D01*
X111633095Y-83258819D02*
X111633095Y-82258819D01*
X111633095Y-82258819D02*
X112204523Y-83258819D01*
X112204523Y-83258819D02*
X112204523Y-82258819D01*
X112680714Y-83258819D02*
X112680714Y-82258819D01*
X112680714Y-82258819D02*
X112918809Y-82258819D01*
X112918809Y-82258819D02*
X113061666Y-82306438D01*
X113061666Y-82306438D02*
X113156904Y-82401676D01*
X113156904Y-82401676D02*
X113204523Y-82496914D01*
X113204523Y-82496914D02*
X113252142Y-82687390D01*
X113252142Y-82687390D02*
X113252142Y-82830247D01*
X113252142Y-82830247D02*
X113204523Y-83020723D01*
X113204523Y-83020723D02*
X113156904Y-83115961D01*
X113156904Y-83115961D02*
X113061666Y-83211200D01*
X113061666Y-83211200D02*
X112918809Y-83258819D01*
X112918809Y-83258819D02*
X112680714Y-83258819D01*
X113633095Y-82354057D02*
X113680714Y-82306438D01*
X113680714Y-82306438D02*
X113775952Y-82258819D01*
X113775952Y-82258819D02*
X114014047Y-82258819D01*
X114014047Y-82258819D02*
X114109285Y-82306438D01*
X114109285Y-82306438D02*
X114156904Y-82354057D01*
X114156904Y-82354057D02*
X114204523Y-82449295D01*
X114204523Y-82449295D02*
X114204523Y-82544533D01*
X114204523Y-82544533D02*
X114156904Y-82687390D01*
X114156904Y-82687390D02*
X113585476Y-83258819D01*
X113585476Y-83258819D02*
X114204523Y-83258819D01*
X119919904Y-82306438D02*
X119824666Y-82258819D01*
X119824666Y-82258819D02*
X119681809Y-82258819D01*
X119681809Y-82258819D02*
X119538952Y-82306438D01*
X119538952Y-82306438D02*
X119443714Y-82401676D01*
X119443714Y-82401676D02*
X119396095Y-82496914D01*
X119396095Y-82496914D02*
X119348476Y-82687390D01*
X119348476Y-82687390D02*
X119348476Y-82830247D01*
X119348476Y-82830247D02*
X119396095Y-83020723D01*
X119396095Y-83020723D02*
X119443714Y-83115961D01*
X119443714Y-83115961D02*
X119538952Y-83211200D01*
X119538952Y-83211200D02*
X119681809Y-83258819D01*
X119681809Y-83258819D02*
X119777047Y-83258819D01*
X119777047Y-83258819D02*
X119919904Y-83211200D01*
X119919904Y-83211200D02*
X119967523Y-83163580D01*
X119967523Y-83163580D02*
X119967523Y-82830247D01*
X119967523Y-82830247D02*
X119777047Y-82830247D01*
X120396095Y-83258819D02*
X120396095Y-82258819D01*
X120396095Y-82258819D02*
X120967523Y-83258819D01*
X120967523Y-83258819D02*
X120967523Y-82258819D01*
X121443714Y-83258819D02*
X121443714Y-82258819D01*
X121443714Y-82258819D02*
X121681809Y-82258819D01*
X121681809Y-82258819D02*
X121824666Y-82306438D01*
X121824666Y-82306438D02*
X121919904Y-82401676D01*
X121919904Y-82401676D02*
X121967523Y-82496914D01*
X121967523Y-82496914D02*
X122015142Y-82687390D01*
X122015142Y-82687390D02*
X122015142Y-82830247D01*
X122015142Y-82830247D02*
X121967523Y-83020723D01*
X121967523Y-83020723D02*
X121919904Y-83115961D01*
X121919904Y-83115961D02*
X121824666Y-83211200D01*
X121824666Y-83211200D02*
X121681809Y-83258819D01*
X121681809Y-83258819D02*
X121443714Y-83258819D01*
X122872285Y-82592152D02*
X122872285Y-83258819D01*
X122634190Y-82211200D02*
X122396095Y-82925485D01*
X122396095Y-82925485D02*
X123015142Y-82925485D01*
X148209095Y-114500819D02*
X148209095Y-113500819D01*
X148209095Y-113977009D02*
X148780523Y-113977009D01*
X148780523Y-114500819D02*
X148780523Y-113500819D01*
X149209095Y-113596057D02*
X149256714Y-113548438D01*
X149256714Y-113548438D02*
X149351952Y-113500819D01*
X149351952Y-113500819D02*
X149590047Y-113500819D01*
X149590047Y-113500819D02*
X149685285Y-113548438D01*
X149685285Y-113548438D02*
X149732904Y-113596057D01*
X149732904Y-113596057D02*
X149780523Y-113691295D01*
X149780523Y-113691295D02*
X149780523Y-113786533D01*
X149780523Y-113786533D02*
X149732904Y-113929390D01*
X149732904Y-113929390D02*
X149161476Y-114500819D01*
X149161476Y-114500819D02*
X149780523Y-114500819D01*
X134467587Y-88970282D02*
X134467587Y-89541794D01*
X134467587Y-89541794D02*
X134430091Y-89656097D01*
X134430091Y-89656097D02*
X134355099Y-89732299D01*
X134355099Y-89732299D02*
X134242611Y-89770399D01*
X134242611Y-89770399D02*
X134167619Y-89770399D01*
X135180012Y-89236988D02*
X135180012Y-89770399D01*
X134992532Y-88932182D02*
X134805052Y-89503694D01*
X134805052Y-89503694D02*
X135292500Y-89503694D01*
X137993666Y-91117009D02*
X138136523Y-91164628D01*
X138136523Y-91164628D02*
X138184142Y-91212247D01*
X138184142Y-91212247D02*
X138231761Y-91307485D01*
X138231761Y-91307485D02*
X138231761Y-91450342D01*
X138231761Y-91450342D02*
X138184142Y-91545580D01*
X138184142Y-91545580D02*
X138136523Y-91593200D01*
X138136523Y-91593200D02*
X138041285Y-91640819D01*
X138041285Y-91640819D02*
X137660333Y-91640819D01*
X137660333Y-91640819D02*
X137660333Y-90640819D01*
X137660333Y-90640819D02*
X137993666Y-90640819D01*
X137993666Y-90640819D02*
X138088904Y-90688438D01*
X138088904Y-90688438D02*
X138136523Y-90736057D01*
X138136523Y-90736057D02*
X138184142Y-90831295D01*
X138184142Y-90831295D02*
X138184142Y-90926533D01*
X138184142Y-90926533D02*
X138136523Y-91021771D01*
X138136523Y-91021771D02*
X138088904Y-91069390D01*
X138088904Y-91069390D02*
X137993666Y-91117009D01*
X137993666Y-91117009D02*
X137660333Y-91117009D01*
X138850809Y-90640819D02*
X139041285Y-90640819D01*
X139041285Y-90640819D02*
X139136523Y-90688438D01*
X139136523Y-90688438D02*
X139231761Y-90783676D01*
X139231761Y-90783676D02*
X139279380Y-90974152D01*
X139279380Y-90974152D02*
X139279380Y-91307485D01*
X139279380Y-91307485D02*
X139231761Y-91497961D01*
X139231761Y-91497961D02*
X139136523Y-91593200D01*
X139136523Y-91593200D02*
X139041285Y-91640819D01*
X139041285Y-91640819D02*
X138850809Y-91640819D01*
X138850809Y-91640819D02*
X138755571Y-91593200D01*
X138755571Y-91593200D02*
X138660333Y-91497961D01*
X138660333Y-91497961D02*
X138612714Y-91307485D01*
X138612714Y-91307485D02*
X138612714Y-90974152D01*
X138612714Y-90974152D02*
X138660333Y-90783676D01*
X138660333Y-90783676D02*
X138755571Y-90688438D01*
X138755571Y-90688438D02*
X138850809Y-90640819D01*
X139898428Y-90640819D02*
X140088904Y-90640819D01*
X140088904Y-90640819D02*
X140184142Y-90688438D01*
X140184142Y-90688438D02*
X140279380Y-90783676D01*
X140279380Y-90783676D02*
X140326999Y-90974152D01*
X140326999Y-90974152D02*
X140326999Y-91307485D01*
X140326999Y-91307485D02*
X140279380Y-91497961D01*
X140279380Y-91497961D02*
X140184142Y-91593200D01*
X140184142Y-91593200D02*
X140088904Y-91640819D01*
X140088904Y-91640819D02*
X139898428Y-91640819D01*
X139898428Y-91640819D02*
X139803190Y-91593200D01*
X139803190Y-91593200D02*
X139707952Y-91497961D01*
X139707952Y-91497961D02*
X139660333Y-91307485D01*
X139660333Y-91307485D02*
X139660333Y-90974152D01*
X139660333Y-90974152D02*
X139707952Y-90783676D01*
X139707952Y-90783676D02*
X139803190Y-90688438D01*
X139803190Y-90688438D02*
X139898428Y-90640819D01*
X140612714Y-90640819D02*
X141184142Y-90640819D01*
X140898428Y-91640819D02*
X140898428Y-90640819D01*
X142041285Y-91640819D02*
X141469857Y-91640819D01*
X141755571Y-91640819D02*
X141755571Y-90640819D01*
X141755571Y-90640819D02*
X141660333Y-90783676D01*
X141660333Y-90783676D02*
X141565095Y-90878914D01*
X141565095Y-90878914D02*
X141469857Y-90926533D01*
X145375333Y-92209580D02*
X145327714Y-92257200D01*
X145327714Y-92257200D02*
X145184857Y-92304819D01*
X145184857Y-92304819D02*
X145089619Y-92304819D01*
X145089619Y-92304819D02*
X144946762Y-92257200D01*
X144946762Y-92257200D02*
X144851524Y-92161961D01*
X144851524Y-92161961D02*
X144803905Y-92066723D01*
X144803905Y-92066723D02*
X144756286Y-91876247D01*
X144756286Y-91876247D02*
X144756286Y-91733390D01*
X144756286Y-91733390D02*
X144803905Y-91542914D01*
X144803905Y-91542914D02*
X144851524Y-91447676D01*
X144851524Y-91447676D02*
X144946762Y-91352438D01*
X144946762Y-91352438D02*
X145089619Y-91304819D01*
X145089619Y-91304819D02*
X145184857Y-91304819D01*
X145184857Y-91304819D02*
X145327714Y-91352438D01*
X145327714Y-91352438D02*
X145375333Y-91400057D01*
X146327714Y-92304819D02*
X145756286Y-92304819D01*
X146042000Y-92304819D02*
X146042000Y-91304819D01*
X146042000Y-91304819D02*
X145946762Y-91447676D01*
X145946762Y-91447676D02*
X145851524Y-91542914D01*
X145851524Y-91542914D02*
X145756286Y-91590533D01*
X119872381Y-101292819D02*
X119872381Y-100292819D01*
X119872381Y-100292819D02*
X120205714Y-101007104D01*
X120205714Y-101007104D02*
X120539047Y-100292819D01*
X120539047Y-100292819D02*
X120539047Y-101292819D01*
X121015238Y-101292819D02*
X121015238Y-100292819D01*
X121443809Y-101245200D02*
X121586666Y-101292819D01*
X121586666Y-101292819D02*
X121824761Y-101292819D01*
X121824761Y-101292819D02*
X121919999Y-101245200D01*
X121919999Y-101245200D02*
X121967618Y-101197580D01*
X121967618Y-101197580D02*
X122015237Y-101102342D01*
X122015237Y-101102342D02*
X122015237Y-101007104D01*
X122015237Y-101007104D02*
X121967618Y-100911866D01*
X121967618Y-100911866D02*
X121919999Y-100864247D01*
X121919999Y-100864247D02*
X121824761Y-100816628D01*
X121824761Y-100816628D02*
X121634285Y-100769009D01*
X121634285Y-100769009D02*
X121539047Y-100721390D01*
X121539047Y-100721390D02*
X121491428Y-100673771D01*
X121491428Y-100673771D02*
X121443809Y-100578533D01*
X121443809Y-100578533D02*
X121443809Y-100483295D01*
X121443809Y-100483295D02*
X121491428Y-100388057D01*
X121491428Y-100388057D02*
X121539047Y-100340438D01*
X121539047Y-100340438D02*
X121634285Y-100292819D01*
X121634285Y-100292819D02*
X121872380Y-100292819D01*
X121872380Y-100292819D02*
X122015237Y-100340438D01*
X122634285Y-100292819D02*
X122824761Y-100292819D01*
X122824761Y-100292819D02*
X122919999Y-100340438D01*
X122919999Y-100340438D02*
X123015237Y-100435676D01*
X123015237Y-100435676D02*
X123062856Y-100626152D01*
X123062856Y-100626152D02*
X123062856Y-100959485D01*
X123062856Y-100959485D02*
X123015237Y-101149961D01*
X123015237Y-101149961D02*
X122919999Y-101245200D01*
X122919999Y-101245200D02*
X122824761Y-101292819D01*
X122824761Y-101292819D02*
X122634285Y-101292819D01*
X122634285Y-101292819D02*
X122539047Y-101245200D01*
X122539047Y-101245200D02*
X122443809Y-101149961D01*
X122443809Y-101149961D02*
X122396190Y-100959485D01*
X122396190Y-100959485D02*
X122396190Y-100626152D01*
X122396190Y-100626152D02*
X122443809Y-100435676D01*
X122443809Y-100435676D02*
X122539047Y-100340438D01*
X122539047Y-100340438D02*
X122634285Y-100292819D01*
X124015237Y-101292819D02*
X123443809Y-101292819D01*
X123729523Y-101292819D02*
X123729523Y-100292819D01*
X123729523Y-100292819D02*
X123634285Y-100435676D01*
X123634285Y-100435676D02*
X123539047Y-100530914D01*
X123539047Y-100530914D02*
X123443809Y-100578533D01*
X130117016Y-99014201D02*
X130259873Y-99061820D01*
X130259873Y-99061820D02*
X130497968Y-99061820D01*
X130497968Y-99061820D02*
X130593206Y-99014201D01*
X130593206Y-99014201D02*
X130640825Y-98966581D01*
X130640825Y-98966581D02*
X130688444Y-98871343D01*
X130688444Y-98871343D02*
X130688444Y-98776105D01*
X130688444Y-98776105D02*
X130640825Y-98680867D01*
X130640825Y-98680867D02*
X130593206Y-98633248D01*
X130593206Y-98633248D02*
X130497968Y-98585629D01*
X130497968Y-98585629D02*
X130307492Y-98538010D01*
X130307492Y-98538010D02*
X130212254Y-98490391D01*
X130212254Y-98490391D02*
X130164635Y-98442772D01*
X130164635Y-98442772D02*
X130117016Y-98347534D01*
X130117016Y-98347534D02*
X130117016Y-98252296D01*
X130117016Y-98252296D02*
X130164635Y-98157058D01*
X130164635Y-98157058D02*
X130212254Y-98109439D01*
X130212254Y-98109439D02*
X130307492Y-98061820D01*
X130307492Y-98061820D02*
X130545587Y-98061820D01*
X130545587Y-98061820D02*
X130688444Y-98109439D01*
X131021778Y-98061820D02*
X131259873Y-99061820D01*
X131259873Y-99061820D02*
X131450349Y-98347534D01*
X131450349Y-98347534D02*
X131640825Y-99061820D01*
X131640825Y-99061820D02*
X131878921Y-98061820D01*
X132783682Y-99061820D02*
X132212254Y-99061820D01*
X132497968Y-99061820D02*
X132497968Y-98061820D01*
X132497968Y-98061820D02*
X132402730Y-98204677D01*
X132402730Y-98204677D02*
X132307492Y-98299915D01*
X132307492Y-98299915D02*
X132212254Y-98347534D01*
X128016000Y-94510020D02*
X128016000Y-94748115D01*
X127777905Y-94652877D02*
X128016000Y-94748115D01*
X128016000Y-94748115D02*
X128254095Y-94652877D01*
X127873143Y-94938591D02*
X128016000Y-94748115D01*
X128016000Y-94748115D02*
X128158857Y-94938591D01*
X126063619Y-112357819D02*
X126682666Y-112357819D01*
X126682666Y-112357819D02*
X126349333Y-112738771D01*
X126349333Y-112738771D02*
X126492190Y-112738771D01*
X126492190Y-112738771D02*
X126587428Y-112786390D01*
X126587428Y-112786390D02*
X126635047Y-112834009D01*
X126635047Y-112834009D02*
X126682666Y-112929247D01*
X126682666Y-112929247D02*
X126682666Y-113167342D01*
X126682666Y-113167342D02*
X126635047Y-113262580D01*
X126635047Y-113262580D02*
X126587428Y-113310200D01*
X126587428Y-113310200D02*
X126492190Y-113357819D01*
X126492190Y-113357819D02*
X126206476Y-113357819D01*
X126206476Y-113357819D02*
X126111238Y-113310200D01*
X126111238Y-113310200D02*
X126063619Y-113262580D01*
X127111238Y-113262580D02*
X127158857Y-113310200D01*
X127158857Y-113310200D02*
X127111238Y-113357819D01*
X127111238Y-113357819D02*
X127063619Y-113310200D01*
X127063619Y-113310200D02*
X127111238Y-113262580D01*
X127111238Y-113262580D02*
X127111238Y-113357819D01*
X127492190Y-112357819D02*
X128111237Y-112357819D01*
X128111237Y-112357819D02*
X127777904Y-112738771D01*
X127777904Y-112738771D02*
X127920761Y-112738771D01*
X127920761Y-112738771D02*
X128015999Y-112786390D01*
X128015999Y-112786390D02*
X128063618Y-112834009D01*
X128063618Y-112834009D02*
X128111237Y-112929247D01*
X128111237Y-112929247D02*
X128111237Y-113167342D01*
X128111237Y-113167342D02*
X128063618Y-113262580D01*
X128063618Y-113262580D02*
X128015999Y-113310200D01*
X128015999Y-113310200D02*
X127920761Y-113357819D01*
X127920761Y-113357819D02*
X127635047Y-113357819D01*
X127635047Y-113357819D02*
X127539809Y-113310200D01*
X127539809Y-113310200D02*
X127492190Y-113262580D01*
X128396952Y-112357819D02*
X128730285Y-113357819D01*
X128730285Y-113357819D02*
X129063618Y-112357819D01*
X129301714Y-112357819D02*
X129920761Y-112357819D01*
X129920761Y-112357819D02*
X129587428Y-112738771D01*
X129587428Y-112738771D02*
X129730285Y-112738771D01*
X129730285Y-112738771D02*
X129825523Y-112786390D01*
X129825523Y-112786390D02*
X129873142Y-112834009D01*
X129873142Y-112834009D02*
X129920761Y-112929247D01*
X129920761Y-112929247D02*
X129920761Y-113167342D01*
X129920761Y-113167342D02*
X129873142Y-113262580D01*
X129873142Y-113262580D02*
X129825523Y-113310200D01*
X129825523Y-113310200D02*
X129730285Y-113357819D01*
X129730285Y-113357819D02*
X129444571Y-113357819D01*
X129444571Y-113357819D02*
X129349333Y-113310200D01*
X129349333Y-113310200D02*
X129301714Y-113262580D01*
X151021319Y-103220213D02*
X150021319Y-103220213D01*
X150021319Y-103220213D02*
X150021319Y-102839261D01*
X150021319Y-102839261D02*
X150068938Y-102744023D01*
X150068938Y-102744023D02*
X150116557Y-102696404D01*
X150116557Y-102696404D02*
X150211795Y-102648785D01*
X150211795Y-102648785D02*
X150354652Y-102648785D01*
X150354652Y-102648785D02*
X150449890Y-102696404D01*
X150449890Y-102696404D02*
X150497509Y-102744023D01*
X150497509Y-102744023D02*
X150545128Y-102839261D01*
X150545128Y-102839261D02*
X150545128Y-103220213D01*
X150021319Y-102029737D02*
X150021319Y-101839261D01*
X150021319Y-101839261D02*
X150068938Y-101744023D01*
X150068938Y-101744023D02*
X150164176Y-101648785D01*
X150164176Y-101648785D02*
X150354652Y-101601166D01*
X150354652Y-101601166D02*
X150687985Y-101601166D01*
X150687985Y-101601166D02*
X150878461Y-101648785D01*
X150878461Y-101648785D02*
X150973700Y-101744023D01*
X150973700Y-101744023D02*
X151021319Y-101839261D01*
X151021319Y-101839261D02*
X151021319Y-102029737D01*
X151021319Y-102029737D02*
X150973700Y-102124975D01*
X150973700Y-102124975D02*
X150878461Y-102220213D01*
X150878461Y-102220213D02*
X150687985Y-102267832D01*
X150687985Y-102267832D02*
X150354652Y-102267832D01*
X150354652Y-102267832D02*
X150164176Y-102220213D01*
X150164176Y-102220213D02*
X150068938Y-102124975D01*
X150068938Y-102124975D02*
X150021319Y-102029737D01*
X150021319Y-101267832D02*
X151021319Y-101029737D01*
X151021319Y-101029737D02*
X150307033Y-100839261D01*
X150307033Y-100839261D02*
X151021319Y-100648785D01*
X151021319Y-100648785D02*
X150021319Y-100410690D01*
X150497509Y-100029737D02*
X150497509Y-99696404D01*
X151021319Y-99553547D02*
X151021319Y-100029737D01*
X151021319Y-100029737D02*
X150021319Y-100029737D01*
X150021319Y-100029737D02*
X150021319Y-99553547D01*
X151021319Y-98553547D02*
X150545128Y-98886880D01*
X151021319Y-99124975D02*
X150021319Y-99124975D01*
X150021319Y-99124975D02*
X150021319Y-98744023D01*
X150021319Y-98744023D02*
X150068938Y-98648785D01*
X150068938Y-98648785D02*
X150116557Y-98601166D01*
X150116557Y-98601166D02*
X150211795Y-98553547D01*
X150211795Y-98553547D02*
X150354652Y-98553547D01*
X150354652Y-98553547D02*
X150449890Y-98601166D01*
X150449890Y-98601166D02*
X150497509Y-98648785D01*
X150497509Y-98648785D02*
X150545128Y-98744023D01*
X150545128Y-98744023D02*
X150545128Y-99124975D01*
X151021319Y-97601166D02*
X151021319Y-98172594D01*
X151021319Y-97886880D02*
X150021319Y-97886880D01*
X150021319Y-97886880D02*
X150164176Y-97982118D01*
X150164176Y-97982118D02*
X150259414Y-98077356D01*
X150259414Y-98077356D02*
X150307033Y-98172594D01*
D12*
X125660000Y-84963000D02*
G75*
G02*
X123260000Y-84963000I-1200000J0D01*
G01*
X123260000Y-84963000D02*
G75*
G02*
X125660000Y-84963000I1200000J0D01*
G01*
X119056000Y-88265000D02*
G75*
G02*
X116656000Y-88265000I-1200000J0D01*
G01*
X116656000Y-88265000D02*
G75*
G02*
X119056000Y-88265000I1200000J0D01*
G01*
X119056000Y-91440000D02*
G75*
G02*
X116656000Y-91440000I-1200000J0D01*
G01*
X116656000Y-91440000D02*
G75*
G02*
X119056000Y-91440000I1200000J0D01*
G01*
X117151000Y-115062000D02*
G75*
G02*
X114751000Y-115062000I-1200000J0D01*
G01*
X114751000Y-115062000D02*
G75*
G02*
X117151000Y-115062000I1200000J0D01*
G01*
X121977000Y-115062000D02*
G75*
G02*
X119577000Y-115062000I-1200000J0D01*
G01*
X119577000Y-115062000D02*
G75*
G02*
X121977000Y-115062000I1200000J0D01*
G01*
X140900000Y-103124000D02*
G75*
G02*
X138500000Y-103124000I-1200000J0D01*
G01*
X138500000Y-103124000D02*
G75*
G02*
X140900000Y-103124000I1200000J0D01*
G01*
X154944500Y-99634500D02*
X154944500Y-102094500D01*
X154944500Y-102094500D02*
X156414500Y-102094500D01*
X156414500Y-102094500D02*
X156414500Y-99634500D01*
D13*
X149771000Y-104175000D02*
X149771000Y-106225000D01*
X149771000Y-104175000D02*
X153196000Y-104175000D01*
X149771000Y-112075000D02*
X149771000Y-110025000D01*
X149771000Y-112075000D02*
X153196000Y-112075000D01*
X156620000Y-110321000D02*
X156620000Y-105929000D01*
X147241000Y-109194000D02*
G75*
G02*
X147137000Y-109194000I-52000J0D01*
G01*
X147137000Y-109194000D02*
G75*
G02*
X147241000Y-109194000I52000J0D01*
G01*
D12*
X119056000Y-84991000D02*
G75*
G02*
X116656000Y-84991000I-1200000J0D01*
G01*
X116656000Y-84991000D02*
G75*
G02*
X119056000Y-84991000I1200000J0D01*
G01*
X135185000Y-91821000D02*
G75*
G02*
X132785000Y-91821000I-1200000J0D01*
G01*
X132785000Y-91821000D02*
G75*
G02*
X135185000Y-91821000I1200000J0D01*
G01*
X145803252Y-97563000D02*
X145280748Y-97563000D01*
X145803252Y-99033000D02*
X145280748Y-99033000D01*
X119056000Y-104013000D02*
G75*
G02*
X116656000Y-104013000I-1200000J0D01*
G01*
X116656000Y-104013000D02*
G75*
G02*
X119056000Y-104013000I1200000J0D01*
G01*
D14*
X102882999Y-90105007D02*
X102882999Y-102104983D01*
X102882999Y-102104983D02*
X104312960Y-102104983D01*
X104312960Y-90105007D02*
X102882999Y-90105007D01*
X106253039Y-102104983D02*
X108182999Y-102104983D01*
X108182999Y-90105007D02*
X106253039Y-90105007D01*
X108182999Y-93084955D02*
X108182999Y-90105007D01*
X108182999Y-102104983D02*
X108182999Y-99125035D01*
X110268999Y-92772007D02*
X109252999Y-93534007D01*
X110268999Y-92772007D02*
X110268999Y-94296007D01*
X110268999Y-94296007D02*
X109252999Y-93534007D01*
D12*
X145769064Y-92610000D02*
X145314936Y-92610000D01*
X145769064Y-94080000D02*
X145314936Y-94080000D01*
X125660000Y-115062000D02*
G75*
G02*
X123260000Y-115062000I-1200000J0D01*
G01*
X123260000Y-115062000D02*
G75*
G02*
X125660000Y-115062000I1200000J0D01*
G01*
X119056000Y-94488000D02*
G75*
G02*
X116656000Y-94488000I-1200000J0D01*
G01*
X116656000Y-94488000D02*
G75*
G02*
X119056000Y-94488000I1200000J0D01*
G01*
X156902000Y-89916000D02*
G75*
G02*
X154502000Y-89916000I-1200000J0D01*
G01*
X154502000Y-89916000D02*
G75*
G02*
X156902000Y-89916000I1200000J0D01*
G01*
X151284000Y-95350064D02*
X151284000Y-94895936D01*
X152754000Y-95350064D02*
X152754000Y-94895936D01*
X119056000Y-97663000D02*
G75*
G02*
X116656000Y-97663000I-1200000J0D01*
G01*
X116656000Y-97663000D02*
G75*
G02*
X119056000Y-97663000I1200000J0D01*
G01*
D14*
X128618249Y-105752900D02*
X128618249Y-106122861D01*
X128618249Y-107347141D02*
X128618249Y-109822859D01*
X128618249Y-111047139D02*
X128618249Y-111417100D01*
X128618249Y-111417100D02*
X134282449Y-111417100D01*
X134282449Y-105752900D02*
X128618249Y-105752900D01*
X134282449Y-106122861D02*
X134282449Y-105752900D01*
X134282449Y-109822859D02*
X134282449Y-107347141D01*
X134282449Y-111417100D02*
X134282449Y-111047139D01*
D12*
X145769064Y-100738000D02*
X145314936Y-100738000D01*
X145769064Y-102208000D02*
X145314936Y-102208000D01*
D13*
X102295000Y-106145000D02*
X102295000Y-110537000D01*
X109144000Y-104391000D02*
X105719000Y-104391000D01*
X109144000Y-104391000D02*
X109144000Y-106441000D01*
X109144000Y-112291000D02*
X105719000Y-112291000D01*
X109144000Y-112291000D02*
X109144000Y-110241000D01*
X111778000Y-107272000D02*
G75*
G02*
X111674000Y-107272000I-52000J0D01*
G01*
X111674000Y-107272000D02*
G75*
G02*
X111778000Y-107272000I52000J0D01*
G01*
D12*
X132518000Y-115062000D02*
G75*
G02*
X130118000Y-115062000I-1200000J0D01*
G01*
X130118000Y-115062000D02*
G75*
G02*
X132518000Y-115062000I1200000J0D01*
G01*
X132010000Y-91821000D02*
G75*
G02*
X129610000Y-91821000I-1200000J0D01*
G01*
X129610000Y-91821000D02*
G75*
G02*
X132010000Y-91821000I1200000J0D01*
G01*
X154967000Y-95350064D02*
X154967000Y-94895936D01*
X156437000Y-95350064D02*
X156437000Y-94895936D01*
X115754000Y-84963000D02*
G75*
G02*
X113354000Y-84963000I-1200000J0D01*
G01*
X113354000Y-84963000D02*
G75*
G02*
X115754000Y-84963000I1200000J0D01*
G01*
X122358000Y-84963000D02*
G75*
G02*
X119958000Y-84963000I-1200000J0D01*
G01*
X119958000Y-84963000D02*
G75*
G02*
X122358000Y-84963000I1200000J0D01*
G01*
D15*
X128527000Y-83005000D02*
X128527000Y-83280000D01*
X128527000Y-85980000D02*
X128527000Y-85630000D01*
X130557000Y-87355000D02*
X130447000Y-87355000D01*
X134107000Y-87355000D02*
X133997000Y-87355000D01*
X136027000Y-83005000D02*
X128527000Y-83005000D01*
X136027000Y-83280000D02*
X136027000Y-83005000D01*
X136027000Y-85980000D02*
X136027000Y-85630000D01*
D16*
X133777000Y-88430000D02*
G75*
G02*
X133577000Y-88430000I-100000J0D01*
G01*
X133577000Y-88430000D02*
G75*
G02*
X133777000Y-88430000I100000J0D01*
G01*
D12*
X140900000Y-93345000D02*
G75*
G02*
X138500000Y-93345000I-1200000J0D01*
G01*
X138500000Y-93345000D02*
G75*
G02*
X140900000Y-93345000I1200000J0D01*
G01*
X145803252Y-89435000D02*
X145280748Y-89435000D01*
X145803252Y-90905000D02*
X145280748Y-90905000D01*
X119056000Y-100838000D02*
G75*
G02*
X116656000Y-100838000I-1200000J0D01*
G01*
X116656000Y-100838000D02*
G75*
G02*
X119056000Y-100838000I1200000J0D01*
G01*
D14*
X128618249Y-95774901D02*
X128618249Y-96144862D01*
X128618249Y-97369142D02*
X128618249Y-99844860D01*
X128618249Y-101069140D02*
X128618249Y-101439101D01*
X128618249Y-101439101D02*
X134282449Y-101439101D01*
X134282449Y-95774901D02*
X128618249Y-95774901D01*
X134282449Y-96144862D02*
X134282449Y-95774901D01*
X134282449Y-99844860D02*
X134282449Y-97369142D01*
X134282449Y-101439101D02*
X134282449Y-101069140D01*
D12*
X129089000Y-115062000D02*
G75*
G02*
X126689000Y-115062000I-1200000J0D01*
G01*
X126689000Y-115062000D02*
G75*
G02*
X129089000Y-115062000I1200000J0D01*
G01*
X151261500Y-99634500D02*
X151261500Y-102094500D01*
X151261500Y-102094500D02*
X152731500Y-102094500D01*
X152731500Y-102094500D02*
X152731500Y-99634500D01*
M02*
