G04 #@! TF.GenerationSoftware,KiCad,Pcbnew,8.0.0*
G04 #@! TF.CreationDate,2024-03-04T18:14:40-06:00*
G04 #@! TF.ProjectId,MicrocontrollerUnitBoard,4d696372-6f63-46f6-9e74-726f6c6c6572,rev?*
G04 #@! TF.SameCoordinates,Original*
G04 #@! TF.FileFunction,Copper,L1,Top*
G04 #@! TF.FilePolarity,Positive*
%FSLAX46Y46*%
G04 Gerber Fmt 4.6, Leading zero omitted, Abs format (unit mm)*
G04 Created by KiCad (PCBNEW 8.0.0) date 2024-03-04 18:14:40*
%MOMM*%
%LPD*%
G01*
G04 APERTURE LIST*
G04 Aperture macros list*
%AMRoundRect*
0 Rectangle with rounded corners*
0 $1 Rounding radius*
0 $2 $3 $4 $5 $6 $7 $8 $9 X,Y pos of 4 corners*
0 Add a 4 corners polygon primitive as box body*
4,1,4,$2,$3,$4,$5,$6,$7,$8,$9,$2,$3,0*
0 Add four circle primitives for the rounded corners*
1,1,$1+$1,$2,$3*
1,1,$1+$1,$4,$5*
1,1,$1+$1,$6,$7*
1,1,$1+$1,$8,$9*
0 Add four rect primitives between the rounded corners*
20,1,$1+$1,$2,$3,$4,$5,0*
20,1,$1+$1,$4,$5,$6,$7,0*
20,1,$1+$1,$6,$7,$8,$9,0*
20,1,$1+$1,$8,$9,$2,$3,0*%
G04 Aperture macros list end*
G04 #@! TA.AperFunction,ComponentPad*
%ADD10C,2.000000*%
G04 #@! TD*
G04 #@! TA.AperFunction,SMDPad,CuDef*
%ADD11RoundRect,0.237500X0.237500X-0.287500X0.237500X0.287500X-0.237500X0.287500X-0.237500X-0.287500X0*%
G04 #@! TD*
G04 #@! TA.AperFunction,SMDPad,CuDef*
%ADD12R,3.500000X1.000000*%
G04 #@! TD*
G04 #@! TA.AperFunction,SMDPad,CuDef*
%ADD13R,3.400000X1.500000*%
G04 #@! TD*
G04 #@! TA.AperFunction,SMDPad,CuDef*
%ADD14RoundRect,0.250000X0.337500X0.475000X-0.337500X0.475000X-0.337500X-0.475000X0.337500X-0.475000X0*%
G04 #@! TD*
G04 #@! TA.AperFunction,SMDPad,CuDef*
%ADD15R,1.000000X0.400000*%
G04 #@! TD*
G04 #@! TA.AperFunction,SMDPad,CuDef*
%ADD16R,1.300000X2.000000*%
G04 #@! TD*
G04 #@! TA.AperFunction,SMDPad,CuDef*
%ADD17RoundRect,0.250000X0.350000X0.450000X-0.350000X0.450000X-0.350000X-0.450000X0.350000X-0.450000X0*%
G04 #@! TD*
G04 #@! TA.AperFunction,SMDPad,CuDef*
%ADD18RoundRect,0.250000X0.450000X-0.350000X0.450000X0.350000X-0.450000X0.350000X-0.450000X-0.350000X0*%
G04 #@! TD*
G04 #@! TA.AperFunction,SMDPad,CuDef*
%ADD19R,0.950500X0.558800*%
G04 #@! TD*
G04 #@! TA.AperFunction,SMDPad,CuDef*
%ADD20R,0.400000X1.350000*%
G04 #@! TD*
G04 #@! TA.AperFunction,SMDPad,CuDef*
%ADD21R,2.100000X1.600000*%
G04 #@! TD*
G04 #@! TA.AperFunction,SMDPad,CuDef*
%ADD22R,1.800000X1.900000*%
G04 #@! TD*
G04 #@! TA.AperFunction,SMDPad,CuDef*
%ADD23R,1.900000X1.900000*%
G04 #@! TD*
G04 #@! TA.AperFunction,ViaPad*
%ADD24C,0.610000*%
G04 #@! TD*
G04 #@! TA.AperFunction,Conductor*
%ADD25C,0.508000*%
G04 #@! TD*
G04 #@! TA.AperFunction,Conductor*
%ADD26C,0.254000*%
G04 #@! TD*
G04 APERTURE END LIST*
D10*
X124460000Y-84963000D03*
X117856000Y-88265000D03*
X117856000Y-91440000D03*
X115951000Y-115062000D03*
X120777000Y-115062000D03*
X139700000Y-103124000D03*
D11*
X155679500Y-101309500D03*
X155679500Y-99559500D03*
D12*
X149771000Y-109125000D03*
X149771000Y-107125000D03*
D13*
X155321000Y-111475000D03*
X155321000Y-104775000D03*
D10*
X117856000Y-84991000D03*
X133985000Y-91821000D03*
D14*
X146579500Y-98298000D03*
X144504500Y-98298000D03*
D10*
X117856000Y-104013000D03*
D15*
X107982999Y-93604995D03*
X107982999Y-94604995D03*
X107982999Y-95604996D03*
X107982999Y-96604994D03*
X107982999Y-97604995D03*
X107982999Y-98604995D03*
D16*
X105283000Y-90805000D03*
X105283000Y-101404990D03*
D17*
X146542000Y-93345000D03*
X144542000Y-93345000D03*
D10*
X124460000Y-115062000D03*
X117856000Y-94488000D03*
X155702000Y-89916000D03*
D18*
X152019000Y-96123000D03*
X152019000Y-94123000D03*
D10*
X117856000Y-97663000D03*
D19*
X128270000Y-106735001D03*
X128270000Y-110434999D03*
X134630698Y-110434999D03*
X134630698Y-106735001D03*
D17*
X146542000Y-101473000D03*
X144542000Y-101473000D03*
D12*
X109144000Y-107341000D03*
X109144000Y-109341000D03*
D13*
X103594000Y-104991000D03*
X103594000Y-111691000D03*
D10*
X131318000Y-115062000D03*
X130810000Y-91821000D03*
D18*
X155702000Y-96123000D03*
X155702000Y-94123000D03*
D10*
X114554000Y-84963000D03*
X121158000Y-84963000D03*
D20*
X133577000Y-87130000D03*
X132927000Y-87130000D03*
X132277000Y-87130000D03*
X131627000Y-87130000D03*
X130977000Y-87130000D03*
D21*
X135377000Y-87005000D03*
X129177000Y-87005000D03*
D22*
X136077000Y-84455000D03*
D23*
X133477000Y-84455000D03*
X131077000Y-84455000D03*
D22*
X128477000Y-84455000D03*
D10*
X139700000Y-93345000D03*
D14*
X146579500Y-90170000D03*
X144504500Y-90170000D03*
D10*
X117856000Y-100838000D03*
D19*
X128270000Y-96757002D03*
X128270000Y-100457000D03*
X134630698Y-100457000D03*
X134630698Y-96757002D03*
D10*
X127889000Y-115062000D03*
D11*
X151996500Y-101309500D03*
X151996500Y-99559500D03*
D24*
X142367000Y-110363000D03*
X110998000Y-89662000D03*
X127889000Y-90170000D03*
X146558000Y-86995000D03*
X140335000Y-98298000D03*
X121928592Y-107501549D03*
D25*
X123190000Y-111125000D02*
X124587000Y-112522000D01*
X128905000Y-114046000D02*
X127889000Y-115062000D01*
X128905000Y-112522000D02*
X132461000Y-112522000D01*
X132461000Y-113919000D02*
X131318000Y-115062000D01*
X125476000Y-112522000D02*
X125476000Y-114046000D01*
X149098000Y-94488000D02*
X147955000Y-93345000D01*
X150876000Y-94123000D02*
X152019000Y-94123000D01*
X132461000Y-112522000D02*
X132461000Y-113919000D01*
X116993000Y-107341000D02*
X120777000Y-111125000D01*
X120777000Y-111125000D02*
X123190000Y-111125000D01*
X132461000Y-112522000D02*
X138430000Y-112522000D01*
X149771000Y-109125000D02*
X141827000Y-109125000D01*
X141478000Y-109474000D02*
X141478000Y-106236296D01*
X145923000Y-103251000D02*
X146542000Y-102632000D01*
X149098000Y-98917000D02*
X149098000Y-95901000D01*
X147955000Y-93345000D02*
X146542000Y-93345000D01*
X141478000Y-106236296D02*
X144463296Y-103251000D01*
X125476000Y-112522000D02*
X128905000Y-112522000D01*
X141827000Y-109125000D02*
X141478000Y-109474000D01*
X146542000Y-101473000D02*
X149098000Y-98917000D01*
X138430000Y-112522000D02*
X141478000Y-109474000D01*
X128905000Y-112522000D02*
X128905000Y-114046000D01*
X124968000Y-112522000D02*
X125476000Y-112522000D01*
X144463296Y-103251000D02*
X145923000Y-103251000D01*
X120777000Y-111125000D02*
X120777000Y-114935000D01*
X141478000Y-109474000D02*
X141669000Y-109283000D01*
X146542000Y-102632000D02*
X146542000Y-101473000D01*
X149098000Y-95901000D02*
X150876000Y-94123000D01*
X109144000Y-107341000D02*
X116993000Y-107341000D01*
X124587000Y-112522000D02*
X124968000Y-112522000D01*
X125476000Y-114046000D02*
X124460000Y-115062000D01*
X149098000Y-95901000D02*
X149098000Y-94488000D01*
D26*
X134630698Y-96715602D02*
X135450602Y-96715602D01*
X136017000Y-97028000D02*
X139700000Y-93345000D01*
X142875000Y-90170000D02*
X144504500Y-90170000D01*
X135450602Y-96715602D02*
X136017000Y-97282000D01*
X139700000Y-93345000D02*
X144542000Y-93345000D01*
X135423400Y-100415600D02*
X134630698Y-100415600D01*
X136017000Y-99822000D02*
X135423400Y-100415600D01*
X136017000Y-97282000D02*
X136017000Y-97028000D01*
X139700000Y-93345000D02*
X142875000Y-90170000D01*
X136017000Y-97282000D02*
X136017000Y-99822000D01*
D25*
X115951000Y-112522000D02*
X115951000Y-115062000D01*
D26*
X129413000Y-90170000D02*
X130977000Y-88606000D01*
D25*
X109144000Y-109341000D02*
X112770000Y-109341000D01*
X112770000Y-109341000D02*
X115951000Y-112522000D01*
D26*
X130977000Y-88606000D02*
X130977000Y-87130000D01*
X127889000Y-90170000D02*
X129413000Y-90170000D01*
X141351000Y-101473000D02*
X141224000Y-101600000D01*
X136017000Y-106807000D02*
X139700000Y-103124000D01*
X136017000Y-107301399D02*
X136017000Y-107442000D01*
X136017000Y-107442000D02*
X136017000Y-106807000D01*
X141287500Y-101515000D02*
X144504500Y-98298000D01*
X144542000Y-101473000D02*
X141351000Y-101473000D01*
X136017000Y-107442000D02*
X136017000Y-109841399D01*
X136017000Y-109841399D02*
X135423400Y-110434999D01*
X141224000Y-101600000D02*
X141287500Y-101536500D01*
X134630698Y-106735001D02*
X135450602Y-106735001D01*
X135450602Y-106735001D02*
X136017000Y-107301399D01*
X135423400Y-110434999D02*
X134630698Y-110434999D01*
X141287500Y-101536500D02*
X141287500Y-101515000D01*
X141224000Y-101600000D02*
X139700000Y-103124000D01*
X111125000Y-94488000D02*
X110008004Y-95604996D01*
X117856000Y-94488000D02*
X111125000Y-94488000D01*
X110008004Y-95604996D02*
X107982999Y-95604996D01*
X132277000Y-90354000D02*
X132277000Y-87130000D01*
X130810000Y-91821000D02*
X132277000Y-90354000D01*
X133985000Y-91821000D02*
X133985000Y-91440000D01*
X132927000Y-90382000D02*
X132927000Y-87130000D01*
X133985000Y-91440000D02*
X132927000Y-90382000D01*
X108293004Y-94615000D02*
X110109000Y-94615000D01*
X107982999Y-94604995D02*
X108282999Y-94604995D01*
X113284000Y-91440000D02*
X117856000Y-91440000D01*
X108282999Y-94604995D02*
X108293004Y-94615000D01*
X110109000Y-94615000D02*
X113284000Y-91440000D01*
X110050995Y-97604995D02*
X107982999Y-97604995D01*
X113284000Y-100838000D02*
X110050995Y-97604995D01*
X117856000Y-100838000D02*
X113284000Y-100838000D01*
X115443000Y-104013000D02*
X110034995Y-98604995D01*
X117856000Y-104013000D02*
X115443000Y-104013000D01*
X110034995Y-98604995D02*
X107982999Y-98604995D01*
X115443000Y-88265000D02*
X117856000Y-88265000D01*
X107982999Y-93604995D02*
X110103005Y-93604995D01*
X110103005Y-93604995D02*
X115443000Y-88265000D01*
X107982999Y-96604994D02*
X110066994Y-96604994D01*
X111125000Y-97663000D02*
X117856000Y-97663000D01*
X110066994Y-96604994D02*
X111125000Y-97663000D01*
X155702000Y-94123000D02*
X155702000Y-89916000D01*
X152019000Y-99537000D02*
X151996500Y-99559500D01*
D25*
X152019000Y-96123000D02*
X152019000Y-99537000D01*
D26*
X155702000Y-99537000D02*
X155679500Y-99559500D01*
X155702000Y-96123000D02*
X155702000Y-99537000D01*
G04 #@! TA.AperFunction,Conductor*
G36*
X157296039Y-82129685D02*
G01*
X157341794Y-82182489D01*
X157353000Y-82234000D01*
X157353000Y-89353099D01*
X157333315Y-89420138D01*
X157280511Y-89465893D01*
X157211353Y-89475837D01*
X157147797Y-89446812D01*
X157115444Y-89402909D01*
X157026173Y-89199393D01*
X156890166Y-88991217D01*
X156868557Y-88967744D01*
X156721744Y-88808262D01*
X156525509Y-88655526D01*
X156525507Y-88655525D01*
X156525506Y-88655524D01*
X156306811Y-88537172D01*
X156306802Y-88537169D01*
X156071616Y-88456429D01*
X155826335Y-88415500D01*
X155577665Y-88415500D01*
X155332383Y-88456429D01*
X155097197Y-88537169D01*
X155097188Y-88537172D01*
X154878493Y-88655524D01*
X154682257Y-88808261D01*
X154513833Y-88991217D01*
X154377826Y-89199393D01*
X154277936Y-89427118D01*
X154216892Y-89668175D01*
X154216890Y-89668187D01*
X154196357Y-89915994D01*
X154196357Y-89916005D01*
X154216890Y-90163812D01*
X154216892Y-90163824D01*
X154277936Y-90404881D01*
X154377826Y-90632606D01*
X154513833Y-90840782D01*
X154513836Y-90840785D01*
X154682256Y-91023738D01*
X154878491Y-91176474D01*
X155097190Y-91294828D01*
X155199095Y-91329812D01*
X155332382Y-91375570D01*
X155332384Y-91375570D01*
X155332386Y-91375571D01*
X155343903Y-91377492D01*
X155406789Y-91407939D01*
X155443233Y-91467551D01*
X155447500Y-91499802D01*
X155447500Y-92898500D01*
X155427815Y-92965539D01*
X155375011Y-93011294D01*
X155323501Y-93022500D01*
X155201999Y-93022500D01*
X155201980Y-93022501D01*
X155099203Y-93033000D01*
X155099200Y-93033001D01*
X154932668Y-93088185D01*
X154932663Y-93088187D01*
X154783342Y-93180289D01*
X154659289Y-93304342D01*
X154567187Y-93453663D01*
X154567186Y-93453666D01*
X154512001Y-93620203D01*
X154512001Y-93620204D01*
X154512000Y-93620204D01*
X154501500Y-93722983D01*
X154501500Y-94523001D01*
X154501501Y-94523019D01*
X154512000Y-94625796D01*
X154512001Y-94625799D01*
X154567185Y-94792331D01*
X154567187Y-94792336D01*
X154582938Y-94817873D01*
X154630037Y-94894233D01*
X154659289Y-94941657D01*
X154752951Y-95035319D01*
X154786436Y-95096642D01*
X154781452Y-95166334D01*
X154752951Y-95210681D01*
X154659289Y-95304342D01*
X154567187Y-95453663D01*
X154567186Y-95453666D01*
X154512001Y-95620203D01*
X154512001Y-95620204D01*
X154512000Y-95620204D01*
X154501500Y-95722983D01*
X154501500Y-96523001D01*
X154501501Y-96523019D01*
X154512000Y-96625796D01*
X154512001Y-96625799D01*
X154549253Y-96738217D01*
X154567186Y-96792334D01*
X154659288Y-96941656D01*
X154783344Y-97065712D01*
X154932666Y-97157814D01*
X155099203Y-97212999D01*
X155201991Y-97223500D01*
X155323500Y-97223499D01*
X155390539Y-97243183D01*
X155436294Y-97295987D01*
X155447500Y-97347499D01*
X155447500Y-98416437D01*
X155427815Y-98483476D01*
X155375011Y-98529231D01*
X155336102Y-98539795D01*
X155291746Y-98544326D01*
X155127984Y-98598592D01*
X155127981Y-98598593D01*
X154981148Y-98689161D01*
X154859161Y-98811148D01*
X154768593Y-98957981D01*
X154768592Y-98957984D01*
X154714326Y-99121747D01*
X154714326Y-99121748D01*
X154714325Y-99121748D01*
X154704000Y-99222815D01*
X154704000Y-99896169D01*
X154704001Y-99896187D01*
X154714325Y-99997252D01*
X154738471Y-100070117D01*
X154758226Y-100129735D01*
X154768592Y-100161015D01*
X154768593Y-100161018D01*
X154796955Y-100207000D01*
X154853799Y-100299159D01*
X154859161Y-100307851D01*
X154898482Y-100347172D01*
X154931967Y-100408495D01*
X154926983Y-100478187D01*
X154898483Y-100522533D01*
X154859555Y-100561461D01*
X154859552Y-100561465D01*
X154769051Y-100708188D01*
X154769046Y-100708199D01*
X154714819Y-100871847D01*
X154704500Y-100972845D01*
X154704500Y-101059500D01*
X156654499Y-101059500D01*
X156654499Y-100972860D01*
X156654498Y-100972845D01*
X156644180Y-100871847D01*
X156589953Y-100708199D01*
X156589948Y-100708188D01*
X156499447Y-100561465D01*
X156499444Y-100561461D01*
X156460517Y-100522534D01*
X156427032Y-100461211D01*
X156432016Y-100391519D01*
X156460516Y-100347173D01*
X156499840Y-100307850D01*
X156590408Y-100161016D01*
X156644674Y-99997253D01*
X156655000Y-99896177D01*
X156654999Y-99222824D01*
X156654532Y-99218256D01*
X156644674Y-99121747D01*
X156625622Y-99064252D01*
X156590408Y-98957984D01*
X156499840Y-98811150D01*
X156377850Y-98689160D01*
X156231016Y-98598592D01*
X156067253Y-98544326D01*
X156067249Y-98544325D01*
X156060629Y-98542908D01*
X156060920Y-98541547D01*
X156003193Y-98517984D01*
X155963049Y-98460798D01*
X155956500Y-98421033D01*
X155956500Y-97347499D01*
X155976185Y-97280460D01*
X156028989Y-97234705D01*
X156080500Y-97223499D01*
X156202002Y-97223499D01*
X156202008Y-97223499D01*
X156304797Y-97212999D01*
X156471334Y-97157814D01*
X156620656Y-97065712D01*
X156744712Y-96941656D01*
X156836814Y-96792334D01*
X156891999Y-96625797D01*
X156902500Y-96523009D01*
X156902499Y-95722992D01*
X156891999Y-95620203D01*
X156836814Y-95453666D01*
X156744712Y-95304344D01*
X156651049Y-95210681D01*
X156617564Y-95149358D01*
X156622548Y-95079666D01*
X156651049Y-95035319D01*
X156675221Y-95011147D01*
X156744712Y-94941656D01*
X156836814Y-94792334D01*
X156891999Y-94625797D01*
X156902500Y-94523009D01*
X156902499Y-93722992D01*
X156899441Y-93693060D01*
X156891999Y-93620203D01*
X156891998Y-93620200D01*
X156882925Y-93592821D01*
X156836814Y-93453666D01*
X156744712Y-93304344D01*
X156620656Y-93180288D01*
X156471334Y-93088186D01*
X156304797Y-93033001D01*
X156304795Y-93033000D01*
X156202016Y-93022500D01*
X156202009Y-93022500D01*
X156080500Y-93022500D01*
X156013461Y-93002815D01*
X155967706Y-92950011D01*
X155956500Y-92898500D01*
X155956500Y-91499802D01*
X155976185Y-91432763D01*
X156028989Y-91387008D01*
X156060093Y-91377493D01*
X156071614Y-91375571D01*
X156306810Y-91294828D01*
X156525509Y-91176474D01*
X156721744Y-91023738D01*
X156890164Y-90840785D01*
X157026173Y-90632607D01*
X157115444Y-90429090D01*
X157160400Y-90375604D01*
X157227136Y-90354914D01*
X157294464Y-90373589D01*
X157341007Y-90425699D01*
X157353000Y-90478900D01*
X157353000Y-103436054D01*
X157333315Y-103503093D01*
X157280511Y-103548848D01*
X157211353Y-103558792D01*
X157185669Y-103552237D01*
X157128481Y-103530908D01*
X157128483Y-103530908D01*
X157068883Y-103524501D01*
X157068881Y-103524500D01*
X157068873Y-103524500D01*
X157068864Y-103524500D01*
X153573129Y-103524500D01*
X153573123Y-103524501D01*
X153513516Y-103530908D01*
X153378671Y-103581202D01*
X153378664Y-103581206D01*
X153263455Y-103667452D01*
X153263452Y-103667455D01*
X153177206Y-103782664D01*
X153177202Y-103782671D01*
X153126908Y-103917517D01*
X153120501Y-103977116D01*
X153120500Y-103977135D01*
X153120500Y-105572870D01*
X153120501Y-105572876D01*
X153126908Y-105632483D01*
X153177202Y-105767328D01*
X153177206Y-105767335D01*
X153263452Y-105882544D01*
X153263455Y-105882547D01*
X153378664Y-105968793D01*
X153378671Y-105968797D01*
X153513517Y-106019091D01*
X153513516Y-106019091D01*
X153520444Y-106019835D01*
X153573127Y-106025500D01*
X157068872Y-106025499D01*
X157128483Y-106019091D01*
X157146825Y-106012250D01*
X157185667Y-105997763D01*
X157255359Y-105992779D01*
X157316682Y-106026264D01*
X157350166Y-106087587D01*
X157353000Y-106113945D01*
X157353000Y-110136054D01*
X157333315Y-110203093D01*
X157280511Y-110248848D01*
X157211353Y-110258792D01*
X157185669Y-110252237D01*
X157128481Y-110230908D01*
X157128483Y-110230908D01*
X157068883Y-110224501D01*
X157068881Y-110224500D01*
X157068873Y-110224500D01*
X157068864Y-110224500D01*
X153573129Y-110224500D01*
X153573123Y-110224501D01*
X153513516Y-110230908D01*
X153378671Y-110281202D01*
X153378664Y-110281206D01*
X153263455Y-110367452D01*
X153263452Y-110367455D01*
X153177206Y-110482664D01*
X153177202Y-110482671D01*
X153126908Y-110617517D01*
X153120501Y-110677116D01*
X153120500Y-110677135D01*
X153120500Y-112272870D01*
X153120501Y-112272876D01*
X153126908Y-112332483D01*
X153177202Y-112467328D01*
X153177206Y-112467335D01*
X153263452Y-112582544D01*
X153263455Y-112582547D01*
X153378664Y-112668793D01*
X153378671Y-112668797D01*
X153513517Y-112719091D01*
X153513516Y-112719091D01*
X153520444Y-112719835D01*
X153573127Y-112725500D01*
X157068872Y-112725499D01*
X157128483Y-112719091D01*
X157185667Y-112697763D01*
X157255359Y-112692779D01*
X157316682Y-112726264D01*
X157350166Y-112787587D01*
X157353000Y-112813945D01*
X157353000Y-117097000D01*
X157333315Y-117164039D01*
X157280511Y-117209794D01*
X157229000Y-117221000D01*
X155017467Y-117221000D01*
X154950428Y-117201315D01*
X154904673Y-117148511D01*
X154894729Y-117079353D01*
X154897692Y-117064907D01*
X154931693Y-116938014D01*
X154962500Y-116704011D01*
X154962500Y-116467989D01*
X154931693Y-116233986D01*
X154870606Y-116006007D01*
X154780284Y-115787951D01*
X154780282Y-115787948D01*
X154780280Y-115787943D01*
X154738118Y-115714918D01*
X154662273Y-115583550D01*
X154518592Y-115396301D01*
X154518587Y-115396295D01*
X154351704Y-115229412D01*
X154351697Y-115229406D01*
X154164454Y-115085730D01*
X154164453Y-115085729D01*
X154164450Y-115085727D01*
X154082957Y-115038677D01*
X153960056Y-114967719D01*
X153960045Y-114967714D01*
X153741993Y-114877394D01*
X153514010Y-114816306D01*
X153280020Y-114785501D01*
X153280017Y-114785500D01*
X153280011Y-114785500D01*
X153043989Y-114785500D01*
X153043983Y-114785500D01*
X153043979Y-114785501D01*
X152809989Y-114816306D01*
X152582006Y-114877394D01*
X152363954Y-114967714D01*
X152363943Y-114967719D01*
X152159545Y-115085730D01*
X151972302Y-115229406D01*
X151972295Y-115229412D01*
X151805412Y-115396295D01*
X151805406Y-115396302D01*
X151661730Y-115583545D01*
X151543719Y-115787943D01*
X151543714Y-115787954D01*
X151453394Y-116006006D01*
X151392306Y-116233989D01*
X151361501Y-116467979D01*
X151361500Y-116467995D01*
X151361500Y-116704004D01*
X151361501Y-116704020D01*
X151392306Y-116938012D01*
X151426308Y-117064907D01*
X151424645Y-117134757D01*
X151385482Y-117192619D01*
X151321254Y-117220123D01*
X151306533Y-117221000D01*
X107646467Y-117221000D01*
X107579428Y-117201315D01*
X107533673Y-117148511D01*
X107523729Y-117079353D01*
X107526692Y-117064907D01*
X107560693Y-116938014D01*
X107591500Y-116704011D01*
X107591500Y-116467989D01*
X107560693Y-116233986D01*
X107499606Y-116006007D01*
X107409284Y-115787951D01*
X107409282Y-115787948D01*
X107409280Y-115787943D01*
X107367118Y-115714918D01*
X107291273Y-115583550D01*
X107147592Y-115396301D01*
X107147587Y-115396295D01*
X106980704Y-115229412D01*
X106980697Y-115229406D01*
X106793454Y-115085730D01*
X106793453Y-115085729D01*
X106793450Y-115085727D01*
X106752362Y-115062005D01*
X114445859Y-115062005D01*
X114466385Y-115309729D01*
X114466387Y-115309738D01*
X114527412Y-115550717D01*
X114627266Y-115778364D01*
X114727564Y-115931882D01*
X115468037Y-115191409D01*
X115485075Y-115254993D01*
X115550901Y-115369007D01*
X115643993Y-115462099D01*
X115758007Y-115527925D01*
X115821590Y-115544962D01*
X115080942Y-116285609D01*
X115127768Y-116322055D01*
X115127770Y-116322056D01*
X115346385Y-116440364D01*
X115346396Y-116440369D01*
X115581506Y-116521083D01*
X115826707Y-116562000D01*
X116075293Y-116562000D01*
X116320493Y-116521083D01*
X116555603Y-116440369D01*
X116555614Y-116440364D01*
X116774228Y-116322057D01*
X116774231Y-116322055D01*
X116821056Y-116285609D01*
X116080409Y-115544962D01*
X116143993Y-115527925D01*
X116258007Y-115462099D01*
X116351099Y-115369007D01*
X116416925Y-115254993D01*
X116433962Y-115191410D01*
X117174434Y-115931882D01*
X117274731Y-115778369D01*
X117374587Y-115550717D01*
X117435612Y-115309738D01*
X117435614Y-115309729D01*
X117456141Y-115062005D01*
X117456141Y-115061994D01*
X117435614Y-114814270D01*
X117435612Y-114814261D01*
X117374587Y-114573282D01*
X117274731Y-114345630D01*
X117174434Y-114192116D01*
X116433962Y-114932589D01*
X116416925Y-114869007D01*
X116351099Y-114754993D01*
X116258007Y-114661901D01*
X116143993Y-114596075D01*
X116080410Y-114579037D01*
X116821057Y-113838390D01*
X116821056Y-113838389D01*
X116774229Y-113801943D01*
X116555614Y-113683635D01*
X116555603Y-113683630D01*
X116320493Y-113602916D01*
X116075293Y-113562000D01*
X115826707Y-113562000D01*
X115581506Y-113602916D01*
X115346396Y-113683630D01*
X115346390Y-113683632D01*
X115127761Y-113801949D01*
X115080942Y-113838388D01*
X115080942Y-113838390D01*
X115821590Y-114579037D01*
X115758007Y-114596075D01*
X115643993Y-114661901D01*
X115550901Y-114754993D01*
X115485075Y-114869007D01*
X115468037Y-114932589D01*
X114727564Y-114192116D01*
X114627267Y-114345632D01*
X114527412Y-114573282D01*
X114466387Y-114814261D01*
X114466385Y-114814270D01*
X114445859Y-115061994D01*
X114445859Y-115062005D01*
X106752362Y-115062005D01*
X106711957Y-115038677D01*
X106589056Y-114967719D01*
X106589045Y-114967714D01*
X106370993Y-114877394D01*
X106143010Y-114816306D01*
X105909020Y-114785501D01*
X105909017Y-114785500D01*
X105909011Y-114785500D01*
X105672989Y-114785500D01*
X105672983Y-114785500D01*
X105672979Y-114785501D01*
X105438989Y-114816306D01*
X105211006Y-114877394D01*
X104992954Y-114967714D01*
X104992943Y-114967719D01*
X104788545Y-115085730D01*
X104601302Y-115229406D01*
X104601295Y-115229412D01*
X104434412Y-115396295D01*
X104434406Y-115396302D01*
X104290730Y-115583545D01*
X104172719Y-115787943D01*
X104172714Y-115787954D01*
X104082394Y-116006006D01*
X104021306Y-116233989D01*
X103990501Y-116467979D01*
X103990500Y-116467995D01*
X103990500Y-116704004D01*
X103990501Y-116704020D01*
X104021306Y-116938012D01*
X104055308Y-117064907D01*
X104053645Y-117134757D01*
X104014482Y-117192619D01*
X103950254Y-117220123D01*
X103935533Y-117221000D01*
X101724000Y-117221000D01*
X101656961Y-117201315D01*
X101611206Y-117148511D01*
X101600000Y-117097000D01*
X101600000Y-113044118D01*
X101619685Y-112977079D01*
X101672489Y-112931324D01*
X101741647Y-112921380D01*
X101767333Y-112927936D01*
X101786517Y-112935091D01*
X101786516Y-112935091D01*
X101793444Y-112935835D01*
X101846127Y-112941500D01*
X105341872Y-112941499D01*
X105401483Y-112935091D01*
X105536331Y-112884796D01*
X105651546Y-112798546D01*
X105737796Y-112683331D01*
X105788091Y-112548483D01*
X105794500Y-112488873D01*
X105794499Y-110893128D01*
X105788091Y-110833517D01*
X105783751Y-110821882D01*
X105737797Y-110698671D01*
X105737793Y-110698664D01*
X105651547Y-110583455D01*
X105651544Y-110583452D01*
X105536335Y-110497206D01*
X105536328Y-110497202D01*
X105401482Y-110446908D01*
X105401483Y-110446908D01*
X105341883Y-110440501D01*
X105341881Y-110440500D01*
X105341873Y-110440500D01*
X105341864Y-110440500D01*
X101846129Y-110440500D01*
X101846123Y-110440501D01*
X101786513Y-110446909D01*
X101767329Y-110454064D01*
X101697638Y-110459046D01*
X101636316Y-110425559D01*
X101602833Y-110364235D01*
X101600000Y-110337881D01*
X101600000Y-109591000D01*
X106894000Y-109591000D01*
X106894000Y-109888844D01*
X106900401Y-109948372D01*
X106900403Y-109948379D01*
X106950645Y-110083086D01*
X106950649Y-110083093D01*
X107036809Y-110198187D01*
X107036812Y-110198190D01*
X107151906Y-110284350D01*
X107151913Y-110284354D01*
X107286620Y-110334596D01*
X107286627Y-110334598D01*
X107346155Y-110340999D01*
X107346172Y-110341000D01*
X108894000Y-110341000D01*
X108894000Y-109591000D01*
X109394000Y-109591000D01*
X109394000Y-110341000D01*
X110941828Y-110341000D01*
X110941844Y-110340999D01*
X111001372Y-110334598D01*
X111001379Y-110334596D01*
X111136086Y-110284354D01*
X111136093Y-110284350D01*
X111251187Y-110198190D01*
X111251190Y-110198187D01*
X111337350Y-110083093D01*
X111337354Y-110083086D01*
X111387596Y-109948379D01*
X111387598Y-109948372D01*
X111393999Y-109888844D01*
X111394000Y-109888827D01*
X111394000Y-109591000D01*
X109394000Y-109591000D01*
X108894000Y-109591000D01*
X106894000Y-109591000D01*
X101600000Y-109591000D01*
X101600000Y-107888870D01*
X106893500Y-107888870D01*
X106893501Y-107888876D01*
X106899908Y-107948483D01*
X106950202Y-108083328D01*
X106950206Y-108083335D01*
X107036452Y-108198544D01*
X107036453Y-108198544D01*
X107036454Y-108198546D01*
X107054919Y-108212369D01*
X107094562Y-108242046D01*
X107136432Y-108297980D01*
X107141416Y-108367672D01*
X107107930Y-108428994D01*
X107094562Y-108440578D01*
X107036809Y-108483812D01*
X106950649Y-108598906D01*
X106950645Y-108598913D01*
X106900403Y-108733620D01*
X106900401Y-108733627D01*
X106894000Y-108793155D01*
X106894000Y-109091000D01*
X111394000Y-109091000D01*
X111394000Y-108793172D01*
X111393999Y-108793155D01*
X111387598Y-108733627D01*
X111387596Y-108733620D01*
X111337354Y-108598913D01*
X111337350Y-108598906D01*
X111251190Y-108483812D01*
X111251187Y-108483809D01*
X111193438Y-108440578D01*
X111151567Y-108384645D01*
X111146583Y-108314953D01*
X111180069Y-108253630D01*
X111193432Y-108242049D01*
X111251546Y-108198546D01*
X111337796Y-108083331D01*
X111388091Y-107948483D01*
X111394500Y-107888873D01*
X111394500Y-107846500D01*
X111414185Y-107779461D01*
X111466989Y-107733706D01*
X111518500Y-107722500D01*
X116783615Y-107722500D01*
X116850654Y-107742185D01*
X116871296Y-107758819D01*
X120359181Y-111246704D01*
X120392666Y-111308027D01*
X120395500Y-111334385D01*
X120395500Y-113517975D01*
X120375815Y-113585014D01*
X120323011Y-113630769D01*
X120311763Y-113635256D01*
X120172197Y-113683169D01*
X120172188Y-113683172D01*
X119953493Y-113801524D01*
X119757257Y-113954261D01*
X119588833Y-114137217D01*
X119452826Y-114345393D01*
X119352936Y-114573118D01*
X119291892Y-114814175D01*
X119291890Y-114814187D01*
X119271357Y-115061994D01*
X119271357Y-115062005D01*
X119291890Y-115309812D01*
X119291892Y-115309824D01*
X119352936Y-115550881D01*
X119452826Y-115778606D01*
X119588833Y-115986782D01*
X119588836Y-115986785D01*
X119757256Y-116169738D01*
X119953491Y-116322474D01*
X119953493Y-116322475D01*
X120171332Y-116440364D01*
X120172190Y-116440828D01*
X120251325Y-116467995D01*
X120405964Y-116521083D01*
X120407386Y-116521571D01*
X120652665Y-116562500D01*
X120901335Y-116562500D01*
X121146614Y-116521571D01*
X121381810Y-116440828D01*
X121600509Y-116322474D01*
X121796744Y-116169738D01*
X121965164Y-115986785D01*
X122101173Y-115778607D01*
X122201063Y-115550881D01*
X122262108Y-115309821D01*
X122268771Y-115229412D01*
X122282643Y-115062005D01*
X122282643Y-115061994D01*
X122262109Y-114814187D01*
X122262107Y-114814175D01*
X122201063Y-114573118D01*
X122101173Y-114345393D01*
X121965166Y-114137217D01*
X121927427Y-114096222D01*
X121796744Y-113954262D01*
X121600509Y-113801526D01*
X121600507Y-113801525D01*
X121600506Y-113801524D01*
X121381811Y-113683172D01*
X121381802Y-113683169D01*
X121242237Y-113635256D01*
X121185222Y-113594871D01*
X121159091Y-113530071D01*
X121158500Y-113517975D01*
X121158500Y-111630500D01*
X121178185Y-111563461D01*
X121230989Y-111517706D01*
X121282500Y-111506500D01*
X122980615Y-111506500D01*
X123047654Y-111526185D01*
X123068296Y-111542819D01*
X124277383Y-112751905D01*
X124277393Y-112751916D01*
X124352754Y-112827277D01*
X124396249Y-112852388D01*
X124439746Y-112877501D01*
X124536775Y-112903500D01*
X124917775Y-112903500D01*
X124970500Y-112903500D01*
X125037539Y-112923185D01*
X125083294Y-112975989D01*
X125094500Y-113027500D01*
X125094500Y-113519691D01*
X125074815Y-113586730D01*
X125022011Y-113632485D01*
X124952853Y-113642429D01*
X124930238Y-113636972D01*
X124829618Y-113602429D01*
X124584335Y-113561500D01*
X124335665Y-113561500D01*
X124090383Y-113602429D01*
X123855197Y-113683169D01*
X123855188Y-113683172D01*
X123636493Y-113801524D01*
X123440257Y-113954261D01*
X123271833Y-114137217D01*
X123135826Y-114345393D01*
X123035936Y-114573118D01*
X122974892Y-114814175D01*
X122974890Y-114814187D01*
X122954357Y-115061994D01*
X122954357Y-115062005D01*
X122974890Y-115309812D01*
X122974892Y-115309824D01*
X123035936Y-115550881D01*
X123135826Y-115778606D01*
X123271833Y-115986782D01*
X123271836Y-115986785D01*
X123440256Y-116169738D01*
X123636491Y-116322474D01*
X123636493Y-116322475D01*
X123854332Y-116440364D01*
X123855190Y-116440828D01*
X123934325Y-116467995D01*
X124088964Y-116521083D01*
X124090386Y-116521571D01*
X124335665Y-116562500D01*
X124584335Y-116562500D01*
X124829614Y-116521571D01*
X125064810Y-116440828D01*
X125283509Y-116322474D01*
X125479744Y-116169738D01*
X125648164Y-115986785D01*
X125784173Y-115778607D01*
X125884063Y-115550881D01*
X125945108Y-115309821D01*
X125951771Y-115229412D01*
X125965643Y-115062005D01*
X125965643Y-115061994D01*
X125945109Y-114814187D01*
X125945107Y-114814175D01*
X125884063Y-114573118D01*
X125791890Y-114362986D01*
X125782987Y-114293686D01*
X125798058Y-114251177D01*
X125831501Y-114193254D01*
X125857500Y-114096225D01*
X125857500Y-113027500D01*
X125877185Y-112960461D01*
X125929989Y-112914706D01*
X125981500Y-112903500D01*
X128399500Y-112903500D01*
X128466539Y-112923185D01*
X128512294Y-112975989D01*
X128523500Y-113027500D01*
X128523500Y-113519691D01*
X128503815Y-113586730D01*
X128451011Y-113632485D01*
X128381853Y-113642429D01*
X128359238Y-113636972D01*
X128258618Y-113602429D01*
X128013335Y-113561500D01*
X127764665Y-113561500D01*
X127519383Y-113602429D01*
X127284197Y-113683169D01*
X127284188Y-113683172D01*
X127065493Y-113801524D01*
X126869257Y-113954261D01*
X126700833Y-114137217D01*
X126564826Y-114345393D01*
X126464936Y-114573118D01*
X126403892Y-114814175D01*
X126403890Y-114814187D01*
X126383357Y-115061994D01*
X126383357Y-115062005D01*
X126403890Y-115309812D01*
X126403892Y-115309824D01*
X126464936Y-115550881D01*
X126564826Y-115778606D01*
X126700833Y-115986782D01*
X126700836Y-115986785D01*
X126869256Y-116169738D01*
X127065491Y-116322474D01*
X127065493Y-116322475D01*
X127283332Y-116440364D01*
X127284190Y-116440828D01*
X127363325Y-116467995D01*
X127517964Y-116521083D01*
X127519386Y-116521571D01*
X127764665Y-116562500D01*
X128013335Y-116562500D01*
X128258614Y-116521571D01*
X128493810Y-116440828D01*
X128712509Y-116322474D01*
X128908744Y-116169738D01*
X129077164Y-115986785D01*
X129213173Y-115778607D01*
X129313063Y-115550881D01*
X129374108Y-115309821D01*
X129380771Y-115229412D01*
X129394643Y-115062005D01*
X129394643Y-115061994D01*
X129374109Y-114814187D01*
X129374107Y-114814175D01*
X129313063Y-114573118D01*
X129220890Y-114362986D01*
X129211987Y-114293686D01*
X129227058Y-114251177D01*
X129260501Y-114193254D01*
X129286500Y-114096225D01*
X129286500Y-113027500D01*
X129306185Y-112960461D01*
X129358989Y-112914706D01*
X129410500Y-112903500D01*
X131955500Y-112903500D01*
X132022539Y-112923185D01*
X132068294Y-112975989D01*
X132079500Y-113027500D01*
X132079500Y-113563290D01*
X132059815Y-113630329D01*
X132007011Y-113676084D01*
X131937853Y-113686028D01*
X131915237Y-113680571D01*
X131687616Y-113602429D01*
X131442335Y-113561500D01*
X131193665Y-113561500D01*
X130948383Y-113602429D01*
X130713197Y-113683169D01*
X130713188Y-113683172D01*
X130494493Y-113801524D01*
X130298257Y-113954261D01*
X130129833Y-114137217D01*
X129993826Y-114345393D01*
X129893936Y-114573118D01*
X129832892Y-114814175D01*
X129832890Y-114814187D01*
X129812357Y-115061994D01*
X129812357Y-115062005D01*
X129832890Y-115309812D01*
X129832892Y-115309824D01*
X129893936Y-115550881D01*
X129993826Y-115778606D01*
X130129833Y-115986782D01*
X130129836Y-115986785D01*
X130298256Y-116169738D01*
X130494491Y-116322474D01*
X130494493Y-116322475D01*
X130712332Y-116440364D01*
X130713190Y-116440828D01*
X130792325Y-116467995D01*
X130946964Y-116521083D01*
X130948386Y-116521571D01*
X131193665Y-116562500D01*
X131442335Y-116562500D01*
X131687614Y-116521571D01*
X131922810Y-116440828D01*
X132141509Y-116322474D01*
X132337744Y-116169738D01*
X132506164Y-115986785D01*
X132642173Y-115778607D01*
X132742063Y-115550881D01*
X132803108Y-115309821D01*
X132809771Y-115229412D01*
X132823643Y-115062005D01*
X132823643Y-115061994D01*
X132803109Y-114814187D01*
X132803107Y-114814175D01*
X132742063Y-114573118D01*
X132655458Y-114375680D01*
X132646555Y-114306380D01*
X132676532Y-114243268D01*
X132681308Y-114238214D01*
X132766276Y-114153247D01*
X132775532Y-114137215D01*
X132799197Y-114096227D01*
X132799197Y-114096225D01*
X132799199Y-114096222D01*
X132816501Y-114066254D01*
X132842500Y-113969225D01*
X132842500Y-113027500D01*
X132862185Y-112960461D01*
X132914989Y-112914706D01*
X132966500Y-112903500D01*
X138480222Y-112903500D01*
X138480225Y-112903500D01*
X138577254Y-112877501D01*
X138664247Y-112827276D01*
X138735276Y-112756247D01*
X141783276Y-109708247D01*
X141948704Y-109542819D01*
X142010027Y-109509334D01*
X142036385Y-109506500D01*
X147396501Y-109506500D01*
X147463540Y-109526185D01*
X147509295Y-109578989D01*
X147520501Y-109630500D01*
X147520501Y-109672876D01*
X147526908Y-109732483D01*
X147577202Y-109867328D01*
X147577206Y-109867335D01*
X147663452Y-109982544D01*
X147663455Y-109982547D01*
X147778664Y-110068793D01*
X147778671Y-110068797D01*
X147913517Y-110119091D01*
X147913516Y-110119091D01*
X147920444Y-110119835D01*
X147973127Y-110125500D01*
X151568872Y-110125499D01*
X151628483Y-110119091D01*
X151763331Y-110068796D01*
X151878546Y-109982546D01*
X151964796Y-109867331D01*
X152015091Y-109732483D01*
X152021500Y-109672873D01*
X152021499Y-108577128D01*
X152015091Y-108517517D01*
X151964796Y-108382669D01*
X151964795Y-108382668D01*
X151964793Y-108382664D01*
X151878547Y-108267455D01*
X151878544Y-108267453D01*
X151860080Y-108253630D01*
X151820437Y-108223953D01*
X151778567Y-108168019D01*
X151773583Y-108098327D01*
X151807069Y-108037004D01*
X151820439Y-108025420D01*
X151878189Y-107982188D01*
X151878190Y-107982187D01*
X151964350Y-107867093D01*
X151964354Y-107867086D01*
X152014596Y-107732379D01*
X152014598Y-107732372D01*
X152020999Y-107672844D01*
X152021000Y-107672827D01*
X152021000Y-107375000D01*
X147521000Y-107375000D01*
X147521000Y-107672844D01*
X147527401Y-107732372D01*
X147527403Y-107732379D01*
X147577645Y-107867086D01*
X147577649Y-107867093D01*
X147663809Y-107982186D01*
X147721561Y-108025420D01*
X147763432Y-108081354D01*
X147768416Y-108151046D01*
X147734931Y-108212369D01*
X147721563Y-108223952D01*
X147663454Y-108267453D01*
X147663452Y-108267455D01*
X147577206Y-108382664D01*
X147577202Y-108382671D01*
X147526908Y-108517517D01*
X147520501Y-108577116D01*
X147520501Y-108577123D01*
X147520500Y-108577135D01*
X147520500Y-108619500D01*
X147500815Y-108686539D01*
X147448011Y-108732294D01*
X147396500Y-108743500D01*
X141983500Y-108743500D01*
X141916461Y-108723815D01*
X141870706Y-108671011D01*
X141859500Y-108619500D01*
X141859500Y-106875000D01*
X147521000Y-106875000D01*
X149521000Y-106875000D01*
X149521000Y-106125000D01*
X150021000Y-106125000D01*
X150021000Y-106875000D01*
X152021000Y-106875000D01*
X152021000Y-106577172D01*
X152020999Y-106577155D01*
X152014598Y-106517627D01*
X152014596Y-106517620D01*
X151964354Y-106382913D01*
X151964350Y-106382906D01*
X151878190Y-106267812D01*
X151878187Y-106267809D01*
X151763093Y-106181649D01*
X151763086Y-106181645D01*
X151628379Y-106131403D01*
X151628372Y-106131401D01*
X151568844Y-106125000D01*
X150021000Y-106125000D01*
X149521000Y-106125000D01*
X147973155Y-106125000D01*
X147913627Y-106131401D01*
X147913620Y-106131403D01*
X147778913Y-106181645D01*
X147778906Y-106181649D01*
X147663812Y-106267809D01*
X147663809Y-106267812D01*
X147577649Y-106382906D01*
X147577645Y-106382913D01*
X147527403Y-106517620D01*
X147527401Y-106517627D01*
X147521000Y-106577155D01*
X147521000Y-106875000D01*
X141859500Y-106875000D01*
X141859500Y-106445681D01*
X141879185Y-106378642D01*
X141895819Y-106358000D01*
X144585000Y-103668819D01*
X144646323Y-103635334D01*
X144672681Y-103632500D01*
X145973222Y-103632500D01*
X145973225Y-103632500D01*
X146070254Y-103606501D01*
X146157247Y-103556276D01*
X146228276Y-103485247D01*
X146847276Y-102866247D01*
X146866953Y-102832165D01*
X146897501Y-102779254D01*
X146903257Y-102757772D01*
X146939620Y-102698114D01*
X147002467Y-102667584D01*
X147010419Y-102666510D01*
X147044797Y-102662999D01*
X147211334Y-102607814D01*
X147360656Y-102515712D01*
X147484712Y-102391656D01*
X147576814Y-102242334D01*
X147631999Y-102075797D01*
X147642500Y-101973009D01*
X147642500Y-101559500D01*
X151021501Y-101559500D01*
X151021501Y-101646154D01*
X151031819Y-101747152D01*
X151086046Y-101910800D01*
X151086051Y-101910811D01*
X151176552Y-102057534D01*
X151176555Y-102057538D01*
X151298461Y-102179444D01*
X151298465Y-102179447D01*
X151445188Y-102269948D01*
X151445199Y-102269953D01*
X151608847Y-102324180D01*
X151709852Y-102334499D01*
X151746500Y-102334499D01*
X151746500Y-101559500D01*
X152246500Y-101559500D01*
X152246500Y-102334499D01*
X152283140Y-102334499D01*
X152283154Y-102334498D01*
X152384152Y-102324180D01*
X152547800Y-102269953D01*
X152547811Y-102269948D01*
X152694534Y-102179447D01*
X152694538Y-102179444D01*
X152816444Y-102057538D01*
X152816447Y-102057534D01*
X152906948Y-101910811D01*
X152906953Y-101910800D01*
X152961180Y-101747152D01*
X152971499Y-101646154D01*
X152971500Y-101646141D01*
X152971500Y-101559500D01*
X154704501Y-101559500D01*
X154704501Y-101646154D01*
X154714819Y-101747152D01*
X154769046Y-101910800D01*
X154769051Y-101910811D01*
X154859552Y-102057534D01*
X154859555Y-102057538D01*
X154981461Y-102179444D01*
X154981465Y-102179447D01*
X155128188Y-102269948D01*
X155128199Y-102269953D01*
X155291847Y-102324180D01*
X155392852Y-102334499D01*
X155429500Y-102334499D01*
X155429500Y-101559500D01*
X155929500Y-101559500D01*
X155929500Y-102334499D01*
X155966140Y-102334499D01*
X155966154Y-102334498D01*
X156067152Y-102324180D01*
X156230800Y-102269953D01*
X156230811Y-102269948D01*
X156377534Y-102179447D01*
X156377538Y-102179444D01*
X156499444Y-102057538D01*
X156499447Y-102057534D01*
X156589948Y-101910811D01*
X156589953Y-101910800D01*
X156644180Y-101747152D01*
X156654499Y-101646154D01*
X156654500Y-101646141D01*
X156654500Y-101559500D01*
X155929500Y-101559500D01*
X155429500Y-101559500D01*
X154704501Y-101559500D01*
X152971500Y-101559500D01*
X152246500Y-101559500D01*
X151746500Y-101559500D01*
X151021501Y-101559500D01*
X147642500Y-101559500D01*
X147642499Y-100972992D01*
X147642499Y-100972991D01*
X147642347Y-100970012D01*
X147658592Y-100902057D01*
X147678501Y-100876020D01*
X149403276Y-99151247D01*
X149453502Y-99064253D01*
X149479500Y-98967225D01*
X149479500Y-98866775D01*
X149479500Y-96110384D01*
X149499185Y-96043345D01*
X149515814Y-96022708D01*
X150720650Y-94817871D01*
X150781971Y-94784388D01*
X150851663Y-94789372D01*
X150907596Y-94831244D01*
X150913867Y-94840457D01*
X150976285Y-94941652D01*
X150976288Y-94941656D01*
X151069951Y-95035319D01*
X151103436Y-95096642D01*
X151098452Y-95166334D01*
X151069951Y-95210681D01*
X150976289Y-95304342D01*
X150884187Y-95453663D01*
X150884186Y-95453666D01*
X150829001Y-95620203D01*
X150829001Y-95620204D01*
X150829000Y-95620204D01*
X150818500Y-95722983D01*
X150818500Y-96523001D01*
X150818501Y-96523019D01*
X150829000Y-96625796D01*
X150829001Y-96625799D01*
X150866253Y-96738217D01*
X150884186Y-96792334D01*
X150976288Y-96941656D01*
X151100344Y-97065712D01*
X151249666Y-97157814D01*
X151416203Y-97212999D01*
X151518991Y-97223500D01*
X151519004Y-97223499D01*
X151519800Y-97223541D01*
X151519968Y-97223599D01*
X151522132Y-97223821D01*
X151522079Y-97224338D01*
X151585752Y-97246606D01*
X151628766Y-97301666D01*
X151637500Y-97347381D01*
X151637500Y-98445257D01*
X151617815Y-98512296D01*
X151565011Y-98558051D01*
X151552507Y-98562962D01*
X151477606Y-98587782D01*
X151444984Y-98598592D01*
X151444981Y-98598593D01*
X151298148Y-98689161D01*
X151176161Y-98811148D01*
X151085593Y-98957981D01*
X151085592Y-98957984D01*
X151031326Y-99121747D01*
X151031326Y-99121748D01*
X151031325Y-99121748D01*
X151021000Y-99222815D01*
X151021000Y-99896169D01*
X151021001Y-99896187D01*
X151031325Y-99997252D01*
X151055471Y-100070117D01*
X151075226Y-100129735D01*
X151085592Y-100161015D01*
X151085593Y-100161018D01*
X151113955Y-100207000D01*
X151170799Y-100299159D01*
X151176161Y-100307851D01*
X151215482Y-100347172D01*
X151248967Y-100408495D01*
X151243983Y-100478187D01*
X151215483Y-100522533D01*
X151176555Y-100561461D01*
X151176552Y-100561465D01*
X151086051Y-100708188D01*
X151086046Y-100708199D01*
X151031819Y-100871847D01*
X151021500Y-100972845D01*
X151021500Y-101059500D01*
X152971499Y-101059500D01*
X152971499Y-100972860D01*
X152971498Y-100972845D01*
X152961180Y-100871847D01*
X152906953Y-100708199D01*
X152906948Y-100708188D01*
X152816447Y-100561465D01*
X152816444Y-100561461D01*
X152777517Y-100522534D01*
X152744032Y-100461211D01*
X152749016Y-100391519D01*
X152777516Y-100347173D01*
X152816840Y-100307850D01*
X152907408Y-100161016D01*
X152961674Y-99997253D01*
X152972000Y-99896177D01*
X152971999Y-99222824D01*
X152971532Y-99218256D01*
X152961674Y-99121747D01*
X152942622Y-99064252D01*
X152907408Y-98957984D01*
X152816840Y-98811150D01*
X152694850Y-98689160D01*
X152548016Y-98598592D01*
X152548014Y-98598591D01*
X152548012Y-98598590D01*
X152548013Y-98598590D01*
X152485494Y-98577873D01*
X152428050Y-98538100D01*
X152401228Y-98473584D01*
X152400500Y-98460168D01*
X152400500Y-97347380D01*
X152420185Y-97280341D01*
X152472989Y-97234586D01*
X152515896Y-97224102D01*
X152515868Y-97223820D01*
X152517901Y-97223612D01*
X152518197Y-97223540D01*
X152518998Y-97223499D01*
X152519008Y-97223499D01*
X152621797Y-97212999D01*
X152788334Y-97157814D01*
X152937656Y-97065712D01*
X153061712Y-96941656D01*
X153153814Y-96792334D01*
X153208999Y-96625797D01*
X153219500Y-96523009D01*
X153219499Y-95722992D01*
X153208999Y-95620203D01*
X153153814Y-95453666D01*
X153061712Y-95304344D01*
X152968049Y-95210681D01*
X152934564Y-95149358D01*
X152939548Y-95079666D01*
X152968049Y-95035319D01*
X152992221Y-95011147D01*
X153061712Y-94941656D01*
X153153814Y-94792334D01*
X153208999Y-94625797D01*
X153219500Y-94523009D01*
X153219499Y-93722992D01*
X153216441Y-93693060D01*
X153208999Y-93620203D01*
X153208998Y-93620200D01*
X153199925Y-93592821D01*
X153153814Y-93453666D01*
X153061712Y-93304344D01*
X152937656Y-93180288D01*
X152788334Y-93088186D01*
X152621797Y-93033001D01*
X152621795Y-93033000D01*
X152519010Y-93022500D01*
X151518998Y-93022500D01*
X151518980Y-93022501D01*
X151416203Y-93033000D01*
X151416200Y-93033001D01*
X151249668Y-93088185D01*
X151249663Y-93088187D01*
X151100342Y-93180289D01*
X150976289Y-93304342D01*
X150884187Y-93453663D01*
X150884186Y-93453666D01*
X150829001Y-93620203D01*
X150829001Y-93620204D01*
X150829000Y-93620204D01*
X150825039Y-93658979D01*
X150798642Y-93723671D01*
X150741460Y-93763821D01*
X150733784Y-93766147D01*
X150728753Y-93767495D01*
X150728747Y-93767497D01*
X150641753Y-93817724D01*
X150641750Y-93817726D01*
X149691181Y-94768296D01*
X149629858Y-94801781D01*
X149560166Y-94796797D01*
X149504233Y-94754925D01*
X149479816Y-94689461D01*
X149479500Y-94680615D01*
X149479500Y-94437777D01*
X149479500Y-94437775D01*
X149453501Y-94340746D01*
X149403276Y-94253753D01*
X149332247Y-94182724D01*
X148189247Y-93039724D01*
X148169683Y-93028429D01*
X148169683Y-93028428D01*
X148169681Y-93028428D01*
X148159413Y-93022500D01*
X148102256Y-92989500D01*
X148102255Y-92989499D01*
X148077996Y-92982999D01*
X148005225Y-92963500D01*
X148005222Y-92963500D01*
X147766380Y-92963500D01*
X147699341Y-92943815D01*
X147653586Y-92891011D01*
X147643102Y-92848103D01*
X147642820Y-92848132D01*
X147642612Y-92846098D01*
X147642540Y-92845803D01*
X147642498Y-92844981D01*
X147631999Y-92742203D01*
X147631998Y-92742200D01*
X147594286Y-92628393D01*
X147576814Y-92575666D01*
X147484712Y-92426344D01*
X147360656Y-92302288D01*
X147267888Y-92245069D01*
X147211336Y-92210187D01*
X147211331Y-92210185D01*
X147209862Y-92209698D01*
X147044797Y-92155001D01*
X147044795Y-92155000D01*
X146942010Y-92144500D01*
X146141998Y-92144500D01*
X146141980Y-92144501D01*
X146039203Y-92155000D01*
X146039200Y-92155001D01*
X145872668Y-92210185D01*
X145872663Y-92210187D01*
X145723342Y-92302289D01*
X145629681Y-92395951D01*
X145568358Y-92429436D01*
X145498666Y-92424452D01*
X145454319Y-92395951D01*
X145360657Y-92302289D01*
X145360656Y-92302288D01*
X145267888Y-92245069D01*
X145211336Y-92210187D01*
X145211331Y-92210185D01*
X145209862Y-92209698D01*
X145044797Y-92155001D01*
X145044795Y-92155000D01*
X144942010Y-92144500D01*
X144141998Y-92144500D01*
X144141980Y-92144501D01*
X144039203Y-92155000D01*
X144039200Y-92155001D01*
X143872668Y-92210185D01*
X143872663Y-92210187D01*
X143723342Y-92302289D01*
X143599289Y-92426342D01*
X143507187Y-92575663D01*
X143507186Y-92575666D01*
X143452001Y-92742203D01*
X143452001Y-92742204D01*
X143452000Y-92742204D01*
X143441500Y-92844983D01*
X143441500Y-92966500D01*
X143421815Y-93033539D01*
X143369011Y-93079294D01*
X143317500Y-93090500D01*
X141279930Y-93090500D01*
X141212891Y-93070815D01*
X141167136Y-93018011D01*
X141159724Y-92996940D01*
X141157333Y-92987500D01*
X141137936Y-92910903D01*
X141124063Y-92856118D01*
X141024173Y-92628393D01*
X140981387Y-92562903D01*
X140961199Y-92496013D01*
X140980380Y-92428828D01*
X140997511Y-92407405D01*
X142944098Y-90460819D01*
X143005421Y-90427334D01*
X143031779Y-90424500D01*
X143292501Y-90424500D01*
X143359540Y-90444185D01*
X143405295Y-90496989D01*
X143416501Y-90548500D01*
X143416501Y-90695018D01*
X143427000Y-90797796D01*
X143427001Y-90797799D01*
X143477807Y-90951118D01*
X143482186Y-90964334D01*
X143574288Y-91113656D01*
X143698344Y-91237712D01*
X143847666Y-91329814D01*
X144014203Y-91384999D01*
X144116991Y-91395500D01*
X144892008Y-91395499D01*
X144892016Y-91395498D01*
X144892019Y-91395498D01*
X144948302Y-91389748D01*
X144994797Y-91384999D01*
X145161334Y-91329814D01*
X145310656Y-91237712D01*
X145434712Y-91113656D01*
X145436752Y-91110347D01*
X145438745Y-91108555D01*
X145439193Y-91107989D01*
X145439289Y-91108065D01*
X145488694Y-91063623D01*
X145557656Y-91052395D01*
X145621740Y-91080234D01*
X145647829Y-91110339D01*
X145649681Y-91113341D01*
X145649683Y-91113344D01*
X145773654Y-91237315D01*
X145922875Y-91329356D01*
X145922880Y-91329358D01*
X146089302Y-91384505D01*
X146089309Y-91384506D01*
X146192019Y-91394999D01*
X146329499Y-91394999D01*
X146329500Y-91394998D01*
X146329500Y-90420000D01*
X146829500Y-90420000D01*
X146829500Y-91394999D01*
X146966972Y-91394999D01*
X146966986Y-91394998D01*
X147069697Y-91384505D01*
X147236119Y-91329358D01*
X147236124Y-91329356D01*
X147385345Y-91237315D01*
X147509315Y-91113345D01*
X147601356Y-90964124D01*
X147601358Y-90964119D01*
X147656505Y-90797697D01*
X147656506Y-90797690D01*
X147666999Y-90694986D01*
X147667000Y-90694973D01*
X147667000Y-90420000D01*
X146829500Y-90420000D01*
X146329500Y-90420000D01*
X146329500Y-88945000D01*
X146829500Y-88945000D01*
X146829500Y-89920000D01*
X147666999Y-89920000D01*
X147666999Y-89645028D01*
X147666998Y-89645013D01*
X147656505Y-89542302D01*
X147601358Y-89375880D01*
X147601356Y-89375875D01*
X147509315Y-89226654D01*
X147385345Y-89102684D01*
X147236124Y-89010643D01*
X147236119Y-89010641D01*
X147069697Y-88955494D01*
X147069690Y-88955493D01*
X146966986Y-88945000D01*
X146829500Y-88945000D01*
X146329500Y-88945000D01*
X146192027Y-88945000D01*
X146192012Y-88945001D01*
X146089302Y-88955494D01*
X145922880Y-89010641D01*
X145922875Y-89010643D01*
X145773654Y-89102684D01*
X145649683Y-89226655D01*
X145649679Y-89226660D01*
X145647826Y-89229665D01*
X145646018Y-89231290D01*
X145645202Y-89232323D01*
X145645025Y-89232183D01*
X145595874Y-89276385D01*
X145526911Y-89287601D01*
X145462831Y-89259752D01*
X145436753Y-89229653D01*
X145436737Y-89229628D01*
X145434712Y-89226344D01*
X145310656Y-89102288D01*
X145161334Y-89010186D01*
X144994797Y-88955001D01*
X144994795Y-88955000D01*
X144892010Y-88944500D01*
X144116998Y-88944500D01*
X144116980Y-88944501D01*
X144014203Y-88955000D01*
X144014200Y-88955001D01*
X143847668Y-89010185D01*
X143847663Y-89010187D01*
X143698342Y-89102289D01*
X143574289Y-89226342D01*
X143482187Y-89375663D01*
X143482185Y-89375668D01*
X143458398Y-89447452D01*
X143427001Y-89542203D01*
X143427001Y-89542204D01*
X143427000Y-89542204D01*
X143416500Y-89644983D01*
X143416500Y-89791500D01*
X143396815Y-89858539D01*
X143344011Y-89904294D01*
X143292500Y-89915500D01*
X142824377Y-89915500D01*
X142824375Y-89915500D01*
X142824373Y-89915501D01*
X142730839Y-89954242D01*
X142730837Y-89954244D01*
X142659244Y-90025838D01*
X140638881Y-92046199D01*
X140577558Y-92079684D01*
X140507866Y-92074700D01*
X140492185Y-92067574D01*
X140421548Y-92029347D01*
X140304811Y-91966172D01*
X140304802Y-91966169D01*
X140069616Y-91885429D01*
X139824335Y-91844500D01*
X139575665Y-91844500D01*
X139330383Y-91885429D01*
X139095197Y-91966169D01*
X139095188Y-91966172D01*
X138876493Y-92084524D01*
X138680257Y-92237261D01*
X138511833Y-92420217D01*
X138375826Y-92628393D01*
X138275936Y-92856118D01*
X138214892Y-93097175D01*
X138214890Y-93097187D01*
X138194357Y-93344994D01*
X138194357Y-93345005D01*
X138214890Y-93592812D01*
X138214892Y-93592824D01*
X138275936Y-93833881D01*
X138375828Y-94061610D01*
X138418611Y-94127096D01*
X138438799Y-94193986D01*
X138419618Y-94261171D01*
X138402483Y-94282597D01*
X135977680Y-96707400D01*
X135916357Y-96740885D01*
X135846665Y-96735901D01*
X135802318Y-96707400D01*
X135642766Y-96547848D01*
X135609281Y-96486525D01*
X135606447Y-96460167D01*
X135606447Y-96429731D01*
X135606446Y-96429725D01*
X135603522Y-96402526D01*
X135600039Y-96370119D01*
X135592719Y-96350494D01*
X135549745Y-96235273D01*
X135549741Y-96235266D01*
X135463495Y-96120057D01*
X135463492Y-96120054D01*
X135348283Y-96033808D01*
X135348276Y-96033804D01*
X135213430Y-95983510D01*
X135213431Y-95983510D01*
X135153831Y-95977103D01*
X135153829Y-95977102D01*
X135153821Y-95977102D01*
X135153812Y-95977102D01*
X134107577Y-95977102D01*
X134107571Y-95977103D01*
X134047964Y-95983510D01*
X133913119Y-96033804D01*
X133913112Y-96033808D01*
X133797903Y-96120054D01*
X133797900Y-96120057D01*
X133711654Y-96235266D01*
X133711650Y-96235273D01*
X133661358Y-96370115D01*
X133661357Y-96370119D01*
X133654948Y-96429729D01*
X133654948Y-96429736D01*
X133654948Y-96429737D01*
X133654948Y-97084272D01*
X133654949Y-97084278D01*
X133661356Y-97143885D01*
X133711650Y-97278730D01*
X133711654Y-97278737D01*
X133797900Y-97393946D01*
X133797903Y-97393949D01*
X133913112Y-97480195D01*
X133913119Y-97480199D01*
X134047965Y-97530493D01*
X134047964Y-97530493D01*
X134054892Y-97531237D01*
X134107575Y-97536902D01*
X135153820Y-97536901D01*
X135213431Y-97530493D01*
X135348279Y-97480198D01*
X135463494Y-97393948D01*
X135508540Y-97333774D01*
X135564473Y-97291904D01*
X135634165Y-97286920D01*
X135695487Y-97320405D01*
X135726181Y-97351099D01*
X135759666Y-97412422D01*
X135762500Y-97438780D01*
X135762500Y-99665220D01*
X135742815Y-99732259D01*
X135726185Y-99752896D01*
X135659031Y-99820051D01*
X135648393Y-99830689D01*
X135587069Y-99864173D01*
X135517378Y-99859188D01*
X135471357Y-99824738D01*
X135469768Y-99826328D01*
X135463496Y-99820057D01*
X135463494Y-99820054D01*
X135463490Y-99820051D01*
X135348283Y-99733806D01*
X135348276Y-99733802D01*
X135213430Y-99683508D01*
X135213431Y-99683508D01*
X135153831Y-99677101D01*
X135153829Y-99677100D01*
X135153821Y-99677100D01*
X135153812Y-99677100D01*
X134107577Y-99677100D01*
X134107571Y-99677101D01*
X134047964Y-99683508D01*
X133913119Y-99733802D01*
X133913112Y-99733806D01*
X133797903Y-99820052D01*
X133797900Y-99820055D01*
X133711654Y-99935264D01*
X133711650Y-99935271D01*
X133661358Y-100070113D01*
X133661357Y-100070117D01*
X133654948Y-100129727D01*
X133654948Y-100129734D01*
X133654948Y-100129735D01*
X133654948Y-100784270D01*
X133654949Y-100784276D01*
X133661356Y-100843883D01*
X133711650Y-100978728D01*
X133711654Y-100978735D01*
X133797900Y-101093944D01*
X133797903Y-101093947D01*
X133913112Y-101180193D01*
X133913119Y-101180197D01*
X134047965Y-101230491D01*
X134047964Y-101230491D01*
X134054892Y-101231235D01*
X134107575Y-101236900D01*
X135153820Y-101236899D01*
X135213431Y-101230491D01*
X135348279Y-101180196D01*
X135463494Y-101093946D01*
X135549744Y-100978731D01*
X135600039Y-100843883D01*
X135606448Y-100784273D01*
X135606447Y-100643831D01*
X135626131Y-100576792D01*
X135642762Y-100556154D01*
X136143721Y-100055194D01*
X136143724Y-100055193D01*
X136161162Y-100037755D01*
X136161163Y-100037755D01*
X136232755Y-99966163D01*
X136232755Y-99966161D01*
X136232757Y-99966160D01*
X136258300Y-99904490D01*
X136271500Y-99872623D01*
X136271500Y-97347065D01*
X136271501Y-97347056D01*
X136271501Y-97221388D01*
X136271500Y-97221374D01*
X136271500Y-97184779D01*
X136291185Y-97117740D01*
X136307819Y-97097098D01*
X137520688Y-95884229D01*
X138761119Y-94643797D01*
X138822440Y-94610314D01*
X138892132Y-94615298D01*
X138907813Y-94622424D01*
X138946148Y-94643170D01*
X139095179Y-94723823D01*
X139095185Y-94723825D01*
X139095190Y-94723828D01*
X139330386Y-94804571D01*
X139575665Y-94845500D01*
X139824335Y-94845500D01*
X140069614Y-94804571D01*
X140304810Y-94723828D01*
X140523509Y-94605474D01*
X140719744Y-94452738D01*
X140888164Y-94269785D01*
X141024173Y-94061607D01*
X141124063Y-93833881D01*
X141159724Y-93693059D01*
X141195264Y-93632904D01*
X141257684Y-93601512D01*
X141279930Y-93599500D01*
X143317501Y-93599500D01*
X143384540Y-93619185D01*
X143430295Y-93671989D01*
X143441501Y-93723500D01*
X143441501Y-93845018D01*
X143452000Y-93947796D01*
X143452001Y-93947799D01*
X143507185Y-94114331D01*
X143507187Y-94114336D01*
X143531870Y-94154354D01*
X143599288Y-94263656D01*
X143723344Y-94387712D01*
X143872666Y-94479814D01*
X144039203Y-94534999D01*
X144141991Y-94545500D01*
X144942008Y-94545499D01*
X144942016Y-94545498D01*
X144942019Y-94545498D01*
X144998302Y-94539748D01*
X145044797Y-94534999D01*
X145211334Y-94479814D01*
X145360656Y-94387712D01*
X145454319Y-94294049D01*
X145515642Y-94260564D01*
X145585334Y-94265548D01*
X145629681Y-94294049D01*
X145723344Y-94387712D01*
X145872666Y-94479814D01*
X146039203Y-94534999D01*
X146141991Y-94545500D01*
X146942008Y-94545499D01*
X146942016Y-94545498D01*
X146942019Y-94545498D01*
X146998302Y-94539748D01*
X147044797Y-94534999D01*
X147211334Y-94479814D01*
X147360656Y-94387712D01*
X147484712Y-94263656D01*
X147576814Y-94114334D01*
X147631999Y-93947797D01*
X147641282Y-93856921D01*
X147667677Y-93792232D01*
X147724858Y-93752080D01*
X147794669Y-93749216D01*
X147852321Y-93781844D01*
X148680181Y-94609704D01*
X148713666Y-94671027D01*
X148716500Y-94697385D01*
X148716500Y-98707614D01*
X148696815Y-98774653D01*
X148680181Y-98795295D01*
X147209801Y-100265674D01*
X147148478Y-100299159D01*
X147083117Y-100295699D01*
X147044797Y-100283001D01*
X147044795Y-100283000D01*
X146942010Y-100272500D01*
X146141998Y-100272500D01*
X146141980Y-100272501D01*
X146039203Y-100283000D01*
X146039200Y-100283001D01*
X145872668Y-100338185D01*
X145872663Y-100338187D01*
X145723342Y-100430289D01*
X145629681Y-100523951D01*
X145568358Y-100557436D01*
X145498666Y-100552452D01*
X145454319Y-100523951D01*
X145360657Y-100430289D01*
X145360656Y-100430288D01*
X145242039Y-100357125D01*
X145211336Y-100338187D01*
X145211331Y-100338185D01*
X145209862Y-100337698D01*
X145044797Y-100283001D01*
X145044795Y-100283000D01*
X144942010Y-100272500D01*
X144141998Y-100272500D01*
X144141980Y-100272501D01*
X144039203Y-100283000D01*
X144039200Y-100283001D01*
X143872668Y-100338185D01*
X143872663Y-100338187D01*
X143723342Y-100430289D01*
X143599289Y-100554342D01*
X143507187Y-100703663D01*
X143507185Y-100703668D01*
X143505684Y-100708199D01*
X143452001Y-100870203D01*
X143452001Y-100870204D01*
X143452000Y-100870204D01*
X143441500Y-100972983D01*
X143441500Y-101094500D01*
X143421815Y-101161539D01*
X143369011Y-101207294D01*
X143317500Y-101218500D01*
X142243280Y-101218500D01*
X142176241Y-101198815D01*
X142130486Y-101146011D01*
X142120542Y-101076853D01*
X142149567Y-101013297D01*
X142155599Y-101006819D01*
X142518586Y-100643832D01*
X143689853Y-99472563D01*
X143751174Y-99439080D01*
X143820865Y-99444064D01*
X143842626Y-99454706D01*
X143847656Y-99457808D01*
X143847666Y-99457814D01*
X144014203Y-99512999D01*
X144116991Y-99523500D01*
X144892008Y-99523499D01*
X144892016Y-99523498D01*
X144892019Y-99523498D01*
X144948302Y-99517748D01*
X144994797Y-99512999D01*
X145161334Y-99457814D01*
X145310656Y-99365712D01*
X145434712Y-99241656D01*
X145436752Y-99238347D01*
X145438745Y-99236555D01*
X145439193Y-99235989D01*
X145439289Y-99236065D01*
X145488694Y-99191623D01*
X145557656Y-99180395D01*
X145621740Y-99208234D01*
X145647829Y-99238339D01*
X145649681Y-99241341D01*
X145649683Y-99241344D01*
X145773654Y-99365315D01*
X145922875Y-99457356D01*
X145922880Y-99457358D01*
X146089302Y-99512505D01*
X146089309Y-99512506D01*
X146192019Y-99522999D01*
X146329499Y-99522999D01*
X146329500Y-99522998D01*
X146329500Y-98548000D01*
X146829500Y-98548000D01*
X146829500Y-99522999D01*
X146966972Y-99522999D01*
X146966986Y-99522998D01*
X147069697Y-99512505D01*
X147236119Y-99457358D01*
X147236124Y-99457356D01*
X147385345Y-99365315D01*
X147509315Y-99241345D01*
X147601356Y-99092124D01*
X147601358Y-99092119D01*
X147656505Y-98925697D01*
X147656506Y-98925690D01*
X147666999Y-98822986D01*
X147667000Y-98822973D01*
X147667000Y-98548000D01*
X146829500Y-98548000D01*
X146329500Y-98548000D01*
X146329500Y-97073000D01*
X146829500Y-97073000D01*
X146829500Y-98048000D01*
X147666999Y-98048000D01*
X147666999Y-97773028D01*
X147666998Y-97773013D01*
X147656505Y-97670302D01*
X147601358Y-97503880D01*
X147601356Y-97503875D01*
X147509315Y-97354654D01*
X147385345Y-97230684D01*
X147236124Y-97138643D01*
X147236119Y-97138641D01*
X147069697Y-97083494D01*
X147069690Y-97083493D01*
X146966986Y-97073000D01*
X146829500Y-97073000D01*
X146329500Y-97073000D01*
X146192027Y-97073000D01*
X146192012Y-97073001D01*
X146089302Y-97083494D01*
X145922880Y-97138641D01*
X145922875Y-97138643D01*
X145773654Y-97230684D01*
X145649683Y-97354655D01*
X145649679Y-97354660D01*
X145647826Y-97357665D01*
X145646018Y-97359290D01*
X145645202Y-97360323D01*
X145645025Y-97360183D01*
X145595874Y-97404385D01*
X145526911Y-97415601D01*
X145462831Y-97387752D01*
X145436753Y-97357653D01*
X145436425Y-97357122D01*
X145434712Y-97354344D01*
X145310656Y-97230288D01*
X145217888Y-97173069D01*
X145161336Y-97138187D01*
X145161331Y-97138185D01*
X145146942Y-97133417D01*
X144994797Y-97083001D01*
X144994795Y-97083000D01*
X144892010Y-97072500D01*
X144116998Y-97072500D01*
X144116980Y-97072501D01*
X144014203Y-97083000D01*
X144014200Y-97083001D01*
X143847668Y-97138185D01*
X143847663Y-97138187D01*
X143698342Y-97230289D01*
X143574289Y-97354342D01*
X143482187Y-97503663D01*
X143482185Y-97503668D01*
X143454349Y-97587670D01*
X143427001Y-97670203D01*
X143427001Y-97670204D01*
X143427000Y-97670204D01*
X143416500Y-97772983D01*
X143416500Y-98823001D01*
X143416501Y-98823019D01*
X143427000Y-98925796D01*
X143428419Y-98932422D01*
X143425712Y-98933001D01*
X143427694Y-98990447D01*
X143395264Y-99047316D01*
X141143337Y-101299245D01*
X141071746Y-101370835D01*
X141071744Y-101370838D01*
X141065978Y-101384758D01*
X141039102Y-101424980D01*
X141008245Y-101455837D01*
X141008244Y-101455838D01*
X140638881Y-101825199D01*
X140577558Y-101858684D01*
X140507866Y-101853700D01*
X140492185Y-101846574D01*
X140339267Y-101763819D01*
X140304811Y-101745172D01*
X140304802Y-101745169D01*
X140069616Y-101664429D01*
X139824335Y-101623500D01*
X139575665Y-101623500D01*
X139330383Y-101664429D01*
X139095197Y-101745169D01*
X139095188Y-101745172D01*
X138876493Y-101863524D01*
X138680257Y-102016261D01*
X138511833Y-102199217D01*
X138375826Y-102407393D01*
X138275936Y-102635118D01*
X138214892Y-102876175D01*
X138214890Y-102876187D01*
X138194357Y-103123994D01*
X138194357Y-103124005D01*
X138214890Y-103371812D01*
X138214892Y-103371824D01*
X138275936Y-103612881D01*
X138375828Y-103840610D01*
X138418611Y-103906096D01*
X138438799Y-103972986D01*
X138419618Y-104040171D01*
X138402483Y-104061597D01*
X135857481Y-106606600D01*
X135796158Y-106640085D01*
X135726466Y-106635101D01*
X135682119Y-106606600D01*
X135642766Y-106567247D01*
X135609281Y-106505924D01*
X135606447Y-106479566D01*
X135606447Y-106407730D01*
X135606446Y-106407724D01*
X135605315Y-106397206D01*
X135600039Y-106348118D01*
X135573543Y-106277079D01*
X135549745Y-106213272D01*
X135549741Y-106213265D01*
X135463495Y-106098056D01*
X135463492Y-106098053D01*
X135348283Y-106011807D01*
X135348276Y-106011803D01*
X135213430Y-105961509D01*
X135213431Y-105961509D01*
X135153831Y-105955102D01*
X135153829Y-105955101D01*
X135153821Y-105955101D01*
X135153812Y-105955101D01*
X134107577Y-105955101D01*
X134107571Y-105955102D01*
X134047964Y-105961509D01*
X133913119Y-106011803D01*
X133913112Y-106011807D01*
X133797903Y-106098053D01*
X133797900Y-106098056D01*
X133711654Y-106213265D01*
X133711650Y-106213272D01*
X133661358Y-106348114D01*
X133661357Y-106348118D01*
X133654948Y-106407728D01*
X133654948Y-106407735D01*
X133654948Y-106407736D01*
X133654948Y-107062271D01*
X133654949Y-107062277D01*
X133661356Y-107121884D01*
X133711650Y-107256729D01*
X133711654Y-107256736D01*
X133797900Y-107371945D01*
X133797903Y-107371948D01*
X133913112Y-107458194D01*
X133913119Y-107458198D01*
X134047965Y-107508492D01*
X134047964Y-107508492D01*
X134054892Y-107509236D01*
X134107575Y-107514901D01*
X135153820Y-107514900D01*
X135213431Y-107508492D01*
X135348279Y-107458197D01*
X135463494Y-107371947D01*
X135490816Y-107335448D01*
X135546749Y-107293579D01*
X135616441Y-107288595D01*
X135677763Y-107322080D01*
X135726181Y-107370498D01*
X135759666Y-107431821D01*
X135762500Y-107458179D01*
X135762500Y-109684619D01*
X135742815Y-109751658D01*
X135726185Y-109772295D01*
X135679488Y-109818993D01*
X135666117Y-109832364D01*
X135604793Y-109865848D01*
X135535101Y-109860863D01*
X135479170Y-109818994D01*
X135463494Y-109798053D01*
X135429094Y-109772301D01*
X135348283Y-109711805D01*
X135348276Y-109711801D01*
X135213430Y-109661507D01*
X135213431Y-109661507D01*
X135153831Y-109655100D01*
X135153829Y-109655099D01*
X135153821Y-109655099D01*
X135153812Y-109655099D01*
X134107577Y-109655099D01*
X134107571Y-109655100D01*
X134047964Y-109661507D01*
X133913119Y-109711801D01*
X133913112Y-109711805D01*
X133797903Y-109798051D01*
X133797900Y-109798054D01*
X133711654Y-109913263D01*
X133711650Y-109913270D01*
X133661358Y-110048112D01*
X133661357Y-110048116D01*
X133654948Y-110107726D01*
X133654948Y-110107733D01*
X133654948Y-110107734D01*
X133654948Y-110762269D01*
X133654949Y-110762275D01*
X133661356Y-110821882D01*
X133711650Y-110956727D01*
X133711654Y-110956734D01*
X133797900Y-111071943D01*
X133797903Y-111071946D01*
X133913112Y-111158192D01*
X133913119Y-111158196D01*
X134047965Y-111208490D01*
X134047964Y-111208490D01*
X134054892Y-111209234D01*
X134107575Y-111214899D01*
X135153820Y-111214898D01*
X135213431Y-111208490D01*
X135348279Y-111158195D01*
X135463494Y-111071945D01*
X135549744Y-110956730D01*
X135600039Y-110821882D01*
X135606448Y-110762272D01*
X135606447Y-110663229D01*
X135626131Y-110596192D01*
X135642762Y-110575553D01*
X136143721Y-110074593D01*
X136143724Y-110074592D01*
X136161162Y-110057154D01*
X136161163Y-110057154D01*
X136232755Y-109985562D01*
X136232755Y-109985560D01*
X136232757Y-109985559D01*
X136252127Y-109938792D01*
X136271500Y-109892022D01*
X136271500Y-107391377D01*
X136271500Y-107366464D01*
X136271501Y-107366455D01*
X136271501Y-107240787D01*
X136271500Y-107240773D01*
X136271500Y-106963779D01*
X136291185Y-106896740D01*
X136307819Y-106876098D01*
X137416589Y-105767328D01*
X138761119Y-104422797D01*
X138822440Y-104389314D01*
X138892132Y-104394298D01*
X138907816Y-104401426D01*
X139095179Y-104502823D01*
X139095185Y-104502825D01*
X139095190Y-104502828D01*
X139330386Y-104583571D01*
X139575665Y-104624500D01*
X139824335Y-104624500D01*
X140069614Y-104583571D01*
X140304810Y-104502828D01*
X140523509Y-104384474D01*
X140719744Y-104231738D01*
X140888164Y-104048785D01*
X141024173Y-103840607D01*
X141124063Y-103612881D01*
X141185108Y-103371821D01*
X141205643Y-103124000D01*
X141190870Y-102945721D01*
X141185109Y-102876187D01*
X141185107Y-102876175D01*
X141124063Y-102635118D01*
X141024173Y-102407393D01*
X140981387Y-102341903D01*
X140961199Y-102275013D01*
X140980380Y-102207828D01*
X140997511Y-102186405D01*
X141350721Y-101833194D01*
X141350724Y-101833193D01*
X141368162Y-101815755D01*
X141368163Y-101815755D01*
X141420099Y-101763819D01*
X141481422Y-101730334D01*
X141507780Y-101727500D01*
X143317501Y-101727500D01*
X143384540Y-101747185D01*
X143430295Y-101799989D01*
X143441501Y-101851500D01*
X143441501Y-101973018D01*
X143452000Y-102075796D01*
X143452001Y-102075799D01*
X143492898Y-102199215D01*
X143507186Y-102242334D01*
X143599288Y-102391656D01*
X143723344Y-102515712D01*
X143872666Y-102607814D01*
X144039203Y-102662999D01*
X144141991Y-102673500D01*
X144237782Y-102673499D01*
X144304819Y-102693183D01*
X144350575Y-102745986D01*
X144360519Y-102815145D01*
X144331495Y-102878701D01*
X144299781Y-102904886D01*
X144229052Y-102945721D01*
X144229047Y-102945725D01*
X141172725Y-106002047D01*
X141172723Y-106002050D01*
X141122499Y-106089041D01*
X141119989Y-106098410D01*
X141096500Y-106186071D01*
X141096500Y-106186073D01*
X141096500Y-109264615D01*
X141076815Y-109331654D01*
X141060181Y-109352296D01*
X138308296Y-112104181D01*
X138246973Y-112137666D01*
X138220615Y-112140500D01*
X124796384Y-112140500D01*
X124729345Y-112120815D01*
X124708703Y-112104181D01*
X123424248Y-110819725D01*
X123424247Y-110819724D01*
X123337254Y-110769499D01*
X123337255Y-110769499D01*
X123310111Y-110762226D01*
X123240225Y-110743500D01*
X123240222Y-110743500D01*
X120986385Y-110743500D01*
X120919346Y-110723815D01*
X120898704Y-110707181D01*
X120876522Y-110684999D01*
X127294750Y-110684999D01*
X127294750Y-110762243D01*
X127301151Y-110821771D01*
X127301153Y-110821778D01*
X127351395Y-110956485D01*
X127351399Y-110956492D01*
X127437559Y-111071586D01*
X127437562Y-111071589D01*
X127552656Y-111157749D01*
X127552663Y-111157753D01*
X127687370Y-111207995D01*
X127687377Y-111207997D01*
X127746905Y-111214398D01*
X127746922Y-111214399D01*
X128020000Y-111214399D01*
X128020000Y-110684999D01*
X128520000Y-110684999D01*
X128520000Y-111214399D01*
X128793078Y-111214399D01*
X128793094Y-111214398D01*
X128852622Y-111207997D01*
X128852629Y-111207995D01*
X128987336Y-111157753D01*
X128987343Y-111157749D01*
X129102437Y-111071589D01*
X129102440Y-111071586D01*
X129188600Y-110956492D01*
X129188604Y-110956485D01*
X129238846Y-110821778D01*
X129238848Y-110821771D01*
X129245249Y-110762243D01*
X129245250Y-110762226D01*
X129245250Y-110684999D01*
X128520000Y-110684999D01*
X128020000Y-110684999D01*
X127294750Y-110684999D01*
X120876522Y-110684999D01*
X120376522Y-110184999D01*
X127294750Y-110184999D01*
X128020000Y-110184999D01*
X128020000Y-109655599D01*
X128520000Y-109655599D01*
X128520000Y-110184999D01*
X129245250Y-110184999D01*
X129245250Y-110107771D01*
X129245249Y-110107754D01*
X129238848Y-110048226D01*
X129238846Y-110048219D01*
X129188604Y-109913512D01*
X129188600Y-109913505D01*
X129102440Y-109798411D01*
X129102437Y-109798408D01*
X128987343Y-109712248D01*
X128987336Y-109712244D01*
X128852629Y-109662002D01*
X128852622Y-109662000D01*
X128793094Y-109655599D01*
X128520000Y-109655599D01*
X128020000Y-109655599D01*
X127746905Y-109655599D01*
X127687377Y-109662000D01*
X127687370Y-109662002D01*
X127552663Y-109712244D01*
X127552656Y-109712248D01*
X127437562Y-109798408D01*
X127437559Y-109798411D01*
X127351399Y-109913505D01*
X127351395Y-109913512D01*
X127301153Y-110048219D01*
X127301151Y-110048226D01*
X127294750Y-110107754D01*
X127294750Y-110184999D01*
X120376522Y-110184999D01*
X117227248Y-107035725D01*
X117227247Y-107035724D01*
X117204784Y-107022755D01*
X117204782Y-107022753D01*
X117140256Y-106985500D01*
X117140255Y-106985499D01*
X117138396Y-106985001D01*
X127294750Y-106985001D01*
X127294750Y-107062245D01*
X127301151Y-107121773D01*
X127301153Y-107121780D01*
X127351395Y-107256487D01*
X127351399Y-107256494D01*
X127437559Y-107371588D01*
X127437562Y-107371591D01*
X127552656Y-107457751D01*
X127552663Y-107457755D01*
X127687370Y-107507997D01*
X127687377Y-107507999D01*
X127746905Y-107514400D01*
X127746922Y-107514401D01*
X128020000Y-107514401D01*
X128020000Y-106985001D01*
X128520000Y-106985001D01*
X128520000Y-107514401D01*
X128793078Y-107514401D01*
X128793094Y-107514400D01*
X128852622Y-107507999D01*
X128852629Y-107507997D01*
X128987336Y-107457755D01*
X128987343Y-107457751D01*
X129102437Y-107371591D01*
X129102440Y-107371588D01*
X129188600Y-107256494D01*
X129188604Y-107256487D01*
X129238846Y-107121780D01*
X129238848Y-107121773D01*
X129245249Y-107062245D01*
X129245250Y-107062228D01*
X129245250Y-106985001D01*
X128520000Y-106985001D01*
X128020000Y-106985001D01*
X127294750Y-106985001D01*
X117138396Y-106985001D01*
X117115996Y-106978999D01*
X117043225Y-106959500D01*
X117043222Y-106959500D01*
X111518499Y-106959500D01*
X111451460Y-106939815D01*
X111405705Y-106887011D01*
X111394499Y-106835500D01*
X111394499Y-106793129D01*
X111394498Y-106793123D01*
X111394497Y-106793116D01*
X111388091Y-106733517D01*
X111351384Y-106635101D01*
X111337797Y-106598671D01*
X111337793Y-106598664D01*
X111252704Y-106485001D01*
X127294750Y-106485001D01*
X128020000Y-106485001D01*
X128020000Y-105955601D01*
X128520000Y-105955601D01*
X128520000Y-106485001D01*
X129245250Y-106485001D01*
X129245250Y-106407773D01*
X129245249Y-106407756D01*
X129238848Y-106348228D01*
X129238846Y-106348221D01*
X129188604Y-106213514D01*
X129188600Y-106213507D01*
X129102440Y-106098413D01*
X129102437Y-106098410D01*
X128987343Y-106012250D01*
X128987336Y-106012246D01*
X128852629Y-105962004D01*
X128852622Y-105962002D01*
X128793094Y-105955601D01*
X128520000Y-105955601D01*
X128020000Y-105955601D01*
X127746905Y-105955601D01*
X127687377Y-105962002D01*
X127687370Y-105962004D01*
X127552663Y-106012246D01*
X127552656Y-106012250D01*
X127437562Y-106098410D01*
X127437559Y-106098413D01*
X127351399Y-106213507D01*
X127351395Y-106213514D01*
X127301153Y-106348221D01*
X127301151Y-106348228D01*
X127294750Y-106407756D01*
X127294750Y-106485001D01*
X111252704Y-106485001D01*
X111251547Y-106483455D01*
X111251544Y-106483452D01*
X111136335Y-106397206D01*
X111136328Y-106397202D01*
X111001482Y-106346908D01*
X111001483Y-106346908D01*
X110941883Y-106340501D01*
X110941881Y-106340500D01*
X110941873Y-106340500D01*
X110941864Y-106340500D01*
X107346129Y-106340500D01*
X107346123Y-106340501D01*
X107286516Y-106346908D01*
X107151671Y-106397202D01*
X107151664Y-106397206D01*
X107036455Y-106483452D01*
X107036452Y-106483455D01*
X106950206Y-106598664D01*
X106950202Y-106598671D01*
X106899908Y-106733517D01*
X106893501Y-106793116D01*
X106893501Y-106793123D01*
X106893500Y-106793135D01*
X106893500Y-107888870D01*
X101600000Y-107888870D01*
X101600000Y-106344118D01*
X101619685Y-106277079D01*
X101672489Y-106231324D01*
X101741647Y-106221380D01*
X101767333Y-106227936D01*
X101786517Y-106235091D01*
X101786516Y-106235091D01*
X101793444Y-106235835D01*
X101846127Y-106241500D01*
X105341872Y-106241499D01*
X105401483Y-106235091D01*
X105536331Y-106184796D01*
X105651546Y-106098546D01*
X105737796Y-105983331D01*
X105788091Y-105848483D01*
X105794500Y-105788873D01*
X105794499Y-104193128D01*
X105788091Y-104133517D01*
X105753275Y-104040171D01*
X105737797Y-103998671D01*
X105737793Y-103998664D01*
X105651547Y-103883455D01*
X105651544Y-103883452D01*
X105536335Y-103797206D01*
X105536328Y-103797202D01*
X105401482Y-103746908D01*
X105401483Y-103746908D01*
X105341883Y-103740501D01*
X105341881Y-103740500D01*
X105341873Y-103740500D01*
X105341864Y-103740500D01*
X101846129Y-103740500D01*
X101846123Y-103740501D01*
X101786513Y-103746909D01*
X101767329Y-103754064D01*
X101697638Y-103759046D01*
X101636316Y-103725559D01*
X101602833Y-103664235D01*
X101600000Y-103637881D01*
X101600000Y-102452860D01*
X104132500Y-102452860D01*
X104132501Y-102452866D01*
X104138908Y-102512473D01*
X104189202Y-102647318D01*
X104189206Y-102647325D01*
X104275452Y-102762534D01*
X104275455Y-102762537D01*
X104390664Y-102848783D01*
X104390671Y-102848787D01*
X104525517Y-102899081D01*
X104525516Y-102899081D01*
X104532444Y-102899825D01*
X104585127Y-102905490D01*
X105980872Y-102905489D01*
X106040483Y-102899081D01*
X106175331Y-102848786D01*
X106290546Y-102762536D01*
X106376796Y-102647321D01*
X106427091Y-102512473D01*
X106433500Y-102452863D01*
X106433499Y-100357118D01*
X106427091Y-100297507D01*
X106421680Y-100283000D01*
X106376797Y-100162661D01*
X106376793Y-100162654D01*
X106290547Y-100047445D01*
X106290544Y-100047442D01*
X106175335Y-99961196D01*
X106175328Y-99961192D01*
X106040482Y-99910898D01*
X106040483Y-99910898D01*
X105980883Y-99904491D01*
X105980881Y-99904490D01*
X105980873Y-99904490D01*
X105980864Y-99904490D01*
X104585129Y-99904490D01*
X104585123Y-99904491D01*
X104525516Y-99910898D01*
X104390671Y-99961192D01*
X104390664Y-99961196D01*
X104275455Y-100047442D01*
X104275452Y-100047445D01*
X104189206Y-100162654D01*
X104189202Y-100162661D01*
X104138908Y-100297507D01*
X104134535Y-100338185D01*
X104132501Y-100357113D01*
X104132500Y-100357125D01*
X104132500Y-102452860D01*
X101600000Y-102452860D01*
X101600000Y-98852865D01*
X106982499Y-98852865D01*
X106982500Y-98852871D01*
X106988907Y-98912478D01*
X107039201Y-99047323D01*
X107039205Y-99047330D01*
X107125451Y-99162539D01*
X107125454Y-99162542D01*
X107240663Y-99248788D01*
X107240670Y-99248792D01*
X107375516Y-99299086D01*
X107375515Y-99299086D01*
X107382443Y-99299830D01*
X107435126Y-99305495D01*
X108530871Y-99305494D01*
X108590482Y-99299086D01*
X108725330Y-99248791D01*
X108840545Y-99162541D01*
X108926795Y-99047326D01*
X108946970Y-98993234D01*
X108966765Y-98940162D01*
X109008636Y-98884228D01*
X109074100Y-98859811D01*
X109082947Y-98859495D01*
X109878215Y-98859495D01*
X109945254Y-98879180D01*
X109965896Y-98895814D01*
X115298839Y-104228757D01*
X115371182Y-104258721D01*
X115392377Y-104267500D01*
X116276070Y-104267500D01*
X116343109Y-104287185D01*
X116388864Y-104339989D01*
X116396276Y-104361060D01*
X116431936Y-104501881D01*
X116531826Y-104729606D01*
X116667833Y-104937782D01*
X116667836Y-104937785D01*
X116836256Y-105120738D01*
X117032491Y-105273474D01*
X117251190Y-105391828D01*
X117486386Y-105472571D01*
X117731665Y-105513500D01*
X117980335Y-105513500D01*
X118225614Y-105472571D01*
X118460810Y-105391828D01*
X118679509Y-105273474D01*
X118875744Y-105120738D01*
X119044164Y-104937785D01*
X119180173Y-104729607D01*
X119280063Y-104501881D01*
X119341108Y-104260821D01*
X119346717Y-104193128D01*
X119361643Y-104013005D01*
X119361643Y-104012994D01*
X119341109Y-103765187D01*
X119341107Y-103765175D01*
X119280063Y-103524118D01*
X119180173Y-103296393D01*
X119044166Y-103088217D01*
X119022557Y-103064744D01*
X118875744Y-102905262D01*
X118679509Y-102752526D01*
X118679507Y-102752525D01*
X118679506Y-102752524D01*
X118460811Y-102634172D01*
X118460802Y-102634169D01*
X118225616Y-102553429D01*
X118191935Y-102547809D01*
X118129050Y-102517359D01*
X118092610Y-102457744D01*
X118094185Y-102387892D01*
X118133274Y-102329981D01*
X118191935Y-102303191D01*
X118195638Y-102302572D01*
X118225614Y-102297571D01*
X118460810Y-102216828D01*
X118679509Y-102098474D01*
X118875744Y-101945738D01*
X119044164Y-101762785D01*
X119180173Y-101554607D01*
X119280063Y-101326881D01*
X119341108Y-101085821D01*
X119341109Y-101085812D01*
X119361643Y-100838005D01*
X119361643Y-100837994D01*
X119350788Y-100707000D01*
X127294750Y-100707000D01*
X127294750Y-100784244D01*
X127301151Y-100843772D01*
X127301153Y-100843779D01*
X127351395Y-100978486D01*
X127351399Y-100978493D01*
X127437559Y-101093587D01*
X127437562Y-101093590D01*
X127552656Y-101179750D01*
X127552663Y-101179754D01*
X127687370Y-101229996D01*
X127687377Y-101229998D01*
X127746905Y-101236399D01*
X127746922Y-101236400D01*
X128020000Y-101236400D01*
X128020000Y-100707000D01*
X128520000Y-100707000D01*
X128520000Y-101236400D01*
X128793078Y-101236400D01*
X128793094Y-101236399D01*
X128852622Y-101229998D01*
X128852629Y-101229996D01*
X128987336Y-101179754D01*
X128987343Y-101179750D01*
X129102437Y-101093590D01*
X129102440Y-101093587D01*
X129188600Y-100978493D01*
X129188604Y-100978486D01*
X129238846Y-100843779D01*
X129238848Y-100843772D01*
X129245249Y-100784244D01*
X129245250Y-100784227D01*
X129245250Y-100707000D01*
X128520000Y-100707000D01*
X128020000Y-100707000D01*
X127294750Y-100707000D01*
X119350788Y-100707000D01*
X119341109Y-100590187D01*
X119341107Y-100590175D01*
X119280063Y-100349118D01*
X119217724Y-100207000D01*
X127294750Y-100207000D01*
X128020000Y-100207000D01*
X128020000Y-99677600D01*
X128520000Y-99677600D01*
X128520000Y-100207000D01*
X129245250Y-100207000D01*
X129245250Y-100129772D01*
X129245249Y-100129755D01*
X129238848Y-100070227D01*
X129238846Y-100070220D01*
X129188604Y-99935513D01*
X129188600Y-99935506D01*
X129102440Y-99820412D01*
X129102437Y-99820409D01*
X128987343Y-99734249D01*
X128987336Y-99734245D01*
X128852629Y-99684003D01*
X128852622Y-99684001D01*
X128793094Y-99677600D01*
X128520000Y-99677600D01*
X128020000Y-99677600D01*
X127746905Y-99677600D01*
X127687377Y-99684001D01*
X127687370Y-99684003D01*
X127552663Y-99734245D01*
X127552656Y-99734249D01*
X127437562Y-99820409D01*
X127437559Y-99820412D01*
X127351399Y-99935506D01*
X127351395Y-99935513D01*
X127301153Y-100070220D01*
X127301151Y-100070227D01*
X127294750Y-100129755D01*
X127294750Y-100207000D01*
X119217724Y-100207000D01*
X119180173Y-100121393D01*
X119044166Y-99913217D01*
X119006796Y-99872623D01*
X118875744Y-99730262D01*
X118679509Y-99577526D01*
X118679507Y-99577525D01*
X118679506Y-99577524D01*
X118460811Y-99459172D01*
X118460802Y-99459169D01*
X118225616Y-99378429D01*
X118191935Y-99372809D01*
X118129050Y-99342359D01*
X118092610Y-99282744D01*
X118094185Y-99212892D01*
X118133274Y-99154981D01*
X118191935Y-99128191D01*
X118195638Y-99127572D01*
X118225614Y-99122571D01*
X118460810Y-99041828D01*
X118679509Y-98923474D01*
X118875744Y-98770738D01*
X119044164Y-98587785D01*
X119180173Y-98379607D01*
X119280063Y-98151881D01*
X119341108Y-97910821D01*
X119341109Y-97910812D01*
X119361643Y-97663005D01*
X119361643Y-97662994D01*
X119341109Y-97415187D01*
X119341107Y-97415175D01*
X119280063Y-97174118D01*
X119206759Y-97007002D01*
X127294750Y-97007002D01*
X127294750Y-97084246D01*
X127301151Y-97143774D01*
X127301153Y-97143781D01*
X127351395Y-97278488D01*
X127351399Y-97278495D01*
X127437559Y-97393589D01*
X127437562Y-97393592D01*
X127552656Y-97479752D01*
X127552663Y-97479756D01*
X127687370Y-97529998D01*
X127687377Y-97530000D01*
X127746905Y-97536401D01*
X127746922Y-97536402D01*
X128020000Y-97536402D01*
X128020000Y-97007002D01*
X128520000Y-97007002D01*
X128520000Y-97536402D01*
X128793078Y-97536402D01*
X128793094Y-97536401D01*
X128852622Y-97530000D01*
X128852629Y-97529998D01*
X128987336Y-97479756D01*
X128987343Y-97479752D01*
X129102437Y-97393592D01*
X129102440Y-97393589D01*
X129188600Y-97278495D01*
X129188604Y-97278488D01*
X129238846Y-97143781D01*
X129238848Y-97143774D01*
X129245249Y-97084246D01*
X129245250Y-97084229D01*
X129245250Y-97007002D01*
X128520000Y-97007002D01*
X128020000Y-97007002D01*
X127294750Y-97007002D01*
X119206759Y-97007002D01*
X119180173Y-96946393D01*
X119044166Y-96738217D01*
X119015797Y-96707400D01*
X118875744Y-96555262D01*
X118813740Y-96507002D01*
X127294750Y-96507002D01*
X128020000Y-96507002D01*
X128020000Y-95977602D01*
X128520000Y-95977602D01*
X128520000Y-96507002D01*
X129245250Y-96507002D01*
X129245250Y-96429774D01*
X129245249Y-96429757D01*
X129238848Y-96370229D01*
X129238846Y-96370222D01*
X129188604Y-96235515D01*
X129188600Y-96235508D01*
X129102440Y-96120414D01*
X129102437Y-96120411D01*
X128987343Y-96034251D01*
X128987336Y-96034247D01*
X128852629Y-95984005D01*
X128852622Y-95984003D01*
X128793094Y-95977602D01*
X128520000Y-95977602D01*
X128020000Y-95977602D01*
X127746905Y-95977602D01*
X127687377Y-95984003D01*
X127687370Y-95984005D01*
X127552663Y-96034247D01*
X127552656Y-96034251D01*
X127437562Y-96120411D01*
X127437559Y-96120414D01*
X127351399Y-96235508D01*
X127351395Y-96235515D01*
X127301153Y-96370222D01*
X127301151Y-96370229D01*
X127294750Y-96429757D01*
X127294750Y-96507002D01*
X118813740Y-96507002D01*
X118679509Y-96402526D01*
X118679507Y-96402525D01*
X118679506Y-96402524D01*
X118460811Y-96284172D01*
X118460802Y-96284169D01*
X118225616Y-96203429D01*
X118191935Y-96197809D01*
X118129050Y-96167359D01*
X118092610Y-96107744D01*
X118094185Y-96037892D01*
X118133274Y-95979981D01*
X118191935Y-95953191D01*
X118195638Y-95952572D01*
X118225614Y-95947571D01*
X118460810Y-95866828D01*
X118679509Y-95748474D01*
X118875744Y-95595738D01*
X119044164Y-95412785D01*
X119180173Y-95204607D01*
X119280063Y-94976881D01*
X119341108Y-94735821D01*
X119344293Y-94697385D01*
X119361643Y-94488005D01*
X119361643Y-94487994D01*
X119341109Y-94240187D01*
X119341107Y-94240175D01*
X119280063Y-93999118D01*
X119180173Y-93771393D01*
X119044166Y-93563217D01*
X119022557Y-93539744D01*
X118875744Y-93380262D01*
X118679509Y-93227526D01*
X118679507Y-93227525D01*
X118679506Y-93227524D01*
X118460811Y-93109172D01*
X118460802Y-93109169D01*
X118379567Y-93081281D01*
X118322552Y-93040896D01*
X118296421Y-92976096D01*
X118309472Y-92907456D01*
X118357561Y-92856769D01*
X118379567Y-92846719D01*
X118397034Y-92840722D01*
X118460810Y-92818828D01*
X118679509Y-92700474D01*
X118875744Y-92547738D01*
X119044164Y-92364785D01*
X119180173Y-92156607D01*
X119280063Y-91928881D01*
X119341108Y-91687821D01*
X119350607Y-91573187D01*
X119361643Y-91440005D01*
X119361643Y-91439994D01*
X119341109Y-91192187D01*
X119341107Y-91192175D01*
X119280063Y-90951118D01*
X119180173Y-90723393D01*
X119044166Y-90515217D01*
X118994089Y-90460819D01*
X118875744Y-90332262D01*
X118679509Y-90179526D01*
X118679507Y-90179525D01*
X118679506Y-90179524D01*
X118460811Y-90061172D01*
X118460802Y-90061169D01*
X118225616Y-89980429D01*
X118191935Y-89974809D01*
X118129050Y-89944359D01*
X118092610Y-89884744D01*
X118094185Y-89814892D01*
X118133274Y-89756981D01*
X118191935Y-89730191D01*
X118195638Y-89729572D01*
X118225614Y-89724571D01*
X118460810Y-89643828D01*
X118679509Y-89525474D01*
X118875744Y-89372738D01*
X119044164Y-89189785D01*
X119180173Y-88981607D01*
X119280063Y-88753881D01*
X119341108Y-88512821D01*
X119348164Y-88427673D01*
X119361643Y-88265005D01*
X119361643Y-88264994D01*
X119341109Y-88017187D01*
X119341107Y-88017175D01*
X119280063Y-87776118D01*
X119180173Y-87548393D01*
X119044166Y-87340217D01*
X119022557Y-87316744D01*
X118875744Y-87157262D01*
X118679509Y-87004526D01*
X118679507Y-87004525D01*
X118679506Y-87004524D01*
X118460811Y-86886172D01*
X118460802Y-86886169D01*
X118225616Y-86805429D01*
X117980335Y-86764500D01*
X117731665Y-86764500D01*
X117486383Y-86805429D01*
X117251197Y-86886169D01*
X117251188Y-86886172D01*
X117032493Y-87004524D01*
X116836257Y-87157261D01*
X116667833Y-87340217D01*
X116531826Y-87548393D01*
X116431936Y-87776118D01*
X116396276Y-87916940D01*
X116360736Y-87977096D01*
X116298316Y-88008488D01*
X116276070Y-88010500D01*
X115392377Y-88010500D01*
X115392375Y-88010500D01*
X115392373Y-88010501D01*
X115298839Y-88049242D01*
X115298837Y-88049244D01*
X110033906Y-93314176D01*
X109972583Y-93347661D01*
X109946225Y-93350495D01*
X109082947Y-93350495D01*
X109015908Y-93330810D01*
X108970153Y-93278006D01*
X108966765Y-93269828D01*
X108926796Y-93162666D01*
X108926792Y-93162659D01*
X108840546Y-93047450D01*
X108840543Y-93047447D01*
X108725334Y-92961201D01*
X108725327Y-92961197D01*
X108590481Y-92910903D01*
X108590482Y-92910903D01*
X108530882Y-92904496D01*
X108530880Y-92904495D01*
X108530872Y-92904495D01*
X108530863Y-92904495D01*
X107435128Y-92904495D01*
X107435122Y-92904496D01*
X107375515Y-92910903D01*
X107240670Y-92961197D01*
X107240663Y-92961201D01*
X107125454Y-93047447D01*
X107125451Y-93047450D01*
X107039205Y-93162659D01*
X107039201Y-93162666D01*
X106988909Y-93297508D01*
X106988908Y-93297512D01*
X106982499Y-93357122D01*
X106982499Y-93357129D01*
X106982499Y-93357130D01*
X106982499Y-93852865D01*
X106982500Y-93852871D01*
X106988907Y-93912478D01*
X107042302Y-94055636D01*
X107040574Y-94056280D01*
X107053094Y-94113848D01*
X107041309Y-94153983D01*
X107042302Y-94154354D01*
X106990200Y-94294049D01*
X106988908Y-94297512D01*
X106982499Y-94357122D01*
X106982499Y-94357129D01*
X106982499Y-94357130D01*
X106982499Y-94852865D01*
X106982500Y-94852871D01*
X106988907Y-94912478D01*
X107042302Y-95055636D01*
X107040574Y-95056280D01*
X107053094Y-95113848D01*
X107041310Y-95153985D01*
X107042302Y-95154355D01*
X107023560Y-95204607D01*
X106988908Y-95297513D01*
X106982499Y-95357123D01*
X106982499Y-95357130D01*
X106982499Y-95357131D01*
X106982499Y-95852866D01*
X106982500Y-95852872D01*
X106988907Y-95912479D01*
X107042302Y-96055637D01*
X107040574Y-96056281D01*
X107053092Y-96113855D01*
X107041309Y-96153982D01*
X107042302Y-96154353D01*
X107012034Y-96235508D01*
X106988908Y-96297511D01*
X106982499Y-96357121D01*
X106982499Y-96357128D01*
X106982499Y-96357129D01*
X106982499Y-96852864D01*
X106982500Y-96852870D01*
X106988907Y-96912477D01*
X107042302Y-97055635D01*
X107040574Y-97056279D01*
X107053094Y-97113847D01*
X107041310Y-97153984D01*
X107042302Y-97154354D01*
X106989477Y-97295987D01*
X106988908Y-97297512D01*
X106982499Y-97357122D01*
X106982499Y-97357129D01*
X106982499Y-97357130D01*
X106982499Y-97852865D01*
X106982500Y-97852871D01*
X106988907Y-97912478D01*
X107042302Y-98055636D01*
X107040574Y-98056280D01*
X107053094Y-98113848D01*
X107041309Y-98153983D01*
X107042302Y-98154354D01*
X106992131Y-98288872D01*
X106988908Y-98297512D01*
X106982499Y-98357122D01*
X106982499Y-98357129D01*
X106982499Y-98357130D01*
X106982499Y-98852865D01*
X101600000Y-98852865D01*
X101600000Y-91852870D01*
X104132500Y-91852870D01*
X104132501Y-91852876D01*
X104138908Y-91912483D01*
X104189202Y-92047328D01*
X104189206Y-92047335D01*
X104275452Y-92162544D01*
X104275455Y-92162547D01*
X104390664Y-92248793D01*
X104390671Y-92248797D01*
X104525517Y-92299091D01*
X104525516Y-92299091D01*
X104532444Y-92299835D01*
X104585127Y-92305500D01*
X105980872Y-92305499D01*
X106040483Y-92299091D01*
X106175331Y-92248796D01*
X106290546Y-92162546D01*
X106376796Y-92047331D01*
X106427091Y-91912483D01*
X106433500Y-91852873D01*
X106433499Y-89757128D01*
X106427091Y-89697517D01*
X106416147Y-89668175D01*
X106376797Y-89562671D01*
X106376793Y-89562664D01*
X106290547Y-89447455D01*
X106290544Y-89447452D01*
X106175335Y-89361206D01*
X106175328Y-89361202D01*
X106040482Y-89310908D01*
X106040483Y-89310908D01*
X105980883Y-89304501D01*
X105980881Y-89304500D01*
X105980873Y-89304500D01*
X105980864Y-89304500D01*
X104585129Y-89304500D01*
X104585123Y-89304501D01*
X104525516Y-89310908D01*
X104390671Y-89361202D01*
X104390664Y-89361206D01*
X104275455Y-89447452D01*
X104275452Y-89447455D01*
X104189206Y-89562664D01*
X104189202Y-89562671D01*
X104138908Y-89697517D01*
X104132516Y-89756981D01*
X104132501Y-89757123D01*
X104132500Y-89757135D01*
X104132500Y-91852870D01*
X101600000Y-91852870D01*
X101600000Y-84954004D01*
X103990500Y-84954004D01*
X103990501Y-84954020D01*
X104020777Y-85183993D01*
X104021307Y-85188014D01*
X104027396Y-85210738D01*
X104082394Y-85415993D01*
X104172714Y-85634045D01*
X104172719Y-85634056D01*
X104215044Y-85707364D01*
X104290727Y-85838450D01*
X104290729Y-85838453D01*
X104290730Y-85838454D01*
X104434406Y-86025697D01*
X104434412Y-86025704D01*
X104601295Y-86192587D01*
X104601302Y-86192593D01*
X104677493Y-86251056D01*
X104788550Y-86336273D01*
X104911273Y-86407127D01*
X104992943Y-86454280D01*
X104992948Y-86454282D01*
X104992951Y-86454284D01*
X105211007Y-86544606D01*
X105438986Y-86605693D01*
X105672989Y-86636500D01*
X105672996Y-86636500D01*
X105909004Y-86636500D01*
X105909011Y-86636500D01*
X106143014Y-86605693D01*
X106370993Y-86544606D01*
X106589049Y-86454284D01*
X106793450Y-86336273D01*
X106980699Y-86192592D01*
X107147592Y-86025699D01*
X107291273Y-85838450D01*
X107409284Y-85634049D01*
X107499606Y-85415993D01*
X107560693Y-85188014D01*
X107590316Y-84963005D01*
X113048859Y-84963005D01*
X113069385Y-85210729D01*
X113069387Y-85210738D01*
X113130412Y-85451717D01*
X113230266Y-85679364D01*
X113330564Y-85832882D01*
X114071037Y-85092409D01*
X114088075Y-85155993D01*
X114153901Y-85270007D01*
X114246993Y-85363099D01*
X114361007Y-85428925D01*
X114424590Y-85445962D01*
X113683942Y-86186609D01*
X113730768Y-86223055D01*
X113730770Y-86223056D01*
X113949385Y-86341364D01*
X113949396Y-86341369D01*
X114184506Y-86422083D01*
X114429707Y-86463000D01*
X114678293Y-86463000D01*
X114923493Y-86422083D01*
X115158603Y-86341369D01*
X115158614Y-86341364D01*
X115377228Y-86223057D01*
X115377231Y-86223055D01*
X115424056Y-86186609D01*
X114683409Y-85445962D01*
X114746993Y-85428925D01*
X114861007Y-85363099D01*
X114954099Y-85270007D01*
X115019925Y-85155993D01*
X115036962Y-85092410D01*
X115777434Y-85832882D01*
X115877731Y-85679369D01*
X115977587Y-85451717D01*
X116038612Y-85210738D01*
X116038614Y-85210729D01*
X116056821Y-84991005D01*
X116350859Y-84991005D01*
X116371385Y-85238729D01*
X116371387Y-85238738D01*
X116432412Y-85479717D01*
X116532266Y-85707364D01*
X116632564Y-85860882D01*
X117373037Y-85120409D01*
X117390075Y-85183993D01*
X117455901Y-85298007D01*
X117548993Y-85391099D01*
X117663007Y-85456925D01*
X117726590Y-85473962D01*
X116985942Y-86214609D01*
X117032768Y-86251055D01*
X117032770Y-86251056D01*
X117251385Y-86369364D01*
X117251396Y-86369369D01*
X117486506Y-86450083D01*
X117731707Y-86491000D01*
X117980293Y-86491000D01*
X118225493Y-86450083D01*
X118460603Y-86369369D01*
X118460614Y-86369364D01*
X118679228Y-86251057D01*
X118679231Y-86251055D01*
X118726056Y-86214609D01*
X117985409Y-85473962D01*
X118048993Y-85456925D01*
X118163007Y-85391099D01*
X118256099Y-85298007D01*
X118321925Y-85183993D01*
X118338962Y-85120410D01*
X119079434Y-85860882D01*
X119179731Y-85707369D01*
X119279587Y-85479717D01*
X119340612Y-85238738D01*
X119340614Y-85238729D01*
X119361141Y-84991005D01*
X119361141Y-84990994D01*
X119358822Y-84963005D01*
X119652859Y-84963005D01*
X119673385Y-85210729D01*
X119673387Y-85210738D01*
X119734412Y-85451717D01*
X119834266Y-85679364D01*
X119934564Y-85832882D01*
X120675037Y-85092409D01*
X120692075Y-85155993D01*
X120757901Y-85270007D01*
X120850993Y-85363099D01*
X120965007Y-85428925D01*
X121028590Y-85445962D01*
X120287942Y-86186609D01*
X120334768Y-86223055D01*
X120334770Y-86223056D01*
X120553385Y-86341364D01*
X120553396Y-86341369D01*
X120788506Y-86422083D01*
X121033707Y-86463000D01*
X121282293Y-86463000D01*
X121527493Y-86422083D01*
X121762603Y-86341369D01*
X121762614Y-86341364D01*
X121981228Y-86223057D01*
X121981231Y-86223055D01*
X122028056Y-86186609D01*
X121287409Y-85445962D01*
X121350993Y-85428925D01*
X121465007Y-85363099D01*
X121558099Y-85270007D01*
X121623925Y-85155993D01*
X121640962Y-85092410D01*
X122381434Y-85832882D01*
X122481731Y-85679369D01*
X122581587Y-85451717D01*
X122642612Y-85210738D01*
X122642614Y-85210729D01*
X122663141Y-84963005D01*
X122954859Y-84963005D01*
X122975385Y-85210729D01*
X122975387Y-85210738D01*
X123036412Y-85451717D01*
X123136266Y-85679364D01*
X123236564Y-85832882D01*
X123977037Y-85092409D01*
X123994075Y-85155993D01*
X124059901Y-85270007D01*
X124152993Y-85363099D01*
X124267007Y-85428925D01*
X124330590Y-85445962D01*
X123589942Y-86186609D01*
X123636768Y-86223055D01*
X123636770Y-86223056D01*
X123855385Y-86341364D01*
X123855396Y-86341369D01*
X124090506Y-86422083D01*
X124335707Y-86463000D01*
X124584293Y-86463000D01*
X124829493Y-86422083D01*
X125064603Y-86341369D01*
X125064614Y-86341364D01*
X125283228Y-86223057D01*
X125283231Y-86223055D01*
X125330056Y-86186609D01*
X124589409Y-85445962D01*
X124652993Y-85428925D01*
X124767007Y-85363099D01*
X124860099Y-85270007D01*
X124925925Y-85155993D01*
X124942962Y-85092410D01*
X125683434Y-85832882D01*
X125783731Y-85679369D01*
X125883081Y-85452870D01*
X127076500Y-85452870D01*
X127076501Y-85452876D01*
X127082908Y-85512483D01*
X127133202Y-85647328D01*
X127133206Y-85647335D01*
X127219452Y-85762544D01*
X127219455Y-85762547D01*
X127334664Y-85848793D01*
X127334671Y-85848797D01*
X127367073Y-85860882D01*
X127469517Y-85899091D01*
X127529127Y-85905500D01*
X127529153Y-85905499D01*
X127532453Y-85905678D01*
X127532349Y-85907610D01*
X127592149Y-85924659D01*
X127638318Y-85977101D01*
X127648806Y-86046179D01*
X127642116Y-86072830D01*
X127632908Y-86097517D01*
X127626501Y-86157116D01*
X127626501Y-86157123D01*
X127626500Y-86157135D01*
X127626500Y-87852870D01*
X127626501Y-87852876D01*
X127632908Y-87912483D01*
X127683202Y-88047328D01*
X127683206Y-88047335D01*
X127769452Y-88162544D01*
X127769455Y-88162547D01*
X127884664Y-88248793D01*
X127884671Y-88248797D01*
X128019517Y-88299091D01*
X128019516Y-88299091D01*
X128026444Y-88299835D01*
X128079127Y-88305500D01*
X130274872Y-88305499D01*
X130334483Y-88299091D01*
X130459384Y-88252505D01*
X130529073Y-88247522D01*
X130546049Y-88252506D01*
X130669623Y-88298597D01*
X130669627Y-88298598D01*
X130729155Y-88304999D01*
X130729172Y-88305000D01*
X130777000Y-88305000D01*
X130777000Y-88144435D01*
X130796685Y-88077396D01*
X130849489Y-88031641D01*
X130918647Y-88021697D01*
X130982203Y-88050722D01*
X131000266Y-88070123D01*
X131069454Y-88162546D01*
X131127311Y-88205858D01*
X131169182Y-88261789D01*
X131176972Y-88304972D01*
X131177000Y-88305000D01*
X131224828Y-88305000D01*
X131224839Y-88304999D01*
X131286395Y-88298380D01*
X131312909Y-88298380D01*
X131319514Y-88299090D01*
X131319517Y-88299091D01*
X131379127Y-88305500D01*
X131874872Y-88305499D01*
X131885241Y-88304384D01*
X131953999Y-88316786D01*
X132005139Y-88364394D01*
X132022500Y-88427673D01*
X132022500Y-90197219D01*
X132002815Y-90264258D01*
X131986181Y-90284900D01*
X131748881Y-90522199D01*
X131687558Y-90555684D01*
X131617866Y-90550700D01*
X131602185Y-90543574D01*
X131504519Y-90490720D01*
X131414811Y-90442172D01*
X131414802Y-90442169D01*
X131179616Y-90361429D01*
X130934335Y-90320500D01*
X130685665Y-90320500D01*
X130440383Y-90361429D01*
X130205197Y-90442169D01*
X130205188Y-90442172D01*
X129986493Y-90560524D01*
X129790257Y-90713261D01*
X129621833Y-90896217D01*
X129485826Y-91104393D01*
X129385936Y-91332118D01*
X129324892Y-91573175D01*
X129324890Y-91573187D01*
X129304357Y-91820994D01*
X129304357Y-91821005D01*
X129324890Y-92068812D01*
X129324892Y-92068824D01*
X129385936Y-92309881D01*
X129485826Y-92537606D01*
X129621833Y-92745782D01*
X129621836Y-92745785D01*
X129790256Y-92928738D01*
X129986491Y-93081474D01*
X130205190Y-93199828D01*
X130440386Y-93280571D01*
X130685665Y-93321500D01*
X130934335Y-93321500D01*
X131179614Y-93280571D01*
X131414810Y-93199828D01*
X131633509Y-93081474D01*
X131829744Y-92928738D01*
X131998164Y-92745785D01*
X132134173Y-92537607D01*
X132234063Y-92309881D01*
X132271373Y-92162547D01*
X132277294Y-92139167D01*
X132312834Y-92079011D01*
X132375254Y-92047619D01*
X132444738Y-92054957D01*
X132499223Y-92098696D01*
X132517706Y-92139167D01*
X132560936Y-92309881D01*
X132660826Y-92537606D01*
X132796833Y-92745782D01*
X132796836Y-92745785D01*
X132965256Y-92928738D01*
X133161491Y-93081474D01*
X133380190Y-93199828D01*
X133615386Y-93280571D01*
X133860665Y-93321500D01*
X134109335Y-93321500D01*
X134354614Y-93280571D01*
X134589810Y-93199828D01*
X134808509Y-93081474D01*
X135004744Y-92928738D01*
X135173164Y-92745785D01*
X135309173Y-92537607D01*
X135409063Y-92309881D01*
X135470108Y-92068821D01*
X135470109Y-92068812D01*
X135490643Y-91821005D01*
X135490643Y-91820994D01*
X135470109Y-91573187D01*
X135470107Y-91573175D01*
X135409063Y-91332118D01*
X135309173Y-91104393D01*
X135173166Y-90896217D01*
X135117394Y-90835633D01*
X135004744Y-90713262D01*
X134808509Y-90560526D01*
X134808507Y-90560525D01*
X134808506Y-90560524D01*
X134589811Y-90442172D01*
X134589802Y-90442169D01*
X134354616Y-90361429D01*
X134109335Y-90320500D01*
X133860665Y-90320500D01*
X133615382Y-90361429D01*
X133615380Y-90361429D01*
X133428758Y-90425497D01*
X133358960Y-90428647D01*
X133300815Y-90395897D01*
X133217819Y-90312901D01*
X133184334Y-90251578D01*
X133181500Y-90225220D01*
X133181500Y-88427673D01*
X133201185Y-88360634D01*
X133253989Y-88314879D01*
X133318756Y-88304385D01*
X133329127Y-88305500D01*
X133824872Y-88305499D01*
X133884483Y-88299091D01*
X134008668Y-88252772D01*
X134078357Y-88247788D01*
X134095324Y-88252770D01*
X134171626Y-88281228D01*
X134219513Y-88299090D01*
X134219516Y-88299091D01*
X134226444Y-88299835D01*
X134279127Y-88305500D01*
X136474872Y-88305499D01*
X136534483Y-88299091D01*
X136669331Y-88248796D01*
X136784546Y-88162546D01*
X136870796Y-88047331D01*
X136921091Y-87912483D01*
X136927500Y-87852873D01*
X136927499Y-86157128D01*
X136921091Y-86097517D01*
X136911883Y-86072831D01*
X136906900Y-86003141D01*
X136940384Y-85941818D01*
X137001707Y-85908333D01*
X137021591Y-85906195D01*
X137021576Y-85905900D01*
X137021571Y-85905854D01*
X137021573Y-85905853D01*
X137021564Y-85905676D01*
X137024857Y-85905499D01*
X137024872Y-85905499D01*
X137084483Y-85899091D01*
X137219331Y-85848796D01*
X137334546Y-85762546D01*
X137420796Y-85647331D01*
X137471091Y-85512483D01*
X137477500Y-85452873D01*
X137477500Y-84954004D01*
X151361500Y-84954004D01*
X151361501Y-84954020D01*
X151391777Y-85183993D01*
X151392307Y-85188014D01*
X151398396Y-85210738D01*
X151453394Y-85415993D01*
X151543714Y-85634045D01*
X151543719Y-85634056D01*
X151586044Y-85707364D01*
X151661727Y-85838450D01*
X151661729Y-85838453D01*
X151661730Y-85838454D01*
X151805406Y-86025697D01*
X151805412Y-86025704D01*
X151972295Y-86192587D01*
X151972302Y-86192593D01*
X152048493Y-86251056D01*
X152159550Y-86336273D01*
X152282273Y-86407127D01*
X152363943Y-86454280D01*
X152363948Y-86454282D01*
X152363951Y-86454284D01*
X152582007Y-86544606D01*
X152809986Y-86605693D01*
X153043989Y-86636500D01*
X153043996Y-86636500D01*
X153280004Y-86636500D01*
X153280011Y-86636500D01*
X153514014Y-86605693D01*
X153741993Y-86544606D01*
X153960049Y-86454284D01*
X154164450Y-86336273D01*
X154351699Y-86192592D01*
X154518592Y-86025699D01*
X154662273Y-85838450D01*
X154780284Y-85634049D01*
X154870606Y-85415993D01*
X154931693Y-85188014D01*
X154962500Y-84954011D01*
X154962500Y-84717989D01*
X154931693Y-84483986D01*
X154870606Y-84256007D01*
X154780284Y-84037951D01*
X154780282Y-84037948D01*
X154780280Y-84037943D01*
X154738118Y-83964918D01*
X154662273Y-83833550D01*
X154583540Y-83730943D01*
X154518593Y-83646302D01*
X154518587Y-83646295D01*
X154351704Y-83479412D01*
X154351697Y-83479406D01*
X154164454Y-83335730D01*
X154164453Y-83335729D01*
X154164450Y-83335727D01*
X154082957Y-83288677D01*
X153960056Y-83217719D01*
X153960045Y-83217714D01*
X153741993Y-83127394D01*
X153514010Y-83066306D01*
X153280020Y-83035501D01*
X153280017Y-83035500D01*
X153280011Y-83035500D01*
X153043989Y-83035500D01*
X153043983Y-83035500D01*
X153043979Y-83035501D01*
X152809989Y-83066306D01*
X152582006Y-83127394D01*
X152363954Y-83217714D01*
X152363943Y-83217719D01*
X152159545Y-83335730D01*
X151972302Y-83479406D01*
X151972295Y-83479412D01*
X151805412Y-83646295D01*
X151805406Y-83646302D01*
X151661730Y-83833545D01*
X151543719Y-84037943D01*
X151543714Y-84037954D01*
X151453394Y-84256006D01*
X151392306Y-84483989D01*
X151361501Y-84717979D01*
X151361500Y-84717995D01*
X151361500Y-84954004D01*
X137477500Y-84954004D01*
X137477499Y-83457128D01*
X137471091Y-83397517D01*
X137420796Y-83262669D01*
X137420795Y-83262668D01*
X137420793Y-83262664D01*
X137334547Y-83147455D01*
X137334544Y-83147452D01*
X137219335Y-83061206D01*
X137219328Y-83061202D01*
X137084482Y-83010908D01*
X137084483Y-83010908D01*
X137024883Y-83004501D01*
X137024881Y-83004500D01*
X137024873Y-83004500D01*
X137024864Y-83004500D01*
X135129129Y-83004500D01*
X135129123Y-83004501D01*
X135069516Y-83010908D01*
X134934671Y-83061202D01*
X134934669Y-83061203D01*
X134876311Y-83104891D01*
X134810847Y-83129308D01*
X134742574Y-83114457D01*
X134727689Y-83104891D01*
X134669330Y-83061203D01*
X134669328Y-83061202D01*
X134534482Y-83010908D01*
X134534483Y-83010908D01*
X134474883Y-83004501D01*
X134474881Y-83004500D01*
X134474873Y-83004500D01*
X134474864Y-83004500D01*
X132479129Y-83004500D01*
X132479123Y-83004501D01*
X132419515Y-83010909D01*
X132320332Y-83047901D01*
X132250640Y-83052885D01*
X132233668Y-83047901D01*
X132134485Y-83010909D01*
X132134483Y-83010908D01*
X132074883Y-83004501D01*
X132074881Y-83004500D01*
X132074873Y-83004500D01*
X132074864Y-83004500D01*
X130079129Y-83004500D01*
X130079123Y-83004501D01*
X130019516Y-83010908D01*
X129884671Y-83061202D01*
X129884669Y-83061203D01*
X129826311Y-83104891D01*
X129760847Y-83129308D01*
X129692574Y-83114457D01*
X129677689Y-83104891D01*
X129619330Y-83061203D01*
X129619328Y-83061202D01*
X129484482Y-83010908D01*
X129484483Y-83010908D01*
X129424883Y-83004501D01*
X129424881Y-83004500D01*
X129424873Y-83004500D01*
X129424864Y-83004500D01*
X127529129Y-83004500D01*
X127529123Y-83004501D01*
X127469516Y-83010908D01*
X127334671Y-83061202D01*
X127334664Y-83061206D01*
X127219455Y-83147452D01*
X127219452Y-83147455D01*
X127133206Y-83262664D01*
X127133202Y-83262671D01*
X127082908Y-83397517D01*
X127076501Y-83457116D01*
X127076501Y-83457123D01*
X127076500Y-83457135D01*
X127076500Y-85452870D01*
X125883081Y-85452870D01*
X125883587Y-85451717D01*
X125944612Y-85210738D01*
X125944614Y-85210729D01*
X125965141Y-84963005D01*
X125965141Y-84962994D01*
X125944614Y-84715270D01*
X125944612Y-84715261D01*
X125883587Y-84474282D01*
X125783731Y-84246630D01*
X125683434Y-84093116D01*
X124942962Y-84833589D01*
X124925925Y-84770007D01*
X124860099Y-84655993D01*
X124767007Y-84562901D01*
X124652993Y-84497075D01*
X124589410Y-84480037D01*
X125330057Y-83739390D01*
X125330056Y-83739389D01*
X125283229Y-83702943D01*
X125064614Y-83584635D01*
X125064603Y-83584630D01*
X124829493Y-83503916D01*
X124584293Y-83463000D01*
X124335707Y-83463000D01*
X124090506Y-83503916D01*
X123855396Y-83584630D01*
X123855390Y-83584632D01*
X123636761Y-83702949D01*
X123589942Y-83739388D01*
X123589942Y-83739390D01*
X124330590Y-84480037D01*
X124267007Y-84497075D01*
X124152993Y-84562901D01*
X124059901Y-84655993D01*
X123994075Y-84770007D01*
X123977037Y-84833589D01*
X123236564Y-84093116D01*
X123136267Y-84246632D01*
X123036412Y-84474282D01*
X122975387Y-84715261D01*
X122975385Y-84715270D01*
X122954859Y-84962994D01*
X122954859Y-84963005D01*
X122663141Y-84963005D01*
X122663141Y-84962994D01*
X122642614Y-84715270D01*
X122642612Y-84715261D01*
X122581587Y-84474282D01*
X122481731Y-84246630D01*
X122381434Y-84093116D01*
X121640962Y-84833589D01*
X121623925Y-84770007D01*
X121558099Y-84655993D01*
X121465007Y-84562901D01*
X121350993Y-84497075D01*
X121287410Y-84480037D01*
X122028057Y-83739390D01*
X122028056Y-83739389D01*
X121981229Y-83702943D01*
X121762614Y-83584635D01*
X121762603Y-83584630D01*
X121527493Y-83503916D01*
X121282293Y-83463000D01*
X121033707Y-83463000D01*
X120788506Y-83503916D01*
X120553396Y-83584630D01*
X120553390Y-83584632D01*
X120334761Y-83702949D01*
X120287942Y-83739388D01*
X120287942Y-83739390D01*
X121028590Y-84480037D01*
X120965007Y-84497075D01*
X120850993Y-84562901D01*
X120757901Y-84655993D01*
X120692075Y-84770007D01*
X120675037Y-84833589D01*
X119934564Y-84093116D01*
X119834267Y-84246632D01*
X119734412Y-84474282D01*
X119673387Y-84715261D01*
X119673385Y-84715270D01*
X119652859Y-84962994D01*
X119652859Y-84963005D01*
X119358822Y-84963005D01*
X119340614Y-84743270D01*
X119340612Y-84743261D01*
X119279587Y-84502282D01*
X119179731Y-84274630D01*
X119079434Y-84121116D01*
X118338962Y-84861589D01*
X118321925Y-84798007D01*
X118256099Y-84683993D01*
X118163007Y-84590901D01*
X118048993Y-84525075D01*
X117985410Y-84508037D01*
X118726057Y-83767390D01*
X118726056Y-83767389D01*
X118679229Y-83730943D01*
X118460614Y-83612635D01*
X118460603Y-83612630D01*
X118225493Y-83531916D01*
X117980293Y-83491000D01*
X117731707Y-83491000D01*
X117486506Y-83531916D01*
X117251396Y-83612630D01*
X117251390Y-83612632D01*
X117032761Y-83730949D01*
X116985942Y-83767388D01*
X116985942Y-83767390D01*
X117726590Y-84508037D01*
X117663007Y-84525075D01*
X117548993Y-84590901D01*
X117455901Y-84683993D01*
X117390075Y-84798007D01*
X117373037Y-84861589D01*
X116632564Y-84121116D01*
X116532267Y-84274632D01*
X116432412Y-84502282D01*
X116371387Y-84743261D01*
X116371385Y-84743270D01*
X116350859Y-84990994D01*
X116350859Y-84991005D01*
X116056821Y-84991005D01*
X116059141Y-84963005D01*
X116059141Y-84962994D01*
X116038614Y-84715270D01*
X116038612Y-84715261D01*
X115977587Y-84474282D01*
X115877731Y-84246630D01*
X115777434Y-84093116D01*
X115036962Y-84833589D01*
X115019925Y-84770007D01*
X114954099Y-84655993D01*
X114861007Y-84562901D01*
X114746993Y-84497075D01*
X114683410Y-84480037D01*
X115424057Y-83739390D01*
X115424056Y-83739389D01*
X115377229Y-83702943D01*
X115158614Y-83584635D01*
X115158603Y-83584630D01*
X114923493Y-83503916D01*
X114678293Y-83463000D01*
X114429707Y-83463000D01*
X114184506Y-83503916D01*
X113949396Y-83584630D01*
X113949390Y-83584632D01*
X113730761Y-83702949D01*
X113683942Y-83739388D01*
X113683942Y-83739390D01*
X114424590Y-84480037D01*
X114361007Y-84497075D01*
X114246993Y-84562901D01*
X114153901Y-84655993D01*
X114088075Y-84770007D01*
X114071037Y-84833589D01*
X113330564Y-84093116D01*
X113230267Y-84246632D01*
X113130412Y-84474282D01*
X113069387Y-84715261D01*
X113069385Y-84715270D01*
X113048859Y-84962994D01*
X113048859Y-84963005D01*
X107590316Y-84963005D01*
X107591500Y-84954011D01*
X107591500Y-84717989D01*
X107560693Y-84483986D01*
X107499606Y-84256007D01*
X107409284Y-84037951D01*
X107409282Y-84037948D01*
X107409280Y-84037943D01*
X107367118Y-83964918D01*
X107291273Y-83833550D01*
X107212540Y-83730943D01*
X107147593Y-83646302D01*
X107147587Y-83646295D01*
X106980704Y-83479412D01*
X106980697Y-83479406D01*
X106793454Y-83335730D01*
X106793453Y-83335729D01*
X106793450Y-83335727D01*
X106711957Y-83288677D01*
X106589056Y-83217719D01*
X106589045Y-83217714D01*
X106370993Y-83127394D01*
X106143010Y-83066306D01*
X105909020Y-83035501D01*
X105909017Y-83035500D01*
X105909011Y-83035500D01*
X105672989Y-83035500D01*
X105672983Y-83035500D01*
X105672979Y-83035501D01*
X105438989Y-83066306D01*
X105211006Y-83127394D01*
X104992954Y-83217714D01*
X104992943Y-83217719D01*
X104788545Y-83335730D01*
X104601302Y-83479406D01*
X104601295Y-83479412D01*
X104434412Y-83646295D01*
X104434406Y-83646302D01*
X104290730Y-83833545D01*
X104172719Y-84037943D01*
X104172714Y-84037954D01*
X104082394Y-84256006D01*
X104021306Y-84483989D01*
X103990501Y-84717979D01*
X103990500Y-84717995D01*
X103990500Y-84954004D01*
X101600000Y-84954004D01*
X101600000Y-82234000D01*
X101619685Y-82166961D01*
X101672489Y-82121206D01*
X101724000Y-82110000D01*
X157229000Y-82110000D01*
X157296039Y-82129685D01*
G37*
G04 #@! TD.AperFunction*
M02*
