G04 #@! TF.GenerationSoftware,KiCad,Pcbnew,8.0.0*
G04 #@! TF.CreationDate,2024-03-03T20:56:18-06:00*
G04 #@! TF.ProjectId,Haptic Feeback board,48617074-6963-4204-9665-656261636b20,rev?*
G04 #@! TF.SameCoordinates,Original*
G04 #@! TF.FileFunction,Copper,L1,Top*
G04 #@! TF.FilePolarity,Positive*
%FSLAX46Y46*%
G04 Gerber Fmt 4.6, Leading zero omitted, Abs format (unit mm)*
G04 Created by KiCad (PCBNEW 8.0.0) date 2024-03-03 20:56:18*
%MOMM*%
%LPD*%
G01*
G04 APERTURE LIST*
G04 Aperture macros list*
%AMRoundRect*
0 Rectangle with rounded corners*
0 $1 Rounding radius*
0 $2 $3 $4 $5 $6 $7 $8 $9 X,Y pos of 4 corners*
0 Add a 4 corners polygon primitive as box body*
4,1,4,$2,$3,$4,$5,$6,$7,$8,$9,$2,$3,0*
0 Add four circle primitives for the rounded corners*
1,1,$1+$1,$2,$3*
1,1,$1+$1,$4,$5*
1,1,$1+$1,$6,$7*
1,1,$1+$1,$8,$9*
0 Add four rect primitives between the rounded corners*
20,1,$1+$1,$2,$3,$4,$5,0*
20,1,$1+$1,$4,$5,$6,$7,0*
20,1,$1+$1,$6,$7,$8,$9,0*
20,1,$1+$1,$8,$9,$2,$3,0*%
G04 Aperture macros list end*
G04 #@! TA.AperFunction,SMDPad,CuDef*
%ADD10R,0.950500X0.558800*%
G04 #@! TD*
G04 #@! TA.AperFunction,SMDPad,CuDef*
%ADD11RoundRect,0.250000X-0.337500X-0.475000X0.337500X-0.475000X0.337500X0.475000X-0.337500X0.475000X0*%
G04 #@! TD*
G04 #@! TA.AperFunction,ComponentPad*
%ADD12RoundRect,0.250000X-0.620000X-0.845000X0.620000X-0.845000X0.620000X0.845000X-0.620000X0.845000X0*%
G04 #@! TD*
G04 #@! TA.AperFunction,ComponentPad*
%ADD13O,1.740000X2.190000*%
G04 #@! TD*
G04 #@! TA.AperFunction,SMDPad,CuDef*
%ADD14R,1.000000X3.500000*%
G04 #@! TD*
G04 #@! TA.AperFunction,SMDPad,CuDef*
%ADD15R,1.500000X3.400000*%
G04 #@! TD*
G04 #@! TA.AperFunction,SMDPad,CuDef*
%ADD16RoundRect,0.150000X-0.587500X-0.150000X0.587500X-0.150000X0.587500X0.150000X-0.587500X0.150000X0*%
G04 #@! TD*
G04 #@! TA.AperFunction,SMDPad,CuDef*
%ADD17RoundRect,0.250000X-0.350000X-0.450000X0.350000X-0.450000X0.350000X0.450000X-0.350000X0.450000X0*%
G04 #@! TD*
G04 #@! TA.AperFunction,ViaPad*
%ADD18C,0.800000*%
G04 #@! TD*
G04 #@! TA.AperFunction,Conductor*
%ADD19C,0.254000*%
G04 #@! TD*
G04 #@! TA.AperFunction,Conductor*
%ADD20C,0.508000*%
G04 #@! TD*
G04 #@! TA.AperFunction,Conductor*
%ADD21C,0.250000*%
G04 #@! TD*
G04 APERTURE END LIST*
D10*
G04 #@! TO.P,SW1,1,1*
G04 #@! TO.N,/BMS Power*
X127878302Y-92667602D03*
G04 #@! TO.P,SW1,2,2*
X127878302Y-96367600D03*
G04 #@! TO.P,SW1,3,3*
G04 #@! TO.N,Net-(C1-Pad1)*
X134239000Y-96367600D03*
G04 #@! TO.P,SW1,4,4*
X134239000Y-92667602D03*
G04 #@! TD*
D11*
G04 #@! TO.P,C1,1*
G04 #@! TO.N,Net-(C1-Pad1)*
X137290900Y-97713800D03*
G04 #@! TO.P,C1,2*
G04 #@! TO.N,GND*
X139365900Y-97713800D03*
G04 #@! TD*
D12*
G04 #@! TO.P,J2,1,Pin_1*
G04 #@! TO.N,/MCU*
X140995400Y-87497600D03*
D13*
G04 #@! TO.P,J2,2,Pin_2*
G04 #@! TO.N,/GPIO*
X143535400Y-87497600D03*
G04 #@! TD*
D14*
G04 #@! TO.P,J1,1,1*
G04 #@! TO.N,/BMS Power*
X132747000Y-100685600D03*
G04 #@! TO.P,J1,2,2*
G04 #@! TO.N,GND*
X134747000Y-100685600D03*
D15*
G04 #@! TO.P,J1,3*
G04 #@! TO.N,N/C*
X130397000Y-106235600D03*
G04 #@! TO.P,J1,4*
X137097000Y-106235600D03*
G04 #@! TD*
D12*
G04 #@! TO.P,M2,1,Pin_1*
G04 #@! TO.N,/Motor1*
X149148800Y-102438200D03*
D13*
G04 #@! TO.P,M2,2,Pin_2*
G04 #@! TO.N,GND*
X151688800Y-102438200D03*
G04 #@! TD*
D12*
G04 #@! TO.P,M1,1,Pin_1*
G04 #@! TO.N,/Motor1*
X142544800Y-102432800D03*
D13*
G04 #@! TO.P,M1,2,Pin_2*
G04 #@! TO.N,GND*
X145084800Y-102432800D03*
G04 #@! TD*
D16*
G04 #@! TO.P,Q1,1,G*
G04 #@! TO.N,/GPIO*
X143565400Y-94147600D03*
G04 #@! TO.P,Q1,2,S*
G04 #@! TO.N,/Motor1*
X143565400Y-96047600D03*
G04 #@! TO.P,Q1,3,D*
G04 #@! TO.N,/BMS Power*
X145440400Y-95097600D03*
G04 #@! TD*
D17*
G04 #@! TO.P,R1,1*
G04 #@! TO.N,Net-(C1-Pad1)*
X137242800Y-92735400D03*
G04 #@! TO.P,R1,2*
G04 #@! TO.N,/MCU*
X139242800Y-92735400D03*
G04 #@! TD*
D18*
G04 #@! TO.N,GND*
X132500000Y-88000000D03*
X140500000Y-107500000D03*
X141000000Y-95000000D03*
X152000000Y-88000000D03*
G04 #@! TD*
D19*
G04 #@! TO.N,Net-(C1-Pad1)*
X134239000Y-96367600D02*
X135944700Y-96367600D01*
X134239000Y-96367600D02*
X134239000Y-92667602D01*
X135944700Y-96367600D02*
X137290900Y-97713800D01*
X137242800Y-92735400D02*
X134306798Y-92735400D01*
X134306798Y-92735400D02*
X134239000Y-92667602D01*
D20*
G04 #@! TO.N,/BMS Power*
X130314400Y-100685600D02*
X128500000Y-102500000D01*
X132747000Y-100685600D02*
X132196302Y-100685600D01*
X128500000Y-102500000D02*
X128500000Y-109000000D01*
X150597600Y-95097600D02*
X145440400Y-95097600D01*
X132747000Y-100685600D02*
X130314400Y-100685600D01*
D21*
X127878302Y-96367600D02*
X128429000Y-96367600D01*
D20*
X128500000Y-109000000D02*
X130500000Y-111000000D01*
X155000000Y-99500000D02*
X150597600Y-95097600D01*
X150000000Y-111000000D02*
X155000000Y-106000000D01*
D21*
X127878302Y-96367600D02*
X127878302Y-92667602D01*
D20*
X130500000Y-111000000D02*
X150000000Y-111000000D01*
X132196302Y-100685600D02*
X127878302Y-96367600D01*
X155000000Y-106000000D02*
X155000000Y-99500000D01*
D21*
G04 #@! TO.N,/GPIO*
X143565400Y-87527600D02*
X143535400Y-87497600D01*
X143535400Y-94117600D02*
X143565400Y-94147600D01*
X143565400Y-94147600D02*
X143565400Y-87527600D01*
D20*
G04 #@! TO.N,/Motor1*
X149148800Y-102438200D02*
X147914800Y-102438200D01*
X142544800Y-97068200D02*
X142544800Y-102432800D01*
X143565400Y-96047600D02*
X142544800Y-97068200D01*
X147914800Y-102438200D02*
X142544800Y-97068200D01*
D19*
G04 #@! TO.N,/MCU*
X139242800Y-92735400D02*
X139242800Y-89250200D01*
X139242800Y-89250200D02*
X140995400Y-87497600D01*
G04 #@! TD*
G04 #@! TA.AperFunction,Conductor*
G04 #@! TO.N,GND*
G36*
X143131503Y-98194872D02*
G01*
X143137981Y-98200904D01*
X145637360Y-100700283D01*
X145670845Y-100761606D01*
X145665861Y-100831298D01*
X145623989Y-100887231D01*
X145558525Y-100911648D01*
X145511361Y-100905895D01*
X145405605Y-100871533D01*
X145334800Y-100860318D01*
X145334800Y-101890090D01*
X145314461Y-101878348D01*
X145163133Y-101837800D01*
X145006467Y-101837800D01*
X144855139Y-101878348D01*
X144834800Y-101890090D01*
X144834800Y-100860318D01*
X144834799Y-100860318D01*
X144763994Y-100871533D01*
X144558900Y-100938172D01*
X144366763Y-101036071D01*
X144192306Y-101162822D01*
X144050220Y-101304908D01*
X143988897Y-101338392D01*
X143919205Y-101333408D01*
X143863272Y-101291536D01*
X143850156Y-101269628D01*
X143849616Y-101268470D01*
X143849612Y-101268463D01*
X143757512Y-101119144D01*
X143633456Y-100995088D01*
X143537010Y-100935600D01*
X143484136Y-100902987D01*
X143484131Y-100902985D01*
X143482662Y-100902498D01*
X143317597Y-100847801D01*
X143317595Y-100847800D01*
X143214816Y-100837300D01*
X143214809Y-100837300D01*
X143050300Y-100837300D01*
X142983261Y-100817615D01*
X142937506Y-100764811D01*
X142926300Y-100713300D01*
X142926300Y-98288585D01*
X142945985Y-98221546D01*
X142998789Y-98175791D01*
X143067947Y-98165847D01*
X143131503Y-98194872D01*
G37*
G04 #@! TD.AperFunction*
G04 #@! TA.AperFunction,Conductor*
G36*
X164142539Y-77320185D02*
G01*
X164188294Y-77372989D01*
X164199500Y-77424500D01*
X164199500Y-117575500D01*
X164179815Y-117642539D01*
X164127011Y-117688294D01*
X164075500Y-117699500D01*
X118924500Y-117699500D01*
X118857461Y-117679815D01*
X118811706Y-117627011D01*
X118800500Y-117575500D01*
X118800500Y-112118004D01*
X123699500Y-112118004D01*
X123699501Y-112118020D01*
X123730306Y-112352010D01*
X123791394Y-112579993D01*
X123881714Y-112798045D01*
X123881719Y-112798056D01*
X123952677Y-112920957D01*
X123999727Y-113002450D01*
X123999729Y-113002453D01*
X123999730Y-113002454D01*
X124143406Y-113189697D01*
X124143412Y-113189704D01*
X124310295Y-113356587D01*
X124310301Y-113356592D01*
X124497550Y-113500273D01*
X124628918Y-113576118D01*
X124701943Y-113618280D01*
X124701948Y-113618282D01*
X124701951Y-113618284D01*
X124920007Y-113708606D01*
X125147986Y-113769693D01*
X125381989Y-113800500D01*
X125381996Y-113800500D01*
X125618004Y-113800500D01*
X125618011Y-113800500D01*
X125852014Y-113769693D01*
X126079993Y-113708606D01*
X126298049Y-113618284D01*
X126502450Y-113500273D01*
X126689699Y-113356592D01*
X126856592Y-113189699D01*
X127000273Y-113002450D01*
X127118284Y-112798049D01*
X127208606Y-112579993D01*
X127269693Y-112352014D01*
X127300500Y-112118011D01*
X127300500Y-112118004D01*
X154699500Y-112118004D01*
X154699501Y-112118020D01*
X154730306Y-112352010D01*
X154791394Y-112579993D01*
X154881714Y-112798045D01*
X154881719Y-112798056D01*
X154952677Y-112920957D01*
X154999727Y-113002450D01*
X154999729Y-113002453D01*
X154999730Y-113002454D01*
X155143406Y-113189697D01*
X155143412Y-113189704D01*
X155310295Y-113356587D01*
X155310301Y-113356592D01*
X155497550Y-113500273D01*
X155628918Y-113576118D01*
X155701943Y-113618280D01*
X155701948Y-113618282D01*
X155701951Y-113618284D01*
X155920007Y-113708606D01*
X156147986Y-113769693D01*
X156381989Y-113800500D01*
X156381996Y-113800500D01*
X156618004Y-113800500D01*
X156618011Y-113800500D01*
X156852014Y-113769693D01*
X157079993Y-113708606D01*
X157298049Y-113618284D01*
X157502450Y-113500273D01*
X157689699Y-113356592D01*
X157856592Y-113189699D01*
X158000273Y-113002450D01*
X158118284Y-112798049D01*
X158208606Y-112579993D01*
X158269693Y-112352014D01*
X158300500Y-112118011D01*
X158300500Y-111881989D01*
X158269693Y-111647986D01*
X158208606Y-111420007D01*
X158118284Y-111201951D01*
X158118282Y-111201948D01*
X158118280Y-111201943D01*
X158076118Y-111128918D01*
X158000273Y-110997550D01*
X157856592Y-110810301D01*
X157856587Y-110810295D01*
X157689704Y-110643412D01*
X157689697Y-110643406D01*
X157502454Y-110499730D01*
X157502453Y-110499729D01*
X157502450Y-110499727D01*
X157420957Y-110452677D01*
X157298056Y-110381719D01*
X157298045Y-110381714D01*
X157079993Y-110291394D01*
X156852010Y-110230306D01*
X156618020Y-110199501D01*
X156618017Y-110199500D01*
X156618011Y-110199500D01*
X156381989Y-110199500D01*
X156381983Y-110199500D01*
X156381979Y-110199501D01*
X156147989Y-110230306D01*
X155920006Y-110291394D01*
X155701954Y-110381714D01*
X155701943Y-110381719D01*
X155497545Y-110499730D01*
X155310302Y-110643406D01*
X155310295Y-110643412D01*
X155143412Y-110810295D01*
X155143406Y-110810302D01*
X154999730Y-110997545D01*
X154881719Y-111201943D01*
X154881714Y-111201954D01*
X154791394Y-111420006D01*
X154730306Y-111647989D01*
X154699501Y-111881979D01*
X154699500Y-111881995D01*
X154699500Y-112118004D01*
X127300500Y-112118004D01*
X127300500Y-111881989D01*
X127269693Y-111647986D01*
X127208606Y-111420007D01*
X127118284Y-111201951D01*
X127118282Y-111201948D01*
X127118280Y-111201943D01*
X127076118Y-111128918D01*
X127000273Y-110997550D01*
X126856592Y-110810301D01*
X126856587Y-110810295D01*
X126689704Y-110643412D01*
X126689697Y-110643406D01*
X126502454Y-110499730D01*
X126502453Y-110499729D01*
X126502450Y-110499727D01*
X126420957Y-110452677D01*
X126298056Y-110381719D01*
X126298045Y-110381714D01*
X126079993Y-110291394D01*
X125852010Y-110230306D01*
X125618020Y-110199501D01*
X125618017Y-110199500D01*
X125618011Y-110199500D01*
X125381989Y-110199500D01*
X125381983Y-110199500D01*
X125381979Y-110199501D01*
X125147989Y-110230306D01*
X124920006Y-110291394D01*
X124701954Y-110381714D01*
X124701943Y-110381719D01*
X124497545Y-110499730D01*
X124310302Y-110643406D01*
X124310295Y-110643412D01*
X124143412Y-110810295D01*
X124143406Y-110810302D01*
X123999730Y-110997545D01*
X123881719Y-111201943D01*
X123881714Y-111201954D01*
X123791394Y-111420006D01*
X123730306Y-111647989D01*
X123699501Y-111881979D01*
X123699500Y-111881995D01*
X123699500Y-112118004D01*
X118800500Y-112118004D01*
X118800500Y-96694870D01*
X126902552Y-96694870D01*
X126902553Y-96694876D01*
X126908960Y-96754483D01*
X126959254Y-96889328D01*
X126959258Y-96889335D01*
X127045504Y-97004544D01*
X127045507Y-97004547D01*
X127160716Y-97090793D01*
X127160723Y-97090797D01*
X127205670Y-97107561D01*
X127295569Y-97141091D01*
X127355179Y-97147500D01*
X128067316Y-97147499D01*
X128134355Y-97167183D01*
X128154997Y-97183818D01*
X131063598Y-100092419D01*
X131097083Y-100153742D01*
X131092099Y-100223434D01*
X131050227Y-100279367D01*
X130984763Y-100303784D01*
X130975917Y-100304100D01*
X130264175Y-100304100D01*
X130191403Y-100323599D01*
X130167145Y-100330099D01*
X130080154Y-100380323D01*
X130080151Y-100380325D01*
X128194725Y-102265751D01*
X128194723Y-102265754D01*
X128144499Y-102352745D01*
X128144499Y-102352746D01*
X128118500Y-102449775D01*
X128118500Y-109050225D01*
X128144499Y-109147254D01*
X128194724Y-109234247D01*
X130194724Y-111234247D01*
X130265753Y-111305276D01*
X130352746Y-111355501D01*
X130449775Y-111381500D01*
X130449778Y-111381500D01*
X150050222Y-111381500D01*
X150050225Y-111381500D01*
X150147254Y-111355501D01*
X150234247Y-111305276D01*
X150305276Y-111234247D01*
X155305276Y-106234247D01*
X155355502Y-106147253D01*
X155381501Y-106050225D01*
X155381501Y-105949775D01*
X155381501Y-105942180D01*
X155381500Y-105942162D01*
X155381500Y-99560227D01*
X155381501Y-99560214D01*
X155381501Y-99449777D01*
X155381501Y-99449775D01*
X155355502Y-99352747D01*
X155305276Y-99265753D01*
X150831847Y-94792324D01*
X150744854Y-94742099D01*
X150744855Y-94742099D01*
X150720596Y-94735599D01*
X150647825Y-94716100D01*
X150647822Y-94716100D01*
X146717462Y-94716100D01*
X146650423Y-94696415D01*
X146610730Y-94655220D01*
X146545985Y-94545740D01*
X146545976Y-94545729D01*
X146429770Y-94429523D01*
X146429762Y-94429517D01*
X146288296Y-94345855D01*
X146288293Y-94345854D01*
X146130473Y-94300002D01*
X146130467Y-94300001D01*
X146093601Y-94297100D01*
X146093594Y-94297100D01*
X144927400Y-94297100D01*
X144860361Y-94277415D01*
X144814606Y-94224611D01*
X144803400Y-94173100D01*
X144803400Y-93931913D01*
X144803399Y-93931898D01*
X144800498Y-93895032D01*
X144800497Y-93895026D01*
X144754645Y-93737206D01*
X144754644Y-93737203D01*
X144754644Y-93737202D01*
X144670981Y-93595735D01*
X144670979Y-93595733D01*
X144670976Y-93595729D01*
X144554770Y-93479523D01*
X144554762Y-93479517D01*
X144413296Y-93395855D01*
X144413293Y-93395854D01*
X144255473Y-93350002D01*
X144255467Y-93350001D01*
X144218601Y-93347100D01*
X144218594Y-93347100D01*
X143941900Y-93347100D01*
X143874861Y-93327415D01*
X143829106Y-93274611D01*
X143817900Y-93223100D01*
X143817900Y-89161930D01*
X143837585Y-89094891D01*
X143890389Y-89049136D01*
X143903574Y-89044001D01*
X144061489Y-88992692D01*
X144253699Y-88894757D01*
X144428221Y-88767959D01*
X144580759Y-88615421D01*
X144707557Y-88440899D01*
X144805492Y-88248689D01*
X144872154Y-88043526D01*
X144887152Y-87948830D01*
X144905900Y-87830466D01*
X144905900Y-87164733D01*
X144872154Y-86951677D01*
X144872154Y-86951674D01*
X144805492Y-86746511D01*
X144707557Y-86554301D01*
X144580759Y-86379779D01*
X144428221Y-86227241D01*
X144253699Y-86100443D01*
X144061489Y-86002508D01*
X143856326Y-85935846D01*
X143856324Y-85935845D01*
X143856322Y-85935845D01*
X143643266Y-85902100D01*
X143643261Y-85902100D01*
X143427539Y-85902100D01*
X143427534Y-85902100D01*
X143214477Y-85935845D01*
X143009308Y-86002509D01*
X142817100Y-86100443D01*
X142642580Y-86227240D01*
X142500595Y-86369225D01*
X142439272Y-86402709D01*
X142369580Y-86397725D01*
X142313647Y-86355853D01*
X142300532Y-86333948D01*
X142300215Y-86333269D01*
X142300214Y-86333268D01*
X142300214Y-86333266D01*
X142208112Y-86183944D01*
X142084056Y-86059888D01*
X141934734Y-85967786D01*
X141768197Y-85912601D01*
X141768195Y-85912600D01*
X141665410Y-85902100D01*
X140325398Y-85902100D01*
X140325381Y-85902101D01*
X140222603Y-85912600D01*
X140222600Y-85912601D01*
X140056068Y-85967785D01*
X140056063Y-85967787D01*
X139906742Y-86059889D01*
X139782689Y-86183942D01*
X139690587Y-86333263D01*
X139690586Y-86333266D01*
X139635401Y-86499803D01*
X139635401Y-86499804D01*
X139635400Y-86499804D01*
X139624900Y-86602583D01*
X139624900Y-88392601D01*
X139624902Y-88392621D01*
X139629624Y-88438852D01*
X139616854Y-88507545D01*
X139593947Y-88539133D01*
X139098637Y-89034445D01*
X139027044Y-89106037D01*
X139027042Y-89106039D01*
X138988301Y-89199573D01*
X138988300Y-89199578D01*
X138988300Y-91410900D01*
X138968615Y-91477939D01*
X138915811Y-91523694D01*
X138864305Y-91534900D01*
X138842801Y-91534900D01*
X138842780Y-91534901D01*
X138740003Y-91545400D01*
X138740000Y-91545401D01*
X138573468Y-91600585D01*
X138573463Y-91600587D01*
X138424142Y-91692689D01*
X138330481Y-91786351D01*
X138269158Y-91819836D01*
X138199466Y-91814852D01*
X138155119Y-91786351D01*
X138061457Y-91692689D01*
X138061456Y-91692688D01*
X137912134Y-91600586D01*
X137745597Y-91545401D01*
X137745595Y-91545400D01*
X137642810Y-91534900D01*
X136842798Y-91534900D01*
X136842780Y-91534901D01*
X136740003Y-91545400D01*
X136740000Y-91545401D01*
X136573468Y-91600585D01*
X136573463Y-91600587D01*
X136424142Y-91692689D01*
X136300089Y-91816742D01*
X136207987Y-91966063D01*
X136207986Y-91966066D01*
X136152801Y-92132603D01*
X136152801Y-92132604D01*
X136152800Y-92132604D01*
X136142300Y-92235383D01*
X136142300Y-92356900D01*
X136122615Y-92423939D01*
X136069811Y-92469694D01*
X136018300Y-92480900D01*
X135338749Y-92480900D01*
X135271710Y-92461215D01*
X135225955Y-92408411D01*
X135214749Y-92356900D01*
X135214749Y-92340331D01*
X135214748Y-92340325D01*
X135208341Y-92280718D01*
X135158047Y-92145873D01*
X135158043Y-92145866D01*
X135071797Y-92030657D01*
X135071794Y-92030654D01*
X134956585Y-91944408D01*
X134956578Y-91944404D01*
X134821732Y-91894110D01*
X134821733Y-91894110D01*
X134762133Y-91887703D01*
X134762131Y-91887702D01*
X134762123Y-91887702D01*
X134762114Y-91887702D01*
X133715879Y-91887702D01*
X133715873Y-91887703D01*
X133656266Y-91894110D01*
X133521421Y-91944404D01*
X133521414Y-91944408D01*
X133406205Y-92030654D01*
X133406202Y-92030657D01*
X133319956Y-92145866D01*
X133319952Y-92145873D01*
X133269660Y-92280715D01*
X133269659Y-92280719D01*
X133263250Y-92340329D01*
X133263250Y-92340336D01*
X133263250Y-92340337D01*
X133263250Y-92994872D01*
X133263251Y-92994878D01*
X133269658Y-93054485D01*
X133319952Y-93189330D01*
X133319956Y-93189337D01*
X133406202Y-93304546D01*
X133406205Y-93304549D01*
X133521414Y-93390795D01*
X133521421Y-93390799D01*
X133534980Y-93395856D01*
X133656267Y-93441093D01*
X133715877Y-93447502D01*
X133860500Y-93447501D01*
X133927539Y-93467185D01*
X133973294Y-93519989D01*
X133984500Y-93571501D01*
X133984500Y-95463700D01*
X133964815Y-95530739D01*
X133912011Y-95576494D01*
X133860501Y-95587700D01*
X133715880Y-95587700D01*
X133715873Y-95587701D01*
X133656266Y-95594108D01*
X133521421Y-95644402D01*
X133521414Y-95644406D01*
X133406205Y-95730652D01*
X133406202Y-95730655D01*
X133319956Y-95845864D01*
X133319952Y-95845871D01*
X133269660Y-95980713D01*
X133269659Y-95980717D01*
X133263250Y-96040327D01*
X133263250Y-96040334D01*
X133263250Y-96040335D01*
X133263250Y-96694870D01*
X133263251Y-96694876D01*
X133269658Y-96754483D01*
X133319952Y-96889328D01*
X133319956Y-96889335D01*
X133406202Y-97004544D01*
X133406205Y-97004547D01*
X133521414Y-97090793D01*
X133521421Y-97090797D01*
X133656267Y-97141091D01*
X133656266Y-97141091D01*
X133663194Y-97141835D01*
X133715877Y-97147500D01*
X134762122Y-97147499D01*
X134821733Y-97141091D01*
X134956581Y-97090796D01*
X135071796Y-97004546D01*
X135158046Y-96889331D01*
X135208341Y-96754483D01*
X135210668Y-96732843D01*
X135237407Y-96668292D01*
X135294800Y-96628445D01*
X135333957Y-96622100D01*
X135787920Y-96622100D01*
X135854959Y-96641785D01*
X135875601Y-96658419D01*
X136181664Y-96964482D01*
X136215149Y-97025805D01*
X136212350Y-97078851D01*
X136214818Y-97079380D01*
X136213401Y-97085996D01*
X136202900Y-97188783D01*
X136202900Y-98238801D01*
X136202901Y-98238819D01*
X136213400Y-98341596D01*
X136213401Y-98341599D01*
X136246672Y-98442003D01*
X136268586Y-98508134D01*
X136360688Y-98657456D01*
X136484744Y-98781512D01*
X136634066Y-98873614D01*
X136800603Y-98928799D01*
X136903391Y-98939300D01*
X137678408Y-98939299D01*
X137678416Y-98939298D01*
X137678419Y-98939298D01*
X137734702Y-98933548D01*
X137781197Y-98928799D01*
X137947734Y-98873614D01*
X138097056Y-98781512D01*
X138221112Y-98657456D01*
X138223152Y-98654147D01*
X138225145Y-98652355D01*
X138225593Y-98651789D01*
X138225689Y-98651865D01*
X138275094Y-98607423D01*
X138344056Y-98596195D01*
X138408140Y-98624034D01*
X138434229Y-98654139D01*
X138436081Y-98657141D01*
X138436083Y-98657144D01*
X138560054Y-98781115D01*
X138709275Y-98873156D01*
X138709280Y-98873158D01*
X138875702Y-98928305D01*
X138875709Y-98928306D01*
X138978419Y-98938799D01*
X139115899Y-98938799D01*
X139115900Y-98938798D01*
X139115900Y-97963800D01*
X139615900Y-97963800D01*
X139615900Y-98938799D01*
X139753372Y-98938799D01*
X139753386Y-98938798D01*
X139856097Y-98928305D01*
X140022519Y-98873158D01*
X140022524Y-98873156D01*
X140171745Y-98781115D01*
X140295715Y-98657145D01*
X140387756Y-98507924D01*
X140387758Y-98507919D01*
X140442905Y-98341497D01*
X140442906Y-98341490D01*
X140453399Y-98238786D01*
X140453400Y-98238773D01*
X140453400Y-97963800D01*
X139615900Y-97963800D01*
X139115900Y-97963800D01*
X139115900Y-96488800D01*
X139615900Y-96488800D01*
X139615900Y-97463800D01*
X140453399Y-97463800D01*
X140453399Y-97188828D01*
X140453398Y-97188813D01*
X140442905Y-97086102D01*
X140387758Y-96919680D01*
X140387756Y-96919675D01*
X140295715Y-96770454D01*
X140171745Y-96646484D01*
X140022524Y-96554443D01*
X140022519Y-96554441D01*
X139856097Y-96499294D01*
X139856090Y-96499293D01*
X139753386Y-96488800D01*
X139615900Y-96488800D01*
X139115900Y-96488800D01*
X138978427Y-96488800D01*
X138978412Y-96488801D01*
X138875702Y-96499294D01*
X138709280Y-96554441D01*
X138709275Y-96554443D01*
X138560054Y-96646484D01*
X138436083Y-96770455D01*
X138436079Y-96770460D01*
X138434226Y-96773465D01*
X138432418Y-96775090D01*
X138431602Y-96776123D01*
X138431425Y-96775983D01*
X138382274Y-96820185D01*
X138313311Y-96831401D01*
X138249231Y-96803552D01*
X138223153Y-96773453D01*
X138223137Y-96773428D01*
X138221112Y-96770144D01*
X138097056Y-96646088D01*
X137952778Y-96557097D01*
X137947736Y-96553987D01*
X137947731Y-96553985D01*
X137903215Y-96539234D01*
X137781197Y-96498801D01*
X137781195Y-96498800D01*
X137678410Y-96488300D01*
X136903398Y-96488300D01*
X136903380Y-96488301D01*
X136800603Y-96498800D01*
X136800600Y-96498801D01*
X136634066Y-96553986D01*
X136634061Y-96553988D01*
X136629021Y-96557097D01*
X136561627Y-96575532D01*
X136494965Y-96554603D01*
X136476252Y-96539234D01*
X136088860Y-96151842D01*
X135995326Y-96113101D01*
X135995324Y-96113100D01*
X135995323Y-96113100D01*
X135995321Y-96113100D01*
X135333957Y-96113100D01*
X135266918Y-96093415D01*
X135221163Y-96040611D01*
X135210667Y-96002354D01*
X135210456Y-96000397D01*
X135208341Y-95980717D01*
X135172548Y-95884752D01*
X135158047Y-95845871D01*
X135158043Y-95845864D01*
X135071797Y-95730655D01*
X135071794Y-95730652D01*
X134956585Y-95644406D01*
X134956578Y-95644402D01*
X134821732Y-95594108D01*
X134821733Y-95594108D01*
X134762133Y-95587701D01*
X134762131Y-95587700D01*
X134762123Y-95587700D01*
X134762115Y-95587700D01*
X134617500Y-95587700D01*
X134550461Y-95568015D01*
X134504706Y-95515211D01*
X134493500Y-95463700D01*
X134493500Y-93571501D01*
X134513185Y-93504462D01*
X134565989Y-93458707D01*
X134617500Y-93447501D01*
X134762121Y-93447501D01*
X134762122Y-93447501D01*
X134821733Y-93441093D01*
X134956581Y-93390798D01*
X135071796Y-93304548D01*
X135158046Y-93189333D01*
X135202343Y-93070567D01*
X135244214Y-93014633D01*
X135309678Y-92990216D01*
X135318525Y-92989900D01*
X136018301Y-92989900D01*
X136085340Y-93009585D01*
X136131095Y-93062389D01*
X136142301Y-93113900D01*
X136142301Y-93235418D01*
X136152800Y-93338196D01*
X136152801Y-93338199D01*
X136199632Y-93479523D01*
X136207986Y-93504734D01*
X136300088Y-93654056D01*
X136424144Y-93778112D01*
X136573466Y-93870214D01*
X136740003Y-93925399D01*
X136842791Y-93935900D01*
X137642808Y-93935899D01*
X137642816Y-93935898D01*
X137642819Y-93935898D01*
X137699102Y-93930148D01*
X137745597Y-93925399D01*
X137912134Y-93870214D01*
X138061456Y-93778112D01*
X138155119Y-93684449D01*
X138216442Y-93650964D01*
X138286134Y-93655948D01*
X138330481Y-93684449D01*
X138424144Y-93778112D01*
X138573466Y-93870214D01*
X138740003Y-93925399D01*
X138842791Y-93935900D01*
X139642808Y-93935899D01*
X139642816Y-93935898D01*
X139642819Y-93935898D01*
X139699102Y-93930148D01*
X139745597Y-93925399D01*
X139912134Y-93870214D01*
X140061456Y-93778112D01*
X140185512Y-93654056D01*
X140277614Y-93504734D01*
X140332799Y-93338197D01*
X140343300Y-93235409D01*
X140343299Y-92235392D01*
X140332799Y-92132603D01*
X140277614Y-91966066D01*
X140185512Y-91816744D01*
X140061456Y-91692688D01*
X139912134Y-91600586D01*
X139745597Y-91545401D01*
X139745595Y-91545400D01*
X139642816Y-91534900D01*
X139642809Y-91534900D01*
X139621300Y-91534900D01*
X139554261Y-91515215D01*
X139508506Y-91462411D01*
X139497300Y-91410900D01*
X139497300Y-89406979D01*
X139516985Y-89339940D01*
X139533615Y-89319302D01*
X139844134Y-89008782D01*
X139905455Y-88975299D01*
X139975146Y-88980283D01*
X139996908Y-88990925D01*
X140056066Y-89027414D01*
X140222603Y-89082599D01*
X140325391Y-89093100D01*
X141665408Y-89093099D01*
X141768197Y-89082599D01*
X141934734Y-89027414D01*
X142084056Y-88935312D01*
X142208112Y-88811256D01*
X142300214Y-88661934D01*
X142300217Y-88661922D01*
X142300529Y-88661257D01*
X142300869Y-88660869D01*
X142304005Y-88655787D01*
X142304873Y-88656322D01*
X142346699Y-88608816D01*
X142413891Y-88589660D01*
X142480773Y-88609872D01*
X142500595Y-88625975D01*
X142642579Y-88767959D01*
X142817101Y-88894757D01*
X143009311Y-88992692D01*
X143214474Y-89059354D01*
X143214483Y-89059355D01*
X143217843Y-89060162D01*
X143218991Y-89060821D01*
X143219107Y-89060859D01*
X143219099Y-89060883D01*
X143278436Y-89094951D01*
X143310602Y-89156976D01*
X143312900Y-89180737D01*
X143312900Y-93223100D01*
X143293215Y-93290139D01*
X143240411Y-93335894D01*
X143188900Y-93347100D01*
X142912198Y-93347100D01*
X142875332Y-93350001D01*
X142875326Y-93350002D01*
X142717506Y-93395854D01*
X142717503Y-93395855D01*
X142576037Y-93479517D01*
X142576029Y-93479523D01*
X142459823Y-93595729D01*
X142459817Y-93595737D01*
X142376155Y-93737203D01*
X142376154Y-93737206D01*
X142330302Y-93895026D01*
X142330301Y-93895032D01*
X142327400Y-93931898D01*
X142327400Y-94363301D01*
X142330301Y-94400167D01*
X142330302Y-94400173D01*
X142376154Y-94557993D01*
X142376155Y-94557996D01*
X142459817Y-94699462D01*
X142459823Y-94699470D01*
X142576029Y-94815676D01*
X142576033Y-94815679D01*
X142576035Y-94815681D01*
X142717502Y-94899344D01*
X142759124Y-94911436D01*
X142875326Y-94945197D01*
X142875329Y-94945197D01*
X142875331Y-94945198D01*
X142912206Y-94948100D01*
X144078400Y-94948100D01*
X144145439Y-94967785D01*
X144191194Y-95020589D01*
X144202400Y-95072100D01*
X144202400Y-95123100D01*
X144182715Y-95190139D01*
X144129911Y-95235894D01*
X144078400Y-95247100D01*
X142912198Y-95247100D01*
X142875332Y-95250001D01*
X142875326Y-95250002D01*
X142717506Y-95295854D01*
X142717503Y-95295855D01*
X142576037Y-95379517D01*
X142576029Y-95379523D01*
X142459823Y-95495729D01*
X142459817Y-95495737D01*
X142376155Y-95637203D01*
X142376154Y-95637206D01*
X142330302Y-95795026D01*
X142330301Y-95795032D01*
X142327400Y-95831898D01*
X142327400Y-96263301D01*
X142330301Y-96300167D01*
X142330302Y-96300173D01*
X142376154Y-96457993D01*
X142376154Y-96457994D01*
X142376155Y-96457996D01*
X142376156Y-96457998D01*
X142394077Y-96488301D01*
X142416132Y-96525594D01*
X142433314Y-96593318D01*
X142411154Y-96659580D01*
X142397081Y-96676395D01*
X142310553Y-96762923D01*
X142293113Y-96780364D01*
X142293111Y-96780364D01*
X142293112Y-96780365D01*
X142239522Y-96833954D01*
X142189299Y-96920945D01*
X142189299Y-96920946D01*
X142163300Y-97017975D01*
X142163300Y-97017977D01*
X142163300Y-100713300D01*
X142143615Y-100780339D01*
X142090811Y-100826094D01*
X142039301Y-100837300D01*
X141874799Y-100837300D01*
X141874780Y-100837301D01*
X141772003Y-100847800D01*
X141772000Y-100847801D01*
X141605468Y-100902985D01*
X141605463Y-100902987D01*
X141456142Y-100995089D01*
X141332089Y-101119142D01*
X141239987Y-101268463D01*
X141239985Y-101268468D01*
X141232341Y-101291536D01*
X141184801Y-101435003D01*
X141184801Y-101435004D01*
X141184800Y-101435004D01*
X141174300Y-101537783D01*
X141174300Y-103327801D01*
X141174301Y-103327818D01*
X141184800Y-103430596D01*
X141184801Y-103430599D01*
X141222574Y-103544588D01*
X141239986Y-103597134D01*
X141332088Y-103746456D01*
X141456144Y-103870512D01*
X141605466Y-103962614D01*
X141772003Y-104017799D01*
X141874791Y-104028300D01*
X143214808Y-104028299D01*
X143317597Y-104017799D01*
X143484134Y-103962614D01*
X143633456Y-103870512D01*
X143757512Y-103746456D01*
X143849614Y-103597134D01*
X143849617Y-103597123D01*
X143850153Y-103595977D01*
X143850734Y-103595316D01*
X143853405Y-103590987D01*
X143854144Y-103591443D01*
X143896321Y-103543534D01*
X143963513Y-103524377D01*
X144030396Y-103544588D01*
X144050220Y-103560692D01*
X144192302Y-103702774D01*
X144366763Y-103829528D01*
X144558898Y-103927427D01*
X144763990Y-103994066D01*
X144834800Y-104005281D01*
X144834800Y-102975509D01*
X144855139Y-102987252D01*
X145006467Y-103027800D01*
X145163133Y-103027800D01*
X145314461Y-102987252D01*
X145334800Y-102975509D01*
X145334800Y-104005280D01*
X145405609Y-103994066D01*
X145610701Y-103927427D01*
X145802836Y-103829528D01*
X145977296Y-103702774D01*
X145977297Y-103702774D01*
X146129774Y-103550297D01*
X146129774Y-103550296D01*
X146256528Y-103375836D01*
X146354427Y-103183701D01*
X146421065Y-102978609D01*
X146454800Y-102765620D01*
X146454800Y-102682800D01*
X145627509Y-102682800D01*
X145639252Y-102662461D01*
X145679800Y-102511133D01*
X145679800Y-102354467D01*
X145639252Y-102203139D01*
X145627509Y-102182800D01*
X146454800Y-102182800D01*
X146454800Y-102099979D01*
X146421065Y-101886990D01*
X146386705Y-101781240D01*
X146384710Y-101711399D01*
X146420790Y-101651566D01*
X146483491Y-101620737D01*
X146552905Y-101628701D01*
X146592317Y-101655240D01*
X147680553Y-102743476D01*
X147716301Y-102764115D01*
X147764515Y-102814680D01*
X147778300Y-102871501D01*
X147778300Y-103333201D01*
X147778301Y-103333219D01*
X147788800Y-103435996D01*
X147788801Y-103435999D01*
X147826574Y-103549988D01*
X147843986Y-103602534D01*
X147936088Y-103751856D01*
X148060144Y-103875912D01*
X148209466Y-103968014D01*
X148376003Y-104023199D01*
X148478791Y-104033700D01*
X149818808Y-104033699D01*
X149921597Y-104023199D01*
X150088134Y-103968014D01*
X150237456Y-103875912D01*
X150361512Y-103751856D01*
X150453614Y-103602534D01*
X150453617Y-103602523D01*
X150454153Y-103601377D01*
X150454734Y-103600716D01*
X150457405Y-103596387D01*
X150458144Y-103596843D01*
X150500321Y-103548934D01*
X150567513Y-103529777D01*
X150634396Y-103549988D01*
X150654220Y-103566092D01*
X150796302Y-103708174D01*
X150970763Y-103834928D01*
X151162898Y-103932827D01*
X151367990Y-103999466D01*
X151438800Y-104010681D01*
X151438800Y-102980909D01*
X151459139Y-102992652D01*
X151610467Y-103033200D01*
X151767133Y-103033200D01*
X151918461Y-102992652D01*
X151938800Y-102980909D01*
X151938800Y-104010680D01*
X152009609Y-103999466D01*
X152214701Y-103932827D01*
X152406836Y-103834928D01*
X152581296Y-103708174D01*
X152581297Y-103708174D01*
X152733774Y-103555697D01*
X152733774Y-103555696D01*
X152860528Y-103381236D01*
X152958427Y-103189101D01*
X153025065Y-102984009D01*
X153058800Y-102771020D01*
X153058800Y-102688200D01*
X152231509Y-102688200D01*
X152243252Y-102667861D01*
X152283800Y-102516533D01*
X152283800Y-102359867D01*
X152243252Y-102208539D01*
X152231509Y-102188200D01*
X153058800Y-102188200D01*
X153058800Y-102105379D01*
X153025065Y-101892390D01*
X152958427Y-101687298D01*
X152860528Y-101495163D01*
X152733774Y-101320703D01*
X152733774Y-101320702D01*
X152581297Y-101168225D01*
X152406836Y-101041471D01*
X152214699Y-100943572D01*
X152009605Y-100876933D01*
X151938800Y-100865718D01*
X151938800Y-101895490D01*
X151918461Y-101883748D01*
X151767133Y-101843200D01*
X151610467Y-101843200D01*
X151459139Y-101883748D01*
X151438800Y-101895490D01*
X151438800Y-100865718D01*
X151438799Y-100865718D01*
X151367994Y-100876933D01*
X151162900Y-100943572D01*
X150970763Y-101041471D01*
X150796306Y-101168222D01*
X150654220Y-101310308D01*
X150592897Y-101343792D01*
X150523205Y-101338808D01*
X150467272Y-101296936D01*
X150454156Y-101275028D01*
X150453616Y-101273870D01*
X150451000Y-101269628D01*
X150361512Y-101124544D01*
X150237456Y-101000488D01*
X150088134Y-100908386D01*
X149921597Y-100853201D01*
X149921595Y-100853200D01*
X149818810Y-100842700D01*
X148478798Y-100842700D01*
X148478781Y-100842701D01*
X148376003Y-100853200D01*
X148376000Y-100853201D01*
X148209468Y-100908385D01*
X148209463Y-100908387D01*
X148060142Y-101000489D01*
X147936089Y-101124542D01*
X147843987Y-101273863D01*
X147843985Y-101273868D01*
X147831910Y-101310308D01*
X147788801Y-101440403D01*
X147788801Y-101440404D01*
X147788800Y-101440404D01*
X147784522Y-101482283D01*
X147758125Y-101546974D01*
X147700944Y-101587125D01*
X147631133Y-101589987D01*
X147573483Y-101557360D01*
X143172003Y-97155880D01*
X143138518Y-97094557D01*
X143143502Y-97024865D01*
X143172000Y-96980521D01*
X143268106Y-96884417D01*
X143329430Y-96850933D01*
X143355786Y-96848100D01*
X144218586Y-96848100D01*
X144218594Y-96848100D01*
X144255469Y-96845198D01*
X144255471Y-96845197D01*
X144255473Y-96845197D01*
X144341563Y-96820185D01*
X144413298Y-96799344D01*
X144554765Y-96715681D01*
X144670981Y-96599465D01*
X144754644Y-96457998D01*
X144800498Y-96300169D01*
X144803400Y-96263294D01*
X144803400Y-96022100D01*
X144823085Y-95955061D01*
X144875889Y-95909306D01*
X144927400Y-95898100D01*
X146093586Y-95898100D01*
X146093594Y-95898100D01*
X146130469Y-95895198D01*
X146130471Y-95895197D01*
X146130473Y-95895197D01*
X146172091Y-95883105D01*
X146288298Y-95849344D01*
X146429765Y-95765681D01*
X146545981Y-95649465D01*
X146548976Y-95644402D01*
X146610730Y-95539980D01*
X146661798Y-95492296D01*
X146717462Y-95479100D01*
X150388215Y-95479100D01*
X150455254Y-95498785D01*
X150475896Y-95515419D01*
X154582181Y-99621704D01*
X154615666Y-99683027D01*
X154618500Y-99709385D01*
X154618500Y-105790615D01*
X154598815Y-105857654D01*
X154582181Y-105878296D01*
X149878296Y-110582181D01*
X149816973Y-110615666D01*
X149790615Y-110618500D01*
X130709385Y-110618500D01*
X130642346Y-110598815D01*
X130621704Y-110582181D01*
X128917819Y-108878296D01*
X128884334Y-108816973D01*
X128881500Y-108790615D01*
X128881500Y-107983470D01*
X129146500Y-107983470D01*
X129146501Y-107983476D01*
X129152908Y-108043083D01*
X129203202Y-108177928D01*
X129203206Y-108177935D01*
X129289452Y-108293144D01*
X129289455Y-108293147D01*
X129404664Y-108379393D01*
X129404671Y-108379397D01*
X129539517Y-108429691D01*
X129539516Y-108429691D01*
X129546444Y-108430435D01*
X129599127Y-108436100D01*
X131194872Y-108436099D01*
X131254483Y-108429691D01*
X131389331Y-108379396D01*
X131504546Y-108293146D01*
X131590796Y-108177931D01*
X131641091Y-108043083D01*
X131647500Y-107983473D01*
X131647500Y-107983470D01*
X135846500Y-107983470D01*
X135846501Y-107983476D01*
X135852908Y-108043083D01*
X135903202Y-108177928D01*
X135903206Y-108177935D01*
X135989452Y-108293144D01*
X135989455Y-108293147D01*
X136104664Y-108379393D01*
X136104671Y-108379397D01*
X136239517Y-108429691D01*
X136239516Y-108429691D01*
X136246444Y-108430435D01*
X136299127Y-108436100D01*
X137894872Y-108436099D01*
X137954483Y-108429691D01*
X138089331Y-108379396D01*
X138204546Y-108293146D01*
X138290796Y-108177931D01*
X138341091Y-108043083D01*
X138347500Y-107983473D01*
X138347499Y-104487728D01*
X138341091Y-104428117D01*
X138290796Y-104293269D01*
X138290795Y-104293268D01*
X138290793Y-104293264D01*
X138204547Y-104178055D01*
X138204544Y-104178052D01*
X138089335Y-104091806D01*
X138089328Y-104091802D01*
X137954482Y-104041508D01*
X137954483Y-104041508D01*
X137894883Y-104035101D01*
X137894881Y-104035100D01*
X137894873Y-104035100D01*
X137894864Y-104035100D01*
X136299129Y-104035100D01*
X136299123Y-104035101D01*
X136239516Y-104041508D01*
X136104671Y-104091802D01*
X136104664Y-104091806D01*
X135989455Y-104178052D01*
X135989452Y-104178055D01*
X135903206Y-104293264D01*
X135903202Y-104293271D01*
X135852908Y-104428117D01*
X135846501Y-104487716D01*
X135846501Y-104487723D01*
X135846500Y-104487735D01*
X135846500Y-107983470D01*
X131647500Y-107983470D01*
X131647499Y-104487728D01*
X131641091Y-104428117D01*
X131590796Y-104293269D01*
X131590795Y-104293268D01*
X131590793Y-104293264D01*
X131504547Y-104178055D01*
X131504544Y-104178052D01*
X131389335Y-104091806D01*
X131389328Y-104091802D01*
X131254482Y-104041508D01*
X131254483Y-104041508D01*
X131194883Y-104035101D01*
X131194881Y-104035100D01*
X131194873Y-104035100D01*
X131194864Y-104035100D01*
X129599129Y-104035100D01*
X129599123Y-104035101D01*
X129539516Y-104041508D01*
X129404671Y-104091802D01*
X129404664Y-104091806D01*
X129289455Y-104178052D01*
X129289452Y-104178055D01*
X129203206Y-104293264D01*
X129203202Y-104293271D01*
X129152908Y-104428117D01*
X129146501Y-104487716D01*
X129146501Y-104487723D01*
X129146500Y-104487735D01*
X129146500Y-107983470D01*
X128881500Y-107983470D01*
X128881500Y-102709385D01*
X128901185Y-102642346D01*
X128917819Y-102621704D01*
X130436104Y-101103419D01*
X130497427Y-101069934D01*
X130523785Y-101067100D01*
X131622501Y-101067100D01*
X131689540Y-101086785D01*
X131735295Y-101139589D01*
X131746501Y-101191100D01*
X131746501Y-102483476D01*
X131752908Y-102543083D01*
X131803202Y-102677928D01*
X131803206Y-102677935D01*
X131889452Y-102793144D01*
X131889455Y-102793147D01*
X132004664Y-102879393D01*
X132004671Y-102879397D01*
X132139517Y-102929691D01*
X132139516Y-102929691D01*
X132146444Y-102930435D01*
X132199127Y-102936100D01*
X133294872Y-102936099D01*
X133354483Y-102929691D01*
X133489331Y-102879396D01*
X133604546Y-102793146D01*
X133648046Y-102735036D01*
X133703979Y-102693167D01*
X133773671Y-102688183D01*
X133834994Y-102721668D01*
X133846578Y-102735038D01*
X133889809Y-102792787D01*
X133889812Y-102792790D01*
X134004906Y-102878950D01*
X134004913Y-102878954D01*
X134139620Y-102929196D01*
X134139627Y-102929198D01*
X134199155Y-102935599D01*
X134199172Y-102935600D01*
X134497000Y-102935600D01*
X134497000Y-100935600D01*
X134997000Y-100935600D01*
X134997000Y-102935600D01*
X135294828Y-102935600D01*
X135294844Y-102935599D01*
X135354372Y-102929198D01*
X135354379Y-102929196D01*
X135489086Y-102878954D01*
X135489093Y-102878950D01*
X135604187Y-102792790D01*
X135604190Y-102792787D01*
X135690350Y-102677693D01*
X135690354Y-102677686D01*
X135740596Y-102542979D01*
X135740598Y-102542972D01*
X135746999Y-102483444D01*
X135747000Y-102483427D01*
X135747000Y-100935600D01*
X134997000Y-100935600D01*
X134497000Y-100935600D01*
X134497000Y-98435600D01*
X134997000Y-98435600D01*
X134997000Y-100435600D01*
X135747000Y-100435600D01*
X135747000Y-98887772D01*
X135746999Y-98887755D01*
X135740598Y-98828227D01*
X135740596Y-98828220D01*
X135690354Y-98693513D01*
X135690350Y-98693506D01*
X135604190Y-98578412D01*
X135604187Y-98578409D01*
X135489093Y-98492249D01*
X135489086Y-98492245D01*
X135354379Y-98442003D01*
X135354372Y-98442001D01*
X135294844Y-98435600D01*
X134997000Y-98435600D01*
X134497000Y-98435600D01*
X134199155Y-98435600D01*
X134139627Y-98442001D01*
X134139620Y-98442003D01*
X134004913Y-98492245D01*
X134004906Y-98492249D01*
X133889812Y-98578409D01*
X133846578Y-98636162D01*
X133790644Y-98678032D01*
X133720952Y-98683016D01*
X133659629Y-98649530D01*
X133648046Y-98636162D01*
X133604814Y-98578412D01*
X133604546Y-98578054D01*
X133604544Y-98578053D01*
X133604544Y-98578052D01*
X133489335Y-98491806D01*
X133489328Y-98491802D01*
X133354482Y-98441508D01*
X133354483Y-98441508D01*
X133294883Y-98435101D01*
X133294881Y-98435100D01*
X133294873Y-98435100D01*
X133294864Y-98435100D01*
X132199129Y-98435100D01*
X132199123Y-98435101D01*
X132139516Y-98441508D01*
X132004671Y-98491802D01*
X132004664Y-98491806D01*
X131889455Y-98578052D01*
X131889452Y-98578055D01*
X131803206Y-98693264D01*
X131803202Y-98693271D01*
X131752908Y-98828117D01*
X131746501Y-98887716D01*
X131746500Y-98887735D01*
X131746500Y-99396913D01*
X131726815Y-99463952D01*
X131674011Y-99509707D01*
X131604853Y-99519651D01*
X131541297Y-99490626D01*
X131534819Y-99484594D01*
X128885425Y-96835200D01*
X128851940Y-96773877D01*
X128849816Y-96734269D01*
X128854052Y-96694873D01*
X128854051Y-96040328D01*
X128847643Y-95980717D01*
X128821008Y-95909306D01*
X128797349Y-95845871D01*
X128797345Y-95845864D01*
X128711099Y-95730655D01*
X128711096Y-95730652D01*
X128595887Y-95644406D01*
X128595880Y-95644402D01*
X128461034Y-95594108D01*
X128461035Y-95594108D01*
X128401435Y-95587701D01*
X128401433Y-95587700D01*
X128401425Y-95587700D01*
X128401417Y-95587700D01*
X128254802Y-95587700D01*
X128187763Y-95568015D01*
X128142008Y-95515211D01*
X128130802Y-95463700D01*
X128130802Y-93571501D01*
X128150487Y-93504462D01*
X128203291Y-93458707D01*
X128254802Y-93447501D01*
X128401423Y-93447501D01*
X128401424Y-93447501D01*
X128461035Y-93441093D01*
X128595883Y-93390798D01*
X128711098Y-93304548D01*
X128797348Y-93189333D01*
X128847643Y-93054485D01*
X128854052Y-92994875D01*
X128854051Y-92340330D01*
X128847643Y-92280719D01*
X128830739Y-92235398D01*
X128797349Y-92145873D01*
X128797345Y-92145866D01*
X128711099Y-92030657D01*
X128711096Y-92030654D01*
X128595887Y-91944408D01*
X128595880Y-91944404D01*
X128461034Y-91894110D01*
X128461035Y-91894110D01*
X128401435Y-91887703D01*
X128401433Y-91887702D01*
X128401425Y-91887702D01*
X128401416Y-91887702D01*
X127355181Y-91887702D01*
X127355175Y-91887703D01*
X127295568Y-91894110D01*
X127160723Y-91944404D01*
X127160716Y-91944408D01*
X127045507Y-92030654D01*
X127045504Y-92030657D01*
X126959258Y-92145866D01*
X126959254Y-92145873D01*
X126908962Y-92280715D01*
X126908961Y-92280719D01*
X126902552Y-92340329D01*
X126902552Y-92340336D01*
X126902552Y-92340337D01*
X126902552Y-92994872D01*
X126902553Y-92994878D01*
X126908960Y-93054485D01*
X126959254Y-93189330D01*
X126959258Y-93189337D01*
X127045504Y-93304546D01*
X127045507Y-93304549D01*
X127160716Y-93390795D01*
X127160723Y-93390799D01*
X127174282Y-93395856D01*
X127295569Y-93441093D01*
X127355179Y-93447502D01*
X127501802Y-93447501D01*
X127568841Y-93467185D01*
X127614596Y-93519989D01*
X127625802Y-93571501D01*
X127625802Y-95463700D01*
X127606117Y-95530739D01*
X127553313Y-95576494D01*
X127501803Y-95587700D01*
X127355182Y-95587700D01*
X127355175Y-95587701D01*
X127295568Y-95594108D01*
X127160723Y-95644402D01*
X127160716Y-95644406D01*
X127045507Y-95730652D01*
X127045504Y-95730655D01*
X126959258Y-95845864D01*
X126959254Y-95845871D01*
X126908962Y-95980713D01*
X126908961Y-95980717D01*
X126902552Y-96040327D01*
X126902552Y-96040334D01*
X126902552Y-96040335D01*
X126902552Y-96694870D01*
X118800500Y-96694870D01*
X118800500Y-83118004D01*
X123699500Y-83118004D01*
X123699501Y-83118020D01*
X123730306Y-83352010D01*
X123791394Y-83579993D01*
X123881714Y-83798045D01*
X123881719Y-83798056D01*
X123952677Y-83920957D01*
X123999727Y-84002450D01*
X123999729Y-84002453D01*
X123999730Y-84002454D01*
X124143406Y-84189697D01*
X124143412Y-84189704D01*
X124310295Y-84356587D01*
X124310301Y-84356592D01*
X124497550Y-84500273D01*
X124628918Y-84576118D01*
X124701943Y-84618280D01*
X124701948Y-84618282D01*
X124701951Y-84618284D01*
X124920007Y-84708606D01*
X125147986Y-84769693D01*
X125381989Y-84800500D01*
X125381996Y-84800500D01*
X125618004Y-84800500D01*
X125618011Y-84800500D01*
X125852014Y-84769693D01*
X126079993Y-84708606D01*
X126298049Y-84618284D01*
X126502450Y-84500273D01*
X126689699Y-84356592D01*
X126856592Y-84189699D01*
X127000273Y-84002450D01*
X127118284Y-83798049D01*
X127208606Y-83579993D01*
X127269693Y-83352014D01*
X127300500Y-83118011D01*
X127300500Y-83118004D01*
X154699500Y-83118004D01*
X154699501Y-83118020D01*
X154730306Y-83352010D01*
X154791394Y-83579993D01*
X154881714Y-83798045D01*
X154881719Y-83798056D01*
X154952677Y-83920957D01*
X154999727Y-84002450D01*
X154999729Y-84002453D01*
X154999730Y-84002454D01*
X155143406Y-84189697D01*
X155143412Y-84189704D01*
X155310295Y-84356587D01*
X155310301Y-84356592D01*
X155497550Y-84500273D01*
X155628918Y-84576118D01*
X155701943Y-84618280D01*
X155701948Y-84618282D01*
X155701951Y-84618284D01*
X155920007Y-84708606D01*
X156147986Y-84769693D01*
X156381989Y-84800500D01*
X156381996Y-84800500D01*
X156618004Y-84800500D01*
X156618011Y-84800500D01*
X156852014Y-84769693D01*
X157079993Y-84708606D01*
X157298049Y-84618284D01*
X157502450Y-84500273D01*
X157689699Y-84356592D01*
X157856592Y-84189699D01*
X158000273Y-84002450D01*
X158118284Y-83798049D01*
X158208606Y-83579993D01*
X158269693Y-83352014D01*
X158300500Y-83118011D01*
X158300500Y-82881989D01*
X158269693Y-82647986D01*
X158208606Y-82420007D01*
X158118284Y-82201951D01*
X158118282Y-82201948D01*
X158118280Y-82201943D01*
X158076118Y-82128918D01*
X158000273Y-81997550D01*
X157856592Y-81810301D01*
X157856587Y-81810295D01*
X157689704Y-81643412D01*
X157689697Y-81643406D01*
X157502454Y-81499730D01*
X157502453Y-81499729D01*
X157502450Y-81499727D01*
X157420957Y-81452677D01*
X157298056Y-81381719D01*
X157298045Y-81381714D01*
X157079993Y-81291394D01*
X156852010Y-81230306D01*
X156618020Y-81199501D01*
X156618017Y-81199500D01*
X156618011Y-81199500D01*
X156381989Y-81199500D01*
X156381983Y-81199500D01*
X156381979Y-81199501D01*
X156147989Y-81230306D01*
X155920006Y-81291394D01*
X155701954Y-81381714D01*
X155701943Y-81381719D01*
X155497545Y-81499730D01*
X155310302Y-81643406D01*
X155310295Y-81643412D01*
X155143412Y-81810295D01*
X155143406Y-81810302D01*
X154999730Y-81997545D01*
X154881719Y-82201943D01*
X154881714Y-82201954D01*
X154791394Y-82420006D01*
X154730306Y-82647989D01*
X154699501Y-82881979D01*
X154699500Y-82881995D01*
X154699500Y-83118004D01*
X127300500Y-83118004D01*
X127300500Y-82881989D01*
X127269693Y-82647986D01*
X127208606Y-82420007D01*
X127118284Y-82201951D01*
X127118282Y-82201948D01*
X127118280Y-82201943D01*
X127076118Y-82128918D01*
X127000273Y-81997550D01*
X126856592Y-81810301D01*
X126856587Y-81810295D01*
X126689704Y-81643412D01*
X126689697Y-81643406D01*
X126502454Y-81499730D01*
X126502453Y-81499729D01*
X126502450Y-81499727D01*
X126420957Y-81452677D01*
X126298056Y-81381719D01*
X126298045Y-81381714D01*
X126079993Y-81291394D01*
X125852010Y-81230306D01*
X125618020Y-81199501D01*
X125618017Y-81199500D01*
X125618011Y-81199500D01*
X125381989Y-81199500D01*
X125381983Y-81199500D01*
X125381979Y-81199501D01*
X125147989Y-81230306D01*
X124920006Y-81291394D01*
X124701954Y-81381714D01*
X124701943Y-81381719D01*
X124497545Y-81499730D01*
X124310302Y-81643406D01*
X124310295Y-81643412D01*
X124143412Y-81810295D01*
X124143406Y-81810302D01*
X123999730Y-81997545D01*
X123881719Y-82201943D01*
X123881714Y-82201954D01*
X123791394Y-82420006D01*
X123730306Y-82647989D01*
X123699501Y-82881979D01*
X123699500Y-82881995D01*
X123699500Y-83118004D01*
X118800500Y-83118004D01*
X118800500Y-77424500D01*
X118820185Y-77357461D01*
X118872989Y-77311706D01*
X118924500Y-77300500D01*
X164075500Y-77300500D01*
X164142539Y-77320185D01*
G37*
G04 #@! TD.AperFunction*
G04 #@! TD*
M02*
