%TF.GenerationSoftware,KiCad,Pcbnew,8.0.0*%
%TF.CreationDate,2024-03-04T01:03:27-06:00*%
%TF.ProjectId,Haptic Feeback board,48617074-6963-4204-9665-656261636b20,rev?*%
%TF.SameCoordinates,Original*%
%TF.FileFunction,Copper,L2,Bot*%
%TF.FilePolarity,Positive*%
%FSLAX46Y46*%
G04 Gerber Fmt 4.6, Leading zero omitted, Abs format (unit mm)*
G04 Created by KiCad (PCBNEW 8.0.0) date 2024-03-04 01:03:27*
%MOMM*%
%LPD*%
G01*
G04 APERTURE LIST*
G04 Aperture macros list*
%AMRoundRect*
0 Rectangle with rounded corners*
0 $1 Rounding radius*
0 $2 $3 $4 $5 $6 $7 $8 $9 X,Y pos of 4 corners*
0 Add a 4 corners polygon primitive as box body*
4,1,4,$2,$3,$4,$5,$6,$7,$8,$9,$2,$3,0*
0 Add four circle primitives for the rounded corners*
1,1,$1+$1,$2,$3*
1,1,$1+$1,$4,$5*
1,1,$1+$1,$6,$7*
1,1,$1+$1,$8,$9*
0 Add four rect primitives between the rounded corners*
20,1,$1+$1,$2,$3,$4,$5,0*
20,1,$1+$1,$4,$5,$6,$7,0*
20,1,$1+$1,$6,$7,$8,$9,0*
20,1,$1+$1,$8,$9,$2,$3,0*%
G04 Aperture macros list end*
%ADD10C,0.300000*%
%TA.AperFunction,NonConductor*%
%ADD11C,0.300000*%
%TD*%
%TA.AperFunction,NonConductor*%
%ADD12C,0.200000*%
%TD*%
%TA.AperFunction,ComponentPad*%
%ADD13RoundRect,0.250000X-0.620000X-0.845000X0.620000X-0.845000X0.620000X0.845000X-0.620000X0.845000X0*%
%TD*%
%TA.AperFunction,ComponentPad*%
%ADD14O,1.740000X2.190000*%
%TD*%
%TA.AperFunction,ViaPad*%
%ADD15C,0.800000*%
%TD*%
G04 APERTURE END LIST*
D10*
D11*
X113905528Y-103714284D02*
X114905528Y-103714284D01*
X113334100Y-104071426D02*
X114405528Y-104428569D01*
X114405528Y-104428569D02*
X114405528Y-103499998D01*
X114905528Y-102142855D02*
X114905528Y-102999998D01*
X114905528Y-102571427D02*
X113405528Y-102571427D01*
X113405528Y-102571427D02*
X113619814Y-102714284D01*
X113619814Y-102714284D02*
X113762671Y-102857141D01*
X113762671Y-102857141D02*
X113834100Y-102999998D01*
X114762671Y-101499999D02*
X114834100Y-101428570D01*
X114834100Y-101428570D02*
X114905528Y-101499999D01*
X114905528Y-101499999D02*
X114834100Y-101571427D01*
X114834100Y-101571427D02*
X114762671Y-101499999D01*
X114762671Y-101499999D02*
X114905528Y-101499999D01*
X113405528Y-100499998D02*
X113405528Y-100357141D01*
X113405528Y-100357141D02*
X113476957Y-100214284D01*
X113476957Y-100214284D02*
X113548385Y-100142856D01*
X113548385Y-100142856D02*
X113691242Y-100071427D01*
X113691242Y-100071427D02*
X113976957Y-99999998D01*
X113976957Y-99999998D02*
X114334100Y-99999998D01*
X114334100Y-99999998D02*
X114619814Y-100071427D01*
X114619814Y-100071427D02*
X114762671Y-100142856D01*
X114762671Y-100142856D02*
X114834100Y-100214284D01*
X114834100Y-100214284D02*
X114905528Y-100357141D01*
X114905528Y-100357141D02*
X114905528Y-100499998D01*
X114905528Y-100499998D02*
X114834100Y-100642856D01*
X114834100Y-100642856D02*
X114762671Y-100714284D01*
X114762671Y-100714284D02*
X114619814Y-100785713D01*
X114619814Y-100785713D02*
X114334100Y-100857141D01*
X114334100Y-100857141D02*
X113976957Y-100857141D01*
X113976957Y-100857141D02*
X113691242Y-100785713D01*
X113691242Y-100785713D02*
X113548385Y-100714284D01*
X113548385Y-100714284D02*
X113476957Y-100642856D01*
X113476957Y-100642856D02*
X113405528Y-100499998D01*
X113405528Y-99071427D02*
X113405528Y-98928570D01*
X113405528Y-98928570D02*
X113476957Y-98785713D01*
X113476957Y-98785713D02*
X113548385Y-98714285D01*
X113548385Y-98714285D02*
X113691242Y-98642856D01*
X113691242Y-98642856D02*
X113976957Y-98571427D01*
X113976957Y-98571427D02*
X114334100Y-98571427D01*
X114334100Y-98571427D02*
X114619814Y-98642856D01*
X114619814Y-98642856D02*
X114762671Y-98714285D01*
X114762671Y-98714285D02*
X114834100Y-98785713D01*
X114834100Y-98785713D02*
X114905528Y-98928570D01*
X114905528Y-98928570D02*
X114905528Y-99071427D01*
X114905528Y-99071427D02*
X114834100Y-99214285D01*
X114834100Y-99214285D02*
X114762671Y-99285713D01*
X114762671Y-99285713D02*
X114619814Y-99357142D01*
X114619814Y-99357142D02*
X114334100Y-99428570D01*
X114334100Y-99428570D02*
X113976957Y-99428570D01*
X113976957Y-99428570D02*
X113691242Y-99357142D01*
X113691242Y-99357142D02*
X113548385Y-99285713D01*
X113548385Y-99285713D02*
X113476957Y-99214285D01*
X113476957Y-99214285D02*
X113405528Y-99071427D01*
X113405528Y-97642856D02*
X113405528Y-97499999D01*
X113405528Y-97499999D02*
X113476957Y-97357142D01*
X113476957Y-97357142D02*
X113548385Y-97285714D01*
X113548385Y-97285714D02*
X113691242Y-97214285D01*
X113691242Y-97214285D02*
X113976957Y-97142856D01*
X113976957Y-97142856D02*
X114334100Y-97142856D01*
X114334100Y-97142856D02*
X114619814Y-97214285D01*
X114619814Y-97214285D02*
X114762671Y-97285714D01*
X114762671Y-97285714D02*
X114834100Y-97357142D01*
X114834100Y-97357142D02*
X114905528Y-97499999D01*
X114905528Y-97499999D02*
X114905528Y-97642856D01*
X114905528Y-97642856D02*
X114834100Y-97785714D01*
X114834100Y-97785714D02*
X114762671Y-97857142D01*
X114762671Y-97857142D02*
X114619814Y-97928571D01*
X114619814Y-97928571D02*
X114334100Y-97999999D01*
X114334100Y-97999999D02*
X113976957Y-97999999D01*
X113976957Y-97999999D02*
X113691242Y-97928571D01*
X113691242Y-97928571D02*
X113548385Y-97857142D01*
X113548385Y-97857142D02*
X113476957Y-97785714D01*
X113476957Y-97785714D02*
X113405528Y-97642856D01*
X113405528Y-96214285D02*
X113405528Y-96071428D01*
X113405528Y-96071428D02*
X113476957Y-95928571D01*
X113476957Y-95928571D02*
X113548385Y-95857143D01*
X113548385Y-95857143D02*
X113691242Y-95785714D01*
X113691242Y-95785714D02*
X113976957Y-95714285D01*
X113976957Y-95714285D02*
X114334100Y-95714285D01*
X114334100Y-95714285D02*
X114619814Y-95785714D01*
X114619814Y-95785714D02*
X114762671Y-95857143D01*
X114762671Y-95857143D02*
X114834100Y-95928571D01*
X114834100Y-95928571D02*
X114905528Y-96071428D01*
X114905528Y-96071428D02*
X114905528Y-96214285D01*
X114905528Y-96214285D02*
X114834100Y-96357143D01*
X114834100Y-96357143D02*
X114762671Y-96428571D01*
X114762671Y-96428571D02*
X114619814Y-96500000D01*
X114619814Y-96500000D02*
X114334100Y-96571428D01*
X114334100Y-96571428D02*
X113976957Y-96571428D01*
X113976957Y-96571428D02*
X113691242Y-96500000D01*
X113691242Y-96500000D02*
X113548385Y-96428571D01*
X113548385Y-96428571D02*
X113476957Y-96357143D01*
X113476957Y-96357143D02*
X113405528Y-96214285D01*
X114905528Y-93928572D02*
X113905528Y-93928572D01*
X114048385Y-93928572D02*
X113976957Y-93857143D01*
X113976957Y-93857143D02*
X113905528Y-93714286D01*
X113905528Y-93714286D02*
X113905528Y-93500000D01*
X113905528Y-93500000D02*
X113976957Y-93357143D01*
X113976957Y-93357143D02*
X114119814Y-93285715D01*
X114119814Y-93285715D02*
X114905528Y-93285715D01*
X114119814Y-93285715D02*
X113976957Y-93214286D01*
X113976957Y-93214286D02*
X113905528Y-93071429D01*
X113905528Y-93071429D02*
X113905528Y-92857143D01*
X113905528Y-92857143D02*
X113976957Y-92714286D01*
X113976957Y-92714286D02*
X114119814Y-92642857D01*
X114119814Y-92642857D02*
X114905528Y-92642857D01*
X114905528Y-91928572D02*
X113905528Y-91928572D01*
X114048385Y-91928572D02*
X113976957Y-91857143D01*
X113976957Y-91857143D02*
X113905528Y-91714286D01*
X113905528Y-91714286D02*
X113905528Y-91500000D01*
X113905528Y-91500000D02*
X113976957Y-91357143D01*
X113976957Y-91357143D02*
X114119814Y-91285715D01*
X114119814Y-91285715D02*
X114905528Y-91285715D01*
X114119814Y-91285715D02*
X113976957Y-91214286D01*
X113976957Y-91214286D02*
X113905528Y-91071429D01*
X113905528Y-91071429D02*
X113905528Y-90857143D01*
X113905528Y-90857143D02*
X113976957Y-90714286D01*
X113976957Y-90714286D02*
X114119814Y-90642857D01*
X114119814Y-90642857D02*
X114905528Y-90642857D01*
D12*
X118000000Y-77000000D02*
X115440780Y-77000000D01*
X118000000Y-118000000D02*
X115440780Y-118000000D01*
X116027200Y-77000000D02*
X116027200Y-118000000D01*
X116027200Y-77000000D02*
X116027200Y-118000000D01*
X116027200Y-77000000D02*
X116613621Y-78126504D01*
X116027200Y-77000000D02*
X115440779Y-78126504D01*
X116027200Y-118000000D02*
X115440779Y-116873496D01*
X116027200Y-118000000D02*
X116613621Y-116873496D01*
D10*
D11*
X135285716Y-72147928D02*
X135285716Y-73147928D01*
X134928573Y-71576500D02*
X134571430Y-72647928D01*
X134571430Y-72647928D02*
X135500001Y-72647928D01*
X136714287Y-71647928D02*
X136428572Y-71647928D01*
X136428572Y-71647928D02*
X136285715Y-71719357D01*
X136285715Y-71719357D02*
X136214287Y-71790785D01*
X136214287Y-71790785D02*
X136071429Y-72005071D01*
X136071429Y-72005071D02*
X136000001Y-72290785D01*
X136000001Y-72290785D02*
X136000001Y-72862214D01*
X136000001Y-72862214D02*
X136071429Y-73005071D01*
X136071429Y-73005071D02*
X136142858Y-73076500D01*
X136142858Y-73076500D02*
X136285715Y-73147928D01*
X136285715Y-73147928D02*
X136571429Y-73147928D01*
X136571429Y-73147928D02*
X136714287Y-73076500D01*
X136714287Y-73076500D02*
X136785715Y-73005071D01*
X136785715Y-73005071D02*
X136857144Y-72862214D01*
X136857144Y-72862214D02*
X136857144Y-72505071D01*
X136857144Y-72505071D02*
X136785715Y-72362214D01*
X136785715Y-72362214D02*
X136714287Y-72290785D01*
X136714287Y-72290785D02*
X136571429Y-72219357D01*
X136571429Y-72219357D02*
X136285715Y-72219357D01*
X136285715Y-72219357D02*
X136142858Y-72290785D01*
X136142858Y-72290785D02*
X136071429Y-72362214D01*
X136071429Y-72362214D02*
X136000001Y-72505071D01*
X137500000Y-73005071D02*
X137571429Y-73076500D01*
X137571429Y-73076500D02*
X137500000Y-73147928D01*
X137500000Y-73147928D02*
X137428572Y-73076500D01*
X137428572Y-73076500D02*
X137500000Y-73005071D01*
X137500000Y-73005071D02*
X137500000Y-73147928D01*
X138500001Y-71647928D02*
X138642858Y-71647928D01*
X138642858Y-71647928D02*
X138785715Y-71719357D01*
X138785715Y-71719357D02*
X138857144Y-71790785D01*
X138857144Y-71790785D02*
X138928572Y-71933642D01*
X138928572Y-71933642D02*
X139000001Y-72219357D01*
X139000001Y-72219357D02*
X139000001Y-72576500D01*
X139000001Y-72576500D02*
X138928572Y-72862214D01*
X138928572Y-72862214D02*
X138857144Y-73005071D01*
X138857144Y-73005071D02*
X138785715Y-73076500D01*
X138785715Y-73076500D02*
X138642858Y-73147928D01*
X138642858Y-73147928D02*
X138500001Y-73147928D01*
X138500001Y-73147928D02*
X138357144Y-73076500D01*
X138357144Y-73076500D02*
X138285715Y-73005071D01*
X138285715Y-73005071D02*
X138214286Y-72862214D01*
X138214286Y-72862214D02*
X138142858Y-72576500D01*
X138142858Y-72576500D02*
X138142858Y-72219357D01*
X138142858Y-72219357D02*
X138214286Y-71933642D01*
X138214286Y-71933642D02*
X138285715Y-71790785D01*
X138285715Y-71790785D02*
X138357144Y-71719357D01*
X138357144Y-71719357D02*
X138500001Y-71647928D01*
X139928572Y-71647928D02*
X140071429Y-71647928D01*
X140071429Y-71647928D02*
X140214286Y-71719357D01*
X140214286Y-71719357D02*
X140285715Y-71790785D01*
X140285715Y-71790785D02*
X140357143Y-71933642D01*
X140357143Y-71933642D02*
X140428572Y-72219357D01*
X140428572Y-72219357D02*
X140428572Y-72576500D01*
X140428572Y-72576500D02*
X140357143Y-72862214D01*
X140357143Y-72862214D02*
X140285715Y-73005071D01*
X140285715Y-73005071D02*
X140214286Y-73076500D01*
X140214286Y-73076500D02*
X140071429Y-73147928D01*
X140071429Y-73147928D02*
X139928572Y-73147928D01*
X139928572Y-73147928D02*
X139785715Y-73076500D01*
X139785715Y-73076500D02*
X139714286Y-73005071D01*
X139714286Y-73005071D02*
X139642857Y-72862214D01*
X139642857Y-72862214D02*
X139571429Y-72576500D01*
X139571429Y-72576500D02*
X139571429Y-72219357D01*
X139571429Y-72219357D02*
X139642857Y-71933642D01*
X139642857Y-71933642D02*
X139714286Y-71790785D01*
X139714286Y-71790785D02*
X139785715Y-71719357D01*
X139785715Y-71719357D02*
X139928572Y-71647928D01*
X141357143Y-71647928D02*
X141500000Y-71647928D01*
X141500000Y-71647928D02*
X141642857Y-71719357D01*
X141642857Y-71719357D02*
X141714286Y-71790785D01*
X141714286Y-71790785D02*
X141785714Y-71933642D01*
X141785714Y-71933642D02*
X141857143Y-72219357D01*
X141857143Y-72219357D02*
X141857143Y-72576500D01*
X141857143Y-72576500D02*
X141785714Y-72862214D01*
X141785714Y-72862214D02*
X141714286Y-73005071D01*
X141714286Y-73005071D02*
X141642857Y-73076500D01*
X141642857Y-73076500D02*
X141500000Y-73147928D01*
X141500000Y-73147928D02*
X141357143Y-73147928D01*
X141357143Y-73147928D02*
X141214286Y-73076500D01*
X141214286Y-73076500D02*
X141142857Y-73005071D01*
X141142857Y-73005071D02*
X141071428Y-72862214D01*
X141071428Y-72862214D02*
X141000000Y-72576500D01*
X141000000Y-72576500D02*
X141000000Y-72219357D01*
X141000000Y-72219357D02*
X141071428Y-71933642D01*
X141071428Y-71933642D02*
X141142857Y-71790785D01*
X141142857Y-71790785D02*
X141214286Y-71719357D01*
X141214286Y-71719357D02*
X141357143Y-71647928D01*
X142785714Y-71647928D02*
X142928571Y-71647928D01*
X142928571Y-71647928D02*
X143071428Y-71719357D01*
X143071428Y-71719357D02*
X143142857Y-71790785D01*
X143142857Y-71790785D02*
X143214285Y-71933642D01*
X143214285Y-71933642D02*
X143285714Y-72219357D01*
X143285714Y-72219357D02*
X143285714Y-72576500D01*
X143285714Y-72576500D02*
X143214285Y-72862214D01*
X143214285Y-72862214D02*
X143142857Y-73005071D01*
X143142857Y-73005071D02*
X143071428Y-73076500D01*
X143071428Y-73076500D02*
X142928571Y-73147928D01*
X142928571Y-73147928D02*
X142785714Y-73147928D01*
X142785714Y-73147928D02*
X142642857Y-73076500D01*
X142642857Y-73076500D02*
X142571428Y-73005071D01*
X142571428Y-73005071D02*
X142499999Y-72862214D01*
X142499999Y-72862214D02*
X142428571Y-72576500D01*
X142428571Y-72576500D02*
X142428571Y-72219357D01*
X142428571Y-72219357D02*
X142499999Y-71933642D01*
X142499999Y-71933642D02*
X142571428Y-71790785D01*
X142571428Y-71790785D02*
X142642857Y-71719357D01*
X142642857Y-71719357D02*
X142785714Y-71647928D01*
X145071427Y-73147928D02*
X145071427Y-72147928D01*
X145071427Y-72290785D02*
X145142856Y-72219357D01*
X145142856Y-72219357D02*
X145285713Y-72147928D01*
X145285713Y-72147928D02*
X145499999Y-72147928D01*
X145499999Y-72147928D02*
X145642856Y-72219357D01*
X145642856Y-72219357D02*
X145714285Y-72362214D01*
X145714285Y-72362214D02*
X145714285Y-73147928D01*
X145714285Y-72362214D02*
X145785713Y-72219357D01*
X145785713Y-72219357D02*
X145928570Y-72147928D01*
X145928570Y-72147928D02*
X146142856Y-72147928D01*
X146142856Y-72147928D02*
X146285713Y-72219357D01*
X146285713Y-72219357D02*
X146357142Y-72362214D01*
X146357142Y-72362214D02*
X146357142Y-73147928D01*
X147071427Y-73147928D02*
X147071427Y-72147928D01*
X147071427Y-72290785D02*
X147142856Y-72219357D01*
X147142856Y-72219357D02*
X147285713Y-72147928D01*
X147285713Y-72147928D02*
X147499999Y-72147928D01*
X147499999Y-72147928D02*
X147642856Y-72219357D01*
X147642856Y-72219357D02*
X147714285Y-72362214D01*
X147714285Y-72362214D02*
X147714285Y-73147928D01*
X147714285Y-72362214D02*
X147785713Y-72219357D01*
X147785713Y-72219357D02*
X147928570Y-72147928D01*
X147928570Y-72147928D02*
X148142856Y-72147928D01*
X148142856Y-72147928D02*
X148285713Y-72219357D01*
X148285713Y-72219357D02*
X148357142Y-72362214D01*
X148357142Y-72362214D02*
X148357142Y-73147928D01*
D12*
X118500000Y-76500000D02*
X118500000Y-73683180D01*
X164500000Y-76500000D02*
X164500000Y-73683180D01*
X118500000Y-74269600D02*
X164500000Y-74269600D01*
X118500000Y-74269600D02*
X164500000Y-74269600D01*
X118500000Y-74269600D02*
X119626504Y-73683179D01*
X118500000Y-74269600D02*
X119626504Y-74856021D01*
X164500000Y-74269600D02*
X163373496Y-74856021D01*
X164500000Y-74269600D02*
X163373496Y-73683179D01*
D13*
%TO.P,J3,1,Pin_1*%
%TO.N,/Motor1*%
X142621000Y-102387400D03*
D14*
%TO.P,J3,2,Pin_2*%
%TO.N,GND*%
X145161000Y-102387400D03*
%TD*%
D13*
%TO.P,J4,1,Pin_1*%
%TO.N,/Motor1*%
X149098000Y-102362000D03*
D14*
%TO.P,J4,2,Pin_2*%
%TO.N,GND*%
X151638000Y-102362000D03*
%TD*%
D13*
%TO.P,J2,1,Pin_1*%
%TO.N,/MCU*%
X140995400Y-87497600D03*
D14*
%TO.P,J2,2,Pin_2*%
%TO.N,/GPIO*%
X143535400Y-87497600D03*
%TD*%
D15*
%TO.N,GND*%
X132500000Y-88000000D03*
X140500000Y-107500000D03*
X141000000Y-95000000D03*
X152000000Y-88000000D03*
%TD*%
%TA.AperFunction,Conductor*%
%TO.N,GND*%
G36*
X161639439Y-78708885D02*
G01*
X161685194Y-78761689D01*
X161696400Y-78813200D01*
X161696400Y-116284200D01*
X161676715Y-116351239D01*
X161623911Y-116396994D01*
X161572400Y-116408200D01*
X120342200Y-116408200D01*
X120275161Y-116388515D01*
X120229406Y-116335711D01*
X120218200Y-116284200D01*
X120218200Y-112118004D01*
X123699500Y-112118004D01*
X123699501Y-112118020D01*
X123730306Y-112352010D01*
X123791394Y-112579993D01*
X123881714Y-112798045D01*
X123881719Y-112798056D01*
X123952677Y-112920957D01*
X123999727Y-113002450D01*
X123999729Y-113002453D01*
X123999730Y-113002454D01*
X124143406Y-113189697D01*
X124143412Y-113189704D01*
X124310295Y-113356587D01*
X124310301Y-113356592D01*
X124497550Y-113500273D01*
X124628918Y-113576118D01*
X124701943Y-113618280D01*
X124701948Y-113618282D01*
X124701951Y-113618284D01*
X124920007Y-113708606D01*
X125147986Y-113769693D01*
X125381989Y-113800500D01*
X125381996Y-113800500D01*
X125618004Y-113800500D01*
X125618011Y-113800500D01*
X125852014Y-113769693D01*
X126079993Y-113708606D01*
X126298049Y-113618284D01*
X126502450Y-113500273D01*
X126689699Y-113356592D01*
X126856592Y-113189699D01*
X127000273Y-113002450D01*
X127118284Y-112798049D01*
X127208606Y-112579993D01*
X127269693Y-112352014D01*
X127300500Y-112118011D01*
X127300500Y-112118004D01*
X154699500Y-112118004D01*
X154699501Y-112118020D01*
X154730306Y-112352010D01*
X154791394Y-112579993D01*
X154881714Y-112798045D01*
X154881719Y-112798056D01*
X154952677Y-112920957D01*
X154999727Y-113002450D01*
X154999729Y-113002453D01*
X154999730Y-113002454D01*
X155143406Y-113189697D01*
X155143412Y-113189704D01*
X155310295Y-113356587D01*
X155310301Y-113356592D01*
X155497550Y-113500273D01*
X155628918Y-113576118D01*
X155701943Y-113618280D01*
X155701948Y-113618282D01*
X155701951Y-113618284D01*
X155920007Y-113708606D01*
X156147986Y-113769693D01*
X156381989Y-113800500D01*
X156381996Y-113800500D01*
X156618004Y-113800500D01*
X156618011Y-113800500D01*
X156852014Y-113769693D01*
X157079993Y-113708606D01*
X157298049Y-113618284D01*
X157502450Y-113500273D01*
X157689699Y-113356592D01*
X157856592Y-113189699D01*
X158000273Y-113002450D01*
X158118284Y-112798049D01*
X158208606Y-112579993D01*
X158269693Y-112352014D01*
X158300500Y-112118011D01*
X158300500Y-111881989D01*
X158269693Y-111647986D01*
X158208606Y-111420007D01*
X158118284Y-111201951D01*
X158118282Y-111201948D01*
X158118280Y-111201943D01*
X158076118Y-111128918D01*
X158000273Y-110997550D01*
X157856592Y-110810301D01*
X157856587Y-110810295D01*
X157689704Y-110643412D01*
X157689697Y-110643406D01*
X157502454Y-110499730D01*
X157502453Y-110499729D01*
X157502450Y-110499727D01*
X157420957Y-110452677D01*
X157298056Y-110381719D01*
X157298045Y-110381714D01*
X157079993Y-110291394D01*
X156852010Y-110230306D01*
X156618020Y-110199501D01*
X156618017Y-110199500D01*
X156618011Y-110199500D01*
X156381989Y-110199500D01*
X156381983Y-110199500D01*
X156381979Y-110199501D01*
X156147989Y-110230306D01*
X155920006Y-110291394D01*
X155701954Y-110381714D01*
X155701943Y-110381719D01*
X155497545Y-110499730D01*
X155310302Y-110643406D01*
X155310295Y-110643412D01*
X155143412Y-110810295D01*
X155143406Y-110810302D01*
X154999730Y-110997545D01*
X154881719Y-111201943D01*
X154881714Y-111201954D01*
X154791394Y-111420006D01*
X154730306Y-111647989D01*
X154699501Y-111881979D01*
X154699500Y-111881995D01*
X154699500Y-112118004D01*
X127300500Y-112118004D01*
X127300500Y-111881989D01*
X127269693Y-111647986D01*
X127208606Y-111420007D01*
X127118284Y-111201951D01*
X127118282Y-111201948D01*
X127118280Y-111201943D01*
X127076118Y-111128918D01*
X127000273Y-110997550D01*
X126856592Y-110810301D01*
X126856587Y-110810295D01*
X126689704Y-110643412D01*
X126689697Y-110643406D01*
X126502454Y-110499730D01*
X126502453Y-110499729D01*
X126502450Y-110499727D01*
X126420957Y-110452677D01*
X126298056Y-110381719D01*
X126298045Y-110381714D01*
X126079993Y-110291394D01*
X125852010Y-110230306D01*
X125618020Y-110199501D01*
X125618017Y-110199500D01*
X125618011Y-110199500D01*
X125381989Y-110199500D01*
X125381983Y-110199500D01*
X125381979Y-110199501D01*
X125147989Y-110230306D01*
X124920006Y-110291394D01*
X124701954Y-110381714D01*
X124701943Y-110381719D01*
X124497545Y-110499730D01*
X124310302Y-110643406D01*
X124310295Y-110643412D01*
X124143412Y-110810295D01*
X124143406Y-110810302D01*
X123999730Y-110997545D01*
X123881719Y-111201943D01*
X123881714Y-111201954D01*
X123791394Y-111420006D01*
X123730306Y-111647989D01*
X123699501Y-111881979D01*
X123699500Y-111881995D01*
X123699500Y-112118004D01*
X120218200Y-112118004D01*
X120218200Y-103282401D01*
X141250500Y-103282401D01*
X141250501Y-103282418D01*
X141261000Y-103385196D01*
X141261001Y-103385199D01*
X141298774Y-103499188D01*
X141316186Y-103551734D01*
X141408288Y-103701056D01*
X141532344Y-103825112D01*
X141681666Y-103917214D01*
X141848203Y-103972399D01*
X141950991Y-103982900D01*
X143291008Y-103982899D01*
X143393797Y-103972399D01*
X143560334Y-103917214D01*
X143709656Y-103825112D01*
X143833712Y-103701056D01*
X143925814Y-103551734D01*
X143925817Y-103551723D01*
X143926353Y-103550577D01*
X143926934Y-103549916D01*
X143929605Y-103545587D01*
X143930344Y-103546043D01*
X143972521Y-103498134D01*
X144039713Y-103478977D01*
X144106596Y-103499188D01*
X144126420Y-103515292D01*
X144268502Y-103657374D01*
X144442963Y-103784128D01*
X144635098Y-103882027D01*
X144840190Y-103948666D01*
X144911000Y-103959881D01*
X144911000Y-102930109D01*
X144931339Y-102941852D01*
X145082667Y-102982400D01*
X145239333Y-102982400D01*
X145390661Y-102941852D01*
X145411000Y-102930109D01*
X145411000Y-103959880D01*
X145481809Y-103948666D01*
X145686901Y-103882027D01*
X145879036Y-103784128D01*
X146053496Y-103657374D01*
X146053497Y-103657374D01*
X146205974Y-103504897D01*
X146205974Y-103504896D01*
X146332728Y-103330436D01*
X146370146Y-103257001D01*
X147727500Y-103257001D01*
X147727501Y-103257018D01*
X147738000Y-103359796D01*
X147738001Y-103359799D01*
X147793185Y-103526331D01*
X147793187Y-103526336D01*
X147807731Y-103549916D01*
X147885288Y-103675656D01*
X148009344Y-103799712D01*
X148158666Y-103891814D01*
X148325203Y-103946999D01*
X148427991Y-103957500D01*
X149768008Y-103957499D01*
X149870797Y-103946999D01*
X150037334Y-103891814D01*
X150186656Y-103799712D01*
X150310712Y-103675656D01*
X150402814Y-103526334D01*
X150402817Y-103526323D01*
X150403353Y-103525177D01*
X150403934Y-103524516D01*
X150406605Y-103520187D01*
X150407344Y-103520643D01*
X150449521Y-103472734D01*
X150516713Y-103453577D01*
X150583596Y-103473788D01*
X150603420Y-103489892D01*
X150745502Y-103631974D01*
X150919963Y-103758728D01*
X151112098Y-103856627D01*
X151317190Y-103923266D01*
X151388000Y-103934481D01*
X151388000Y-102904709D01*
X151408339Y-102916452D01*
X151559667Y-102957000D01*
X151716333Y-102957000D01*
X151867661Y-102916452D01*
X151888000Y-102904709D01*
X151888000Y-103934480D01*
X151958809Y-103923266D01*
X152163901Y-103856627D01*
X152356036Y-103758728D01*
X152530496Y-103631974D01*
X152530497Y-103631974D01*
X152682974Y-103479497D01*
X152682974Y-103479496D01*
X152809728Y-103305036D01*
X152907627Y-103112901D01*
X152974265Y-102907809D01*
X153008000Y-102694820D01*
X153008000Y-102612000D01*
X152180709Y-102612000D01*
X152192452Y-102591661D01*
X152233000Y-102440333D01*
X152233000Y-102283667D01*
X152192452Y-102132339D01*
X152180709Y-102112000D01*
X153008000Y-102112000D01*
X153008000Y-102029179D01*
X152974265Y-101816190D01*
X152907627Y-101611098D01*
X152809728Y-101418963D01*
X152682974Y-101244503D01*
X152682974Y-101244502D01*
X152530497Y-101092025D01*
X152356036Y-100965271D01*
X152163899Y-100867372D01*
X151958805Y-100800733D01*
X151888000Y-100789518D01*
X151888000Y-101819290D01*
X151867661Y-101807548D01*
X151716333Y-101767000D01*
X151559667Y-101767000D01*
X151408339Y-101807548D01*
X151388000Y-101819290D01*
X151388000Y-100789518D01*
X151387999Y-100789518D01*
X151317194Y-100800733D01*
X151112100Y-100867372D01*
X150919963Y-100965271D01*
X150745506Y-101092022D01*
X150603420Y-101234108D01*
X150542097Y-101267592D01*
X150472405Y-101262608D01*
X150416472Y-101220736D01*
X150403356Y-101198828D01*
X150402816Y-101197670D01*
X150337654Y-101092025D01*
X150310712Y-101048344D01*
X150186656Y-100924288D01*
X150037334Y-100832186D01*
X149870797Y-100777001D01*
X149870795Y-100777000D01*
X149768010Y-100766500D01*
X148427998Y-100766500D01*
X148427981Y-100766501D01*
X148325203Y-100777000D01*
X148325200Y-100777001D01*
X148158668Y-100832185D01*
X148158663Y-100832187D01*
X148009342Y-100924289D01*
X147885289Y-101048342D01*
X147793187Y-101197663D01*
X147793185Y-101197668D01*
X147771666Y-101262608D01*
X147738001Y-101364203D01*
X147738001Y-101364204D01*
X147738000Y-101364204D01*
X147727500Y-101466983D01*
X147727500Y-103257001D01*
X146370146Y-103257001D01*
X146430627Y-103138301D01*
X146497265Y-102933209D01*
X146531000Y-102720220D01*
X146531000Y-102637400D01*
X145703709Y-102637400D01*
X145715452Y-102617061D01*
X145756000Y-102465733D01*
X145756000Y-102309067D01*
X145715452Y-102157739D01*
X145703709Y-102137400D01*
X146531000Y-102137400D01*
X146531000Y-102054579D01*
X146497265Y-101841590D01*
X146430627Y-101636498D01*
X146332728Y-101444363D01*
X146205974Y-101269903D01*
X146205974Y-101269902D01*
X146053497Y-101117425D01*
X145879036Y-100990671D01*
X145686899Y-100892772D01*
X145481805Y-100826133D01*
X145411000Y-100814918D01*
X145411000Y-101844690D01*
X145390661Y-101832948D01*
X145239333Y-101792400D01*
X145082667Y-101792400D01*
X144931339Y-101832948D01*
X144911000Y-101844690D01*
X144911000Y-100814918D01*
X144910999Y-100814918D01*
X144840194Y-100826133D01*
X144635100Y-100892772D01*
X144442963Y-100990671D01*
X144268506Y-101117422D01*
X144126420Y-101259508D01*
X144065097Y-101292992D01*
X143995405Y-101288008D01*
X143939472Y-101246136D01*
X143926356Y-101224228D01*
X143925816Y-101223070D01*
X143925812Y-101223063D01*
X143833712Y-101073744D01*
X143709656Y-100949688D01*
X143560334Y-100857586D01*
X143393797Y-100802401D01*
X143393795Y-100802400D01*
X143291010Y-100791900D01*
X141950998Y-100791900D01*
X141950981Y-100791901D01*
X141848203Y-100802400D01*
X141848200Y-100802401D01*
X141681668Y-100857585D01*
X141681663Y-100857587D01*
X141532342Y-100949689D01*
X141408289Y-101073742D01*
X141316187Y-101223063D01*
X141316185Y-101223068D01*
X141300666Y-101269902D01*
X141261001Y-101389603D01*
X141261001Y-101389604D01*
X141261000Y-101389604D01*
X141250500Y-101492383D01*
X141250500Y-103282401D01*
X120218200Y-103282401D01*
X120218200Y-88392601D01*
X139624900Y-88392601D01*
X139624901Y-88392618D01*
X139635400Y-88495396D01*
X139635401Y-88495399D01*
X139672984Y-88608816D01*
X139690586Y-88661934D01*
X139782688Y-88811256D01*
X139906744Y-88935312D01*
X140056066Y-89027414D01*
X140222603Y-89082599D01*
X140325391Y-89093100D01*
X141665408Y-89093099D01*
X141768197Y-89082599D01*
X141934734Y-89027414D01*
X142084056Y-88935312D01*
X142208112Y-88811256D01*
X142300214Y-88661934D01*
X142300217Y-88661922D01*
X142300529Y-88661257D01*
X142300869Y-88660869D01*
X142304005Y-88655787D01*
X142304873Y-88656322D01*
X142346699Y-88608816D01*
X142413891Y-88589660D01*
X142480773Y-88609872D01*
X142500595Y-88625975D01*
X142642579Y-88767959D01*
X142817101Y-88894757D01*
X143009311Y-88992692D01*
X143214474Y-89059354D01*
X143294373Y-89072008D01*
X143427534Y-89093100D01*
X143427539Y-89093100D01*
X143643266Y-89093100D01*
X143761630Y-89074352D01*
X143856326Y-89059354D01*
X144061489Y-88992692D01*
X144253699Y-88894757D01*
X144428221Y-88767959D01*
X144580759Y-88615421D01*
X144707557Y-88440899D01*
X144805492Y-88248689D01*
X144872154Y-88043526D01*
X144887152Y-87948830D01*
X144905900Y-87830466D01*
X144905900Y-87164733D01*
X144872154Y-86951677D01*
X144872154Y-86951674D01*
X144805492Y-86746511D01*
X144707557Y-86554301D01*
X144580759Y-86379779D01*
X144428221Y-86227241D01*
X144253699Y-86100443D01*
X144061489Y-86002508D01*
X143856326Y-85935846D01*
X143856324Y-85935845D01*
X143856322Y-85935845D01*
X143643266Y-85902100D01*
X143643261Y-85902100D01*
X143427539Y-85902100D01*
X143427534Y-85902100D01*
X143214477Y-85935845D01*
X143009308Y-86002509D01*
X142817100Y-86100443D01*
X142642580Y-86227240D01*
X142500595Y-86369225D01*
X142439272Y-86402709D01*
X142369580Y-86397725D01*
X142313647Y-86355853D01*
X142300532Y-86333948D01*
X142300215Y-86333269D01*
X142300214Y-86333268D01*
X142300214Y-86333266D01*
X142208112Y-86183944D01*
X142084056Y-86059888D01*
X141934734Y-85967786D01*
X141768197Y-85912601D01*
X141768195Y-85912600D01*
X141665410Y-85902100D01*
X140325398Y-85902100D01*
X140325381Y-85902101D01*
X140222603Y-85912600D01*
X140222600Y-85912601D01*
X140056068Y-85967785D01*
X140056063Y-85967787D01*
X139906742Y-86059889D01*
X139782689Y-86183942D01*
X139690587Y-86333263D01*
X139690586Y-86333266D01*
X139635401Y-86499803D01*
X139635401Y-86499804D01*
X139635400Y-86499804D01*
X139624900Y-86602583D01*
X139624900Y-88392601D01*
X120218200Y-88392601D01*
X120218200Y-83118004D01*
X123699500Y-83118004D01*
X123699501Y-83118020D01*
X123730306Y-83352010D01*
X123791394Y-83579993D01*
X123881714Y-83798045D01*
X123881719Y-83798056D01*
X123952677Y-83920957D01*
X123999727Y-84002450D01*
X123999729Y-84002453D01*
X123999730Y-84002454D01*
X124143406Y-84189697D01*
X124143412Y-84189704D01*
X124310295Y-84356587D01*
X124310301Y-84356592D01*
X124497550Y-84500273D01*
X124628918Y-84576118D01*
X124701943Y-84618280D01*
X124701948Y-84618282D01*
X124701951Y-84618284D01*
X124920007Y-84708606D01*
X125147986Y-84769693D01*
X125381989Y-84800500D01*
X125381996Y-84800500D01*
X125618004Y-84800500D01*
X125618011Y-84800500D01*
X125852014Y-84769693D01*
X126079993Y-84708606D01*
X126298049Y-84618284D01*
X126502450Y-84500273D01*
X126689699Y-84356592D01*
X126856592Y-84189699D01*
X127000273Y-84002450D01*
X127118284Y-83798049D01*
X127208606Y-83579993D01*
X127269693Y-83352014D01*
X127300500Y-83118011D01*
X127300500Y-83118004D01*
X154699500Y-83118004D01*
X154699501Y-83118020D01*
X154730306Y-83352010D01*
X154791394Y-83579993D01*
X154881714Y-83798045D01*
X154881719Y-83798056D01*
X154952677Y-83920957D01*
X154999727Y-84002450D01*
X154999729Y-84002453D01*
X154999730Y-84002454D01*
X155143406Y-84189697D01*
X155143412Y-84189704D01*
X155310295Y-84356587D01*
X155310301Y-84356592D01*
X155497550Y-84500273D01*
X155628918Y-84576118D01*
X155701943Y-84618280D01*
X155701948Y-84618282D01*
X155701951Y-84618284D01*
X155920007Y-84708606D01*
X156147986Y-84769693D01*
X156381989Y-84800500D01*
X156381996Y-84800500D01*
X156618004Y-84800500D01*
X156618011Y-84800500D01*
X156852014Y-84769693D01*
X157079993Y-84708606D01*
X157298049Y-84618284D01*
X157502450Y-84500273D01*
X157689699Y-84356592D01*
X157856592Y-84189699D01*
X158000273Y-84002450D01*
X158118284Y-83798049D01*
X158208606Y-83579993D01*
X158269693Y-83352014D01*
X158300500Y-83118011D01*
X158300500Y-82881989D01*
X158269693Y-82647986D01*
X158208606Y-82420007D01*
X158118284Y-82201951D01*
X158118282Y-82201948D01*
X158118280Y-82201943D01*
X158076118Y-82128918D01*
X158000273Y-81997550D01*
X157856592Y-81810301D01*
X157856587Y-81810295D01*
X157689704Y-81643412D01*
X157689697Y-81643406D01*
X157502454Y-81499730D01*
X157502453Y-81499729D01*
X157502450Y-81499727D01*
X157420957Y-81452677D01*
X157298056Y-81381719D01*
X157298045Y-81381714D01*
X157079993Y-81291394D01*
X156852010Y-81230306D01*
X156618020Y-81199501D01*
X156618017Y-81199500D01*
X156618011Y-81199500D01*
X156381989Y-81199500D01*
X156381983Y-81199500D01*
X156381979Y-81199501D01*
X156147989Y-81230306D01*
X155920006Y-81291394D01*
X155701954Y-81381714D01*
X155701943Y-81381719D01*
X155497545Y-81499730D01*
X155310302Y-81643406D01*
X155310295Y-81643412D01*
X155143412Y-81810295D01*
X155143406Y-81810302D01*
X154999730Y-81997545D01*
X154881719Y-82201943D01*
X154881714Y-82201954D01*
X154791394Y-82420006D01*
X154730306Y-82647989D01*
X154699501Y-82881979D01*
X154699500Y-82881995D01*
X154699500Y-83118004D01*
X127300500Y-83118004D01*
X127300500Y-82881989D01*
X127269693Y-82647986D01*
X127208606Y-82420007D01*
X127118284Y-82201951D01*
X127118282Y-82201948D01*
X127118280Y-82201943D01*
X127076118Y-82128918D01*
X127000273Y-81997550D01*
X126856592Y-81810301D01*
X126856587Y-81810295D01*
X126689704Y-81643412D01*
X126689697Y-81643406D01*
X126502454Y-81499730D01*
X126502453Y-81499729D01*
X126502450Y-81499727D01*
X126420957Y-81452677D01*
X126298056Y-81381719D01*
X126298045Y-81381714D01*
X126079993Y-81291394D01*
X125852010Y-81230306D01*
X125618020Y-81199501D01*
X125618017Y-81199500D01*
X125618011Y-81199500D01*
X125381989Y-81199500D01*
X125381983Y-81199500D01*
X125381979Y-81199501D01*
X125147989Y-81230306D01*
X124920006Y-81291394D01*
X124701954Y-81381714D01*
X124701943Y-81381719D01*
X124497545Y-81499730D01*
X124310302Y-81643406D01*
X124310295Y-81643412D01*
X124143412Y-81810295D01*
X124143406Y-81810302D01*
X123999730Y-81997545D01*
X123881719Y-82201943D01*
X123881714Y-82201954D01*
X123791394Y-82420006D01*
X123730306Y-82647989D01*
X123699501Y-82881979D01*
X123699500Y-82881995D01*
X123699500Y-83118004D01*
X120218200Y-83118004D01*
X120218200Y-78813200D01*
X120237885Y-78746161D01*
X120290689Y-78700406D01*
X120342200Y-78689200D01*
X161572400Y-78689200D01*
X161639439Y-78708885D01*
G37*
%TD.AperFunction*%
%TD*%
M02*
