M48
; DRILL file {KiCad 8.0.0} date 2024-03-04T18:11:25-0600
; FORMAT={-:-/ absolute / inch / decimal}
; #@! TF.CreationDate,2024-03-04T18:11:25-06:00
; #@! TF.GenerationSoftware,Kicad,Pcbnew,8.0.0
; #@! TF.FileFunction,MixedPlating,1,2
FMAT,2
INCH
; #@! TA.AperFunction,Plated,PTH,ViaDrill
T1C0.0118
; #@! TA.AperFunction,Plated,PTH,ComponentDrill
T2C0.0394
; #@! TA.AperFunction,NonPlated,NPTH,ComponentDrill
T3C0.1260
%
G90
G05
T1
X4.127Y-3.262
X4.19Y-3.71
X4.3287Y-4.3363
X4.36Y-3.92
X4.385Y-3.325
X4.385Y-3.53
X4.5Y-4.14
X4.52Y-3.635
X4.55Y-3.28
X4.56Y-3.905
X4.59Y-4.14
X4.62Y-3.325
X4.69Y-3.59
X4.73Y-3.37
X4.73Y-3.55
X4.76Y-3.42
X4.845Y-3.625
X4.85Y-4.14
X4.89Y-3.345
X4.89Y-3.625
X4.89Y-3.675
X4.89Y-3.735
X4.89Y-3.79
X4.89Y-3.85
X4.915Y-3.96
T2
X3.98Y-3.885
X3.98Y-4.075
T3
X3.95Y-3.15
X3.95Y-4.44
X5.16Y-3.15
X5.16Y-4.44
M30
