G04 #@! TF.GenerationSoftware,KiCad,Pcbnew,8.0.0*
G04 #@! TF.CreationDate,2024-03-04T18:11:22-06:00*
G04 #@! TF.ProjectId,InertialMeasurementUnitBoard,496e6572-7469-4616-9c4d-656173757265,rev?*
G04 #@! TF.SameCoordinates,Original*
G04 #@! TF.FileFunction,Copper,L1,Top*
G04 #@! TF.FilePolarity,Positive*
%FSLAX46Y46*%
G04 Gerber Fmt 4.6, Leading zero omitted, Abs format (unit mm)*
G04 Created by KiCad (PCBNEW 8.0.0) date 2024-03-04 18:11:22*
%MOMM*%
%LPD*%
G01*
G04 APERTURE LIST*
G04 Aperture macros list*
%AMRoundRect*
0 Rectangle with rounded corners*
0 $1 Rounding radius*
0 $2 $3 $4 $5 $6 $7 $8 $9 X,Y pos of 4 corners*
0 Add a 4 corners polygon primitive as box body*
4,1,4,$2,$3,$4,$5,$6,$7,$8,$9,$2,$3,0*
0 Add four circle primitives for the rounded corners*
1,1,$1+$1,$2,$3*
1,1,$1+$1,$4,$5*
1,1,$1+$1,$6,$7*
1,1,$1+$1,$8,$9*
0 Add four rect primitives between the rounded corners*
20,1,$1+$1,$2,$3,$4,$5,0*
20,1,$1+$1,$4,$5,$6,$7,0*
20,1,$1+$1,$6,$7,$8,$9,0*
20,1,$1+$1,$8,$9,$2,$3,0*%
G04 Aperture macros list end*
%ADD10C,0.200000*%
G04 #@! TA.AperFunction,NonConductor*
%ADD11C,0.200000*%
G04 #@! TD*
G04 #@! TA.AperFunction,SMDPad,CuDef*
%ADD12R,1.168400X1.600200*%
G04 #@! TD*
G04 #@! TA.AperFunction,SMDPad,CuDef*
%ADD13RoundRect,0.250000X0.450000X-0.350000X0.450000X0.350000X-0.450000X0.350000X-0.450000X-0.350000X0*%
G04 #@! TD*
G04 #@! TA.AperFunction,SMDPad,CuDef*
%ADD14RoundRect,0.020500X-0.764500X-0.184500X0.764500X-0.184500X0.764500X0.184500X-0.764500X0.184500X0*%
G04 #@! TD*
G04 #@! TA.AperFunction,ComponentPad*
%ADD15C,2.000000*%
G04 #@! TD*
G04 #@! TA.AperFunction,SMDPad,CuDef*
%ADD16R,0.250000X0.675000*%
G04 #@! TD*
G04 #@! TA.AperFunction,SMDPad,CuDef*
%ADD17R,0.575000X0.250000*%
G04 #@! TD*
G04 #@! TA.AperFunction,SMDPad,CuDef*
%ADD18RoundRect,0.250000X-0.475000X0.337500X-0.475000X-0.337500X0.475000X-0.337500X0.475000X0.337500X0*%
G04 #@! TD*
G04 #@! TA.AperFunction,SMDPad,CuDef*
%ADD19RoundRect,0.250000X0.350000X0.450000X-0.350000X0.450000X-0.350000X-0.450000X0.350000X-0.450000X0*%
G04 #@! TD*
G04 #@! TA.AperFunction,SMDPad,CuDef*
%ADD20RoundRect,0.250000X-0.450000X0.350000X-0.450000X-0.350000X0.450000X-0.350000X0.450000X0.350000X0*%
G04 #@! TD*
G04 #@! TA.AperFunction,SMDPad,CuDef*
%ADD21RoundRect,0.250000X0.337500X0.475000X-0.337500X0.475000X-0.337500X-0.475000X0.337500X-0.475000X0*%
G04 #@! TD*
G04 #@! TA.AperFunction,SMDPad,CuDef*
%ADD22R,3.500000X1.000000*%
G04 #@! TD*
G04 #@! TA.AperFunction,SMDPad,CuDef*
%ADD23R,3.400000X1.500000*%
G04 #@! TD*
G04 #@! TA.AperFunction,SMDPad,CuDef*
%ADD24RoundRect,0.237500X0.237500X-0.287500X0.237500X0.287500X-0.237500X0.287500X-0.237500X-0.287500X0*%
G04 #@! TD*
G04 #@! TA.AperFunction,SMDPad,CuDef*
%ADD25RoundRect,0.237500X-0.237500X0.300000X-0.237500X-0.300000X0.237500X-0.300000X0.237500X0.300000X0*%
G04 #@! TD*
G04 #@! TA.AperFunction,SMDPad,CuDef*
%ADD26R,1.000000X0.400000*%
G04 #@! TD*
G04 #@! TA.AperFunction,SMDPad,CuDef*
%ADD27R,1.300000X2.000000*%
G04 #@! TD*
G04 #@! TA.AperFunction,ViaPad*
%ADD28C,0.610000*%
G04 #@! TD*
G04 #@! TA.AperFunction,Conductor*
%ADD29C,0.254000*%
G04 #@! TD*
G04 #@! TA.AperFunction,Conductor*
%ADD30C,0.203200*%
G04 #@! TD*
G04 #@! TA.AperFunction,Conductor*
%ADD31C,0.508000*%
G04 #@! TD*
G04 APERTURE END LIST*
D10*
D11*
X111030334Y-72039219D02*
X111649381Y-72039219D01*
X111649381Y-72039219D02*
X111316048Y-72420171D01*
X111316048Y-72420171D02*
X111458905Y-72420171D01*
X111458905Y-72420171D02*
X111554143Y-72467790D01*
X111554143Y-72467790D02*
X111601762Y-72515409D01*
X111601762Y-72515409D02*
X111649381Y-72610647D01*
X111649381Y-72610647D02*
X111649381Y-72848742D01*
X111649381Y-72848742D02*
X111601762Y-72943980D01*
X111601762Y-72943980D02*
X111554143Y-72991600D01*
X111554143Y-72991600D02*
X111458905Y-73039219D01*
X111458905Y-73039219D02*
X111173191Y-73039219D01*
X111173191Y-73039219D02*
X111077953Y-72991600D01*
X111077953Y-72991600D02*
X111030334Y-72943980D01*
X112220810Y-72467790D02*
X112125572Y-72420171D01*
X112125572Y-72420171D02*
X112077953Y-72372552D01*
X112077953Y-72372552D02*
X112030334Y-72277314D01*
X112030334Y-72277314D02*
X112030334Y-72229695D01*
X112030334Y-72229695D02*
X112077953Y-72134457D01*
X112077953Y-72134457D02*
X112125572Y-72086838D01*
X112125572Y-72086838D02*
X112220810Y-72039219D01*
X112220810Y-72039219D02*
X112411286Y-72039219D01*
X112411286Y-72039219D02*
X112506524Y-72086838D01*
X112506524Y-72086838D02*
X112554143Y-72134457D01*
X112554143Y-72134457D02*
X112601762Y-72229695D01*
X112601762Y-72229695D02*
X112601762Y-72277314D01*
X112601762Y-72277314D02*
X112554143Y-72372552D01*
X112554143Y-72372552D02*
X112506524Y-72420171D01*
X112506524Y-72420171D02*
X112411286Y-72467790D01*
X112411286Y-72467790D02*
X112220810Y-72467790D01*
X112220810Y-72467790D02*
X112125572Y-72515409D01*
X112125572Y-72515409D02*
X112077953Y-72563028D01*
X112077953Y-72563028D02*
X112030334Y-72658266D01*
X112030334Y-72658266D02*
X112030334Y-72848742D01*
X112030334Y-72848742D02*
X112077953Y-72943980D01*
X112077953Y-72943980D02*
X112125572Y-72991600D01*
X112125572Y-72991600D02*
X112220810Y-73039219D01*
X112220810Y-73039219D02*
X112411286Y-73039219D01*
X112411286Y-73039219D02*
X112506524Y-72991600D01*
X112506524Y-72991600D02*
X112554143Y-72943980D01*
X112554143Y-72943980D02*
X112601762Y-72848742D01*
X112601762Y-72848742D02*
X112601762Y-72658266D01*
X112601762Y-72658266D02*
X112554143Y-72563028D01*
X112554143Y-72563028D02*
X112506524Y-72515409D01*
X112506524Y-72515409D02*
X112411286Y-72467790D01*
X113030334Y-72943980D02*
X113077953Y-72991600D01*
X113077953Y-72991600D02*
X113030334Y-73039219D01*
X113030334Y-73039219D02*
X112982715Y-72991600D01*
X112982715Y-72991600D02*
X113030334Y-72943980D01*
X113030334Y-72943980D02*
X113030334Y-73039219D01*
X113935095Y-72039219D02*
X113744619Y-72039219D01*
X113744619Y-72039219D02*
X113649381Y-72086838D01*
X113649381Y-72086838D02*
X113601762Y-72134457D01*
X113601762Y-72134457D02*
X113506524Y-72277314D01*
X113506524Y-72277314D02*
X113458905Y-72467790D01*
X113458905Y-72467790D02*
X113458905Y-72848742D01*
X113458905Y-72848742D02*
X113506524Y-72943980D01*
X113506524Y-72943980D02*
X113554143Y-72991600D01*
X113554143Y-72991600D02*
X113649381Y-73039219D01*
X113649381Y-73039219D02*
X113839857Y-73039219D01*
X113839857Y-73039219D02*
X113935095Y-72991600D01*
X113935095Y-72991600D02*
X113982714Y-72943980D01*
X113982714Y-72943980D02*
X114030333Y-72848742D01*
X114030333Y-72848742D02*
X114030333Y-72610647D01*
X114030333Y-72610647D02*
X113982714Y-72515409D01*
X113982714Y-72515409D02*
X113935095Y-72467790D01*
X113935095Y-72467790D02*
X113839857Y-72420171D01*
X113839857Y-72420171D02*
X113649381Y-72420171D01*
X113649381Y-72420171D02*
X113554143Y-72467790D01*
X113554143Y-72467790D02*
X113506524Y-72515409D01*
X113506524Y-72515409D02*
X113458905Y-72610647D01*
X114649381Y-72039219D02*
X114744619Y-72039219D01*
X114744619Y-72039219D02*
X114839857Y-72086838D01*
X114839857Y-72086838D02*
X114887476Y-72134457D01*
X114887476Y-72134457D02*
X114935095Y-72229695D01*
X114935095Y-72229695D02*
X114982714Y-72420171D01*
X114982714Y-72420171D02*
X114982714Y-72658266D01*
X114982714Y-72658266D02*
X114935095Y-72848742D01*
X114935095Y-72848742D02*
X114887476Y-72943980D01*
X114887476Y-72943980D02*
X114839857Y-72991600D01*
X114839857Y-72991600D02*
X114744619Y-73039219D01*
X114744619Y-73039219D02*
X114649381Y-73039219D01*
X114649381Y-73039219D02*
X114554143Y-72991600D01*
X114554143Y-72991600D02*
X114506524Y-72943980D01*
X114506524Y-72943980D02*
X114458905Y-72848742D01*
X114458905Y-72848742D02*
X114411286Y-72658266D01*
X114411286Y-72658266D02*
X114411286Y-72420171D01*
X114411286Y-72420171D02*
X114458905Y-72229695D01*
X114458905Y-72229695D02*
X114506524Y-72134457D01*
X114506524Y-72134457D02*
X114554143Y-72086838D01*
X114554143Y-72086838D02*
X114649381Y-72039219D01*
X115554143Y-72467790D02*
X115458905Y-72420171D01*
X115458905Y-72420171D02*
X115411286Y-72372552D01*
X115411286Y-72372552D02*
X115363667Y-72277314D01*
X115363667Y-72277314D02*
X115363667Y-72229695D01*
X115363667Y-72229695D02*
X115411286Y-72134457D01*
X115411286Y-72134457D02*
X115458905Y-72086838D01*
X115458905Y-72086838D02*
X115554143Y-72039219D01*
X115554143Y-72039219D02*
X115744619Y-72039219D01*
X115744619Y-72039219D02*
X115839857Y-72086838D01*
X115839857Y-72086838D02*
X115887476Y-72134457D01*
X115887476Y-72134457D02*
X115935095Y-72229695D01*
X115935095Y-72229695D02*
X115935095Y-72277314D01*
X115935095Y-72277314D02*
X115887476Y-72372552D01*
X115887476Y-72372552D02*
X115839857Y-72420171D01*
X115839857Y-72420171D02*
X115744619Y-72467790D01*
X115744619Y-72467790D02*
X115554143Y-72467790D01*
X115554143Y-72467790D02*
X115458905Y-72515409D01*
X115458905Y-72515409D02*
X115411286Y-72563028D01*
X115411286Y-72563028D02*
X115363667Y-72658266D01*
X115363667Y-72658266D02*
X115363667Y-72848742D01*
X115363667Y-72848742D02*
X115411286Y-72943980D01*
X115411286Y-72943980D02*
X115458905Y-72991600D01*
X115458905Y-72991600D02*
X115554143Y-73039219D01*
X115554143Y-73039219D02*
X115744619Y-73039219D01*
X115744619Y-73039219D02*
X115839857Y-72991600D01*
X115839857Y-72991600D02*
X115887476Y-72943980D01*
X115887476Y-72943980D02*
X115935095Y-72848742D01*
X115935095Y-72848742D02*
X115935095Y-72658266D01*
X115935095Y-72658266D02*
X115887476Y-72563028D01*
X115887476Y-72563028D02*
X115839857Y-72515409D01*
X115839857Y-72515409D02*
X115744619Y-72467790D01*
X116554143Y-72039219D02*
X116649381Y-72039219D01*
X116649381Y-72039219D02*
X116744619Y-72086838D01*
X116744619Y-72086838D02*
X116792238Y-72134457D01*
X116792238Y-72134457D02*
X116839857Y-72229695D01*
X116839857Y-72229695D02*
X116887476Y-72420171D01*
X116887476Y-72420171D02*
X116887476Y-72658266D01*
X116887476Y-72658266D02*
X116839857Y-72848742D01*
X116839857Y-72848742D02*
X116792238Y-72943980D01*
X116792238Y-72943980D02*
X116744619Y-72991600D01*
X116744619Y-72991600D02*
X116649381Y-73039219D01*
X116649381Y-73039219D02*
X116554143Y-73039219D01*
X116554143Y-73039219D02*
X116458905Y-72991600D01*
X116458905Y-72991600D02*
X116411286Y-72943980D01*
X116411286Y-72943980D02*
X116363667Y-72848742D01*
X116363667Y-72848742D02*
X116316048Y-72658266D01*
X116316048Y-72658266D02*
X116316048Y-72420171D01*
X116316048Y-72420171D02*
X116363667Y-72229695D01*
X116363667Y-72229695D02*
X116411286Y-72134457D01*
X116411286Y-72134457D02*
X116458905Y-72086838D01*
X116458905Y-72086838D02*
X116554143Y-72039219D01*
X118077953Y-73039219D02*
X118077953Y-72372552D01*
X118077953Y-72467790D02*
X118125572Y-72420171D01*
X118125572Y-72420171D02*
X118220810Y-72372552D01*
X118220810Y-72372552D02*
X118363667Y-72372552D01*
X118363667Y-72372552D02*
X118458905Y-72420171D01*
X118458905Y-72420171D02*
X118506524Y-72515409D01*
X118506524Y-72515409D02*
X118506524Y-73039219D01*
X118506524Y-72515409D02*
X118554143Y-72420171D01*
X118554143Y-72420171D02*
X118649381Y-72372552D01*
X118649381Y-72372552D02*
X118792238Y-72372552D01*
X118792238Y-72372552D02*
X118887477Y-72420171D01*
X118887477Y-72420171D02*
X118935096Y-72515409D01*
X118935096Y-72515409D02*
X118935096Y-73039219D01*
X119411286Y-73039219D02*
X119411286Y-72372552D01*
X119411286Y-72467790D02*
X119458905Y-72420171D01*
X119458905Y-72420171D02*
X119554143Y-72372552D01*
X119554143Y-72372552D02*
X119697000Y-72372552D01*
X119697000Y-72372552D02*
X119792238Y-72420171D01*
X119792238Y-72420171D02*
X119839857Y-72515409D01*
X119839857Y-72515409D02*
X119839857Y-73039219D01*
X119839857Y-72515409D02*
X119887476Y-72420171D01*
X119887476Y-72420171D02*
X119982714Y-72372552D01*
X119982714Y-72372552D02*
X120125571Y-72372552D01*
X120125571Y-72372552D02*
X120220810Y-72420171D01*
X120220810Y-72420171D02*
X120268429Y-72515409D01*
X120268429Y-72515409D02*
X120268429Y-73039219D01*
X96393000Y-75573000D02*
X96393000Y-73200580D01*
X135001000Y-75573000D02*
X135001000Y-73200580D01*
X96393000Y-73787000D02*
X135001000Y-73787000D01*
X96393000Y-73787000D02*
X135001000Y-73787000D01*
X96393000Y-73787000D02*
X97519504Y-73200579D01*
X96393000Y-73787000D02*
X97519504Y-74373421D01*
X135001000Y-73787000D02*
X133874496Y-74373421D01*
X135001000Y-73787000D02*
X133874496Y-73200579D01*
D10*
D11*
X93073552Y-100535856D02*
X93740219Y-100535856D01*
X92692600Y-100773951D02*
X93406885Y-101012046D01*
X93406885Y-101012046D02*
X93406885Y-100392999D01*
X92740219Y-99821570D02*
X92740219Y-99726332D01*
X92740219Y-99726332D02*
X92787838Y-99631094D01*
X92787838Y-99631094D02*
X92835457Y-99583475D01*
X92835457Y-99583475D02*
X92930695Y-99535856D01*
X92930695Y-99535856D02*
X93121171Y-99488237D01*
X93121171Y-99488237D02*
X93359266Y-99488237D01*
X93359266Y-99488237D02*
X93549742Y-99535856D01*
X93549742Y-99535856D02*
X93644980Y-99583475D01*
X93644980Y-99583475D02*
X93692600Y-99631094D01*
X93692600Y-99631094D02*
X93740219Y-99726332D01*
X93740219Y-99726332D02*
X93740219Y-99821570D01*
X93740219Y-99821570D02*
X93692600Y-99916808D01*
X93692600Y-99916808D02*
X93644980Y-99964427D01*
X93644980Y-99964427D02*
X93549742Y-100012046D01*
X93549742Y-100012046D02*
X93359266Y-100059665D01*
X93359266Y-100059665D02*
X93121171Y-100059665D01*
X93121171Y-100059665D02*
X92930695Y-100012046D01*
X92930695Y-100012046D02*
X92835457Y-99964427D01*
X92835457Y-99964427D02*
X92787838Y-99916808D01*
X92787838Y-99916808D02*
X92740219Y-99821570D01*
X93644980Y-99059665D02*
X93692600Y-99012046D01*
X93692600Y-99012046D02*
X93740219Y-99059665D01*
X93740219Y-99059665D02*
X93692600Y-99107284D01*
X93692600Y-99107284D02*
X93644980Y-99059665D01*
X93644980Y-99059665D02*
X93740219Y-99059665D01*
X92740219Y-98154904D02*
X92740219Y-98345380D01*
X92740219Y-98345380D02*
X92787838Y-98440618D01*
X92787838Y-98440618D02*
X92835457Y-98488237D01*
X92835457Y-98488237D02*
X92978314Y-98583475D01*
X92978314Y-98583475D02*
X93168790Y-98631094D01*
X93168790Y-98631094D02*
X93549742Y-98631094D01*
X93549742Y-98631094D02*
X93644980Y-98583475D01*
X93644980Y-98583475D02*
X93692600Y-98535856D01*
X93692600Y-98535856D02*
X93740219Y-98440618D01*
X93740219Y-98440618D02*
X93740219Y-98250142D01*
X93740219Y-98250142D02*
X93692600Y-98154904D01*
X93692600Y-98154904D02*
X93644980Y-98107285D01*
X93644980Y-98107285D02*
X93549742Y-98059666D01*
X93549742Y-98059666D02*
X93311647Y-98059666D01*
X93311647Y-98059666D02*
X93216409Y-98107285D01*
X93216409Y-98107285D02*
X93168790Y-98154904D01*
X93168790Y-98154904D02*
X93121171Y-98250142D01*
X93121171Y-98250142D02*
X93121171Y-98440618D01*
X93121171Y-98440618D02*
X93168790Y-98535856D01*
X93168790Y-98535856D02*
X93216409Y-98583475D01*
X93216409Y-98583475D02*
X93311647Y-98631094D01*
X93073552Y-97202523D02*
X93740219Y-97202523D01*
X92692600Y-97440618D02*
X93406885Y-97678713D01*
X93406885Y-97678713D02*
X93406885Y-97059666D01*
X92740219Y-96488237D02*
X92740219Y-96392999D01*
X92740219Y-96392999D02*
X92787838Y-96297761D01*
X92787838Y-96297761D02*
X92835457Y-96250142D01*
X92835457Y-96250142D02*
X92930695Y-96202523D01*
X92930695Y-96202523D02*
X93121171Y-96154904D01*
X93121171Y-96154904D02*
X93359266Y-96154904D01*
X93359266Y-96154904D02*
X93549742Y-96202523D01*
X93549742Y-96202523D02*
X93644980Y-96250142D01*
X93644980Y-96250142D02*
X93692600Y-96297761D01*
X93692600Y-96297761D02*
X93740219Y-96392999D01*
X93740219Y-96392999D02*
X93740219Y-96488237D01*
X93740219Y-96488237D02*
X93692600Y-96583475D01*
X93692600Y-96583475D02*
X93644980Y-96631094D01*
X93644980Y-96631094D02*
X93549742Y-96678713D01*
X93549742Y-96678713D02*
X93359266Y-96726332D01*
X93359266Y-96726332D02*
X93121171Y-96726332D01*
X93121171Y-96726332D02*
X92930695Y-96678713D01*
X92930695Y-96678713D02*
X92835457Y-96631094D01*
X92835457Y-96631094D02*
X92787838Y-96583475D01*
X92787838Y-96583475D02*
X92740219Y-96488237D01*
X92740219Y-95535856D02*
X92740219Y-95440618D01*
X92740219Y-95440618D02*
X92787838Y-95345380D01*
X92787838Y-95345380D02*
X92835457Y-95297761D01*
X92835457Y-95297761D02*
X92930695Y-95250142D01*
X92930695Y-95250142D02*
X93121171Y-95202523D01*
X93121171Y-95202523D02*
X93359266Y-95202523D01*
X93359266Y-95202523D02*
X93549742Y-95250142D01*
X93549742Y-95250142D02*
X93644980Y-95297761D01*
X93644980Y-95297761D02*
X93692600Y-95345380D01*
X93692600Y-95345380D02*
X93740219Y-95440618D01*
X93740219Y-95440618D02*
X93740219Y-95535856D01*
X93740219Y-95535856D02*
X93692600Y-95631094D01*
X93692600Y-95631094D02*
X93644980Y-95678713D01*
X93644980Y-95678713D02*
X93549742Y-95726332D01*
X93549742Y-95726332D02*
X93359266Y-95773951D01*
X93359266Y-95773951D02*
X93121171Y-95773951D01*
X93121171Y-95773951D02*
X92930695Y-95726332D01*
X92930695Y-95726332D02*
X92835457Y-95678713D01*
X92835457Y-95678713D02*
X92787838Y-95631094D01*
X92787838Y-95631094D02*
X92740219Y-95535856D01*
X93740219Y-94012046D02*
X93073552Y-94012046D01*
X93168790Y-94012046D02*
X93121171Y-93964427D01*
X93121171Y-93964427D02*
X93073552Y-93869189D01*
X93073552Y-93869189D02*
X93073552Y-93726332D01*
X93073552Y-93726332D02*
X93121171Y-93631094D01*
X93121171Y-93631094D02*
X93216409Y-93583475D01*
X93216409Y-93583475D02*
X93740219Y-93583475D01*
X93216409Y-93583475D02*
X93121171Y-93535856D01*
X93121171Y-93535856D02*
X93073552Y-93440618D01*
X93073552Y-93440618D02*
X93073552Y-93297761D01*
X93073552Y-93297761D02*
X93121171Y-93202522D01*
X93121171Y-93202522D02*
X93216409Y-93154903D01*
X93216409Y-93154903D02*
X93740219Y-93154903D01*
X93740219Y-92678713D02*
X93073552Y-92678713D01*
X93168790Y-92678713D02*
X93121171Y-92631094D01*
X93121171Y-92631094D02*
X93073552Y-92535856D01*
X93073552Y-92535856D02*
X93073552Y-92392999D01*
X93073552Y-92392999D02*
X93121171Y-92297761D01*
X93121171Y-92297761D02*
X93216409Y-92250142D01*
X93216409Y-92250142D02*
X93740219Y-92250142D01*
X93216409Y-92250142D02*
X93121171Y-92202523D01*
X93121171Y-92202523D02*
X93073552Y-92107285D01*
X93073552Y-92107285D02*
X93073552Y-91964428D01*
X93073552Y-91964428D02*
X93121171Y-91869189D01*
X93121171Y-91869189D02*
X93216409Y-91821570D01*
X93216409Y-91821570D02*
X93740219Y-91821570D01*
X95893000Y-76073000D02*
X93901580Y-76073000D01*
X95893000Y-116713000D02*
X93901580Y-116713000D01*
X94488000Y-76073000D02*
X94488000Y-116713000D01*
X94488000Y-76073000D02*
X94488000Y-116713000D01*
X94488000Y-76073000D02*
X95074421Y-77199504D01*
X94488000Y-76073000D02*
X93901579Y-77199504D01*
X94488000Y-116713000D02*
X93901579Y-115586496D01*
X94488000Y-116713000D02*
X95074421Y-115586496D01*
D12*
X119692500Y-80078500D03*
X122537300Y-80078500D03*
D13*
X105087500Y-106208500D03*
X105087500Y-104208500D03*
D14*
X112936500Y-96386500D03*
X112936500Y-97036500D03*
X112936500Y-97686500D03*
X112936500Y-98336500D03*
X112936500Y-98986500D03*
X112936500Y-99636500D03*
X112936500Y-100286500D03*
X112936500Y-100936500D03*
X118676500Y-100936500D03*
X118676500Y-100286500D03*
X118676500Y-99636500D03*
X118676500Y-98986500D03*
X118676500Y-98336500D03*
X118676500Y-97686500D03*
X118676500Y-97036500D03*
X118676500Y-96386500D03*
D15*
X101092000Y-103505000D03*
D16*
X113668500Y-85843500D03*
D17*
X113606000Y-86656000D03*
X113606000Y-87156000D03*
X113606000Y-87656000D03*
X113606000Y-88156000D03*
D16*
X113668500Y-88968500D03*
X114168500Y-88968500D03*
X114668500Y-88968500D03*
X115168500Y-88968500D03*
X115668500Y-88968500D03*
X116168500Y-88968500D03*
X116668500Y-88968500D03*
X117168500Y-88968500D03*
X117668500Y-88968500D03*
X118168500Y-88968500D03*
D17*
X118231000Y-88156000D03*
X118231000Y-87656000D03*
X118231000Y-87156000D03*
X118231000Y-86656000D03*
D16*
X118168500Y-85843500D03*
X117668500Y-85843500D03*
X117168500Y-85843500D03*
X116668500Y-85843500D03*
X116168500Y-85843500D03*
X115668500Y-85843500D03*
X115168500Y-85843500D03*
X114668500Y-85843500D03*
X114168500Y-85843500D03*
D15*
X101092000Y-98679000D03*
D18*
X109278500Y-80057000D03*
X109278500Y-82132000D03*
D19*
X121470500Y-107002500D03*
X119470500Y-107002500D03*
D20*
X108389500Y-104208500D03*
X108389500Y-106208500D03*
D21*
X108538000Y-88206500D03*
X106463000Y-88206500D03*
D22*
X127234000Y-105404000D03*
X127234000Y-103404000D03*
D23*
X132784000Y-107754000D03*
X132784000Y-101054000D03*
D24*
X105087500Y-110401500D03*
X105087500Y-108651500D03*
D25*
X125178900Y-80232000D03*
X125178900Y-81957000D03*
D19*
X121454500Y-110304500D03*
X119454500Y-110304500D03*
D26*
X128164500Y-95024500D03*
X128164500Y-94024500D03*
X128164500Y-93024499D03*
X128164500Y-92024501D03*
X128164500Y-91024500D03*
X128164500Y-90024500D03*
D27*
X130864499Y-97824495D03*
X130864499Y-87224505D03*
D19*
X121454500Y-103700500D03*
X119454500Y-103700500D03*
D20*
X111691500Y-104208500D03*
X111691500Y-106208500D03*
D25*
X117050900Y-80131500D03*
X117050900Y-81856500D03*
D28*
X114300000Y-105156000D03*
X124206000Y-84963000D03*
X115570000Y-83312000D03*
X114808000Y-92329000D03*
X116586000Y-105156000D03*
X111379000Y-84455000D03*
X124841000Y-100584000D03*
X109947721Y-110142448D03*
X117348000Y-84455000D03*
X111379000Y-89662000D03*
X104825800Y-82854800D03*
X124206000Y-93345000D03*
X123190000Y-105156000D03*
X106426000Y-94234000D03*
X110744000Y-99568000D03*
X115824000Y-99187000D03*
X123063000Y-92075000D03*
X120142000Y-90170000D03*
X124206000Y-97790000D03*
X124206000Y-92075000D03*
X119126000Y-91186000D03*
X120904000Y-86868000D03*
X124206000Y-94869000D03*
X120142000Y-85598000D03*
X124206000Y-96266000D03*
D29*
X115668500Y-85302800D02*
X116516300Y-84455000D01*
X117348000Y-84455000D02*
X117221000Y-84455000D01*
X115668500Y-85843500D02*
X115668500Y-85302800D01*
D30*
X111379000Y-84455000D02*
X111379000Y-84963000D01*
X111379000Y-84963000D02*
X113072000Y-86656000D01*
D29*
X116516300Y-84455000D02*
X117348000Y-84455000D01*
X115668500Y-91468500D02*
X115668500Y-88968500D01*
D30*
X113072000Y-86656000D02*
X113606000Y-86656000D01*
D29*
X114808000Y-92329000D02*
X115668500Y-91468500D01*
X111564500Y-102547500D02*
X111691500Y-102547500D01*
D31*
X111797000Y-80057000D02*
X109278500Y-80057000D01*
X121454500Y-111463500D02*
X121183400Y-111734600D01*
X120446800Y-111734600D02*
X118084600Y-111734600D01*
D29*
X107696000Y-98679000D02*
X107764500Y-98747500D01*
X114168500Y-85843500D02*
X114168500Y-84348900D01*
X114866500Y-96080500D02*
X114560500Y-96386500D01*
D31*
X112453500Y-102547500D02*
X111691500Y-102547500D01*
D29*
X107764500Y-98620500D02*
X107764500Y-98747500D01*
X114560500Y-96386500D02*
X112936500Y-96386500D01*
D31*
X107764500Y-98067500D02*
X110328000Y-95504000D01*
D29*
X117094000Y-98298000D02*
X117094000Y-99324000D01*
D31*
X121454500Y-110304500D02*
X121454500Y-111463500D01*
X112039400Y-82219800D02*
X112039400Y-80299400D01*
D29*
X116527500Y-97686500D02*
X118676500Y-97686500D01*
X116472500Y-97686500D02*
X116527500Y-97686500D01*
D31*
X110617000Y-83642200D02*
X112039400Y-82219800D01*
X104775000Y-84709000D02*
X110617000Y-84709000D01*
X105087500Y-104208500D02*
X108389500Y-104208500D01*
X125984000Y-106654000D02*
X125984000Y-108407200D01*
X121454500Y-103700500D02*
X124280500Y-103700500D01*
X107764500Y-98747500D02*
X111564500Y-102547500D01*
X121183400Y-111734600D02*
X120446800Y-111734600D01*
X127234000Y-105404000D02*
X125984000Y-106654000D01*
X112039400Y-80299400D02*
X111797000Y-80057000D01*
X124280500Y-103700500D02*
X125984000Y-105404000D01*
X102743000Y-98679000D02*
X107696000Y-98679000D01*
D29*
X114358500Y-95572500D02*
X114866500Y-96080500D01*
D31*
X113284000Y-103378000D02*
X112453500Y-102547500D01*
D29*
X121454500Y-111463500D02*
X121412000Y-111506000D01*
X114168500Y-84348900D02*
X113842800Y-84023200D01*
D31*
X125984000Y-105404000D02*
X127234000Y-105404000D01*
X114290000Y-95504000D02*
X114358500Y-95572500D01*
X102743000Y-98679000D02*
X101092000Y-98679000D01*
D29*
X114866500Y-96080500D02*
X116472500Y-97686500D01*
D31*
X112039400Y-82219800D02*
X113842800Y-84023200D01*
X111691500Y-102547500D02*
X111691500Y-104208500D01*
X122656600Y-111734600D02*
X120446800Y-111734600D01*
X110617000Y-84709000D02*
X110617000Y-83642200D01*
X107764500Y-98620500D02*
X107764500Y-98067500D01*
D30*
X110617000Y-84709000D02*
X113064000Y-87156000D01*
D31*
X103124000Y-98298000D02*
X103124000Y-86360000D01*
D29*
X117094000Y-99324000D02*
X117406500Y-99636500D01*
D31*
X108389500Y-104208500D02*
X111691500Y-104208500D01*
D29*
X116472500Y-97686500D02*
X116482500Y-97686500D01*
D31*
X110328000Y-95504000D02*
X114290000Y-95504000D01*
D30*
X113064000Y-87156000D02*
X113606000Y-87156000D01*
D31*
X102743000Y-98679000D02*
X103124000Y-98298000D01*
D29*
X117406500Y-99636500D02*
X118676500Y-99636500D01*
D31*
X103124000Y-86360000D02*
X104775000Y-84709000D01*
X125984000Y-108407200D02*
X122656600Y-111734600D01*
X118084600Y-111734600D02*
X113284000Y-106934000D01*
X113284000Y-106934000D02*
X113284000Y-103378000D01*
D29*
X116482500Y-97686500D02*
X117094000Y-98298000D01*
X108538000Y-88206500D02*
X108538000Y-90006000D01*
X114358500Y-91254500D02*
X115168500Y-90444500D01*
X108538000Y-90006000D02*
X109786500Y-91254500D01*
X109786500Y-91254500D02*
X114358500Y-91254500D01*
X115168500Y-90444500D02*
X115168500Y-88968500D01*
X117050900Y-80131500D02*
X119639500Y-80131500D01*
X119639500Y-80131500D02*
X119692500Y-80078500D01*
X117050900Y-80131500D02*
X114668500Y-82513900D01*
X114668500Y-82513900D02*
X114668500Y-85843500D01*
X121819500Y-83591400D02*
X125178900Y-80232000D01*
X122537300Y-80078500D02*
X125025400Y-80078500D01*
X116840000Y-83591400D02*
X121819500Y-83591400D01*
X115168500Y-85262900D02*
X116840000Y-83591400D01*
X125025400Y-80078500D02*
X125178900Y-80232000D01*
X115168500Y-85843500D02*
X115168500Y-85262900D01*
X105087500Y-108651500D02*
X105087500Y-106208500D01*
X115628500Y-106478500D02*
X115628500Y-101922500D01*
X113992500Y-100286500D02*
X112936500Y-100286500D01*
X115628500Y-101922500D02*
X113992500Y-100286500D01*
X119454500Y-110304500D02*
X115628500Y-106478500D01*
X125526499Y-92024501D02*
X128164500Y-92024501D01*
X122867500Y-105478500D02*
X123190000Y-105156000D01*
X124206000Y-93345000D02*
X125526499Y-92024501D01*
X118676500Y-107002500D02*
X117406500Y-105732500D01*
X117406500Y-105732500D02*
X117406500Y-102420500D01*
X119470500Y-106716500D02*
X120708500Y-105478500D01*
X119470500Y-106716500D02*
X119470500Y-107002500D01*
X117406500Y-102420500D02*
X113972500Y-98986500D01*
X113972500Y-98986500D02*
X112936500Y-98986500D01*
X119470500Y-107002500D02*
X118676500Y-107002500D01*
X120708500Y-105478500D02*
X122867500Y-105478500D01*
X110802500Y-99626500D02*
X110744000Y-99568000D01*
X110159800Y-85227937D02*
X105018063Y-85227937D01*
D30*
X110627937Y-85227937D02*
X113056000Y-87656000D01*
D29*
X112936500Y-99636500D02*
X111818500Y-99636500D01*
D30*
X110159800Y-85227937D02*
X110627937Y-85227937D01*
D29*
X111818500Y-99636500D02*
X110802500Y-99636500D01*
X103632000Y-91440000D02*
X106426000Y-94234000D01*
X103632000Y-86614000D02*
X103632000Y-91440000D01*
X110802500Y-99636500D02*
X110802500Y-99626500D01*
D30*
X113056000Y-87656000D02*
X113606000Y-87656000D01*
D29*
X105018063Y-85227937D02*
X103632000Y-86614000D01*
X121724500Y-94800500D02*
X121724500Y-98023499D01*
X116168500Y-88968500D02*
X116168500Y-90387500D01*
X116168500Y-90387500D02*
X117475000Y-91694000D01*
X118618000Y-91694000D02*
X121724500Y-94800500D01*
X121724500Y-98023499D02*
X119461499Y-100286500D01*
X119461499Y-100286500D02*
X118676500Y-100286500D01*
X117475000Y-91694000D02*
X118618000Y-91694000D01*
X118231000Y-87156000D02*
X118829800Y-87156000D01*
X121031000Y-89357200D02*
X121031000Y-92456000D01*
X120396000Y-99898200D02*
X120396000Y-104521000D01*
X120015000Y-104902000D02*
X118618000Y-104902000D01*
X121031000Y-92456000D02*
X122123200Y-93548200D01*
X120396000Y-104521000D02*
X120015000Y-104902000D01*
X122123200Y-98171000D02*
X120396000Y-99898200D01*
X122123200Y-93548200D02*
X122123200Y-98171000D01*
X118829800Y-87156000D02*
X121031000Y-89357200D01*
X118168500Y-104452500D02*
X118168500Y-102587930D01*
X113917070Y-98336500D02*
X112936500Y-98336500D01*
X118168500Y-102587930D02*
X113917070Y-98336500D01*
X118618000Y-104902000D02*
X118168500Y-104452500D01*
X115824000Y-99187000D02*
X115941000Y-99187000D01*
X115941000Y-99187000D02*
X116644500Y-99890500D01*
X119454500Y-101714500D02*
X118676500Y-100936500D01*
X123063000Y-91567000D02*
X124605500Y-90024500D01*
X124605500Y-90024500D02*
X128164500Y-90024500D01*
X118676500Y-100936500D02*
X117690500Y-100936500D01*
X119454500Y-103700500D02*
X119454500Y-101714500D01*
X123063000Y-92075000D02*
X123063000Y-91567000D01*
X117690500Y-100936500D02*
X116644500Y-99890500D01*
X104749600Y-90170000D02*
X104114600Y-89535000D01*
X120319800Y-95504000D02*
X119278400Y-94462600D01*
X120319800Y-96215200D02*
X120319800Y-95504000D01*
X107590374Y-90170000D02*
X104749600Y-90170000D01*
X119278400Y-94462600D02*
X111882974Y-94462600D01*
X118676500Y-97036500D02*
X119498500Y-97036500D01*
X105232200Y-85699600D02*
X110540800Y-85699600D01*
D30*
X112997200Y-88156000D02*
X113606000Y-88156000D01*
D29*
X119498500Y-97036500D02*
X120319800Y-96215200D01*
X111882974Y-94462600D02*
X107590374Y-90170000D01*
X104114600Y-89535000D02*
X104114600Y-86817200D01*
X104114600Y-86817200D02*
X105232200Y-85699600D01*
D30*
X110540800Y-85699600D02*
X112997200Y-88156000D01*
D29*
X128164500Y-95024500D02*
X128464500Y-95024500D01*
X119888000Y-88822300D02*
X118721700Y-87656000D01*
X119888000Y-89916000D02*
X119888000Y-88822300D01*
X126971500Y-95024500D02*
X128164500Y-95024500D01*
X118721700Y-87656000D02*
X118231000Y-87656000D01*
X124206000Y-97790000D02*
X126971500Y-95024500D01*
X120142000Y-90170000D02*
X119888000Y-89916000D01*
X128164500Y-91024500D02*
X127864500Y-91024500D01*
X124206000Y-92075000D02*
X125222000Y-91059000D01*
X117668500Y-89728500D02*
X117668500Y-88968500D01*
X125222000Y-91059000D02*
X127830000Y-91059000D01*
X119126000Y-91186000D02*
X117668500Y-89728500D01*
X118231000Y-86656000D02*
X120692000Y-86656000D01*
X128164500Y-93024499D02*
X128464500Y-93024499D01*
X120692000Y-86656000D02*
X120904000Y-86868000D01*
X126177501Y-93024499D02*
X128164500Y-93024499D01*
X124333000Y-94869000D02*
X126177501Y-93024499D01*
X124206000Y-94869000D02*
X124333000Y-94869000D01*
X119380000Y-84582000D02*
X120142000Y-85344000D01*
X120142000Y-85344000D02*
X120142000Y-85598000D01*
X126447500Y-94024500D02*
X128164500Y-94024500D01*
X118168500Y-84904500D02*
X118491000Y-84582000D01*
X118491000Y-84582000D02*
X119380000Y-84582000D01*
X124206000Y-96266000D02*
X126447500Y-94024500D01*
X118168500Y-85843500D02*
X118168500Y-84904500D01*
X128164500Y-94024500D02*
X128464500Y-94024500D01*
X112031700Y-94048500D02*
X119438500Y-94048500D01*
X110262790Y-86131400D02*
X105410000Y-86131400D01*
X113665000Y-89662000D02*
X113668500Y-89658500D01*
X112903000Y-90043000D02*
X113538000Y-90043000D01*
X113665000Y-89916000D02*
X113665000Y-89662000D01*
X113668500Y-89658500D02*
X113668500Y-88968500D01*
X105410000Y-86131400D02*
X104571800Y-86969600D01*
X119461499Y-98986500D02*
X118676500Y-98986500D01*
X112395000Y-89535000D02*
X112903000Y-90043000D01*
X104571800Y-89443788D02*
X104917012Y-89789000D01*
X120708500Y-95318500D02*
X120708500Y-97739499D01*
X119438500Y-94048500D02*
X120708500Y-95318500D01*
X112395000Y-88263610D02*
X110262790Y-86131400D01*
X107772200Y-89789000D02*
X112031700Y-94048500D01*
X112395000Y-89535000D02*
X112395000Y-88263610D01*
X120708500Y-97739499D02*
X119461499Y-98986500D01*
X104571800Y-86969600D02*
X104571800Y-89443788D01*
X113538000Y-90043000D02*
X113665000Y-89916000D01*
X104917012Y-89789000D02*
X107772200Y-89789000D01*
G04 #@! TA.AperFunction,Conductor*
G36*
X130146852Y-78251685D02*
G01*
X130192607Y-78304489D01*
X130202551Y-78373647D01*
X130173526Y-78437203D01*
X130141815Y-78463385D01*
X130061550Y-78509727D01*
X130061547Y-78509728D01*
X130061542Y-78509732D01*
X129874302Y-78653406D01*
X129874295Y-78653412D01*
X129707412Y-78820295D01*
X129707406Y-78820302D01*
X129563730Y-79007545D01*
X129445719Y-79211943D01*
X129445714Y-79211954D01*
X129355394Y-79430006D01*
X129294306Y-79657989D01*
X129263501Y-79891979D01*
X129263500Y-79891995D01*
X129263500Y-80128004D01*
X129263501Y-80128020D01*
X129293078Y-80352685D01*
X129294307Y-80362014D01*
X129326103Y-80480677D01*
X129355394Y-80589993D01*
X129445714Y-80808045D01*
X129445719Y-80808056D01*
X129494387Y-80892350D01*
X129563727Y-81012450D01*
X129563729Y-81012453D01*
X129563730Y-81012454D01*
X129707406Y-81199697D01*
X129707412Y-81199704D01*
X129874295Y-81366587D01*
X129874302Y-81366593D01*
X129896224Y-81383414D01*
X130061550Y-81510273D01*
X130192918Y-81586118D01*
X130265943Y-81628280D01*
X130265948Y-81628282D01*
X130265951Y-81628284D01*
X130484007Y-81718606D01*
X130711986Y-81779693D01*
X130945989Y-81810500D01*
X130945996Y-81810500D01*
X131182004Y-81810500D01*
X131182011Y-81810500D01*
X131416014Y-81779693D01*
X131643993Y-81718606D01*
X131862049Y-81628284D01*
X132066450Y-81510273D01*
X132253699Y-81366592D01*
X132420592Y-81199699D01*
X132564273Y-81012450D01*
X132682284Y-80808049D01*
X132772606Y-80589993D01*
X132833693Y-80362014D01*
X132864500Y-80128011D01*
X132864500Y-79891989D01*
X132833693Y-79657986D01*
X132772606Y-79430007D01*
X132682284Y-79211951D01*
X132682282Y-79211948D01*
X132682280Y-79211943D01*
X132619857Y-79103825D01*
X132564273Y-79007550D01*
X132420592Y-78820301D01*
X132420587Y-78820295D01*
X132253704Y-78653412D01*
X132253697Y-78653406D01*
X132066457Y-78509732D01*
X132066455Y-78509730D01*
X132066450Y-78509727D01*
X131986185Y-78463385D01*
X131937971Y-78412819D01*
X131924749Y-78344212D01*
X131950717Y-78279348D01*
X132007631Y-78238820D01*
X132048187Y-78232000D01*
X134877000Y-78232000D01*
X134944039Y-78251685D01*
X134989794Y-78304489D01*
X135001000Y-78356000D01*
X135001000Y-99818099D01*
X134981315Y-99885138D01*
X134928511Y-99930893D01*
X134859353Y-99940837D01*
X134802689Y-99917365D01*
X134726335Y-99860206D01*
X134726328Y-99860202D01*
X134591482Y-99809908D01*
X134591483Y-99809908D01*
X134531883Y-99803501D01*
X134531881Y-99803500D01*
X134531873Y-99803500D01*
X134531864Y-99803500D01*
X131036129Y-99803500D01*
X131036123Y-99803501D01*
X130976516Y-99809908D01*
X130841671Y-99860202D01*
X130841664Y-99860206D01*
X130726455Y-99946452D01*
X130726452Y-99946455D01*
X130640206Y-100061664D01*
X130640202Y-100061671D01*
X130589908Y-100196517D01*
X130583501Y-100256116D01*
X130583500Y-100256135D01*
X130583500Y-101851870D01*
X130583501Y-101851876D01*
X130589908Y-101911483D01*
X130640202Y-102046328D01*
X130640206Y-102046335D01*
X130726452Y-102161544D01*
X130726455Y-102161547D01*
X130841664Y-102247793D01*
X130841671Y-102247797D01*
X130976517Y-102298091D01*
X130976516Y-102298091D01*
X130983444Y-102298835D01*
X131036127Y-102304500D01*
X134531872Y-102304499D01*
X134591483Y-102298091D01*
X134726331Y-102247796D01*
X134802690Y-102190632D01*
X134868152Y-102166216D01*
X134936425Y-102181067D01*
X134985831Y-102230471D01*
X135001000Y-102289900D01*
X135001000Y-106518099D01*
X134981315Y-106585138D01*
X134928511Y-106630893D01*
X134859353Y-106640837D01*
X134802689Y-106617365D01*
X134726335Y-106560206D01*
X134726328Y-106560202D01*
X134591482Y-106509908D01*
X134591483Y-106509908D01*
X134531883Y-106503501D01*
X134531881Y-106503500D01*
X134531873Y-106503500D01*
X134531864Y-106503500D01*
X131036129Y-106503500D01*
X131036123Y-106503501D01*
X130976516Y-106509908D01*
X130841671Y-106560202D01*
X130841664Y-106560206D01*
X130726455Y-106646452D01*
X130726452Y-106646455D01*
X130640206Y-106761664D01*
X130640202Y-106761671D01*
X130589908Y-106896517D01*
X130583501Y-106956116D01*
X130583500Y-106956135D01*
X130583500Y-108551870D01*
X130583501Y-108551876D01*
X130589908Y-108611483D01*
X130640202Y-108746328D01*
X130640206Y-108746335D01*
X130726452Y-108861544D01*
X130726455Y-108861547D01*
X130841664Y-108947793D01*
X130841671Y-108947797D01*
X130976517Y-108998091D01*
X130976516Y-108998091D01*
X130983444Y-108998835D01*
X131036127Y-109004500D01*
X134531872Y-109004499D01*
X134591483Y-108998091D01*
X134726331Y-108947796D01*
X134802690Y-108890632D01*
X134868152Y-108866216D01*
X134936425Y-108881067D01*
X134985831Y-108930471D01*
X135001000Y-108989900D01*
X135001000Y-112144000D01*
X134981315Y-112211039D01*
X134928511Y-112256794D01*
X134877000Y-112268000D01*
X132885280Y-112268000D01*
X132818241Y-112248315D01*
X132772486Y-112195511D01*
X132770719Y-112191452D01*
X132682288Y-111977959D01*
X132682280Y-111977943D01*
X132640118Y-111904918D01*
X132564273Y-111773550D01*
X132420592Y-111586301D01*
X132420587Y-111586295D01*
X132253704Y-111419412D01*
X132253697Y-111419406D01*
X132066454Y-111275730D01*
X132066453Y-111275729D01*
X132066450Y-111275727D01*
X131984957Y-111228677D01*
X131862056Y-111157719D01*
X131862045Y-111157714D01*
X131643993Y-111067394D01*
X131416010Y-111006306D01*
X131182020Y-110975501D01*
X131182017Y-110975500D01*
X131182011Y-110975500D01*
X130945989Y-110975500D01*
X130945983Y-110975500D01*
X130945979Y-110975501D01*
X130711989Y-111006306D01*
X130484006Y-111067394D01*
X130265954Y-111157714D01*
X130265943Y-111157719D01*
X130061545Y-111275730D01*
X129874302Y-111419406D01*
X129874295Y-111419412D01*
X129707412Y-111586295D01*
X129707406Y-111586302D01*
X129563730Y-111773545D01*
X129445719Y-111977943D01*
X129445711Y-111977959D01*
X129357281Y-112191452D01*
X129313440Y-112245856D01*
X129247146Y-112267921D01*
X129242720Y-112268000D01*
X122958499Y-112268000D01*
X122891460Y-112248315D01*
X122845705Y-112195511D01*
X122835761Y-112126353D01*
X122864786Y-112062797D01*
X122885232Y-112045916D01*
X122884396Y-112044826D01*
X122890840Y-112039879D01*
X122890847Y-112039876D01*
X122961876Y-111968847D01*
X126289276Y-108641447D01*
X126339501Y-108554454D01*
X126365500Y-108457425D01*
X126365500Y-106863384D01*
X126385185Y-106796345D01*
X126401815Y-106775707D01*
X126736704Y-106440817D01*
X126798027Y-106407333D01*
X126824385Y-106404499D01*
X129031871Y-106404499D01*
X129031872Y-106404499D01*
X129091483Y-106398091D01*
X129226331Y-106347796D01*
X129341546Y-106261546D01*
X129427796Y-106146331D01*
X129478091Y-106011483D01*
X129484500Y-105951873D01*
X129484499Y-104856128D01*
X129478091Y-104796517D01*
X129469534Y-104773575D01*
X129427797Y-104661671D01*
X129427793Y-104661664D01*
X129341547Y-104546455D01*
X129283437Y-104502953D01*
X129241567Y-104447019D01*
X129236583Y-104377327D01*
X129270069Y-104316004D01*
X129283439Y-104304420D01*
X129341189Y-104261188D01*
X129341190Y-104261187D01*
X129427350Y-104146093D01*
X129427354Y-104146086D01*
X129477596Y-104011379D01*
X129477598Y-104011372D01*
X129483999Y-103951844D01*
X129484000Y-103951827D01*
X129484000Y-103654000D01*
X124983999Y-103654000D01*
X124966441Y-103671558D01*
X124905118Y-103705042D01*
X124835426Y-103700057D01*
X124791080Y-103671557D01*
X124514749Y-103395225D01*
X124512252Y-103393784D01*
X124505428Y-103389844D01*
X124427756Y-103345000D01*
X124427755Y-103344999D01*
X124403496Y-103338499D01*
X124330725Y-103319000D01*
X124330722Y-103319000D01*
X122678880Y-103319000D01*
X122611841Y-103299315D01*
X122566086Y-103246511D01*
X122555602Y-103203603D01*
X122555320Y-103203632D01*
X122555112Y-103201598D01*
X122555040Y-103201303D01*
X122554998Y-103200481D01*
X122550250Y-103154000D01*
X124984000Y-103154000D01*
X126984000Y-103154000D01*
X126984000Y-102404000D01*
X127484000Y-102404000D01*
X127484000Y-103154000D01*
X129484000Y-103154000D01*
X129484000Y-102856172D01*
X129483999Y-102856155D01*
X129477598Y-102796627D01*
X129477596Y-102796620D01*
X129427354Y-102661913D01*
X129427350Y-102661906D01*
X129341190Y-102546812D01*
X129341187Y-102546809D01*
X129226093Y-102460649D01*
X129226086Y-102460645D01*
X129091379Y-102410403D01*
X129091372Y-102410401D01*
X129031844Y-102404000D01*
X127484000Y-102404000D01*
X126984000Y-102404000D01*
X125436155Y-102404000D01*
X125376627Y-102410401D01*
X125376620Y-102410403D01*
X125241913Y-102460645D01*
X125241906Y-102460649D01*
X125126812Y-102546809D01*
X125126809Y-102546812D01*
X125040649Y-102661906D01*
X125040645Y-102661913D01*
X124990403Y-102796620D01*
X124990401Y-102796627D01*
X124984000Y-102856155D01*
X124984000Y-103154000D01*
X122550250Y-103154000D01*
X122544499Y-103097703D01*
X122544498Y-103097700D01*
X122536221Y-103072722D01*
X122489314Y-102931166D01*
X122397212Y-102781844D01*
X122273156Y-102657788D01*
X122147229Y-102580116D01*
X122123836Y-102565687D01*
X122123831Y-102565685D01*
X122122362Y-102565198D01*
X121957297Y-102510501D01*
X121957295Y-102510500D01*
X121854510Y-102500000D01*
X121054498Y-102500000D01*
X121054480Y-102500001D01*
X120951703Y-102510500D01*
X120951700Y-102510501D01*
X120845609Y-102545657D01*
X120813502Y-102556296D01*
X120743676Y-102558698D01*
X120683634Y-102522966D01*
X120652441Y-102460446D01*
X120650500Y-102438590D01*
X120650500Y-100054980D01*
X120670185Y-99987941D01*
X120686819Y-99967299D01*
X121500058Y-99154060D01*
X121781753Y-98872365D01*
X129713999Y-98872365D01*
X129714000Y-98872371D01*
X129720407Y-98931978D01*
X129770701Y-99066823D01*
X129770705Y-99066830D01*
X129856951Y-99182039D01*
X129856954Y-99182042D01*
X129972163Y-99268288D01*
X129972170Y-99268292D01*
X130107016Y-99318586D01*
X130107015Y-99318586D01*
X130113943Y-99319330D01*
X130166626Y-99324995D01*
X131562371Y-99324994D01*
X131621982Y-99318586D01*
X131756830Y-99268291D01*
X131872045Y-99182041D01*
X131958295Y-99066826D01*
X132008590Y-98931978D01*
X132014999Y-98872368D01*
X132014998Y-96776623D01*
X132008590Y-96717012D01*
X132006534Y-96711500D01*
X131958296Y-96582166D01*
X131958292Y-96582159D01*
X131872046Y-96466950D01*
X131872043Y-96466947D01*
X131756834Y-96380701D01*
X131756827Y-96380697D01*
X131621981Y-96330403D01*
X131621982Y-96330403D01*
X131562382Y-96323996D01*
X131562380Y-96323995D01*
X131562372Y-96323995D01*
X131562363Y-96323995D01*
X130166628Y-96323995D01*
X130166622Y-96323996D01*
X130107015Y-96330403D01*
X129972170Y-96380697D01*
X129972163Y-96380701D01*
X129856954Y-96466947D01*
X129856951Y-96466950D01*
X129770705Y-96582159D01*
X129770701Y-96582166D01*
X129720407Y-96717012D01*
X129714000Y-96776611D01*
X129714000Y-96776618D01*
X129713999Y-96776630D01*
X129713999Y-98872365D01*
X121781753Y-98872365D01*
X122338955Y-98315163D01*
X122377701Y-98221623D01*
X122377701Y-98120377D01*
X122377701Y-98110388D01*
X122377700Y-98110374D01*
X122377700Y-93497578D01*
X122377698Y-93497573D01*
X122338957Y-93404039D01*
X121321819Y-92386901D01*
X121288334Y-92325578D01*
X121285500Y-92299220D01*
X121285500Y-92075003D01*
X122252403Y-92075003D01*
X122272724Y-92255369D01*
X122272725Y-92255374D01*
X122332677Y-92426706D01*
X122429249Y-92580398D01*
X122557601Y-92708750D01*
X122655077Y-92769999D01*
X122711295Y-92805323D01*
X122882619Y-92865272D01*
X122882625Y-92865274D01*
X122882630Y-92865275D01*
X123062996Y-92885597D01*
X123063000Y-92885597D01*
X123063004Y-92885597D01*
X123243369Y-92865275D01*
X123243371Y-92865274D01*
X123243375Y-92865274D01*
X123243378Y-92865272D01*
X123243382Y-92865272D01*
X123316094Y-92839829D01*
X123385873Y-92836266D01*
X123446500Y-92870995D01*
X123478728Y-92932988D01*
X123474091Y-92997824D01*
X123415726Y-93164622D01*
X123415724Y-93164630D01*
X123395403Y-93344996D01*
X123395403Y-93345003D01*
X123415724Y-93525369D01*
X123415725Y-93525374D01*
X123475677Y-93696706D01*
X123572249Y-93850398D01*
X123700602Y-93978751D01*
X123700604Y-93978752D01*
X123737612Y-94002007D01*
X123783903Y-94054342D01*
X123794550Y-94123396D01*
X123766174Y-94187244D01*
X123737612Y-94211993D01*
X123700604Y-94235247D01*
X123700602Y-94235248D01*
X123572249Y-94363601D01*
X123475677Y-94517293D01*
X123415725Y-94688625D01*
X123415724Y-94688630D01*
X123395403Y-94868996D01*
X123395403Y-94869003D01*
X123415724Y-95049369D01*
X123415725Y-95049374D01*
X123475677Y-95220706D01*
X123572249Y-95374398D01*
X123677670Y-95479819D01*
X123711155Y-95541142D01*
X123706171Y-95610834D01*
X123677670Y-95655181D01*
X123572249Y-95760601D01*
X123475677Y-95914293D01*
X123415725Y-96085625D01*
X123415724Y-96085630D01*
X123395403Y-96265996D01*
X123395403Y-96266003D01*
X123415724Y-96446369D01*
X123415725Y-96446374D01*
X123475677Y-96617706D01*
X123572249Y-96771398D01*
X123700602Y-96899751D01*
X123700604Y-96899752D01*
X123737612Y-96923007D01*
X123783903Y-96975342D01*
X123794550Y-97044396D01*
X123766174Y-97108244D01*
X123737612Y-97132993D01*
X123700604Y-97156247D01*
X123700602Y-97156248D01*
X123572249Y-97284601D01*
X123475677Y-97438293D01*
X123415725Y-97609625D01*
X123415724Y-97609630D01*
X123395403Y-97789996D01*
X123395403Y-97790003D01*
X123415724Y-97970369D01*
X123415725Y-97970374D01*
X123475677Y-98141706D01*
X123572249Y-98295398D01*
X123700601Y-98423750D01*
X123749984Y-98454780D01*
X123854295Y-98520323D01*
X124025625Y-98580274D01*
X124025630Y-98580275D01*
X124205996Y-98600597D01*
X124206000Y-98600597D01*
X124206004Y-98600597D01*
X124386369Y-98580275D01*
X124386372Y-98580274D01*
X124386375Y-98580274D01*
X124557705Y-98520323D01*
X124711399Y-98423750D01*
X124839750Y-98295399D01*
X124936323Y-98141705D01*
X124996274Y-97970375D01*
X124996275Y-97970369D01*
X125016597Y-97790003D01*
X125016597Y-97789996D01*
X124996275Y-97609630D01*
X124996272Y-97609617D01*
X124957209Y-97497983D01*
X124953646Y-97428204D01*
X124986567Y-97369349D01*
X126994185Y-95361732D01*
X127055506Y-95328249D01*
X127125198Y-95333233D01*
X127181131Y-95375105D01*
X127198046Y-95406082D01*
X127220702Y-95466828D01*
X127220706Y-95466835D01*
X127306952Y-95582044D01*
X127306955Y-95582047D01*
X127422164Y-95668293D01*
X127422171Y-95668297D01*
X127557017Y-95718591D01*
X127557016Y-95718591D01*
X127563944Y-95719335D01*
X127616627Y-95725000D01*
X128712372Y-95724999D01*
X128771983Y-95718591D01*
X128906831Y-95668296D01*
X129022046Y-95582046D01*
X129108296Y-95466831D01*
X129158591Y-95331983D01*
X129165000Y-95272373D01*
X129164999Y-94776628D01*
X129158591Y-94717017D01*
X129108296Y-94582169D01*
X129108294Y-94582166D01*
X129105196Y-94573860D01*
X129106926Y-94573214D01*
X129094402Y-94515663D01*
X129106191Y-94475511D01*
X129105196Y-94475140D01*
X129108294Y-94466833D01*
X129108296Y-94466831D01*
X129158591Y-94331983D01*
X129165000Y-94272373D01*
X129164999Y-93776628D01*
X129158591Y-93717017D01*
X129158591Y-93717016D01*
X129105197Y-93573859D01*
X129106926Y-93573214D01*
X129094402Y-93515659D01*
X129106192Y-93475510D01*
X129105196Y-93475139D01*
X129108294Y-93466832D01*
X129108296Y-93466830D01*
X129158591Y-93331982D01*
X129165000Y-93272372D01*
X129164999Y-92776627D01*
X129158591Y-92717016D01*
X129158591Y-92717015D01*
X129105197Y-92573858D01*
X129106928Y-92573212D01*
X129094403Y-92515671D01*
X129106193Y-92475513D01*
X129105197Y-92475142D01*
X129138108Y-92386901D01*
X129158591Y-92331984D01*
X129165000Y-92272374D01*
X129164999Y-91776629D01*
X129158591Y-91717018D01*
X129158591Y-91717017D01*
X129105197Y-91573860D01*
X129106926Y-91573215D01*
X129094402Y-91515660D01*
X129106192Y-91475511D01*
X129105196Y-91475140D01*
X129108294Y-91466833D01*
X129108296Y-91466831D01*
X129158591Y-91331983D01*
X129165000Y-91272373D01*
X129164999Y-90776628D01*
X129158591Y-90717017D01*
X129108296Y-90582169D01*
X129108294Y-90582166D01*
X129105196Y-90573860D01*
X129106926Y-90573214D01*
X129094402Y-90515663D01*
X129106191Y-90475511D01*
X129105196Y-90475140D01*
X129108294Y-90466833D01*
X129108296Y-90466831D01*
X129158591Y-90331983D01*
X129165000Y-90272373D01*
X129164999Y-89776628D01*
X129158591Y-89717017D01*
X129154808Y-89706875D01*
X129108297Y-89582171D01*
X129108293Y-89582164D01*
X129022047Y-89466955D01*
X129022044Y-89466952D01*
X128906835Y-89380706D01*
X128906828Y-89380702D01*
X128771982Y-89330408D01*
X128771983Y-89330408D01*
X128712383Y-89324001D01*
X128712381Y-89324000D01*
X128712373Y-89324000D01*
X128712364Y-89324000D01*
X127616629Y-89324000D01*
X127616623Y-89324001D01*
X127557016Y-89330408D01*
X127422171Y-89380702D01*
X127422164Y-89380706D01*
X127306955Y-89466952D01*
X127306952Y-89466955D01*
X127220706Y-89582164D01*
X127220702Y-89582171D01*
X127180734Y-89689333D01*
X127138863Y-89745267D01*
X127073399Y-89769684D01*
X127064552Y-89770000D01*
X124554877Y-89770000D01*
X124554875Y-89770000D01*
X124554873Y-89770001D01*
X124461339Y-89808742D01*
X124461337Y-89808744D01*
X124389744Y-89880338D01*
X123029081Y-91240999D01*
X122967758Y-91274484D01*
X122955285Y-91276538D01*
X122882630Y-91284724D01*
X122711295Y-91344676D01*
X122557601Y-91441249D01*
X122429249Y-91569601D01*
X122332677Y-91723293D01*
X122272725Y-91894625D01*
X122272724Y-91894630D01*
X122252403Y-92074996D01*
X122252403Y-92075003D01*
X121285500Y-92075003D01*
X121285500Y-89422265D01*
X121285501Y-89422256D01*
X121285501Y-89306578D01*
X121285501Y-89306577D01*
X121246755Y-89213037D01*
X120306093Y-88272375D01*
X129713999Y-88272375D01*
X129714000Y-88272381D01*
X129720407Y-88331988D01*
X129770701Y-88466833D01*
X129770705Y-88466840D01*
X129856951Y-88582049D01*
X129856954Y-88582052D01*
X129972163Y-88668298D01*
X129972170Y-88668302D01*
X130107016Y-88718596D01*
X130107015Y-88718596D01*
X130113943Y-88719340D01*
X130166626Y-88725005D01*
X131562371Y-88725004D01*
X131621982Y-88718596D01*
X131756830Y-88668301D01*
X131872045Y-88582051D01*
X131958295Y-88466836D01*
X132008590Y-88331988D01*
X132014999Y-88272378D01*
X132014998Y-86176633D01*
X132008590Y-86117022D01*
X131993933Y-86077725D01*
X131958296Y-85982176D01*
X131958292Y-85982169D01*
X131872046Y-85866960D01*
X131872043Y-85866957D01*
X131756834Y-85780711D01*
X131756827Y-85780707D01*
X131621981Y-85730413D01*
X131621982Y-85730413D01*
X131562382Y-85724006D01*
X131562380Y-85724005D01*
X131562372Y-85724005D01*
X131562363Y-85724005D01*
X130166628Y-85724005D01*
X130166622Y-85724006D01*
X130107015Y-85730413D01*
X129972170Y-85780707D01*
X129972163Y-85780711D01*
X129856954Y-85866957D01*
X129856951Y-85866960D01*
X129770705Y-85982169D01*
X129770701Y-85982176D01*
X129720407Y-86117022D01*
X129714340Y-86173456D01*
X129714000Y-86176628D01*
X129713999Y-86176640D01*
X129713999Y-88272375D01*
X120306093Y-88272375D01*
X119155899Y-87122181D01*
X119122414Y-87060858D01*
X119127398Y-86991166D01*
X119169270Y-86935233D01*
X119234734Y-86910816D01*
X119243580Y-86910500D01*
X119987378Y-86910500D01*
X120054417Y-86930185D01*
X120100172Y-86982989D01*
X120110598Y-87020617D01*
X120113724Y-87048370D01*
X120113725Y-87048374D01*
X120173677Y-87219706D01*
X120270249Y-87373398D01*
X120398601Y-87501750D01*
X120521227Y-87578802D01*
X120552295Y-87598323D01*
X120723625Y-87658274D01*
X120723630Y-87658275D01*
X120903996Y-87678597D01*
X120904000Y-87678597D01*
X120904004Y-87678597D01*
X121084369Y-87658275D01*
X121084372Y-87658274D01*
X121084375Y-87658274D01*
X121255705Y-87598323D01*
X121409399Y-87501750D01*
X121537750Y-87373399D01*
X121634323Y-87219705D01*
X121694274Y-87048375D01*
X121694413Y-87047141D01*
X121714597Y-86868003D01*
X121714597Y-86867996D01*
X121694275Y-86687630D01*
X121694274Y-86687625D01*
X121653649Y-86571526D01*
X121634323Y-86516295D01*
X121575909Y-86423331D01*
X121537750Y-86362601D01*
X121409398Y-86234249D01*
X121255706Y-86137677D01*
X121084374Y-86077725D01*
X121084369Y-86077724D01*
X120991783Y-86067293D01*
X120927369Y-86040227D01*
X120887814Y-85982632D01*
X120885676Y-85912795D01*
X120888625Y-85903118D01*
X120932272Y-85778382D01*
X120932275Y-85778369D01*
X120952597Y-85598003D01*
X120952597Y-85597996D01*
X120932275Y-85417630D01*
X120932274Y-85417625D01*
X120878402Y-85263669D01*
X120872323Y-85246295D01*
X120775750Y-85092601D01*
X120647399Y-84964250D01*
X120647398Y-84964249D01*
X120493706Y-84867677D01*
X120322374Y-84807725D01*
X120322369Y-84807724D01*
X120142004Y-84787403D01*
X120141997Y-84787403D01*
X120024577Y-84800633D01*
X119955755Y-84788579D01*
X119923012Y-84765094D01*
X119524160Y-84366242D01*
X119430626Y-84327501D01*
X119430624Y-84327500D01*
X119430623Y-84327500D01*
X119430621Y-84327500D01*
X118556065Y-84327500D01*
X118556057Y-84327499D01*
X118541623Y-84327499D01*
X118440377Y-84327499D01*
X118440376Y-84327499D01*
X118377611Y-84353498D01*
X118346845Y-84366242D01*
X118346835Y-84366246D01*
X117952742Y-84760339D01*
X117914001Y-84853873D01*
X117914000Y-84853878D01*
X117914000Y-84881500D01*
X117894315Y-84948539D01*
X117841511Y-84994294D01*
X117790000Y-85005500D01*
X117495630Y-85005500D01*
X117495620Y-85005501D01*
X117431748Y-85012367D01*
X117405242Y-85012367D01*
X117400983Y-85011909D01*
X117341373Y-85005500D01*
X117341365Y-85005500D01*
X116995630Y-85005500D01*
X116995620Y-85005501D01*
X116931748Y-85012367D01*
X116905242Y-85012367D01*
X116900983Y-85011909D01*
X116841373Y-85005500D01*
X116841365Y-85005500D01*
X116495630Y-85005500D01*
X116495620Y-85005501D01*
X116431748Y-85012367D01*
X116405242Y-85012367D01*
X116400983Y-85011909D01*
X116341373Y-85005500D01*
X116341366Y-85005500D01*
X116085178Y-85005500D01*
X116018139Y-84985815D01*
X115972384Y-84933011D01*
X115962440Y-84863853D01*
X115991465Y-84800297D01*
X115997479Y-84793837D01*
X116909099Y-83882219D01*
X116970422Y-83848734D01*
X116996780Y-83845900D01*
X121870121Y-83845900D01*
X121870123Y-83845900D01*
X121916893Y-83826527D01*
X121963660Y-83807157D01*
X121963661Y-83807155D01*
X121963663Y-83807155D01*
X123563816Y-82207000D01*
X124203901Y-82207000D01*
X124203901Y-82306154D01*
X124214219Y-82407152D01*
X124268446Y-82570800D01*
X124268451Y-82570811D01*
X124358952Y-82717534D01*
X124358955Y-82717538D01*
X124480861Y-82839444D01*
X124480865Y-82839447D01*
X124627588Y-82929948D01*
X124627599Y-82929953D01*
X124791247Y-82984180D01*
X124892252Y-82994499D01*
X124928900Y-82994499D01*
X124928900Y-82207000D01*
X125428900Y-82207000D01*
X125428900Y-82994499D01*
X125465540Y-82994499D01*
X125465554Y-82994498D01*
X125566552Y-82984180D01*
X125730200Y-82929953D01*
X125730211Y-82929948D01*
X125876934Y-82839447D01*
X125876938Y-82839444D01*
X125998844Y-82717538D01*
X125998847Y-82717534D01*
X126089348Y-82570811D01*
X126089353Y-82570800D01*
X126143580Y-82407152D01*
X126153899Y-82306154D01*
X126153900Y-82306141D01*
X126153900Y-82207000D01*
X125428900Y-82207000D01*
X124928900Y-82207000D01*
X124203901Y-82207000D01*
X123563816Y-82207000D01*
X124046179Y-81724637D01*
X124107500Y-81691154D01*
X124177192Y-81696138D01*
X124194093Y-81707000D01*
X126153899Y-81707000D01*
X126153899Y-81607860D01*
X126153898Y-81607845D01*
X126143580Y-81506847D01*
X126089353Y-81343199D01*
X126089348Y-81343188D01*
X125998847Y-81196465D01*
X125998844Y-81196461D01*
X125984917Y-81182534D01*
X125951432Y-81121211D01*
X125956416Y-81051519D01*
X125984917Y-81007172D01*
X125999240Y-80992850D01*
X126089808Y-80846016D01*
X126144074Y-80682253D01*
X126154400Y-80581177D01*
X126154399Y-79882824D01*
X126152659Y-79865794D01*
X126144074Y-79781747D01*
X126134548Y-79753000D01*
X126089808Y-79617984D01*
X125999240Y-79471150D01*
X125877250Y-79349160D01*
X125730416Y-79258592D01*
X125566653Y-79204326D01*
X125566651Y-79204325D01*
X125465578Y-79194000D01*
X124892230Y-79194000D01*
X124892212Y-79194001D01*
X124791147Y-79204325D01*
X124627384Y-79258592D01*
X124627381Y-79258593D01*
X124480548Y-79349161D01*
X124358561Y-79471148D01*
X124267993Y-79617981D01*
X124267991Y-79617986D01*
X124250927Y-79669483D01*
X124240815Y-79700000D01*
X124227890Y-79739004D01*
X124188117Y-79796449D01*
X124123601Y-79823272D01*
X124110184Y-79824000D01*
X123745999Y-79824000D01*
X123678960Y-79804315D01*
X123633205Y-79751511D01*
X123621999Y-79700000D01*
X123621999Y-79230529D01*
X123621998Y-79230523D01*
X123621997Y-79230516D01*
X123615591Y-79170917D01*
X123610807Y-79158091D01*
X123565297Y-79036071D01*
X123565293Y-79036064D01*
X123479047Y-78920855D01*
X123479044Y-78920852D01*
X123363835Y-78834606D01*
X123363828Y-78834602D01*
X123228982Y-78784308D01*
X123228983Y-78784308D01*
X123169383Y-78777901D01*
X123169381Y-78777900D01*
X123169373Y-78777900D01*
X123169364Y-78777900D01*
X121905229Y-78777900D01*
X121905223Y-78777901D01*
X121845616Y-78784308D01*
X121710771Y-78834602D01*
X121710764Y-78834606D01*
X121595555Y-78920852D01*
X121595552Y-78920855D01*
X121509306Y-79036064D01*
X121509302Y-79036071D01*
X121459010Y-79170913D01*
X121459009Y-79170917D01*
X121453897Y-79218458D01*
X121427161Y-79283006D01*
X121369768Y-79322854D01*
X121330609Y-79329200D01*
X120899191Y-79329200D01*
X120832152Y-79309515D01*
X120786397Y-79256711D01*
X120775901Y-79218453D01*
X120770791Y-79170916D01*
X120720497Y-79036071D01*
X120720493Y-79036064D01*
X120634247Y-78920855D01*
X120634244Y-78920852D01*
X120519035Y-78834606D01*
X120519028Y-78834602D01*
X120384182Y-78784308D01*
X120384183Y-78784308D01*
X120324583Y-78777901D01*
X120324581Y-78777900D01*
X120324573Y-78777900D01*
X120324564Y-78777900D01*
X119060429Y-78777900D01*
X119060423Y-78777901D01*
X119000816Y-78784308D01*
X118865971Y-78834602D01*
X118865964Y-78834606D01*
X118750755Y-78920852D01*
X118750752Y-78920855D01*
X118664506Y-79036064D01*
X118664502Y-79036071D01*
X118614208Y-79170917D01*
X118609098Y-79218453D01*
X118607801Y-79230523D01*
X118607800Y-79230535D01*
X118607800Y-79753000D01*
X118588115Y-79820039D01*
X118535311Y-79865794D01*
X118483800Y-79877000D01*
X118148049Y-79877000D01*
X118081010Y-79857315D01*
X118035255Y-79804511D01*
X118024691Y-79765601D01*
X118016074Y-79681247D01*
X118008366Y-79657986D01*
X117961808Y-79517484D01*
X117871240Y-79370650D01*
X117749250Y-79248660D01*
X117602416Y-79158092D01*
X117438653Y-79103826D01*
X117438651Y-79103825D01*
X117337578Y-79093500D01*
X116764230Y-79093500D01*
X116764212Y-79093501D01*
X116663147Y-79103825D01*
X116499384Y-79158092D01*
X116499381Y-79158093D01*
X116352548Y-79248661D01*
X116230561Y-79370648D01*
X116139993Y-79517481D01*
X116139992Y-79517484D01*
X116085726Y-79681247D01*
X116085726Y-79681248D01*
X116085725Y-79681248D01*
X116075400Y-79782315D01*
X116075400Y-80480669D01*
X116075401Y-80480687D01*
X116085725Y-80581752D01*
X116085726Y-80581753D01*
X116100247Y-80625577D01*
X116102647Y-80695405D01*
X116070221Y-80752260D01*
X114506895Y-82315585D01*
X114506896Y-82315586D01*
X114452742Y-82369739D01*
X114414001Y-82463273D01*
X114414000Y-82463278D01*
X114414000Y-83786772D01*
X114394315Y-83853811D01*
X114341511Y-83899566D01*
X114272353Y-83909510D01*
X114208797Y-83880485D01*
X114182613Y-83848773D01*
X114148076Y-83788953D01*
X112457218Y-82098095D01*
X112423734Y-82036773D01*
X112420900Y-82010415D01*
X112420900Y-80249177D01*
X112420900Y-80249175D01*
X112394901Y-80152146D01*
X112344676Y-80065153D01*
X112273647Y-79994124D01*
X112273645Y-79994122D01*
X112031247Y-79751724D01*
X111944254Y-79701499D01*
X111944255Y-79701499D01*
X111919996Y-79694999D01*
X111847225Y-79675500D01*
X111847222Y-79675500D01*
X110616591Y-79675500D01*
X110549552Y-79655815D01*
X110503797Y-79603011D01*
X110495690Y-79573152D01*
X110494915Y-79573319D01*
X110493498Y-79566700D01*
X110477188Y-79517481D01*
X110438314Y-79400166D01*
X110346212Y-79250844D01*
X110222156Y-79126788D01*
X110129388Y-79069569D01*
X110072836Y-79034687D01*
X110072831Y-79034685D01*
X110071362Y-79034198D01*
X109906297Y-78979501D01*
X109906295Y-78979500D01*
X109803510Y-78969000D01*
X108753498Y-78969000D01*
X108753480Y-78969001D01*
X108650703Y-78979500D01*
X108650700Y-78979501D01*
X108484168Y-79034685D01*
X108484163Y-79034687D01*
X108334842Y-79126789D01*
X108210789Y-79250842D01*
X108118687Y-79400163D01*
X108118685Y-79400168D01*
X108095165Y-79471148D01*
X108063501Y-79566703D01*
X108063501Y-79566704D01*
X108063500Y-79566704D01*
X108053000Y-79669483D01*
X108053000Y-80444501D01*
X108053001Y-80444519D01*
X108063500Y-80547296D01*
X108063501Y-80547299D01*
X108077649Y-80589993D01*
X108118686Y-80713834D01*
X108210788Y-80863156D01*
X108334844Y-80987212D01*
X108338128Y-80989237D01*
X108338153Y-80989253D01*
X108339945Y-80991246D01*
X108340511Y-80991693D01*
X108340434Y-80991789D01*
X108384879Y-81041199D01*
X108396103Y-81110161D01*
X108368261Y-81174244D01*
X108338165Y-81200326D01*
X108335160Y-81202179D01*
X108335155Y-81202183D01*
X108211184Y-81326154D01*
X108119143Y-81475375D01*
X108119141Y-81475380D01*
X108063994Y-81641802D01*
X108063993Y-81641809D01*
X108053500Y-81744513D01*
X108053500Y-81882000D01*
X110503499Y-81882000D01*
X110503499Y-81744528D01*
X110503498Y-81744513D01*
X110493005Y-81641802D01*
X110437858Y-81475380D01*
X110437856Y-81475375D01*
X110345815Y-81326154D01*
X110221844Y-81202183D01*
X110221841Y-81202181D01*
X110218839Y-81200329D01*
X110217213Y-81198521D01*
X110216177Y-81197702D01*
X110216317Y-81197524D01*
X110172117Y-81148380D01*
X110160897Y-81079417D01*
X110188743Y-81015336D01*
X110218844Y-80989254D01*
X110222156Y-80987212D01*
X110346212Y-80863156D01*
X110438314Y-80713834D01*
X110493499Y-80547297D01*
X110493500Y-80547284D01*
X110494917Y-80540673D01*
X110496831Y-80541082D01*
X110519623Y-80485214D01*
X110576800Y-80445058D01*
X110616591Y-80438500D01*
X111533900Y-80438500D01*
X111600939Y-80458185D01*
X111646694Y-80510989D01*
X111657900Y-80562500D01*
X111657900Y-82010414D01*
X111638215Y-82077453D01*
X111621581Y-82098095D01*
X110365311Y-83354364D01*
X110365312Y-83354365D01*
X110311722Y-83407954D01*
X110261499Y-83494945D01*
X110261499Y-83494946D01*
X110235500Y-83591975D01*
X110235500Y-83591977D01*
X110235500Y-84203500D01*
X110215815Y-84270539D01*
X110163011Y-84316294D01*
X110111500Y-84327500D01*
X104832837Y-84327500D01*
X104832821Y-84327499D01*
X104825225Y-84327499D01*
X104724775Y-84327499D01*
X104627747Y-84353498D01*
X104627745Y-84353498D01*
X104627745Y-84353499D01*
X104540753Y-84403724D01*
X104540750Y-84403726D01*
X102818725Y-86125751D01*
X102818723Y-86125754D01*
X102768499Y-86212745D01*
X102768499Y-86212746D01*
X102742500Y-86309775D01*
X102742500Y-86309777D01*
X102742500Y-98088615D01*
X102722815Y-98155654D01*
X102706180Y-98176296D01*
X102698143Y-98184334D01*
X102636818Y-98217815D01*
X102567126Y-98212826D01*
X102511195Y-98170951D01*
X102496911Y-98146457D01*
X102440246Y-98017275D01*
X102416173Y-97962393D01*
X102410951Y-97954400D01*
X102280166Y-97754217D01*
X102220012Y-97688873D01*
X102111744Y-97571262D01*
X101915509Y-97418526D01*
X101915507Y-97418525D01*
X101915506Y-97418524D01*
X101696811Y-97300172D01*
X101696802Y-97300169D01*
X101461616Y-97219429D01*
X101216335Y-97178500D01*
X100967665Y-97178500D01*
X100722383Y-97219429D01*
X100487197Y-97300169D01*
X100487188Y-97300172D01*
X100268493Y-97418524D01*
X100072257Y-97571261D01*
X99903833Y-97754217D01*
X99767826Y-97962393D01*
X99667936Y-98190118D01*
X99606892Y-98431175D01*
X99606890Y-98431187D01*
X99586357Y-98678994D01*
X99586357Y-98679005D01*
X99606890Y-98926812D01*
X99606892Y-98926824D01*
X99667936Y-99167881D01*
X99767826Y-99395606D01*
X99903833Y-99603782D01*
X99903836Y-99603785D01*
X100072256Y-99786738D01*
X100268491Y-99939474D01*
X100487190Y-100057828D01*
X100722386Y-100138571D01*
X100967665Y-100179500D01*
X101216335Y-100179500D01*
X101461614Y-100138571D01*
X101696810Y-100057828D01*
X101915509Y-99939474D01*
X102111744Y-99786738D01*
X102280164Y-99603785D01*
X102416173Y-99395607D01*
X102516063Y-99167881D01*
X102519563Y-99154059D01*
X102555103Y-99093904D01*
X102617523Y-99062512D01*
X102639769Y-99060500D01*
X102692775Y-99060500D01*
X102793225Y-99060500D01*
X107486615Y-99060500D01*
X107553654Y-99080185D01*
X107574296Y-99096819D01*
X111273681Y-102796203D01*
X111307166Y-102857526D01*
X111310000Y-102883884D01*
X111310000Y-102984119D01*
X111290315Y-103051158D01*
X111237511Y-103096913D01*
X111194603Y-103107402D01*
X111194632Y-103107680D01*
X111192630Y-103107884D01*
X111192334Y-103107957D01*
X111191505Y-103107999D01*
X111088703Y-103118500D01*
X111088700Y-103118501D01*
X110922168Y-103173685D01*
X110922163Y-103173687D01*
X110772842Y-103265789D01*
X110648789Y-103389842D01*
X110556687Y-103539163D01*
X110556686Y-103539166D01*
X110501502Y-103705702D01*
X110501501Y-103705704D01*
X110501500Y-103705706D01*
X110500490Y-103715600D01*
X110474096Y-103780292D01*
X110416916Y-103820445D01*
X110377132Y-103827000D01*
X109703868Y-103827000D01*
X109636829Y-103807315D01*
X109591074Y-103754511D01*
X109580510Y-103715601D01*
X109580510Y-103715600D01*
X109579499Y-103705703D01*
X109524314Y-103539166D01*
X109432212Y-103389844D01*
X109308156Y-103265788D01*
X109215388Y-103208569D01*
X109158836Y-103173687D01*
X109158831Y-103173685D01*
X109157362Y-103173198D01*
X108992297Y-103118501D01*
X108992295Y-103118500D01*
X108889510Y-103108000D01*
X107889498Y-103108000D01*
X107889480Y-103108001D01*
X107786703Y-103118500D01*
X107786700Y-103118501D01*
X107620168Y-103173685D01*
X107620163Y-103173687D01*
X107470842Y-103265789D01*
X107346789Y-103389842D01*
X107254687Y-103539163D01*
X107254686Y-103539166D01*
X107199502Y-103705702D01*
X107199501Y-103705704D01*
X107199500Y-103705706D01*
X107198490Y-103715600D01*
X107172096Y-103780292D01*
X107114916Y-103820445D01*
X107075132Y-103827000D01*
X106401868Y-103827000D01*
X106334829Y-103807315D01*
X106289074Y-103754511D01*
X106278510Y-103715601D01*
X106278510Y-103715600D01*
X106277499Y-103705703D01*
X106222314Y-103539166D01*
X106130212Y-103389844D01*
X106006156Y-103265788D01*
X105913388Y-103208569D01*
X105856836Y-103173687D01*
X105856831Y-103173685D01*
X105855362Y-103173198D01*
X105690297Y-103118501D01*
X105690295Y-103118500D01*
X105587510Y-103108000D01*
X104587498Y-103108000D01*
X104587480Y-103108001D01*
X104484703Y-103118500D01*
X104484700Y-103118501D01*
X104318168Y-103173685D01*
X104318163Y-103173687D01*
X104168842Y-103265789D01*
X104044789Y-103389842D01*
X103952687Y-103539163D01*
X103952686Y-103539166D01*
X103897501Y-103705703D01*
X103897501Y-103705704D01*
X103897500Y-103705704D01*
X103887000Y-103808483D01*
X103887000Y-104608501D01*
X103887001Y-104608519D01*
X103897500Y-104711296D01*
X103897501Y-104711299D01*
X103952685Y-104877831D01*
X103952687Y-104877836D01*
X103966974Y-104900999D01*
X104005884Y-104964083D01*
X104044789Y-105027157D01*
X104138451Y-105120819D01*
X104171936Y-105182142D01*
X104166952Y-105251834D01*
X104138451Y-105296181D01*
X104044789Y-105389842D01*
X103952687Y-105539163D01*
X103952685Y-105539168D01*
X103952615Y-105539380D01*
X103897501Y-105705703D01*
X103897501Y-105705704D01*
X103897500Y-105705704D01*
X103887000Y-105808483D01*
X103887000Y-106608501D01*
X103887001Y-106608519D01*
X103897500Y-106711296D01*
X103897501Y-106711299D01*
X103925683Y-106796345D01*
X103952686Y-106877834D01*
X104044788Y-107027156D01*
X104168844Y-107151212D01*
X104318166Y-107243314D01*
X104484703Y-107298499D01*
X104587491Y-107309000D01*
X104709000Y-107308999D01*
X104776039Y-107328683D01*
X104821794Y-107381487D01*
X104833000Y-107432999D01*
X104833000Y-107510735D01*
X104813315Y-107577774D01*
X104760511Y-107623529D01*
X104721604Y-107634093D01*
X104699746Y-107636326D01*
X104535984Y-107690592D01*
X104535981Y-107690593D01*
X104389148Y-107781161D01*
X104267161Y-107903148D01*
X104176593Y-108049981D01*
X104176592Y-108049984D01*
X104122326Y-108213747D01*
X104122326Y-108213748D01*
X104122325Y-108213748D01*
X104112000Y-108314815D01*
X104112000Y-108988169D01*
X104112001Y-108988187D01*
X104122325Y-109089252D01*
X104176592Y-109253015D01*
X104176593Y-109253018D01*
X104182003Y-109261789D01*
X104260428Y-109388936D01*
X104267161Y-109399851D01*
X104306482Y-109439172D01*
X104339967Y-109500495D01*
X104334983Y-109570187D01*
X104306483Y-109614533D01*
X104267555Y-109653461D01*
X104267552Y-109653465D01*
X104177051Y-109800188D01*
X104177046Y-109800199D01*
X104122819Y-109963847D01*
X104112500Y-110064845D01*
X104112500Y-110151500D01*
X106062499Y-110151500D01*
X106062499Y-110064860D01*
X106062498Y-110064845D01*
X106052180Y-109963847D01*
X105997953Y-109800199D01*
X105997948Y-109800188D01*
X105907447Y-109653465D01*
X105907444Y-109653461D01*
X105868517Y-109614534D01*
X105835032Y-109553211D01*
X105840016Y-109483519D01*
X105868516Y-109439173D01*
X105907840Y-109399850D01*
X105998408Y-109253016D01*
X106052674Y-109089253D01*
X106063000Y-108988177D01*
X106062999Y-108314824D01*
X106052674Y-108213747D01*
X105998408Y-108049984D01*
X105907840Y-107903150D01*
X105785850Y-107781160D01*
X105639016Y-107690592D01*
X105475253Y-107636326D01*
X105475250Y-107636325D01*
X105453397Y-107634093D01*
X105388705Y-107607696D01*
X105348554Y-107550515D01*
X105342000Y-107510735D01*
X105342000Y-107432999D01*
X105361685Y-107365960D01*
X105414489Y-107320205D01*
X105466000Y-107308999D01*
X105587502Y-107308999D01*
X105587508Y-107308999D01*
X105690297Y-107298499D01*
X105856834Y-107243314D01*
X106006156Y-107151212D01*
X106130212Y-107027156D01*
X106222314Y-106877834D01*
X106277499Y-106711297D01*
X106288000Y-106608509D01*
X106288000Y-106458500D01*
X107189501Y-106458500D01*
X107189501Y-106608486D01*
X107199994Y-106711197D01*
X107255141Y-106877619D01*
X107255143Y-106877624D01*
X107347184Y-107026845D01*
X107471154Y-107150815D01*
X107620375Y-107242856D01*
X107620380Y-107242858D01*
X107786802Y-107298005D01*
X107786809Y-107298006D01*
X107889519Y-107308499D01*
X108139499Y-107308499D01*
X108139500Y-107308498D01*
X108139500Y-106458500D01*
X108639500Y-106458500D01*
X108639500Y-107308499D01*
X108889472Y-107308499D01*
X108889486Y-107308498D01*
X108992197Y-107298005D01*
X109158619Y-107242858D01*
X109158624Y-107242856D01*
X109307845Y-107150815D01*
X109431815Y-107026845D01*
X109523856Y-106877624D01*
X109523858Y-106877619D01*
X109579005Y-106711197D01*
X109579006Y-106711190D01*
X109589499Y-106608486D01*
X109589500Y-106608473D01*
X109589500Y-106458500D01*
X110491501Y-106458500D01*
X110491501Y-106608486D01*
X110501994Y-106711197D01*
X110557141Y-106877619D01*
X110557143Y-106877624D01*
X110649184Y-107026845D01*
X110773154Y-107150815D01*
X110922375Y-107242856D01*
X110922380Y-107242858D01*
X111088802Y-107298005D01*
X111088809Y-107298006D01*
X111191519Y-107308499D01*
X111441499Y-107308499D01*
X111441500Y-107308498D01*
X111441500Y-106458500D01*
X110491501Y-106458500D01*
X109589500Y-106458500D01*
X108639500Y-106458500D01*
X108139500Y-106458500D01*
X107189501Y-106458500D01*
X106288000Y-106458500D01*
X106287999Y-105808492D01*
X106286084Y-105789750D01*
X106277499Y-105705703D01*
X106277498Y-105705700D01*
X106262818Y-105661398D01*
X106222314Y-105539166D01*
X106130212Y-105389844D01*
X106036549Y-105296181D01*
X106003064Y-105234858D01*
X106008048Y-105165166D01*
X106036549Y-105120819D01*
X106043485Y-105113883D01*
X106130212Y-105027156D01*
X106222314Y-104877834D01*
X106277499Y-104711297D01*
X106278510Y-104701399D01*
X106304904Y-104636708D01*
X106362084Y-104596555D01*
X106401868Y-104590000D01*
X107075132Y-104590000D01*
X107142171Y-104609685D01*
X107187926Y-104662489D01*
X107198490Y-104701399D01*
X107199501Y-104711297D01*
X107199501Y-104711299D01*
X107254685Y-104877831D01*
X107254687Y-104877836D01*
X107268974Y-104900999D01*
X107307884Y-104964083D01*
X107346789Y-105027157D01*
X107440804Y-105121172D01*
X107474289Y-105182495D01*
X107469305Y-105252187D01*
X107440805Y-105296534D01*
X107347182Y-105390157D01*
X107255143Y-105539375D01*
X107255141Y-105539380D01*
X107199994Y-105705802D01*
X107199993Y-105705809D01*
X107189500Y-105808513D01*
X107189500Y-105958500D01*
X109589499Y-105958500D01*
X109589499Y-105808528D01*
X109589498Y-105808513D01*
X109579005Y-105705802D01*
X109523858Y-105539380D01*
X109523856Y-105539375D01*
X109431815Y-105390154D01*
X109338195Y-105296534D01*
X109304710Y-105235211D01*
X109309694Y-105165519D01*
X109338191Y-105121176D01*
X109432212Y-105027156D01*
X109524314Y-104877834D01*
X109579499Y-104711297D01*
X109580510Y-104701399D01*
X109606904Y-104636708D01*
X109664084Y-104596555D01*
X109703868Y-104590000D01*
X110377132Y-104590000D01*
X110444171Y-104609685D01*
X110489926Y-104662489D01*
X110500490Y-104701399D01*
X110501501Y-104711297D01*
X110501501Y-104711299D01*
X110556685Y-104877831D01*
X110556687Y-104877836D01*
X110570974Y-104900999D01*
X110609884Y-104964083D01*
X110648789Y-105027157D01*
X110742804Y-105121172D01*
X110776289Y-105182495D01*
X110771305Y-105252187D01*
X110742805Y-105296534D01*
X110649182Y-105390157D01*
X110557143Y-105539375D01*
X110557141Y-105539380D01*
X110501994Y-105705802D01*
X110501993Y-105705809D01*
X110491500Y-105808513D01*
X110491500Y-105958500D01*
X111817500Y-105958500D01*
X111884539Y-105978185D01*
X111930294Y-106030989D01*
X111941500Y-106082500D01*
X111941500Y-107308499D01*
X112191472Y-107308499D01*
X112191486Y-107308498D01*
X112294197Y-107298005D01*
X112460619Y-107242858D01*
X112460624Y-107242856D01*
X112609842Y-107150817D01*
X112724316Y-107036343D01*
X112785639Y-107002858D01*
X112855331Y-107007842D01*
X112911265Y-107049713D01*
X112926559Y-107076572D01*
X112928496Y-107081249D01*
X112928499Y-107081254D01*
X112966263Y-107146663D01*
X112978724Y-107168247D01*
X112978726Y-107168250D01*
X112978727Y-107168251D01*
X115416575Y-109606098D01*
X117850353Y-112039876D01*
X117850356Y-112039878D01*
X117856802Y-112044824D01*
X117854898Y-112047304D01*
X117892923Y-112087193D01*
X117906138Y-112155801D01*
X117880163Y-112220663D01*
X117823244Y-112261185D01*
X117782701Y-112268000D01*
X102151280Y-112268000D01*
X102084241Y-112248315D01*
X102038486Y-112195511D01*
X102036719Y-112191452D01*
X101948288Y-111977959D01*
X101948280Y-111977943D01*
X101906118Y-111904918D01*
X101830273Y-111773550D01*
X101686592Y-111586301D01*
X101686587Y-111586295D01*
X101519704Y-111419412D01*
X101519697Y-111419406D01*
X101332454Y-111275730D01*
X101332453Y-111275729D01*
X101332450Y-111275727D01*
X101250957Y-111228677D01*
X101128056Y-111157719D01*
X101128045Y-111157714D01*
X100909993Y-111067394D01*
X100682010Y-111006306D01*
X100448020Y-110975501D01*
X100448017Y-110975500D01*
X100448011Y-110975500D01*
X100211989Y-110975500D01*
X100211983Y-110975500D01*
X100211979Y-110975501D01*
X99977989Y-111006306D01*
X99750006Y-111067394D01*
X99531954Y-111157714D01*
X99531943Y-111157719D01*
X99327546Y-111275729D01*
X99259485Y-111327954D01*
X99194316Y-111353147D01*
X99125871Y-111339108D01*
X99075882Y-111290294D01*
X99060000Y-111229577D01*
X99060000Y-110651500D01*
X104112501Y-110651500D01*
X104112501Y-110738154D01*
X104122819Y-110839152D01*
X104177046Y-111002800D01*
X104177051Y-111002811D01*
X104267552Y-111149534D01*
X104267555Y-111149538D01*
X104389461Y-111271444D01*
X104389465Y-111271447D01*
X104536188Y-111361948D01*
X104536199Y-111361953D01*
X104699847Y-111416180D01*
X104800852Y-111426499D01*
X104837500Y-111426499D01*
X104837500Y-110651500D01*
X105337500Y-110651500D01*
X105337500Y-111426499D01*
X105374140Y-111426499D01*
X105374154Y-111426498D01*
X105475152Y-111416180D01*
X105638800Y-111361953D01*
X105638811Y-111361948D01*
X105785534Y-111271447D01*
X105785538Y-111271444D01*
X105907444Y-111149538D01*
X105907447Y-111149534D01*
X105997948Y-111002811D01*
X105997953Y-111002800D01*
X106052180Y-110839152D01*
X106062499Y-110738154D01*
X106062500Y-110738141D01*
X106062500Y-110651500D01*
X105337500Y-110651500D01*
X104837500Y-110651500D01*
X104112501Y-110651500D01*
X99060000Y-110651500D01*
X99060000Y-103505005D01*
X99586859Y-103505005D01*
X99607385Y-103752729D01*
X99607387Y-103752738D01*
X99668412Y-103993717D01*
X99768266Y-104221364D01*
X99868564Y-104374882D01*
X100609037Y-103634409D01*
X100626075Y-103697993D01*
X100691901Y-103812007D01*
X100784993Y-103905099D01*
X100899007Y-103970925D01*
X100962590Y-103987962D01*
X100221942Y-104728609D01*
X100268768Y-104765055D01*
X100268770Y-104765056D01*
X100487385Y-104883364D01*
X100487396Y-104883369D01*
X100722506Y-104964083D01*
X100967707Y-105005000D01*
X101216293Y-105005000D01*
X101461493Y-104964083D01*
X101696603Y-104883369D01*
X101696614Y-104883364D01*
X101915228Y-104765057D01*
X101915231Y-104765055D01*
X101962056Y-104728609D01*
X101221409Y-103987962D01*
X101284993Y-103970925D01*
X101399007Y-103905099D01*
X101492099Y-103812007D01*
X101557925Y-103697993D01*
X101574962Y-103634409D01*
X102315434Y-104374882D01*
X102415731Y-104221369D01*
X102515587Y-103993717D01*
X102576612Y-103752738D01*
X102576614Y-103752729D01*
X102597141Y-103505005D01*
X102597141Y-103504994D01*
X102576614Y-103257270D01*
X102576612Y-103257261D01*
X102515587Y-103016282D01*
X102415731Y-102788630D01*
X102315434Y-102635116D01*
X101574962Y-103375589D01*
X101557925Y-103312007D01*
X101492099Y-103197993D01*
X101399007Y-103104901D01*
X101284993Y-103039075D01*
X101221410Y-103022037D01*
X101962057Y-102281390D01*
X101962056Y-102281389D01*
X101915229Y-102244943D01*
X101696614Y-102126635D01*
X101696603Y-102126630D01*
X101461493Y-102045916D01*
X101216293Y-102005000D01*
X100967707Y-102005000D01*
X100722506Y-102045916D01*
X100487396Y-102126630D01*
X100487390Y-102126632D01*
X100268761Y-102244949D01*
X100221942Y-102281388D01*
X100221942Y-102281390D01*
X100962590Y-103022037D01*
X100899007Y-103039075D01*
X100784993Y-103104901D01*
X100691901Y-103197993D01*
X100626075Y-103312007D01*
X100609037Y-103375589D01*
X99868564Y-102635116D01*
X99768267Y-102788632D01*
X99668412Y-103016282D01*
X99607387Y-103257261D01*
X99607385Y-103257270D01*
X99586859Y-103504994D01*
X99586859Y-103505005D01*
X99060000Y-103505005D01*
X99060000Y-82382000D01*
X108053501Y-82382000D01*
X108053501Y-82519486D01*
X108063994Y-82622197D01*
X108119141Y-82788619D01*
X108119143Y-82788624D01*
X108211184Y-82937845D01*
X108335154Y-83061815D01*
X108484375Y-83153856D01*
X108484380Y-83153858D01*
X108650802Y-83209005D01*
X108650809Y-83209006D01*
X108753519Y-83219499D01*
X109028499Y-83219499D01*
X109028500Y-83219498D01*
X109028500Y-82382000D01*
X109528500Y-82382000D01*
X109528500Y-83219499D01*
X109803472Y-83219499D01*
X109803486Y-83219498D01*
X109906197Y-83209005D01*
X110072619Y-83153858D01*
X110072624Y-83153856D01*
X110221845Y-83061815D01*
X110345815Y-82937845D01*
X110437856Y-82788624D01*
X110437858Y-82788619D01*
X110493005Y-82622197D01*
X110493006Y-82622190D01*
X110503499Y-82519486D01*
X110503500Y-82519473D01*
X110503500Y-82382000D01*
X109528500Y-82382000D01*
X109028500Y-82382000D01*
X108053501Y-82382000D01*
X99060000Y-82382000D01*
X99060000Y-81556422D01*
X99079685Y-81489383D01*
X99132489Y-81443628D01*
X99201647Y-81433684D01*
X99259486Y-81458046D01*
X99327550Y-81510273D01*
X99458918Y-81586118D01*
X99531943Y-81628280D01*
X99531948Y-81628282D01*
X99531951Y-81628284D01*
X99750007Y-81718606D01*
X99977986Y-81779693D01*
X100211989Y-81810500D01*
X100211996Y-81810500D01*
X100448004Y-81810500D01*
X100448011Y-81810500D01*
X100682014Y-81779693D01*
X100909993Y-81718606D01*
X101128049Y-81628284D01*
X101332450Y-81510273D01*
X101519699Y-81366592D01*
X101686592Y-81199699D01*
X101830273Y-81012450D01*
X101948284Y-80808049D01*
X102038606Y-80589993D01*
X102099693Y-80362014D01*
X102130500Y-80128011D01*
X102130500Y-79891989D01*
X102099693Y-79657986D01*
X102038606Y-79430007D01*
X101948284Y-79211951D01*
X101948282Y-79211948D01*
X101948280Y-79211943D01*
X101885857Y-79103825D01*
X101830273Y-79007550D01*
X101686592Y-78820301D01*
X101686587Y-78820295D01*
X101519704Y-78653412D01*
X101519697Y-78653406D01*
X101332457Y-78509732D01*
X101332455Y-78509730D01*
X101332450Y-78509727D01*
X101252185Y-78463385D01*
X101203971Y-78412819D01*
X101190749Y-78344212D01*
X101216717Y-78279348D01*
X101273631Y-78238820D01*
X101314187Y-78232000D01*
X130079813Y-78232000D01*
X130146852Y-78251685D01*
G37*
G04 #@! TD.AperFunction*
G04 #@! TA.AperFunction,Conductor*
G36*
X111621611Y-95905185D02*
G01*
X111667366Y-95957989D01*
X111677310Y-96027147D01*
X111669926Y-96054990D01*
X111661056Y-96077480D01*
X111661054Y-96077488D01*
X111651000Y-96161213D01*
X111651000Y-96611786D01*
X111661199Y-96696715D01*
X111661199Y-96726285D01*
X111651000Y-96811213D01*
X111651000Y-97261786D01*
X111661199Y-97346715D01*
X111661199Y-97376285D01*
X111651000Y-97461213D01*
X111651000Y-97911786D01*
X111661199Y-97996715D01*
X111661199Y-98026285D01*
X111651000Y-98111213D01*
X111651000Y-98561786D01*
X111661199Y-98646715D01*
X111661199Y-98676285D01*
X111651000Y-98761213D01*
X111651000Y-99067061D01*
X111631315Y-99134100D01*
X111578511Y-99179855D01*
X111509353Y-99189799D01*
X111445797Y-99160774D01*
X111422006Y-99133033D01*
X111377750Y-99062601D01*
X111249398Y-98934249D01*
X111095706Y-98837677D01*
X110924374Y-98777725D01*
X110924369Y-98777724D01*
X110744004Y-98757403D01*
X110743996Y-98757403D01*
X110563630Y-98777724D01*
X110563625Y-98777725D01*
X110392293Y-98837677D01*
X110238601Y-98934249D01*
X110110249Y-99062601D01*
X110013677Y-99216293D01*
X109953725Y-99387625D01*
X109953724Y-99387630D01*
X109933403Y-99567996D01*
X109933403Y-99568003D01*
X109953724Y-99748369D01*
X109953725Y-99748374D01*
X110013677Y-99919706D01*
X110110249Y-100073398D01*
X110238601Y-100201750D01*
X110325153Y-100256135D01*
X110392295Y-100298323D01*
X110563625Y-100358274D01*
X110563630Y-100358275D01*
X110743996Y-100378597D01*
X110744000Y-100378597D01*
X110744004Y-100378597D01*
X110924369Y-100358275D01*
X110924372Y-100358274D01*
X110924375Y-100358274D01*
X111095705Y-100298323D01*
X111249399Y-100201750D01*
X111377750Y-100073399D01*
X111422006Y-100002965D01*
X111474340Y-99956675D01*
X111543394Y-99946026D01*
X111607242Y-99974401D01*
X111645615Y-100032791D01*
X111651000Y-100068938D01*
X111651000Y-100511786D01*
X111661450Y-100598807D01*
X111661451Y-100628375D01*
X111651500Y-100711251D01*
X111651500Y-100731500D01*
X111654093Y-100731500D01*
X111721132Y-100751185D01*
X111752897Y-100780575D01*
X111800133Y-100842866D01*
X111900131Y-100918696D01*
X111941654Y-100974888D01*
X111946206Y-101044609D01*
X111912342Y-101105724D01*
X111850812Y-101138827D01*
X111825206Y-101141500D01*
X111651500Y-101141500D01*
X111651500Y-101161748D01*
X111661544Y-101245396D01*
X111714033Y-101378498D01*
X111714034Y-101378500D01*
X111800490Y-101492509D01*
X111914499Y-101578965D01*
X111914501Y-101578966D01*
X112047603Y-101631455D01*
X112131251Y-101641500D01*
X112731500Y-101641500D01*
X112731500Y-101116000D01*
X112751185Y-101048961D01*
X112803989Y-101003206D01*
X112855500Y-100992000D01*
X113017500Y-100992000D01*
X113084539Y-101011685D01*
X113130294Y-101064489D01*
X113141500Y-101116000D01*
X113141500Y-101641500D01*
X113741749Y-101641500D01*
X113825396Y-101631455D01*
X113958498Y-101578966D01*
X113958500Y-101578965D01*
X114072509Y-101492509D01*
X114158965Y-101378500D01*
X114158966Y-101378498D01*
X114211455Y-101245396D01*
X114221782Y-101159395D01*
X114249318Y-101095180D01*
X114307200Y-101056046D01*
X114377051Y-101054418D01*
X114432577Y-101086494D01*
X114763368Y-101417285D01*
X115337681Y-101991598D01*
X115371166Y-102052921D01*
X115374000Y-102079279D01*
X115374000Y-106529121D01*
X115374001Y-106529126D01*
X115412742Y-106622660D01*
X115412744Y-106622662D01*
X118342098Y-109552015D01*
X118375583Y-109613338D01*
X118372123Y-109678699D01*
X118364501Y-109701699D01*
X118354000Y-109804483D01*
X118354000Y-110804501D01*
X118354001Y-110804519D01*
X118364500Y-110907296D01*
X118364501Y-110907299D01*
X118398106Y-111008711D01*
X118419686Y-111073834D01*
X118475303Y-111164004D01*
X118493743Y-111231396D01*
X118472820Y-111298059D01*
X118419178Y-111342829D01*
X118369764Y-111353100D01*
X118293985Y-111353100D01*
X118226946Y-111333415D01*
X118206304Y-111316781D01*
X113701819Y-106812296D01*
X113668334Y-106750973D01*
X113665500Y-106724615D01*
X113665500Y-103327777D01*
X113665500Y-103327775D01*
X113639501Y-103230746D01*
X113589276Y-103143753D01*
X113518247Y-103072724D01*
X113513916Y-103068393D01*
X113513905Y-103068383D01*
X113102551Y-102657029D01*
X112687747Y-102242224D01*
X112600754Y-102191999D01*
X112600755Y-102191999D01*
X112559955Y-102181067D01*
X112503725Y-102166000D01*
X112503722Y-102166000D01*
X111773884Y-102166000D01*
X111706845Y-102146315D01*
X111686203Y-102129681D01*
X108182319Y-98625796D01*
X108148834Y-98564473D01*
X108146000Y-98538115D01*
X108146000Y-98276884D01*
X108165685Y-98209845D01*
X108182319Y-98189203D01*
X110449703Y-95921819D01*
X110511026Y-95888334D01*
X110537384Y-95885500D01*
X111554572Y-95885500D01*
X111621611Y-95905185D01*
G37*
G04 #@! TD.AperFunction*
G04 #@! TA.AperFunction,Conductor*
G36*
X114430885Y-99804802D02*
G01*
X117115681Y-102489598D01*
X117149166Y-102550921D01*
X117152000Y-102577279D01*
X117152000Y-105783121D01*
X117152001Y-105783126D01*
X117190742Y-105876660D01*
X117190744Y-105876662D01*
X117190745Y-105876663D01*
X117772582Y-106458500D01*
X118333681Y-107019598D01*
X118367166Y-107080921D01*
X118370000Y-107107279D01*
X118370000Y-107502501D01*
X118370001Y-107502519D01*
X118380500Y-107605296D01*
X118380501Y-107605299D01*
X118408765Y-107690592D01*
X118435686Y-107771834D01*
X118527788Y-107921156D01*
X118651844Y-108045212D01*
X118801166Y-108137314D01*
X118967703Y-108192499D01*
X119070491Y-108203000D01*
X119870508Y-108202999D01*
X119870516Y-108202998D01*
X119870519Y-108202998D01*
X119926802Y-108197248D01*
X119973297Y-108192499D01*
X120139834Y-108137314D01*
X120289156Y-108045212D01*
X120383175Y-107951192D01*
X120444494Y-107917710D01*
X120514186Y-107922694D01*
X120558534Y-107951195D01*
X120652154Y-108044815D01*
X120801375Y-108136856D01*
X120801380Y-108136858D01*
X120967802Y-108192005D01*
X120967809Y-108192006D01*
X121070519Y-108202499D01*
X121220499Y-108202499D01*
X121220500Y-108202498D01*
X121220500Y-107252500D01*
X121720500Y-107252500D01*
X121720500Y-108202499D01*
X121870472Y-108202499D01*
X121870486Y-108202498D01*
X121973197Y-108192005D01*
X122139619Y-108136858D01*
X122139624Y-108136856D01*
X122288845Y-108044815D01*
X122412815Y-107920845D01*
X122504856Y-107771624D01*
X122504858Y-107771619D01*
X122560005Y-107605197D01*
X122560006Y-107605190D01*
X122570499Y-107502486D01*
X122570500Y-107502473D01*
X122570500Y-107252500D01*
X121720500Y-107252500D01*
X121220500Y-107252500D01*
X121220500Y-106876500D01*
X121240185Y-106809461D01*
X121292989Y-106763706D01*
X121344500Y-106752500D01*
X122570499Y-106752500D01*
X122570499Y-106502528D01*
X122570498Y-106502513D01*
X122560005Y-106399802D01*
X122504858Y-106233380D01*
X122504856Y-106233375D01*
X122412815Y-106084154D01*
X122288844Y-105960183D01*
X122283177Y-105955702D01*
X122284737Y-105953727D01*
X122245937Y-105910588D01*
X122234717Y-105841625D01*
X122262562Y-105777544D01*
X122320631Y-105738689D01*
X122357760Y-105733000D01*
X122576489Y-105733000D01*
X122643528Y-105752685D01*
X122664170Y-105769319D01*
X122684601Y-105789750D01*
X122822919Y-105876662D01*
X122838295Y-105886323D01*
X123009625Y-105946274D01*
X123009630Y-105946275D01*
X123189996Y-105966597D01*
X123190000Y-105966597D01*
X123190004Y-105966597D01*
X123370369Y-105946275D01*
X123370372Y-105946274D01*
X123370375Y-105946274D01*
X123541705Y-105886323D01*
X123695399Y-105789750D01*
X123823750Y-105661399D01*
X123920323Y-105507705D01*
X123980274Y-105336375D01*
X123980504Y-105334337D01*
X124000597Y-105156003D01*
X124000597Y-105155996D01*
X123980275Y-104975630D01*
X123980274Y-104975625D01*
X123956157Y-104906704D01*
X123920323Y-104804295D01*
X123895667Y-104765056D01*
X123823750Y-104650601D01*
X123695398Y-104522249D01*
X123541706Y-104425677D01*
X123370374Y-104365725D01*
X123370369Y-104365724D01*
X123190004Y-104345403D01*
X123189996Y-104345403D01*
X123009630Y-104365724D01*
X123009625Y-104365725D01*
X122838293Y-104425677D01*
X122708266Y-104507379D01*
X122641029Y-104526379D01*
X122574194Y-104506011D01*
X122528980Y-104452743D01*
X122519743Y-104383487D01*
X122524584Y-104363395D01*
X122544499Y-104303297D01*
X122555000Y-104200509D01*
X122555000Y-104200494D01*
X122555041Y-104199700D01*
X122555099Y-104199531D01*
X122555321Y-104197368D01*
X122555838Y-104197420D01*
X122578106Y-104133748D01*
X122633166Y-104090734D01*
X122678881Y-104082000D01*
X124071115Y-104082000D01*
X124138154Y-104101685D01*
X124158796Y-104118319D01*
X124947181Y-104906704D01*
X124980666Y-104968027D01*
X124983500Y-104994385D01*
X124983500Y-105951870D01*
X124983501Y-105951876D01*
X124989908Y-106011483D01*
X125040202Y-106146328D01*
X125040206Y-106146335D01*
X125126452Y-106261544D01*
X125126455Y-106261547D01*
X125241664Y-106347793D01*
X125241671Y-106347797D01*
X125273864Y-106359804D01*
X125376517Y-106398091D01*
X125436127Y-106404500D01*
X125494296Y-106404499D01*
X125561334Y-106424182D01*
X125607090Y-106476986D01*
X125617034Y-106546144D01*
X125614071Y-106560592D01*
X125602500Y-106603775D01*
X125602500Y-108197815D01*
X125582815Y-108264854D01*
X125566181Y-108285496D01*
X122716279Y-111135397D01*
X122654956Y-111168882D01*
X122585264Y-111163898D01*
X122529331Y-111122026D01*
X122504914Y-111056562D01*
X122510890Y-111008719D01*
X122544499Y-110907297D01*
X122555000Y-110804509D01*
X122554999Y-109804492D01*
X122554560Y-109800199D01*
X122544499Y-109701703D01*
X122544498Y-109701700D01*
X122536313Y-109676999D01*
X122489314Y-109535166D01*
X122397212Y-109385844D01*
X122273156Y-109261788D01*
X122123834Y-109169686D01*
X121957297Y-109114501D01*
X121957295Y-109114500D01*
X121854510Y-109104000D01*
X121054498Y-109104000D01*
X121054480Y-109104001D01*
X120951703Y-109114500D01*
X120951700Y-109114501D01*
X120785168Y-109169685D01*
X120785163Y-109169687D01*
X120635842Y-109261789D01*
X120542181Y-109355451D01*
X120480858Y-109388936D01*
X120411166Y-109383952D01*
X120366819Y-109355451D01*
X120273157Y-109261789D01*
X120273156Y-109261788D01*
X120123834Y-109169686D01*
X119957297Y-109114501D01*
X119957295Y-109114500D01*
X119854510Y-109104000D01*
X119054498Y-109104000D01*
X119054480Y-109104001D01*
X118951703Y-109114500D01*
X118951700Y-109114501D01*
X118778479Y-109171902D01*
X118708651Y-109174304D01*
X118651794Y-109141877D01*
X117291078Y-107781161D01*
X115919319Y-106409401D01*
X115885834Y-106348078D01*
X115883000Y-106321720D01*
X115883000Y-101871878D01*
X115882998Y-101871873D01*
X115844257Y-101778339D01*
X115765598Y-101699680D01*
X115765591Y-101699674D01*
X114258319Y-100192401D01*
X114224834Y-100131078D01*
X114222000Y-100104720D01*
X114222000Y-100061214D01*
X114218811Y-100034661D01*
X114211945Y-99977486D01*
X114211943Y-99977482D01*
X114211800Y-99976286D01*
X114211800Y-99946714D01*
X114211943Y-99945517D01*
X114211945Y-99945514D01*
X114220089Y-99877696D01*
X114247627Y-99813483D01*
X114305510Y-99774351D01*
X114375361Y-99772725D01*
X114430885Y-99804802D01*
G37*
G04 #@! TD.AperFunction*
G04 #@! TA.AperFunction,Conductor*
G36*
X115727898Y-89696526D02*
G01*
X115742818Y-89706114D01*
X115743838Y-89706878D01*
X115785693Y-89762820D01*
X115793472Y-89805972D01*
X115794954Y-89807454D01*
X115857039Y-89825685D01*
X115902794Y-89878489D01*
X115914000Y-89930000D01*
X115914000Y-90438121D01*
X115914001Y-90438126D01*
X115952742Y-90531660D01*
X117330839Y-91909757D01*
X117403182Y-91939721D01*
X117424377Y-91948500D01*
X118461220Y-91948500D01*
X118528259Y-91968185D01*
X118548901Y-91984819D01*
X121433681Y-94869598D01*
X121467166Y-94930921D01*
X121470000Y-94957279D01*
X121470000Y-97866719D01*
X121450315Y-97933758D01*
X121433681Y-97954400D01*
X120173681Y-99214400D01*
X120112358Y-99247885D01*
X120042666Y-99242901D01*
X119986733Y-99201029D01*
X119962316Y-99135565D01*
X119962000Y-99126719D01*
X119962000Y-98897279D01*
X119981685Y-98830240D01*
X119998319Y-98809598D01*
X120459294Y-98348623D01*
X120924255Y-97883662D01*
X120963001Y-97790122D01*
X120963001Y-97688876D01*
X120963001Y-97678887D01*
X120963000Y-97678873D01*
X120963000Y-95267878D01*
X120962998Y-95267873D01*
X120924257Y-95174339D01*
X120845598Y-95095680D01*
X120845591Y-95095674D01*
X120216748Y-94466831D01*
X119582663Y-93832745D01*
X119582662Y-93832744D01*
X119582660Y-93832742D01*
X119489126Y-93794001D01*
X119489124Y-93794000D01*
X119489123Y-93794000D01*
X119489121Y-93794000D01*
X112188480Y-93794000D01*
X112121441Y-93774315D01*
X112100799Y-93757681D01*
X110063799Y-91720681D01*
X110030314Y-91659358D01*
X110035298Y-91589666D01*
X110077170Y-91533733D01*
X110142634Y-91509316D01*
X110151480Y-91509000D01*
X114409121Y-91509000D01*
X114409123Y-91509000D01*
X114455893Y-91489627D01*
X114502660Y-91470257D01*
X114502661Y-91470255D01*
X114502663Y-91470255D01*
X115384255Y-90588663D01*
X115384255Y-90588661D01*
X115384257Y-90588660D01*
X115414492Y-90515663D01*
X115423000Y-90495123D01*
X115423000Y-90393877D01*
X115423000Y-89930000D01*
X115442685Y-89862961D01*
X115495489Y-89817206D01*
X115542526Y-89806973D01*
X115543551Y-89805948D01*
X115563185Y-89739084D01*
X115593159Y-89706879D01*
X115594169Y-89706124D01*
X115659621Y-89681692D01*
X115727898Y-89696526D01*
G37*
G04 #@! TD.AperFunction*
G04 #@! TA.AperFunction,Conductor*
G36*
X110173049Y-86405585D02*
G01*
X110193691Y-86422219D01*
X112104181Y-88332708D01*
X112137666Y-88394031D01*
X112140500Y-88420389D01*
X112140500Y-89585621D01*
X112140501Y-89585626D01*
X112179242Y-89679160D01*
X112179244Y-89679162D01*
X112179245Y-89679163D01*
X112430581Y-89930499D01*
X112680174Y-90180091D01*
X112680177Y-90180095D01*
X112687245Y-90187163D01*
X112758837Y-90258755D01*
X112824974Y-90286149D01*
X112824977Y-90286151D01*
X112824978Y-90286151D01*
X112836327Y-90290851D01*
X112852376Y-90297500D01*
X113588621Y-90297500D01*
X113588623Y-90297500D01*
X113682163Y-90258755D01*
X113791720Y-90149196D01*
X113791723Y-90149194D01*
X113809162Y-90131755D01*
X113809163Y-90131755D01*
X113880755Y-90060163D01*
X113880755Y-90060161D01*
X113880757Y-90060160D01*
X113909972Y-89989625D01*
X113919500Y-89966623D01*
X113919500Y-89930499D01*
X113939185Y-89863460D01*
X113991989Y-89817705D01*
X114043496Y-89806499D01*
X114341372Y-89806499D01*
X114400983Y-89800091D01*
X114400986Y-89800089D01*
X114405244Y-89799632D01*
X114431754Y-89799632D01*
X114436014Y-89800089D01*
X114436017Y-89800091D01*
X114495627Y-89806500D01*
X114790000Y-89806499D01*
X114857039Y-89826183D01*
X114902794Y-89878987D01*
X114914000Y-89930499D01*
X114914000Y-90287720D01*
X114894315Y-90354759D01*
X114877681Y-90375401D01*
X114289401Y-90963681D01*
X114228078Y-90997166D01*
X114201720Y-91000000D01*
X109943280Y-91000000D01*
X109876241Y-90980315D01*
X109855599Y-90963681D01*
X108828819Y-89936901D01*
X108795334Y-89875578D01*
X108792500Y-89849220D01*
X108792500Y-89555999D01*
X108812185Y-89488960D01*
X108864989Y-89443205D01*
X108916500Y-89431999D01*
X108925502Y-89431999D01*
X108925508Y-89431999D01*
X109028297Y-89421499D01*
X109194834Y-89366314D01*
X109344156Y-89274212D01*
X109468212Y-89150156D01*
X109560314Y-89000834D01*
X109615499Y-88834297D01*
X109626000Y-88731509D01*
X109625999Y-87681492D01*
X109623627Y-87658275D01*
X109615499Y-87578703D01*
X109615498Y-87578700D01*
X109583829Y-87483130D01*
X109560314Y-87412166D01*
X109468212Y-87262844D01*
X109344156Y-87138788D01*
X109215351Y-87059341D01*
X109194836Y-87046687D01*
X109194831Y-87046685D01*
X109170731Y-87038699D01*
X109028297Y-86991501D01*
X109028295Y-86991500D01*
X108925510Y-86981000D01*
X108150498Y-86981000D01*
X108150480Y-86981001D01*
X108047703Y-86991500D01*
X108047700Y-86991501D01*
X107881168Y-87046685D01*
X107881163Y-87046687D01*
X107731842Y-87138789D01*
X107607788Y-87262843D01*
X107607783Y-87262849D01*
X107605741Y-87266161D01*
X107603747Y-87267953D01*
X107603307Y-87268511D01*
X107603211Y-87268435D01*
X107553791Y-87312883D01*
X107484828Y-87324102D01*
X107420747Y-87296255D01*
X107394668Y-87266156D01*
X107392819Y-87263159D01*
X107392816Y-87263155D01*
X107268845Y-87139184D01*
X107119624Y-87047143D01*
X107119619Y-87047141D01*
X106953197Y-86991994D01*
X106953190Y-86991993D01*
X106850486Y-86981500D01*
X106713000Y-86981500D01*
X106713000Y-88332500D01*
X106693315Y-88399539D01*
X106640511Y-88445294D01*
X106589000Y-88456500D01*
X105375501Y-88456500D01*
X105375501Y-88731486D01*
X105385994Y-88834197D01*
X105441141Y-89000619D01*
X105441143Y-89000624D01*
X105533184Y-89149845D01*
X105657154Y-89273815D01*
X105707649Y-89304961D01*
X105754374Y-89356909D01*
X105765595Y-89425872D01*
X105737752Y-89489954D01*
X105679683Y-89528810D01*
X105642552Y-89534500D01*
X105073791Y-89534500D01*
X105006752Y-89514815D01*
X104986115Y-89498185D01*
X104862617Y-89374687D01*
X104829134Y-89313366D01*
X104826300Y-89287008D01*
X104826300Y-87956500D01*
X105375500Y-87956500D01*
X106213000Y-87956500D01*
X106213000Y-86981500D01*
X106075527Y-86981500D01*
X106075512Y-86981501D01*
X105972802Y-86991994D01*
X105806380Y-87047141D01*
X105806375Y-87047143D01*
X105657154Y-87139184D01*
X105533184Y-87263154D01*
X105441143Y-87412375D01*
X105441141Y-87412380D01*
X105385994Y-87578802D01*
X105385993Y-87578809D01*
X105375500Y-87681513D01*
X105375500Y-87956500D01*
X104826300Y-87956500D01*
X104826300Y-87126380D01*
X104845985Y-87059341D01*
X104862619Y-87038699D01*
X105479099Y-86422219D01*
X105540422Y-86388734D01*
X105566780Y-86385900D01*
X110106010Y-86385900D01*
X110173049Y-86405585D01*
G37*
G04 #@! TD.AperFunction*
G04 #@! TA.AperFunction,Conductor*
G36*
X112082733Y-82818502D02*
G01*
X112127080Y-82847003D01*
X113608553Y-84328476D01*
X113695547Y-84378702D01*
X113792575Y-84404701D01*
X113792577Y-84404701D01*
X113800635Y-84405762D01*
X113800373Y-84407747D01*
X113857039Y-84424386D01*
X113902794Y-84477190D01*
X113914000Y-84528701D01*
X113914000Y-84881500D01*
X113894315Y-84948539D01*
X113841511Y-84994294D01*
X113790000Y-85005500D01*
X113495630Y-85005500D01*
X113495623Y-85005501D01*
X113436016Y-85011908D01*
X113301171Y-85062202D01*
X113301164Y-85062206D01*
X113185955Y-85148452D01*
X113185952Y-85148455D01*
X113099706Y-85263664D01*
X113099702Y-85263671D01*
X113049408Y-85398517D01*
X113043001Y-85458116D01*
X113043001Y-85458123D01*
X113043000Y-85458135D01*
X113043000Y-86050588D01*
X113023315Y-86117627D01*
X112993314Y-86149853D01*
X112961308Y-86173813D01*
X112875149Y-86288906D01*
X112875146Y-86288912D01*
X112846343Y-86366136D01*
X112804471Y-86422069D01*
X112739006Y-86446486D01*
X112670734Y-86431634D01*
X112642480Y-86410483D01*
X111034819Y-84802822D01*
X111001334Y-84741499D01*
X110998500Y-84715141D01*
X110998500Y-83851583D01*
X111018185Y-83784544D01*
X111034814Y-83763906D01*
X111951718Y-82847002D01*
X112013041Y-82813518D01*
X112082733Y-82818502D01*
G37*
G04 #@! TD.AperFunction*
G04 #@! TA.AperFunction,Conductor*
G36*
X124146440Y-80352685D02*
G01*
X124192195Y-80405489D01*
X124203401Y-80457000D01*
X124203401Y-80581186D01*
X124213725Y-80682252D01*
X124213727Y-80682259D01*
X124228246Y-80726075D01*
X124230647Y-80795904D01*
X124198221Y-80852759D01*
X123705151Y-81345829D01*
X123643828Y-81379314D01*
X123623524Y-81377861D01*
X123624732Y-81383414D01*
X123600317Y-81448878D01*
X123588729Y-81462251D01*
X121750401Y-83300581D01*
X121689078Y-83334066D01*
X121662720Y-83336900D01*
X116890623Y-83336900D01*
X116789377Y-83336900D01*
X116789375Y-83336900D01*
X116789373Y-83336901D01*
X116695839Y-83375642D01*
X115134681Y-84936800D01*
X115073358Y-84970285D01*
X115003666Y-84965301D01*
X114947733Y-84923429D01*
X114923316Y-84857965D01*
X114923000Y-84849119D01*
X114923000Y-82670678D01*
X114942685Y-82603639D01*
X114959314Y-82583002D01*
X115435816Y-82106500D01*
X116075901Y-82106500D01*
X116075901Y-82205654D01*
X116086219Y-82306652D01*
X116140446Y-82470300D01*
X116140451Y-82470311D01*
X116230952Y-82617034D01*
X116230955Y-82617038D01*
X116352861Y-82738944D01*
X116352865Y-82738947D01*
X116499588Y-82829448D01*
X116499599Y-82829453D01*
X116663247Y-82883680D01*
X116764252Y-82893999D01*
X116800900Y-82893999D01*
X116800900Y-82106500D01*
X117300900Y-82106500D01*
X117300900Y-82893999D01*
X117337540Y-82893999D01*
X117337554Y-82893998D01*
X117438552Y-82883680D01*
X117602200Y-82829453D01*
X117602211Y-82829448D01*
X117748934Y-82738947D01*
X117748938Y-82738944D01*
X117870844Y-82617038D01*
X117870847Y-82617034D01*
X117961348Y-82470311D01*
X117961353Y-82470300D01*
X118015580Y-82306652D01*
X118025899Y-82205654D01*
X118025900Y-82205641D01*
X118025900Y-82106500D01*
X117300900Y-82106500D01*
X116800900Y-82106500D01*
X116075901Y-82106500D01*
X115435816Y-82106500D01*
X115918177Y-81624138D01*
X115979500Y-81590654D01*
X116049192Y-81595638D01*
X116066093Y-81606500D01*
X118025899Y-81606500D01*
X118025899Y-81507360D01*
X118025898Y-81507345D01*
X118015580Y-81406347D01*
X117961353Y-81242699D01*
X117961348Y-81242688D01*
X117870847Y-81095965D01*
X117870844Y-81095961D01*
X117856917Y-81082034D01*
X117823432Y-81020711D01*
X117828416Y-80951019D01*
X117856917Y-80906672D01*
X117871240Y-80892350D01*
X117961808Y-80745516D01*
X118016074Y-80581753D01*
X118024692Y-80497397D01*
X118051088Y-80432706D01*
X118108269Y-80392554D01*
X118148050Y-80386000D01*
X118483801Y-80386000D01*
X118550840Y-80405685D01*
X118596595Y-80458489D01*
X118607801Y-80510000D01*
X118607801Y-80926476D01*
X118614208Y-80986083D01*
X118664502Y-81120928D01*
X118664506Y-81120935D01*
X118750752Y-81236144D01*
X118750755Y-81236147D01*
X118865964Y-81322393D01*
X118865971Y-81322397D01*
X119000817Y-81372691D01*
X119000816Y-81372691D01*
X119007744Y-81373435D01*
X119060427Y-81379100D01*
X120324572Y-81379099D01*
X120384183Y-81372691D01*
X120519031Y-81322396D01*
X120634246Y-81236146D01*
X120720496Y-81120931D01*
X120770791Y-80986083D01*
X120775902Y-80938541D01*
X120802639Y-80873994D01*
X120860032Y-80834146D01*
X120899191Y-80827800D01*
X121330609Y-80827800D01*
X121397648Y-80847485D01*
X121443403Y-80900289D01*
X121453899Y-80938547D01*
X121459008Y-80986083D01*
X121509302Y-81120928D01*
X121509306Y-81120935D01*
X121595552Y-81236144D01*
X121595555Y-81236147D01*
X121710764Y-81322393D01*
X121710771Y-81322397D01*
X121845617Y-81372691D01*
X121845616Y-81372691D01*
X121852544Y-81373435D01*
X121905227Y-81379100D01*
X123169372Y-81379099D01*
X123228983Y-81372691D01*
X123363831Y-81322396D01*
X123426739Y-81275302D01*
X123492199Y-81250886D01*
X123497060Y-81251943D01*
X123508638Y-81198721D01*
X123518196Y-81183848D01*
X123565296Y-81120931D01*
X123615591Y-80986083D01*
X123622000Y-80926473D01*
X123622000Y-80457000D01*
X123641685Y-80389961D01*
X123694489Y-80344206D01*
X123746000Y-80333000D01*
X124079401Y-80333000D01*
X124146440Y-80352685D01*
G37*
G04 #@! TD.AperFunction*
M02*
