%TF.GenerationSoftware,KiCad,Pcbnew,8.0.0*%
%TF.CreationDate,2024-03-04T00:48:55-06:00*%
%TF.ProjectId,InertialMeasurementUnitBoard,496e6572-7469-4616-9c4d-656173757265,rev?*%
%TF.SameCoordinates,Original*%
%TF.FileFunction,Other,User*%
%FSLAX46Y46*%
G04 Gerber Fmt 4.6, Leading zero omitted, Abs format (unit mm)*
G04 Created by KiCad (PCBNEW 8.0.0) date 2024-03-04 00:48:55*
%MOMM*%
%LPD*%
G01*
G04 APERTURE LIST*
%ADD10C,0.152400*%
%ADD11C,0.050000*%
%ADD12C,0.127000*%
G04 APERTURE END LIST*
D10*
%TO.C,X2*%
X118854300Y-79024400D02*
X123375500Y-79024400D01*
X118854300Y-81132600D02*
X118854300Y-79024400D01*
X123375500Y-79024400D02*
X123375500Y-81132600D01*
X123375500Y-81132600D02*
X118854300Y-81132600D01*
D11*
%TO.C,R4*%
X104137500Y-103358500D02*
X106037500Y-103358500D01*
X104137500Y-107058500D02*
X104137500Y-103358500D01*
X106037500Y-103358500D02*
X106037500Y-107058500D01*
X106037500Y-107058500D02*
X104137500Y-107058500D01*
%TO.C,U1*%
X111901500Y-95911500D02*
X111901500Y-101411500D01*
X111901500Y-95911500D02*
X119711500Y-95911500D01*
X111901500Y-101411500D02*
X119711500Y-101411500D01*
X119711500Y-95911500D02*
X119711500Y-101411500D01*
%TO.C,GND1*%
X102592000Y-103505000D02*
G75*
G02*
X99592000Y-103505000I-1500000J0D01*
G01*
X99592000Y-103505000D02*
G75*
G02*
X102592000Y-103505000I1500000J0D01*
G01*
%TO.C,H4*%
X103780000Y-80010000D02*
G75*
G02*
X96880000Y-80010000I-3450000J0D01*
G01*
X96880000Y-80010000D02*
G75*
G02*
X103780000Y-80010000I3450000J0D01*
G01*
%TO.C,U2*%
X113068500Y-85256000D02*
X118768500Y-85256000D01*
X113068500Y-89556000D02*
X113068500Y-85256000D01*
X118768500Y-85256000D02*
X118768500Y-89556000D01*
X118768500Y-89556000D02*
X113068500Y-89556000D01*
%TO.C,VDD1*%
X102592000Y-98679000D02*
G75*
G02*
X99592000Y-98679000I-1500000J0D01*
G01*
X99592000Y-98679000D02*
G75*
G02*
X102592000Y-98679000I1500000J0D01*
G01*
%TO.C,C2*%
X108298500Y-79214500D02*
X110258500Y-79214500D01*
X108298500Y-82974500D02*
X108298500Y-79214500D01*
X110258500Y-79214500D02*
X110258500Y-82974500D01*
X110258500Y-82974500D02*
X108298500Y-82974500D01*
%TO.C,R5*%
X118620500Y-106052500D02*
X122320500Y-106052500D01*
X118620500Y-107952500D02*
X118620500Y-106052500D01*
X122320500Y-106052500D02*
X122320500Y-107952500D01*
X122320500Y-107952500D02*
X118620500Y-107952500D01*
%TO.C,R6*%
X107439500Y-103358500D02*
X109339500Y-103358500D01*
X107439500Y-107058500D02*
X107439500Y-103358500D01*
X109339500Y-103358500D02*
X109339500Y-107058500D01*
X109339500Y-107058500D02*
X107439500Y-107058500D01*
%TO.C,C3*%
X105620500Y-87226500D02*
X109380500Y-87226500D01*
X105620500Y-89186500D02*
X105620500Y-87226500D01*
X109380500Y-87226500D02*
X109380500Y-89186500D01*
X109380500Y-89186500D02*
X105620500Y-89186500D01*
%TO.C,D1*%
X104357500Y-107876500D02*
X105817500Y-107876500D01*
X104357500Y-111176500D02*
X104357500Y-107876500D01*
X105817500Y-107876500D02*
X105817500Y-111176500D01*
X105817500Y-111176500D02*
X104357500Y-111176500D01*
%TO.C,C5*%
X124448900Y-79444500D02*
X125908900Y-79444500D01*
X124448900Y-82744500D02*
X124448900Y-79444500D01*
X125908900Y-79444500D02*
X125908900Y-82744500D01*
X125908900Y-82744500D02*
X124448900Y-82744500D01*
%TO.C,H1*%
X134514000Y-80010000D02*
G75*
G02*
X127614000Y-80010000I-3450000J0D01*
G01*
X127614000Y-80010000D02*
G75*
G02*
X134514000Y-80010000I3450000J0D01*
G01*
%TO.C,R3*%
X118604500Y-109354500D02*
X122304500Y-109354500D01*
X118604500Y-111254500D02*
X118604500Y-109354500D01*
X122304500Y-109354500D02*
X122304500Y-111254500D01*
X122304500Y-111254500D02*
X118604500Y-111254500D01*
%TO.C,H2*%
X134514000Y-112776000D02*
G75*
G02*
X127614000Y-112776000I-3450000J0D01*
G01*
X127614000Y-112776000D02*
G75*
G02*
X134514000Y-112776000I3450000J0D01*
G01*
D12*
%TO.C,J2*%
X126694500Y-85254512D02*
X126694500Y-99794488D01*
X126694500Y-99794488D02*
X134534500Y-99794488D01*
X134534500Y-85254512D02*
X126694500Y-85254512D01*
X134534500Y-99794488D02*
X134534500Y-85254512D01*
D11*
%TO.C,R2*%
X118604500Y-102750500D02*
X122304500Y-102750500D01*
X118604500Y-104650500D02*
X118604500Y-102750500D01*
X122304500Y-102750500D02*
X122304500Y-104650500D01*
X122304500Y-104650500D02*
X118604500Y-104650500D01*
%TO.C,H3*%
X103780000Y-112776000D02*
G75*
G02*
X96880000Y-112776000I-3450000J0D01*
G01*
X96880000Y-112776000D02*
G75*
G02*
X103780000Y-112776000I3450000J0D01*
G01*
%TO.C,R1*%
X110741500Y-103358500D02*
X112641500Y-103358500D01*
X110741500Y-107058500D02*
X110741500Y-103358500D01*
X112641500Y-103358500D02*
X112641500Y-107058500D01*
X112641500Y-107058500D02*
X110741500Y-107058500D01*
%TO.C,C4*%
X116320900Y-79344000D02*
X117780900Y-79344000D01*
X116320900Y-82644000D02*
X116320900Y-79344000D01*
X117780900Y-79344000D02*
X117780900Y-82644000D01*
X117780900Y-82644000D02*
X116320900Y-82644000D01*
%TD*%
M02*
