G04 #@! TF.GenerationSoftware,KiCad,Pcbnew,8.0.0*
G04 #@! TF.CreationDate,2024-03-04T18:11:22-06:00*
G04 #@! TF.ProjectId,InertialMeasurementUnitBoard,496e6572-7469-4616-9c4d-656173757265,rev?*
G04 #@! TF.SameCoordinates,Original*
G04 #@! TF.FileFunction,Soldermask,Bot*
G04 #@! TF.FilePolarity,Negative*
%FSLAX46Y46*%
G04 Gerber Fmt 4.6, Leading zero omitted, Abs format (unit mm)*
G04 Created by KiCad (PCBNEW 8.0.0) date 2024-03-04 18:11:22*
%MOMM*%
%LPD*%
G01*
G04 APERTURE LIST*
G04 APERTURE END LIST*
G36*
X100580295Y-111195699D02*
G01*
X100824427Y-111254310D01*
X101056385Y-111350390D01*
X101270456Y-111481573D01*
X101461371Y-111644629D01*
X101624427Y-111835544D01*
X101755610Y-112049615D01*
X101851690Y-112281573D01*
X101910301Y-112525705D01*
X101930000Y-112776000D01*
X101910301Y-113026295D01*
X101851690Y-113270427D01*
X101755610Y-113502385D01*
X101624427Y-113716456D01*
X101461371Y-113907371D01*
X101270456Y-114070427D01*
X101056385Y-114201610D01*
X100824427Y-114297690D01*
X100580295Y-114356301D01*
X100330000Y-114376000D01*
X100079705Y-114356301D01*
X99835573Y-114297690D01*
X99603615Y-114201610D01*
X99389544Y-114070427D01*
X99198629Y-113907371D01*
X99035573Y-113716456D01*
X98904390Y-113502385D01*
X98808310Y-113270427D01*
X98749699Y-113026295D01*
X98730000Y-112776000D01*
X98749699Y-112525705D01*
X98808310Y-112281573D01*
X98904390Y-112049615D01*
X99035573Y-111835544D01*
X99198629Y-111644629D01*
X99389544Y-111481573D01*
X99603615Y-111350390D01*
X99835573Y-111254310D01*
X100079705Y-111195699D01*
X100330000Y-111176000D01*
X100580295Y-111195699D01*
G37*
G36*
X131314295Y-111195699D02*
G01*
X131558427Y-111254310D01*
X131790385Y-111350390D01*
X132004456Y-111481573D01*
X132195371Y-111644629D01*
X132358427Y-111835544D01*
X132489610Y-112049615D01*
X132585690Y-112281573D01*
X132644301Y-112525705D01*
X132664000Y-112776000D01*
X132644301Y-113026295D01*
X132585690Y-113270427D01*
X132489610Y-113502385D01*
X132358427Y-113716456D01*
X132195371Y-113907371D01*
X132004456Y-114070427D01*
X131790385Y-114201610D01*
X131558427Y-114297690D01*
X131314295Y-114356301D01*
X131064000Y-114376000D01*
X130813705Y-114356301D01*
X130569573Y-114297690D01*
X130337615Y-114201610D01*
X130123544Y-114070427D01*
X129932629Y-113907371D01*
X129769573Y-113716456D01*
X129638390Y-113502385D01*
X129542310Y-113270427D01*
X129483699Y-113026295D01*
X129464000Y-112776000D01*
X129483699Y-112525705D01*
X129542310Y-112281573D01*
X129638390Y-112049615D01*
X129769573Y-111835544D01*
X129932629Y-111644629D01*
X130123544Y-111481573D01*
X130337615Y-111350390D01*
X130569573Y-111254310D01*
X130813705Y-111195699D01*
X131064000Y-111176000D01*
X131314295Y-111195699D01*
G37*
G36*
X101287090Y-102524215D02*
G01*
X101474683Y-102581120D01*
X101647570Y-102673530D01*
X101799107Y-102797893D01*
X101923470Y-102949430D01*
X102015880Y-103122317D01*
X102072785Y-103309910D01*
X102092000Y-103505000D01*
X102072785Y-103700090D01*
X102015880Y-103887683D01*
X101923470Y-104060570D01*
X101799107Y-104212107D01*
X101647570Y-104336470D01*
X101474683Y-104428880D01*
X101287090Y-104485785D01*
X101092000Y-104505000D01*
X100896910Y-104485785D01*
X100709317Y-104428880D01*
X100536430Y-104336470D01*
X100384893Y-104212107D01*
X100260530Y-104060570D01*
X100168120Y-103887683D01*
X100111215Y-103700090D01*
X100092000Y-103505000D01*
X100111215Y-103309910D01*
X100168120Y-103122317D01*
X100260530Y-102949430D01*
X100384893Y-102797893D01*
X100536430Y-102673530D01*
X100709317Y-102581120D01*
X100896910Y-102524215D01*
X101092000Y-102505000D01*
X101287090Y-102524215D01*
G37*
G36*
X101287090Y-97698215D02*
G01*
X101474683Y-97755120D01*
X101647570Y-97847530D01*
X101799107Y-97971893D01*
X101923470Y-98123430D01*
X102015880Y-98296317D01*
X102072785Y-98483910D01*
X102092000Y-98679000D01*
X102072785Y-98874090D01*
X102015880Y-99061683D01*
X101923470Y-99234570D01*
X101799107Y-99386107D01*
X101647570Y-99510470D01*
X101474683Y-99602880D01*
X101287090Y-99659785D01*
X101092000Y-99679000D01*
X100896910Y-99659785D01*
X100709317Y-99602880D01*
X100536430Y-99510470D01*
X100384893Y-99386107D01*
X100260530Y-99234570D01*
X100168120Y-99061683D01*
X100111215Y-98874090D01*
X100092000Y-98679000D01*
X100111215Y-98483910D01*
X100168120Y-98296317D01*
X100260530Y-98123430D01*
X100384893Y-97971893D01*
X100536430Y-97847530D01*
X100709317Y-97755120D01*
X100896910Y-97698215D01*
X101092000Y-97679000D01*
X101287090Y-97698215D01*
G37*
G36*
X100580295Y-78429699D02*
G01*
X100824427Y-78488310D01*
X101056385Y-78584390D01*
X101270456Y-78715573D01*
X101461371Y-78878629D01*
X101624427Y-79069544D01*
X101755610Y-79283615D01*
X101851690Y-79515573D01*
X101910301Y-79759705D01*
X101930000Y-80010000D01*
X101910301Y-80260295D01*
X101851690Y-80504427D01*
X101755610Y-80736385D01*
X101624427Y-80950456D01*
X101461371Y-81141371D01*
X101270456Y-81304427D01*
X101056385Y-81435610D01*
X100824427Y-81531690D01*
X100580295Y-81590301D01*
X100330000Y-81610000D01*
X100079705Y-81590301D01*
X99835573Y-81531690D01*
X99603615Y-81435610D01*
X99389544Y-81304427D01*
X99198629Y-81141371D01*
X99035573Y-80950456D01*
X98904390Y-80736385D01*
X98808310Y-80504427D01*
X98749699Y-80260295D01*
X98730000Y-80010000D01*
X98749699Y-79759705D01*
X98808310Y-79515573D01*
X98904390Y-79283615D01*
X99035573Y-79069544D01*
X99198629Y-78878629D01*
X99389544Y-78715573D01*
X99603615Y-78584390D01*
X99835573Y-78488310D01*
X100079705Y-78429699D01*
X100330000Y-78410000D01*
X100580295Y-78429699D01*
G37*
G36*
X131314295Y-78429699D02*
G01*
X131558427Y-78488310D01*
X131790385Y-78584390D01*
X132004456Y-78715573D01*
X132195371Y-78878629D01*
X132358427Y-79069544D01*
X132489610Y-79283615D01*
X132585690Y-79515573D01*
X132644301Y-79759705D01*
X132664000Y-80010000D01*
X132644301Y-80260295D01*
X132585690Y-80504427D01*
X132489610Y-80736385D01*
X132358427Y-80950456D01*
X132195371Y-81141371D01*
X132004456Y-81304427D01*
X131790385Y-81435610D01*
X131558427Y-81531690D01*
X131314295Y-81590301D01*
X131064000Y-81610000D01*
X130813705Y-81590301D01*
X130569573Y-81531690D01*
X130337615Y-81435610D01*
X130123544Y-81304427D01*
X129932629Y-81141371D01*
X129769573Y-80950456D01*
X129638390Y-80736385D01*
X129542310Y-80504427D01*
X129483699Y-80260295D01*
X129464000Y-80010000D01*
X129483699Y-79759705D01*
X129542310Y-79515573D01*
X129638390Y-79283615D01*
X129769573Y-79069544D01*
X129932629Y-78878629D01*
X130123544Y-78715573D01*
X130337615Y-78584390D01*
X130569573Y-78488310D01*
X130813705Y-78429699D01*
X131064000Y-78410000D01*
X131314295Y-78429699D01*
G37*
M02*
