%TF.GenerationSoftware,KiCad,Pcbnew,8.0.0*%
%TF.CreationDate,2024-03-04T00:48:55-06:00*%
%TF.ProjectId,InertialMeasurementUnitBoard,496e6572-7469-4616-9c4d-656173757265,rev?*%
%TF.SameCoordinates,Original*%
%TF.FileFunction,Soldermask,Top*%
%TF.FilePolarity,Negative*%
%FSLAX46Y46*%
G04 Gerber Fmt 4.6, Leading zero omitted, Abs format (unit mm)*
G04 Created by KiCad (PCBNEW 8.0.0) date 2024-03-04 00:48:55*
%MOMM*%
%LPD*%
G01*
G04 APERTURE LIST*
G04 APERTURE END LIST*
G36*
X100580295Y-111195699D02*
G01*
X100824427Y-111254310D01*
X101056385Y-111350390D01*
X101270456Y-111481573D01*
X101461371Y-111644629D01*
X101624427Y-111835544D01*
X101755610Y-112049615D01*
X101851690Y-112281573D01*
X101910301Y-112525705D01*
X101930000Y-112776000D01*
X101910301Y-113026295D01*
X101851690Y-113270427D01*
X101755610Y-113502385D01*
X101624427Y-113716456D01*
X101461371Y-113907371D01*
X101270456Y-114070427D01*
X101056385Y-114201610D01*
X100824427Y-114297690D01*
X100580295Y-114356301D01*
X100330000Y-114376000D01*
X100079705Y-114356301D01*
X99835573Y-114297690D01*
X99603615Y-114201610D01*
X99389544Y-114070427D01*
X99198629Y-113907371D01*
X99035573Y-113716456D01*
X98904390Y-113502385D01*
X98808310Y-113270427D01*
X98749699Y-113026295D01*
X98730000Y-112776000D01*
X98749699Y-112525705D01*
X98808310Y-112281573D01*
X98904390Y-112049615D01*
X99035573Y-111835544D01*
X99198629Y-111644629D01*
X99389544Y-111481573D01*
X99603615Y-111350390D01*
X99835573Y-111254310D01*
X100079705Y-111195699D01*
X100330000Y-111176000D01*
X100580295Y-111195699D01*
G37*
G36*
X131314295Y-111195699D02*
G01*
X131558427Y-111254310D01*
X131790385Y-111350390D01*
X132004456Y-111481573D01*
X132195371Y-111644629D01*
X132358427Y-111835544D01*
X132489610Y-112049615D01*
X132585690Y-112281573D01*
X132644301Y-112525705D01*
X132664000Y-112776000D01*
X132644301Y-113026295D01*
X132585690Y-113270427D01*
X132489610Y-113502385D01*
X132358427Y-113716456D01*
X132195371Y-113907371D01*
X132004456Y-114070427D01*
X131790385Y-114201610D01*
X131558427Y-114297690D01*
X131314295Y-114356301D01*
X131064000Y-114376000D01*
X130813705Y-114356301D01*
X130569573Y-114297690D01*
X130337615Y-114201610D01*
X130123544Y-114070427D01*
X129932629Y-113907371D01*
X129769573Y-113716456D01*
X129638390Y-113502385D01*
X129542310Y-113270427D01*
X129483699Y-113026295D01*
X129464000Y-112776000D01*
X129483699Y-112525705D01*
X129542310Y-112281573D01*
X129638390Y-112049615D01*
X129769573Y-111835544D01*
X129932629Y-111644629D01*
X130123544Y-111481573D01*
X130337615Y-111350390D01*
X130569573Y-111254310D01*
X130813705Y-111195699D01*
X131064000Y-111176000D01*
X131314295Y-111195699D01*
G37*
G36*
X119808616Y-109605318D02*
G01*
X119859879Y-109611266D01*
X119877392Y-109618999D01*
X119900171Y-109623530D01*
X119924557Y-109639824D01*
X119945288Y-109648978D01*
X119959446Y-109663136D01*
X119981277Y-109677723D01*
X119995863Y-109699553D01*
X120010021Y-109713711D01*
X120019173Y-109734439D01*
X120035470Y-109758829D01*
X120040001Y-109781609D01*
X120047733Y-109799120D01*
X120053678Y-109850372D01*
X120054500Y-109854500D01*
X120054500Y-110754500D01*
X120053678Y-110758628D01*
X120047733Y-110809879D01*
X120040001Y-110827388D01*
X120035470Y-110850171D01*
X120019172Y-110874562D01*
X120010021Y-110895288D01*
X119995865Y-110909443D01*
X119981277Y-110931277D01*
X119959443Y-110945865D01*
X119945288Y-110960021D01*
X119924562Y-110969172D01*
X119900171Y-110985470D01*
X119877388Y-110990001D01*
X119859879Y-110997733D01*
X119808629Y-111003678D01*
X119804500Y-111004500D01*
X119104500Y-111004500D01*
X119100373Y-111003679D01*
X119049120Y-110997733D01*
X119031609Y-110990001D01*
X119008829Y-110985470D01*
X118984439Y-110969173D01*
X118963711Y-110960021D01*
X118949553Y-110945863D01*
X118927723Y-110931277D01*
X118913136Y-110909446D01*
X118898978Y-110895288D01*
X118889824Y-110874557D01*
X118873530Y-110850171D01*
X118868999Y-110827392D01*
X118861266Y-110809879D01*
X118855318Y-110758617D01*
X118854500Y-110754500D01*
X118854500Y-109854500D01*
X118855318Y-109850385D01*
X118861266Y-109799120D01*
X118868999Y-109781605D01*
X118873530Y-109758829D01*
X118889823Y-109734444D01*
X118898978Y-109713711D01*
X118913138Y-109699550D01*
X118927723Y-109677723D01*
X118949550Y-109663138D01*
X118963711Y-109648978D01*
X118984444Y-109639823D01*
X119008829Y-109623530D01*
X119031605Y-109618999D01*
X119049120Y-109611266D01*
X119100384Y-109605318D01*
X119104500Y-109604500D01*
X119804500Y-109604500D01*
X119808616Y-109605318D01*
G37*
G36*
X121808616Y-109605318D02*
G01*
X121859879Y-109611266D01*
X121877392Y-109618999D01*
X121900171Y-109623530D01*
X121924557Y-109639824D01*
X121945288Y-109648978D01*
X121959446Y-109663136D01*
X121981277Y-109677723D01*
X121995863Y-109699553D01*
X122010021Y-109713711D01*
X122019173Y-109734439D01*
X122035470Y-109758829D01*
X122040001Y-109781609D01*
X122047733Y-109799120D01*
X122053678Y-109850372D01*
X122054500Y-109854500D01*
X122054500Y-110754500D01*
X122053678Y-110758628D01*
X122047733Y-110809879D01*
X122040001Y-110827388D01*
X122035470Y-110850171D01*
X122019172Y-110874562D01*
X122010021Y-110895288D01*
X121995865Y-110909443D01*
X121981277Y-110931277D01*
X121959443Y-110945865D01*
X121945288Y-110960021D01*
X121924562Y-110969172D01*
X121900171Y-110985470D01*
X121877388Y-110990001D01*
X121859879Y-110997733D01*
X121808629Y-111003678D01*
X121804500Y-111004500D01*
X121104500Y-111004500D01*
X121100373Y-111003679D01*
X121049120Y-110997733D01*
X121031609Y-110990001D01*
X121008829Y-110985470D01*
X120984439Y-110969173D01*
X120963711Y-110960021D01*
X120949553Y-110945863D01*
X120927723Y-110931277D01*
X120913136Y-110909446D01*
X120898978Y-110895288D01*
X120889824Y-110874557D01*
X120873530Y-110850171D01*
X120868999Y-110827392D01*
X120861266Y-110809879D01*
X120855318Y-110758617D01*
X120854500Y-110754500D01*
X120854500Y-109854500D01*
X120855318Y-109850385D01*
X120861266Y-109799120D01*
X120868999Y-109781605D01*
X120873530Y-109758829D01*
X120889823Y-109734444D01*
X120898978Y-109713711D01*
X120913138Y-109699550D01*
X120927723Y-109677723D01*
X120949550Y-109663138D01*
X120963711Y-109648978D01*
X120984444Y-109639823D01*
X121008829Y-109623530D01*
X121031605Y-109618999D01*
X121049120Y-109611266D01*
X121100384Y-109605318D01*
X121104500Y-109604500D01*
X121804500Y-109604500D01*
X121808616Y-109605318D01*
G37*
G36*
X105329115Y-109877318D02*
G01*
X105377517Y-109882934D01*
X105394055Y-109890236D01*
X105415887Y-109894579D01*
X105439259Y-109910195D01*
X105458724Y-109918790D01*
X105472017Y-109932083D01*
X105492938Y-109946062D01*
X105506916Y-109966982D01*
X105520209Y-109980275D01*
X105528802Y-109999738D01*
X105544421Y-110023113D01*
X105548764Y-110044946D01*
X105556065Y-110061482D01*
X105561678Y-110109872D01*
X105562500Y-110114000D01*
X105562500Y-110689000D01*
X105561678Y-110693127D01*
X105556065Y-110741517D01*
X105548764Y-110758051D01*
X105544421Y-110779887D01*
X105528801Y-110803263D01*
X105520209Y-110822724D01*
X105506918Y-110836014D01*
X105492938Y-110856938D01*
X105472014Y-110870918D01*
X105458724Y-110884209D01*
X105439263Y-110892801D01*
X105415887Y-110908421D01*
X105394051Y-110912764D01*
X105377517Y-110920065D01*
X105329129Y-110925678D01*
X105325000Y-110926500D01*
X104850000Y-110926500D01*
X104845873Y-110925679D01*
X104797482Y-110920065D01*
X104780946Y-110912764D01*
X104759113Y-110908421D01*
X104735738Y-110892802D01*
X104716275Y-110884209D01*
X104702982Y-110870916D01*
X104682062Y-110856938D01*
X104668083Y-110836017D01*
X104654790Y-110822724D01*
X104646195Y-110803259D01*
X104630579Y-110779887D01*
X104626236Y-110758055D01*
X104618934Y-110741517D01*
X104613318Y-110693116D01*
X104612500Y-110689000D01*
X104612500Y-110114000D01*
X104613318Y-110109885D01*
X104618934Y-110061482D01*
X104626236Y-110044942D01*
X104630579Y-110023113D01*
X104646194Y-109999742D01*
X104654790Y-109980275D01*
X104668085Y-109966979D01*
X104682062Y-109946062D01*
X104702979Y-109932085D01*
X104716275Y-109918790D01*
X104735742Y-109910194D01*
X104759113Y-109894579D01*
X104780942Y-109890236D01*
X104797482Y-109882934D01*
X104845884Y-109877318D01*
X104850000Y-109876500D01*
X105325000Y-109876500D01*
X105329115Y-109877318D01*
G37*
G36*
X105329115Y-108127318D02*
G01*
X105377517Y-108132934D01*
X105394055Y-108140236D01*
X105415887Y-108144579D01*
X105439259Y-108160195D01*
X105458724Y-108168790D01*
X105472017Y-108182083D01*
X105492938Y-108196062D01*
X105506916Y-108216982D01*
X105520209Y-108230275D01*
X105528802Y-108249738D01*
X105544421Y-108273113D01*
X105548764Y-108294946D01*
X105556065Y-108311482D01*
X105561678Y-108359872D01*
X105562500Y-108364000D01*
X105562500Y-108939000D01*
X105561678Y-108943127D01*
X105556065Y-108991517D01*
X105548764Y-109008051D01*
X105544421Y-109029887D01*
X105528801Y-109053263D01*
X105520209Y-109072724D01*
X105506918Y-109086014D01*
X105492938Y-109106938D01*
X105472014Y-109120918D01*
X105458724Y-109134209D01*
X105439263Y-109142801D01*
X105415887Y-109158421D01*
X105394051Y-109162764D01*
X105377517Y-109170065D01*
X105329129Y-109175678D01*
X105325000Y-109176500D01*
X104850000Y-109176500D01*
X104845873Y-109175679D01*
X104797482Y-109170065D01*
X104780946Y-109162764D01*
X104759113Y-109158421D01*
X104735738Y-109142802D01*
X104716275Y-109134209D01*
X104702982Y-109120916D01*
X104682062Y-109106938D01*
X104668083Y-109086017D01*
X104654790Y-109072724D01*
X104646195Y-109053259D01*
X104630579Y-109029887D01*
X104626236Y-109008055D01*
X104618934Y-108991517D01*
X104613318Y-108943116D01*
X104612500Y-108939000D01*
X104612500Y-108364000D01*
X104613318Y-108359885D01*
X104618934Y-108311482D01*
X104626236Y-108294942D01*
X104630579Y-108273113D01*
X104646194Y-108249742D01*
X104654790Y-108230275D01*
X104668085Y-108216979D01*
X104682062Y-108196062D01*
X104702979Y-108182085D01*
X104716275Y-108168790D01*
X104735742Y-108160194D01*
X104759113Y-108144579D01*
X104780942Y-108140236D01*
X104797482Y-108132934D01*
X104845884Y-108127318D01*
X104850000Y-108126500D01*
X105325000Y-108126500D01*
X105329115Y-108127318D01*
G37*
G36*
X134484000Y-108504000D02*
G01*
X131084000Y-108504000D01*
X131084000Y-107004000D01*
X134484000Y-107004000D01*
X134484000Y-108504000D01*
G37*
G36*
X119824616Y-106303318D02*
G01*
X119875879Y-106309266D01*
X119893392Y-106316999D01*
X119916171Y-106321530D01*
X119940557Y-106337824D01*
X119961288Y-106346978D01*
X119975446Y-106361136D01*
X119997277Y-106375723D01*
X120011863Y-106397553D01*
X120026021Y-106411711D01*
X120035173Y-106432439D01*
X120051470Y-106456829D01*
X120056001Y-106479609D01*
X120063733Y-106497120D01*
X120069678Y-106548372D01*
X120070500Y-106552500D01*
X120070500Y-107452500D01*
X120069678Y-107456628D01*
X120063733Y-107507879D01*
X120056001Y-107525388D01*
X120051470Y-107548171D01*
X120035172Y-107572562D01*
X120026021Y-107593288D01*
X120011865Y-107607443D01*
X119997277Y-107629277D01*
X119975443Y-107643865D01*
X119961288Y-107658021D01*
X119940562Y-107667172D01*
X119916171Y-107683470D01*
X119893388Y-107688001D01*
X119875879Y-107695733D01*
X119824629Y-107701678D01*
X119820500Y-107702500D01*
X119120500Y-107702500D01*
X119116373Y-107701679D01*
X119065120Y-107695733D01*
X119047609Y-107688001D01*
X119024829Y-107683470D01*
X119000439Y-107667173D01*
X118979711Y-107658021D01*
X118965553Y-107643863D01*
X118943723Y-107629277D01*
X118929136Y-107607446D01*
X118914978Y-107593288D01*
X118905824Y-107572557D01*
X118889530Y-107548171D01*
X118884999Y-107525392D01*
X118877266Y-107507879D01*
X118871318Y-107456617D01*
X118870500Y-107452500D01*
X118870500Y-106552500D01*
X118871318Y-106548385D01*
X118877266Y-106497120D01*
X118884999Y-106479605D01*
X118889530Y-106456829D01*
X118905823Y-106432444D01*
X118914978Y-106411711D01*
X118929138Y-106397550D01*
X118943723Y-106375723D01*
X118965550Y-106361138D01*
X118979711Y-106346978D01*
X119000444Y-106337823D01*
X119024829Y-106321530D01*
X119047605Y-106316999D01*
X119065120Y-106309266D01*
X119116384Y-106303318D01*
X119120500Y-106302500D01*
X119820500Y-106302500D01*
X119824616Y-106303318D01*
G37*
G36*
X121824616Y-106303318D02*
G01*
X121875879Y-106309266D01*
X121893392Y-106316999D01*
X121916171Y-106321530D01*
X121940557Y-106337824D01*
X121961288Y-106346978D01*
X121975446Y-106361136D01*
X121997277Y-106375723D01*
X122011863Y-106397553D01*
X122026021Y-106411711D01*
X122035173Y-106432439D01*
X122051470Y-106456829D01*
X122056001Y-106479609D01*
X122063733Y-106497120D01*
X122069678Y-106548372D01*
X122070500Y-106552500D01*
X122070500Y-107452500D01*
X122069678Y-107456628D01*
X122063733Y-107507879D01*
X122056001Y-107525388D01*
X122051470Y-107548171D01*
X122035172Y-107572562D01*
X122026021Y-107593288D01*
X122011865Y-107607443D01*
X121997277Y-107629277D01*
X121975443Y-107643865D01*
X121961288Y-107658021D01*
X121940562Y-107667172D01*
X121916171Y-107683470D01*
X121893388Y-107688001D01*
X121875879Y-107695733D01*
X121824629Y-107701678D01*
X121820500Y-107702500D01*
X121120500Y-107702500D01*
X121116373Y-107701679D01*
X121065120Y-107695733D01*
X121047609Y-107688001D01*
X121024829Y-107683470D01*
X121000439Y-107667173D01*
X120979711Y-107658021D01*
X120965553Y-107643863D01*
X120943723Y-107629277D01*
X120929136Y-107607446D01*
X120914978Y-107593288D01*
X120905824Y-107572557D01*
X120889530Y-107548171D01*
X120884999Y-107525392D01*
X120877266Y-107507879D01*
X120871318Y-107456617D01*
X120870500Y-107452500D01*
X120870500Y-106552500D01*
X120871318Y-106548385D01*
X120877266Y-106497120D01*
X120884999Y-106479605D01*
X120889530Y-106456829D01*
X120905823Y-106432444D01*
X120914978Y-106411711D01*
X120929138Y-106397550D01*
X120943723Y-106375723D01*
X120965550Y-106361138D01*
X120979711Y-106346978D01*
X121000444Y-106337823D01*
X121024829Y-106321530D01*
X121047605Y-106316999D01*
X121065120Y-106309266D01*
X121116384Y-106303318D01*
X121120500Y-106302500D01*
X121820500Y-106302500D01*
X121824616Y-106303318D01*
G37*
G36*
X105541616Y-105609318D02*
G01*
X105592879Y-105615266D01*
X105610392Y-105622999D01*
X105633171Y-105627530D01*
X105657557Y-105643824D01*
X105678288Y-105652978D01*
X105692446Y-105667136D01*
X105714277Y-105681723D01*
X105728863Y-105703553D01*
X105743021Y-105717711D01*
X105752173Y-105738439D01*
X105768470Y-105762829D01*
X105773001Y-105785609D01*
X105780733Y-105803120D01*
X105786678Y-105854372D01*
X105787500Y-105858500D01*
X105787500Y-106558500D01*
X105786678Y-106562628D01*
X105780733Y-106613879D01*
X105773001Y-106631388D01*
X105768470Y-106654171D01*
X105752172Y-106678562D01*
X105743021Y-106699288D01*
X105728865Y-106713443D01*
X105714277Y-106735277D01*
X105692443Y-106749865D01*
X105678288Y-106764021D01*
X105657562Y-106773172D01*
X105633171Y-106789470D01*
X105610388Y-106794001D01*
X105592879Y-106801733D01*
X105541629Y-106807678D01*
X105537500Y-106808500D01*
X104637500Y-106808500D01*
X104633373Y-106807679D01*
X104582120Y-106801733D01*
X104564609Y-106794001D01*
X104541829Y-106789470D01*
X104517439Y-106773173D01*
X104496711Y-106764021D01*
X104482553Y-106749863D01*
X104460723Y-106735277D01*
X104446136Y-106713446D01*
X104431978Y-106699288D01*
X104422824Y-106678557D01*
X104406530Y-106654171D01*
X104401999Y-106631392D01*
X104394266Y-106613879D01*
X104388318Y-106562617D01*
X104387500Y-106558500D01*
X104387500Y-105858500D01*
X104388318Y-105854385D01*
X104394266Y-105803120D01*
X104401999Y-105785605D01*
X104406530Y-105762829D01*
X104422823Y-105738444D01*
X104431978Y-105717711D01*
X104446138Y-105703550D01*
X104460723Y-105681723D01*
X104482550Y-105667138D01*
X104496711Y-105652978D01*
X104517444Y-105643823D01*
X104541829Y-105627530D01*
X104564605Y-105622999D01*
X104582120Y-105615266D01*
X104633384Y-105609318D01*
X104637500Y-105608500D01*
X105537500Y-105608500D01*
X105541616Y-105609318D01*
G37*
G36*
X108843616Y-105609318D02*
G01*
X108894879Y-105615266D01*
X108912392Y-105622999D01*
X108935171Y-105627530D01*
X108959557Y-105643824D01*
X108980288Y-105652978D01*
X108994446Y-105667136D01*
X109016277Y-105681723D01*
X109030863Y-105703553D01*
X109045021Y-105717711D01*
X109054173Y-105738439D01*
X109070470Y-105762829D01*
X109075001Y-105785609D01*
X109082733Y-105803120D01*
X109088678Y-105854372D01*
X109089500Y-105858500D01*
X109089500Y-106558500D01*
X109088678Y-106562628D01*
X109082733Y-106613879D01*
X109075001Y-106631388D01*
X109070470Y-106654171D01*
X109054172Y-106678562D01*
X109045021Y-106699288D01*
X109030865Y-106713443D01*
X109016277Y-106735277D01*
X108994443Y-106749865D01*
X108980288Y-106764021D01*
X108959562Y-106773172D01*
X108935171Y-106789470D01*
X108912388Y-106794001D01*
X108894879Y-106801733D01*
X108843629Y-106807678D01*
X108839500Y-106808500D01*
X107939500Y-106808500D01*
X107935373Y-106807679D01*
X107884120Y-106801733D01*
X107866609Y-106794001D01*
X107843829Y-106789470D01*
X107819439Y-106773173D01*
X107798711Y-106764021D01*
X107784553Y-106749863D01*
X107762723Y-106735277D01*
X107748136Y-106713446D01*
X107733978Y-106699288D01*
X107724824Y-106678557D01*
X107708530Y-106654171D01*
X107703999Y-106631392D01*
X107696266Y-106613879D01*
X107690318Y-106562617D01*
X107689500Y-106558500D01*
X107689500Y-105858500D01*
X107690318Y-105854385D01*
X107696266Y-105803120D01*
X107703999Y-105785605D01*
X107708530Y-105762829D01*
X107724823Y-105738444D01*
X107733978Y-105717711D01*
X107748138Y-105703550D01*
X107762723Y-105681723D01*
X107784550Y-105667138D01*
X107798711Y-105652978D01*
X107819444Y-105643823D01*
X107843829Y-105627530D01*
X107866605Y-105622999D01*
X107884120Y-105615266D01*
X107935384Y-105609318D01*
X107939500Y-105608500D01*
X108839500Y-105608500D01*
X108843616Y-105609318D01*
G37*
G36*
X112145616Y-105609318D02*
G01*
X112196879Y-105615266D01*
X112214392Y-105622999D01*
X112237171Y-105627530D01*
X112261557Y-105643824D01*
X112282288Y-105652978D01*
X112296446Y-105667136D01*
X112318277Y-105681723D01*
X112332863Y-105703553D01*
X112347021Y-105717711D01*
X112356173Y-105738439D01*
X112372470Y-105762829D01*
X112377001Y-105785609D01*
X112384733Y-105803120D01*
X112390678Y-105854372D01*
X112391500Y-105858500D01*
X112391500Y-106558500D01*
X112390678Y-106562628D01*
X112384733Y-106613879D01*
X112377001Y-106631388D01*
X112372470Y-106654171D01*
X112356172Y-106678562D01*
X112347021Y-106699288D01*
X112332865Y-106713443D01*
X112318277Y-106735277D01*
X112296443Y-106749865D01*
X112282288Y-106764021D01*
X112261562Y-106773172D01*
X112237171Y-106789470D01*
X112214388Y-106794001D01*
X112196879Y-106801733D01*
X112145629Y-106807678D01*
X112141500Y-106808500D01*
X111241500Y-106808500D01*
X111237373Y-106807679D01*
X111186120Y-106801733D01*
X111168609Y-106794001D01*
X111145829Y-106789470D01*
X111121439Y-106773173D01*
X111100711Y-106764021D01*
X111086553Y-106749863D01*
X111064723Y-106735277D01*
X111050136Y-106713446D01*
X111035978Y-106699288D01*
X111026824Y-106678557D01*
X111010530Y-106654171D01*
X111005999Y-106631392D01*
X110998266Y-106613879D01*
X110992318Y-106562617D01*
X110991500Y-106558500D01*
X110991500Y-105858500D01*
X110992318Y-105854385D01*
X110998266Y-105803120D01*
X111005999Y-105785605D01*
X111010530Y-105762829D01*
X111026823Y-105738444D01*
X111035978Y-105717711D01*
X111050138Y-105703550D01*
X111064723Y-105681723D01*
X111086550Y-105667138D01*
X111100711Y-105652978D01*
X111121444Y-105643823D01*
X111145829Y-105627530D01*
X111168605Y-105622999D01*
X111186120Y-105615266D01*
X111237384Y-105609318D01*
X111241500Y-105608500D01*
X112141500Y-105608500D01*
X112145616Y-105609318D01*
G37*
G36*
X128984000Y-105904000D02*
G01*
X125484000Y-105904000D01*
X125484000Y-104904000D01*
X128984000Y-104904000D01*
X128984000Y-105904000D01*
G37*
G36*
X105541616Y-103609318D02*
G01*
X105592879Y-103615266D01*
X105610392Y-103622999D01*
X105633171Y-103627530D01*
X105657557Y-103643824D01*
X105678288Y-103652978D01*
X105692446Y-103667136D01*
X105714277Y-103681723D01*
X105728863Y-103703553D01*
X105743021Y-103717711D01*
X105752173Y-103738439D01*
X105768470Y-103762829D01*
X105773001Y-103785609D01*
X105780733Y-103803120D01*
X105786678Y-103854372D01*
X105787500Y-103858500D01*
X105787500Y-104558500D01*
X105786678Y-104562628D01*
X105780733Y-104613879D01*
X105773001Y-104631388D01*
X105768470Y-104654171D01*
X105752172Y-104678562D01*
X105743021Y-104699288D01*
X105728865Y-104713443D01*
X105714277Y-104735277D01*
X105692443Y-104749865D01*
X105678288Y-104764021D01*
X105657562Y-104773172D01*
X105633171Y-104789470D01*
X105610388Y-104794001D01*
X105592879Y-104801733D01*
X105541629Y-104807678D01*
X105537500Y-104808500D01*
X104637500Y-104808500D01*
X104633373Y-104807679D01*
X104582120Y-104801733D01*
X104564609Y-104794001D01*
X104541829Y-104789470D01*
X104517439Y-104773173D01*
X104496711Y-104764021D01*
X104482553Y-104749863D01*
X104460723Y-104735277D01*
X104446136Y-104713446D01*
X104431978Y-104699288D01*
X104422824Y-104678557D01*
X104406530Y-104654171D01*
X104401999Y-104631392D01*
X104394266Y-104613879D01*
X104388318Y-104562617D01*
X104387500Y-104558500D01*
X104387500Y-103858500D01*
X104388318Y-103854385D01*
X104394266Y-103803120D01*
X104401999Y-103785605D01*
X104406530Y-103762829D01*
X104422823Y-103738444D01*
X104431978Y-103717711D01*
X104446138Y-103703550D01*
X104460723Y-103681723D01*
X104482550Y-103667138D01*
X104496711Y-103652978D01*
X104517444Y-103643823D01*
X104541829Y-103627530D01*
X104564605Y-103622999D01*
X104582120Y-103615266D01*
X104633384Y-103609318D01*
X104637500Y-103608500D01*
X105537500Y-103608500D01*
X105541616Y-103609318D01*
G37*
G36*
X108843616Y-103609318D02*
G01*
X108894879Y-103615266D01*
X108912392Y-103622999D01*
X108935171Y-103627530D01*
X108959557Y-103643824D01*
X108980288Y-103652978D01*
X108994446Y-103667136D01*
X109016277Y-103681723D01*
X109030863Y-103703553D01*
X109045021Y-103717711D01*
X109054173Y-103738439D01*
X109070470Y-103762829D01*
X109075001Y-103785609D01*
X109082733Y-103803120D01*
X109088678Y-103854372D01*
X109089500Y-103858500D01*
X109089500Y-104558500D01*
X109088678Y-104562628D01*
X109082733Y-104613879D01*
X109075001Y-104631388D01*
X109070470Y-104654171D01*
X109054172Y-104678562D01*
X109045021Y-104699288D01*
X109030865Y-104713443D01*
X109016277Y-104735277D01*
X108994443Y-104749865D01*
X108980288Y-104764021D01*
X108959562Y-104773172D01*
X108935171Y-104789470D01*
X108912388Y-104794001D01*
X108894879Y-104801733D01*
X108843629Y-104807678D01*
X108839500Y-104808500D01*
X107939500Y-104808500D01*
X107935373Y-104807679D01*
X107884120Y-104801733D01*
X107866609Y-104794001D01*
X107843829Y-104789470D01*
X107819439Y-104773173D01*
X107798711Y-104764021D01*
X107784553Y-104749863D01*
X107762723Y-104735277D01*
X107748136Y-104713446D01*
X107733978Y-104699288D01*
X107724824Y-104678557D01*
X107708530Y-104654171D01*
X107703999Y-104631392D01*
X107696266Y-104613879D01*
X107690318Y-104562617D01*
X107689500Y-104558500D01*
X107689500Y-103858500D01*
X107690318Y-103854385D01*
X107696266Y-103803120D01*
X107703999Y-103785605D01*
X107708530Y-103762829D01*
X107724823Y-103738444D01*
X107733978Y-103717711D01*
X107748138Y-103703550D01*
X107762723Y-103681723D01*
X107784550Y-103667138D01*
X107798711Y-103652978D01*
X107819444Y-103643823D01*
X107843829Y-103627530D01*
X107866605Y-103622999D01*
X107884120Y-103615266D01*
X107935384Y-103609318D01*
X107939500Y-103608500D01*
X108839500Y-103608500D01*
X108843616Y-103609318D01*
G37*
G36*
X112145616Y-103609318D02*
G01*
X112196879Y-103615266D01*
X112214392Y-103622999D01*
X112237171Y-103627530D01*
X112261557Y-103643824D01*
X112282288Y-103652978D01*
X112296446Y-103667136D01*
X112318277Y-103681723D01*
X112332863Y-103703553D01*
X112347021Y-103717711D01*
X112356173Y-103738439D01*
X112372470Y-103762829D01*
X112377001Y-103785609D01*
X112384733Y-103803120D01*
X112390678Y-103854372D01*
X112391500Y-103858500D01*
X112391500Y-104558500D01*
X112390678Y-104562628D01*
X112384733Y-104613879D01*
X112377001Y-104631388D01*
X112372470Y-104654171D01*
X112356172Y-104678562D01*
X112347021Y-104699288D01*
X112332865Y-104713443D01*
X112318277Y-104735277D01*
X112296443Y-104749865D01*
X112282288Y-104764021D01*
X112261562Y-104773172D01*
X112237171Y-104789470D01*
X112214388Y-104794001D01*
X112196879Y-104801733D01*
X112145629Y-104807678D01*
X112141500Y-104808500D01*
X111241500Y-104808500D01*
X111237373Y-104807679D01*
X111186120Y-104801733D01*
X111168609Y-104794001D01*
X111145829Y-104789470D01*
X111121439Y-104773173D01*
X111100711Y-104764021D01*
X111086553Y-104749863D01*
X111064723Y-104735277D01*
X111050136Y-104713446D01*
X111035978Y-104699288D01*
X111026824Y-104678557D01*
X111010530Y-104654171D01*
X111005999Y-104631392D01*
X110998266Y-104613879D01*
X110992318Y-104562617D01*
X110991500Y-104558500D01*
X110991500Y-103858500D01*
X110992318Y-103854385D01*
X110998266Y-103803120D01*
X111005999Y-103785605D01*
X111010530Y-103762829D01*
X111026823Y-103738444D01*
X111035978Y-103717711D01*
X111050138Y-103703550D01*
X111064723Y-103681723D01*
X111086550Y-103667138D01*
X111100711Y-103652978D01*
X111121444Y-103643823D01*
X111145829Y-103627530D01*
X111168605Y-103622999D01*
X111186120Y-103615266D01*
X111237384Y-103609318D01*
X111241500Y-103608500D01*
X112141500Y-103608500D01*
X112145616Y-103609318D01*
G37*
G36*
X101287090Y-102524215D02*
G01*
X101474683Y-102581120D01*
X101647570Y-102673530D01*
X101799107Y-102797893D01*
X101923470Y-102949430D01*
X102015880Y-103122317D01*
X102072785Y-103309910D01*
X102092000Y-103505000D01*
X102072785Y-103700090D01*
X102015880Y-103887683D01*
X101923470Y-104060570D01*
X101799107Y-104212107D01*
X101647570Y-104336470D01*
X101474683Y-104428880D01*
X101287090Y-104485785D01*
X101092000Y-104505000D01*
X100896910Y-104485785D01*
X100709317Y-104428880D01*
X100536430Y-104336470D01*
X100384893Y-104212107D01*
X100260530Y-104060570D01*
X100168120Y-103887683D01*
X100111215Y-103700090D01*
X100092000Y-103505000D01*
X100111215Y-103309910D01*
X100168120Y-103122317D01*
X100260530Y-102949430D01*
X100384893Y-102797893D01*
X100536430Y-102673530D01*
X100709317Y-102581120D01*
X100896910Y-102524215D01*
X101092000Y-102505000D01*
X101287090Y-102524215D01*
G37*
G36*
X119808616Y-103001318D02*
G01*
X119859879Y-103007266D01*
X119877392Y-103014999D01*
X119900171Y-103019530D01*
X119924557Y-103035824D01*
X119945288Y-103044978D01*
X119959446Y-103059136D01*
X119981277Y-103073723D01*
X119995863Y-103095553D01*
X120010021Y-103109711D01*
X120019173Y-103130439D01*
X120035470Y-103154829D01*
X120040001Y-103177609D01*
X120047733Y-103195120D01*
X120053678Y-103246372D01*
X120054500Y-103250500D01*
X120054500Y-104150500D01*
X120053678Y-104154628D01*
X120047733Y-104205879D01*
X120040001Y-104223388D01*
X120035470Y-104246171D01*
X120019172Y-104270562D01*
X120010021Y-104291288D01*
X119995865Y-104305443D01*
X119981277Y-104327277D01*
X119959443Y-104341865D01*
X119945288Y-104356021D01*
X119924562Y-104365172D01*
X119900171Y-104381470D01*
X119877388Y-104386001D01*
X119859879Y-104393733D01*
X119808629Y-104399678D01*
X119804500Y-104400500D01*
X119104500Y-104400500D01*
X119100373Y-104399679D01*
X119049120Y-104393733D01*
X119031609Y-104386001D01*
X119008829Y-104381470D01*
X118984439Y-104365173D01*
X118963711Y-104356021D01*
X118949553Y-104341863D01*
X118927723Y-104327277D01*
X118913136Y-104305446D01*
X118898978Y-104291288D01*
X118889824Y-104270557D01*
X118873530Y-104246171D01*
X118868999Y-104223392D01*
X118861266Y-104205879D01*
X118855318Y-104154617D01*
X118854500Y-104150500D01*
X118854500Y-103250500D01*
X118855318Y-103246385D01*
X118861266Y-103195120D01*
X118868999Y-103177605D01*
X118873530Y-103154829D01*
X118889823Y-103130444D01*
X118898978Y-103109711D01*
X118913138Y-103095550D01*
X118927723Y-103073723D01*
X118949550Y-103059138D01*
X118963711Y-103044978D01*
X118984444Y-103035823D01*
X119008829Y-103019530D01*
X119031605Y-103014999D01*
X119049120Y-103007266D01*
X119100384Y-103001318D01*
X119104500Y-103000500D01*
X119804500Y-103000500D01*
X119808616Y-103001318D01*
G37*
G36*
X121808616Y-103001318D02*
G01*
X121859879Y-103007266D01*
X121877392Y-103014999D01*
X121900171Y-103019530D01*
X121924557Y-103035824D01*
X121945288Y-103044978D01*
X121959446Y-103059136D01*
X121981277Y-103073723D01*
X121995863Y-103095553D01*
X122010021Y-103109711D01*
X122019173Y-103130439D01*
X122035470Y-103154829D01*
X122040001Y-103177609D01*
X122047733Y-103195120D01*
X122053678Y-103246372D01*
X122054500Y-103250500D01*
X122054500Y-104150500D01*
X122053678Y-104154628D01*
X122047733Y-104205879D01*
X122040001Y-104223388D01*
X122035470Y-104246171D01*
X122019172Y-104270562D01*
X122010021Y-104291288D01*
X121995865Y-104305443D01*
X121981277Y-104327277D01*
X121959443Y-104341865D01*
X121945288Y-104356021D01*
X121924562Y-104365172D01*
X121900171Y-104381470D01*
X121877388Y-104386001D01*
X121859879Y-104393733D01*
X121808629Y-104399678D01*
X121804500Y-104400500D01*
X121104500Y-104400500D01*
X121100373Y-104399679D01*
X121049120Y-104393733D01*
X121031609Y-104386001D01*
X121008829Y-104381470D01*
X120984439Y-104365173D01*
X120963711Y-104356021D01*
X120949553Y-104341863D01*
X120927723Y-104327277D01*
X120913136Y-104305446D01*
X120898978Y-104291288D01*
X120889824Y-104270557D01*
X120873530Y-104246171D01*
X120868999Y-104223392D01*
X120861266Y-104205879D01*
X120855318Y-104154617D01*
X120854500Y-104150500D01*
X120854500Y-103250500D01*
X120855318Y-103246385D01*
X120861266Y-103195120D01*
X120868999Y-103177605D01*
X120873530Y-103154829D01*
X120889823Y-103130444D01*
X120898978Y-103109711D01*
X120913138Y-103095550D01*
X120927723Y-103073723D01*
X120949550Y-103059138D01*
X120963711Y-103044978D01*
X120984444Y-103035823D01*
X121008829Y-103019530D01*
X121031605Y-103014999D01*
X121049120Y-103007266D01*
X121100384Y-103001318D01*
X121104500Y-103000500D01*
X121804500Y-103000500D01*
X121808616Y-103001318D01*
G37*
G36*
X128984000Y-103904000D02*
G01*
X125484000Y-103904000D01*
X125484000Y-102904000D01*
X128984000Y-102904000D01*
X128984000Y-103904000D01*
G37*
G36*
X134484000Y-101804000D02*
G01*
X131084000Y-101804000D01*
X131084000Y-100304000D01*
X134484000Y-100304000D01*
X134484000Y-101804000D01*
G37*
G36*
X113747879Y-96088825D02*
G01*
X113787621Y-96115379D01*
X113814175Y-96155121D01*
X113823500Y-96202000D01*
X113823500Y-96571000D01*
X113814175Y-96617879D01*
X113787621Y-96657621D01*
X113747879Y-96684175D01*
X113745864Y-96684575D01*
X113745864Y-96738424D01*
X113747879Y-96738825D01*
X113787621Y-96765379D01*
X113814175Y-96805121D01*
X113823500Y-96852000D01*
X113823500Y-97221000D01*
X113814175Y-97267879D01*
X113787621Y-97307621D01*
X113747879Y-97334175D01*
X113745864Y-97334575D01*
X113745864Y-97388424D01*
X113747879Y-97388825D01*
X113787621Y-97415379D01*
X113814175Y-97455121D01*
X113823500Y-97502000D01*
X113823500Y-97871000D01*
X113814175Y-97917879D01*
X113787621Y-97957621D01*
X113747879Y-97984175D01*
X113745864Y-97984575D01*
X113745864Y-98038424D01*
X113747879Y-98038825D01*
X113787621Y-98065379D01*
X113814175Y-98105121D01*
X113823500Y-98152000D01*
X113823500Y-98521000D01*
X113814175Y-98567879D01*
X113787621Y-98607621D01*
X113747879Y-98634175D01*
X113745864Y-98634575D01*
X113745864Y-98688424D01*
X113747879Y-98688825D01*
X113787621Y-98715379D01*
X113814175Y-98755121D01*
X113823500Y-98802000D01*
X113823500Y-99171000D01*
X113814175Y-99217879D01*
X113787621Y-99257621D01*
X113747879Y-99284175D01*
X113745864Y-99284575D01*
X113745864Y-99338424D01*
X113747879Y-99338825D01*
X113787621Y-99365379D01*
X113814175Y-99405121D01*
X113823500Y-99452000D01*
X113823500Y-99821000D01*
X113814175Y-99867879D01*
X113787621Y-99907621D01*
X113747879Y-99934175D01*
X113745864Y-99934575D01*
X113745864Y-99988424D01*
X113747879Y-99988825D01*
X113787621Y-100015379D01*
X113814175Y-100055121D01*
X113823500Y-100102000D01*
X113823500Y-100471000D01*
X113814175Y-100517879D01*
X113787621Y-100557621D01*
X113747879Y-100584175D01*
X113745864Y-100584575D01*
X113745864Y-100638424D01*
X113747879Y-100638825D01*
X113787621Y-100665379D01*
X113814175Y-100705121D01*
X113823500Y-100752000D01*
X113823500Y-101121000D01*
X113814175Y-101167879D01*
X113787621Y-101207621D01*
X113747879Y-101234175D01*
X113701000Y-101243500D01*
X112172000Y-101243500D01*
X112125121Y-101234175D01*
X112085379Y-101207621D01*
X112058825Y-101167879D01*
X112049500Y-101121000D01*
X112049500Y-100752000D01*
X112058825Y-100705121D01*
X112085379Y-100665379D01*
X112125121Y-100638825D01*
X112127135Y-100638424D01*
X112127135Y-100584575D01*
X112125121Y-100584175D01*
X112085379Y-100557621D01*
X112058825Y-100517879D01*
X112049500Y-100471000D01*
X112049500Y-100102000D01*
X112058825Y-100055121D01*
X112085379Y-100015379D01*
X112125121Y-99988825D01*
X112127135Y-99988424D01*
X112127135Y-99934575D01*
X112125121Y-99934175D01*
X112085379Y-99907621D01*
X112058825Y-99867879D01*
X112049500Y-99821000D01*
X112049500Y-99452000D01*
X112058825Y-99405121D01*
X112085379Y-99365379D01*
X112125121Y-99338825D01*
X112127135Y-99338424D01*
X112127135Y-99284575D01*
X112125121Y-99284175D01*
X112085379Y-99257621D01*
X112058825Y-99217879D01*
X112049500Y-99171000D01*
X112049500Y-98802000D01*
X112058825Y-98755121D01*
X112085379Y-98715379D01*
X112125121Y-98688825D01*
X112127135Y-98688424D01*
X112127135Y-98634575D01*
X112125121Y-98634175D01*
X112085379Y-98607621D01*
X112058825Y-98567879D01*
X112049500Y-98521000D01*
X112049500Y-98152000D01*
X112058825Y-98105121D01*
X112085379Y-98065379D01*
X112125121Y-98038825D01*
X112127135Y-98038424D01*
X112127135Y-97984575D01*
X112125121Y-97984175D01*
X112085379Y-97957621D01*
X112058825Y-97917879D01*
X112049500Y-97871000D01*
X112049500Y-97502000D01*
X112058825Y-97455121D01*
X112085379Y-97415379D01*
X112125121Y-97388825D01*
X112127135Y-97388424D01*
X112127135Y-97334575D01*
X112125121Y-97334175D01*
X112085379Y-97307621D01*
X112058825Y-97267879D01*
X112049500Y-97221000D01*
X112049500Y-96852000D01*
X112058825Y-96805121D01*
X112085379Y-96765379D01*
X112125121Y-96738825D01*
X112127135Y-96738424D01*
X112127135Y-96684575D01*
X112125121Y-96684175D01*
X112085379Y-96657621D01*
X112058825Y-96617879D01*
X112049500Y-96571000D01*
X112049500Y-96202000D01*
X112058825Y-96155121D01*
X112085379Y-96115379D01*
X112125121Y-96088825D01*
X112172000Y-96079500D01*
X113701000Y-96079500D01*
X113747879Y-96088825D01*
G37*
G36*
X119487879Y-96088825D02*
G01*
X119527621Y-96115379D01*
X119554175Y-96155121D01*
X119563500Y-96202000D01*
X119563500Y-96571000D01*
X119554175Y-96617879D01*
X119527621Y-96657621D01*
X119487879Y-96684175D01*
X119485864Y-96684575D01*
X119485864Y-96738424D01*
X119487879Y-96738825D01*
X119527621Y-96765379D01*
X119554175Y-96805121D01*
X119563500Y-96852000D01*
X119563500Y-97221000D01*
X119554175Y-97267879D01*
X119527621Y-97307621D01*
X119487879Y-97334175D01*
X119485864Y-97334575D01*
X119485864Y-97388424D01*
X119487879Y-97388825D01*
X119527621Y-97415379D01*
X119554175Y-97455121D01*
X119563500Y-97502000D01*
X119563500Y-97871000D01*
X119554175Y-97917879D01*
X119527621Y-97957621D01*
X119487879Y-97984175D01*
X119485864Y-97984575D01*
X119485864Y-98038424D01*
X119487879Y-98038825D01*
X119527621Y-98065379D01*
X119554175Y-98105121D01*
X119563500Y-98152000D01*
X119563500Y-98521000D01*
X119554175Y-98567879D01*
X119527621Y-98607621D01*
X119487879Y-98634175D01*
X119485864Y-98634575D01*
X119485864Y-98688424D01*
X119487879Y-98688825D01*
X119527621Y-98715379D01*
X119554175Y-98755121D01*
X119563500Y-98802000D01*
X119563500Y-99171000D01*
X119554175Y-99217879D01*
X119527621Y-99257621D01*
X119487879Y-99284175D01*
X119485864Y-99284575D01*
X119485864Y-99338424D01*
X119487879Y-99338825D01*
X119527621Y-99365379D01*
X119554175Y-99405121D01*
X119563500Y-99452000D01*
X119563500Y-99821000D01*
X119554175Y-99867879D01*
X119527621Y-99907621D01*
X119487879Y-99934175D01*
X119485864Y-99934575D01*
X119485864Y-99988424D01*
X119487879Y-99988825D01*
X119527621Y-100015379D01*
X119554175Y-100055121D01*
X119563500Y-100102000D01*
X119563500Y-100471000D01*
X119554175Y-100517879D01*
X119527621Y-100557621D01*
X119487879Y-100584175D01*
X119485864Y-100584575D01*
X119485864Y-100638424D01*
X119487879Y-100638825D01*
X119527621Y-100665379D01*
X119554175Y-100705121D01*
X119563500Y-100752000D01*
X119563500Y-101121000D01*
X119554175Y-101167879D01*
X119527621Y-101207621D01*
X119487879Y-101234175D01*
X119441000Y-101243500D01*
X117912000Y-101243500D01*
X117865121Y-101234175D01*
X117825379Y-101207621D01*
X117798825Y-101167879D01*
X117789500Y-101121000D01*
X117789500Y-100752000D01*
X117798825Y-100705121D01*
X117825379Y-100665379D01*
X117865121Y-100638825D01*
X117867135Y-100638424D01*
X117867135Y-100584575D01*
X117865121Y-100584175D01*
X117825379Y-100557621D01*
X117798825Y-100517879D01*
X117789500Y-100471000D01*
X117789500Y-100102000D01*
X117798825Y-100055121D01*
X117825379Y-100015379D01*
X117865121Y-99988825D01*
X117867135Y-99988424D01*
X117867135Y-99934575D01*
X117865121Y-99934175D01*
X117825379Y-99907621D01*
X117798825Y-99867879D01*
X117789500Y-99821000D01*
X117789500Y-99452000D01*
X117798825Y-99405121D01*
X117825379Y-99365379D01*
X117865121Y-99338825D01*
X117867135Y-99338424D01*
X117867135Y-99284575D01*
X117865121Y-99284175D01*
X117825379Y-99257621D01*
X117798825Y-99217879D01*
X117789500Y-99171000D01*
X117789500Y-98802000D01*
X117798825Y-98755121D01*
X117825379Y-98715379D01*
X117865121Y-98688825D01*
X117867135Y-98688424D01*
X117867135Y-98634575D01*
X117865121Y-98634175D01*
X117825379Y-98607621D01*
X117798825Y-98567879D01*
X117789500Y-98521000D01*
X117789500Y-98152000D01*
X117798825Y-98105121D01*
X117825379Y-98065379D01*
X117865121Y-98038825D01*
X117867135Y-98038424D01*
X117867135Y-97984575D01*
X117865121Y-97984175D01*
X117825379Y-97957621D01*
X117798825Y-97917879D01*
X117789500Y-97871000D01*
X117789500Y-97502000D01*
X117798825Y-97455121D01*
X117825379Y-97415379D01*
X117865121Y-97388825D01*
X117867135Y-97388424D01*
X117867135Y-97334575D01*
X117865121Y-97334175D01*
X117825379Y-97307621D01*
X117798825Y-97267879D01*
X117789500Y-97221000D01*
X117789500Y-96852000D01*
X117798825Y-96805121D01*
X117825379Y-96765379D01*
X117865121Y-96738825D01*
X117867135Y-96738424D01*
X117867135Y-96684575D01*
X117865121Y-96684175D01*
X117825379Y-96657621D01*
X117798825Y-96617879D01*
X117789500Y-96571000D01*
X117789500Y-96202000D01*
X117798825Y-96155121D01*
X117825379Y-96115379D01*
X117865121Y-96088825D01*
X117912000Y-96079500D01*
X119441000Y-96079500D01*
X119487879Y-96088825D01*
G37*
G36*
X101287090Y-97698215D02*
G01*
X101474683Y-97755120D01*
X101647570Y-97847530D01*
X101799107Y-97971893D01*
X101923470Y-98123430D01*
X102015880Y-98296317D01*
X102072785Y-98483910D01*
X102092000Y-98679000D01*
X102072785Y-98874090D01*
X102015880Y-99061683D01*
X101923470Y-99234570D01*
X101799107Y-99386107D01*
X101647570Y-99510470D01*
X101474683Y-99602880D01*
X101287090Y-99659785D01*
X101092000Y-99679000D01*
X100896910Y-99659785D01*
X100709317Y-99602880D01*
X100536430Y-99510470D01*
X100384893Y-99386107D01*
X100260530Y-99234570D01*
X100168120Y-99061683D01*
X100111215Y-98874090D01*
X100092000Y-98679000D01*
X100111215Y-98483910D01*
X100168120Y-98296317D01*
X100260530Y-98123430D01*
X100384893Y-97971893D01*
X100536430Y-97847530D01*
X100709317Y-97755120D01*
X100896910Y-97698215D01*
X101092000Y-97679000D01*
X101287090Y-97698215D01*
G37*
G36*
X131514499Y-98824495D02*
G01*
X130214499Y-98824495D01*
X130214499Y-96824495D01*
X131514499Y-96824495D01*
X131514499Y-98824495D01*
G37*
G36*
X128664500Y-95224500D02*
G01*
X127664500Y-95224500D01*
X127664500Y-94824500D01*
X128664500Y-94824500D01*
X128664500Y-95224500D01*
G37*
G36*
X128664500Y-94224500D02*
G01*
X127664500Y-94224500D01*
X127664500Y-93824500D01*
X128664500Y-93824500D01*
X128664500Y-94224500D01*
G37*
G36*
X128664500Y-93224499D02*
G01*
X127664500Y-93224499D01*
X127664500Y-92824499D01*
X128664500Y-92824499D01*
X128664500Y-93224499D01*
G37*
G36*
X128664500Y-92224501D02*
G01*
X127664500Y-92224501D01*
X127664500Y-91824501D01*
X128664500Y-91824501D01*
X128664500Y-92224501D01*
G37*
G36*
X128664500Y-91224500D02*
G01*
X127664500Y-91224500D01*
X127664500Y-90824500D01*
X128664500Y-90824500D01*
X128664500Y-91224500D01*
G37*
G36*
X128664500Y-90224500D02*
G01*
X127664500Y-90224500D01*
X127664500Y-89824500D01*
X128664500Y-89824500D01*
X128664500Y-90224500D01*
G37*
G36*
X113832534Y-88536764D02*
G01*
X113865625Y-88558875D01*
X113887736Y-88591966D01*
X113888233Y-88594466D01*
X113891348Y-88599128D01*
X113945652Y-88599128D01*
X113948766Y-88594466D01*
X113949264Y-88591966D01*
X113971375Y-88558875D01*
X114004466Y-88536764D01*
X114043500Y-88529000D01*
X114293500Y-88529000D01*
X114332534Y-88536764D01*
X114365625Y-88558875D01*
X114387736Y-88591966D01*
X114388233Y-88594466D01*
X114391348Y-88599128D01*
X114445652Y-88599128D01*
X114448766Y-88594466D01*
X114449264Y-88591966D01*
X114471375Y-88558875D01*
X114504466Y-88536764D01*
X114543500Y-88529000D01*
X114793500Y-88529000D01*
X114832534Y-88536764D01*
X114865625Y-88558875D01*
X114887736Y-88591966D01*
X114888233Y-88594466D01*
X114891348Y-88599128D01*
X114945652Y-88599128D01*
X114948766Y-88594466D01*
X114949264Y-88591966D01*
X114971375Y-88558875D01*
X115004466Y-88536764D01*
X115043500Y-88529000D01*
X115293500Y-88529000D01*
X115332534Y-88536764D01*
X115365625Y-88558875D01*
X115387736Y-88591966D01*
X115388233Y-88594466D01*
X115391348Y-88599128D01*
X115445652Y-88599128D01*
X115448766Y-88594466D01*
X115449264Y-88591966D01*
X115471375Y-88558875D01*
X115504466Y-88536764D01*
X115543500Y-88529000D01*
X115793500Y-88529000D01*
X115832534Y-88536764D01*
X115865625Y-88558875D01*
X115887736Y-88591966D01*
X115888233Y-88594466D01*
X115891348Y-88599128D01*
X115945652Y-88599128D01*
X115948766Y-88594466D01*
X115949264Y-88591966D01*
X115971375Y-88558875D01*
X116004466Y-88536764D01*
X116043500Y-88529000D01*
X116293500Y-88529000D01*
X116332534Y-88536764D01*
X116365625Y-88558875D01*
X116387736Y-88591966D01*
X116388233Y-88594466D01*
X116391348Y-88599128D01*
X116445652Y-88599128D01*
X116448766Y-88594466D01*
X116449264Y-88591966D01*
X116471375Y-88558875D01*
X116504466Y-88536764D01*
X116543500Y-88529000D01*
X116793500Y-88529000D01*
X116832534Y-88536764D01*
X116865625Y-88558875D01*
X116887736Y-88591966D01*
X116888233Y-88594466D01*
X116891348Y-88599128D01*
X116945652Y-88599128D01*
X116948766Y-88594466D01*
X116949264Y-88591966D01*
X116971375Y-88558875D01*
X117004466Y-88536764D01*
X117043500Y-88529000D01*
X117293500Y-88529000D01*
X117332534Y-88536764D01*
X117365625Y-88558875D01*
X117387736Y-88591966D01*
X117388233Y-88594466D01*
X117391348Y-88599128D01*
X117445652Y-88599128D01*
X117448766Y-88594466D01*
X117449264Y-88591966D01*
X117471375Y-88558875D01*
X117504466Y-88536764D01*
X117543500Y-88529000D01*
X117793500Y-88529000D01*
X117832534Y-88536764D01*
X117865625Y-88558875D01*
X117887736Y-88591966D01*
X117888233Y-88594466D01*
X117891348Y-88599128D01*
X117945652Y-88599128D01*
X117948766Y-88594466D01*
X117949264Y-88591966D01*
X117971375Y-88558875D01*
X118004466Y-88536764D01*
X118043500Y-88529000D01*
X118293500Y-88529000D01*
X118332534Y-88536764D01*
X118365625Y-88558875D01*
X118387736Y-88591966D01*
X118395500Y-88631000D01*
X118395500Y-89306000D01*
X118387736Y-89345034D01*
X118365625Y-89378125D01*
X118332534Y-89400236D01*
X118293500Y-89408000D01*
X118043500Y-89408000D01*
X118004466Y-89400236D01*
X117971375Y-89378125D01*
X117949264Y-89345034D01*
X117948765Y-89342529D01*
X117945653Y-89337871D01*
X117891347Y-89337871D01*
X117888234Y-89342529D01*
X117887736Y-89345034D01*
X117865625Y-89378125D01*
X117832534Y-89400236D01*
X117793500Y-89408000D01*
X117543500Y-89408000D01*
X117504466Y-89400236D01*
X117471375Y-89378125D01*
X117449264Y-89345034D01*
X117448765Y-89342529D01*
X117445653Y-89337871D01*
X117391347Y-89337871D01*
X117388234Y-89342529D01*
X117387736Y-89345034D01*
X117365625Y-89378125D01*
X117332534Y-89400236D01*
X117293500Y-89408000D01*
X117043500Y-89408000D01*
X117004466Y-89400236D01*
X116971375Y-89378125D01*
X116949264Y-89345034D01*
X116948765Y-89342529D01*
X116945653Y-89337871D01*
X116891347Y-89337871D01*
X116888234Y-89342529D01*
X116887736Y-89345034D01*
X116865625Y-89378125D01*
X116832534Y-89400236D01*
X116793500Y-89408000D01*
X116543500Y-89408000D01*
X116504466Y-89400236D01*
X116471375Y-89378125D01*
X116449264Y-89345034D01*
X116448765Y-89342529D01*
X116445653Y-89337871D01*
X116391347Y-89337871D01*
X116388234Y-89342529D01*
X116387736Y-89345034D01*
X116365625Y-89378125D01*
X116332534Y-89400236D01*
X116293500Y-89408000D01*
X116043500Y-89408000D01*
X116004466Y-89400236D01*
X115971375Y-89378125D01*
X115949264Y-89345034D01*
X115948765Y-89342529D01*
X115945653Y-89337871D01*
X115891347Y-89337871D01*
X115888234Y-89342529D01*
X115887736Y-89345034D01*
X115865625Y-89378125D01*
X115832534Y-89400236D01*
X115793500Y-89408000D01*
X115543500Y-89408000D01*
X115504466Y-89400236D01*
X115471375Y-89378125D01*
X115449264Y-89345034D01*
X115448765Y-89342529D01*
X115445653Y-89337871D01*
X115391347Y-89337871D01*
X115388234Y-89342529D01*
X115387736Y-89345034D01*
X115365625Y-89378125D01*
X115332534Y-89400236D01*
X115293500Y-89408000D01*
X115043500Y-89408000D01*
X115004466Y-89400236D01*
X114971375Y-89378125D01*
X114949264Y-89345034D01*
X114948765Y-89342529D01*
X114945653Y-89337871D01*
X114891347Y-89337871D01*
X114888234Y-89342529D01*
X114887736Y-89345034D01*
X114865625Y-89378125D01*
X114832534Y-89400236D01*
X114793500Y-89408000D01*
X114543500Y-89408000D01*
X114504466Y-89400236D01*
X114471375Y-89378125D01*
X114449264Y-89345034D01*
X114448765Y-89342529D01*
X114445653Y-89337871D01*
X114391347Y-89337871D01*
X114388234Y-89342529D01*
X114387736Y-89345034D01*
X114365625Y-89378125D01*
X114332534Y-89400236D01*
X114293500Y-89408000D01*
X114043500Y-89408000D01*
X114004466Y-89400236D01*
X113971375Y-89378125D01*
X113949264Y-89345034D01*
X113948765Y-89342529D01*
X113945653Y-89337871D01*
X113891347Y-89337871D01*
X113888234Y-89342529D01*
X113887736Y-89345034D01*
X113865625Y-89378125D01*
X113832534Y-89400236D01*
X113793500Y-89408000D01*
X113543500Y-89408000D01*
X113504466Y-89400236D01*
X113471375Y-89378125D01*
X113449264Y-89345034D01*
X113441500Y-89306000D01*
X113441500Y-88631000D01*
X113449264Y-88591966D01*
X113471375Y-88558875D01*
X113504466Y-88536764D01*
X113543500Y-88529000D01*
X113793500Y-88529000D01*
X113832534Y-88536764D01*
G37*
G36*
X106804616Y-87482318D02*
G01*
X106855879Y-87488266D01*
X106873392Y-87495999D01*
X106896171Y-87500530D01*
X106920557Y-87516824D01*
X106941288Y-87525978D01*
X106955446Y-87540136D01*
X106977277Y-87554723D01*
X106991863Y-87576553D01*
X107006021Y-87590711D01*
X107015173Y-87611439D01*
X107031470Y-87635829D01*
X107036001Y-87658609D01*
X107043733Y-87676120D01*
X107049678Y-87727372D01*
X107050500Y-87731500D01*
X107050500Y-88681500D01*
X107049678Y-88685628D01*
X107043733Y-88736879D01*
X107036001Y-88754388D01*
X107031470Y-88777171D01*
X107015172Y-88801562D01*
X107006021Y-88822288D01*
X106991865Y-88836443D01*
X106977277Y-88858277D01*
X106955443Y-88872865D01*
X106941288Y-88887021D01*
X106920562Y-88896172D01*
X106896171Y-88912470D01*
X106873388Y-88917001D01*
X106855879Y-88924733D01*
X106804629Y-88930678D01*
X106800500Y-88931500D01*
X106125500Y-88931500D01*
X106121373Y-88930679D01*
X106070120Y-88924733D01*
X106052609Y-88917001D01*
X106029829Y-88912470D01*
X106005439Y-88896173D01*
X105984711Y-88887021D01*
X105970553Y-88872863D01*
X105948723Y-88858277D01*
X105934136Y-88836446D01*
X105919978Y-88822288D01*
X105910824Y-88801557D01*
X105894530Y-88777171D01*
X105889999Y-88754392D01*
X105882266Y-88736879D01*
X105876318Y-88685617D01*
X105875500Y-88681500D01*
X105875500Y-87731500D01*
X105876318Y-87727385D01*
X105882266Y-87676120D01*
X105889999Y-87658605D01*
X105894530Y-87635829D01*
X105910823Y-87611444D01*
X105919978Y-87590711D01*
X105934138Y-87576550D01*
X105948723Y-87554723D01*
X105970550Y-87540138D01*
X105984711Y-87525978D01*
X106005444Y-87516823D01*
X106029829Y-87500530D01*
X106052605Y-87495999D01*
X106070120Y-87488266D01*
X106121384Y-87482318D01*
X106125500Y-87481500D01*
X106800500Y-87481500D01*
X106804616Y-87482318D01*
G37*
G36*
X108879616Y-87482318D02*
G01*
X108930879Y-87488266D01*
X108948392Y-87495999D01*
X108971171Y-87500530D01*
X108995557Y-87516824D01*
X109016288Y-87525978D01*
X109030446Y-87540136D01*
X109052277Y-87554723D01*
X109066863Y-87576553D01*
X109081021Y-87590711D01*
X109090173Y-87611439D01*
X109106470Y-87635829D01*
X109111001Y-87658609D01*
X109118733Y-87676120D01*
X109124678Y-87727372D01*
X109125500Y-87731500D01*
X109125500Y-88681500D01*
X109124678Y-88685628D01*
X109118733Y-88736879D01*
X109111001Y-88754388D01*
X109106470Y-88777171D01*
X109090172Y-88801562D01*
X109081021Y-88822288D01*
X109066865Y-88836443D01*
X109052277Y-88858277D01*
X109030443Y-88872865D01*
X109016288Y-88887021D01*
X108995562Y-88896172D01*
X108971171Y-88912470D01*
X108948388Y-88917001D01*
X108930879Y-88924733D01*
X108879629Y-88930678D01*
X108875500Y-88931500D01*
X108200500Y-88931500D01*
X108196373Y-88930679D01*
X108145120Y-88924733D01*
X108127609Y-88917001D01*
X108104829Y-88912470D01*
X108080439Y-88896173D01*
X108059711Y-88887021D01*
X108045553Y-88872863D01*
X108023723Y-88858277D01*
X108009136Y-88836446D01*
X107994978Y-88822288D01*
X107985824Y-88801557D01*
X107969530Y-88777171D01*
X107964999Y-88754392D01*
X107957266Y-88736879D01*
X107951318Y-88685617D01*
X107950500Y-88681500D01*
X107950500Y-87731500D01*
X107951318Y-87727385D01*
X107957266Y-87676120D01*
X107964999Y-87658605D01*
X107969530Y-87635829D01*
X107985823Y-87611444D01*
X107994978Y-87590711D01*
X108009138Y-87576550D01*
X108023723Y-87554723D01*
X108045550Y-87540138D01*
X108059711Y-87525978D01*
X108080444Y-87516823D01*
X108104829Y-87500530D01*
X108127605Y-87495999D01*
X108145120Y-87488266D01*
X108196384Y-87482318D01*
X108200500Y-87481500D01*
X108875500Y-87481500D01*
X108879616Y-87482318D01*
G37*
G36*
X113932534Y-86436764D02*
G01*
X113965625Y-86458875D01*
X113987736Y-86491966D01*
X113995500Y-86531000D01*
X113995500Y-86781000D01*
X113987736Y-86820034D01*
X113965625Y-86853125D01*
X113932534Y-86875236D01*
X113930029Y-86875734D01*
X113925371Y-86878847D01*
X113925371Y-86933153D01*
X113930029Y-86936265D01*
X113932534Y-86936764D01*
X113965625Y-86958875D01*
X113987736Y-86991966D01*
X113995500Y-87031000D01*
X113995500Y-87281000D01*
X113987736Y-87320034D01*
X113965625Y-87353125D01*
X113932534Y-87375236D01*
X113930029Y-87375734D01*
X113925371Y-87378847D01*
X113925371Y-87433153D01*
X113930029Y-87436265D01*
X113932534Y-87436764D01*
X113965625Y-87458875D01*
X113987736Y-87491966D01*
X113995500Y-87531000D01*
X113995500Y-87781000D01*
X113987736Y-87820034D01*
X113965625Y-87853125D01*
X113932534Y-87875236D01*
X113930029Y-87875734D01*
X113925371Y-87878847D01*
X113925371Y-87933153D01*
X113930029Y-87936265D01*
X113932534Y-87936764D01*
X113965625Y-87958875D01*
X113987736Y-87991966D01*
X113995500Y-88031000D01*
X113995500Y-88281000D01*
X113987736Y-88320034D01*
X113965625Y-88353125D01*
X113932534Y-88375236D01*
X113893500Y-88383000D01*
X113318500Y-88383000D01*
X113279466Y-88375236D01*
X113246375Y-88353125D01*
X113224264Y-88320034D01*
X113216500Y-88281000D01*
X113216500Y-88031000D01*
X113224264Y-87991966D01*
X113246375Y-87958875D01*
X113279466Y-87936764D01*
X113281966Y-87936266D01*
X113286628Y-87933152D01*
X113286628Y-87878848D01*
X113281966Y-87875733D01*
X113279466Y-87875236D01*
X113246375Y-87853125D01*
X113224264Y-87820034D01*
X113216500Y-87781000D01*
X113216500Y-87531000D01*
X113224264Y-87491966D01*
X113246375Y-87458875D01*
X113279466Y-87436764D01*
X113281966Y-87436266D01*
X113286628Y-87433152D01*
X113286628Y-87378848D01*
X113281966Y-87375733D01*
X113279466Y-87375236D01*
X113246375Y-87353125D01*
X113224264Y-87320034D01*
X113216500Y-87281000D01*
X113216500Y-87031000D01*
X113224264Y-86991966D01*
X113246375Y-86958875D01*
X113279466Y-86936764D01*
X113281966Y-86936266D01*
X113286628Y-86933152D01*
X113286628Y-86878848D01*
X113281966Y-86875733D01*
X113279466Y-86875236D01*
X113246375Y-86853125D01*
X113224264Y-86820034D01*
X113216500Y-86781000D01*
X113216500Y-86531000D01*
X113224264Y-86491966D01*
X113246375Y-86458875D01*
X113279466Y-86436764D01*
X113318500Y-86429000D01*
X113893500Y-86429000D01*
X113932534Y-86436764D01*
G37*
G36*
X118557534Y-86436764D02*
G01*
X118590625Y-86458875D01*
X118612736Y-86491966D01*
X118620500Y-86531000D01*
X118620500Y-86781000D01*
X118612736Y-86820034D01*
X118590625Y-86853125D01*
X118557534Y-86875236D01*
X118555029Y-86875734D01*
X118550371Y-86878847D01*
X118550371Y-86933153D01*
X118555029Y-86936265D01*
X118557534Y-86936764D01*
X118590625Y-86958875D01*
X118612736Y-86991966D01*
X118620500Y-87031000D01*
X118620500Y-87281000D01*
X118612736Y-87320034D01*
X118590625Y-87353125D01*
X118557534Y-87375236D01*
X118555029Y-87375734D01*
X118550371Y-87378847D01*
X118550371Y-87433153D01*
X118555029Y-87436265D01*
X118557534Y-87436764D01*
X118590625Y-87458875D01*
X118612736Y-87491966D01*
X118620500Y-87531000D01*
X118620500Y-87781000D01*
X118612736Y-87820034D01*
X118590625Y-87853125D01*
X118557534Y-87875236D01*
X118555029Y-87875734D01*
X118550371Y-87878847D01*
X118550371Y-87933153D01*
X118555029Y-87936265D01*
X118557534Y-87936764D01*
X118590625Y-87958875D01*
X118612736Y-87991966D01*
X118620500Y-88031000D01*
X118620500Y-88281000D01*
X118612736Y-88320034D01*
X118590625Y-88353125D01*
X118557534Y-88375236D01*
X118518500Y-88383000D01*
X117943500Y-88383000D01*
X117904466Y-88375236D01*
X117871375Y-88353125D01*
X117849264Y-88320034D01*
X117841500Y-88281000D01*
X117841500Y-88031000D01*
X117849264Y-87991966D01*
X117871375Y-87958875D01*
X117904466Y-87936764D01*
X117906966Y-87936266D01*
X117911628Y-87933152D01*
X117911628Y-87878848D01*
X117906966Y-87875733D01*
X117904466Y-87875236D01*
X117871375Y-87853125D01*
X117849264Y-87820034D01*
X117841500Y-87781000D01*
X117841500Y-87531000D01*
X117849264Y-87491966D01*
X117871375Y-87458875D01*
X117904466Y-87436764D01*
X117906966Y-87436266D01*
X117911628Y-87433152D01*
X117911628Y-87378848D01*
X117906966Y-87375733D01*
X117904466Y-87375236D01*
X117871375Y-87353125D01*
X117849264Y-87320034D01*
X117841500Y-87281000D01*
X117841500Y-87031000D01*
X117849264Y-86991966D01*
X117871375Y-86958875D01*
X117904466Y-86936764D01*
X117906966Y-86936266D01*
X117911628Y-86933152D01*
X117911628Y-86878848D01*
X117906966Y-86875733D01*
X117904466Y-86875236D01*
X117871375Y-86853125D01*
X117849264Y-86820034D01*
X117841500Y-86781000D01*
X117841500Y-86531000D01*
X117849264Y-86491966D01*
X117871375Y-86458875D01*
X117904466Y-86436764D01*
X117943500Y-86429000D01*
X118518500Y-86429000D01*
X118557534Y-86436764D01*
G37*
G36*
X131514499Y-88224505D02*
G01*
X130214499Y-88224505D01*
X130214499Y-86224505D01*
X131514499Y-86224505D01*
X131514499Y-88224505D01*
G37*
G36*
X113832534Y-85411764D02*
G01*
X113865625Y-85433875D01*
X113887736Y-85466966D01*
X113888233Y-85469466D01*
X113891348Y-85474128D01*
X113945652Y-85474128D01*
X113948766Y-85469466D01*
X113949264Y-85466966D01*
X113971375Y-85433875D01*
X114004466Y-85411764D01*
X114043500Y-85404000D01*
X114293500Y-85404000D01*
X114332534Y-85411764D01*
X114365625Y-85433875D01*
X114387736Y-85466966D01*
X114388233Y-85469466D01*
X114391348Y-85474128D01*
X114445652Y-85474128D01*
X114448766Y-85469466D01*
X114449264Y-85466966D01*
X114471375Y-85433875D01*
X114504466Y-85411764D01*
X114543500Y-85404000D01*
X114793500Y-85404000D01*
X114832534Y-85411764D01*
X114865625Y-85433875D01*
X114887736Y-85466966D01*
X114888233Y-85469466D01*
X114891348Y-85474128D01*
X114945652Y-85474128D01*
X114948766Y-85469466D01*
X114949264Y-85466966D01*
X114971375Y-85433875D01*
X115004466Y-85411764D01*
X115043500Y-85404000D01*
X115293500Y-85404000D01*
X115332534Y-85411764D01*
X115365625Y-85433875D01*
X115387736Y-85466966D01*
X115388233Y-85469466D01*
X115391348Y-85474128D01*
X115445652Y-85474128D01*
X115448766Y-85469466D01*
X115449264Y-85466966D01*
X115471375Y-85433875D01*
X115504466Y-85411764D01*
X115543500Y-85404000D01*
X115793500Y-85404000D01*
X115832534Y-85411764D01*
X115865625Y-85433875D01*
X115887736Y-85466966D01*
X115888233Y-85469466D01*
X115891348Y-85474128D01*
X115945652Y-85474128D01*
X115948766Y-85469466D01*
X115949264Y-85466966D01*
X115971375Y-85433875D01*
X116004466Y-85411764D01*
X116043500Y-85404000D01*
X116293500Y-85404000D01*
X116332534Y-85411764D01*
X116365625Y-85433875D01*
X116387736Y-85466966D01*
X116388233Y-85469466D01*
X116391348Y-85474128D01*
X116445652Y-85474128D01*
X116448766Y-85469466D01*
X116449264Y-85466966D01*
X116471375Y-85433875D01*
X116504466Y-85411764D01*
X116543500Y-85404000D01*
X116793500Y-85404000D01*
X116832534Y-85411764D01*
X116865625Y-85433875D01*
X116887736Y-85466966D01*
X116888233Y-85469466D01*
X116891348Y-85474128D01*
X116945652Y-85474128D01*
X116948766Y-85469466D01*
X116949264Y-85466966D01*
X116971375Y-85433875D01*
X117004466Y-85411764D01*
X117043500Y-85404000D01*
X117293500Y-85404000D01*
X117332534Y-85411764D01*
X117365625Y-85433875D01*
X117387736Y-85466966D01*
X117388233Y-85469466D01*
X117391348Y-85474128D01*
X117445652Y-85474128D01*
X117448766Y-85469466D01*
X117449264Y-85466966D01*
X117471375Y-85433875D01*
X117504466Y-85411764D01*
X117543500Y-85404000D01*
X117793500Y-85404000D01*
X117832534Y-85411764D01*
X117865625Y-85433875D01*
X117887736Y-85466966D01*
X117888233Y-85469466D01*
X117891348Y-85474128D01*
X117945652Y-85474128D01*
X117948766Y-85469466D01*
X117949264Y-85466966D01*
X117971375Y-85433875D01*
X118004466Y-85411764D01*
X118043500Y-85404000D01*
X118293500Y-85404000D01*
X118332534Y-85411764D01*
X118365625Y-85433875D01*
X118387736Y-85466966D01*
X118395500Y-85506000D01*
X118395500Y-86181000D01*
X118387736Y-86220034D01*
X118365625Y-86253125D01*
X118332534Y-86275236D01*
X118293500Y-86283000D01*
X118043500Y-86283000D01*
X118004466Y-86275236D01*
X117971375Y-86253125D01*
X117949264Y-86220034D01*
X117948765Y-86217529D01*
X117945653Y-86212871D01*
X117891347Y-86212871D01*
X117888234Y-86217529D01*
X117887736Y-86220034D01*
X117865625Y-86253125D01*
X117832534Y-86275236D01*
X117793500Y-86283000D01*
X117543500Y-86283000D01*
X117504466Y-86275236D01*
X117471375Y-86253125D01*
X117449264Y-86220034D01*
X117448765Y-86217529D01*
X117445653Y-86212871D01*
X117391347Y-86212871D01*
X117388234Y-86217529D01*
X117387736Y-86220034D01*
X117365625Y-86253125D01*
X117332534Y-86275236D01*
X117293500Y-86283000D01*
X117043500Y-86283000D01*
X117004466Y-86275236D01*
X116971375Y-86253125D01*
X116949264Y-86220034D01*
X116948765Y-86217529D01*
X116945653Y-86212871D01*
X116891347Y-86212871D01*
X116888234Y-86217529D01*
X116887736Y-86220034D01*
X116865625Y-86253125D01*
X116832534Y-86275236D01*
X116793500Y-86283000D01*
X116543500Y-86283000D01*
X116504466Y-86275236D01*
X116471375Y-86253125D01*
X116449264Y-86220034D01*
X116448765Y-86217529D01*
X116445653Y-86212871D01*
X116391347Y-86212871D01*
X116388234Y-86217529D01*
X116387736Y-86220034D01*
X116365625Y-86253125D01*
X116332534Y-86275236D01*
X116293500Y-86283000D01*
X116043500Y-86283000D01*
X116004466Y-86275236D01*
X115971375Y-86253125D01*
X115949264Y-86220034D01*
X115948765Y-86217529D01*
X115945653Y-86212871D01*
X115891347Y-86212871D01*
X115888234Y-86217529D01*
X115887736Y-86220034D01*
X115865625Y-86253125D01*
X115832534Y-86275236D01*
X115793500Y-86283000D01*
X115543500Y-86283000D01*
X115504466Y-86275236D01*
X115471375Y-86253125D01*
X115449264Y-86220034D01*
X115448765Y-86217529D01*
X115445653Y-86212871D01*
X115391347Y-86212871D01*
X115388234Y-86217529D01*
X115387736Y-86220034D01*
X115365625Y-86253125D01*
X115332534Y-86275236D01*
X115293500Y-86283000D01*
X115043500Y-86283000D01*
X115004466Y-86275236D01*
X114971375Y-86253125D01*
X114949264Y-86220034D01*
X114948765Y-86217529D01*
X114945653Y-86212871D01*
X114891347Y-86212871D01*
X114888234Y-86217529D01*
X114887736Y-86220034D01*
X114865625Y-86253125D01*
X114832534Y-86275236D01*
X114793500Y-86283000D01*
X114543500Y-86283000D01*
X114504466Y-86275236D01*
X114471375Y-86253125D01*
X114449264Y-86220034D01*
X114448765Y-86217529D01*
X114445653Y-86212871D01*
X114391347Y-86212871D01*
X114388234Y-86217529D01*
X114387736Y-86220034D01*
X114365625Y-86253125D01*
X114332534Y-86275236D01*
X114293500Y-86283000D01*
X114043500Y-86283000D01*
X114004466Y-86275236D01*
X113971375Y-86253125D01*
X113949264Y-86220034D01*
X113948765Y-86217529D01*
X113945653Y-86212871D01*
X113891347Y-86212871D01*
X113888234Y-86217529D01*
X113887736Y-86220034D01*
X113865625Y-86253125D01*
X113832534Y-86275236D01*
X113793500Y-86283000D01*
X113543500Y-86283000D01*
X113504466Y-86275236D01*
X113471375Y-86253125D01*
X113449264Y-86220034D01*
X113441500Y-86181000D01*
X113441500Y-85506000D01*
X113449264Y-85466966D01*
X113471375Y-85433875D01*
X113504466Y-85411764D01*
X113543500Y-85404000D01*
X113793500Y-85404000D01*
X113832534Y-85411764D01*
G37*
G36*
X109757616Y-81545318D02*
G01*
X109808879Y-81551266D01*
X109826392Y-81558999D01*
X109849171Y-81563530D01*
X109873557Y-81579824D01*
X109894288Y-81588978D01*
X109908446Y-81603136D01*
X109930277Y-81617723D01*
X109944863Y-81639553D01*
X109959021Y-81653711D01*
X109968173Y-81674439D01*
X109984470Y-81698829D01*
X109989001Y-81721609D01*
X109996733Y-81739120D01*
X110002678Y-81790372D01*
X110003500Y-81794500D01*
X110003500Y-82469500D01*
X110002678Y-82473628D01*
X109996733Y-82524879D01*
X109989001Y-82542388D01*
X109984470Y-82565171D01*
X109968172Y-82589562D01*
X109959021Y-82610288D01*
X109944865Y-82624443D01*
X109930277Y-82646277D01*
X109908443Y-82660865D01*
X109894288Y-82675021D01*
X109873562Y-82684172D01*
X109849171Y-82700470D01*
X109826388Y-82705001D01*
X109808879Y-82712733D01*
X109757629Y-82718678D01*
X109753500Y-82719500D01*
X108803500Y-82719500D01*
X108799373Y-82718679D01*
X108748120Y-82712733D01*
X108730609Y-82705001D01*
X108707829Y-82700470D01*
X108683439Y-82684173D01*
X108662711Y-82675021D01*
X108648553Y-82660863D01*
X108626723Y-82646277D01*
X108612136Y-82624446D01*
X108597978Y-82610288D01*
X108588824Y-82589557D01*
X108572530Y-82565171D01*
X108567999Y-82542392D01*
X108560266Y-82524879D01*
X108554318Y-82473617D01*
X108553500Y-82469500D01*
X108553500Y-81794500D01*
X108554318Y-81790385D01*
X108560266Y-81739120D01*
X108567999Y-81721605D01*
X108572530Y-81698829D01*
X108588823Y-81674444D01*
X108597978Y-81653711D01*
X108612138Y-81639550D01*
X108626723Y-81617723D01*
X108648550Y-81603138D01*
X108662711Y-81588978D01*
X108683444Y-81579823D01*
X108707829Y-81563530D01*
X108730605Y-81558999D01*
X108748120Y-81551266D01*
X108799384Y-81545318D01*
X108803500Y-81544500D01*
X109753500Y-81544500D01*
X109757616Y-81545318D01*
G37*
G36*
X125420515Y-81420318D02*
G01*
X125468917Y-81425934D01*
X125485455Y-81433236D01*
X125507287Y-81437579D01*
X125530659Y-81453195D01*
X125550124Y-81461790D01*
X125563417Y-81475083D01*
X125584338Y-81489062D01*
X125598316Y-81509982D01*
X125611609Y-81523275D01*
X125620202Y-81542738D01*
X125635821Y-81566113D01*
X125640164Y-81587946D01*
X125647465Y-81604482D01*
X125653078Y-81652872D01*
X125653900Y-81657000D01*
X125653900Y-82257000D01*
X125653078Y-82261127D01*
X125647465Y-82309517D01*
X125640164Y-82326051D01*
X125635821Y-82347887D01*
X125620201Y-82371263D01*
X125611609Y-82390724D01*
X125598318Y-82404014D01*
X125584338Y-82424938D01*
X125563414Y-82438918D01*
X125550124Y-82452209D01*
X125530663Y-82460801D01*
X125507287Y-82476421D01*
X125485451Y-82480764D01*
X125468917Y-82488065D01*
X125420529Y-82493678D01*
X125416400Y-82494500D01*
X124941400Y-82494500D01*
X124937273Y-82493679D01*
X124888882Y-82488065D01*
X124872346Y-82480764D01*
X124850513Y-82476421D01*
X124827138Y-82460802D01*
X124807675Y-82452209D01*
X124794382Y-82438916D01*
X124773462Y-82424938D01*
X124759483Y-82404017D01*
X124746190Y-82390724D01*
X124737595Y-82371259D01*
X124721979Y-82347887D01*
X124717636Y-82326055D01*
X124710334Y-82309517D01*
X124704718Y-82261116D01*
X124703900Y-82257000D01*
X124703900Y-81657000D01*
X124704718Y-81652885D01*
X124710334Y-81604482D01*
X124717636Y-81587942D01*
X124721979Y-81566113D01*
X124737594Y-81542742D01*
X124746190Y-81523275D01*
X124759485Y-81509979D01*
X124773462Y-81489062D01*
X124794379Y-81475085D01*
X124807675Y-81461790D01*
X124827142Y-81453194D01*
X124850513Y-81437579D01*
X124872342Y-81433236D01*
X124888882Y-81425934D01*
X124937284Y-81420318D01*
X124941400Y-81419500D01*
X125416400Y-81419500D01*
X125420515Y-81420318D01*
G37*
G36*
X117292515Y-81319818D02*
G01*
X117340917Y-81325434D01*
X117357455Y-81332736D01*
X117379287Y-81337079D01*
X117402659Y-81352695D01*
X117422124Y-81361290D01*
X117435417Y-81374583D01*
X117456338Y-81388562D01*
X117470316Y-81409482D01*
X117483609Y-81422775D01*
X117492202Y-81442238D01*
X117507821Y-81465613D01*
X117512164Y-81487446D01*
X117519465Y-81503982D01*
X117525078Y-81552372D01*
X117525900Y-81556500D01*
X117525900Y-82156500D01*
X117525078Y-82160627D01*
X117519465Y-82209017D01*
X117512164Y-82225551D01*
X117507821Y-82247387D01*
X117492201Y-82270763D01*
X117483609Y-82290224D01*
X117470318Y-82303514D01*
X117456338Y-82324438D01*
X117435414Y-82338418D01*
X117422124Y-82351709D01*
X117402663Y-82360301D01*
X117379287Y-82375921D01*
X117357451Y-82380264D01*
X117340917Y-82387565D01*
X117292529Y-82393178D01*
X117288400Y-82394000D01*
X116813400Y-82394000D01*
X116809273Y-82393179D01*
X116760882Y-82387565D01*
X116744346Y-82380264D01*
X116722513Y-82375921D01*
X116699138Y-82360302D01*
X116679675Y-82351709D01*
X116666382Y-82338416D01*
X116645462Y-82324438D01*
X116631483Y-82303517D01*
X116618190Y-82290224D01*
X116609595Y-82270759D01*
X116593979Y-82247387D01*
X116589636Y-82225555D01*
X116582334Y-82209017D01*
X116576718Y-82160616D01*
X116575900Y-82156500D01*
X116575900Y-81556500D01*
X116576718Y-81552385D01*
X116582334Y-81503982D01*
X116589636Y-81487442D01*
X116593979Y-81465613D01*
X116609594Y-81442242D01*
X116618190Y-81422775D01*
X116631485Y-81409479D01*
X116645462Y-81388562D01*
X116666379Y-81374585D01*
X116679675Y-81361290D01*
X116699142Y-81352694D01*
X116722513Y-81337079D01*
X116744342Y-81332736D01*
X116760882Y-81325434D01*
X116809284Y-81319818D01*
X116813400Y-81319000D01*
X117288400Y-81319000D01*
X117292515Y-81319818D01*
G37*
G36*
X100580295Y-78429699D02*
G01*
X100824427Y-78488310D01*
X101056385Y-78584390D01*
X101270456Y-78715573D01*
X101461371Y-78878629D01*
X101624427Y-79069544D01*
X101755610Y-79283615D01*
X101851690Y-79515573D01*
X101910301Y-79759705D01*
X101930000Y-80010000D01*
X101910301Y-80260295D01*
X101851690Y-80504427D01*
X101755610Y-80736385D01*
X101624427Y-80950456D01*
X101461371Y-81141371D01*
X101270456Y-81304427D01*
X101056385Y-81435610D01*
X100824427Y-81531690D01*
X100580295Y-81590301D01*
X100330000Y-81610000D01*
X100079705Y-81590301D01*
X99835573Y-81531690D01*
X99603615Y-81435610D01*
X99389544Y-81304427D01*
X99198629Y-81141371D01*
X99035573Y-80950456D01*
X98904390Y-80736385D01*
X98808310Y-80504427D01*
X98749699Y-80260295D01*
X98730000Y-80010000D01*
X98749699Y-79759705D01*
X98808310Y-79515573D01*
X98904390Y-79283615D01*
X99035573Y-79069544D01*
X99198629Y-78878629D01*
X99389544Y-78715573D01*
X99603615Y-78584390D01*
X99835573Y-78488310D01*
X100079705Y-78429699D01*
X100330000Y-78410000D01*
X100580295Y-78429699D01*
G37*
G36*
X131314295Y-78429699D02*
G01*
X131558427Y-78488310D01*
X131790385Y-78584390D01*
X132004456Y-78715573D01*
X132195371Y-78878629D01*
X132358427Y-79069544D01*
X132489610Y-79283615D01*
X132585690Y-79515573D01*
X132644301Y-79759705D01*
X132664000Y-80010000D01*
X132644301Y-80260295D01*
X132585690Y-80504427D01*
X132489610Y-80736385D01*
X132358427Y-80950456D01*
X132195371Y-81141371D01*
X132004456Y-81304427D01*
X131790385Y-81435610D01*
X131558427Y-81531690D01*
X131314295Y-81590301D01*
X131064000Y-81610000D01*
X130813705Y-81590301D01*
X130569573Y-81531690D01*
X130337615Y-81435610D01*
X130123544Y-81304427D01*
X129932629Y-81141371D01*
X129769573Y-80950456D01*
X129638390Y-80736385D01*
X129542310Y-80504427D01*
X129483699Y-80260295D01*
X129464000Y-80010000D01*
X129483699Y-79759705D01*
X129542310Y-79515573D01*
X129638390Y-79283615D01*
X129769573Y-79069544D01*
X129932629Y-78878629D01*
X130123544Y-78715573D01*
X130337615Y-78584390D01*
X130569573Y-78488310D01*
X130813705Y-78429699D01*
X131064000Y-78410000D01*
X131314295Y-78429699D01*
G37*
G36*
X120276700Y-80878600D02*
G01*
X119108300Y-80878600D01*
X119108300Y-79278400D01*
X120276700Y-79278400D01*
X120276700Y-80878600D01*
G37*
G36*
X123121500Y-80878600D02*
G01*
X121953100Y-80878600D01*
X121953100Y-79278400D01*
X123121500Y-79278400D01*
X123121500Y-80878600D01*
G37*
G36*
X125420515Y-79695318D02*
G01*
X125468917Y-79700934D01*
X125485455Y-79708236D01*
X125507287Y-79712579D01*
X125530659Y-79728195D01*
X125550124Y-79736790D01*
X125563417Y-79750083D01*
X125584338Y-79764062D01*
X125598316Y-79784982D01*
X125611609Y-79798275D01*
X125620202Y-79817738D01*
X125635821Y-79841113D01*
X125640164Y-79862946D01*
X125647465Y-79879482D01*
X125653078Y-79927872D01*
X125653900Y-79932000D01*
X125653900Y-80532000D01*
X125653078Y-80536127D01*
X125647465Y-80584517D01*
X125640164Y-80601051D01*
X125635821Y-80622887D01*
X125620201Y-80646263D01*
X125611609Y-80665724D01*
X125598318Y-80679014D01*
X125584338Y-80699938D01*
X125563414Y-80713918D01*
X125550124Y-80727209D01*
X125530663Y-80735801D01*
X125507287Y-80751421D01*
X125485451Y-80755764D01*
X125468917Y-80763065D01*
X125420529Y-80768678D01*
X125416400Y-80769500D01*
X124941400Y-80769500D01*
X124937273Y-80768679D01*
X124888882Y-80763065D01*
X124872346Y-80755764D01*
X124850513Y-80751421D01*
X124827138Y-80735802D01*
X124807675Y-80727209D01*
X124794382Y-80713916D01*
X124773462Y-80699938D01*
X124759483Y-80679017D01*
X124746190Y-80665724D01*
X124737595Y-80646259D01*
X124721979Y-80622887D01*
X124717636Y-80601055D01*
X124710334Y-80584517D01*
X124704718Y-80536116D01*
X124703900Y-80532000D01*
X124703900Y-79932000D01*
X124704718Y-79927885D01*
X124710334Y-79879482D01*
X124717636Y-79862942D01*
X124721979Y-79841113D01*
X124737594Y-79817742D01*
X124746190Y-79798275D01*
X124759485Y-79784979D01*
X124773462Y-79764062D01*
X124794379Y-79750085D01*
X124807675Y-79736790D01*
X124827142Y-79728194D01*
X124850513Y-79712579D01*
X124872342Y-79708236D01*
X124888882Y-79700934D01*
X124937284Y-79695318D01*
X124941400Y-79694500D01*
X125416400Y-79694500D01*
X125420515Y-79695318D01*
G37*
G36*
X117292515Y-79594818D02*
G01*
X117340917Y-79600434D01*
X117357455Y-79607736D01*
X117379287Y-79612079D01*
X117402659Y-79627695D01*
X117422124Y-79636290D01*
X117435417Y-79649583D01*
X117456338Y-79663562D01*
X117470316Y-79684482D01*
X117483609Y-79697775D01*
X117492202Y-79717238D01*
X117507821Y-79740613D01*
X117512164Y-79762446D01*
X117519465Y-79778982D01*
X117525078Y-79827372D01*
X117525900Y-79831500D01*
X117525900Y-80431500D01*
X117525078Y-80435627D01*
X117519465Y-80484017D01*
X117512164Y-80500551D01*
X117507821Y-80522387D01*
X117492201Y-80545763D01*
X117483609Y-80565224D01*
X117470318Y-80578514D01*
X117456338Y-80599438D01*
X117435414Y-80613418D01*
X117422124Y-80626709D01*
X117402663Y-80635301D01*
X117379287Y-80650921D01*
X117357451Y-80655264D01*
X117340917Y-80662565D01*
X117292529Y-80668178D01*
X117288400Y-80669000D01*
X116813400Y-80669000D01*
X116809273Y-80668179D01*
X116760882Y-80662565D01*
X116744346Y-80655264D01*
X116722513Y-80650921D01*
X116699138Y-80635302D01*
X116679675Y-80626709D01*
X116666382Y-80613416D01*
X116645462Y-80599438D01*
X116631483Y-80578517D01*
X116618190Y-80565224D01*
X116609595Y-80545759D01*
X116593979Y-80522387D01*
X116589636Y-80500555D01*
X116582334Y-80484017D01*
X116576718Y-80435616D01*
X116575900Y-80431500D01*
X116575900Y-79831500D01*
X116576718Y-79827385D01*
X116582334Y-79778982D01*
X116589636Y-79762442D01*
X116593979Y-79740613D01*
X116609594Y-79717242D01*
X116618190Y-79697775D01*
X116631485Y-79684479D01*
X116645462Y-79663562D01*
X116666379Y-79649585D01*
X116679675Y-79636290D01*
X116699142Y-79627694D01*
X116722513Y-79612079D01*
X116744342Y-79607736D01*
X116760882Y-79600434D01*
X116809284Y-79594818D01*
X116813400Y-79594000D01*
X117288400Y-79594000D01*
X117292515Y-79594818D01*
G37*
G36*
X109757616Y-79470318D02*
G01*
X109808879Y-79476266D01*
X109826392Y-79483999D01*
X109849171Y-79488530D01*
X109873557Y-79504824D01*
X109894288Y-79513978D01*
X109908446Y-79528136D01*
X109930277Y-79542723D01*
X109944863Y-79564553D01*
X109959021Y-79578711D01*
X109968173Y-79599439D01*
X109984470Y-79623829D01*
X109989001Y-79646609D01*
X109996733Y-79664120D01*
X110002678Y-79715372D01*
X110003500Y-79719500D01*
X110003500Y-80394500D01*
X110002678Y-80398628D01*
X109996733Y-80449879D01*
X109989001Y-80467388D01*
X109984470Y-80490171D01*
X109968172Y-80514562D01*
X109959021Y-80535288D01*
X109944865Y-80549443D01*
X109930277Y-80571277D01*
X109908443Y-80585865D01*
X109894288Y-80600021D01*
X109873562Y-80609172D01*
X109849171Y-80625470D01*
X109826388Y-80630001D01*
X109808879Y-80637733D01*
X109757629Y-80643678D01*
X109753500Y-80644500D01*
X108803500Y-80644500D01*
X108799373Y-80643679D01*
X108748120Y-80637733D01*
X108730609Y-80630001D01*
X108707829Y-80625470D01*
X108683439Y-80609173D01*
X108662711Y-80600021D01*
X108648553Y-80585863D01*
X108626723Y-80571277D01*
X108612136Y-80549446D01*
X108597978Y-80535288D01*
X108588824Y-80514557D01*
X108572530Y-80490171D01*
X108567999Y-80467392D01*
X108560266Y-80449879D01*
X108554318Y-80398617D01*
X108553500Y-80394500D01*
X108553500Y-79719500D01*
X108554318Y-79715385D01*
X108560266Y-79664120D01*
X108567999Y-79646605D01*
X108572530Y-79623829D01*
X108588823Y-79599444D01*
X108597978Y-79578711D01*
X108612138Y-79564550D01*
X108626723Y-79542723D01*
X108648550Y-79528138D01*
X108662711Y-79513978D01*
X108683444Y-79504823D01*
X108707829Y-79488530D01*
X108730605Y-79483999D01*
X108748120Y-79476266D01*
X108799384Y-79470318D01*
X108803500Y-79469500D01*
X109753500Y-79469500D01*
X109757616Y-79470318D01*
G37*
M02*
