G04 #@! TF.GenerationSoftware,KiCad,Pcbnew,8.0.0*
G04 #@! TF.CreationDate,2024-03-04T18:11:22-06:00*
G04 #@! TF.ProjectId,InertialMeasurementUnitBoard,496e6572-7469-4616-9c4d-656173757265,rev?*
G04 #@! TF.SameCoordinates,Original*
G04 #@! TF.FileFunction,Paste,Top*
G04 #@! TF.FilePolarity,Positive*
%FSLAX46Y46*%
G04 Gerber Fmt 4.6, Leading zero omitted, Abs format (unit mm)*
G04 Created by KiCad (PCBNEW 8.0.0) date 2024-03-04 18:11:22*
%MOMM*%
%LPD*%
G01*
G04 APERTURE LIST*
G04 Aperture macros list*
%AMRoundRect*
0 Rectangle with rounded corners*
0 $1 Rounding radius*
0 $2 $3 $4 $5 $6 $7 $8 $9 X,Y pos of 4 corners*
0 Add a 4 corners polygon primitive as box body*
4,1,4,$2,$3,$4,$5,$6,$7,$8,$9,$2,$3,0*
0 Add four circle primitives for the rounded corners*
1,1,$1+$1,$2,$3*
1,1,$1+$1,$4,$5*
1,1,$1+$1,$6,$7*
1,1,$1+$1,$8,$9*
0 Add four rect primitives between the rounded corners*
20,1,$1+$1,$2,$3,$4,$5,0*
20,1,$1+$1,$4,$5,$6,$7,0*
20,1,$1+$1,$6,$7,$8,$9,0*
20,1,$1+$1,$8,$9,$2,$3,0*%
G04 Aperture macros list end*
%ADD10R,1.168400X1.600200*%
%ADD11RoundRect,0.250000X0.450000X-0.350000X0.450000X0.350000X-0.450000X0.350000X-0.450000X-0.350000X0*%
%ADD12RoundRect,0.020500X-0.764500X-0.184500X0.764500X-0.184500X0.764500X0.184500X-0.764500X0.184500X0*%
%ADD13R,0.250000X0.675000*%
%ADD14R,0.575000X0.250000*%
%ADD15RoundRect,0.250000X-0.475000X0.337500X-0.475000X-0.337500X0.475000X-0.337500X0.475000X0.337500X0*%
%ADD16RoundRect,0.250000X0.350000X0.450000X-0.350000X0.450000X-0.350000X-0.450000X0.350000X-0.450000X0*%
%ADD17RoundRect,0.250000X-0.450000X0.350000X-0.450000X-0.350000X0.450000X-0.350000X0.450000X0.350000X0*%
%ADD18RoundRect,0.250000X0.337500X0.475000X-0.337500X0.475000X-0.337500X-0.475000X0.337500X-0.475000X0*%
%ADD19R,3.500000X1.000000*%
%ADD20R,3.400000X1.500000*%
%ADD21RoundRect,0.237500X0.237500X-0.287500X0.237500X0.287500X-0.237500X0.287500X-0.237500X-0.287500X0*%
%ADD22RoundRect,0.237500X-0.237500X0.300000X-0.237500X-0.300000X0.237500X-0.300000X0.237500X0.300000X0*%
%ADD23R,1.000000X0.400000*%
%ADD24R,1.300000X2.000000*%
G04 APERTURE END LIST*
D10*
X119692500Y-80078500D03*
X122537300Y-80078500D03*
D11*
X105087500Y-106208500D03*
X105087500Y-104208500D03*
D12*
X112936500Y-96386500D03*
X112936500Y-97036500D03*
X112936500Y-97686500D03*
X112936500Y-98336500D03*
X112936500Y-98986500D03*
X112936500Y-99636500D03*
X112936500Y-100286500D03*
X112936500Y-100936500D03*
X118676500Y-100936500D03*
X118676500Y-100286500D03*
X118676500Y-99636500D03*
X118676500Y-98986500D03*
X118676500Y-98336500D03*
X118676500Y-97686500D03*
X118676500Y-97036500D03*
X118676500Y-96386500D03*
D13*
X113668500Y-85843500D03*
D14*
X113606000Y-86656000D03*
X113606000Y-87156000D03*
X113606000Y-87656000D03*
X113606000Y-88156000D03*
D13*
X113668500Y-88968500D03*
X114168500Y-88968500D03*
X114668500Y-88968500D03*
X115168500Y-88968500D03*
X115668500Y-88968500D03*
X116168500Y-88968500D03*
X116668500Y-88968500D03*
X117168500Y-88968500D03*
X117668500Y-88968500D03*
X118168500Y-88968500D03*
D14*
X118231000Y-88156000D03*
X118231000Y-87656000D03*
X118231000Y-87156000D03*
X118231000Y-86656000D03*
D13*
X118168500Y-85843500D03*
X117668500Y-85843500D03*
X117168500Y-85843500D03*
X116668500Y-85843500D03*
X116168500Y-85843500D03*
X115668500Y-85843500D03*
X115168500Y-85843500D03*
X114668500Y-85843500D03*
X114168500Y-85843500D03*
D15*
X109278500Y-80057000D03*
X109278500Y-82132000D03*
D16*
X121470500Y-107002500D03*
X119470500Y-107002500D03*
D17*
X108389500Y-104208500D03*
X108389500Y-106208500D03*
D18*
X108538000Y-88206500D03*
X106463000Y-88206500D03*
D19*
X127234000Y-105404000D03*
X127234000Y-103404000D03*
D20*
X132784000Y-107754000D03*
X132784000Y-101054000D03*
D21*
X105087500Y-110401500D03*
X105087500Y-108651500D03*
D22*
X125178900Y-80232000D03*
X125178900Y-81957000D03*
D16*
X121454500Y-110304500D03*
X119454500Y-110304500D03*
D23*
X128164500Y-95024500D03*
X128164500Y-94024500D03*
X128164500Y-93024499D03*
X128164500Y-92024501D03*
X128164500Y-91024500D03*
X128164500Y-90024500D03*
D24*
X130864499Y-97824495D03*
X130864499Y-87224505D03*
D16*
X121454500Y-103700500D03*
X119454500Y-103700500D03*
D17*
X111691500Y-104208500D03*
X111691500Y-106208500D03*
D22*
X117050900Y-80131500D03*
X117050900Y-81856500D03*
M02*
