G04 #@! TF.GenerationSoftware,KiCad,Pcbnew,8.0.0*
G04 #@! TF.CreationDate,2024-04-02T11:58:18-05:00*
G04 #@! TF.ProjectId,Haptic Feeback board,48617074-6963-4204-9665-656261636b20,rev?*
G04 #@! TF.SameCoordinates,Original*
G04 #@! TF.FileFunction,Copper,L1,Top*
G04 #@! TF.FilePolarity,Positive*
%FSLAX46Y46*%
G04 Gerber Fmt 4.6, Leading zero omitted, Abs format (unit mm)*
G04 Created by KiCad (PCBNEW 8.0.0) date 2024-04-02 11:58:18*
%MOMM*%
%LPD*%
G01*
G04 APERTURE LIST*
G04 Aperture macros list*
%AMRoundRect*
0 Rectangle with rounded corners*
0 $1 Rounding radius*
0 $2 $3 $4 $5 $6 $7 $8 $9 X,Y pos of 4 corners*
0 Add a 4 corners polygon primitive as box body*
4,1,4,$2,$3,$4,$5,$6,$7,$8,$9,$2,$3,0*
0 Add four circle primitives for the rounded corners*
1,1,$1+$1,$2,$3*
1,1,$1+$1,$4,$5*
1,1,$1+$1,$6,$7*
1,1,$1+$1,$8,$9*
0 Add four rect primitives between the rounded corners*
20,1,$1+$1,$2,$3,$4,$5,0*
20,1,$1+$1,$4,$5,$6,$7,0*
20,1,$1+$1,$6,$7,$8,$9,0*
20,1,$1+$1,$8,$9,$2,$3,0*%
G04 Aperture macros list end*
G04 #@! TA.AperFunction,SMDPad,CuDef*
%ADD10RoundRect,0.250000X0.450000X-0.350000X0.450000X0.350000X-0.450000X0.350000X-0.450000X-0.350000X0*%
G04 #@! TD*
G04 #@! TA.AperFunction,SMDPad,CuDef*
%ADD11R,0.950500X0.558800*%
G04 #@! TD*
G04 #@! TA.AperFunction,ComponentPad*
%ADD12RoundRect,0.250000X-0.620000X-0.845000X0.620000X-0.845000X0.620000X0.845000X-0.620000X0.845000X0*%
G04 #@! TD*
G04 #@! TA.AperFunction,ComponentPad*
%ADD13O,1.740000X2.190000*%
G04 #@! TD*
G04 #@! TA.AperFunction,SMDPad,CuDef*
%ADD14RoundRect,0.250000X-0.337500X-0.475000X0.337500X-0.475000X0.337500X0.475000X-0.337500X0.475000X0*%
G04 #@! TD*
G04 #@! TA.AperFunction,SMDPad,CuDef*
%ADD15RoundRect,0.237500X0.287500X0.237500X-0.287500X0.237500X-0.287500X-0.237500X0.287500X-0.237500X0*%
G04 #@! TD*
G04 #@! TA.AperFunction,SMDPad,CuDef*
%ADD16R,1.000000X3.500000*%
G04 #@! TD*
G04 #@! TA.AperFunction,SMDPad,CuDef*
%ADD17R,1.500000X3.400000*%
G04 #@! TD*
G04 #@! TA.AperFunction,SMDPad,CuDef*
%ADD18RoundRect,0.250000X0.350000X0.450000X-0.350000X0.450000X-0.350000X-0.450000X0.350000X-0.450000X0*%
G04 #@! TD*
G04 #@! TA.AperFunction,SMDPad,CuDef*
%ADD19RoundRect,0.150000X-0.512500X-0.150000X0.512500X-0.150000X0.512500X0.150000X-0.512500X0.150000X0*%
G04 #@! TD*
G04 #@! TA.AperFunction,SMDPad,CuDef*
%ADD20RoundRect,0.250000X-0.350000X-0.450000X0.350000X-0.450000X0.350000X0.450000X-0.350000X0.450000X0*%
G04 #@! TD*
G04 #@! TA.AperFunction,ViaPad*
%ADD21C,0.800000*%
G04 #@! TD*
G04 #@! TA.AperFunction,Conductor*
%ADD22C,0.508000*%
G04 #@! TD*
G04 #@! TA.AperFunction,Conductor*
%ADD23C,0.250000*%
G04 #@! TD*
G04 #@! TA.AperFunction,Conductor*
%ADD24C,0.254000*%
G04 #@! TD*
G04 APERTURE END LIST*
D10*
G04 #@! TO.P,R3,1*
G04 #@! TO.N,/Motor2*
X149500000Y-97000000D03*
G04 #@! TO.P,R3,2*
G04 #@! TO.N,+3.3V*
X149500000Y-95000000D03*
G04 #@! TD*
D11*
G04 #@! TO.P,SW1,1,1*
G04 #@! TO.N,+3.3V*
X127878302Y-92667602D03*
G04 #@! TO.P,SW1,2,2*
X127878302Y-96367600D03*
G04 #@! TO.P,SW1,3,3*
G04 #@! TO.N,Net-(C1-Pad1)*
X134239000Y-96367600D03*
G04 #@! TO.P,SW1,4,4*
X134239000Y-92667602D03*
G04 #@! TD*
D12*
G04 #@! TO.P,J3,1,Pin_1*
G04 #@! TO.N,/Motor2*
X142621000Y-102387400D03*
D13*
G04 #@! TO.P,J3,2,Pin_2*
G04 #@! TO.N,/Motor1GND*
X145161000Y-102387400D03*
G04 #@! TD*
D14*
G04 #@! TO.P,C1,1*
G04 #@! TO.N,Net-(C1-Pad1)*
X137290900Y-97713800D03*
G04 #@! TO.P,C1,2*
G04 #@! TO.N,GND*
X139365900Y-97713800D03*
G04 #@! TD*
D15*
G04 #@! TO.P,D1,1,K*
G04 #@! TO.N,GND*
X157040000Y-91694000D03*
G04 #@! TO.P,D1,2,A*
G04 #@! TO.N,Net-(D1-A)*
X155290000Y-91694000D03*
G04 #@! TD*
D12*
G04 #@! TO.P,J4,1,Pin_1*
G04 #@! TO.N,/Motor2*
X149098000Y-102362000D03*
D13*
G04 #@! TO.P,J4,2,Pin_2*
G04 #@! TO.N,/Motor1GND*
X151638000Y-102362000D03*
G04 #@! TD*
D12*
G04 #@! TO.P,J2,1,Pin_1*
G04 #@! TO.N,/MCU*
X140995400Y-87497600D03*
D13*
G04 #@! TO.P,J2,2,Pin_2*
G04 #@! TO.N,/GPIO*
X143535400Y-87497600D03*
G04 #@! TD*
D16*
G04 #@! TO.P,J1,1,1*
G04 #@! TO.N,+3.3V*
X132747000Y-100685600D03*
G04 #@! TO.P,J1,2,2*
G04 #@! TO.N,GND*
X134747000Y-100685600D03*
D17*
G04 #@! TO.P,J1,3*
G04 #@! TO.N,N/C*
X130397000Y-106235600D03*
G04 #@! TO.P,J1,4*
X137097000Y-106235600D03*
G04 #@! TD*
D18*
G04 #@! TO.P,R2,1*
G04 #@! TO.N,Net-(D1-A)*
X152511000Y-91694000D03*
G04 #@! TO.P,R2,2*
G04 #@! TO.N,+3.3V*
X150511000Y-91694000D03*
G04 #@! TD*
D19*
G04 #@! TO.P,Q1,1,G*
G04 #@! TO.N,/GPIO*
X143365400Y-94147600D03*
G04 #@! TO.P,Q1,2,S*
G04 #@! TO.N,GND*
X143365400Y-96047600D03*
G04 #@! TO.P,Q1,3,D*
G04 #@! TO.N,/Motor1GND*
X145640400Y-95097600D03*
G04 #@! TD*
D20*
G04 #@! TO.P,R1,1*
G04 #@! TO.N,Net-(C1-Pad1)*
X137242800Y-92735400D03*
G04 #@! TO.P,R1,2*
G04 #@! TO.N,/MCU*
X139242800Y-92735400D03*
G04 #@! TD*
D21*
G04 #@! TO.N,GND*
X157000000Y-99000000D03*
X153000000Y-95500000D03*
X132500000Y-88000000D03*
X140500000Y-107500000D03*
X141000000Y-95000000D03*
X152000000Y-88000000D03*
G04 #@! TD*
D22*
G04 #@! TO.N,+3.3V*
X139000000Y-109000000D02*
X139000000Y-101000000D01*
X137000000Y-111000000D02*
X139000000Y-109000000D01*
X130500000Y-111000000D02*
X137000000Y-111000000D01*
G04 #@! TO.N,/Motor2*
X143500000Y-100000000D02*
X147000000Y-100000000D01*
X147000000Y-100000000D02*
X149098000Y-97902000D01*
X142621000Y-100879000D02*
X143500000Y-100000000D01*
X142621000Y-102387400D02*
X142621000Y-100879000D01*
G04 #@! TO.N,+3.3V*
X142500000Y-97500000D02*
X146000000Y-97500000D01*
X149500000Y-95000000D02*
X149500000Y-94000000D01*
X149500000Y-94000000D02*
X149500000Y-92705000D01*
X139000000Y-101000000D02*
X142500000Y-97500000D01*
X146000000Y-97500000D02*
X149500000Y-94000000D01*
G04 #@! TO.N,/Motor1GND*
X145161000Y-103661000D02*
X145161000Y-102387400D01*
X147000000Y-105500000D02*
X145161000Y-103661000D01*
X148500000Y-105500000D02*
X147000000Y-105500000D01*
X151638000Y-102362000D02*
X148500000Y-105500000D01*
X151638000Y-99862000D02*
X151638000Y-102362000D01*
X159500000Y-90000000D02*
X159500000Y-92000000D01*
X159000000Y-89500000D02*
X159500000Y-90000000D01*
X150938001Y-89500000D02*
X159000000Y-89500000D01*
X145640400Y-95097600D02*
X145640400Y-94797601D01*
X145640400Y-94797601D02*
X150938001Y-89500000D01*
X159500000Y-92000000D02*
X151638000Y-99862000D01*
D23*
G04 #@! TO.N,/GPIO*
X143535400Y-93977600D02*
X143365400Y-94147600D01*
X143535400Y-87497600D02*
X143535400Y-93977600D01*
D22*
G04 #@! TO.N,/Motor2*
X149098000Y-97902000D02*
X149098000Y-102362000D01*
X149500000Y-97500000D02*
X149098000Y-97902000D01*
X149500000Y-97000000D02*
X149500000Y-97500000D01*
G04 #@! TO.N,+3.3V*
X149500000Y-92705000D02*
X150511000Y-91694000D01*
G04 #@! TO.N,Net-(C1-Pad1)*
X134239000Y-96367600D02*
X135944700Y-96367600D01*
X134239000Y-96367600D02*
X134239000Y-92667602D01*
X135944700Y-96367600D02*
X137290900Y-97713800D01*
X137242800Y-92735400D02*
X134306798Y-92735400D01*
D24*
X134306798Y-92735400D02*
X134239000Y-92667602D01*
D22*
G04 #@! TO.N,Net-(D1-A)*
X152511000Y-91694000D02*
X155290000Y-91694000D01*
D23*
G04 #@! TO.N,/GPIO*
X143565400Y-87527600D02*
X143535400Y-87497600D01*
X143535400Y-94117600D02*
X143565400Y-94147600D01*
D22*
G04 #@! TO.N,/MCU*
X140995400Y-90982800D02*
X140995400Y-87497600D01*
X139242800Y-92735400D02*
X140995400Y-90982800D01*
G04 #@! TO.N,+3.3V*
X128016000Y-108516000D02*
X130500000Y-111000000D01*
X128016000Y-101600000D02*
X128016000Y-108516000D01*
X132188200Y-100126800D02*
X131445000Y-100126800D01*
X131445000Y-100126800D02*
X129489200Y-100126800D01*
X129489200Y-100126800D02*
X128016000Y-101600000D01*
X131445000Y-99934298D02*
X127878302Y-96367600D01*
D23*
X127878302Y-96367600D02*
X128429000Y-96367600D01*
D22*
X131445000Y-100126800D02*
X131445000Y-99934298D01*
X127878302Y-96367600D02*
X127878302Y-92667602D01*
X132188200Y-100126800D02*
X132747000Y-100685600D01*
G04 #@! TD*
G04 #@! TA.AperFunction,Conductor*
G04 #@! TO.N,GND*
G36*
X158857654Y-89901185D02*
G01*
X158878296Y-89917819D01*
X159082181Y-90121704D01*
X159115666Y-90183027D01*
X159118500Y-90209385D01*
X159118500Y-91790615D01*
X159098815Y-91857654D01*
X159082181Y-91878296D01*
X151332725Y-99627751D01*
X151332723Y-99627754D01*
X151282499Y-99714745D01*
X151282499Y-99714746D01*
X151256500Y-99811775D01*
X151256500Y-99811777D01*
X151256500Y-100729836D01*
X151236815Y-100796875D01*
X151184011Y-100842630D01*
X151170820Y-100847766D01*
X151111910Y-100866907D01*
X150919700Y-100964843D01*
X150745180Y-101091640D01*
X150603195Y-101233625D01*
X150541872Y-101267109D01*
X150472180Y-101262125D01*
X150416247Y-101220253D01*
X150403132Y-101198348D01*
X150402815Y-101197669D01*
X150402814Y-101197668D01*
X150402814Y-101197666D01*
X150310712Y-101048344D01*
X150186656Y-100924288D01*
X150070666Y-100852745D01*
X150037336Y-100832187D01*
X150037331Y-100832185D01*
X150020597Y-100826640D01*
X149870797Y-100777001D01*
X149870795Y-100777000D01*
X149768016Y-100766500D01*
X149768009Y-100766500D01*
X149603500Y-100766500D01*
X149536461Y-100746815D01*
X149490706Y-100694011D01*
X149479500Y-100642500D01*
X149479500Y-98224499D01*
X149499185Y-98157460D01*
X149551989Y-98111705D01*
X149603500Y-98100499D01*
X150000002Y-98100499D01*
X150000008Y-98100499D01*
X150102797Y-98089999D01*
X150269334Y-98034814D01*
X150418656Y-97942712D01*
X150542712Y-97818656D01*
X150634814Y-97669334D01*
X150689999Y-97502797D01*
X150700500Y-97400009D01*
X150700499Y-96599992D01*
X150695799Y-96553986D01*
X150689999Y-96497203D01*
X150689998Y-96497200D01*
X150687215Y-96488801D01*
X150634814Y-96330666D01*
X150542712Y-96181344D01*
X150449049Y-96087681D01*
X150415564Y-96026358D01*
X150420548Y-95956666D01*
X150449049Y-95912319D01*
X150466171Y-95895197D01*
X150542712Y-95818656D01*
X150634814Y-95669334D01*
X150689999Y-95502797D01*
X150700500Y-95400009D01*
X150700499Y-94599992D01*
X150689999Y-94497203D01*
X150634814Y-94330666D01*
X150542712Y-94181344D01*
X150418656Y-94057288D01*
X150269334Y-93965186D01*
X150102797Y-93910001D01*
X150102795Y-93910000D01*
X149999990Y-93899497D01*
X149999169Y-93899456D01*
X149998999Y-93899396D01*
X149996868Y-93899179D01*
X149996920Y-93898668D01*
X149933222Y-93876375D01*
X149890223Y-93821304D01*
X149881500Y-93775618D01*
X149881500Y-93008368D01*
X149901185Y-92941329D01*
X149953989Y-92895574D01*
X150018101Y-92885010D01*
X150110991Y-92894500D01*
X150911008Y-92894499D01*
X150911016Y-92894498D01*
X150911019Y-92894498D01*
X150967302Y-92888748D01*
X151013797Y-92883999D01*
X151180334Y-92828814D01*
X151329656Y-92736712D01*
X151423319Y-92643049D01*
X151484642Y-92609564D01*
X151554334Y-92614548D01*
X151598681Y-92643049D01*
X151692344Y-92736712D01*
X151841666Y-92828814D01*
X152008203Y-92883999D01*
X152110991Y-92894500D01*
X152911008Y-92894499D01*
X152911016Y-92894498D01*
X152911019Y-92894498D01*
X152967302Y-92888748D01*
X153013797Y-92883999D01*
X153180334Y-92828814D01*
X153329656Y-92736712D01*
X153453712Y-92612656D01*
X153545814Y-92463334D01*
X153600999Y-92296797D01*
X153611500Y-92194009D01*
X153611500Y-92194008D01*
X153611541Y-92193200D01*
X153611599Y-92193031D01*
X153611821Y-92190868D01*
X153612338Y-92190920D01*
X153634606Y-92127248D01*
X153689666Y-92084234D01*
X153735381Y-92075500D01*
X154183213Y-92075500D01*
X154250252Y-92095185D01*
X154296007Y-92147989D01*
X154300916Y-92160489D01*
X154329092Y-92245516D01*
X154419660Y-92392350D01*
X154541650Y-92514340D01*
X154688484Y-92604908D01*
X154852247Y-92659174D01*
X154953323Y-92669500D01*
X155626676Y-92669499D01*
X155626684Y-92669498D01*
X155626687Y-92669498D01*
X155682030Y-92663844D01*
X155727753Y-92659174D01*
X155891516Y-92604908D01*
X156038350Y-92514340D01*
X156077673Y-92475016D01*
X156138994Y-92441532D01*
X156208685Y-92446516D01*
X156253034Y-92475017D01*
X156291961Y-92513944D01*
X156291965Y-92513947D01*
X156438688Y-92604448D01*
X156438699Y-92604453D01*
X156602347Y-92658680D01*
X156703351Y-92668999D01*
X156790000Y-92668998D01*
X156790000Y-91944000D01*
X157290000Y-91944000D01*
X157290000Y-92668999D01*
X157376640Y-92668999D01*
X157376654Y-92668998D01*
X157477652Y-92658680D01*
X157641300Y-92604453D01*
X157641311Y-92604448D01*
X157788034Y-92513947D01*
X157788038Y-92513944D01*
X157909944Y-92392038D01*
X157909947Y-92392034D01*
X158000448Y-92245311D01*
X158000453Y-92245300D01*
X158054680Y-92081652D01*
X158064999Y-91980654D01*
X158065000Y-91980641D01*
X158065000Y-91944000D01*
X157290000Y-91944000D01*
X156790000Y-91944000D01*
X156790000Y-90719000D01*
X157290000Y-90719000D01*
X157290000Y-91444000D01*
X158064999Y-91444000D01*
X158064999Y-91407360D01*
X158064998Y-91407345D01*
X158054680Y-91306347D01*
X158000453Y-91142699D01*
X158000448Y-91142688D01*
X157909947Y-90995965D01*
X157909944Y-90995961D01*
X157788038Y-90874055D01*
X157788034Y-90874052D01*
X157641311Y-90783551D01*
X157641300Y-90783546D01*
X157477652Y-90729319D01*
X157376654Y-90719000D01*
X157290000Y-90719000D01*
X156790000Y-90719000D01*
X156789999Y-90718999D01*
X156703360Y-90719000D01*
X156703343Y-90719001D01*
X156602347Y-90729319D01*
X156438699Y-90783546D01*
X156438688Y-90783551D01*
X156291965Y-90874052D01*
X156291961Y-90874055D01*
X156253033Y-90912983D01*
X156191710Y-90946468D01*
X156122018Y-90941482D01*
X156077672Y-90912982D01*
X156038351Y-90873661D01*
X156038350Y-90873660D01*
X155947129Y-90817395D01*
X155891518Y-90783093D01*
X155891513Y-90783091D01*
X155868128Y-90775342D01*
X155727753Y-90728826D01*
X155727751Y-90728825D01*
X155626678Y-90718500D01*
X154953330Y-90718500D01*
X154953312Y-90718501D01*
X154852247Y-90728825D01*
X154688484Y-90783092D01*
X154688481Y-90783093D01*
X154541648Y-90873661D01*
X154419661Y-90995648D01*
X154329093Y-91142481D01*
X154329092Y-91142484D01*
X154304384Y-91217049D01*
X154300919Y-91227505D01*
X154261146Y-91284949D01*
X154196630Y-91311772D01*
X154183213Y-91312500D01*
X153735380Y-91312500D01*
X153668341Y-91292815D01*
X153622586Y-91240011D01*
X153612102Y-91197103D01*
X153611820Y-91197132D01*
X153611612Y-91195098D01*
X153611540Y-91194803D01*
X153611498Y-91193981D01*
X153600999Y-91091203D01*
X153600998Y-91091200D01*
X153545814Y-90924666D01*
X153453712Y-90775344D01*
X153329656Y-90651288D01*
X153180334Y-90559186D01*
X153013797Y-90504001D01*
X153013795Y-90504000D01*
X152911010Y-90493500D01*
X152110998Y-90493500D01*
X152110980Y-90493501D01*
X152008203Y-90504000D01*
X152008200Y-90504001D01*
X151841668Y-90559185D01*
X151841663Y-90559187D01*
X151692342Y-90651289D01*
X151598681Y-90744951D01*
X151537358Y-90778436D01*
X151467666Y-90773452D01*
X151423319Y-90744951D01*
X151329657Y-90651289D01*
X151329656Y-90651288D01*
X151180334Y-90559186D01*
X151013797Y-90504001D01*
X151013795Y-90504000D01*
X150911016Y-90493500D01*
X150911009Y-90493500D01*
X150783385Y-90493500D01*
X150716346Y-90473815D01*
X150670591Y-90421011D01*
X150660647Y-90351853D01*
X150689672Y-90288297D01*
X150695704Y-90281819D01*
X150794497Y-90183027D01*
X151059705Y-89917819D01*
X151121028Y-89884334D01*
X151147386Y-89881500D01*
X158790615Y-89881500D01*
X158857654Y-89901185D01*
G37*
G04 #@! TD.AperFunction*
G04 #@! TA.AperFunction,Conductor*
G36*
X161639439Y-78708885D02*
G01*
X161685194Y-78761689D01*
X161696400Y-78813200D01*
X161696400Y-116284200D01*
X161676715Y-116351239D01*
X161623911Y-116396994D01*
X161572400Y-116408200D01*
X120342200Y-116408200D01*
X120275161Y-116388515D01*
X120229406Y-116335711D01*
X120218200Y-116284200D01*
X120218200Y-112118004D01*
X123699500Y-112118004D01*
X123699501Y-112118020D01*
X123730306Y-112352010D01*
X123791394Y-112579993D01*
X123881714Y-112798045D01*
X123881719Y-112798056D01*
X123952677Y-112920957D01*
X123999727Y-113002450D01*
X123999729Y-113002453D01*
X123999730Y-113002454D01*
X124143406Y-113189697D01*
X124143412Y-113189704D01*
X124310295Y-113356587D01*
X124310301Y-113356592D01*
X124497550Y-113500273D01*
X124628918Y-113576118D01*
X124701943Y-113618280D01*
X124701948Y-113618282D01*
X124701951Y-113618284D01*
X124920007Y-113708606D01*
X125147986Y-113769693D01*
X125381989Y-113800500D01*
X125381996Y-113800500D01*
X125618004Y-113800500D01*
X125618011Y-113800500D01*
X125852014Y-113769693D01*
X126079993Y-113708606D01*
X126298049Y-113618284D01*
X126502450Y-113500273D01*
X126689699Y-113356592D01*
X126856592Y-113189699D01*
X127000273Y-113002450D01*
X127118284Y-112798049D01*
X127208606Y-112579993D01*
X127269693Y-112352014D01*
X127300500Y-112118011D01*
X127300500Y-112118004D01*
X154699500Y-112118004D01*
X154699501Y-112118020D01*
X154730306Y-112352010D01*
X154791394Y-112579993D01*
X154881714Y-112798045D01*
X154881719Y-112798056D01*
X154952677Y-112920957D01*
X154999727Y-113002450D01*
X154999729Y-113002453D01*
X154999730Y-113002454D01*
X155143406Y-113189697D01*
X155143412Y-113189704D01*
X155310295Y-113356587D01*
X155310301Y-113356592D01*
X155497550Y-113500273D01*
X155628918Y-113576118D01*
X155701943Y-113618280D01*
X155701948Y-113618282D01*
X155701951Y-113618284D01*
X155920007Y-113708606D01*
X156147986Y-113769693D01*
X156381989Y-113800500D01*
X156381996Y-113800500D01*
X156618004Y-113800500D01*
X156618011Y-113800500D01*
X156852014Y-113769693D01*
X157079993Y-113708606D01*
X157298049Y-113618284D01*
X157502450Y-113500273D01*
X157689699Y-113356592D01*
X157856592Y-113189699D01*
X158000273Y-113002450D01*
X158118284Y-112798049D01*
X158208606Y-112579993D01*
X158269693Y-112352014D01*
X158300500Y-112118011D01*
X158300500Y-111881989D01*
X158269693Y-111647986D01*
X158208606Y-111420007D01*
X158118284Y-111201951D01*
X158118282Y-111201948D01*
X158118280Y-111201943D01*
X158076118Y-111128918D01*
X158000273Y-110997550D01*
X157856592Y-110810301D01*
X157856587Y-110810295D01*
X157689704Y-110643412D01*
X157689697Y-110643406D01*
X157502454Y-110499730D01*
X157502453Y-110499729D01*
X157502450Y-110499727D01*
X157420957Y-110452677D01*
X157298056Y-110381719D01*
X157298045Y-110381714D01*
X157079993Y-110291394D01*
X156852010Y-110230306D01*
X156618020Y-110199501D01*
X156618017Y-110199500D01*
X156618011Y-110199500D01*
X156381989Y-110199500D01*
X156381983Y-110199500D01*
X156381979Y-110199501D01*
X156147989Y-110230306D01*
X155920006Y-110291394D01*
X155701954Y-110381714D01*
X155701943Y-110381719D01*
X155497545Y-110499730D01*
X155310302Y-110643406D01*
X155310295Y-110643412D01*
X155143412Y-110810295D01*
X155143406Y-110810302D01*
X154999730Y-110997545D01*
X154881719Y-111201943D01*
X154881714Y-111201954D01*
X154791394Y-111420006D01*
X154730306Y-111647989D01*
X154699501Y-111881979D01*
X154699500Y-111881995D01*
X154699500Y-112118004D01*
X127300500Y-112118004D01*
X127300500Y-111881989D01*
X127269693Y-111647986D01*
X127208606Y-111420007D01*
X127118284Y-111201951D01*
X127118282Y-111201948D01*
X127118280Y-111201943D01*
X127076118Y-111128918D01*
X127000273Y-110997550D01*
X126856592Y-110810301D01*
X126856587Y-110810295D01*
X126689704Y-110643412D01*
X126689697Y-110643406D01*
X126502454Y-110499730D01*
X126502453Y-110499729D01*
X126502450Y-110499727D01*
X126420957Y-110452677D01*
X126298056Y-110381719D01*
X126298045Y-110381714D01*
X126079993Y-110291394D01*
X125852010Y-110230306D01*
X125618020Y-110199501D01*
X125618017Y-110199500D01*
X125618011Y-110199500D01*
X125381989Y-110199500D01*
X125381983Y-110199500D01*
X125381979Y-110199501D01*
X125147989Y-110230306D01*
X124920006Y-110291394D01*
X124701954Y-110381714D01*
X124701943Y-110381719D01*
X124497545Y-110499730D01*
X124310302Y-110643406D01*
X124310295Y-110643412D01*
X124143412Y-110810295D01*
X124143406Y-110810302D01*
X123999730Y-110997545D01*
X123881719Y-111201943D01*
X123881714Y-111201954D01*
X123791394Y-111420006D01*
X123730306Y-111647989D01*
X123699501Y-111881979D01*
X123699500Y-111881995D01*
X123699500Y-112118004D01*
X120218200Y-112118004D01*
X120218200Y-96694870D01*
X126902552Y-96694870D01*
X126902553Y-96694876D01*
X126908960Y-96754483D01*
X126959254Y-96889328D01*
X126959258Y-96889335D01*
X127045504Y-97004544D01*
X127045507Y-97004547D01*
X127160716Y-97090793D01*
X127160723Y-97090797D01*
X127205670Y-97107561D01*
X127295569Y-97141091D01*
X127355179Y-97147500D01*
X128067316Y-97147499D01*
X128134355Y-97167183D01*
X128154997Y-97183818D01*
X130504798Y-99533619D01*
X130538283Y-99594942D01*
X130533299Y-99664634D01*
X130491427Y-99720567D01*
X130425963Y-99744984D01*
X130417117Y-99745300D01*
X129438975Y-99745300D01*
X129366203Y-99764799D01*
X129341945Y-99771299D01*
X129254954Y-99821523D01*
X129254951Y-99821525D01*
X129183922Y-99892555D01*
X127764312Y-101312164D01*
X127764311Y-101312164D01*
X127764312Y-101312165D01*
X127710722Y-101365754D01*
X127660499Y-101452745D01*
X127660499Y-101452746D01*
X127634500Y-101549775D01*
X127634500Y-108566225D01*
X127653999Y-108638996D01*
X127660499Y-108663255D01*
X127660500Y-108663256D01*
X127678668Y-108694724D01*
X127678669Y-108694725D01*
X127710723Y-108750245D01*
X127710725Y-108750248D01*
X130190383Y-111229905D01*
X130190393Y-111229916D01*
X130265754Y-111305277D01*
X130309249Y-111330388D01*
X130352746Y-111355501D01*
X130449775Y-111381500D01*
X130449778Y-111381500D01*
X137050222Y-111381500D01*
X137050225Y-111381500D01*
X137147254Y-111355501D01*
X137234247Y-111305276D01*
X137305276Y-111234247D01*
X137305277Y-111234246D01*
X139305276Y-109234247D01*
X139355501Y-109147254D01*
X139381500Y-109050225D01*
X139381500Y-101209384D01*
X139401185Y-101142345D01*
X139417819Y-101121703D01*
X142621703Y-97917819D01*
X142683026Y-97884334D01*
X142709384Y-97881500D01*
X146050222Y-97881500D01*
X146050225Y-97881500D01*
X146147254Y-97855501D01*
X146234247Y-97805276D01*
X146305276Y-97734247D01*
X146305276Y-97734246D01*
X148256204Y-95783317D01*
X148317525Y-95749834D01*
X148387217Y-95754818D01*
X148443150Y-95796690D01*
X148449421Y-95805902D01*
X148457287Y-95818655D01*
X148550951Y-95912319D01*
X148584436Y-95973642D01*
X148579452Y-96043334D01*
X148550951Y-96087681D01*
X148457289Y-96181342D01*
X148365187Y-96330663D01*
X148365186Y-96330666D01*
X148310001Y-96497203D01*
X148310001Y-96497204D01*
X148310000Y-96497204D01*
X148299500Y-96599983D01*
X148299500Y-97400001D01*
X148299501Y-97400019D01*
X148310000Y-97502796D01*
X148310001Y-97502799D01*
X148365185Y-97669331D01*
X148365186Y-97669334D01*
X148449035Y-97805276D01*
X148457289Y-97818657D01*
X148461873Y-97823241D01*
X148495358Y-97884564D01*
X148490374Y-97954256D01*
X148461873Y-97998603D01*
X146878296Y-99582181D01*
X146816973Y-99615666D01*
X146790615Y-99618500D01*
X143557837Y-99618500D01*
X143557821Y-99618499D01*
X143550225Y-99618499D01*
X143449775Y-99618499D01*
X143352747Y-99644498D01*
X143352745Y-99644498D01*
X143352745Y-99644499D01*
X143265753Y-99694724D01*
X143265750Y-99694726D01*
X142315725Y-100644751D01*
X142315721Y-100644756D01*
X142266564Y-100729900D01*
X142215997Y-100778116D01*
X142159178Y-100791900D01*
X141950999Y-100791900D01*
X141950980Y-100791901D01*
X141848203Y-100802400D01*
X141848200Y-100802401D01*
X141681668Y-100857585D01*
X141681663Y-100857587D01*
X141532342Y-100949689D01*
X141408289Y-101073742D01*
X141316187Y-101223063D01*
X141316185Y-101223068D01*
X141300774Y-101269576D01*
X141261001Y-101389603D01*
X141261001Y-101389604D01*
X141261000Y-101389604D01*
X141250500Y-101492383D01*
X141250500Y-103282401D01*
X141250501Y-103282418D01*
X141261000Y-103385196D01*
X141261001Y-103385199D01*
X141292357Y-103479823D01*
X141316186Y-103551734D01*
X141408288Y-103701056D01*
X141532344Y-103825112D01*
X141681666Y-103917214D01*
X141848203Y-103972399D01*
X141950991Y-103982900D01*
X143291008Y-103982899D01*
X143393797Y-103972399D01*
X143560334Y-103917214D01*
X143709656Y-103825112D01*
X143833712Y-103701056D01*
X143925814Y-103551734D01*
X143925817Y-103551722D01*
X143926129Y-103551057D01*
X143926469Y-103550669D01*
X143929605Y-103545587D01*
X143930473Y-103546122D01*
X143972299Y-103498616D01*
X144039491Y-103479460D01*
X144106373Y-103499672D01*
X144126195Y-103515775D01*
X144268179Y-103657759D01*
X144442701Y-103784557D01*
X144634911Y-103882492D01*
X144833439Y-103946998D01*
X144840074Y-103949154D01*
X144882926Y-103955941D01*
X144946061Y-103985870D01*
X144951210Y-103990733D01*
X146765753Y-105805276D01*
X146852747Y-105855502D01*
X146949775Y-105881501D01*
X146949778Y-105881501D01*
X147057821Y-105881501D01*
X147057837Y-105881500D01*
X148550222Y-105881500D01*
X148550225Y-105881500D01*
X148647254Y-105855501D01*
X148734247Y-105805276D01*
X148805276Y-105734247D01*
X150764186Y-103775335D01*
X150825507Y-103741852D01*
X150895198Y-103746836D01*
X150916653Y-103757290D01*
X150919692Y-103759152D01*
X150919699Y-103759155D01*
X150919701Y-103759157D01*
X151111911Y-103857092D01*
X151317074Y-103923754D01*
X151396973Y-103936408D01*
X151530134Y-103957500D01*
X151530139Y-103957500D01*
X151745866Y-103957500D01*
X151864230Y-103938752D01*
X151958926Y-103923754D01*
X152164089Y-103857092D01*
X152356299Y-103759157D01*
X152530821Y-103632359D01*
X152683359Y-103479821D01*
X152810157Y-103305299D01*
X152908092Y-103113089D01*
X152974754Y-102907926D01*
X153002137Y-102735038D01*
X153008500Y-102694866D01*
X153008500Y-102029133D01*
X152974754Y-101816077D01*
X152974754Y-101816074D01*
X152908092Y-101610911D01*
X152810157Y-101418701D01*
X152683359Y-101244179D01*
X152530821Y-101091641D01*
X152356299Y-100964843D01*
X152326726Y-100949775D01*
X152164089Y-100866907D01*
X152105180Y-100847766D01*
X152047505Y-100808328D01*
X152020308Y-100743969D01*
X152019500Y-100729836D01*
X152019500Y-100071385D01*
X152039185Y-100004346D01*
X152055819Y-99983704D01*
X155858181Y-96181342D01*
X159805276Y-92234247D01*
X159828508Y-92194008D01*
X159855501Y-92147254D01*
X159881500Y-92050225D01*
X159881500Y-90060227D01*
X159881501Y-90060214D01*
X159881501Y-89949777D01*
X159881501Y-89949775D01*
X159855502Y-89852747D01*
X159805276Y-89765753D01*
X159234247Y-89194724D01*
X159147254Y-89144499D01*
X159147255Y-89144499D01*
X159122996Y-89137999D01*
X159050225Y-89118500D01*
X150887776Y-89118500D01*
X150815004Y-89137999D01*
X150790746Y-89144499D01*
X150703755Y-89194723D01*
X150703752Y-89194725D01*
X145637697Y-94260781D01*
X145576374Y-94294266D01*
X145550016Y-94297100D01*
X145062198Y-94297100D01*
X145025332Y-94300001D01*
X145025326Y-94300002D01*
X144867506Y-94345854D01*
X144867503Y-94345855D01*
X144719320Y-94433490D01*
X144718245Y-94431673D01*
X144663348Y-94453220D01*
X144594832Y-94439531D01*
X144544594Y-94390973D01*
X144528400Y-94329704D01*
X144528400Y-93931913D01*
X144528399Y-93931898D01*
X144525841Y-93899396D01*
X144525498Y-93895031D01*
X144523575Y-93888413D01*
X144479645Y-93737206D01*
X144479644Y-93737203D01*
X144479644Y-93737202D01*
X144395981Y-93595735D01*
X144395979Y-93595733D01*
X144395976Y-93595729D01*
X144279770Y-93479523D01*
X144279762Y-93479517D01*
X144138296Y-93395855D01*
X144138293Y-93395854D01*
X143980473Y-93350002D01*
X143980467Y-93350001D01*
X143943601Y-93347100D01*
X143943594Y-93347100D01*
X143911900Y-93347100D01*
X143844861Y-93327415D01*
X143799106Y-93274611D01*
X143787900Y-93223100D01*
X143787900Y-89171678D01*
X143807585Y-89104639D01*
X143860389Y-89058884D01*
X143873582Y-89053747D01*
X144061489Y-88992692D01*
X144253699Y-88894757D01*
X144428221Y-88767959D01*
X144580759Y-88615421D01*
X144707557Y-88440899D01*
X144805492Y-88248689D01*
X144872154Y-88043526D01*
X144887152Y-87948830D01*
X144905900Y-87830466D01*
X144905900Y-87164733D01*
X144872154Y-86951677D01*
X144872154Y-86951674D01*
X144805492Y-86746511D01*
X144707557Y-86554301D01*
X144580759Y-86379779D01*
X144428221Y-86227241D01*
X144253699Y-86100443D01*
X144061489Y-86002508D01*
X143856326Y-85935846D01*
X143856324Y-85935845D01*
X143856322Y-85935845D01*
X143643266Y-85902100D01*
X143643261Y-85902100D01*
X143427539Y-85902100D01*
X143427534Y-85902100D01*
X143214477Y-85935845D01*
X143009308Y-86002509D01*
X142817100Y-86100443D01*
X142642580Y-86227240D01*
X142500595Y-86369225D01*
X142439272Y-86402709D01*
X142369580Y-86397725D01*
X142313647Y-86355853D01*
X142300532Y-86333948D01*
X142300215Y-86333269D01*
X142300214Y-86333268D01*
X142300214Y-86333266D01*
X142208112Y-86183944D01*
X142084056Y-86059888D01*
X141934734Y-85967786D01*
X141768197Y-85912601D01*
X141768195Y-85912600D01*
X141665410Y-85902100D01*
X140325398Y-85902100D01*
X140325381Y-85902101D01*
X140222603Y-85912600D01*
X140222600Y-85912601D01*
X140056068Y-85967785D01*
X140056063Y-85967787D01*
X139906742Y-86059889D01*
X139782689Y-86183942D01*
X139690587Y-86333263D01*
X139690586Y-86333266D01*
X139635401Y-86499803D01*
X139635401Y-86499804D01*
X139635400Y-86499804D01*
X139624900Y-86602583D01*
X139624900Y-88392601D01*
X139624901Y-88392618D01*
X139635400Y-88495396D01*
X139635401Y-88495399D01*
X139672984Y-88608816D01*
X139690586Y-88661934D01*
X139782688Y-88811256D01*
X139906744Y-88935312D01*
X140056066Y-89027414D01*
X140222603Y-89082599D01*
X140325391Y-89093100D01*
X140489900Y-89093099D01*
X140556939Y-89112783D01*
X140602694Y-89165587D01*
X140613900Y-89217099D01*
X140613900Y-90773414D01*
X140594215Y-90840453D01*
X140577581Y-90861095D01*
X139910601Y-91528074D01*
X139849278Y-91561559D01*
X139783917Y-91558099D01*
X139745597Y-91545401D01*
X139745595Y-91545400D01*
X139642810Y-91534900D01*
X138842798Y-91534900D01*
X138842780Y-91534901D01*
X138740003Y-91545400D01*
X138740000Y-91545401D01*
X138573468Y-91600585D01*
X138573463Y-91600587D01*
X138424142Y-91692689D01*
X138330481Y-91786351D01*
X138269158Y-91819836D01*
X138199466Y-91814852D01*
X138155119Y-91786351D01*
X138061457Y-91692689D01*
X138061456Y-91692688D01*
X137912134Y-91600586D01*
X137745597Y-91545401D01*
X137745595Y-91545400D01*
X137642810Y-91534900D01*
X136842798Y-91534900D01*
X136842780Y-91534901D01*
X136740003Y-91545400D01*
X136740000Y-91545401D01*
X136573468Y-91600585D01*
X136573463Y-91600587D01*
X136424142Y-91692689D01*
X136300089Y-91816742D01*
X136207987Y-91966063D01*
X136207986Y-91966066D01*
X136152801Y-92132603D01*
X136152801Y-92132604D01*
X136152800Y-92132604D01*
X136142300Y-92235385D01*
X136142259Y-92236200D01*
X136142200Y-92236368D01*
X136141979Y-92238532D01*
X136141461Y-92238479D01*
X136119194Y-92302152D01*
X136064134Y-92345166D01*
X136018419Y-92353900D01*
X135321731Y-92353900D01*
X135254692Y-92334215D01*
X135208937Y-92281411D01*
X135205549Y-92273233D01*
X135158047Y-92145873D01*
X135158043Y-92145866D01*
X135071797Y-92030657D01*
X135071794Y-92030654D01*
X134956585Y-91944408D01*
X134956578Y-91944404D01*
X134821732Y-91894110D01*
X134821733Y-91894110D01*
X134762133Y-91887703D01*
X134762131Y-91887702D01*
X134762123Y-91887702D01*
X134762114Y-91887702D01*
X133715879Y-91887702D01*
X133715873Y-91887703D01*
X133656266Y-91894110D01*
X133521421Y-91944404D01*
X133521414Y-91944408D01*
X133406205Y-92030654D01*
X133406202Y-92030657D01*
X133319956Y-92145866D01*
X133319952Y-92145873D01*
X133272451Y-92273233D01*
X133269659Y-92280719D01*
X133263250Y-92340329D01*
X133263250Y-92340336D01*
X133263250Y-92340337D01*
X133263250Y-92994872D01*
X133263251Y-92994878D01*
X133269658Y-93054485D01*
X133319952Y-93189330D01*
X133319956Y-93189337D01*
X133406202Y-93304546D01*
X133406205Y-93304549D01*
X133521414Y-93390795D01*
X133521421Y-93390799D01*
X133534980Y-93395856D01*
X133656267Y-93441093D01*
X133715877Y-93447502D01*
X133733496Y-93447501D01*
X133800534Y-93467182D01*
X133846292Y-93519984D01*
X133857500Y-93571501D01*
X133857500Y-95463700D01*
X133837815Y-95530739D01*
X133785011Y-95576494D01*
X133733506Y-95587700D01*
X133715882Y-95587700D01*
X133715873Y-95587701D01*
X133656266Y-95594108D01*
X133521421Y-95644402D01*
X133521414Y-95644406D01*
X133406205Y-95730652D01*
X133406202Y-95730655D01*
X133319956Y-95845864D01*
X133319952Y-95845871D01*
X133269660Y-95980713D01*
X133269659Y-95980717D01*
X133263250Y-96040327D01*
X133263250Y-96040335D01*
X133263250Y-96040336D01*
X133263250Y-96694870D01*
X133263251Y-96694876D01*
X133269658Y-96754483D01*
X133319952Y-96889328D01*
X133319956Y-96889335D01*
X133406202Y-97004544D01*
X133406205Y-97004547D01*
X133521414Y-97090793D01*
X133521421Y-97090797D01*
X133656267Y-97141091D01*
X133656266Y-97141091D01*
X133663194Y-97141835D01*
X133715877Y-97147500D01*
X134762122Y-97147499D01*
X134821733Y-97141091D01*
X134956581Y-97090796D01*
X135071796Y-97004546D01*
X135158046Y-96889331D01*
X135178236Y-96835200D01*
X135180262Y-96829767D01*
X135222133Y-96773834D01*
X135287597Y-96749416D01*
X135296444Y-96749100D01*
X135735315Y-96749100D01*
X135802354Y-96768785D01*
X135822996Y-96785419D01*
X136166581Y-97129003D01*
X136200066Y-97190326D01*
X136202900Y-97216684D01*
X136202900Y-98238801D01*
X136202901Y-98238819D01*
X136213400Y-98341596D01*
X136213401Y-98341599D01*
X136246672Y-98442003D01*
X136268586Y-98508134D01*
X136360688Y-98657456D01*
X136484744Y-98781512D01*
X136634066Y-98873614D01*
X136800603Y-98928799D01*
X136903391Y-98939300D01*
X137678408Y-98939299D01*
X137678416Y-98939298D01*
X137678419Y-98939298D01*
X137734702Y-98933548D01*
X137781197Y-98928799D01*
X137947734Y-98873614D01*
X138097056Y-98781512D01*
X138221112Y-98657456D01*
X138223152Y-98654147D01*
X138225145Y-98652355D01*
X138225593Y-98651789D01*
X138225689Y-98651865D01*
X138275094Y-98607423D01*
X138344056Y-98596195D01*
X138408140Y-98624034D01*
X138434229Y-98654139D01*
X138436081Y-98657141D01*
X138436083Y-98657144D01*
X138560054Y-98781115D01*
X138709275Y-98873156D01*
X138709280Y-98873158D01*
X138875702Y-98928305D01*
X138875709Y-98928306D01*
X138978419Y-98938799D01*
X139115899Y-98938799D01*
X139115900Y-98938798D01*
X139115900Y-97963800D01*
X139615900Y-97963800D01*
X139615900Y-98938799D01*
X139753372Y-98938799D01*
X139753386Y-98938798D01*
X139856097Y-98928305D01*
X140022519Y-98873158D01*
X140022524Y-98873156D01*
X140171745Y-98781115D01*
X140295715Y-98657145D01*
X140387756Y-98507924D01*
X140387758Y-98507919D01*
X140442905Y-98341497D01*
X140442906Y-98341490D01*
X140453399Y-98238786D01*
X140453400Y-98238773D01*
X140453400Y-97963800D01*
X139615900Y-97963800D01*
X139115900Y-97963800D01*
X139115900Y-96488800D01*
X139615900Y-96488800D01*
X139615900Y-97463800D01*
X140453399Y-97463800D01*
X140453399Y-97188828D01*
X140453398Y-97188813D01*
X140442905Y-97086102D01*
X140387758Y-96919680D01*
X140387756Y-96919675D01*
X140295715Y-96770454D01*
X140171745Y-96646484D01*
X140022524Y-96554443D01*
X140022519Y-96554441D01*
X139856097Y-96499294D01*
X139856090Y-96499293D01*
X139753386Y-96488800D01*
X139615900Y-96488800D01*
X139115900Y-96488800D01*
X138978427Y-96488800D01*
X138978412Y-96488801D01*
X138875702Y-96499294D01*
X138709280Y-96554441D01*
X138709275Y-96554443D01*
X138560054Y-96646484D01*
X138436083Y-96770455D01*
X138436079Y-96770460D01*
X138434226Y-96773465D01*
X138432418Y-96775090D01*
X138431602Y-96776123D01*
X138431425Y-96775983D01*
X138382274Y-96820185D01*
X138313311Y-96831401D01*
X138249231Y-96803552D01*
X138223153Y-96773453D01*
X138223137Y-96773428D01*
X138221112Y-96770144D01*
X138097056Y-96646088D01*
X137947734Y-96553986D01*
X137781197Y-96498801D01*
X137781195Y-96498800D01*
X137678410Y-96488300D01*
X136903398Y-96488300D01*
X136903380Y-96488301D01*
X136800603Y-96498800D01*
X136800596Y-96498802D01*
X136734114Y-96520832D01*
X136664286Y-96523233D01*
X136607430Y-96490807D01*
X136414224Y-96297601D01*
X142205604Y-96297601D01*
X142205799Y-96300086D01*
X142251618Y-96457798D01*
X142335214Y-96599152D01*
X142335221Y-96599161D01*
X142451338Y-96715278D01*
X142451347Y-96715285D01*
X142592703Y-96798882D01*
X142592706Y-96798883D01*
X142750404Y-96844699D01*
X142750410Y-96844700D01*
X142787250Y-96847599D01*
X142787266Y-96847600D01*
X143115400Y-96847600D01*
X143115400Y-96297600D01*
X143615400Y-96297600D01*
X143615400Y-96847600D01*
X143943534Y-96847600D01*
X143943549Y-96847599D01*
X143980389Y-96844700D01*
X143980395Y-96844699D01*
X144138093Y-96798883D01*
X144138096Y-96798882D01*
X144279452Y-96715285D01*
X144279461Y-96715278D01*
X144395578Y-96599161D01*
X144395585Y-96599152D01*
X144479181Y-96457798D01*
X144525000Y-96300086D01*
X144525195Y-96297601D01*
X144525195Y-96297600D01*
X143615400Y-96297600D01*
X143115400Y-96297600D01*
X142205605Y-96297600D01*
X142205604Y-96297601D01*
X136414224Y-96297601D01*
X136178948Y-96062325D01*
X136178947Y-96062324D01*
X136140848Y-96040328D01*
X136140848Y-96040326D01*
X136140845Y-96040326D01*
X136091959Y-96012101D01*
X136091958Y-96012100D01*
X136084001Y-96009968D01*
X135994925Y-95986100D01*
X135994922Y-95986100D01*
X135296444Y-95986100D01*
X135229405Y-95966415D01*
X135183650Y-95913611D01*
X135180262Y-95905433D01*
X135158047Y-95845871D01*
X135158043Y-95845864D01*
X135121911Y-95797598D01*
X142205604Y-95797598D01*
X142205605Y-95797600D01*
X143115400Y-95797600D01*
X143115400Y-95247600D01*
X142787250Y-95247600D01*
X142750410Y-95250499D01*
X142750404Y-95250500D01*
X142592706Y-95296316D01*
X142592703Y-95296317D01*
X142451347Y-95379914D01*
X142451338Y-95379921D01*
X142335221Y-95496038D01*
X142335214Y-95496047D01*
X142251618Y-95637401D01*
X142205799Y-95795113D01*
X142205604Y-95797598D01*
X135121911Y-95797598D01*
X135071797Y-95730655D01*
X135071794Y-95730652D01*
X134956585Y-95644406D01*
X134956578Y-95644402D01*
X134821732Y-95594108D01*
X134821733Y-95594108D01*
X134762133Y-95587701D01*
X134762131Y-95587700D01*
X134762123Y-95587700D01*
X134762115Y-95587700D01*
X134744500Y-95587700D01*
X134677461Y-95568015D01*
X134631706Y-95515211D01*
X134620500Y-95463700D01*
X134620500Y-93571501D01*
X134640185Y-93504462D01*
X134692989Y-93458707D01*
X134744500Y-93447501D01*
X134762121Y-93447501D01*
X134762122Y-93447501D01*
X134821733Y-93441093D01*
X134956581Y-93390798D01*
X135071796Y-93304548D01*
X135158046Y-93189333D01*
X135158046Y-93189330D01*
X135162294Y-93181553D01*
X135165667Y-93183394D01*
X135196448Y-93141932D01*
X135261814Y-93117252D01*
X135271156Y-93116900D01*
X136018420Y-93116900D01*
X136085459Y-93136585D01*
X136131214Y-93189389D01*
X136141697Y-93232296D01*
X136141980Y-93232268D01*
X136142187Y-93234301D01*
X136142260Y-93234597D01*
X136142301Y-93235418D01*
X136152800Y-93338196D01*
X136152801Y-93338199D01*
X136199632Y-93479523D01*
X136207986Y-93504734D01*
X136300088Y-93654056D01*
X136424144Y-93778112D01*
X136573466Y-93870214D01*
X136740003Y-93925399D01*
X136842791Y-93935900D01*
X137642808Y-93935899D01*
X137642816Y-93935898D01*
X137642819Y-93935898D01*
X137699102Y-93930148D01*
X137745597Y-93925399D01*
X137912134Y-93870214D01*
X138061456Y-93778112D01*
X138155119Y-93684449D01*
X138216442Y-93650964D01*
X138286134Y-93655948D01*
X138330481Y-93684449D01*
X138424144Y-93778112D01*
X138573466Y-93870214D01*
X138740003Y-93925399D01*
X138842791Y-93935900D01*
X139642808Y-93935899D01*
X139642816Y-93935898D01*
X139642819Y-93935898D01*
X139699102Y-93930148D01*
X139745597Y-93925399D01*
X139912134Y-93870214D01*
X140061456Y-93778112D01*
X140185512Y-93654056D01*
X140277614Y-93504734D01*
X140332799Y-93338197D01*
X140343300Y-93235409D01*
X140343299Y-92235392D01*
X140343299Y-92235391D01*
X140343147Y-92232412D01*
X140359392Y-92164457D01*
X140379301Y-92138420D01*
X141300676Y-91217047D01*
X141350902Y-91130053D01*
X141376901Y-91033025D01*
X141376901Y-90932575D01*
X141376901Y-90924980D01*
X141376900Y-90924962D01*
X141376900Y-89217099D01*
X141396585Y-89150060D01*
X141449389Y-89104305D01*
X141500900Y-89093099D01*
X141665402Y-89093099D01*
X141665408Y-89093099D01*
X141768197Y-89082599D01*
X141934734Y-89027414D01*
X142084056Y-88935312D01*
X142208112Y-88811256D01*
X142300214Y-88661934D01*
X142300217Y-88661922D01*
X142300529Y-88661257D01*
X142300869Y-88660869D01*
X142304005Y-88655787D01*
X142304873Y-88656322D01*
X142346699Y-88608816D01*
X142413891Y-88589660D01*
X142480773Y-88609872D01*
X142500595Y-88625975D01*
X142642579Y-88767959D01*
X142817101Y-88894757D01*
X143009311Y-88992692D01*
X143197218Y-89053747D01*
X143254894Y-89093185D01*
X143282092Y-89157543D01*
X143282900Y-89171678D01*
X143282900Y-93223100D01*
X143263215Y-93290139D01*
X143210411Y-93335894D01*
X143158900Y-93347100D01*
X142787198Y-93347100D01*
X142750332Y-93350001D01*
X142750326Y-93350002D01*
X142592506Y-93395854D01*
X142592503Y-93395855D01*
X142451037Y-93479517D01*
X142451029Y-93479523D01*
X142334823Y-93595729D01*
X142334817Y-93595737D01*
X142251155Y-93737203D01*
X142251154Y-93737206D01*
X142205302Y-93895026D01*
X142205301Y-93895032D01*
X142202400Y-93931898D01*
X142202400Y-94363301D01*
X142205301Y-94400167D01*
X142205302Y-94400173D01*
X142251154Y-94557993D01*
X142251155Y-94557996D01*
X142251156Y-94557998D01*
X142275991Y-94599992D01*
X142334817Y-94699462D01*
X142334823Y-94699470D01*
X142451029Y-94815676D01*
X142451033Y-94815679D01*
X142451035Y-94815681D01*
X142592502Y-94899344D01*
X142634124Y-94911436D01*
X142750326Y-94945197D01*
X142750329Y-94945197D01*
X142750331Y-94945198D01*
X142787206Y-94948100D01*
X142787214Y-94948100D01*
X143943586Y-94948100D01*
X143943594Y-94948100D01*
X143980469Y-94945198D01*
X143980471Y-94945197D01*
X143980473Y-94945197D01*
X144082706Y-94915495D01*
X144138298Y-94899344D01*
X144262948Y-94825626D01*
X144286480Y-94811710D01*
X144287555Y-94813528D01*
X144342432Y-94791981D01*
X144410950Y-94805659D01*
X144461196Y-94854209D01*
X144477400Y-94915495D01*
X144477400Y-95280342D01*
X144457715Y-95347381D01*
X144404911Y-95393136D01*
X144335753Y-95403080D01*
X144287042Y-95382414D01*
X144286171Y-95383888D01*
X144138096Y-95296317D01*
X144138093Y-95296316D01*
X143980395Y-95250500D01*
X143980389Y-95250499D01*
X143943549Y-95247600D01*
X143615400Y-95247600D01*
X143615400Y-95797600D01*
X144525194Y-95797600D01*
X144549457Y-95771352D01*
X144609418Y-95735485D01*
X144679252Y-95737729D01*
X144718912Y-95762130D01*
X144719869Y-95760898D01*
X144726032Y-95765678D01*
X144726035Y-95765681D01*
X144867502Y-95849344D01*
X144909124Y-95861436D01*
X145025326Y-95895197D01*
X145025329Y-95895197D01*
X145025331Y-95895198D01*
X145062206Y-95898100D01*
X145062214Y-95898100D01*
X146218586Y-95898100D01*
X146218594Y-95898100D01*
X146255469Y-95895198D01*
X146255471Y-95895197D01*
X146255473Y-95895197D01*
X146297091Y-95883105D01*
X146413298Y-95849344D01*
X146554765Y-95765681D01*
X146670981Y-95649465D01*
X146754644Y-95507998D01*
X146800498Y-95350169D01*
X146803400Y-95313294D01*
X146803400Y-94881906D01*
X146800498Y-94845031D01*
X146791971Y-94815682D01*
X146758206Y-94699462D01*
X146754644Y-94687202D01*
X146670981Y-94545735D01*
X146670979Y-94545733D01*
X146670976Y-94545729D01*
X146639066Y-94513819D01*
X146605581Y-94452496D01*
X146610565Y-94382804D01*
X146639066Y-94338457D01*
X147860623Y-93116900D01*
X149198821Y-91778701D01*
X149260142Y-91745218D01*
X149329834Y-91750202D01*
X149385767Y-91792074D01*
X149410184Y-91857538D01*
X149410500Y-91866384D01*
X149410501Y-92194008D01*
X149410653Y-92197001D01*
X149394399Y-92264954D01*
X149374495Y-92290979D01*
X149265753Y-92399723D01*
X149265753Y-92399724D01*
X149194722Y-92470754D01*
X149144499Y-92557745D01*
X149144499Y-92557746D01*
X149118500Y-92654775D01*
X149118500Y-92654777D01*
X149118500Y-93775619D01*
X149098815Y-93842658D01*
X149046011Y-93888413D01*
X149003103Y-93898901D01*
X149003132Y-93899180D01*
X149001127Y-93899384D01*
X149000832Y-93899457D01*
X149000007Y-93899499D01*
X148897202Y-93910001D01*
X148897200Y-93910001D01*
X148730668Y-93965185D01*
X148730663Y-93965187D01*
X148581342Y-94057289D01*
X148457289Y-94181342D01*
X148365187Y-94330663D01*
X148365185Y-94330668D01*
X148354374Y-94363294D01*
X148310001Y-94497203D01*
X148310001Y-94497204D01*
X148310000Y-94497204D01*
X148299500Y-94599983D01*
X148299500Y-94609615D01*
X148279815Y-94676654D01*
X148263181Y-94697296D01*
X145878296Y-97082181D01*
X145816973Y-97115666D01*
X145790615Y-97118500D01*
X142449775Y-97118500D01*
X142377003Y-97137999D01*
X142352745Y-97144499D01*
X142265754Y-97194723D01*
X142265751Y-97194725D01*
X142194722Y-97265755D01*
X138748312Y-100712164D01*
X138748311Y-100712164D01*
X138748312Y-100712165D01*
X138694722Y-100765754D01*
X138644499Y-100852745D01*
X138640704Y-100866908D01*
X138618500Y-100949775D01*
X138618500Y-100949777D01*
X138618500Y-108790615D01*
X138598815Y-108857654D01*
X138582181Y-108878296D01*
X136878296Y-110582181D01*
X136816973Y-110615666D01*
X136790615Y-110618500D01*
X130709384Y-110618500D01*
X130642345Y-110598815D01*
X130621703Y-110582181D01*
X128433819Y-108394296D01*
X128400334Y-108332973D01*
X128397500Y-108306615D01*
X128397500Y-107983470D01*
X129146500Y-107983470D01*
X129146501Y-107983476D01*
X129152908Y-108043083D01*
X129203202Y-108177928D01*
X129203206Y-108177935D01*
X129289452Y-108293144D01*
X129289455Y-108293147D01*
X129404664Y-108379393D01*
X129404671Y-108379397D01*
X129539517Y-108429691D01*
X129539516Y-108429691D01*
X129546444Y-108430435D01*
X129599127Y-108436100D01*
X131194872Y-108436099D01*
X131254483Y-108429691D01*
X131389331Y-108379396D01*
X131504546Y-108293146D01*
X131590796Y-108177931D01*
X131641091Y-108043083D01*
X131647500Y-107983473D01*
X131647500Y-107983470D01*
X135846500Y-107983470D01*
X135846501Y-107983476D01*
X135852908Y-108043083D01*
X135903202Y-108177928D01*
X135903206Y-108177935D01*
X135989452Y-108293144D01*
X135989455Y-108293147D01*
X136104664Y-108379393D01*
X136104671Y-108379397D01*
X136239517Y-108429691D01*
X136239516Y-108429691D01*
X136246444Y-108430435D01*
X136299127Y-108436100D01*
X137894872Y-108436099D01*
X137954483Y-108429691D01*
X138089331Y-108379396D01*
X138204546Y-108293146D01*
X138290796Y-108177931D01*
X138341091Y-108043083D01*
X138347500Y-107983473D01*
X138347499Y-104487728D01*
X138341091Y-104428117D01*
X138290796Y-104293269D01*
X138290795Y-104293268D01*
X138290793Y-104293264D01*
X138204547Y-104178055D01*
X138204544Y-104178052D01*
X138089335Y-104091806D01*
X138089328Y-104091802D01*
X137954482Y-104041508D01*
X137954483Y-104041508D01*
X137894883Y-104035101D01*
X137894881Y-104035100D01*
X137894873Y-104035100D01*
X137894864Y-104035100D01*
X136299129Y-104035100D01*
X136299123Y-104035101D01*
X136239516Y-104041508D01*
X136104671Y-104091802D01*
X136104664Y-104091806D01*
X135989455Y-104178052D01*
X135989452Y-104178055D01*
X135903206Y-104293264D01*
X135903202Y-104293271D01*
X135852908Y-104428117D01*
X135846501Y-104487716D01*
X135846501Y-104487723D01*
X135846500Y-104487735D01*
X135846500Y-107983470D01*
X131647500Y-107983470D01*
X131647499Y-104487728D01*
X131641091Y-104428117D01*
X131590796Y-104293269D01*
X131590795Y-104293268D01*
X131590793Y-104293264D01*
X131504547Y-104178055D01*
X131504544Y-104178052D01*
X131389335Y-104091806D01*
X131389328Y-104091802D01*
X131254482Y-104041508D01*
X131254483Y-104041508D01*
X131194883Y-104035101D01*
X131194881Y-104035100D01*
X131194873Y-104035100D01*
X131194864Y-104035100D01*
X129599129Y-104035100D01*
X129599123Y-104035101D01*
X129539516Y-104041508D01*
X129404671Y-104091802D01*
X129404664Y-104091806D01*
X129289455Y-104178052D01*
X129289452Y-104178055D01*
X129203206Y-104293264D01*
X129203202Y-104293271D01*
X129152908Y-104428117D01*
X129146501Y-104487716D01*
X129146501Y-104487723D01*
X129146500Y-104487735D01*
X129146500Y-107983470D01*
X128397500Y-107983470D01*
X128397500Y-101809384D01*
X128417185Y-101742345D01*
X128433819Y-101721703D01*
X129610903Y-100544619D01*
X129672226Y-100511134D01*
X129698584Y-100508300D01*
X131394775Y-100508300D01*
X131495225Y-100508300D01*
X131622500Y-100508300D01*
X131689539Y-100527985D01*
X131735294Y-100580789D01*
X131746500Y-100632300D01*
X131746500Y-102483470D01*
X131746501Y-102483476D01*
X131752908Y-102543083D01*
X131803202Y-102677928D01*
X131803206Y-102677935D01*
X131889452Y-102793144D01*
X131889455Y-102793147D01*
X132004664Y-102879393D01*
X132004671Y-102879397D01*
X132139517Y-102929691D01*
X132139516Y-102929691D01*
X132146444Y-102930435D01*
X132199127Y-102936100D01*
X133294872Y-102936099D01*
X133354483Y-102929691D01*
X133489331Y-102879396D01*
X133604546Y-102793146D01*
X133648046Y-102735036D01*
X133703979Y-102693167D01*
X133773671Y-102688183D01*
X133834994Y-102721668D01*
X133846578Y-102735038D01*
X133889809Y-102792787D01*
X133889812Y-102792790D01*
X134004906Y-102878950D01*
X134004913Y-102878954D01*
X134139620Y-102929196D01*
X134139627Y-102929198D01*
X134199155Y-102935599D01*
X134199172Y-102935600D01*
X134497000Y-102935600D01*
X134497000Y-100935600D01*
X134997000Y-100935600D01*
X134997000Y-102935600D01*
X135294828Y-102935600D01*
X135294844Y-102935599D01*
X135354372Y-102929198D01*
X135354379Y-102929196D01*
X135489086Y-102878954D01*
X135489093Y-102878950D01*
X135604187Y-102792790D01*
X135604190Y-102792787D01*
X135690350Y-102677693D01*
X135690354Y-102677686D01*
X135740596Y-102542979D01*
X135740598Y-102542972D01*
X135746999Y-102483444D01*
X135747000Y-102483427D01*
X135747000Y-100935600D01*
X134997000Y-100935600D01*
X134497000Y-100935600D01*
X134497000Y-98435600D01*
X134997000Y-98435600D01*
X134997000Y-100435600D01*
X135747000Y-100435600D01*
X135747000Y-98887772D01*
X135746999Y-98887755D01*
X135740598Y-98828227D01*
X135740596Y-98828220D01*
X135690354Y-98693513D01*
X135690350Y-98693506D01*
X135604190Y-98578412D01*
X135604187Y-98578409D01*
X135489093Y-98492249D01*
X135489086Y-98492245D01*
X135354379Y-98442003D01*
X135354372Y-98442001D01*
X135294844Y-98435600D01*
X134997000Y-98435600D01*
X134497000Y-98435600D01*
X134199155Y-98435600D01*
X134139627Y-98442001D01*
X134139620Y-98442003D01*
X134004913Y-98492245D01*
X134004906Y-98492249D01*
X133889812Y-98578409D01*
X133846578Y-98636162D01*
X133790644Y-98678032D01*
X133720952Y-98683016D01*
X133659629Y-98649530D01*
X133648046Y-98636162D01*
X133604814Y-98578412D01*
X133604546Y-98578054D01*
X133604544Y-98578053D01*
X133604544Y-98578052D01*
X133489335Y-98491806D01*
X133489328Y-98491802D01*
X133354482Y-98441508D01*
X133354483Y-98441508D01*
X133294883Y-98435101D01*
X133294881Y-98435100D01*
X133294873Y-98435100D01*
X133294864Y-98435100D01*
X132199129Y-98435100D01*
X132199123Y-98435101D01*
X132139516Y-98441508D01*
X132004671Y-98491802D01*
X132004664Y-98491806D01*
X131889455Y-98578052D01*
X131889452Y-98578055D01*
X131803206Y-98693264D01*
X131803202Y-98693271D01*
X131752908Y-98828117D01*
X131746501Y-98887716D01*
X131746500Y-98887735D01*
X131746500Y-99396913D01*
X131726815Y-99463952D01*
X131674011Y-99509707D01*
X131604853Y-99519651D01*
X131541297Y-99490626D01*
X131534819Y-99484594D01*
X128885425Y-96835200D01*
X128851940Y-96773877D01*
X128849816Y-96734269D01*
X128854052Y-96694873D01*
X128854051Y-96040328D01*
X128847643Y-95980717D01*
X128845004Y-95973642D01*
X128797349Y-95845871D01*
X128797345Y-95845864D01*
X128711099Y-95730655D01*
X128711096Y-95730652D01*
X128595887Y-95644406D01*
X128595880Y-95644402D01*
X128461034Y-95594108D01*
X128461035Y-95594108D01*
X128401435Y-95587701D01*
X128401433Y-95587700D01*
X128401425Y-95587700D01*
X128401417Y-95587700D01*
X128383802Y-95587700D01*
X128316763Y-95568015D01*
X128271008Y-95515211D01*
X128259802Y-95463700D01*
X128259802Y-93571501D01*
X128279487Y-93504462D01*
X128332291Y-93458707D01*
X128383802Y-93447501D01*
X128401423Y-93447501D01*
X128401424Y-93447501D01*
X128461035Y-93441093D01*
X128595883Y-93390798D01*
X128711098Y-93304548D01*
X128797348Y-93189333D01*
X128847643Y-93054485D01*
X128854052Y-92994875D01*
X128854051Y-92340330D01*
X128847643Y-92280719D01*
X128831908Y-92238532D01*
X128797349Y-92145873D01*
X128797345Y-92145866D01*
X128711099Y-92030657D01*
X128711096Y-92030654D01*
X128595887Y-91944408D01*
X128595880Y-91944404D01*
X128461034Y-91894110D01*
X128461035Y-91894110D01*
X128401435Y-91887703D01*
X128401433Y-91887702D01*
X128401425Y-91887702D01*
X128401416Y-91887702D01*
X127355181Y-91887702D01*
X127355175Y-91887703D01*
X127295568Y-91894110D01*
X127160723Y-91944404D01*
X127160716Y-91944408D01*
X127045507Y-92030654D01*
X127045504Y-92030657D01*
X126959258Y-92145866D01*
X126959254Y-92145873D01*
X126911753Y-92273233D01*
X126908961Y-92280719D01*
X126902552Y-92340329D01*
X126902552Y-92340336D01*
X126902552Y-92340337D01*
X126902552Y-92994872D01*
X126902553Y-92994878D01*
X126908960Y-93054485D01*
X126959254Y-93189330D01*
X126959258Y-93189337D01*
X127045504Y-93304546D01*
X127045507Y-93304549D01*
X127160716Y-93390795D01*
X127160723Y-93390799D01*
X127174282Y-93395856D01*
X127295569Y-93441093D01*
X127355179Y-93447502D01*
X127372798Y-93447501D01*
X127439836Y-93467182D01*
X127485594Y-93519984D01*
X127496802Y-93571501D01*
X127496802Y-95463700D01*
X127477117Y-95530739D01*
X127424313Y-95576494D01*
X127372808Y-95587700D01*
X127355184Y-95587700D01*
X127355175Y-95587701D01*
X127295568Y-95594108D01*
X127160723Y-95644402D01*
X127160716Y-95644406D01*
X127045507Y-95730652D01*
X127045504Y-95730655D01*
X126959258Y-95845864D01*
X126959254Y-95845871D01*
X126908962Y-95980713D01*
X126908961Y-95980717D01*
X126902552Y-96040327D01*
X126902552Y-96040335D01*
X126902552Y-96040336D01*
X126902552Y-96694870D01*
X120218200Y-96694870D01*
X120218200Y-83118004D01*
X123699500Y-83118004D01*
X123699501Y-83118020D01*
X123730306Y-83352010D01*
X123791394Y-83579993D01*
X123881714Y-83798045D01*
X123881719Y-83798056D01*
X123952677Y-83920957D01*
X123999727Y-84002450D01*
X123999729Y-84002453D01*
X123999730Y-84002454D01*
X124143406Y-84189697D01*
X124143412Y-84189704D01*
X124310295Y-84356587D01*
X124310301Y-84356592D01*
X124497550Y-84500273D01*
X124628918Y-84576118D01*
X124701943Y-84618280D01*
X124701948Y-84618282D01*
X124701951Y-84618284D01*
X124920007Y-84708606D01*
X125147986Y-84769693D01*
X125381989Y-84800500D01*
X125381996Y-84800500D01*
X125618004Y-84800500D01*
X125618011Y-84800500D01*
X125852014Y-84769693D01*
X126079993Y-84708606D01*
X126298049Y-84618284D01*
X126502450Y-84500273D01*
X126689699Y-84356592D01*
X126856592Y-84189699D01*
X127000273Y-84002450D01*
X127118284Y-83798049D01*
X127208606Y-83579993D01*
X127269693Y-83352014D01*
X127300500Y-83118011D01*
X127300500Y-83118004D01*
X154699500Y-83118004D01*
X154699501Y-83118020D01*
X154730306Y-83352010D01*
X154791394Y-83579993D01*
X154881714Y-83798045D01*
X154881719Y-83798056D01*
X154952677Y-83920957D01*
X154999727Y-84002450D01*
X154999729Y-84002453D01*
X154999730Y-84002454D01*
X155143406Y-84189697D01*
X155143412Y-84189704D01*
X155310295Y-84356587D01*
X155310301Y-84356592D01*
X155497550Y-84500273D01*
X155628918Y-84576118D01*
X155701943Y-84618280D01*
X155701948Y-84618282D01*
X155701951Y-84618284D01*
X155920007Y-84708606D01*
X156147986Y-84769693D01*
X156381989Y-84800500D01*
X156381996Y-84800500D01*
X156618004Y-84800500D01*
X156618011Y-84800500D01*
X156852014Y-84769693D01*
X157079993Y-84708606D01*
X157298049Y-84618284D01*
X157502450Y-84500273D01*
X157689699Y-84356592D01*
X157856592Y-84189699D01*
X158000273Y-84002450D01*
X158118284Y-83798049D01*
X158208606Y-83579993D01*
X158269693Y-83352014D01*
X158300500Y-83118011D01*
X158300500Y-82881989D01*
X158269693Y-82647986D01*
X158208606Y-82420007D01*
X158118284Y-82201951D01*
X158118282Y-82201948D01*
X158118280Y-82201943D01*
X158076118Y-82128918D01*
X158000273Y-81997550D01*
X157856592Y-81810301D01*
X157856587Y-81810295D01*
X157689704Y-81643412D01*
X157689697Y-81643406D01*
X157502454Y-81499730D01*
X157502453Y-81499729D01*
X157502450Y-81499727D01*
X157420957Y-81452677D01*
X157298056Y-81381719D01*
X157298045Y-81381714D01*
X157079993Y-81291394D01*
X156852010Y-81230306D01*
X156618020Y-81199501D01*
X156618017Y-81199500D01*
X156618011Y-81199500D01*
X156381989Y-81199500D01*
X156381983Y-81199500D01*
X156381979Y-81199501D01*
X156147989Y-81230306D01*
X155920006Y-81291394D01*
X155701954Y-81381714D01*
X155701943Y-81381719D01*
X155497545Y-81499730D01*
X155310302Y-81643406D01*
X155310295Y-81643412D01*
X155143412Y-81810295D01*
X155143406Y-81810302D01*
X154999730Y-81997545D01*
X154881719Y-82201943D01*
X154881714Y-82201954D01*
X154791394Y-82420006D01*
X154730306Y-82647989D01*
X154699501Y-82881979D01*
X154699500Y-82881995D01*
X154699500Y-83118004D01*
X127300500Y-83118004D01*
X127300500Y-82881989D01*
X127269693Y-82647986D01*
X127208606Y-82420007D01*
X127118284Y-82201951D01*
X127118282Y-82201948D01*
X127118280Y-82201943D01*
X127076118Y-82128918D01*
X127000273Y-81997550D01*
X126856592Y-81810301D01*
X126856587Y-81810295D01*
X126689704Y-81643412D01*
X126689697Y-81643406D01*
X126502454Y-81499730D01*
X126502453Y-81499729D01*
X126502450Y-81499727D01*
X126420957Y-81452677D01*
X126298056Y-81381719D01*
X126298045Y-81381714D01*
X126079993Y-81291394D01*
X125852010Y-81230306D01*
X125618020Y-81199501D01*
X125618017Y-81199500D01*
X125618011Y-81199500D01*
X125381989Y-81199500D01*
X125381983Y-81199500D01*
X125381979Y-81199501D01*
X125147989Y-81230306D01*
X124920006Y-81291394D01*
X124701954Y-81381714D01*
X124701943Y-81381719D01*
X124497545Y-81499730D01*
X124310302Y-81643406D01*
X124310295Y-81643412D01*
X124143412Y-81810295D01*
X124143406Y-81810302D01*
X123999730Y-81997545D01*
X123881719Y-82201943D01*
X123881714Y-82201954D01*
X123791394Y-82420006D01*
X123730306Y-82647989D01*
X123699501Y-82881979D01*
X123699500Y-82881995D01*
X123699500Y-83118004D01*
X120218200Y-83118004D01*
X120218200Y-78813200D01*
X120237885Y-78746161D01*
X120290689Y-78700406D01*
X120342200Y-78689200D01*
X161572400Y-78689200D01*
X161639439Y-78708885D01*
G37*
G04 #@! TD.AperFunction*
G04 #@! TD*
M02*
