G04 #@! TF.GenerationSoftware,KiCad,Pcbnew,8.0.0*
G04 #@! TF.CreationDate,2024-03-04T18:12:50-06:00*
G04 #@! TF.ProjectId,MicrocontrollerTestBoard,4d696372-6f63-46f6-9e74-726f6c6c6572,rev?*
G04 #@! TF.SameCoordinates,Original*
G04 #@! TF.FileFunction,Copper,L2,Bot*
G04 #@! TF.FilePolarity,Positive*
%FSLAX46Y46*%
G04 Gerber Fmt 4.6, Leading zero omitted, Abs format (unit mm)*
G04 Created by KiCad (PCBNEW 8.0.0) date 2024-03-04 18:12:50*
%MOMM*%
%LPD*%
G01*
G04 APERTURE LIST*
G04 #@! TA.AperFunction,ComponentPad*
%ADD10R,1.370000X1.370000*%
G04 #@! TD*
G04 #@! TA.AperFunction,ComponentPad*
%ADD11C,1.370000*%
G04 #@! TD*
G04 #@! TA.AperFunction,ViaPad*
%ADD12C,0.610000*%
G04 #@! TD*
G04 #@! TA.AperFunction,Conductor*
%ADD13C,0.508000*%
G04 #@! TD*
G04 APERTURE END LIST*
D10*
X137989000Y-111247000D03*
D11*
X140529000Y-111247000D03*
X143069000Y-111247000D03*
X145609000Y-111247000D03*
X148149000Y-111247000D03*
X150689000Y-111247000D03*
X153229000Y-111247000D03*
X155769000Y-111247000D03*
X158309000Y-111247000D03*
X160849000Y-111247000D03*
X163389000Y-111247000D03*
X165929000Y-111247000D03*
D10*
X178562000Y-74803000D03*
D11*
X178562000Y-77343000D03*
X178562000Y-79883000D03*
X178562000Y-82423000D03*
X178562000Y-84963000D03*
X178562000Y-87503000D03*
X178562000Y-90043000D03*
X178562000Y-92583000D03*
X178562000Y-95123000D03*
X178562000Y-97663000D03*
X178562000Y-100203000D03*
X178562000Y-102743000D03*
X178562000Y-105283000D03*
X178562000Y-107823000D03*
D10*
X124587000Y-74803000D03*
D11*
X124587000Y-77343000D03*
X124587000Y-79883000D03*
X124587000Y-82423000D03*
X124587000Y-84963000D03*
X124587000Y-87503000D03*
X124587000Y-90043000D03*
X124587000Y-92583000D03*
X124587000Y-95123000D03*
X124587000Y-97663000D03*
X124587000Y-100203000D03*
X124587000Y-102743000D03*
X124587000Y-105283000D03*
X124587000Y-107823000D03*
D12*
X169799000Y-74803000D03*
X137541000Y-100838000D03*
X164338000Y-100838000D03*
X134493000Y-74803000D03*
D13*
X137541000Y-100838000D02*
X164338000Y-100838000D01*
X164338000Y-80264000D02*
X169799000Y-74803000D01*
X164338000Y-100838000D02*
X164338000Y-80264000D01*
X137541000Y-100838000D02*
X137541000Y-77851000D01*
X137541000Y-77851000D02*
X134493000Y-74803000D01*
G04 #@! TA.AperFunction,Conductor*
G36*
X179394039Y-73302685D02*
G01*
X179439794Y-73355489D01*
X179451000Y-73407000D01*
X179451000Y-73496744D01*
X179431315Y-73563783D01*
X179378511Y-73609538D01*
X179313744Y-73620033D01*
X179294844Y-73618000D01*
X178812000Y-73618000D01*
X178812000Y-74358439D01*
X178758853Y-74327755D01*
X178629143Y-74293000D01*
X178494857Y-74293000D01*
X178365147Y-74327755D01*
X178312000Y-74358439D01*
X178312000Y-73618000D01*
X177829155Y-73618000D01*
X177769627Y-73624401D01*
X177769620Y-73624403D01*
X177634913Y-73674645D01*
X177634906Y-73674649D01*
X177519812Y-73760809D01*
X177519809Y-73760812D01*
X177433649Y-73875906D01*
X177433645Y-73875913D01*
X177383403Y-74010620D01*
X177383401Y-74010627D01*
X177377000Y-74070155D01*
X177377000Y-74553000D01*
X178117440Y-74553000D01*
X178086755Y-74606147D01*
X178052000Y-74735857D01*
X178052000Y-74870143D01*
X178086755Y-74999853D01*
X178117440Y-75053000D01*
X177377000Y-75053000D01*
X177377000Y-75535844D01*
X177383401Y-75595372D01*
X177383403Y-75595379D01*
X177433645Y-75730086D01*
X177433649Y-75730093D01*
X177519809Y-75845187D01*
X177519812Y-75845190D01*
X177634906Y-75931350D01*
X177634913Y-75931354D01*
X177769620Y-75981596D01*
X177769627Y-75981598D01*
X177829155Y-75987999D01*
X177829172Y-75988000D01*
X178114579Y-75988000D01*
X178181618Y-76007685D01*
X178227373Y-76060489D01*
X178237317Y-76129647D01*
X178208292Y-76193203D01*
X178159373Y-76227627D01*
X178031314Y-76277236D01*
X178031312Y-76277237D01*
X177844514Y-76392898D01*
X177682153Y-76540909D01*
X177549749Y-76716240D01*
X177451819Y-76912909D01*
X177391692Y-77124236D01*
X177371421Y-77342999D01*
X177371421Y-77343000D01*
X177391692Y-77561763D01*
X177451819Y-77773090D01*
X177549749Y-77969759D01*
X177682153Y-78145090D01*
X177821830Y-78272422D01*
X177844516Y-78293103D01*
X178031313Y-78408763D01*
X178236183Y-78488129D01*
X178252141Y-78491112D01*
X178314419Y-78522780D01*
X178349692Y-78583092D01*
X178346758Y-78652900D01*
X178306549Y-78710040D01*
X178252141Y-78734887D01*
X178236183Y-78737871D01*
X178236181Y-78737871D01*
X178236179Y-78737872D01*
X178031314Y-78817236D01*
X178031312Y-78817237D01*
X177844514Y-78932898D01*
X177682153Y-79080909D01*
X177549749Y-79256240D01*
X177451819Y-79452909D01*
X177391692Y-79664236D01*
X177371421Y-79882999D01*
X177371421Y-79883000D01*
X177391692Y-80101763D01*
X177451819Y-80313090D01*
X177549749Y-80509759D01*
X177682153Y-80685090D01*
X177821830Y-80812422D01*
X177844516Y-80833103D01*
X178031313Y-80948763D01*
X178236183Y-81028129D01*
X178252141Y-81031112D01*
X178314419Y-81062780D01*
X178349692Y-81123092D01*
X178346758Y-81192900D01*
X178306549Y-81250040D01*
X178252141Y-81274887D01*
X178236183Y-81277871D01*
X178236181Y-81277871D01*
X178236179Y-81277872D01*
X178031314Y-81357236D01*
X178031312Y-81357237D01*
X177844514Y-81472898D01*
X177682153Y-81620909D01*
X177549749Y-81796240D01*
X177451819Y-81992909D01*
X177391692Y-82204236D01*
X177371421Y-82422999D01*
X177371421Y-82423000D01*
X177391692Y-82641763D01*
X177451819Y-82853090D01*
X177549749Y-83049759D01*
X177682153Y-83225090D01*
X177821830Y-83352422D01*
X177844516Y-83373103D01*
X178031313Y-83488763D01*
X178236183Y-83568129D01*
X178252141Y-83571112D01*
X178314419Y-83602780D01*
X178349692Y-83663092D01*
X178346758Y-83732900D01*
X178306549Y-83790040D01*
X178252141Y-83814887D01*
X178236183Y-83817871D01*
X178236181Y-83817871D01*
X178236179Y-83817872D01*
X178031314Y-83897236D01*
X178031312Y-83897237D01*
X177844514Y-84012898D01*
X177682153Y-84160909D01*
X177549749Y-84336240D01*
X177451819Y-84532909D01*
X177391692Y-84744236D01*
X177371421Y-84962999D01*
X177371421Y-84963000D01*
X177391692Y-85181763D01*
X177451819Y-85393090D01*
X177549749Y-85589759D01*
X177682153Y-85765090D01*
X177821830Y-85892422D01*
X177844516Y-85913103D01*
X178031313Y-86028763D01*
X178236183Y-86108129D01*
X178252141Y-86111112D01*
X178314419Y-86142780D01*
X178349692Y-86203092D01*
X178346758Y-86272900D01*
X178306549Y-86330040D01*
X178252141Y-86354887D01*
X178236183Y-86357871D01*
X178236181Y-86357871D01*
X178236179Y-86357872D01*
X178031314Y-86437236D01*
X178031312Y-86437237D01*
X177844514Y-86552898D01*
X177682153Y-86700909D01*
X177549749Y-86876240D01*
X177451819Y-87072909D01*
X177391692Y-87284236D01*
X177371421Y-87502999D01*
X177371421Y-87503000D01*
X177391692Y-87721763D01*
X177451819Y-87933090D01*
X177549749Y-88129759D01*
X177682153Y-88305090D01*
X177821830Y-88432422D01*
X177844516Y-88453103D01*
X178031313Y-88568763D01*
X178236183Y-88648129D01*
X178252141Y-88651112D01*
X178314419Y-88682780D01*
X178349692Y-88743092D01*
X178346758Y-88812900D01*
X178306549Y-88870040D01*
X178252141Y-88894887D01*
X178236183Y-88897871D01*
X178236181Y-88897871D01*
X178236179Y-88897872D01*
X178031314Y-88977236D01*
X178031312Y-88977237D01*
X177844514Y-89092898D01*
X177682153Y-89240909D01*
X177549749Y-89416240D01*
X177451819Y-89612909D01*
X177391692Y-89824236D01*
X177371421Y-90042999D01*
X177371421Y-90043000D01*
X177391692Y-90261763D01*
X177451819Y-90473090D01*
X177549749Y-90669759D01*
X177682153Y-90845090D01*
X177821830Y-90972422D01*
X177844516Y-90993103D01*
X178031313Y-91108763D01*
X178236183Y-91188129D01*
X178252141Y-91191112D01*
X178314419Y-91222780D01*
X178349692Y-91283092D01*
X178346758Y-91352900D01*
X178306549Y-91410040D01*
X178252141Y-91434887D01*
X178236183Y-91437871D01*
X178236181Y-91437871D01*
X178236179Y-91437872D01*
X178031314Y-91517236D01*
X178031312Y-91517237D01*
X177844514Y-91632898D01*
X177682153Y-91780909D01*
X177549749Y-91956240D01*
X177451819Y-92152909D01*
X177391692Y-92364236D01*
X177371421Y-92582999D01*
X177371421Y-92583000D01*
X177391692Y-92801763D01*
X177451819Y-93013090D01*
X177549749Y-93209759D01*
X177682153Y-93385090D01*
X177821830Y-93512422D01*
X177844516Y-93533103D01*
X178031313Y-93648763D01*
X178236183Y-93728129D01*
X178252141Y-93731112D01*
X178314419Y-93762780D01*
X178349692Y-93823092D01*
X178346758Y-93892900D01*
X178306549Y-93950040D01*
X178252141Y-93974887D01*
X178236183Y-93977871D01*
X178236181Y-93977871D01*
X178236179Y-93977872D01*
X178031314Y-94057236D01*
X178031312Y-94057237D01*
X177844514Y-94172898D01*
X177682153Y-94320909D01*
X177549749Y-94496240D01*
X177451819Y-94692909D01*
X177391692Y-94904236D01*
X177371421Y-95122999D01*
X177371421Y-95123000D01*
X177391692Y-95341763D01*
X177451819Y-95553090D01*
X177549749Y-95749759D01*
X177682153Y-95925090D01*
X177821830Y-96052422D01*
X177844516Y-96073103D01*
X178031313Y-96188763D01*
X178236183Y-96268129D01*
X178252141Y-96271112D01*
X178314419Y-96302780D01*
X178349692Y-96363092D01*
X178346758Y-96432900D01*
X178306549Y-96490040D01*
X178252141Y-96514887D01*
X178236183Y-96517871D01*
X178236181Y-96517871D01*
X178236179Y-96517872D01*
X178031314Y-96597236D01*
X178031312Y-96597237D01*
X177844514Y-96712898D01*
X177682153Y-96860909D01*
X177549749Y-97036240D01*
X177451819Y-97232909D01*
X177391692Y-97444236D01*
X177371421Y-97662999D01*
X177371421Y-97663000D01*
X177391692Y-97881763D01*
X177451819Y-98093090D01*
X177549749Y-98289759D01*
X177682153Y-98465090D01*
X177821830Y-98592422D01*
X177844516Y-98613103D01*
X178031313Y-98728763D01*
X178236183Y-98808129D01*
X178252141Y-98811112D01*
X178314419Y-98842780D01*
X178349692Y-98903092D01*
X178346758Y-98972900D01*
X178306549Y-99030040D01*
X178252141Y-99054887D01*
X178236183Y-99057871D01*
X178236181Y-99057871D01*
X178236179Y-99057872D01*
X178031314Y-99137236D01*
X178031312Y-99137237D01*
X177844514Y-99252898D01*
X177682153Y-99400909D01*
X177549749Y-99576240D01*
X177451819Y-99772909D01*
X177391692Y-99984236D01*
X177371421Y-100202999D01*
X177371421Y-100203000D01*
X177391692Y-100421763D01*
X177451819Y-100633090D01*
X177549749Y-100829759D01*
X177682153Y-101005090D01*
X177821830Y-101132422D01*
X177844516Y-101153103D01*
X178031313Y-101268763D01*
X178236183Y-101348129D01*
X178252141Y-101351112D01*
X178314419Y-101382780D01*
X178349692Y-101443092D01*
X178346758Y-101512900D01*
X178306549Y-101570040D01*
X178252141Y-101594887D01*
X178236183Y-101597871D01*
X178236181Y-101597871D01*
X178236179Y-101597872D01*
X178031314Y-101677236D01*
X178031312Y-101677237D01*
X177844514Y-101792898D01*
X177682153Y-101940909D01*
X177549749Y-102116240D01*
X177451819Y-102312909D01*
X177391692Y-102524236D01*
X177371421Y-102742999D01*
X177371421Y-102743000D01*
X177391692Y-102961763D01*
X177451819Y-103173090D01*
X177549749Y-103369759D01*
X177682153Y-103545090D01*
X177821830Y-103672422D01*
X177844516Y-103693103D01*
X178031313Y-103808763D01*
X178236183Y-103888129D01*
X178252141Y-103891112D01*
X178314419Y-103922780D01*
X178349692Y-103983092D01*
X178346758Y-104052900D01*
X178306549Y-104110040D01*
X178252141Y-104134887D01*
X178236183Y-104137871D01*
X178236181Y-104137871D01*
X178236179Y-104137872D01*
X178031314Y-104217236D01*
X178031312Y-104217237D01*
X177844514Y-104332898D01*
X177682153Y-104480909D01*
X177549749Y-104656240D01*
X177451819Y-104852909D01*
X177391692Y-105064236D01*
X177371421Y-105282999D01*
X177371421Y-105283000D01*
X177391692Y-105501763D01*
X177451819Y-105713090D01*
X177549749Y-105909759D01*
X177682153Y-106085090D01*
X177821830Y-106212422D01*
X177844516Y-106233103D01*
X178031313Y-106348763D01*
X178236183Y-106428129D01*
X178253493Y-106431365D01*
X178315774Y-106463030D01*
X178351049Y-106523341D01*
X178348118Y-106593149D01*
X178307910Y-106650290D01*
X178253501Y-106675141D01*
X178236325Y-106678352D01*
X178236321Y-106678353D01*
X178031540Y-106757685D01*
X177919567Y-106827014D01*
X178424424Y-107331871D01*
X178365147Y-107347755D01*
X178248853Y-107414898D01*
X178153898Y-107509853D01*
X178086755Y-107626147D01*
X178070871Y-107685425D01*
X177563847Y-107178401D01*
X177563846Y-107178401D01*
X177550176Y-107196503D01*
X177452290Y-107393084D01*
X177452284Y-107393099D01*
X177392186Y-107604322D01*
X177392185Y-107604324D01*
X177371923Y-107822999D01*
X177371923Y-107823000D01*
X177392185Y-108041675D01*
X177392186Y-108041677D01*
X177452284Y-108252900D01*
X177452290Y-108252915D01*
X177550172Y-108449489D01*
X177550177Y-108449497D01*
X177563846Y-108467597D01*
X177563847Y-108467598D01*
X178070871Y-107960574D01*
X178086755Y-108019853D01*
X178153898Y-108136147D01*
X178248853Y-108231102D01*
X178365147Y-108298245D01*
X178424423Y-108314127D01*
X177919567Y-108818984D01*
X177919568Y-108818985D01*
X178031533Y-108888311D01*
X178031539Y-108888314D01*
X178236321Y-108967646D01*
X178452197Y-109008000D01*
X178671803Y-109008000D01*
X178887677Y-108967646D01*
X178887678Y-108967646D01*
X179092460Y-108888314D01*
X179092466Y-108888311D01*
X179261723Y-108783512D01*
X179329083Y-108764957D01*
X179395783Y-108785765D01*
X179440644Y-108839330D01*
X179451000Y-108888939D01*
X179451000Y-112144000D01*
X179431315Y-112211039D01*
X179378511Y-112256794D01*
X179327000Y-112268000D01*
X166888794Y-112268000D01*
X166821755Y-112248315D01*
X166776000Y-112195511D01*
X166766056Y-112126353D01*
X166795081Y-112062797D01*
X166805251Y-112052366D01*
X166808848Y-112049088D01*
X166941251Y-111873759D01*
X167039182Y-111677087D01*
X167099307Y-111465768D01*
X167119579Y-111247000D01*
X167099307Y-111028232D01*
X167039182Y-110816913D01*
X166941251Y-110620241D01*
X166861109Y-110514116D01*
X166808846Y-110444909D01*
X166646485Y-110296898D01*
X166646484Y-110296897D01*
X166459687Y-110181237D01*
X166459685Y-110181236D01*
X166296978Y-110118204D01*
X166254817Y-110101871D01*
X166038853Y-110061500D01*
X165819147Y-110061500D01*
X165603183Y-110101871D01*
X165603180Y-110101871D01*
X165603180Y-110101872D01*
X165398314Y-110181236D01*
X165398312Y-110181237D01*
X165211514Y-110296898D01*
X165049153Y-110444909D01*
X164916749Y-110620240D01*
X164818819Y-110816909D01*
X164817299Y-110822251D01*
X164778265Y-110959439D01*
X164740987Y-111018531D01*
X164677678Y-111048089D01*
X164608438Y-111038727D01*
X164555252Y-110993418D01*
X164539734Y-110959441D01*
X164499182Y-110816913D01*
X164401251Y-110620241D01*
X164321109Y-110514116D01*
X164268846Y-110444909D01*
X164106485Y-110296898D01*
X164106484Y-110296897D01*
X163919687Y-110181237D01*
X163919685Y-110181236D01*
X163756978Y-110118204D01*
X163714817Y-110101871D01*
X163498853Y-110061500D01*
X163279147Y-110061500D01*
X163063183Y-110101871D01*
X163063180Y-110101871D01*
X163063180Y-110101872D01*
X162858314Y-110181236D01*
X162858312Y-110181237D01*
X162671514Y-110296898D01*
X162509153Y-110444909D01*
X162376749Y-110620240D01*
X162278819Y-110816909D01*
X162277299Y-110822251D01*
X162238265Y-110959439D01*
X162200987Y-111018531D01*
X162137678Y-111048089D01*
X162068438Y-111038727D01*
X162015252Y-110993418D01*
X161999734Y-110959441D01*
X161959182Y-110816913D01*
X161861251Y-110620241D01*
X161781109Y-110514116D01*
X161728846Y-110444909D01*
X161566485Y-110296898D01*
X161566484Y-110296897D01*
X161379687Y-110181237D01*
X161379685Y-110181236D01*
X161216978Y-110118204D01*
X161174817Y-110101871D01*
X160958853Y-110061500D01*
X160739147Y-110061500D01*
X160523183Y-110101871D01*
X160523180Y-110101871D01*
X160523180Y-110101872D01*
X160318314Y-110181236D01*
X160318312Y-110181237D01*
X160131514Y-110296898D01*
X159969153Y-110444909D01*
X159836749Y-110620240D01*
X159738819Y-110816909D01*
X159737299Y-110822251D01*
X159698265Y-110959439D01*
X159660987Y-111018531D01*
X159597678Y-111048089D01*
X159528438Y-111038727D01*
X159475252Y-110993418D01*
X159459734Y-110959441D01*
X159419182Y-110816913D01*
X159321251Y-110620241D01*
X159241109Y-110514116D01*
X159188846Y-110444909D01*
X159026485Y-110296898D01*
X159026484Y-110296897D01*
X158839687Y-110181237D01*
X158839685Y-110181236D01*
X158676978Y-110118204D01*
X158634817Y-110101871D01*
X158418853Y-110061500D01*
X158199147Y-110061500D01*
X157983183Y-110101871D01*
X157983180Y-110101871D01*
X157983180Y-110101872D01*
X157778314Y-110181236D01*
X157778312Y-110181237D01*
X157591514Y-110296898D01*
X157429153Y-110444909D01*
X157296749Y-110620240D01*
X157198819Y-110816909D01*
X157197299Y-110822251D01*
X157158265Y-110959439D01*
X157120987Y-111018531D01*
X157057678Y-111048089D01*
X156988438Y-111038727D01*
X156935252Y-110993418D01*
X156919734Y-110959441D01*
X156879182Y-110816913D01*
X156781251Y-110620241D01*
X156701109Y-110514116D01*
X156648846Y-110444909D01*
X156486485Y-110296898D01*
X156486484Y-110296897D01*
X156299687Y-110181237D01*
X156299685Y-110181236D01*
X156136978Y-110118204D01*
X156094817Y-110101871D01*
X155878853Y-110061500D01*
X155659147Y-110061500D01*
X155443183Y-110101871D01*
X155443180Y-110101871D01*
X155443180Y-110101872D01*
X155238314Y-110181236D01*
X155238312Y-110181237D01*
X155051514Y-110296898D01*
X154889153Y-110444909D01*
X154756749Y-110620240D01*
X154658819Y-110816909D01*
X154657299Y-110822251D01*
X154618265Y-110959439D01*
X154580987Y-111018531D01*
X154517678Y-111048089D01*
X154448438Y-111038727D01*
X154395252Y-110993418D01*
X154379734Y-110959441D01*
X154339182Y-110816913D01*
X154241251Y-110620241D01*
X154161109Y-110514116D01*
X154108846Y-110444909D01*
X153946485Y-110296898D01*
X153946484Y-110296897D01*
X153759687Y-110181237D01*
X153759685Y-110181236D01*
X153596978Y-110118204D01*
X153554817Y-110101871D01*
X153338853Y-110061500D01*
X153119147Y-110061500D01*
X152903183Y-110101871D01*
X152903180Y-110101871D01*
X152903180Y-110101872D01*
X152698314Y-110181236D01*
X152698312Y-110181237D01*
X152511514Y-110296898D01*
X152349153Y-110444909D01*
X152216749Y-110620240D01*
X152118819Y-110816909D01*
X152117299Y-110822251D01*
X152078265Y-110959439D01*
X152040987Y-111018531D01*
X151977678Y-111048089D01*
X151908438Y-111038727D01*
X151855252Y-110993418D01*
X151839734Y-110959441D01*
X151799182Y-110816913D01*
X151701251Y-110620241D01*
X151621109Y-110514116D01*
X151568846Y-110444909D01*
X151406485Y-110296898D01*
X151406484Y-110296897D01*
X151219687Y-110181237D01*
X151219685Y-110181236D01*
X151056978Y-110118204D01*
X151014817Y-110101871D01*
X150798853Y-110061500D01*
X150579147Y-110061500D01*
X150363183Y-110101871D01*
X150363180Y-110101871D01*
X150363180Y-110101872D01*
X150158314Y-110181236D01*
X150158312Y-110181237D01*
X149971514Y-110296898D01*
X149809153Y-110444909D01*
X149676749Y-110620240D01*
X149578819Y-110816909D01*
X149577299Y-110822251D01*
X149538265Y-110959439D01*
X149500987Y-111018531D01*
X149437678Y-111048089D01*
X149368438Y-111038727D01*
X149315252Y-110993418D01*
X149299734Y-110959441D01*
X149259182Y-110816913D01*
X149161251Y-110620241D01*
X149081109Y-110514116D01*
X149028846Y-110444909D01*
X148866485Y-110296898D01*
X148866484Y-110296897D01*
X148679687Y-110181237D01*
X148679685Y-110181236D01*
X148516978Y-110118204D01*
X148474817Y-110101871D01*
X148258853Y-110061500D01*
X148039147Y-110061500D01*
X147823183Y-110101871D01*
X147823180Y-110101871D01*
X147823180Y-110101872D01*
X147618314Y-110181236D01*
X147618312Y-110181237D01*
X147431514Y-110296898D01*
X147269153Y-110444909D01*
X147136749Y-110620240D01*
X147038819Y-110816909D01*
X147037299Y-110822251D01*
X146998265Y-110959439D01*
X146960987Y-111018531D01*
X146897678Y-111048089D01*
X146828438Y-111038727D01*
X146775252Y-110993418D01*
X146759734Y-110959441D01*
X146719182Y-110816913D01*
X146621251Y-110620241D01*
X146541109Y-110514116D01*
X146488846Y-110444909D01*
X146326485Y-110296898D01*
X146326484Y-110296897D01*
X146139687Y-110181237D01*
X146139685Y-110181236D01*
X145976978Y-110118204D01*
X145934817Y-110101871D01*
X145718853Y-110061500D01*
X145499147Y-110061500D01*
X145283183Y-110101871D01*
X145283180Y-110101871D01*
X145283180Y-110101872D01*
X145078314Y-110181236D01*
X145078312Y-110181237D01*
X144891514Y-110296898D01*
X144729153Y-110444909D01*
X144596749Y-110620240D01*
X144498819Y-110816909D01*
X144497299Y-110822251D01*
X144458265Y-110959439D01*
X144420987Y-111018531D01*
X144357678Y-111048089D01*
X144288438Y-111038727D01*
X144235252Y-110993418D01*
X144219734Y-110959441D01*
X144179182Y-110816913D01*
X144081251Y-110620241D01*
X144001109Y-110514116D01*
X143948846Y-110444909D01*
X143786485Y-110296898D01*
X143786484Y-110296897D01*
X143599687Y-110181237D01*
X143599685Y-110181236D01*
X143436978Y-110118204D01*
X143394817Y-110101871D01*
X143178853Y-110061500D01*
X142959147Y-110061500D01*
X142743183Y-110101871D01*
X142743180Y-110101871D01*
X142743180Y-110101872D01*
X142538314Y-110181236D01*
X142538312Y-110181237D01*
X142351514Y-110296898D01*
X142189153Y-110444909D01*
X142056749Y-110620240D01*
X141958819Y-110816909D01*
X141957299Y-110822251D01*
X141918265Y-110959439D01*
X141880987Y-111018531D01*
X141817678Y-111048089D01*
X141748438Y-111038727D01*
X141695252Y-110993418D01*
X141679734Y-110959441D01*
X141639182Y-110816913D01*
X141541251Y-110620241D01*
X141461109Y-110514116D01*
X141408846Y-110444909D01*
X141246485Y-110296898D01*
X141246484Y-110296897D01*
X141059687Y-110181237D01*
X141059685Y-110181236D01*
X140896978Y-110118204D01*
X140854817Y-110101871D01*
X140638853Y-110061500D01*
X140419147Y-110061500D01*
X140203183Y-110101871D01*
X140203180Y-110101871D01*
X140203180Y-110101872D01*
X139998314Y-110181236D01*
X139998312Y-110181237D01*
X139811514Y-110296898D01*
X139649153Y-110444909D01*
X139516749Y-110620240D01*
X139418818Y-110816911D01*
X139417765Y-110820613D01*
X139416778Y-110822176D01*
X139416747Y-110822258D01*
X139416731Y-110822251D01*
X139380484Y-110879706D01*
X139317173Y-110909262D01*
X139247934Y-110899898D01*
X139194749Y-110854587D01*
X139174503Y-110787715D01*
X139174499Y-110786676D01*
X139174499Y-110514129D01*
X139174498Y-110514123D01*
X139174497Y-110514116D01*
X139168091Y-110454517D01*
X139164507Y-110444909D01*
X139117797Y-110319671D01*
X139117793Y-110319664D01*
X139031547Y-110204455D01*
X139031544Y-110204452D01*
X138916335Y-110118206D01*
X138916328Y-110118202D01*
X138781482Y-110067908D01*
X138781483Y-110067908D01*
X138721883Y-110061501D01*
X138721881Y-110061500D01*
X138721873Y-110061500D01*
X138721864Y-110061500D01*
X137256129Y-110061500D01*
X137256123Y-110061501D01*
X137196516Y-110067908D01*
X137061671Y-110118202D01*
X137061664Y-110118206D01*
X136946455Y-110204452D01*
X136946452Y-110204455D01*
X136860206Y-110319664D01*
X136860202Y-110319671D01*
X136809908Y-110454517D01*
X136803501Y-110514116D01*
X136803501Y-110514123D01*
X136803500Y-110514135D01*
X136803500Y-111979870D01*
X136803501Y-111979876D01*
X136809908Y-112039483D01*
X136832729Y-112100667D01*
X136837713Y-112170359D01*
X136804228Y-112231682D01*
X136742905Y-112265166D01*
X136716547Y-112268000D01*
X123568000Y-112268000D01*
X123500961Y-112248315D01*
X123455206Y-112195511D01*
X123444000Y-112144000D01*
X123444000Y-108646584D01*
X123463685Y-108579545D01*
X123516489Y-108533790D01*
X123585647Y-108523846D01*
X123649203Y-108552871D01*
X123666951Y-108571854D01*
X123684449Y-108595025D01*
X123707153Y-108625090D01*
X123846830Y-108752422D01*
X123869516Y-108773103D01*
X124056313Y-108888763D01*
X124261183Y-108968129D01*
X124477147Y-109008500D01*
X124477149Y-109008500D01*
X124696851Y-109008500D01*
X124696853Y-109008500D01*
X124912817Y-108968129D01*
X125117687Y-108888763D01*
X125304484Y-108773103D01*
X125466848Y-108625088D01*
X125599251Y-108449759D01*
X125697182Y-108253087D01*
X125757307Y-108041768D01*
X125777579Y-107823000D01*
X125757307Y-107604232D01*
X125697182Y-107392913D01*
X125599251Y-107196241D01*
X125535730Y-107112126D01*
X125466846Y-107020909D01*
X125304485Y-106872898D01*
X125304484Y-106872897D01*
X125117687Y-106757237D01*
X125117685Y-106757236D01*
X124912820Y-106677872D01*
X124912819Y-106677871D01*
X124912817Y-106677871D01*
X124896858Y-106674887D01*
X124834580Y-106643221D01*
X124799307Y-106582909D01*
X124802241Y-106513101D01*
X124842449Y-106455960D01*
X124896858Y-106431112D01*
X124912817Y-106428129D01*
X125117687Y-106348763D01*
X125304484Y-106233103D01*
X125466848Y-106085088D01*
X125599251Y-105909759D01*
X125697182Y-105713087D01*
X125757307Y-105501768D01*
X125777579Y-105283000D01*
X125757307Y-105064232D01*
X125697182Y-104852913D01*
X125599251Y-104656241D01*
X125535730Y-104572126D01*
X125466846Y-104480909D01*
X125304485Y-104332898D01*
X125304484Y-104332897D01*
X125117687Y-104217237D01*
X125117685Y-104217236D01*
X124912820Y-104137872D01*
X124912819Y-104137871D01*
X124912817Y-104137871D01*
X124896858Y-104134887D01*
X124834580Y-104103221D01*
X124799307Y-104042909D01*
X124802241Y-103973101D01*
X124842449Y-103915960D01*
X124896858Y-103891112D01*
X124912817Y-103888129D01*
X125117687Y-103808763D01*
X125304484Y-103693103D01*
X125466848Y-103545088D01*
X125599251Y-103369759D01*
X125697182Y-103173087D01*
X125757307Y-102961768D01*
X125777579Y-102743000D01*
X125757307Y-102524232D01*
X125697182Y-102312913D01*
X125599251Y-102116241D01*
X125535730Y-102032126D01*
X125466846Y-101940909D01*
X125304485Y-101792898D01*
X125304484Y-101792897D01*
X125117687Y-101677237D01*
X125117685Y-101677236D01*
X124912820Y-101597872D01*
X124912819Y-101597871D01*
X124912817Y-101597871D01*
X124896858Y-101594887D01*
X124834580Y-101563221D01*
X124799307Y-101502909D01*
X124802241Y-101433101D01*
X124842449Y-101375960D01*
X124896858Y-101351112D01*
X124912817Y-101348129D01*
X125117687Y-101268763D01*
X125304484Y-101153103D01*
X125466848Y-101005088D01*
X125599251Y-100829759D01*
X125697182Y-100633087D01*
X125757307Y-100421768D01*
X125777579Y-100203000D01*
X125757307Y-99984232D01*
X125697182Y-99772913D01*
X125599251Y-99576241D01*
X125535730Y-99492126D01*
X125466846Y-99400909D01*
X125304485Y-99252898D01*
X125304484Y-99252897D01*
X125117687Y-99137237D01*
X125117685Y-99137236D01*
X124912820Y-99057872D01*
X124912819Y-99057871D01*
X124912817Y-99057871D01*
X124896858Y-99054887D01*
X124834580Y-99023221D01*
X124799307Y-98962909D01*
X124802241Y-98893101D01*
X124842449Y-98835960D01*
X124896858Y-98811112D01*
X124912817Y-98808129D01*
X125117687Y-98728763D01*
X125304484Y-98613103D01*
X125466848Y-98465088D01*
X125599251Y-98289759D01*
X125697182Y-98093087D01*
X125757307Y-97881768D01*
X125777579Y-97663000D01*
X125757307Y-97444232D01*
X125697182Y-97232913D01*
X125599251Y-97036241D01*
X125535730Y-96952126D01*
X125466846Y-96860909D01*
X125304485Y-96712898D01*
X125304484Y-96712897D01*
X125117687Y-96597237D01*
X125117685Y-96597236D01*
X124912820Y-96517872D01*
X124912819Y-96517871D01*
X124912817Y-96517871D01*
X124896858Y-96514887D01*
X124834580Y-96483221D01*
X124799307Y-96422909D01*
X124802241Y-96353101D01*
X124842449Y-96295960D01*
X124896858Y-96271112D01*
X124912817Y-96268129D01*
X125117687Y-96188763D01*
X125304484Y-96073103D01*
X125466848Y-95925088D01*
X125599251Y-95749759D01*
X125697182Y-95553087D01*
X125757307Y-95341768D01*
X125777579Y-95123000D01*
X125757307Y-94904232D01*
X125697182Y-94692913D01*
X125599251Y-94496241D01*
X125535730Y-94412126D01*
X125466846Y-94320909D01*
X125304485Y-94172898D01*
X125304484Y-94172897D01*
X125117687Y-94057237D01*
X125117685Y-94057236D01*
X124912820Y-93977872D01*
X124912819Y-93977871D01*
X124912817Y-93977871D01*
X124896858Y-93974887D01*
X124834580Y-93943221D01*
X124799307Y-93882909D01*
X124802241Y-93813101D01*
X124842449Y-93755960D01*
X124896858Y-93731112D01*
X124912817Y-93728129D01*
X125117687Y-93648763D01*
X125304484Y-93533103D01*
X125466848Y-93385088D01*
X125599251Y-93209759D01*
X125697182Y-93013087D01*
X125757307Y-92801768D01*
X125777579Y-92583000D01*
X125757307Y-92364232D01*
X125697182Y-92152913D01*
X125599251Y-91956241D01*
X125535730Y-91872126D01*
X125466846Y-91780909D01*
X125304485Y-91632898D01*
X125304484Y-91632897D01*
X125117687Y-91517237D01*
X125117685Y-91517236D01*
X124912820Y-91437872D01*
X124912819Y-91437871D01*
X124912817Y-91437871D01*
X124896858Y-91434887D01*
X124834580Y-91403221D01*
X124799307Y-91342909D01*
X124802241Y-91273101D01*
X124842449Y-91215960D01*
X124896858Y-91191112D01*
X124912817Y-91188129D01*
X125117687Y-91108763D01*
X125304484Y-90993103D01*
X125466848Y-90845088D01*
X125599251Y-90669759D01*
X125697182Y-90473087D01*
X125757307Y-90261768D01*
X125777579Y-90043000D01*
X125757307Y-89824232D01*
X125697182Y-89612913D01*
X125599251Y-89416241D01*
X125535730Y-89332126D01*
X125466846Y-89240909D01*
X125304485Y-89092898D01*
X125304484Y-89092897D01*
X125117687Y-88977237D01*
X125117685Y-88977236D01*
X124912820Y-88897872D01*
X124912819Y-88897871D01*
X124912817Y-88897871D01*
X124896858Y-88894887D01*
X124834580Y-88863221D01*
X124799307Y-88802909D01*
X124802241Y-88733101D01*
X124842449Y-88675960D01*
X124896858Y-88651112D01*
X124912817Y-88648129D01*
X125117687Y-88568763D01*
X125304484Y-88453103D01*
X125466848Y-88305088D01*
X125599251Y-88129759D01*
X125697182Y-87933087D01*
X125757307Y-87721768D01*
X125777579Y-87503000D01*
X125757307Y-87284232D01*
X125697182Y-87072913D01*
X125599251Y-86876241D01*
X125535730Y-86792126D01*
X125466846Y-86700909D01*
X125304485Y-86552898D01*
X125304484Y-86552897D01*
X125117687Y-86437237D01*
X125117685Y-86437236D01*
X124912820Y-86357872D01*
X124912819Y-86357871D01*
X124912817Y-86357871D01*
X124896858Y-86354887D01*
X124834580Y-86323221D01*
X124799307Y-86262909D01*
X124802241Y-86193101D01*
X124842449Y-86135960D01*
X124896858Y-86111112D01*
X124912817Y-86108129D01*
X125117687Y-86028763D01*
X125304484Y-85913103D01*
X125466848Y-85765088D01*
X125599251Y-85589759D01*
X125697182Y-85393087D01*
X125757307Y-85181768D01*
X125777579Y-84963000D01*
X125757307Y-84744232D01*
X125697182Y-84532913D01*
X125599251Y-84336241D01*
X125535730Y-84252126D01*
X125466846Y-84160909D01*
X125304485Y-84012898D01*
X125304484Y-84012897D01*
X125117687Y-83897237D01*
X125117685Y-83897236D01*
X124912820Y-83817872D01*
X124912819Y-83817871D01*
X124912817Y-83817871D01*
X124896858Y-83814887D01*
X124834580Y-83783221D01*
X124799307Y-83722909D01*
X124802241Y-83653101D01*
X124842449Y-83595960D01*
X124896858Y-83571112D01*
X124912817Y-83568129D01*
X125117687Y-83488763D01*
X125304484Y-83373103D01*
X125466848Y-83225088D01*
X125599251Y-83049759D01*
X125697182Y-82853087D01*
X125757307Y-82641768D01*
X125777579Y-82423000D01*
X125757307Y-82204232D01*
X125697182Y-81992913D01*
X125599251Y-81796241D01*
X125535730Y-81712126D01*
X125466846Y-81620909D01*
X125304485Y-81472898D01*
X125304484Y-81472897D01*
X125117687Y-81357237D01*
X125117685Y-81357236D01*
X124912820Y-81277872D01*
X124912819Y-81277871D01*
X124912817Y-81277871D01*
X124896858Y-81274887D01*
X124834580Y-81243221D01*
X124799307Y-81182909D01*
X124802241Y-81113101D01*
X124842449Y-81055960D01*
X124896858Y-81031112D01*
X124912817Y-81028129D01*
X125117687Y-80948763D01*
X125304484Y-80833103D01*
X125466848Y-80685088D01*
X125599251Y-80509759D01*
X125697182Y-80313087D01*
X125757307Y-80101768D01*
X125777579Y-79883000D01*
X125757307Y-79664232D01*
X125697182Y-79452913D01*
X125599251Y-79256241D01*
X125535730Y-79172126D01*
X125466846Y-79080909D01*
X125304485Y-78932898D01*
X125304484Y-78932897D01*
X125117687Y-78817237D01*
X125117685Y-78817236D01*
X124912820Y-78737872D01*
X124912819Y-78737871D01*
X124912817Y-78737871D01*
X124896858Y-78734887D01*
X124834580Y-78703221D01*
X124799307Y-78642909D01*
X124802241Y-78573101D01*
X124842449Y-78515960D01*
X124896858Y-78491112D01*
X124912817Y-78488129D01*
X125117687Y-78408763D01*
X125304484Y-78293103D01*
X125466848Y-78145088D01*
X125599251Y-77969759D01*
X125697182Y-77773087D01*
X125757307Y-77561768D01*
X125777579Y-77343000D01*
X125757307Y-77124232D01*
X125697182Y-76912913D01*
X125599251Y-76716241D01*
X125535730Y-76632126D01*
X125466846Y-76540909D01*
X125304485Y-76392898D01*
X125304484Y-76392897D01*
X125117687Y-76277237D01*
X125117685Y-76277236D01*
X124989627Y-76227627D01*
X124934226Y-76185054D01*
X124910635Y-76119287D01*
X124926346Y-76051207D01*
X124976370Y-76002428D01*
X125034421Y-75988000D01*
X125319828Y-75988000D01*
X125319844Y-75987999D01*
X125379372Y-75981598D01*
X125379379Y-75981596D01*
X125514086Y-75931354D01*
X125514093Y-75931350D01*
X125629187Y-75845190D01*
X125629190Y-75845187D01*
X125715350Y-75730093D01*
X125715354Y-75730086D01*
X125765596Y-75595379D01*
X125765598Y-75595372D01*
X125771999Y-75535844D01*
X125772000Y-75535827D01*
X125772000Y-75053000D01*
X125031560Y-75053000D01*
X125062245Y-74999853D01*
X125097000Y-74870143D01*
X125097000Y-74735857D01*
X125062245Y-74606147D01*
X125031560Y-74553000D01*
X125772000Y-74553000D01*
X125772000Y-74070172D01*
X125771999Y-74070155D01*
X125765598Y-74010627D01*
X125765596Y-74010620D01*
X125715354Y-73875913D01*
X125715350Y-73875906D01*
X125629190Y-73760812D01*
X125629187Y-73760809D01*
X125514093Y-73674649D01*
X125514086Y-73674645D01*
X125379379Y-73624403D01*
X125379372Y-73624401D01*
X125319844Y-73618000D01*
X124837000Y-73618000D01*
X124837000Y-74358439D01*
X124783853Y-74327755D01*
X124654143Y-74293000D01*
X124519857Y-74293000D01*
X124390147Y-74327755D01*
X124337000Y-74358439D01*
X124337000Y-73618000D01*
X123854155Y-73618000D01*
X123794627Y-73624401D01*
X123794620Y-73624403D01*
X123659913Y-73674645D01*
X123659906Y-73674649D01*
X123642310Y-73687822D01*
X123576845Y-73712239D01*
X123508573Y-73697387D01*
X123459168Y-73647981D01*
X123444000Y-73588555D01*
X123444000Y-73407000D01*
X123463685Y-73339961D01*
X123516489Y-73294206D01*
X123568000Y-73283000D01*
X179327000Y-73283000D01*
X179394039Y-73302685D01*
G37*
G04 #@! TD.AperFunction*
M02*
