%TF.GenerationSoftware,KiCad,Pcbnew,8.0.0*%
%TF.CreationDate,2024-03-04T00:39:04-06:00*%
%TF.ProjectId,MicrocontrollerTestBoard,4d696372-6f63-46f6-9e74-726f6c6c6572,rev?*%
%TF.SameCoordinates,Original*%
%TF.FileFunction,Paste,Top*%
%TF.FilePolarity,Positive*%
%FSLAX46Y46*%
G04 Gerber Fmt 4.6, Leading zero omitted, Abs format (unit mm)*
G04 Created by KiCad (PCBNEW 8.0.0) date 2024-03-04 00:39:04*
%MOMM*%
%LPD*%
G01*
G04 APERTURE LIST*
%ADD10C,0.000000*%
%ADD11R,0.838200X0.889000*%
%ADD12R,0.889000X0.838200*%
G04 APERTURE END LIST*
D10*
%TO.C,U2*%
G36*
X151339100Y-79956700D02*
G01*
X149684900Y-79956700D01*
X149684900Y-78302500D01*
X151339100Y-78302500D01*
X151339100Y-79956700D01*
G37*
G36*
X151339100Y-81810900D02*
G01*
X149684900Y-81810900D01*
X149684900Y-80156700D01*
X151339100Y-80156700D01*
X151339100Y-81810900D01*
G37*
G36*
X153193300Y-79956700D02*
G01*
X151539100Y-79956700D01*
X151539100Y-78302500D01*
X153193300Y-78302500D01*
X153193300Y-79956700D01*
G37*
G36*
X153193300Y-81810900D02*
G01*
X151539100Y-81810900D01*
X151539100Y-80156700D01*
X153193300Y-80156700D01*
X153193300Y-81810900D01*
G37*
%TD*%
D11*
%TO.C,U2*%
X142858200Y-74803000D03*
X142858200Y-76073000D03*
X142858200Y-77343000D03*
X142858200Y-78613000D03*
X142858200Y-79883000D03*
X142858200Y-81153000D03*
X142858200Y-82423000D03*
X142858200Y-83693000D03*
X142858200Y-84963000D03*
X142858200Y-86233000D03*
X142858200Y-87503000D03*
X142858200Y-88773000D03*
X142858200Y-90043000D03*
X142858200Y-91313000D03*
D12*
X144454100Y-92387600D03*
X145724100Y-92387600D03*
X146994100Y-92387600D03*
X148264100Y-92387600D03*
X149534100Y-92387600D03*
X150804100Y-92387600D03*
X152074100Y-92387600D03*
X153344100Y-92387600D03*
X154614100Y-92387600D03*
X155884100Y-92387600D03*
X157154100Y-92387600D03*
X158424100Y-92387600D03*
D11*
X160020000Y-91313000D03*
X160020000Y-90043000D03*
X160020000Y-88773000D03*
X160020000Y-87503000D03*
X160020000Y-86233000D03*
X160020000Y-84963000D03*
X160020000Y-83693000D03*
X160020000Y-82423000D03*
X160020000Y-81153000D03*
X160020000Y-79883000D03*
X160020000Y-78613000D03*
X160020000Y-77343000D03*
X160020000Y-76073000D03*
X160020000Y-74803000D03*
%TD*%
M02*
