G04 #@! TF.GenerationSoftware,KiCad,Pcbnew,8.0.0*
G04 #@! TF.CreationDate,2024-03-04T18:12:50-06:00*
G04 #@! TF.ProjectId,MicrocontrollerTestBoard,4d696372-6f63-46f6-9e74-726f6c6c6572,rev?*
G04 #@! TF.SameCoordinates,Original*
G04 #@! TF.FileFunction,Soldermask,Bot*
G04 #@! TF.FilePolarity,Negative*
%FSLAX46Y46*%
G04 Gerber Fmt 4.6, Leading zero omitted, Abs format (unit mm)*
G04 Created by KiCad (PCBNEW 8.0.0) date 2024-03-04 18:12:50*
%MOMM*%
%LPD*%
G01*
G04 APERTURE LIST*
G04 APERTURE END LIST*
G36*
X138713034Y-110467764D02*
G01*
X138746125Y-110489875D01*
X138768236Y-110522966D01*
X138776000Y-110562000D01*
X138776000Y-111932000D01*
X138768236Y-111971034D01*
X138746125Y-112004125D01*
X138713034Y-112026236D01*
X138674000Y-112034000D01*
X137304000Y-112034000D01*
X137264966Y-112026236D01*
X137231875Y-112004125D01*
X137209764Y-111971034D01*
X137202000Y-111932000D01*
X137202000Y-110562000D01*
X137209764Y-110522966D01*
X137231875Y-110489875D01*
X137264966Y-110467764D01*
X137304000Y-110460000D01*
X138674000Y-110460000D01*
X138713034Y-110467764D01*
G37*
G36*
X140569737Y-110464590D02*
G01*
X140611234Y-110464590D01*
X140658046Y-110474540D01*
X140704124Y-110479732D01*
X140737628Y-110491455D01*
X140772110Y-110498785D01*
X140821804Y-110520910D01*
X140870467Y-110537938D01*
X140895794Y-110553852D01*
X140922360Y-110565680D01*
X140971901Y-110601673D01*
X141019686Y-110631699D01*
X141036844Y-110648857D01*
X141055418Y-110662352D01*
X141101335Y-110713348D01*
X141144301Y-110756314D01*
X141154183Y-110772042D01*
X141165471Y-110784578D01*
X141204077Y-110851447D01*
X141238062Y-110905533D01*
X141242306Y-110917661D01*
X141247702Y-110927008D01*
X141275337Y-111012061D01*
X141296268Y-111071876D01*
X141297061Y-111078918D01*
X141298528Y-111083432D01*
X141311819Y-111209901D01*
X141316000Y-111247000D01*
X141311819Y-111284101D01*
X141298528Y-111410567D01*
X141297061Y-111415079D01*
X141296268Y-111422124D01*
X141275333Y-111481951D01*
X141247702Y-111566991D01*
X141242306Y-111576335D01*
X141238062Y-111588467D01*
X141204070Y-111642563D01*
X141165471Y-111709421D01*
X141154185Y-111721954D01*
X141144301Y-111737686D01*
X141101326Y-111780660D01*
X141055418Y-111831647D01*
X141036848Y-111845138D01*
X141019686Y-111862301D01*
X140971890Y-111892332D01*
X140922360Y-111928319D01*
X140895799Y-111940144D01*
X140870467Y-111956062D01*
X140821794Y-111973093D01*
X140772110Y-111995214D01*
X140737634Y-112002542D01*
X140704124Y-112014268D01*
X140658043Y-112019460D01*
X140611234Y-112029410D01*
X140569737Y-112029410D01*
X140529000Y-112034000D01*
X140488263Y-112029410D01*
X140446766Y-112029410D01*
X140399955Y-112019460D01*
X140353876Y-112014268D01*
X140320366Y-112002542D01*
X140285889Y-111995214D01*
X140236201Y-111973091D01*
X140187533Y-111956062D01*
X140162202Y-111940145D01*
X140135639Y-111928319D01*
X140086101Y-111892328D01*
X140038314Y-111862301D01*
X140021154Y-111845141D01*
X140002581Y-111831647D01*
X139956663Y-111780650D01*
X139913699Y-111737686D01*
X139903816Y-111721958D01*
X139892528Y-111709421D01*
X139853917Y-111642544D01*
X139819938Y-111588467D01*
X139815694Y-111576339D01*
X139810297Y-111566991D01*
X139782652Y-111481911D01*
X139761732Y-111422124D01*
X139760938Y-111415084D01*
X139759471Y-111410567D01*
X139746165Y-111283969D01*
X139742000Y-111247000D01*
X139746165Y-111210033D01*
X139759471Y-111083432D01*
X139760938Y-111078914D01*
X139761732Y-111071876D01*
X139782648Y-111012101D01*
X139810297Y-110927008D01*
X139815695Y-110917657D01*
X139819938Y-110905533D01*
X139853909Y-110851467D01*
X139892528Y-110784578D01*
X139903818Y-110772038D01*
X139913699Y-110756314D01*
X139956654Y-110713358D01*
X140002581Y-110662352D01*
X140021157Y-110648855D01*
X140038314Y-110631699D01*
X140086096Y-110601675D01*
X140135640Y-110565680D01*
X140162206Y-110553852D01*
X140187533Y-110537938D01*
X140236192Y-110520911D01*
X140285889Y-110498785D01*
X140320372Y-110491455D01*
X140353876Y-110479732D01*
X140399952Y-110474540D01*
X140446766Y-110464590D01*
X140488263Y-110464590D01*
X140529000Y-110460000D01*
X140569737Y-110464590D01*
G37*
G36*
X143109737Y-110464590D02*
G01*
X143151234Y-110464590D01*
X143198046Y-110474540D01*
X143244124Y-110479732D01*
X143277628Y-110491455D01*
X143312110Y-110498785D01*
X143361804Y-110520910D01*
X143410467Y-110537938D01*
X143435794Y-110553852D01*
X143462360Y-110565680D01*
X143511901Y-110601673D01*
X143559686Y-110631699D01*
X143576844Y-110648857D01*
X143595418Y-110662352D01*
X143641335Y-110713348D01*
X143684301Y-110756314D01*
X143694183Y-110772042D01*
X143705471Y-110784578D01*
X143744077Y-110851447D01*
X143778062Y-110905533D01*
X143782306Y-110917661D01*
X143787702Y-110927008D01*
X143815337Y-111012061D01*
X143836268Y-111071876D01*
X143837061Y-111078918D01*
X143838528Y-111083432D01*
X143851819Y-111209901D01*
X143856000Y-111247000D01*
X143851819Y-111284101D01*
X143838528Y-111410567D01*
X143837061Y-111415079D01*
X143836268Y-111422124D01*
X143815333Y-111481951D01*
X143787702Y-111566991D01*
X143782306Y-111576335D01*
X143778062Y-111588467D01*
X143744070Y-111642563D01*
X143705471Y-111709421D01*
X143694185Y-111721954D01*
X143684301Y-111737686D01*
X143641326Y-111780660D01*
X143595418Y-111831647D01*
X143576848Y-111845138D01*
X143559686Y-111862301D01*
X143511890Y-111892332D01*
X143462360Y-111928319D01*
X143435799Y-111940144D01*
X143410467Y-111956062D01*
X143361794Y-111973093D01*
X143312110Y-111995214D01*
X143277634Y-112002542D01*
X143244124Y-112014268D01*
X143198043Y-112019460D01*
X143151234Y-112029410D01*
X143109737Y-112029410D01*
X143069000Y-112034000D01*
X143028263Y-112029410D01*
X142986766Y-112029410D01*
X142939955Y-112019460D01*
X142893876Y-112014268D01*
X142860366Y-112002542D01*
X142825889Y-111995214D01*
X142776201Y-111973091D01*
X142727533Y-111956062D01*
X142702202Y-111940145D01*
X142675639Y-111928319D01*
X142626101Y-111892328D01*
X142578314Y-111862301D01*
X142561154Y-111845141D01*
X142542581Y-111831647D01*
X142496663Y-111780650D01*
X142453699Y-111737686D01*
X142443816Y-111721958D01*
X142432528Y-111709421D01*
X142393917Y-111642544D01*
X142359938Y-111588467D01*
X142355694Y-111576339D01*
X142350297Y-111566991D01*
X142322652Y-111481911D01*
X142301732Y-111422124D01*
X142300938Y-111415084D01*
X142299471Y-111410567D01*
X142286165Y-111283969D01*
X142282000Y-111247000D01*
X142286165Y-111210033D01*
X142299471Y-111083432D01*
X142300938Y-111078914D01*
X142301732Y-111071876D01*
X142322648Y-111012101D01*
X142350297Y-110927008D01*
X142355695Y-110917657D01*
X142359938Y-110905533D01*
X142393909Y-110851467D01*
X142432528Y-110784578D01*
X142443818Y-110772038D01*
X142453699Y-110756314D01*
X142496654Y-110713358D01*
X142542581Y-110662352D01*
X142561157Y-110648855D01*
X142578314Y-110631699D01*
X142626096Y-110601675D01*
X142675640Y-110565680D01*
X142702206Y-110553852D01*
X142727533Y-110537938D01*
X142776192Y-110520911D01*
X142825889Y-110498785D01*
X142860372Y-110491455D01*
X142893876Y-110479732D01*
X142939952Y-110474540D01*
X142986766Y-110464590D01*
X143028263Y-110464590D01*
X143069000Y-110460000D01*
X143109737Y-110464590D01*
G37*
G36*
X145649737Y-110464590D02*
G01*
X145691234Y-110464590D01*
X145738046Y-110474540D01*
X145784124Y-110479732D01*
X145817628Y-110491455D01*
X145852110Y-110498785D01*
X145901804Y-110520910D01*
X145950467Y-110537938D01*
X145975794Y-110553852D01*
X146002360Y-110565680D01*
X146051901Y-110601673D01*
X146099686Y-110631699D01*
X146116844Y-110648857D01*
X146135418Y-110662352D01*
X146181335Y-110713348D01*
X146224301Y-110756314D01*
X146234183Y-110772042D01*
X146245471Y-110784578D01*
X146284077Y-110851447D01*
X146318062Y-110905533D01*
X146322306Y-110917661D01*
X146327702Y-110927008D01*
X146355337Y-111012061D01*
X146376268Y-111071876D01*
X146377061Y-111078918D01*
X146378528Y-111083432D01*
X146391819Y-111209901D01*
X146396000Y-111247000D01*
X146391819Y-111284101D01*
X146378528Y-111410567D01*
X146377061Y-111415079D01*
X146376268Y-111422124D01*
X146355333Y-111481951D01*
X146327702Y-111566991D01*
X146322306Y-111576335D01*
X146318062Y-111588467D01*
X146284070Y-111642563D01*
X146245471Y-111709421D01*
X146234185Y-111721954D01*
X146224301Y-111737686D01*
X146181326Y-111780660D01*
X146135418Y-111831647D01*
X146116848Y-111845138D01*
X146099686Y-111862301D01*
X146051890Y-111892332D01*
X146002360Y-111928319D01*
X145975799Y-111940144D01*
X145950467Y-111956062D01*
X145901794Y-111973093D01*
X145852110Y-111995214D01*
X145817634Y-112002542D01*
X145784124Y-112014268D01*
X145738043Y-112019460D01*
X145691234Y-112029410D01*
X145649737Y-112029410D01*
X145609000Y-112034000D01*
X145568263Y-112029410D01*
X145526766Y-112029410D01*
X145479955Y-112019460D01*
X145433876Y-112014268D01*
X145400366Y-112002542D01*
X145365889Y-111995214D01*
X145316201Y-111973091D01*
X145267533Y-111956062D01*
X145242202Y-111940145D01*
X145215639Y-111928319D01*
X145166101Y-111892328D01*
X145118314Y-111862301D01*
X145101154Y-111845141D01*
X145082581Y-111831647D01*
X145036663Y-111780650D01*
X144993699Y-111737686D01*
X144983816Y-111721958D01*
X144972528Y-111709421D01*
X144933917Y-111642544D01*
X144899938Y-111588467D01*
X144895694Y-111576339D01*
X144890297Y-111566991D01*
X144862652Y-111481911D01*
X144841732Y-111422124D01*
X144840938Y-111415084D01*
X144839471Y-111410567D01*
X144826165Y-111283969D01*
X144822000Y-111247000D01*
X144826165Y-111210033D01*
X144839471Y-111083432D01*
X144840938Y-111078914D01*
X144841732Y-111071876D01*
X144862648Y-111012101D01*
X144890297Y-110927008D01*
X144895695Y-110917657D01*
X144899938Y-110905533D01*
X144933909Y-110851467D01*
X144972528Y-110784578D01*
X144983818Y-110772038D01*
X144993699Y-110756314D01*
X145036654Y-110713358D01*
X145082581Y-110662352D01*
X145101157Y-110648855D01*
X145118314Y-110631699D01*
X145166096Y-110601675D01*
X145215640Y-110565680D01*
X145242206Y-110553852D01*
X145267533Y-110537938D01*
X145316192Y-110520911D01*
X145365889Y-110498785D01*
X145400372Y-110491455D01*
X145433876Y-110479732D01*
X145479952Y-110474540D01*
X145526766Y-110464590D01*
X145568263Y-110464590D01*
X145609000Y-110460000D01*
X145649737Y-110464590D01*
G37*
G36*
X148189737Y-110464590D02*
G01*
X148231234Y-110464590D01*
X148278046Y-110474540D01*
X148324124Y-110479732D01*
X148357628Y-110491455D01*
X148392110Y-110498785D01*
X148441804Y-110520910D01*
X148490467Y-110537938D01*
X148515794Y-110553852D01*
X148542360Y-110565680D01*
X148591901Y-110601673D01*
X148639686Y-110631699D01*
X148656844Y-110648857D01*
X148675418Y-110662352D01*
X148721335Y-110713348D01*
X148764301Y-110756314D01*
X148774183Y-110772042D01*
X148785471Y-110784578D01*
X148824077Y-110851447D01*
X148858062Y-110905533D01*
X148862306Y-110917661D01*
X148867702Y-110927008D01*
X148895337Y-111012061D01*
X148916268Y-111071876D01*
X148917061Y-111078918D01*
X148918528Y-111083432D01*
X148931819Y-111209901D01*
X148936000Y-111247000D01*
X148931819Y-111284101D01*
X148918528Y-111410567D01*
X148917061Y-111415079D01*
X148916268Y-111422124D01*
X148895333Y-111481951D01*
X148867702Y-111566991D01*
X148862306Y-111576335D01*
X148858062Y-111588467D01*
X148824070Y-111642563D01*
X148785471Y-111709421D01*
X148774185Y-111721954D01*
X148764301Y-111737686D01*
X148721326Y-111780660D01*
X148675418Y-111831647D01*
X148656848Y-111845138D01*
X148639686Y-111862301D01*
X148591890Y-111892332D01*
X148542360Y-111928319D01*
X148515799Y-111940144D01*
X148490467Y-111956062D01*
X148441794Y-111973093D01*
X148392110Y-111995214D01*
X148357634Y-112002542D01*
X148324124Y-112014268D01*
X148278043Y-112019460D01*
X148231234Y-112029410D01*
X148189737Y-112029410D01*
X148149000Y-112034000D01*
X148108263Y-112029410D01*
X148066766Y-112029410D01*
X148019955Y-112019460D01*
X147973876Y-112014268D01*
X147940366Y-112002542D01*
X147905889Y-111995214D01*
X147856201Y-111973091D01*
X147807533Y-111956062D01*
X147782202Y-111940145D01*
X147755639Y-111928319D01*
X147706101Y-111892328D01*
X147658314Y-111862301D01*
X147641154Y-111845141D01*
X147622581Y-111831647D01*
X147576663Y-111780650D01*
X147533699Y-111737686D01*
X147523816Y-111721958D01*
X147512528Y-111709421D01*
X147473917Y-111642544D01*
X147439938Y-111588467D01*
X147435694Y-111576339D01*
X147430297Y-111566991D01*
X147402652Y-111481911D01*
X147381732Y-111422124D01*
X147380938Y-111415084D01*
X147379471Y-111410567D01*
X147366165Y-111283969D01*
X147362000Y-111247000D01*
X147366165Y-111210033D01*
X147379471Y-111083432D01*
X147380938Y-111078914D01*
X147381732Y-111071876D01*
X147402648Y-111012101D01*
X147430297Y-110927008D01*
X147435695Y-110917657D01*
X147439938Y-110905533D01*
X147473909Y-110851467D01*
X147512528Y-110784578D01*
X147523818Y-110772038D01*
X147533699Y-110756314D01*
X147576654Y-110713358D01*
X147622581Y-110662352D01*
X147641157Y-110648855D01*
X147658314Y-110631699D01*
X147706096Y-110601675D01*
X147755640Y-110565680D01*
X147782206Y-110553852D01*
X147807533Y-110537938D01*
X147856192Y-110520911D01*
X147905889Y-110498785D01*
X147940372Y-110491455D01*
X147973876Y-110479732D01*
X148019952Y-110474540D01*
X148066766Y-110464590D01*
X148108263Y-110464590D01*
X148149000Y-110460000D01*
X148189737Y-110464590D01*
G37*
G36*
X150729737Y-110464590D02*
G01*
X150771234Y-110464590D01*
X150818046Y-110474540D01*
X150864124Y-110479732D01*
X150897628Y-110491455D01*
X150932110Y-110498785D01*
X150981804Y-110520910D01*
X151030467Y-110537938D01*
X151055794Y-110553852D01*
X151082360Y-110565680D01*
X151131901Y-110601673D01*
X151179686Y-110631699D01*
X151196844Y-110648857D01*
X151215418Y-110662352D01*
X151261335Y-110713348D01*
X151304301Y-110756314D01*
X151314183Y-110772042D01*
X151325471Y-110784578D01*
X151364077Y-110851447D01*
X151398062Y-110905533D01*
X151402306Y-110917661D01*
X151407702Y-110927008D01*
X151435337Y-111012061D01*
X151456268Y-111071876D01*
X151457061Y-111078918D01*
X151458528Y-111083432D01*
X151471819Y-111209901D01*
X151476000Y-111247000D01*
X151471819Y-111284101D01*
X151458528Y-111410567D01*
X151457061Y-111415079D01*
X151456268Y-111422124D01*
X151435333Y-111481951D01*
X151407702Y-111566991D01*
X151402306Y-111576335D01*
X151398062Y-111588467D01*
X151364070Y-111642563D01*
X151325471Y-111709421D01*
X151314185Y-111721954D01*
X151304301Y-111737686D01*
X151261326Y-111780660D01*
X151215418Y-111831647D01*
X151196848Y-111845138D01*
X151179686Y-111862301D01*
X151131890Y-111892332D01*
X151082360Y-111928319D01*
X151055799Y-111940144D01*
X151030467Y-111956062D01*
X150981794Y-111973093D01*
X150932110Y-111995214D01*
X150897634Y-112002542D01*
X150864124Y-112014268D01*
X150818043Y-112019460D01*
X150771234Y-112029410D01*
X150729737Y-112029410D01*
X150689000Y-112034000D01*
X150648263Y-112029410D01*
X150606766Y-112029410D01*
X150559955Y-112019460D01*
X150513876Y-112014268D01*
X150480366Y-112002542D01*
X150445889Y-111995214D01*
X150396201Y-111973091D01*
X150347533Y-111956062D01*
X150322202Y-111940145D01*
X150295639Y-111928319D01*
X150246101Y-111892328D01*
X150198314Y-111862301D01*
X150181154Y-111845141D01*
X150162581Y-111831647D01*
X150116663Y-111780650D01*
X150073699Y-111737686D01*
X150063816Y-111721958D01*
X150052528Y-111709421D01*
X150013917Y-111642544D01*
X149979938Y-111588467D01*
X149975694Y-111576339D01*
X149970297Y-111566991D01*
X149942652Y-111481911D01*
X149921732Y-111422124D01*
X149920938Y-111415084D01*
X149919471Y-111410567D01*
X149906165Y-111283969D01*
X149902000Y-111247000D01*
X149906165Y-111210033D01*
X149919471Y-111083432D01*
X149920938Y-111078914D01*
X149921732Y-111071876D01*
X149942648Y-111012101D01*
X149970297Y-110927008D01*
X149975695Y-110917657D01*
X149979938Y-110905533D01*
X150013909Y-110851467D01*
X150052528Y-110784578D01*
X150063818Y-110772038D01*
X150073699Y-110756314D01*
X150116654Y-110713358D01*
X150162581Y-110662352D01*
X150181157Y-110648855D01*
X150198314Y-110631699D01*
X150246096Y-110601675D01*
X150295640Y-110565680D01*
X150322206Y-110553852D01*
X150347533Y-110537938D01*
X150396192Y-110520911D01*
X150445889Y-110498785D01*
X150480372Y-110491455D01*
X150513876Y-110479732D01*
X150559952Y-110474540D01*
X150606766Y-110464590D01*
X150648263Y-110464590D01*
X150689000Y-110460000D01*
X150729737Y-110464590D01*
G37*
G36*
X153269737Y-110464590D02*
G01*
X153311234Y-110464590D01*
X153358046Y-110474540D01*
X153404124Y-110479732D01*
X153437628Y-110491455D01*
X153472110Y-110498785D01*
X153521804Y-110520910D01*
X153570467Y-110537938D01*
X153595794Y-110553852D01*
X153622360Y-110565680D01*
X153671901Y-110601673D01*
X153719686Y-110631699D01*
X153736844Y-110648857D01*
X153755418Y-110662352D01*
X153801335Y-110713348D01*
X153844301Y-110756314D01*
X153854183Y-110772042D01*
X153865471Y-110784578D01*
X153904077Y-110851447D01*
X153938062Y-110905533D01*
X153942306Y-110917661D01*
X153947702Y-110927008D01*
X153975337Y-111012061D01*
X153996268Y-111071876D01*
X153997061Y-111078918D01*
X153998528Y-111083432D01*
X154011819Y-111209901D01*
X154016000Y-111247000D01*
X154011819Y-111284101D01*
X153998528Y-111410567D01*
X153997061Y-111415079D01*
X153996268Y-111422124D01*
X153975333Y-111481951D01*
X153947702Y-111566991D01*
X153942306Y-111576335D01*
X153938062Y-111588467D01*
X153904070Y-111642563D01*
X153865471Y-111709421D01*
X153854185Y-111721954D01*
X153844301Y-111737686D01*
X153801326Y-111780660D01*
X153755418Y-111831647D01*
X153736848Y-111845138D01*
X153719686Y-111862301D01*
X153671890Y-111892332D01*
X153622360Y-111928319D01*
X153595799Y-111940144D01*
X153570467Y-111956062D01*
X153521794Y-111973093D01*
X153472110Y-111995214D01*
X153437634Y-112002542D01*
X153404124Y-112014268D01*
X153358043Y-112019460D01*
X153311234Y-112029410D01*
X153269737Y-112029410D01*
X153229000Y-112034000D01*
X153188263Y-112029410D01*
X153146766Y-112029410D01*
X153099955Y-112019460D01*
X153053876Y-112014268D01*
X153020366Y-112002542D01*
X152985889Y-111995214D01*
X152936201Y-111973091D01*
X152887533Y-111956062D01*
X152862202Y-111940145D01*
X152835639Y-111928319D01*
X152786101Y-111892328D01*
X152738314Y-111862301D01*
X152721154Y-111845141D01*
X152702581Y-111831647D01*
X152656663Y-111780650D01*
X152613699Y-111737686D01*
X152603816Y-111721958D01*
X152592528Y-111709421D01*
X152553917Y-111642544D01*
X152519938Y-111588467D01*
X152515694Y-111576339D01*
X152510297Y-111566991D01*
X152482652Y-111481911D01*
X152461732Y-111422124D01*
X152460938Y-111415084D01*
X152459471Y-111410567D01*
X152446165Y-111283969D01*
X152442000Y-111247000D01*
X152446165Y-111210033D01*
X152459471Y-111083432D01*
X152460938Y-111078914D01*
X152461732Y-111071876D01*
X152482648Y-111012101D01*
X152510297Y-110927008D01*
X152515695Y-110917657D01*
X152519938Y-110905533D01*
X152553909Y-110851467D01*
X152592528Y-110784578D01*
X152603818Y-110772038D01*
X152613699Y-110756314D01*
X152656654Y-110713358D01*
X152702581Y-110662352D01*
X152721157Y-110648855D01*
X152738314Y-110631699D01*
X152786096Y-110601675D01*
X152835640Y-110565680D01*
X152862206Y-110553852D01*
X152887533Y-110537938D01*
X152936192Y-110520911D01*
X152985889Y-110498785D01*
X153020372Y-110491455D01*
X153053876Y-110479732D01*
X153099952Y-110474540D01*
X153146766Y-110464590D01*
X153188263Y-110464590D01*
X153229000Y-110460000D01*
X153269737Y-110464590D01*
G37*
G36*
X155809737Y-110464590D02*
G01*
X155851234Y-110464590D01*
X155898046Y-110474540D01*
X155944124Y-110479732D01*
X155977628Y-110491455D01*
X156012110Y-110498785D01*
X156061804Y-110520910D01*
X156110467Y-110537938D01*
X156135794Y-110553852D01*
X156162360Y-110565680D01*
X156211901Y-110601673D01*
X156259686Y-110631699D01*
X156276844Y-110648857D01*
X156295418Y-110662352D01*
X156341335Y-110713348D01*
X156384301Y-110756314D01*
X156394183Y-110772042D01*
X156405471Y-110784578D01*
X156444077Y-110851447D01*
X156478062Y-110905533D01*
X156482306Y-110917661D01*
X156487702Y-110927008D01*
X156515337Y-111012061D01*
X156536268Y-111071876D01*
X156537061Y-111078918D01*
X156538528Y-111083432D01*
X156551819Y-111209901D01*
X156556000Y-111247000D01*
X156551819Y-111284101D01*
X156538528Y-111410567D01*
X156537061Y-111415079D01*
X156536268Y-111422124D01*
X156515333Y-111481951D01*
X156487702Y-111566991D01*
X156482306Y-111576335D01*
X156478062Y-111588467D01*
X156444070Y-111642563D01*
X156405471Y-111709421D01*
X156394185Y-111721954D01*
X156384301Y-111737686D01*
X156341326Y-111780660D01*
X156295418Y-111831647D01*
X156276848Y-111845138D01*
X156259686Y-111862301D01*
X156211890Y-111892332D01*
X156162360Y-111928319D01*
X156135799Y-111940144D01*
X156110467Y-111956062D01*
X156061794Y-111973093D01*
X156012110Y-111995214D01*
X155977634Y-112002542D01*
X155944124Y-112014268D01*
X155898043Y-112019460D01*
X155851234Y-112029410D01*
X155809737Y-112029410D01*
X155769000Y-112034000D01*
X155728263Y-112029410D01*
X155686766Y-112029410D01*
X155639955Y-112019460D01*
X155593876Y-112014268D01*
X155560366Y-112002542D01*
X155525889Y-111995214D01*
X155476201Y-111973091D01*
X155427533Y-111956062D01*
X155402202Y-111940145D01*
X155375639Y-111928319D01*
X155326101Y-111892328D01*
X155278314Y-111862301D01*
X155261154Y-111845141D01*
X155242581Y-111831647D01*
X155196663Y-111780650D01*
X155153699Y-111737686D01*
X155143816Y-111721958D01*
X155132528Y-111709421D01*
X155093917Y-111642544D01*
X155059938Y-111588467D01*
X155055694Y-111576339D01*
X155050297Y-111566991D01*
X155022652Y-111481911D01*
X155001732Y-111422124D01*
X155000938Y-111415084D01*
X154999471Y-111410567D01*
X154986165Y-111283969D01*
X154982000Y-111247000D01*
X154986165Y-111210033D01*
X154999471Y-111083432D01*
X155000938Y-111078914D01*
X155001732Y-111071876D01*
X155022648Y-111012101D01*
X155050297Y-110927008D01*
X155055695Y-110917657D01*
X155059938Y-110905533D01*
X155093909Y-110851467D01*
X155132528Y-110784578D01*
X155143818Y-110772038D01*
X155153699Y-110756314D01*
X155196654Y-110713358D01*
X155242581Y-110662352D01*
X155261157Y-110648855D01*
X155278314Y-110631699D01*
X155326096Y-110601675D01*
X155375640Y-110565680D01*
X155402206Y-110553852D01*
X155427533Y-110537938D01*
X155476192Y-110520911D01*
X155525889Y-110498785D01*
X155560372Y-110491455D01*
X155593876Y-110479732D01*
X155639952Y-110474540D01*
X155686766Y-110464590D01*
X155728263Y-110464590D01*
X155769000Y-110460000D01*
X155809737Y-110464590D01*
G37*
G36*
X158349737Y-110464590D02*
G01*
X158391234Y-110464590D01*
X158438046Y-110474540D01*
X158484124Y-110479732D01*
X158517628Y-110491455D01*
X158552110Y-110498785D01*
X158601804Y-110520910D01*
X158650467Y-110537938D01*
X158675794Y-110553852D01*
X158702360Y-110565680D01*
X158751901Y-110601673D01*
X158799686Y-110631699D01*
X158816844Y-110648857D01*
X158835418Y-110662352D01*
X158881335Y-110713348D01*
X158924301Y-110756314D01*
X158934183Y-110772042D01*
X158945471Y-110784578D01*
X158984077Y-110851447D01*
X159018062Y-110905533D01*
X159022306Y-110917661D01*
X159027702Y-110927008D01*
X159055337Y-111012061D01*
X159076268Y-111071876D01*
X159077061Y-111078918D01*
X159078528Y-111083432D01*
X159091819Y-111209901D01*
X159096000Y-111247000D01*
X159091819Y-111284101D01*
X159078528Y-111410567D01*
X159077061Y-111415079D01*
X159076268Y-111422124D01*
X159055333Y-111481951D01*
X159027702Y-111566991D01*
X159022306Y-111576335D01*
X159018062Y-111588467D01*
X158984070Y-111642563D01*
X158945471Y-111709421D01*
X158934185Y-111721954D01*
X158924301Y-111737686D01*
X158881326Y-111780660D01*
X158835418Y-111831647D01*
X158816848Y-111845138D01*
X158799686Y-111862301D01*
X158751890Y-111892332D01*
X158702360Y-111928319D01*
X158675799Y-111940144D01*
X158650467Y-111956062D01*
X158601794Y-111973093D01*
X158552110Y-111995214D01*
X158517634Y-112002542D01*
X158484124Y-112014268D01*
X158438043Y-112019460D01*
X158391234Y-112029410D01*
X158349737Y-112029410D01*
X158309000Y-112034000D01*
X158268263Y-112029410D01*
X158226766Y-112029410D01*
X158179955Y-112019460D01*
X158133876Y-112014268D01*
X158100366Y-112002542D01*
X158065889Y-111995214D01*
X158016201Y-111973091D01*
X157967533Y-111956062D01*
X157942202Y-111940145D01*
X157915639Y-111928319D01*
X157866101Y-111892328D01*
X157818314Y-111862301D01*
X157801154Y-111845141D01*
X157782581Y-111831647D01*
X157736663Y-111780650D01*
X157693699Y-111737686D01*
X157683816Y-111721958D01*
X157672528Y-111709421D01*
X157633917Y-111642544D01*
X157599938Y-111588467D01*
X157595694Y-111576339D01*
X157590297Y-111566991D01*
X157562652Y-111481911D01*
X157541732Y-111422124D01*
X157540938Y-111415084D01*
X157539471Y-111410567D01*
X157526165Y-111283969D01*
X157522000Y-111247000D01*
X157526165Y-111210033D01*
X157539471Y-111083432D01*
X157540938Y-111078914D01*
X157541732Y-111071876D01*
X157562648Y-111012101D01*
X157590297Y-110927008D01*
X157595695Y-110917657D01*
X157599938Y-110905533D01*
X157633909Y-110851467D01*
X157672528Y-110784578D01*
X157683818Y-110772038D01*
X157693699Y-110756314D01*
X157736654Y-110713358D01*
X157782581Y-110662352D01*
X157801157Y-110648855D01*
X157818314Y-110631699D01*
X157866096Y-110601675D01*
X157915640Y-110565680D01*
X157942206Y-110553852D01*
X157967533Y-110537938D01*
X158016192Y-110520911D01*
X158065889Y-110498785D01*
X158100372Y-110491455D01*
X158133876Y-110479732D01*
X158179952Y-110474540D01*
X158226766Y-110464590D01*
X158268263Y-110464590D01*
X158309000Y-110460000D01*
X158349737Y-110464590D01*
G37*
G36*
X160889737Y-110464590D02*
G01*
X160931234Y-110464590D01*
X160978046Y-110474540D01*
X161024124Y-110479732D01*
X161057628Y-110491455D01*
X161092110Y-110498785D01*
X161141804Y-110520910D01*
X161190467Y-110537938D01*
X161215794Y-110553852D01*
X161242360Y-110565680D01*
X161291901Y-110601673D01*
X161339686Y-110631699D01*
X161356844Y-110648857D01*
X161375418Y-110662352D01*
X161421335Y-110713348D01*
X161464301Y-110756314D01*
X161474183Y-110772042D01*
X161485471Y-110784578D01*
X161524077Y-110851447D01*
X161558062Y-110905533D01*
X161562306Y-110917661D01*
X161567702Y-110927008D01*
X161595337Y-111012061D01*
X161616268Y-111071876D01*
X161617061Y-111078918D01*
X161618528Y-111083432D01*
X161631819Y-111209901D01*
X161636000Y-111247000D01*
X161631819Y-111284101D01*
X161618528Y-111410567D01*
X161617061Y-111415079D01*
X161616268Y-111422124D01*
X161595333Y-111481951D01*
X161567702Y-111566991D01*
X161562306Y-111576335D01*
X161558062Y-111588467D01*
X161524070Y-111642563D01*
X161485471Y-111709421D01*
X161474185Y-111721954D01*
X161464301Y-111737686D01*
X161421326Y-111780660D01*
X161375418Y-111831647D01*
X161356848Y-111845138D01*
X161339686Y-111862301D01*
X161291890Y-111892332D01*
X161242360Y-111928319D01*
X161215799Y-111940144D01*
X161190467Y-111956062D01*
X161141794Y-111973093D01*
X161092110Y-111995214D01*
X161057634Y-112002542D01*
X161024124Y-112014268D01*
X160978043Y-112019460D01*
X160931234Y-112029410D01*
X160889737Y-112029410D01*
X160849000Y-112034000D01*
X160808263Y-112029410D01*
X160766766Y-112029410D01*
X160719955Y-112019460D01*
X160673876Y-112014268D01*
X160640366Y-112002542D01*
X160605889Y-111995214D01*
X160556201Y-111973091D01*
X160507533Y-111956062D01*
X160482202Y-111940145D01*
X160455639Y-111928319D01*
X160406101Y-111892328D01*
X160358314Y-111862301D01*
X160341154Y-111845141D01*
X160322581Y-111831647D01*
X160276663Y-111780650D01*
X160233699Y-111737686D01*
X160223816Y-111721958D01*
X160212528Y-111709421D01*
X160173917Y-111642544D01*
X160139938Y-111588467D01*
X160135694Y-111576339D01*
X160130297Y-111566991D01*
X160102652Y-111481911D01*
X160081732Y-111422124D01*
X160080938Y-111415084D01*
X160079471Y-111410567D01*
X160066165Y-111283969D01*
X160062000Y-111247000D01*
X160066165Y-111210033D01*
X160079471Y-111083432D01*
X160080938Y-111078914D01*
X160081732Y-111071876D01*
X160102648Y-111012101D01*
X160130297Y-110927008D01*
X160135695Y-110917657D01*
X160139938Y-110905533D01*
X160173909Y-110851467D01*
X160212528Y-110784578D01*
X160223818Y-110772038D01*
X160233699Y-110756314D01*
X160276654Y-110713358D01*
X160322581Y-110662352D01*
X160341157Y-110648855D01*
X160358314Y-110631699D01*
X160406096Y-110601675D01*
X160455640Y-110565680D01*
X160482206Y-110553852D01*
X160507533Y-110537938D01*
X160556192Y-110520911D01*
X160605889Y-110498785D01*
X160640372Y-110491455D01*
X160673876Y-110479732D01*
X160719952Y-110474540D01*
X160766766Y-110464590D01*
X160808263Y-110464590D01*
X160849000Y-110460000D01*
X160889737Y-110464590D01*
G37*
G36*
X163429737Y-110464590D02*
G01*
X163471234Y-110464590D01*
X163518046Y-110474540D01*
X163564124Y-110479732D01*
X163597628Y-110491455D01*
X163632110Y-110498785D01*
X163681804Y-110520910D01*
X163730467Y-110537938D01*
X163755794Y-110553852D01*
X163782360Y-110565680D01*
X163831901Y-110601673D01*
X163879686Y-110631699D01*
X163896844Y-110648857D01*
X163915418Y-110662352D01*
X163961335Y-110713348D01*
X164004301Y-110756314D01*
X164014183Y-110772042D01*
X164025471Y-110784578D01*
X164064077Y-110851447D01*
X164098062Y-110905533D01*
X164102306Y-110917661D01*
X164107702Y-110927008D01*
X164135337Y-111012061D01*
X164156268Y-111071876D01*
X164157061Y-111078918D01*
X164158528Y-111083432D01*
X164171819Y-111209901D01*
X164176000Y-111247000D01*
X164171819Y-111284101D01*
X164158528Y-111410567D01*
X164157061Y-111415079D01*
X164156268Y-111422124D01*
X164135333Y-111481951D01*
X164107702Y-111566991D01*
X164102306Y-111576335D01*
X164098062Y-111588467D01*
X164064070Y-111642563D01*
X164025471Y-111709421D01*
X164014185Y-111721954D01*
X164004301Y-111737686D01*
X163961326Y-111780660D01*
X163915418Y-111831647D01*
X163896848Y-111845138D01*
X163879686Y-111862301D01*
X163831890Y-111892332D01*
X163782360Y-111928319D01*
X163755799Y-111940144D01*
X163730467Y-111956062D01*
X163681794Y-111973093D01*
X163632110Y-111995214D01*
X163597634Y-112002542D01*
X163564124Y-112014268D01*
X163518043Y-112019460D01*
X163471234Y-112029410D01*
X163429737Y-112029410D01*
X163389000Y-112034000D01*
X163348263Y-112029410D01*
X163306766Y-112029410D01*
X163259955Y-112019460D01*
X163213876Y-112014268D01*
X163180366Y-112002542D01*
X163145889Y-111995214D01*
X163096201Y-111973091D01*
X163047533Y-111956062D01*
X163022202Y-111940145D01*
X162995639Y-111928319D01*
X162946101Y-111892328D01*
X162898314Y-111862301D01*
X162881154Y-111845141D01*
X162862581Y-111831647D01*
X162816663Y-111780650D01*
X162773699Y-111737686D01*
X162763816Y-111721958D01*
X162752528Y-111709421D01*
X162713917Y-111642544D01*
X162679938Y-111588467D01*
X162675694Y-111576339D01*
X162670297Y-111566991D01*
X162642652Y-111481911D01*
X162621732Y-111422124D01*
X162620938Y-111415084D01*
X162619471Y-111410567D01*
X162606165Y-111283969D01*
X162602000Y-111247000D01*
X162606165Y-111210033D01*
X162619471Y-111083432D01*
X162620938Y-111078914D01*
X162621732Y-111071876D01*
X162642648Y-111012101D01*
X162670297Y-110927008D01*
X162675695Y-110917657D01*
X162679938Y-110905533D01*
X162713909Y-110851467D01*
X162752528Y-110784578D01*
X162763818Y-110772038D01*
X162773699Y-110756314D01*
X162816654Y-110713358D01*
X162862581Y-110662352D01*
X162881157Y-110648855D01*
X162898314Y-110631699D01*
X162946096Y-110601675D01*
X162995640Y-110565680D01*
X163022206Y-110553852D01*
X163047533Y-110537938D01*
X163096192Y-110520911D01*
X163145889Y-110498785D01*
X163180372Y-110491455D01*
X163213876Y-110479732D01*
X163259952Y-110474540D01*
X163306766Y-110464590D01*
X163348263Y-110464590D01*
X163389000Y-110460000D01*
X163429737Y-110464590D01*
G37*
G36*
X165969737Y-110464590D02*
G01*
X166011234Y-110464590D01*
X166058046Y-110474540D01*
X166104124Y-110479732D01*
X166137628Y-110491455D01*
X166172110Y-110498785D01*
X166221804Y-110520910D01*
X166270467Y-110537938D01*
X166295794Y-110553852D01*
X166322360Y-110565680D01*
X166371901Y-110601673D01*
X166419686Y-110631699D01*
X166436844Y-110648857D01*
X166455418Y-110662352D01*
X166501335Y-110713348D01*
X166544301Y-110756314D01*
X166554183Y-110772042D01*
X166565471Y-110784578D01*
X166604077Y-110851447D01*
X166638062Y-110905533D01*
X166642306Y-110917661D01*
X166647702Y-110927008D01*
X166675337Y-111012061D01*
X166696268Y-111071876D01*
X166697061Y-111078918D01*
X166698528Y-111083432D01*
X166711819Y-111209901D01*
X166716000Y-111247000D01*
X166711819Y-111284101D01*
X166698528Y-111410567D01*
X166697061Y-111415079D01*
X166696268Y-111422124D01*
X166675333Y-111481951D01*
X166647702Y-111566991D01*
X166642306Y-111576335D01*
X166638062Y-111588467D01*
X166604070Y-111642563D01*
X166565471Y-111709421D01*
X166554185Y-111721954D01*
X166544301Y-111737686D01*
X166501326Y-111780660D01*
X166455418Y-111831647D01*
X166436848Y-111845138D01*
X166419686Y-111862301D01*
X166371890Y-111892332D01*
X166322360Y-111928319D01*
X166295799Y-111940144D01*
X166270467Y-111956062D01*
X166221794Y-111973093D01*
X166172110Y-111995214D01*
X166137634Y-112002542D01*
X166104124Y-112014268D01*
X166058043Y-112019460D01*
X166011234Y-112029410D01*
X165969737Y-112029410D01*
X165929000Y-112034000D01*
X165888263Y-112029410D01*
X165846766Y-112029410D01*
X165799955Y-112019460D01*
X165753876Y-112014268D01*
X165720366Y-112002542D01*
X165685889Y-111995214D01*
X165636201Y-111973091D01*
X165587533Y-111956062D01*
X165562202Y-111940145D01*
X165535639Y-111928319D01*
X165486101Y-111892328D01*
X165438314Y-111862301D01*
X165421154Y-111845141D01*
X165402581Y-111831647D01*
X165356663Y-111780650D01*
X165313699Y-111737686D01*
X165303816Y-111721958D01*
X165292528Y-111709421D01*
X165253917Y-111642544D01*
X165219938Y-111588467D01*
X165215694Y-111576339D01*
X165210297Y-111566991D01*
X165182652Y-111481911D01*
X165161732Y-111422124D01*
X165160938Y-111415084D01*
X165159471Y-111410567D01*
X165146165Y-111283969D01*
X165142000Y-111247000D01*
X165146165Y-111210033D01*
X165159471Y-111083432D01*
X165160938Y-111078914D01*
X165161732Y-111071876D01*
X165182648Y-111012101D01*
X165210297Y-110927008D01*
X165215695Y-110917657D01*
X165219938Y-110905533D01*
X165253909Y-110851467D01*
X165292528Y-110784578D01*
X165303818Y-110772038D01*
X165313699Y-110756314D01*
X165356654Y-110713358D01*
X165402581Y-110662352D01*
X165421157Y-110648855D01*
X165438314Y-110631699D01*
X165486096Y-110601675D01*
X165535640Y-110565680D01*
X165562206Y-110553852D01*
X165587533Y-110537938D01*
X165636192Y-110520911D01*
X165685889Y-110498785D01*
X165720372Y-110491455D01*
X165753876Y-110479732D01*
X165799952Y-110474540D01*
X165846766Y-110464590D01*
X165888263Y-110464590D01*
X165929000Y-110460000D01*
X165969737Y-110464590D01*
G37*
G36*
X124627737Y-107040590D02*
G01*
X124669234Y-107040590D01*
X124716046Y-107050540D01*
X124762124Y-107055732D01*
X124795628Y-107067455D01*
X124830110Y-107074785D01*
X124879804Y-107096910D01*
X124928467Y-107113938D01*
X124953794Y-107129852D01*
X124980360Y-107141680D01*
X125029901Y-107177673D01*
X125077686Y-107207699D01*
X125094844Y-107224857D01*
X125113418Y-107238352D01*
X125159335Y-107289348D01*
X125202301Y-107332314D01*
X125212183Y-107348042D01*
X125223471Y-107360578D01*
X125262077Y-107427447D01*
X125296062Y-107481533D01*
X125300306Y-107493661D01*
X125305702Y-107503008D01*
X125333337Y-107588061D01*
X125354268Y-107647876D01*
X125355061Y-107654918D01*
X125356528Y-107659432D01*
X125369819Y-107785901D01*
X125374000Y-107823000D01*
X125369819Y-107860101D01*
X125356528Y-107986567D01*
X125355061Y-107991079D01*
X125354268Y-107998124D01*
X125333333Y-108057951D01*
X125305702Y-108142991D01*
X125300306Y-108152335D01*
X125296062Y-108164467D01*
X125262070Y-108218563D01*
X125223471Y-108285421D01*
X125212185Y-108297954D01*
X125202301Y-108313686D01*
X125159326Y-108356660D01*
X125113418Y-108407647D01*
X125094848Y-108421138D01*
X125077686Y-108438301D01*
X125029890Y-108468332D01*
X124980360Y-108504319D01*
X124953799Y-108516144D01*
X124928467Y-108532062D01*
X124879794Y-108549093D01*
X124830110Y-108571214D01*
X124795634Y-108578542D01*
X124762124Y-108590268D01*
X124716043Y-108595460D01*
X124669234Y-108605410D01*
X124627737Y-108605410D01*
X124587000Y-108610000D01*
X124546263Y-108605410D01*
X124504766Y-108605410D01*
X124457955Y-108595460D01*
X124411876Y-108590268D01*
X124378366Y-108578542D01*
X124343889Y-108571214D01*
X124294201Y-108549091D01*
X124245533Y-108532062D01*
X124220202Y-108516145D01*
X124193639Y-108504319D01*
X124144101Y-108468328D01*
X124096314Y-108438301D01*
X124079154Y-108421141D01*
X124060581Y-108407647D01*
X124014663Y-108356650D01*
X123971699Y-108313686D01*
X123961816Y-108297958D01*
X123950528Y-108285421D01*
X123911917Y-108218544D01*
X123877938Y-108164467D01*
X123873694Y-108152339D01*
X123868297Y-108142991D01*
X123840652Y-108057911D01*
X123819732Y-107998124D01*
X123818938Y-107991084D01*
X123817471Y-107986567D01*
X123804165Y-107859969D01*
X123800000Y-107823000D01*
X123804165Y-107786033D01*
X123817471Y-107659432D01*
X123818938Y-107654914D01*
X123819732Y-107647876D01*
X123840648Y-107588101D01*
X123868297Y-107503008D01*
X123873695Y-107493657D01*
X123877938Y-107481533D01*
X123911909Y-107427467D01*
X123950528Y-107360578D01*
X123961818Y-107348038D01*
X123971699Y-107332314D01*
X124014654Y-107289358D01*
X124060581Y-107238352D01*
X124079157Y-107224855D01*
X124096314Y-107207699D01*
X124144096Y-107177675D01*
X124193640Y-107141680D01*
X124220206Y-107129852D01*
X124245533Y-107113938D01*
X124294192Y-107096911D01*
X124343889Y-107074785D01*
X124378372Y-107067455D01*
X124411876Y-107055732D01*
X124457952Y-107050540D01*
X124504766Y-107040590D01*
X124546263Y-107040590D01*
X124587000Y-107036000D01*
X124627737Y-107040590D01*
G37*
G36*
X178602737Y-107040590D02*
G01*
X178644234Y-107040590D01*
X178691046Y-107050540D01*
X178737124Y-107055732D01*
X178770628Y-107067455D01*
X178805110Y-107074785D01*
X178854804Y-107096910D01*
X178903467Y-107113938D01*
X178928794Y-107129852D01*
X178955360Y-107141680D01*
X179004901Y-107177673D01*
X179052686Y-107207699D01*
X179069844Y-107224857D01*
X179088418Y-107238352D01*
X179134335Y-107289348D01*
X179177301Y-107332314D01*
X179187183Y-107348042D01*
X179198471Y-107360578D01*
X179237077Y-107427447D01*
X179271062Y-107481533D01*
X179275306Y-107493661D01*
X179280702Y-107503008D01*
X179308337Y-107588061D01*
X179329268Y-107647876D01*
X179330061Y-107654918D01*
X179331528Y-107659432D01*
X179344819Y-107785901D01*
X179349000Y-107823000D01*
X179344819Y-107860101D01*
X179331528Y-107986567D01*
X179330061Y-107991079D01*
X179329268Y-107998124D01*
X179308333Y-108057951D01*
X179280702Y-108142991D01*
X179275306Y-108152335D01*
X179271062Y-108164467D01*
X179237070Y-108218563D01*
X179198471Y-108285421D01*
X179187185Y-108297954D01*
X179177301Y-108313686D01*
X179134326Y-108356660D01*
X179088418Y-108407647D01*
X179069848Y-108421138D01*
X179052686Y-108438301D01*
X179004890Y-108468332D01*
X178955360Y-108504319D01*
X178928799Y-108516144D01*
X178903467Y-108532062D01*
X178854794Y-108549093D01*
X178805110Y-108571214D01*
X178770634Y-108578542D01*
X178737124Y-108590268D01*
X178691043Y-108595460D01*
X178644234Y-108605410D01*
X178602737Y-108605410D01*
X178562000Y-108610000D01*
X178521263Y-108605410D01*
X178479766Y-108605410D01*
X178432955Y-108595460D01*
X178386876Y-108590268D01*
X178353366Y-108578542D01*
X178318889Y-108571214D01*
X178269201Y-108549091D01*
X178220533Y-108532062D01*
X178195202Y-108516145D01*
X178168639Y-108504319D01*
X178119101Y-108468328D01*
X178071314Y-108438301D01*
X178054154Y-108421141D01*
X178035581Y-108407647D01*
X177989663Y-108356650D01*
X177946699Y-108313686D01*
X177936816Y-108297958D01*
X177925528Y-108285421D01*
X177886917Y-108218544D01*
X177852938Y-108164467D01*
X177848694Y-108152339D01*
X177843297Y-108142991D01*
X177815652Y-108057911D01*
X177794732Y-107998124D01*
X177793938Y-107991084D01*
X177792471Y-107986567D01*
X177779165Y-107859969D01*
X177775000Y-107823000D01*
X177779165Y-107786033D01*
X177792471Y-107659432D01*
X177793938Y-107654914D01*
X177794732Y-107647876D01*
X177815648Y-107588101D01*
X177843297Y-107503008D01*
X177848695Y-107493657D01*
X177852938Y-107481533D01*
X177886909Y-107427467D01*
X177925528Y-107360578D01*
X177936818Y-107348038D01*
X177946699Y-107332314D01*
X177989654Y-107289358D01*
X178035581Y-107238352D01*
X178054157Y-107224855D01*
X178071314Y-107207699D01*
X178119096Y-107177675D01*
X178168640Y-107141680D01*
X178195206Y-107129852D01*
X178220533Y-107113938D01*
X178269192Y-107096911D01*
X178318889Y-107074785D01*
X178353372Y-107067455D01*
X178386876Y-107055732D01*
X178432952Y-107050540D01*
X178479766Y-107040590D01*
X178521263Y-107040590D01*
X178562000Y-107036000D01*
X178602737Y-107040590D01*
G37*
G36*
X124627737Y-104500590D02*
G01*
X124669234Y-104500590D01*
X124716046Y-104510540D01*
X124762124Y-104515732D01*
X124795628Y-104527455D01*
X124830110Y-104534785D01*
X124879804Y-104556910D01*
X124928467Y-104573938D01*
X124953794Y-104589852D01*
X124980360Y-104601680D01*
X125029901Y-104637673D01*
X125077686Y-104667699D01*
X125094844Y-104684857D01*
X125113418Y-104698352D01*
X125159335Y-104749348D01*
X125202301Y-104792314D01*
X125212183Y-104808042D01*
X125223471Y-104820578D01*
X125262077Y-104887447D01*
X125296062Y-104941533D01*
X125300306Y-104953661D01*
X125305702Y-104963008D01*
X125333337Y-105048061D01*
X125354268Y-105107876D01*
X125355061Y-105114918D01*
X125356528Y-105119432D01*
X125369819Y-105245901D01*
X125374000Y-105283000D01*
X125369819Y-105320101D01*
X125356528Y-105446567D01*
X125355061Y-105451079D01*
X125354268Y-105458124D01*
X125333333Y-105517951D01*
X125305702Y-105602991D01*
X125300306Y-105612335D01*
X125296062Y-105624467D01*
X125262070Y-105678563D01*
X125223471Y-105745421D01*
X125212185Y-105757954D01*
X125202301Y-105773686D01*
X125159326Y-105816660D01*
X125113418Y-105867647D01*
X125094848Y-105881138D01*
X125077686Y-105898301D01*
X125029890Y-105928332D01*
X124980360Y-105964319D01*
X124953799Y-105976144D01*
X124928467Y-105992062D01*
X124879794Y-106009093D01*
X124830110Y-106031214D01*
X124795634Y-106038542D01*
X124762124Y-106050268D01*
X124716043Y-106055460D01*
X124669234Y-106065410D01*
X124627737Y-106065410D01*
X124587000Y-106070000D01*
X124546263Y-106065410D01*
X124504766Y-106065410D01*
X124457955Y-106055460D01*
X124411876Y-106050268D01*
X124378366Y-106038542D01*
X124343889Y-106031214D01*
X124294201Y-106009091D01*
X124245533Y-105992062D01*
X124220202Y-105976145D01*
X124193639Y-105964319D01*
X124144101Y-105928328D01*
X124096314Y-105898301D01*
X124079154Y-105881141D01*
X124060581Y-105867647D01*
X124014663Y-105816650D01*
X123971699Y-105773686D01*
X123961816Y-105757958D01*
X123950528Y-105745421D01*
X123911917Y-105678544D01*
X123877938Y-105624467D01*
X123873694Y-105612339D01*
X123868297Y-105602991D01*
X123840652Y-105517911D01*
X123819732Y-105458124D01*
X123818938Y-105451084D01*
X123817471Y-105446567D01*
X123804165Y-105319969D01*
X123800000Y-105283000D01*
X123804165Y-105246033D01*
X123817471Y-105119432D01*
X123818938Y-105114914D01*
X123819732Y-105107876D01*
X123840648Y-105048101D01*
X123868297Y-104963008D01*
X123873695Y-104953657D01*
X123877938Y-104941533D01*
X123911909Y-104887467D01*
X123950528Y-104820578D01*
X123961818Y-104808038D01*
X123971699Y-104792314D01*
X124014654Y-104749358D01*
X124060581Y-104698352D01*
X124079157Y-104684855D01*
X124096314Y-104667699D01*
X124144096Y-104637675D01*
X124193640Y-104601680D01*
X124220206Y-104589852D01*
X124245533Y-104573938D01*
X124294192Y-104556911D01*
X124343889Y-104534785D01*
X124378372Y-104527455D01*
X124411876Y-104515732D01*
X124457952Y-104510540D01*
X124504766Y-104500590D01*
X124546263Y-104500590D01*
X124587000Y-104496000D01*
X124627737Y-104500590D01*
G37*
G36*
X178602737Y-104500590D02*
G01*
X178644234Y-104500590D01*
X178691046Y-104510540D01*
X178737124Y-104515732D01*
X178770628Y-104527455D01*
X178805110Y-104534785D01*
X178854804Y-104556910D01*
X178903467Y-104573938D01*
X178928794Y-104589852D01*
X178955360Y-104601680D01*
X179004901Y-104637673D01*
X179052686Y-104667699D01*
X179069844Y-104684857D01*
X179088418Y-104698352D01*
X179134335Y-104749348D01*
X179177301Y-104792314D01*
X179187183Y-104808042D01*
X179198471Y-104820578D01*
X179237077Y-104887447D01*
X179271062Y-104941533D01*
X179275306Y-104953661D01*
X179280702Y-104963008D01*
X179308337Y-105048061D01*
X179329268Y-105107876D01*
X179330061Y-105114918D01*
X179331528Y-105119432D01*
X179344819Y-105245901D01*
X179349000Y-105283000D01*
X179344819Y-105320101D01*
X179331528Y-105446567D01*
X179330061Y-105451079D01*
X179329268Y-105458124D01*
X179308333Y-105517951D01*
X179280702Y-105602991D01*
X179275306Y-105612335D01*
X179271062Y-105624467D01*
X179237070Y-105678563D01*
X179198471Y-105745421D01*
X179187185Y-105757954D01*
X179177301Y-105773686D01*
X179134326Y-105816660D01*
X179088418Y-105867647D01*
X179069848Y-105881138D01*
X179052686Y-105898301D01*
X179004890Y-105928332D01*
X178955360Y-105964319D01*
X178928799Y-105976144D01*
X178903467Y-105992062D01*
X178854794Y-106009093D01*
X178805110Y-106031214D01*
X178770634Y-106038542D01*
X178737124Y-106050268D01*
X178691043Y-106055460D01*
X178644234Y-106065410D01*
X178602737Y-106065410D01*
X178562000Y-106070000D01*
X178521263Y-106065410D01*
X178479766Y-106065410D01*
X178432955Y-106055460D01*
X178386876Y-106050268D01*
X178353366Y-106038542D01*
X178318889Y-106031214D01*
X178269201Y-106009091D01*
X178220533Y-105992062D01*
X178195202Y-105976145D01*
X178168639Y-105964319D01*
X178119101Y-105928328D01*
X178071314Y-105898301D01*
X178054154Y-105881141D01*
X178035581Y-105867647D01*
X177989663Y-105816650D01*
X177946699Y-105773686D01*
X177936816Y-105757958D01*
X177925528Y-105745421D01*
X177886917Y-105678544D01*
X177852938Y-105624467D01*
X177848694Y-105612339D01*
X177843297Y-105602991D01*
X177815652Y-105517911D01*
X177794732Y-105458124D01*
X177793938Y-105451084D01*
X177792471Y-105446567D01*
X177779165Y-105319969D01*
X177775000Y-105283000D01*
X177779165Y-105246033D01*
X177792471Y-105119432D01*
X177793938Y-105114914D01*
X177794732Y-105107876D01*
X177815648Y-105048101D01*
X177843297Y-104963008D01*
X177848695Y-104953657D01*
X177852938Y-104941533D01*
X177886909Y-104887467D01*
X177925528Y-104820578D01*
X177936818Y-104808038D01*
X177946699Y-104792314D01*
X177989654Y-104749358D01*
X178035581Y-104698352D01*
X178054157Y-104684855D01*
X178071314Y-104667699D01*
X178119096Y-104637675D01*
X178168640Y-104601680D01*
X178195206Y-104589852D01*
X178220533Y-104573938D01*
X178269192Y-104556911D01*
X178318889Y-104534785D01*
X178353372Y-104527455D01*
X178386876Y-104515732D01*
X178432952Y-104510540D01*
X178479766Y-104500590D01*
X178521263Y-104500590D01*
X178562000Y-104496000D01*
X178602737Y-104500590D01*
G37*
G36*
X124627737Y-101960590D02*
G01*
X124669234Y-101960590D01*
X124716046Y-101970540D01*
X124762124Y-101975732D01*
X124795628Y-101987455D01*
X124830110Y-101994785D01*
X124879804Y-102016910D01*
X124928467Y-102033938D01*
X124953794Y-102049852D01*
X124980360Y-102061680D01*
X125029901Y-102097673D01*
X125077686Y-102127699D01*
X125094844Y-102144857D01*
X125113418Y-102158352D01*
X125159335Y-102209348D01*
X125202301Y-102252314D01*
X125212183Y-102268042D01*
X125223471Y-102280578D01*
X125262077Y-102347447D01*
X125296062Y-102401533D01*
X125300306Y-102413661D01*
X125305702Y-102423008D01*
X125333337Y-102508061D01*
X125354268Y-102567876D01*
X125355061Y-102574918D01*
X125356528Y-102579432D01*
X125369819Y-102705901D01*
X125374000Y-102743000D01*
X125369819Y-102780101D01*
X125356528Y-102906567D01*
X125355061Y-102911079D01*
X125354268Y-102918124D01*
X125333333Y-102977951D01*
X125305702Y-103062991D01*
X125300306Y-103072335D01*
X125296062Y-103084467D01*
X125262070Y-103138563D01*
X125223471Y-103205421D01*
X125212185Y-103217954D01*
X125202301Y-103233686D01*
X125159326Y-103276660D01*
X125113418Y-103327647D01*
X125094848Y-103341138D01*
X125077686Y-103358301D01*
X125029890Y-103388332D01*
X124980360Y-103424319D01*
X124953799Y-103436144D01*
X124928467Y-103452062D01*
X124879794Y-103469093D01*
X124830110Y-103491214D01*
X124795634Y-103498542D01*
X124762124Y-103510268D01*
X124716043Y-103515460D01*
X124669234Y-103525410D01*
X124627737Y-103525410D01*
X124587000Y-103530000D01*
X124546263Y-103525410D01*
X124504766Y-103525410D01*
X124457955Y-103515460D01*
X124411876Y-103510268D01*
X124378366Y-103498542D01*
X124343889Y-103491214D01*
X124294201Y-103469091D01*
X124245533Y-103452062D01*
X124220202Y-103436145D01*
X124193639Y-103424319D01*
X124144101Y-103388328D01*
X124096314Y-103358301D01*
X124079154Y-103341141D01*
X124060581Y-103327647D01*
X124014663Y-103276650D01*
X123971699Y-103233686D01*
X123961816Y-103217958D01*
X123950528Y-103205421D01*
X123911917Y-103138544D01*
X123877938Y-103084467D01*
X123873694Y-103072339D01*
X123868297Y-103062991D01*
X123840652Y-102977911D01*
X123819732Y-102918124D01*
X123818938Y-102911084D01*
X123817471Y-102906567D01*
X123804165Y-102779969D01*
X123800000Y-102743000D01*
X123804165Y-102706033D01*
X123817471Y-102579432D01*
X123818938Y-102574914D01*
X123819732Y-102567876D01*
X123840648Y-102508101D01*
X123868297Y-102423008D01*
X123873695Y-102413657D01*
X123877938Y-102401533D01*
X123911909Y-102347467D01*
X123950528Y-102280578D01*
X123961818Y-102268038D01*
X123971699Y-102252314D01*
X124014654Y-102209358D01*
X124060581Y-102158352D01*
X124079157Y-102144855D01*
X124096314Y-102127699D01*
X124144096Y-102097675D01*
X124193640Y-102061680D01*
X124220206Y-102049852D01*
X124245533Y-102033938D01*
X124294192Y-102016911D01*
X124343889Y-101994785D01*
X124378372Y-101987455D01*
X124411876Y-101975732D01*
X124457952Y-101970540D01*
X124504766Y-101960590D01*
X124546263Y-101960590D01*
X124587000Y-101956000D01*
X124627737Y-101960590D01*
G37*
G36*
X178602737Y-101960590D02*
G01*
X178644234Y-101960590D01*
X178691046Y-101970540D01*
X178737124Y-101975732D01*
X178770628Y-101987455D01*
X178805110Y-101994785D01*
X178854804Y-102016910D01*
X178903467Y-102033938D01*
X178928794Y-102049852D01*
X178955360Y-102061680D01*
X179004901Y-102097673D01*
X179052686Y-102127699D01*
X179069844Y-102144857D01*
X179088418Y-102158352D01*
X179134335Y-102209348D01*
X179177301Y-102252314D01*
X179187183Y-102268042D01*
X179198471Y-102280578D01*
X179237077Y-102347447D01*
X179271062Y-102401533D01*
X179275306Y-102413661D01*
X179280702Y-102423008D01*
X179308337Y-102508061D01*
X179329268Y-102567876D01*
X179330061Y-102574918D01*
X179331528Y-102579432D01*
X179344819Y-102705901D01*
X179349000Y-102743000D01*
X179344819Y-102780101D01*
X179331528Y-102906567D01*
X179330061Y-102911079D01*
X179329268Y-102918124D01*
X179308333Y-102977951D01*
X179280702Y-103062991D01*
X179275306Y-103072335D01*
X179271062Y-103084467D01*
X179237070Y-103138563D01*
X179198471Y-103205421D01*
X179187185Y-103217954D01*
X179177301Y-103233686D01*
X179134326Y-103276660D01*
X179088418Y-103327647D01*
X179069848Y-103341138D01*
X179052686Y-103358301D01*
X179004890Y-103388332D01*
X178955360Y-103424319D01*
X178928799Y-103436144D01*
X178903467Y-103452062D01*
X178854794Y-103469093D01*
X178805110Y-103491214D01*
X178770634Y-103498542D01*
X178737124Y-103510268D01*
X178691043Y-103515460D01*
X178644234Y-103525410D01*
X178602737Y-103525410D01*
X178562000Y-103530000D01*
X178521263Y-103525410D01*
X178479766Y-103525410D01*
X178432955Y-103515460D01*
X178386876Y-103510268D01*
X178353366Y-103498542D01*
X178318889Y-103491214D01*
X178269201Y-103469091D01*
X178220533Y-103452062D01*
X178195202Y-103436145D01*
X178168639Y-103424319D01*
X178119101Y-103388328D01*
X178071314Y-103358301D01*
X178054154Y-103341141D01*
X178035581Y-103327647D01*
X177989663Y-103276650D01*
X177946699Y-103233686D01*
X177936816Y-103217958D01*
X177925528Y-103205421D01*
X177886917Y-103138544D01*
X177852938Y-103084467D01*
X177848694Y-103072339D01*
X177843297Y-103062991D01*
X177815652Y-102977911D01*
X177794732Y-102918124D01*
X177793938Y-102911084D01*
X177792471Y-102906567D01*
X177779165Y-102779969D01*
X177775000Y-102743000D01*
X177779165Y-102706033D01*
X177792471Y-102579432D01*
X177793938Y-102574914D01*
X177794732Y-102567876D01*
X177815648Y-102508101D01*
X177843297Y-102423008D01*
X177848695Y-102413657D01*
X177852938Y-102401533D01*
X177886909Y-102347467D01*
X177925528Y-102280578D01*
X177936818Y-102268038D01*
X177946699Y-102252314D01*
X177989654Y-102209358D01*
X178035581Y-102158352D01*
X178054157Y-102144855D01*
X178071314Y-102127699D01*
X178119096Y-102097675D01*
X178168640Y-102061680D01*
X178195206Y-102049852D01*
X178220533Y-102033938D01*
X178269192Y-102016911D01*
X178318889Y-101994785D01*
X178353372Y-101987455D01*
X178386876Y-101975732D01*
X178432952Y-101970540D01*
X178479766Y-101960590D01*
X178521263Y-101960590D01*
X178562000Y-101956000D01*
X178602737Y-101960590D01*
G37*
G36*
X124627737Y-99420590D02*
G01*
X124669234Y-99420590D01*
X124716046Y-99430540D01*
X124762124Y-99435732D01*
X124795628Y-99447455D01*
X124830110Y-99454785D01*
X124879804Y-99476910D01*
X124928467Y-99493938D01*
X124953794Y-99509852D01*
X124980360Y-99521680D01*
X125029901Y-99557673D01*
X125077686Y-99587699D01*
X125094844Y-99604857D01*
X125113418Y-99618352D01*
X125159335Y-99669348D01*
X125202301Y-99712314D01*
X125212183Y-99728042D01*
X125223471Y-99740578D01*
X125262077Y-99807447D01*
X125296062Y-99861533D01*
X125300306Y-99873661D01*
X125305702Y-99883008D01*
X125333337Y-99968061D01*
X125354268Y-100027876D01*
X125355061Y-100034918D01*
X125356528Y-100039432D01*
X125369819Y-100165901D01*
X125374000Y-100203000D01*
X125369819Y-100240101D01*
X125356528Y-100366567D01*
X125355061Y-100371079D01*
X125354268Y-100378124D01*
X125333333Y-100437951D01*
X125305702Y-100522991D01*
X125300306Y-100532335D01*
X125296062Y-100544467D01*
X125262070Y-100598563D01*
X125223471Y-100665421D01*
X125212185Y-100677954D01*
X125202301Y-100693686D01*
X125159326Y-100736660D01*
X125113418Y-100787647D01*
X125094848Y-100801138D01*
X125077686Y-100818301D01*
X125029890Y-100848332D01*
X124980360Y-100884319D01*
X124953799Y-100896144D01*
X124928467Y-100912062D01*
X124879794Y-100929093D01*
X124830110Y-100951214D01*
X124795634Y-100958542D01*
X124762124Y-100970268D01*
X124716043Y-100975460D01*
X124669234Y-100985410D01*
X124627737Y-100985410D01*
X124587000Y-100990000D01*
X124546263Y-100985410D01*
X124504766Y-100985410D01*
X124457955Y-100975460D01*
X124411876Y-100970268D01*
X124378366Y-100958542D01*
X124343889Y-100951214D01*
X124294201Y-100929091D01*
X124245533Y-100912062D01*
X124220202Y-100896145D01*
X124193639Y-100884319D01*
X124144101Y-100848328D01*
X124096314Y-100818301D01*
X124079154Y-100801141D01*
X124060581Y-100787647D01*
X124014663Y-100736650D01*
X123971699Y-100693686D01*
X123961816Y-100677958D01*
X123950528Y-100665421D01*
X123911917Y-100598544D01*
X123877938Y-100544467D01*
X123873694Y-100532339D01*
X123868297Y-100522991D01*
X123840652Y-100437911D01*
X123819732Y-100378124D01*
X123818938Y-100371084D01*
X123817471Y-100366567D01*
X123804165Y-100239969D01*
X123800000Y-100203000D01*
X123804165Y-100166033D01*
X123817471Y-100039432D01*
X123818938Y-100034914D01*
X123819732Y-100027876D01*
X123840648Y-99968101D01*
X123868297Y-99883008D01*
X123873695Y-99873657D01*
X123877938Y-99861533D01*
X123911909Y-99807467D01*
X123950528Y-99740578D01*
X123961818Y-99728038D01*
X123971699Y-99712314D01*
X124014654Y-99669358D01*
X124060581Y-99618352D01*
X124079157Y-99604855D01*
X124096314Y-99587699D01*
X124144096Y-99557675D01*
X124193640Y-99521680D01*
X124220206Y-99509852D01*
X124245533Y-99493938D01*
X124294192Y-99476911D01*
X124343889Y-99454785D01*
X124378372Y-99447455D01*
X124411876Y-99435732D01*
X124457952Y-99430540D01*
X124504766Y-99420590D01*
X124546263Y-99420590D01*
X124587000Y-99416000D01*
X124627737Y-99420590D01*
G37*
G36*
X178602737Y-99420590D02*
G01*
X178644234Y-99420590D01*
X178691046Y-99430540D01*
X178737124Y-99435732D01*
X178770628Y-99447455D01*
X178805110Y-99454785D01*
X178854804Y-99476910D01*
X178903467Y-99493938D01*
X178928794Y-99509852D01*
X178955360Y-99521680D01*
X179004901Y-99557673D01*
X179052686Y-99587699D01*
X179069844Y-99604857D01*
X179088418Y-99618352D01*
X179134335Y-99669348D01*
X179177301Y-99712314D01*
X179187183Y-99728042D01*
X179198471Y-99740578D01*
X179237077Y-99807447D01*
X179271062Y-99861533D01*
X179275306Y-99873661D01*
X179280702Y-99883008D01*
X179308337Y-99968061D01*
X179329268Y-100027876D01*
X179330061Y-100034918D01*
X179331528Y-100039432D01*
X179344819Y-100165901D01*
X179349000Y-100203000D01*
X179344819Y-100240101D01*
X179331528Y-100366567D01*
X179330061Y-100371079D01*
X179329268Y-100378124D01*
X179308333Y-100437951D01*
X179280702Y-100522991D01*
X179275306Y-100532335D01*
X179271062Y-100544467D01*
X179237070Y-100598563D01*
X179198471Y-100665421D01*
X179187185Y-100677954D01*
X179177301Y-100693686D01*
X179134326Y-100736660D01*
X179088418Y-100787647D01*
X179069848Y-100801138D01*
X179052686Y-100818301D01*
X179004890Y-100848332D01*
X178955360Y-100884319D01*
X178928799Y-100896144D01*
X178903467Y-100912062D01*
X178854794Y-100929093D01*
X178805110Y-100951214D01*
X178770634Y-100958542D01*
X178737124Y-100970268D01*
X178691043Y-100975460D01*
X178644234Y-100985410D01*
X178602737Y-100985410D01*
X178562000Y-100990000D01*
X178521263Y-100985410D01*
X178479766Y-100985410D01*
X178432955Y-100975460D01*
X178386876Y-100970268D01*
X178353366Y-100958542D01*
X178318889Y-100951214D01*
X178269201Y-100929091D01*
X178220533Y-100912062D01*
X178195202Y-100896145D01*
X178168639Y-100884319D01*
X178119101Y-100848328D01*
X178071314Y-100818301D01*
X178054154Y-100801141D01*
X178035581Y-100787647D01*
X177989663Y-100736650D01*
X177946699Y-100693686D01*
X177936816Y-100677958D01*
X177925528Y-100665421D01*
X177886917Y-100598544D01*
X177852938Y-100544467D01*
X177848694Y-100532339D01*
X177843297Y-100522991D01*
X177815652Y-100437911D01*
X177794732Y-100378124D01*
X177793938Y-100371084D01*
X177792471Y-100366567D01*
X177779165Y-100239969D01*
X177775000Y-100203000D01*
X177779165Y-100166033D01*
X177792471Y-100039432D01*
X177793938Y-100034914D01*
X177794732Y-100027876D01*
X177815648Y-99968101D01*
X177843297Y-99883008D01*
X177848695Y-99873657D01*
X177852938Y-99861533D01*
X177886909Y-99807467D01*
X177925528Y-99740578D01*
X177936818Y-99728038D01*
X177946699Y-99712314D01*
X177989654Y-99669358D01*
X178035581Y-99618352D01*
X178054157Y-99604855D01*
X178071314Y-99587699D01*
X178119096Y-99557675D01*
X178168640Y-99521680D01*
X178195206Y-99509852D01*
X178220533Y-99493938D01*
X178269192Y-99476911D01*
X178318889Y-99454785D01*
X178353372Y-99447455D01*
X178386876Y-99435732D01*
X178432952Y-99430540D01*
X178479766Y-99420590D01*
X178521263Y-99420590D01*
X178562000Y-99416000D01*
X178602737Y-99420590D01*
G37*
G36*
X124627737Y-96880590D02*
G01*
X124669234Y-96880590D01*
X124716046Y-96890540D01*
X124762124Y-96895732D01*
X124795628Y-96907455D01*
X124830110Y-96914785D01*
X124879804Y-96936910D01*
X124928467Y-96953938D01*
X124953794Y-96969852D01*
X124980360Y-96981680D01*
X125029901Y-97017673D01*
X125077686Y-97047699D01*
X125094844Y-97064857D01*
X125113418Y-97078352D01*
X125159335Y-97129348D01*
X125202301Y-97172314D01*
X125212183Y-97188042D01*
X125223471Y-97200578D01*
X125262077Y-97267447D01*
X125296062Y-97321533D01*
X125300306Y-97333661D01*
X125305702Y-97343008D01*
X125333337Y-97428061D01*
X125354268Y-97487876D01*
X125355061Y-97494918D01*
X125356528Y-97499432D01*
X125369819Y-97625901D01*
X125374000Y-97663000D01*
X125369819Y-97700101D01*
X125356528Y-97826567D01*
X125355061Y-97831079D01*
X125354268Y-97838124D01*
X125333333Y-97897951D01*
X125305702Y-97982991D01*
X125300306Y-97992335D01*
X125296062Y-98004467D01*
X125262070Y-98058563D01*
X125223471Y-98125421D01*
X125212185Y-98137954D01*
X125202301Y-98153686D01*
X125159326Y-98196660D01*
X125113418Y-98247647D01*
X125094848Y-98261138D01*
X125077686Y-98278301D01*
X125029890Y-98308332D01*
X124980360Y-98344319D01*
X124953799Y-98356144D01*
X124928467Y-98372062D01*
X124879794Y-98389093D01*
X124830110Y-98411214D01*
X124795634Y-98418542D01*
X124762124Y-98430268D01*
X124716043Y-98435460D01*
X124669234Y-98445410D01*
X124627737Y-98445410D01*
X124587000Y-98450000D01*
X124546263Y-98445410D01*
X124504766Y-98445410D01*
X124457955Y-98435460D01*
X124411876Y-98430268D01*
X124378366Y-98418542D01*
X124343889Y-98411214D01*
X124294201Y-98389091D01*
X124245533Y-98372062D01*
X124220202Y-98356145D01*
X124193639Y-98344319D01*
X124144101Y-98308328D01*
X124096314Y-98278301D01*
X124079154Y-98261141D01*
X124060581Y-98247647D01*
X124014663Y-98196650D01*
X123971699Y-98153686D01*
X123961816Y-98137958D01*
X123950528Y-98125421D01*
X123911917Y-98058544D01*
X123877938Y-98004467D01*
X123873694Y-97992339D01*
X123868297Y-97982991D01*
X123840652Y-97897911D01*
X123819732Y-97838124D01*
X123818938Y-97831084D01*
X123817471Y-97826567D01*
X123804165Y-97699969D01*
X123800000Y-97663000D01*
X123804165Y-97626033D01*
X123817471Y-97499432D01*
X123818938Y-97494914D01*
X123819732Y-97487876D01*
X123840648Y-97428101D01*
X123868297Y-97343008D01*
X123873695Y-97333657D01*
X123877938Y-97321533D01*
X123911909Y-97267467D01*
X123950528Y-97200578D01*
X123961818Y-97188038D01*
X123971699Y-97172314D01*
X124014654Y-97129358D01*
X124060581Y-97078352D01*
X124079157Y-97064855D01*
X124096314Y-97047699D01*
X124144096Y-97017675D01*
X124193640Y-96981680D01*
X124220206Y-96969852D01*
X124245533Y-96953938D01*
X124294192Y-96936911D01*
X124343889Y-96914785D01*
X124378372Y-96907455D01*
X124411876Y-96895732D01*
X124457952Y-96890540D01*
X124504766Y-96880590D01*
X124546263Y-96880590D01*
X124587000Y-96876000D01*
X124627737Y-96880590D01*
G37*
G36*
X178602737Y-96880590D02*
G01*
X178644234Y-96880590D01*
X178691046Y-96890540D01*
X178737124Y-96895732D01*
X178770628Y-96907455D01*
X178805110Y-96914785D01*
X178854804Y-96936910D01*
X178903467Y-96953938D01*
X178928794Y-96969852D01*
X178955360Y-96981680D01*
X179004901Y-97017673D01*
X179052686Y-97047699D01*
X179069844Y-97064857D01*
X179088418Y-97078352D01*
X179134335Y-97129348D01*
X179177301Y-97172314D01*
X179187183Y-97188042D01*
X179198471Y-97200578D01*
X179237077Y-97267447D01*
X179271062Y-97321533D01*
X179275306Y-97333661D01*
X179280702Y-97343008D01*
X179308337Y-97428061D01*
X179329268Y-97487876D01*
X179330061Y-97494918D01*
X179331528Y-97499432D01*
X179344819Y-97625901D01*
X179349000Y-97663000D01*
X179344819Y-97700101D01*
X179331528Y-97826567D01*
X179330061Y-97831079D01*
X179329268Y-97838124D01*
X179308333Y-97897951D01*
X179280702Y-97982991D01*
X179275306Y-97992335D01*
X179271062Y-98004467D01*
X179237070Y-98058563D01*
X179198471Y-98125421D01*
X179187185Y-98137954D01*
X179177301Y-98153686D01*
X179134326Y-98196660D01*
X179088418Y-98247647D01*
X179069848Y-98261138D01*
X179052686Y-98278301D01*
X179004890Y-98308332D01*
X178955360Y-98344319D01*
X178928799Y-98356144D01*
X178903467Y-98372062D01*
X178854794Y-98389093D01*
X178805110Y-98411214D01*
X178770634Y-98418542D01*
X178737124Y-98430268D01*
X178691043Y-98435460D01*
X178644234Y-98445410D01*
X178602737Y-98445410D01*
X178562000Y-98450000D01*
X178521263Y-98445410D01*
X178479766Y-98445410D01*
X178432955Y-98435460D01*
X178386876Y-98430268D01*
X178353366Y-98418542D01*
X178318889Y-98411214D01*
X178269201Y-98389091D01*
X178220533Y-98372062D01*
X178195202Y-98356145D01*
X178168639Y-98344319D01*
X178119101Y-98308328D01*
X178071314Y-98278301D01*
X178054154Y-98261141D01*
X178035581Y-98247647D01*
X177989663Y-98196650D01*
X177946699Y-98153686D01*
X177936816Y-98137958D01*
X177925528Y-98125421D01*
X177886917Y-98058544D01*
X177852938Y-98004467D01*
X177848694Y-97992339D01*
X177843297Y-97982991D01*
X177815652Y-97897911D01*
X177794732Y-97838124D01*
X177793938Y-97831084D01*
X177792471Y-97826567D01*
X177779165Y-97699969D01*
X177775000Y-97663000D01*
X177779165Y-97626033D01*
X177792471Y-97499432D01*
X177793938Y-97494914D01*
X177794732Y-97487876D01*
X177815648Y-97428101D01*
X177843297Y-97343008D01*
X177848695Y-97333657D01*
X177852938Y-97321533D01*
X177886909Y-97267467D01*
X177925528Y-97200578D01*
X177936818Y-97188038D01*
X177946699Y-97172314D01*
X177989654Y-97129358D01*
X178035581Y-97078352D01*
X178054157Y-97064855D01*
X178071314Y-97047699D01*
X178119096Y-97017675D01*
X178168640Y-96981680D01*
X178195206Y-96969852D01*
X178220533Y-96953938D01*
X178269192Y-96936911D01*
X178318889Y-96914785D01*
X178353372Y-96907455D01*
X178386876Y-96895732D01*
X178432952Y-96890540D01*
X178479766Y-96880590D01*
X178521263Y-96880590D01*
X178562000Y-96876000D01*
X178602737Y-96880590D01*
G37*
G36*
X124627737Y-94340590D02*
G01*
X124669234Y-94340590D01*
X124716046Y-94350540D01*
X124762124Y-94355732D01*
X124795628Y-94367455D01*
X124830110Y-94374785D01*
X124879804Y-94396910D01*
X124928467Y-94413938D01*
X124953794Y-94429852D01*
X124980360Y-94441680D01*
X125029901Y-94477673D01*
X125077686Y-94507699D01*
X125094844Y-94524857D01*
X125113418Y-94538352D01*
X125159335Y-94589348D01*
X125202301Y-94632314D01*
X125212183Y-94648042D01*
X125223471Y-94660578D01*
X125262077Y-94727447D01*
X125296062Y-94781533D01*
X125300306Y-94793661D01*
X125305702Y-94803008D01*
X125333337Y-94888061D01*
X125354268Y-94947876D01*
X125355061Y-94954918D01*
X125356528Y-94959432D01*
X125369819Y-95085901D01*
X125374000Y-95123000D01*
X125369819Y-95160101D01*
X125356528Y-95286567D01*
X125355061Y-95291079D01*
X125354268Y-95298124D01*
X125333333Y-95357951D01*
X125305702Y-95442991D01*
X125300306Y-95452335D01*
X125296062Y-95464467D01*
X125262070Y-95518563D01*
X125223471Y-95585421D01*
X125212185Y-95597954D01*
X125202301Y-95613686D01*
X125159326Y-95656660D01*
X125113418Y-95707647D01*
X125094848Y-95721138D01*
X125077686Y-95738301D01*
X125029890Y-95768332D01*
X124980360Y-95804319D01*
X124953799Y-95816144D01*
X124928467Y-95832062D01*
X124879794Y-95849093D01*
X124830110Y-95871214D01*
X124795634Y-95878542D01*
X124762124Y-95890268D01*
X124716043Y-95895460D01*
X124669234Y-95905410D01*
X124627737Y-95905410D01*
X124587000Y-95910000D01*
X124546263Y-95905410D01*
X124504766Y-95905410D01*
X124457955Y-95895460D01*
X124411876Y-95890268D01*
X124378366Y-95878542D01*
X124343889Y-95871214D01*
X124294201Y-95849091D01*
X124245533Y-95832062D01*
X124220202Y-95816145D01*
X124193639Y-95804319D01*
X124144101Y-95768328D01*
X124096314Y-95738301D01*
X124079154Y-95721141D01*
X124060581Y-95707647D01*
X124014663Y-95656650D01*
X123971699Y-95613686D01*
X123961816Y-95597958D01*
X123950528Y-95585421D01*
X123911917Y-95518544D01*
X123877938Y-95464467D01*
X123873694Y-95452339D01*
X123868297Y-95442991D01*
X123840652Y-95357911D01*
X123819732Y-95298124D01*
X123818938Y-95291084D01*
X123817471Y-95286567D01*
X123804165Y-95159969D01*
X123800000Y-95123000D01*
X123804165Y-95086033D01*
X123817471Y-94959432D01*
X123818938Y-94954914D01*
X123819732Y-94947876D01*
X123840648Y-94888101D01*
X123868297Y-94803008D01*
X123873695Y-94793657D01*
X123877938Y-94781533D01*
X123911909Y-94727467D01*
X123950528Y-94660578D01*
X123961818Y-94648038D01*
X123971699Y-94632314D01*
X124014654Y-94589358D01*
X124060581Y-94538352D01*
X124079157Y-94524855D01*
X124096314Y-94507699D01*
X124144096Y-94477675D01*
X124193640Y-94441680D01*
X124220206Y-94429852D01*
X124245533Y-94413938D01*
X124294192Y-94396911D01*
X124343889Y-94374785D01*
X124378372Y-94367455D01*
X124411876Y-94355732D01*
X124457952Y-94350540D01*
X124504766Y-94340590D01*
X124546263Y-94340590D01*
X124587000Y-94336000D01*
X124627737Y-94340590D01*
G37*
G36*
X178602737Y-94340590D02*
G01*
X178644234Y-94340590D01*
X178691046Y-94350540D01*
X178737124Y-94355732D01*
X178770628Y-94367455D01*
X178805110Y-94374785D01*
X178854804Y-94396910D01*
X178903467Y-94413938D01*
X178928794Y-94429852D01*
X178955360Y-94441680D01*
X179004901Y-94477673D01*
X179052686Y-94507699D01*
X179069844Y-94524857D01*
X179088418Y-94538352D01*
X179134335Y-94589348D01*
X179177301Y-94632314D01*
X179187183Y-94648042D01*
X179198471Y-94660578D01*
X179237077Y-94727447D01*
X179271062Y-94781533D01*
X179275306Y-94793661D01*
X179280702Y-94803008D01*
X179308337Y-94888061D01*
X179329268Y-94947876D01*
X179330061Y-94954918D01*
X179331528Y-94959432D01*
X179344819Y-95085901D01*
X179349000Y-95123000D01*
X179344819Y-95160101D01*
X179331528Y-95286567D01*
X179330061Y-95291079D01*
X179329268Y-95298124D01*
X179308333Y-95357951D01*
X179280702Y-95442991D01*
X179275306Y-95452335D01*
X179271062Y-95464467D01*
X179237070Y-95518563D01*
X179198471Y-95585421D01*
X179187185Y-95597954D01*
X179177301Y-95613686D01*
X179134326Y-95656660D01*
X179088418Y-95707647D01*
X179069848Y-95721138D01*
X179052686Y-95738301D01*
X179004890Y-95768332D01*
X178955360Y-95804319D01*
X178928799Y-95816144D01*
X178903467Y-95832062D01*
X178854794Y-95849093D01*
X178805110Y-95871214D01*
X178770634Y-95878542D01*
X178737124Y-95890268D01*
X178691043Y-95895460D01*
X178644234Y-95905410D01*
X178602737Y-95905410D01*
X178562000Y-95910000D01*
X178521263Y-95905410D01*
X178479766Y-95905410D01*
X178432955Y-95895460D01*
X178386876Y-95890268D01*
X178353366Y-95878542D01*
X178318889Y-95871214D01*
X178269201Y-95849091D01*
X178220533Y-95832062D01*
X178195202Y-95816145D01*
X178168639Y-95804319D01*
X178119101Y-95768328D01*
X178071314Y-95738301D01*
X178054154Y-95721141D01*
X178035581Y-95707647D01*
X177989663Y-95656650D01*
X177946699Y-95613686D01*
X177936816Y-95597958D01*
X177925528Y-95585421D01*
X177886917Y-95518544D01*
X177852938Y-95464467D01*
X177848694Y-95452339D01*
X177843297Y-95442991D01*
X177815652Y-95357911D01*
X177794732Y-95298124D01*
X177793938Y-95291084D01*
X177792471Y-95286567D01*
X177779165Y-95159969D01*
X177775000Y-95123000D01*
X177779165Y-95086033D01*
X177792471Y-94959432D01*
X177793938Y-94954914D01*
X177794732Y-94947876D01*
X177815648Y-94888101D01*
X177843297Y-94803008D01*
X177848695Y-94793657D01*
X177852938Y-94781533D01*
X177886909Y-94727467D01*
X177925528Y-94660578D01*
X177936818Y-94648038D01*
X177946699Y-94632314D01*
X177989654Y-94589358D01*
X178035581Y-94538352D01*
X178054157Y-94524855D01*
X178071314Y-94507699D01*
X178119096Y-94477675D01*
X178168640Y-94441680D01*
X178195206Y-94429852D01*
X178220533Y-94413938D01*
X178269192Y-94396911D01*
X178318889Y-94374785D01*
X178353372Y-94367455D01*
X178386876Y-94355732D01*
X178432952Y-94350540D01*
X178479766Y-94340590D01*
X178521263Y-94340590D01*
X178562000Y-94336000D01*
X178602737Y-94340590D01*
G37*
G36*
X124627737Y-91800590D02*
G01*
X124669234Y-91800590D01*
X124716046Y-91810540D01*
X124762124Y-91815732D01*
X124795628Y-91827455D01*
X124830110Y-91834785D01*
X124879804Y-91856910D01*
X124928467Y-91873938D01*
X124953794Y-91889852D01*
X124980360Y-91901680D01*
X125029901Y-91937673D01*
X125077686Y-91967699D01*
X125094844Y-91984857D01*
X125113418Y-91998352D01*
X125159335Y-92049348D01*
X125202301Y-92092314D01*
X125212183Y-92108042D01*
X125223471Y-92120578D01*
X125262077Y-92187447D01*
X125296062Y-92241533D01*
X125300306Y-92253661D01*
X125305702Y-92263008D01*
X125333337Y-92348061D01*
X125354268Y-92407876D01*
X125355061Y-92414918D01*
X125356528Y-92419432D01*
X125369819Y-92545901D01*
X125374000Y-92583000D01*
X125369819Y-92620101D01*
X125356528Y-92746567D01*
X125355061Y-92751079D01*
X125354268Y-92758124D01*
X125333333Y-92817951D01*
X125305702Y-92902991D01*
X125300306Y-92912335D01*
X125296062Y-92924467D01*
X125262070Y-92978563D01*
X125223471Y-93045421D01*
X125212185Y-93057954D01*
X125202301Y-93073686D01*
X125159326Y-93116660D01*
X125113418Y-93167647D01*
X125094848Y-93181138D01*
X125077686Y-93198301D01*
X125029890Y-93228332D01*
X124980360Y-93264319D01*
X124953799Y-93276144D01*
X124928467Y-93292062D01*
X124879794Y-93309093D01*
X124830110Y-93331214D01*
X124795634Y-93338542D01*
X124762124Y-93350268D01*
X124716043Y-93355460D01*
X124669234Y-93365410D01*
X124627737Y-93365410D01*
X124587000Y-93370000D01*
X124546263Y-93365410D01*
X124504766Y-93365410D01*
X124457955Y-93355460D01*
X124411876Y-93350268D01*
X124378366Y-93338542D01*
X124343889Y-93331214D01*
X124294201Y-93309091D01*
X124245533Y-93292062D01*
X124220202Y-93276145D01*
X124193639Y-93264319D01*
X124144101Y-93228328D01*
X124096314Y-93198301D01*
X124079154Y-93181141D01*
X124060581Y-93167647D01*
X124014663Y-93116650D01*
X123971699Y-93073686D01*
X123961816Y-93057958D01*
X123950528Y-93045421D01*
X123911917Y-92978544D01*
X123877938Y-92924467D01*
X123873694Y-92912339D01*
X123868297Y-92902991D01*
X123840652Y-92817911D01*
X123819732Y-92758124D01*
X123818938Y-92751084D01*
X123817471Y-92746567D01*
X123804165Y-92619969D01*
X123800000Y-92583000D01*
X123804165Y-92546033D01*
X123817471Y-92419432D01*
X123818938Y-92414914D01*
X123819732Y-92407876D01*
X123840648Y-92348101D01*
X123868297Y-92263008D01*
X123873695Y-92253657D01*
X123877938Y-92241533D01*
X123911909Y-92187467D01*
X123950528Y-92120578D01*
X123961818Y-92108038D01*
X123971699Y-92092314D01*
X124014654Y-92049358D01*
X124060581Y-91998352D01*
X124079157Y-91984855D01*
X124096314Y-91967699D01*
X124144096Y-91937675D01*
X124193640Y-91901680D01*
X124220206Y-91889852D01*
X124245533Y-91873938D01*
X124294192Y-91856911D01*
X124343889Y-91834785D01*
X124378372Y-91827455D01*
X124411876Y-91815732D01*
X124457952Y-91810540D01*
X124504766Y-91800590D01*
X124546263Y-91800590D01*
X124587000Y-91796000D01*
X124627737Y-91800590D01*
G37*
G36*
X178602737Y-91800590D02*
G01*
X178644234Y-91800590D01*
X178691046Y-91810540D01*
X178737124Y-91815732D01*
X178770628Y-91827455D01*
X178805110Y-91834785D01*
X178854804Y-91856910D01*
X178903467Y-91873938D01*
X178928794Y-91889852D01*
X178955360Y-91901680D01*
X179004901Y-91937673D01*
X179052686Y-91967699D01*
X179069844Y-91984857D01*
X179088418Y-91998352D01*
X179134335Y-92049348D01*
X179177301Y-92092314D01*
X179187183Y-92108042D01*
X179198471Y-92120578D01*
X179237077Y-92187447D01*
X179271062Y-92241533D01*
X179275306Y-92253661D01*
X179280702Y-92263008D01*
X179308337Y-92348061D01*
X179329268Y-92407876D01*
X179330061Y-92414918D01*
X179331528Y-92419432D01*
X179344819Y-92545901D01*
X179349000Y-92583000D01*
X179344819Y-92620101D01*
X179331528Y-92746567D01*
X179330061Y-92751079D01*
X179329268Y-92758124D01*
X179308333Y-92817951D01*
X179280702Y-92902991D01*
X179275306Y-92912335D01*
X179271062Y-92924467D01*
X179237070Y-92978563D01*
X179198471Y-93045421D01*
X179187185Y-93057954D01*
X179177301Y-93073686D01*
X179134326Y-93116660D01*
X179088418Y-93167647D01*
X179069848Y-93181138D01*
X179052686Y-93198301D01*
X179004890Y-93228332D01*
X178955360Y-93264319D01*
X178928799Y-93276144D01*
X178903467Y-93292062D01*
X178854794Y-93309093D01*
X178805110Y-93331214D01*
X178770634Y-93338542D01*
X178737124Y-93350268D01*
X178691043Y-93355460D01*
X178644234Y-93365410D01*
X178602737Y-93365410D01*
X178562000Y-93370000D01*
X178521263Y-93365410D01*
X178479766Y-93365410D01*
X178432955Y-93355460D01*
X178386876Y-93350268D01*
X178353366Y-93338542D01*
X178318889Y-93331214D01*
X178269201Y-93309091D01*
X178220533Y-93292062D01*
X178195202Y-93276145D01*
X178168639Y-93264319D01*
X178119101Y-93228328D01*
X178071314Y-93198301D01*
X178054154Y-93181141D01*
X178035581Y-93167647D01*
X177989663Y-93116650D01*
X177946699Y-93073686D01*
X177936816Y-93057958D01*
X177925528Y-93045421D01*
X177886917Y-92978544D01*
X177852938Y-92924467D01*
X177848694Y-92912339D01*
X177843297Y-92902991D01*
X177815652Y-92817911D01*
X177794732Y-92758124D01*
X177793938Y-92751084D01*
X177792471Y-92746567D01*
X177779165Y-92619969D01*
X177775000Y-92583000D01*
X177779165Y-92546033D01*
X177792471Y-92419432D01*
X177793938Y-92414914D01*
X177794732Y-92407876D01*
X177815648Y-92348101D01*
X177843297Y-92263008D01*
X177848695Y-92253657D01*
X177852938Y-92241533D01*
X177886909Y-92187467D01*
X177925528Y-92120578D01*
X177936818Y-92108038D01*
X177946699Y-92092314D01*
X177989654Y-92049358D01*
X178035581Y-91998352D01*
X178054157Y-91984855D01*
X178071314Y-91967699D01*
X178119096Y-91937675D01*
X178168640Y-91901680D01*
X178195206Y-91889852D01*
X178220533Y-91873938D01*
X178269192Y-91856911D01*
X178318889Y-91834785D01*
X178353372Y-91827455D01*
X178386876Y-91815732D01*
X178432952Y-91810540D01*
X178479766Y-91800590D01*
X178521263Y-91800590D01*
X178562000Y-91796000D01*
X178602737Y-91800590D01*
G37*
G36*
X124627737Y-89260590D02*
G01*
X124669234Y-89260590D01*
X124716046Y-89270540D01*
X124762124Y-89275732D01*
X124795628Y-89287455D01*
X124830110Y-89294785D01*
X124879804Y-89316910D01*
X124928467Y-89333938D01*
X124953794Y-89349852D01*
X124980360Y-89361680D01*
X125029901Y-89397673D01*
X125077686Y-89427699D01*
X125094844Y-89444857D01*
X125113418Y-89458352D01*
X125159335Y-89509348D01*
X125202301Y-89552314D01*
X125212183Y-89568042D01*
X125223471Y-89580578D01*
X125262077Y-89647447D01*
X125296062Y-89701533D01*
X125300306Y-89713661D01*
X125305702Y-89723008D01*
X125333337Y-89808061D01*
X125354268Y-89867876D01*
X125355061Y-89874918D01*
X125356528Y-89879432D01*
X125369819Y-90005901D01*
X125374000Y-90043000D01*
X125369819Y-90080101D01*
X125356528Y-90206567D01*
X125355061Y-90211079D01*
X125354268Y-90218124D01*
X125333333Y-90277951D01*
X125305702Y-90362991D01*
X125300306Y-90372335D01*
X125296062Y-90384467D01*
X125262070Y-90438563D01*
X125223471Y-90505421D01*
X125212185Y-90517954D01*
X125202301Y-90533686D01*
X125159326Y-90576660D01*
X125113418Y-90627647D01*
X125094848Y-90641138D01*
X125077686Y-90658301D01*
X125029890Y-90688332D01*
X124980360Y-90724319D01*
X124953799Y-90736144D01*
X124928467Y-90752062D01*
X124879794Y-90769093D01*
X124830110Y-90791214D01*
X124795634Y-90798542D01*
X124762124Y-90810268D01*
X124716043Y-90815460D01*
X124669234Y-90825410D01*
X124627737Y-90825410D01*
X124587000Y-90830000D01*
X124546263Y-90825410D01*
X124504766Y-90825410D01*
X124457955Y-90815460D01*
X124411876Y-90810268D01*
X124378366Y-90798542D01*
X124343889Y-90791214D01*
X124294201Y-90769091D01*
X124245533Y-90752062D01*
X124220202Y-90736145D01*
X124193639Y-90724319D01*
X124144101Y-90688328D01*
X124096314Y-90658301D01*
X124079154Y-90641141D01*
X124060581Y-90627647D01*
X124014663Y-90576650D01*
X123971699Y-90533686D01*
X123961816Y-90517958D01*
X123950528Y-90505421D01*
X123911917Y-90438544D01*
X123877938Y-90384467D01*
X123873694Y-90372339D01*
X123868297Y-90362991D01*
X123840652Y-90277911D01*
X123819732Y-90218124D01*
X123818938Y-90211084D01*
X123817471Y-90206567D01*
X123804165Y-90079969D01*
X123800000Y-90043000D01*
X123804165Y-90006033D01*
X123817471Y-89879432D01*
X123818938Y-89874914D01*
X123819732Y-89867876D01*
X123840648Y-89808101D01*
X123868297Y-89723008D01*
X123873695Y-89713657D01*
X123877938Y-89701533D01*
X123911909Y-89647467D01*
X123950528Y-89580578D01*
X123961818Y-89568038D01*
X123971699Y-89552314D01*
X124014654Y-89509358D01*
X124060581Y-89458352D01*
X124079157Y-89444855D01*
X124096314Y-89427699D01*
X124144096Y-89397675D01*
X124193640Y-89361680D01*
X124220206Y-89349852D01*
X124245533Y-89333938D01*
X124294192Y-89316911D01*
X124343889Y-89294785D01*
X124378372Y-89287455D01*
X124411876Y-89275732D01*
X124457952Y-89270540D01*
X124504766Y-89260590D01*
X124546263Y-89260590D01*
X124587000Y-89256000D01*
X124627737Y-89260590D01*
G37*
G36*
X178602737Y-89260590D02*
G01*
X178644234Y-89260590D01*
X178691046Y-89270540D01*
X178737124Y-89275732D01*
X178770628Y-89287455D01*
X178805110Y-89294785D01*
X178854804Y-89316910D01*
X178903467Y-89333938D01*
X178928794Y-89349852D01*
X178955360Y-89361680D01*
X179004901Y-89397673D01*
X179052686Y-89427699D01*
X179069844Y-89444857D01*
X179088418Y-89458352D01*
X179134335Y-89509348D01*
X179177301Y-89552314D01*
X179187183Y-89568042D01*
X179198471Y-89580578D01*
X179237077Y-89647447D01*
X179271062Y-89701533D01*
X179275306Y-89713661D01*
X179280702Y-89723008D01*
X179308337Y-89808061D01*
X179329268Y-89867876D01*
X179330061Y-89874918D01*
X179331528Y-89879432D01*
X179344819Y-90005901D01*
X179349000Y-90043000D01*
X179344819Y-90080101D01*
X179331528Y-90206567D01*
X179330061Y-90211079D01*
X179329268Y-90218124D01*
X179308333Y-90277951D01*
X179280702Y-90362991D01*
X179275306Y-90372335D01*
X179271062Y-90384467D01*
X179237070Y-90438563D01*
X179198471Y-90505421D01*
X179187185Y-90517954D01*
X179177301Y-90533686D01*
X179134326Y-90576660D01*
X179088418Y-90627647D01*
X179069848Y-90641138D01*
X179052686Y-90658301D01*
X179004890Y-90688332D01*
X178955360Y-90724319D01*
X178928799Y-90736144D01*
X178903467Y-90752062D01*
X178854794Y-90769093D01*
X178805110Y-90791214D01*
X178770634Y-90798542D01*
X178737124Y-90810268D01*
X178691043Y-90815460D01*
X178644234Y-90825410D01*
X178602737Y-90825410D01*
X178562000Y-90830000D01*
X178521263Y-90825410D01*
X178479766Y-90825410D01*
X178432955Y-90815460D01*
X178386876Y-90810268D01*
X178353366Y-90798542D01*
X178318889Y-90791214D01*
X178269201Y-90769091D01*
X178220533Y-90752062D01*
X178195202Y-90736145D01*
X178168639Y-90724319D01*
X178119101Y-90688328D01*
X178071314Y-90658301D01*
X178054154Y-90641141D01*
X178035581Y-90627647D01*
X177989663Y-90576650D01*
X177946699Y-90533686D01*
X177936816Y-90517958D01*
X177925528Y-90505421D01*
X177886917Y-90438544D01*
X177852938Y-90384467D01*
X177848694Y-90372339D01*
X177843297Y-90362991D01*
X177815652Y-90277911D01*
X177794732Y-90218124D01*
X177793938Y-90211084D01*
X177792471Y-90206567D01*
X177779165Y-90079969D01*
X177775000Y-90043000D01*
X177779165Y-90006033D01*
X177792471Y-89879432D01*
X177793938Y-89874914D01*
X177794732Y-89867876D01*
X177815648Y-89808101D01*
X177843297Y-89723008D01*
X177848695Y-89713657D01*
X177852938Y-89701533D01*
X177886909Y-89647467D01*
X177925528Y-89580578D01*
X177936818Y-89568038D01*
X177946699Y-89552314D01*
X177989654Y-89509358D01*
X178035581Y-89458352D01*
X178054157Y-89444855D01*
X178071314Y-89427699D01*
X178119096Y-89397675D01*
X178168640Y-89361680D01*
X178195206Y-89349852D01*
X178220533Y-89333938D01*
X178269192Y-89316911D01*
X178318889Y-89294785D01*
X178353372Y-89287455D01*
X178386876Y-89275732D01*
X178432952Y-89270540D01*
X178479766Y-89260590D01*
X178521263Y-89260590D01*
X178562000Y-89256000D01*
X178602737Y-89260590D01*
G37*
G36*
X124627737Y-86720590D02*
G01*
X124669234Y-86720590D01*
X124716046Y-86730540D01*
X124762124Y-86735732D01*
X124795628Y-86747455D01*
X124830110Y-86754785D01*
X124879804Y-86776910D01*
X124928467Y-86793938D01*
X124953794Y-86809852D01*
X124980360Y-86821680D01*
X125029901Y-86857673D01*
X125077686Y-86887699D01*
X125094844Y-86904857D01*
X125113418Y-86918352D01*
X125159335Y-86969348D01*
X125202301Y-87012314D01*
X125212183Y-87028042D01*
X125223471Y-87040578D01*
X125262077Y-87107447D01*
X125296062Y-87161533D01*
X125300306Y-87173661D01*
X125305702Y-87183008D01*
X125333337Y-87268061D01*
X125354268Y-87327876D01*
X125355061Y-87334918D01*
X125356528Y-87339432D01*
X125369819Y-87465901D01*
X125374000Y-87503000D01*
X125369819Y-87540101D01*
X125356528Y-87666567D01*
X125355061Y-87671079D01*
X125354268Y-87678124D01*
X125333333Y-87737951D01*
X125305702Y-87822991D01*
X125300306Y-87832335D01*
X125296062Y-87844467D01*
X125262070Y-87898563D01*
X125223471Y-87965421D01*
X125212185Y-87977954D01*
X125202301Y-87993686D01*
X125159326Y-88036660D01*
X125113418Y-88087647D01*
X125094848Y-88101138D01*
X125077686Y-88118301D01*
X125029890Y-88148332D01*
X124980360Y-88184319D01*
X124953799Y-88196144D01*
X124928467Y-88212062D01*
X124879794Y-88229093D01*
X124830110Y-88251214D01*
X124795634Y-88258542D01*
X124762124Y-88270268D01*
X124716043Y-88275460D01*
X124669234Y-88285410D01*
X124627737Y-88285410D01*
X124587000Y-88290000D01*
X124546263Y-88285410D01*
X124504766Y-88285410D01*
X124457955Y-88275460D01*
X124411876Y-88270268D01*
X124378366Y-88258542D01*
X124343889Y-88251214D01*
X124294201Y-88229091D01*
X124245533Y-88212062D01*
X124220202Y-88196145D01*
X124193639Y-88184319D01*
X124144101Y-88148328D01*
X124096314Y-88118301D01*
X124079154Y-88101141D01*
X124060581Y-88087647D01*
X124014663Y-88036650D01*
X123971699Y-87993686D01*
X123961816Y-87977958D01*
X123950528Y-87965421D01*
X123911917Y-87898544D01*
X123877938Y-87844467D01*
X123873694Y-87832339D01*
X123868297Y-87822991D01*
X123840652Y-87737911D01*
X123819732Y-87678124D01*
X123818938Y-87671084D01*
X123817471Y-87666567D01*
X123804165Y-87539969D01*
X123800000Y-87503000D01*
X123804165Y-87466033D01*
X123817471Y-87339432D01*
X123818938Y-87334914D01*
X123819732Y-87327876D01*
X123840648Y-87268101D01*
X123868297Y-87183008D01*
X123873695Y-87173657D01*
X123877938Y-87161533D01*
X123911909Y-87107467D01*
X123950528Y-87040578D01*
X123961818Y-87028038D01*
X123971699Y-87012314D01*
X124014654Y-86969358D01*
X124060581Y-86918352D01*
X124079157Y-86904855D01*
X124096314Y-86887699D01*
X124144096Y-86857675D01*
X124193640Y-86821680D01*
X124220206Y-86809852D01*
X124245533Y-86793938D01*
X124294192Y-86776911D01*
X124343889Y-86754785D01*
X124378372Y-86747455D01*
X124411876Y-86735732D01*
X124457952Y-86730540D01*
X124504766Y-86720590D01*
X124546263Y-86720590D01*
X124587000Y-86716000D01*
X124627737Y-86720590D01*
G37*
G36*
X178602737Y-86720590D02*
G01*
X178644234Y-86720590D01*
X178691046Y-86730540D01*
X178737124Y-86735732D01*
X178770628Y-86747455D01*
X178805110Y-86754785D01*
X178854804Y-86776910D01*
X178903467Y-86793938D01*
X178928794Y-86809852D01*
X178955360Y-86821680D01*
X179004901Y-86857673D01*
X179052686Y-86887699D01*
X179069844Y-86904857D01*
X179088418Y-86918352D01*
X179134335Y-86969348D01*
X179177301Y-87012314D01*
X179187183Y-87028042D01*
X179198471Y-87040578D01*
X179237077Y-87107447D01*
X179271062Y-87161533D01*
X179275306Y-87173661D01*
X179280702Y-87183008D01*
X179308337Y-87268061D01*
X179329268Y-87327876D01*
X179330061Y-87334918D01*
X179331528Y-87339432D01*
X179344819Y-87465901D01*
X179349000Y-87503000D01*
X179344819Y-87540101D01*
X179331528Y-87666567D01*
X179330061Y-87671079D01*
X179329268Y-87678124D01*
X179308333Y-87737951D01*
X179280702Y-87822991D01*
X179275306Y-87832335D01*
X179271062Y-87844467D01*
X179237070Y-87898563D01*
X179198471Y-87965421D01*
X179187185Y-87977954D01*
X179177301Y-87993686D01*
X179134326Y-88036660D01*
X179088418Y-88087647D01*
X179069848Y-88101138D01*
X179052686Y-88118301D01*
X179004890Y-88148332D01*
X178955360Y-88184319D01*
X178928799Y-88196144D01*
X178903467Y-88212062D01*
X178854794Y-88229093D01*
X178805110Y-88251214D01*
X178770634Y-88258542D01*
X178737124Y-88270268D01*
X178691043Y-88275460D01*
X178644234Y-88285410D01*
X178602737Y-88285410D01*
X178562000Y-88290000D01*
X178521263Y-88285410D01*
X178479766Y-88285410D01*
X178432955Y-88275460D01*
X178386876Y-88270268D01*
X178353366Y-88258542D01*
X178318889Y-88251214D01*
X178269201Y-88229091D01*
X178220533Y-88212062D01*
X178195202Y-88196145D01*
X178168639Y-88184319D01*
X178119101Y-88148328D01*
X178071314Y-88118301D01*
X178054154Y-88101141D01*
X178035581Y-88087647D01*
X177989663Y-88036650D01*
X177946699Y-87993686D01*
X177936816Y-87977958D01*
X177925528Y-87965421D01*
X177886917Y-87898544D01*
X177852938Y-87844467D01*
X177848694Y-87832339D01*
X177843297Y-87822991D01*
X177815652Y-87737911D01*
X177794732Y-87678124D01*
X177793938Y-87671084D01*
X177792471Y-87666567D01*
X177779165Y-87539969D01*
X177775000Y-87503000D01*
X177779165Y-87466033D01*
X177792471Y-87339432D01*
X177793938Y-87334914D01*
X177794732Y-87327876D01*
X177815648Y-87268101D01*
X177843297Y-87183008D01*
X177848695Y-87173657D01*
X177852938Y-87161533D01*
X177886909Y-87107467D01*
X177925528Y-87040578D01*
X177936818Y-87028038D01*
X177946699Y-87012314D01*
X177989654Y-86969358D01*
X178035581Y-86918352D01*
X178054157Y-86904855D01*
X178071314Y-86887699D01*
X178119096Y-86857675D01*
X178168640Y-86821680D01*
X178195206Y-86809852D01*
X178220533Y-86793938D01*
X178269192Y-86776911D01*
X178318889Y-86754785D01*
X178353372Y-86747455D01*
X178386876Y-86735732D01*
X178432952Y-86730540D01*
X178479766Y-86720590D01*
X178521263Y-86720590D01*
X178562000Y-86716000D01*
X178602737Y-86720590D01*
G37*
G36*
X124627737Y-84180590D02*
G01*
X124669234Y-84180590D01*
X124716046Y-84190540D01*
X124762124Y-84195732D01*
X124795628Y-84207455D01*
X124830110Y-84214785D01*
X124879804Y-84236910D01*
X124928467Y-84253938D01*
X124953794Y-84269852D01*
X124980360Y-84281680D01*
X125029901Y-84317673D01*
X125077686Y-84347699D01*
X125094844Y-84364857D01*
X125113418Y-84378352D01*
X125159335Y-84429348D01*
X125202301Y-84472314D01*
X125212183Y-84488042D01*
X125223471Y-84500578D01*
X125262077Y-84567447D01*
X125296062Y-84621533D01*
X125300306Y-84633661D01*
X125305702Y-84643008D01*
X125333337Y-84728061D01*
X125354268Y-84787876D01*
X125355061Y-84794918D01*
X125356528Y-84799432D01*
X125369819Y-84925901D01*
X125374000Y-84963000D01*
X125369819Y-85000101D01*
X125356528Y-85126567D01*
X125355061Y-85131079D01*
X125354268Y-85138124D01*
X125333333Y-85197951D01*
X125305702Y-85282991D01*
X125300306Y-85292335D01*
X125296062Y-85304467D01*
X125262070Y-85358563D01*
X125223471Y-85425421D01*
X125212185Y-85437954D01*
X125202301Y-85453686D01*
X125159326Y-85496660D01*
X125113418Y-85547647D01*
X125094848Y-85561138D01*
X125077686Y-85578301D01*
X125029890Y-85608332D01*
X124980360Y-85644319D01*
X124953799Y-85656144D01*
X124928467Y-85672062D01*
X124879794Y-85689093D01*
X124830110Y-85711214D01*
X124795634Y-85718542D01*
X124762124Y-85730268D01*
X124716043Y-85735460D01*
X124669234Y-85745410D01*
X124627737Y-85745410D01*
X124587000Y-85750000D01*
X124546263Y-85745410D01*
X124504766Y-85745410D01*
X124457955Y-85735460D01*
X124411876Y-85730268D01*
X124378366Y-85718542D01*
X124343889Y-85711214D01*
X124294201Y-85689091D01*
X124245533Y-85672062D01*
X124220202Y-85656145D01*
X124193639Y-85644319D01*
X124144101Y-85608328D01*
X124096314Y-85578301D01*
X124079154Y-85561141D01*
X124060581Y-85547647D01*
X124014663Y-85496650D01*
X123971699Y-85453686D01*
X123961816Y-85437958D01*
X123950528Y-85425421D01*
X123911917Y-85358544D01*
X123877938Y-85304467D01*
X123873694Y-85292339D01*
X123868297Y-85282991D01*
X123840652Y-85197911D01*
X123819732Y-85138124D01*
X123818938Y-85131084D01*
X123817471Y-85126567D01*
X123804165Y-84999969D01*
X123800000Y-84963000D01*
X123804165Y-84926033D01*
X123817471Y-84799432D01*
X123818938Y-84794914D01*
X123819732Y-84787876D01*
X123840648Y-84728101D01*
X123868297Y-84643008D01*
X123873695Y-84633657D01*
X123877938Y-84621533D01*
X123911909Y-84567467D01*
X123950528Y-84500578D01*
X123961818Y-84488038D01*
X123971699Y-84472314D01*
X124014654Y-84429358D01*
X124060581Y-84378352D01*
X124079157Y-84364855D01*
X124096314Y-84347699D01*
X124144096Y-84317675D01*
X124193640Y-84281680D01*
X124220206Y-84269852D01*
X124245533Y-84253938D01*
X124294192Y-84236911D01*
X124343889Y-84214785D01*
X124378372Y-84207455D01*
X124411876Y-84195732D01*
X124457952Y-84190540D01*
X124504766Y-84180590D01*
X124546263Y-84180590D01*
X124587000Y-84176000D01*
X124627737Y-84180590D01*
G37*
G36*
X178602737Y-84180590D02*
G01*
X178644234Y-84180590D01*
X178691046Y-84190540D01*
X178737124Y-84195732D01*
X178770628Y-84207455D01*
X178805110Y-84214785D01*
X178854804Y-84236910D01*
X178903467Y-84253938D01*
X178928794Y-84269852D01*
X178955360Y-84281680D01*
X179004901Y-84317673D01*
X179052686Y-84347699D01*
X179069844Y-84364857D01*
X179088418Y-84378352D01*
X179134335Y-84429348D01*
X179177301Y-84472314D01*
X179187183Y-84488042D01*
X179198471Y-84500578D01*
X179237077Y-84567447D01*
X179271062Y-84621533D01*
X179275306Y-84633661D01*
X179280702Y-84643008D01*
X179308337Y-84728061D01*
X179329268Y-84787876D01*
X179330061Y-84794918D01*
X179331528Y-84799432D01*
X179344819Y-84925901D01*
X179349000Y-84963000D01*
X179344819Y-85000101D01*
X179331528Y-85126567D01*
X179330061Y-85131079D01*
X179329268Y-85138124D01*
X179308333Y-85197951D01*
X179280702Y-85282991D01*
X179275306Y-85292335D01*
X179271062Y-85304467D01*
X179237070Y-85358563D01*
X179198471Y-85425421D01*
X179187185Y-85437954D01*
X179177301Y-85453686D01*
X179134326Y-85496660D01*
X179088418Y-85547647D01*
X179069848Y-85561138D01*
X179052686Y-85578301D01*
X179004890Y-85608332D01*
X178955360Y-85644319D01*
X178928799Y-85656144D01*
X178903467Y-85672062D01*
X178854794Y-85689093D01*
X178805110Y-85711214D01*
X178770634Y-85718542D01*
X178737124Y-85730268D01*
X178691043Y-85735460D01*
X178644234Y-85745410D01*
X178602737Y-85745410D01*
X178562000Y-85750000D01*
X178521263Y-85745410D01*
X178479766Y-85745410D01*
X178432955Y-85735460D01*
X178386876Y-85730268D01*
X178353366Y-85718542D01*
X178318889Y-85711214D01*
X178269201Y-85689091D01*
X178220533Y-85672062D01*
X178195202Y-85656145D01*
X178168639Y-85644319D01*
X178119101Y-85608328D01*
X178071314Y-85578301D01*
X178054154Y-85561141D01*
X178035581Y-85547647D01*
X177989663Y-85496650D01*
X177946699Y-85453686D01*
X177936816Y-85437958D01*
X177925528Y-85425421D01*
X177886917Y-85358544D01*
X177852938Y-85304467D01*
X177848694Y-85292339D01*
X177843297Y-85282991D01*
X177815652Y-85197911D01*
X177794732Y-85138124D01*
X177793938Y-85131084D01*
X177792471Y-85126567D01*
X177779165Y-84999969D01*
X177775000Y-84963000D01*
X177779165Y-84926033D01*
X177792471Y-84799432D01*
X177793938Y-84794914D01*
X177794732Y-84787876D01*
X177815648Y-84728101D01*
X177843297Y-84643008D01*
X177848695Y-84633657D01*
X177852938Y-84621533D01*
X177886909Y-84567467D01*
X177925528Y-84500578D01*
X177936818Y-84488038D01*
X177946699Y-84472314D01*
X177989654Y-84429358D01*
X178035581Y-84378352D01*
X178054157Y-84364855D01*
X178071314Y-84347699D01*
X178119096Y-84317675D01*
X178168640Y-84281680D01*
X178195206Y-84269852D01*
X178220533Y-84253938D01*
X178269192Y-84236911D01*
X178318889Y-84214785D01*
X178353372Y-84207455D01*
X178386876Y-84195732D01*
X178432952Y-84190540D01*
X178479766Y-84180590D01*
X178521263Y-84180590D01*
X178562000Y-84176000D01*
X178602737Y-84180590D01*
G37*
G36*
X124627737Y-81640590D02*
G01*
X124669234Y-81640590D01*
X124716046Y-81650540D01*
X124762124Y-81655732D01*
X124795628Y-81667455D01*
X124830110Y-81674785D01*
X124879804Y-81696910D01*
X124928467Y-81713938D01*
X124953794Y-81729852D01*
X124980360Y-81741680D01*
X125029901Y-81777673D01*
X125077686Y-81807699D01*
X125094844Y-81824857D01*
X125113418Y-81838352D01*
X125159335Y-81889348D01*
X125202301Y-81932314D01*
X125212183Y-81948042D01*
X125223471Y-81960578D01*
X125262077Y-82027447D01*
X125296062Y-82081533D01*
X125300306Y-82093661D01*
X125305702Y-82103008D01*
X125333337Y-82188061D01*
X125354268Y-82247876D01*
X125355061Y-82254918D01*
X125356528Y-82259432D01*
X125369819Y-82385901D01*
X125374000Y-82423000D01*
X125369819Y-82460101D01*
X125356528Y-82586567D01*
X125355061Y-82591079D01*
X125354268Y-82598124D01*
X125333333Y-82657951D01*
X125305702Y-82742991D01*
X125300306Y-82752335D01*
X125296062Y-82764467D01*
X125262070Y-82818563D01*
X125223471Y-82885421D01*
X125212185Y-82897954D01*
X125202301Y-82913686D01*
X125159326Y-82956660D01*
X125113418Y-83007647D01*
X125094848Y-83021138D01*
X125077686Y-83038301D01*
X125029890Y-83068332D01*
X124980360Y-83104319D01*
X124953799Y-83116144D01*
X124928467Y-83132062D01*
X124879794Y-83149093D01*
X124830110Y-83171214D01*
X124795634Y-83178542D01*
X124762124Y-83190268D01*
X124716043Y-83195460D01*
X124669234Y-83205410D01*
X124627737Y-83205410D01*
X124587000Y-83210000D01*
X124546263Y-83205410D01*
X124504766Y-83205410D01*
X124457955Y-83195460D01*
X124411876Y-83190268D01*
X124378366Y-83178542D01*
X124343889Y-83171214D01*
X124294201Y-83149091D01*
X124245533Y-83132062D01*
X124220202Y-83116145D01*
X124193639Y-83104319D01*
X124144101Y-83068328D01*
X124096314Y-83038301D01*
X124079154Y-83021141D01*
X124060581Y-83007647D01*
X124014663Y-82956650D01*
X123971699Y-82913686D01*
X123961816Y-82897958D01*
X123950528Y-82885421D01*
X123911917Y-82818544D01*
X123877938Y-82764467D01*
X123873694Y-82752339D01*
X123868297Y-82742991D01*
X123840652Y-82657911D01*
X123819732Y-82598124D01*
X123818938Y-82591084D01*
X123817471Y-82586567D01*
X123804165Y-82459969D01*
X123800000Y-82423000D01*
X123804165Y-82386033D01*
X123817471Y-82259432D01*
X123818938Y-82254914D01*
X123819732Y-82247876D01*
X123840648Y-82188101D01*
X123868297Y-82103008D01*
X123873695Y-82093657D01*
X123877938Y-82081533D01*
X123911909Y-82027467D01*
X123950528Y-81960578D01*
X123961818Y-81948038D01*
X123971699Y-81932314D01*
X124014654Y-81889358D01*
X124060581Y-81838352D01*
X124079157Y-81824855D01*
X124096314Y-81807699D01*
X124144096Y-81777675D01*
X124193640Y-81741680D01*
X124220206Y-81729852D01*
X124245533Y-81713938D01*
X124294192Y-81696911D01*
X124343889Y-81674785D01*
X124378372Y-81667455D01*
X124411876Y-81655732D01*
X124457952Y-81650540D01*
X124504766Y-81640590D01*
X124546263Y-81640590D01*
X124587000Y-81636000D01*
X124627737Y-81640590D01*
G37*
G36*
X178602737Y-81640590D02*
G01*
X178644234Y-81640590D01*
X178691046Y-81650540D01*
X178737124Y-81655732D01*
X178770628Y-81667455D01*
X178805110Y-81674785D01*
X178854804Y-81696910D01*
X178903467Y-81713938D01*
X178928794Y-81729852D01*
X178955360Y-81741680D01*
X179004901Y-81777673D01*
X179052686Y-81807699D01*
X179069844Y-81824857D01*
X179088418Y-81838352D01*
X179134335Y-81889348D01*
X179177301Y-81932314D01*
X179187183Y-81948042D01*
X179198471Y-81960578D01*
X179237077Y-82027447D01*
X179271062Y-82081533D01*
X179275306Y-82093661D01*
X179280702Y-82103008D01*
X179308337Y-82188061D01*
X179329268Y-82247876D01*
X179330061Y-82254918D01*
X179331528Y-82259432D01*
X179344819Y-82385901D01*
X179349000Y-82423000D01*
X179344819Y-82460101D01*
X179331528Y-82586567D01*
X179330061Y-82591079D01*
X179329268Y-82598124D01*
X179308333Y-82657951D01*
X179280702Y-82742991D01*
X179275306Y-82752335D01*
X179271062Y-82764467D01*
X179237070Y-82818563D01*
X179198471Y-82885421D01*
X179187185Y-82897954D01*
X179177301Y-82913686D01*
X179134326Y-82956660D01*
X179088418Y-83007647D01*
X179069848Y-83021138D01*
X179052686Y-83038301D01*
X179004890Y-83068332D01*
X178955360Y-83104319D01*
X178928799Y-83116144D01*
X178903467Y-83132062D01*
X178854794Y-83149093D01*
X178805110Y-83171214D01*
X178770634Y-83178542D01*
X178737124Y-83190268D01*
X178691043Y-83195460D01*
X178644234Y-83205410D01*
X178602737Y-83205410D01*
X178562000Y-83210000D01*
X178521263Y-83205410D01*
X178479766Y-83205410D01*
X178432955Y-83195460D01*
X178386876Y-83190268D01*
X178353366Y-83178542D01*
X178318889Y-83171214D01*
X178269201Y-83149091D01*
X178220533Y-83132062D01*
X178195202Y-83116145D01*
X178168639Y-83104319D01*
X178119101Y-83068328D01*
X178071314Y-83038301D01*
X178054154Y-83021141D01*
X178035581Y-83007647D01*
X177989663Y-82956650D01*
X177946699Y-82913686D01*
X177936816Y-82897958D01*
X177925528Y-82885421D01*
X177886917Y-82818544D01*
X177852938Y-82764467D01*
X177848694Y-82752339D01*
X177843297Y-82742991D01*
X177815652Y-82657911D01*
X177794732Y-82598124D01*
X177793938Y-82591084D01*
X177792471Y-82586567D01*
X177779165Y-82459969D01*
X177775000Y-82423000D01*
X177779165Y-82386033D01*
X177792471Y-82259432D01*
X177793938Y-82254914D01*
X177794732Y-82247876D01*
X177815648Y-82188101D01*
X177843297Y-82103008D01*
X177848695Y-82093657D01*
X177852938Y-82081533D01*
X177886909Y-82027467D01*
X177925528Y-81960578D01*
X177936818Y-81948038D01*
X177946699Y-81932314D01*
X177989654Y-81889358D01*
X178035581Y-81838352D01*
X178054157Y-81824855D01*
X178071314Y-81807699D01*
X178119096Y-81777675D01*
X178168640Y-81741680D01*
X178195206Y-81729852D01*
X178220533Y-81713938D01*
X178269192Y-81696911D01*
X178318889Y-81674785D01*
X178353372Y-81667455D01*
X178386876Y-81655732D01*
X178432952Y-81650540D01*
X178479766Y-81640590D01*
X178521263Y-81640590D01*
X178562000Y-81636000D01*
X178602737Y-81640590D01*
G37*
G36*
X124627737Y-79100590D02*
G01*
X124669234Y-79100590D01*
X124716046Y-79110540D01*
X124762124Y-79115732D01*
X124795628Y-79127455D01*
X124830110Y-79134785D01*
X124879804Y-79156910D01*
X124928467Y-79173938D01*
X124953794Y-79189852D01*
X124980360Y-79201680D01*
X125029901Y-79237673D01*
X125077686Y-79267699D01*
X125094844Y-79284857D01*
X125113418Y-79298352D01*
X125159335Y-79349348D01*
X125202301Y-79392314D01*
X125212183Y-79408042D01*
X125223471Y-79420578D01*
X125262077Y-79487447D01*
X125296062Y-79541533D01*
X125300306Y-79553661D01*
X125305702Y-79563008D01*
X125333337Y-79648061D01*
X125354268Y-79707876D01*
X125355061Y-79714918D01*
X125356528Y-79719432D01*
X125369819Y-79845901D01*
X125374000Y-79883000D01*
X125369819Y-79920101D01*
X125356528Y-80046567D01*
X125355061Y-80051079D01*
X125354268Y-80058124D01*
X125333333Y-80117951D01*
X125305702Y-80202991D01*
X125300306Y-80212335D01*
X125296062Y-80224467D01*
X125262070Y-80278563D01*
X125223471Y-80345421D01*
X125212185Y-80357954D01*
X125202301Y-80373686D01*
X125159326Y-80416660D01*
X125113418Y-80467647D01*
X125094848Y-80481138D01*
X125077686Y-80498301D01*
X125029890Y-80528332D01*
X124980360Y-80564319D01*
X124953799Y-80576144D01*
X124928467Y-80592062D01*
X124879794Y-80609093D01*
X124830110Y-80631214D01*
X124795634Y-80638542D01*
X124762124Y-80650268D01*
X124716043Y-80655460D01*
X124669234Y-80665410D01*
X124627737Y-80665410D01*
X124587000Y-80670000D01*
X124546263Y-80665410D01*
X124504766Y-80665410D01*
X124457955Y-80655460D01*
X124411876Y-80650268D01*
X124378366Y-80638542D01*
X124343889Y-80631214D01*
X124294201Y-80609091D01*
X124245533Y-80592062D01*
X124220202Y-80576145D01*
X124193639Y-80564319D01*
X124144101Y-80528328D01*
X124096314Y-80498301D01*
X124079154Y-80481141D01*
X124060581Y-80467647D01*
X124014663Y-80416650D01*
X123971699Y-80373686D01*
X123961816Y-80357958D01*
X123950528Y-80345421D01*
X123911917Y-80278544D01*
X123877938Y-80224467D01*
X123873694Y-80212339D01*
X123868297Y-80202991D01*
X123840652Y-80117911D01*
X123819732Y-80058124D01*
X123818938Y-80051084D01*
X123817471Y-80046567D01*
X123804165Y-79919969D01*
X123800000Y-79883000D01*
X123804165Y-79846033D01*
X123817471Y-79719432D01*
X123818938Y-79714914D01*
X123819732Y-79707876D01*
X123840648Y-79648101D01*
X123868297Y-79563008D01*
X123873695Y-79553657D01*
X123877938Y-79541533D01*
X123911909Y-79487467D01*
X123950528Y-79420578D01*
X123961818Y-79408038D01*
X123971699Y-79392314D01*
X124014654Y-79349358D01*
X124060581Y-79298352D01*
X124079157Y-79284855D01*
X124096314Y-79267699D01*
X124144096Y-79237675D01*
X124193640Y-79201680D01*
X124220206Y-79189852D01*
X124245533Y-79173938D01*
X124294192Y-79156911D01*
X124343889Y-79134785D01*
X124378372Y-79127455D01*
X124411876Y-79115732D01*
X124457952Y-79110540D01*
X124504766Y-79100590D01*
X124546263Y-79100590D01*
X124587000Y-79096000D01*
X124627737Y-79100590D01*
G37*
G36*
X178602737Y-79100590D02*
G01*
X178644234Y-79100590D01*
X178691046Y-79110540D01*
X178737124Y-79115732D01*
X178770628Y-79127455D01*
X178805110Y-79134785D01*
X178854804Y-79156910D01*
X178903467Y-79173938D01*
X178928794Y-79189852D01*
X178955360Y-79201680D01*
X179004901Y-79237673D01*
X179052686Y-79267699D01*
X179069844Y-79284857D01*
X179088418Y-79298352D01*
X179134335Y-79349348D01*
X179177301Y-79392314D01*
X179187183Y-79408042D01*
X179198471Y-79420578D01*
X179237077Y-79487447D01*
X179271062Y-79541533D01*
X179275306Y-79553661D01*
X179280702Y-79563008D01*
X179308337Y-79648061D01*
X179329268Y-79707876D01*
X179330061Y-79714918D01*
X179331528Y-79719432D01*
X179344819Y-79845901D01*
X179349000Y-79883000D01*
X179344819Y-79920101D01*
X179331528Y-80046567D01*
X179330061Y-80051079D01*
X179329268Y-80058124D01*
X179308333Y-80117951D01*
X179280702Y-80202991D01*
X179275306Y-80212335D01*
X179271062Y-80224467D01*
X179237070Y-80278563D01*
X179198471Y-80345421D01*
X179187185Y-80357954D01*
X179177301Y-80373686D01*
X179134326Y-80416660D01*
X179088418Y-80467647D01*
X179069848Y-80481138D01*
X179052686Y-80498301D01*
X179004890Y-80528332D01*
X178955360Y-80564319D01*
X178928799Y-80576144D01*
X178903467Y-80592062D01*
X178854794Y-80609093D01*
X178805110Y-80631214D01*
X178770634Y-80638542D01*
X178737124Y-80650268D01*
X178691043Y-80655460D01*
X178644234Y-80665410D01*
X178602737Y-80665410D01*
X178562000Y-80670000D01*
X178521263Y-80665410D01*
X178479766Y-80665410D01*
X178432955Y-80655460D01*
X178386876Y-80650268D01*
X178353366Y-80638542D01*
X178318889Y-80631214D01*
X178269201Y-80609091D01*
X178220533Y-80592062D01*
X178195202Y-80576145D01*
X178168639Y-80564319D01*
X178119101Y-80528328D01*
X178071314Y-80498301D01*
X178054154Y-80481141D01*
X178035581Y-80467647D01*
X177989663Y-80416650D01*
X177946699Y-80373686D01*
X177936816Y-80357958D01*
X177925528Y-80345421D01*
X177886917Y-80278544D01*
X177852938Y-80224467D01*
X177848694Y-80212339D01*
X177843297Y-80202991D01*
X177815652Y-80117911D01*
X177794732Y-80058124D01*
X177793938Y-80051084D01*
X177792471Y-80046567D01*
X177779165Y-79919969D01*
X177775000Y-79883000D01*
X177779165Y-79846033D01*
X177792471Y-79719432D01*
X177793938Y-79714914D01*
X177794732Y-79707876D01*
X177815648Y-79648101D01*
X177843297Y-79563008D01*
X177848695Y-79553657D01*
X177852938Y-79541533D01*
X177886909Y-79487467D01*
X177925528Y-79420578D01*
X177936818Y-79408038D01*
X177946699Y-79392314D01*
X177989654Y-79349358D01*
X178035581Y-79298352D01*
X178054157Y-79284855D01*
X178071314Y-79267699D01*
X178119096Y-79237675D01*
X178168640Y-79201680D01*
X178195206Y-79189852D01*
X178220533Y-79173938D01*
X178269192Y-79156911D01*
X178318889Y-79134785D01*
X178353372Y-79127455D01*
X178386876Y-79115732D01*
X178432952Y-79110540D01*
X178479766Y-79100590D01*
X178521263Y-79100590D01*
X178562000Y-79096000D01*
X178602737Y-79100590D01*
G37*
G36*
X124627737Y-76560590D02*
G01*
X124669234Y-76560590D01*
X124716046Y-76570540D01*
X124762124Y-76575732D01*
X124795628Y-76587455D01*
X124830110Y-76594785D01*
X124879804Y-76616910D01*
X124928467Y-76633938D01*
X124953794Y-76649852D01*
X124980360Y-76661680D01*
X125029901Y-76697673D01*
X125077686Y-76727699D01*
X125094844Y-76744857D01*
X125113418Y-76758352D01*
X125159335Y-76809348D01*
X125202301Y-76852314D01*
X125212183Y-76868042D01*
X125223471Y-76880578D01*
X125262077Y-76947447D01*
X125296062Y-77001533D01*
X125300306Y-77013661D01*
X125305702Y-77023008D01*
X125333337Y-77108061D01*
X125354268Y-77167876D01*
X125355061Y-77174918D01*
X125356528Y-77179432D01*
X125369819Y-77305901D01*
X125374000Y-77343000D01*
X125369819Y-77380101D01*
X125356528Y-77506567D01*
X125355061Y-77511079D01*
X125354268Y-77518124D01*
X125333333Y-77577951D01*
X125305702Y-77662991D01*
X125300306Y-77672335D01*
X125296062Y-77684467D01*
X125262070Y-77738563D01*
X125223471Y-77805421D01*
X125212185Y-77817954D01*
X125202301Y-77833686D01*
X125159326Y-77876660D01*
X125113418Y-77927647D01*
X125094848Y-77941138D01*
X125077686Y-77958301D01*
X125029890Y-77988332D01*
X124980360Y-78024319D01*
X124953799Y-78036144D01*
X124928467Y-78052062D01*
X124879794Y-78069093D01*
X124830110Y-78091214D01*
X124795634Y-78098542D01*
X124762124Y-78110268D01*
X124716043Y-78115460D01*
X124669234Y-78125410D01*
X124627737Y-78125410D01*
X124587000Y-78130000D01*
X124546263Y-78125410D01*
X124504766Y-78125410D01*
X124457955Y-78115460D01*
X124411876Y-78110268D01*
X124378366Y-78098542D01*
X124343889Y-78091214D01*
X124294201Y-78069091D01*
X124245533Y-78052062D01*
X124220202Y-78036145D01*
X124193639Y-78024319D01*
X124144101Y-77988328D01*
X124096314Y-77958301D01*
X124079154Y-77941141D01*
X124060581Y-77927647D01*
X124014663Y-77876650D01*
X123971699Y-77833686D01*
X123961816Y-77817958D01*
X123950528Y-77805421D01*
X123911917Y-77738544D01*
X123877938Y-77684467D01*
X123873694Y-77672339D01*
X123868297Y-77662991D01*
X123840652Y-77577911D01*
X123819732Y-77518124D01*
X123818938Y-77511084D01*
X123817471Y-77506567D01*
X123804165Y-77379969D01*
X123800000Y-77343000D01*
X123804165Y-77306033D01*
X123817471Y-77179432D01*
X123818938Y-77174914D01*
X123819732Y-77167876D01*
X123840648Y-77108101D01*
X123868297Y-77023008D01*
X123873695Y-77013657D01*
X123877938Y-77001533D01*
X123911909Y-76947467D01*
X123950528Y-76880578D01*
X123961818Y-76868038D01*
X123971699Y-76852314D01*
X124014654Y-76809358D01*
X124060581Y-76758352D01*
X124079157Y-76744855D01*
X124096314Y-76727699D01*
X124144096Y-76697675D01*
X124193640Y-76661680D01*
X124220206Y-76649852D01*
X124245533Y-76633938D01*
X124294192Y-76616911D01*
X124343889Y-76594785D01*
X124378372Y-76587455D01*
X124411876Y-76575732D01*
X124457952Y-76570540D01*
X124504766Y-76560590D01*
X124546263Y-76560590D01*
X124587000Y-76556000D01*
X124627737Y-76560590D01*
G37*
G36*
X178602737Y-76560590D02*
G01*
X178644234Y-76560590D01*
X178691046Y-76570540D01*
X178737124Y-76575732D01*
X178770628Y-76587455D01*
X178805110Y-76594785D01*
X178854804Y-76616910D01*
X178903467Y-76633938D01*
X178928794Y-76649852D01*
X178955360Y-76661680D01*
X179004901Y-76697673D01*
X179052686Y-76727699D01*
X179069844Y-76744857D01*
X179088418Y-76758352D01*
X179134335Y-76809348D01*
X179177301Y-76852314D01*
X179187183Y-76868042D01*
X179198471Y-76880578D01*
X179237077Y-76947447D01*
X179271062Y-77001533D01*
X179275306Y-77013661D01*
X179280702Y-77023008D01*
X179308337Y-77108061D01*
X179329268Y-77167876D01*
X179330061Y-77174918D01*
X179331528Y-77179432D01*
X179344819Y-77305901D01*
X179349000Y-77343000D01*
X179344819Y-77380101D01*
X179331528Y-77506567D01*
X179330061Y-77511079D01*
X179329268Y-77518124D01*
X179308333Y-77577951D01*
X179280702Y-77662991D01*
X179275306Y-77672335D01*
X179271062Y-77684467D01*
X179237070Y-77738563D01*
X179198471Y-77805421D01*
X179187185Y-77817954D01*
X179177301Y-77833686D01*
X179134326Y-77876660D01*
X179088418Y-77927647D01*
X179069848Y-77941138D01*
X179052686Y-77958301D01*
X179004890Y-77988332D01*
X178955360Y-78024319D01*
X178928799Y-78036144D01*
X178903467Y-78052062D01*
X178854794Y-78069093D01*
X178805110Y-78091214D01*
X178770634Y-78098542D01*
X178737124Y-78110268D01*
X178691043Y-78115460D01*
X178644234Y-78125410D01*
X178602737Y-78125410D01*
X178562000Y-78130000D01*
X178521263Y-78125410D01*
X178479766Y-78125410D01*
X178432955Y-78115460D01*
X178386876Y-78110268D01*
X178353366Y-78098542D01*
X178318889Y-78091214D01*
X178269201Y-78069091D01*
X178220533Y-78052062D01*
X178195202Y-78036145D01*
X178168639Y-78024319D01*
X178119101Y-77988328D01*
X178071314Y-77958301D01*
X178054154Y-77941141D01*
X178035581Y-77927647D01*
X177989663Y-77876650D01*
X177946699Y-77833686D01*
X177936816Y-77817958D01*
X177925528Y-77805421D01*
X177886917Y-77738544D01*
X177852938Y-77684467D01*
X177848694Y-77672339D01*
X177843297Y-77662991D01*
X177815652Y-77577911D01*
X177794732Y-77518124D01*
X177793938Y-77511084D01*
X177792471Y-77506567D01*
X177779165Y-77379969D01*
X177775000Y-77343000D01*
X177779165Y-77306033D01*
X177792471Y-77179432D01*
X177793938Y-77174914D01*
X177794732Y-77167876D01*
X177815648Y-77108101D01*
X177843297Y-77023008D01*
X177848695Y-77013657D01*
X177852938Y-77001533D01*
X177886909Y-76947467D01*
X177925528Y-76880578D01*
X177936818Y-76868038D01*
X177946699Y-76852314D01*
X177989654Y-76809358D01*
X178035581Y-76758352D01*
X178054157Y-76744855D01*
X178071314Y-76727699D01*
X178119096Y-76697675D01*
X178168640Y-76661680D01*
X178195206Y-76649852D01*
X178220533Y-76633938D01*
X178269192Y-76616911D01*
X178318889Y-76594785D01*
X178353372Y-76587455D01*
X178386876Y-76575732D01*
X178432952Y-76570540D01*
X178479766Y-76560590D01*
X178521263Y-76560590D01*
X178562000Y-76556000D01*
X178602737Y-76560590D01*
G37*
G36*
X125311034Y-74023764D02*
G01*
X125344125Y-74045875D01*
X125366236Y-74078966D01*
X125374000Y-74118000D01*
X125374000Y-75488000D01*
X125366236Y-75527034D01*
X125344125Y-75560125D01*
X125311034Y-75582236D01*
X125272000Y-75590000D01*
X123902000Y-75590000D01*
X123862966Y-75582236D01*
X123829875Y-75560125D01*
X123807764Y-75527034D01*
X123800000Y-75488000D01*
X123800000Y-74118000D01*
X123807764Y-74078966D01*
X123829875Y-74045875D01*
X123862966Y-74023764D01*
X123902000Y-74016000D01*
X125272000Y-74016000D01*
X125311034Y-74023764D01*
G37*
G36*
X179286034Y-74023764D02*
G01*
X179319125Y-74045875D01*
X179341236Y-74078966D01*
X179349000Y-74118000D01*
X179349000Y-75488000D01*
X179341236Y-75527034D01*
X179319125Y-75560125D01*
X179286034Y-75582236D01*
X179247000Y-75590000D01*
X177877000Y-75590000D01*
X177837966Y-75582236D01*
X177804875Y-75560125D01*
X177782764Y-75527034D01*
X177775000Y-75488000D01*
X177775000Y-74118000D01*
X177782764Y-74078966D01*
X177804875Y-74045875D01*
X177837966Y-74023764D01*
X177877000Y-74016000D01*
X179247000Y-74016000D01*
X179286034Y-74023764D01*
G37*
M02*
