G04 #@! TF.GenerationSoftware,KiCad,Pcbnew,8.0.0*
G04 #@! TF.CreationDate,2024-03-04T18:12:49-06:00*
G04 #@! TF.ProjectId,MicrocontrollerTestBoard,4d696372-6f63-46f6-9e74-726f6c6c6572,rev?*
G04 #@! TF.SameCoordinates,Original*
G04 #@! TF.FileFunction,Copper,L1,Top*
G04 #@! TF.FilePolarity,Positive*
%FSLAX46Y46*%
G04 Gerber Fmt 4.6, Leading zero omitted, Abs format (unit mm)*
G04 Created by KiCad (PCBNEW 8.0.0) date 2024-03-04 18:12:49*
%MOMM*%
%LPD*%
G01*
G04 APERTURE LIST*
%ADD10C,0.200000*%
G04 #@! TA.AperFunction,NonConductor*
%ADD11C,0.200000*%
G04 #@! TD*
G04 #@! TA.AperFunction,ComponentPad*
%ADD12R,1.370000X1.370000*%
G04 #@! TD*
G04 #@! TA.AperFunction,ComponentPad*
%ADD13C,1.370000*%
G04 #@! TD*
G04 #@! TA.AperFunction,SMDPad,CuDef*
%ADD14R,0.838200X0.889000*%
G04 #@! TD*
G04 #@! TA.AperFunction,SMDPad,CuDef*
%ADD15R,0.889000X0.838200*%
G04 #@! TD*
G04 #@! TA.AperFunction,SMDPad,CuDef*
%ADD16R,3.708400X3.708400*%
G04 #@! TD*
G04 #@! TA.AperFunction,ViaPad*
%ADD17C,0.610000*%
G04 #@! TD*
G04 #@! TA.AperFunction,Conductor*
%ADD18C,0.254000*%
G04 #@! TD*
G04 #@! TA.AperFunction,Conductor*
%ADD19C,0.508000*%
G04 #@! TD*
G04 APERTURE END LIST*
D10*
D11*
X147111643Y-69118219D02*
X146921167Y-69118219D01*
X146921167Y-69118219D02*
X146825929Y-69165838D01*
X146825929Y-69165838D02*
X146778310Y-69213457D01*
X146778310Y-69213457D02*
X146683072Y-69356314D01*
X146683072Y-69356314D02*
X146635453Y-69546790D01*
X146635453Y-69546790D02*
X146635453Y-69927742D01*
X146635453Y-69927742D02*
X146683072Y-70022980D01*
X146683072Y-70022980D02*
X146730691Y-70070600D01*
X146730691Y-70070600D02*
X146825929Y-70118219D01*
X146825929Y-70118219D02*
X147016405Y-70118219D01*
X147016405Y-70118219D02*
X147111643Y-70070600D01*
X147111643Y-70070600D02*
X147159262Y-70022980D01*
X147159262Y-70022980D02*
X147206881Y-69927742D01*
X147206881Y-69927742D02*
X147206881Y-69689647D01*
X147206881Y-69689647D02*
X147159262Y-69594409D01*
X147159262Y-69594409D02*
X147111643Y-69546790D01*
X147111643Y-69546790D02*
X147016405Y-69499171D01*
X147016405Y-69499171D02*
X146825929Y-69499171D01*
X146825929Y-69499171D02*
X146730691Y-69546790D01*
X146730691Y-69546790D02*
X146683072Y-69594409D01*
X146683072Y-69594409D02*
X146635453Y-69689647D01*
X147825929Y-69118219D02*
X147921167Y-69118219D01*
X147921167Y-69118219D02*
X148016405Y-69165838D01*
X148016405Y-69165838D02*
X148064024Y-69213457D01*
X148064024Y-69213457D02*
X148111643Y-69308695D01*
X148111643Y-69308695D02*
X148159262Y-69499171D01*
X148159262Y-69499171D02*
X148159262Y-69737266D01*
X148159262Y-69737266D02*
X148111643Y-69927742D01*
X148111643Y-69927742D02*
X148064024Y-70022980D01*
X148064024Y-70022980D02*
X148016405Y-70070600D01*
X148016405Y-70070600D02*
X147921167Y-70118219D01*
X147921167Y-70118219D02*
X147825929Y-70118219D01*
X147825929Y-70118219D02*
X147730691Y-70070600D01*
X147730691Y-70070600D02*
X147683072Y-70022980D01*
X147683072Y-70022980D02*
X147635453Y-69927742D01*
X147635453Y-69927742D02*
X147587834Y-69737266D01*
X147587834Y-69737266D02*
X147587834Y-69499171D01*
X147587834Y-69499171D02*
X147635453Y-69308695D01*
X147635453Y-69308695D02*
X147683072Y-69213457D01*
X147683072Y-69213457D02*
X147730691Y-69165838D01*
X147730691Y-69165838D02*
X147825929Y-69118219D01*
X148587834Y-70022980D02*
X148635453Y-70070600D01*
X148635453Y-70070600D02*
X148587834Y-70118219D01*
X148587834Y-70118219D02*
X148540215Y-70070600D01*
X148540215Y-70070600D02*
X148587834Y-70022980D01*
X148587834Y-70022980D02*
X148587834Y-70118219D01*
X149587833Y-70118219D02*
X149016405Y-70118219D01*
X149302119Y-70118219D02*
X149302119Y-69118219D01*
X149302119Y-69118219D02*
X149206881Y-69261076D01*
X149206881Y-69261076D02*
X149111643Y-69356314D01*
X149111643Y-69356314D02*
X149016405Y-69403933D01*
X150064024Y-70118219D02*
X150254500Y-70118219D01*
X150254500Y-70118219D02*
X150349738Y-70070600D01*
X150349738Y-70070600D02*
X150397357Y-70022980D01*
X150397357Y-70022980D02*
X150492595Y-69880123D01*
X150492595Y-69880123D02*
X150540214Y-69689647D01*
X150540214Y-69689647D02*
X150540214Y-69308695D01*
X150540214Y-69308695D02*
X150492595Y-69213457D01*
X150492595Y-69213457D02*
X150444976Y-69165838D01*
X150444976Y-69165838D02*
X150349738Y-69118219D01*
X150349738Y-69118219D02*
X150159262Y-69118219D01*
X150159262Y-69118219D02*
X150064024Y-69165838D01*
X150064024Y-69165838D02*
X150016405Y-69213457D01*
X150016405Y-69213457D02*
X149968786Y-69308695D01*
X149968786Y-69308695D02*
X149968786Y-69546790D01*
X149968786Y-69546790D02*
X150016405Y-69642028D01*
X150016405Y-69642028D02*
X150064024Y-69689647D01*
X150064024Y-69689647D02*
X150159262Y-69737266D01*
X150159262Y-69737266D02*
X150349738Y-69737266D01*
X150349738Y-69737266D02*
X150444976Y-69689647D01*
X150444976Y-69689647D02*
X150492595Y-69642028D01*
X150492595Y-69642028D02*
X150540214Y-69546790D01*
X151444976Y-69118219D02*
X150968786Y-69118219D01*
X150968786Y-69118219D02*
X150921167Y-69594409D01*
X150921167Y-69594409D02*
X150968786Y-69546790D01*
X150968786Y-69546790D02*
X151064024Y-69499171D01*
X151064024Y-69499171D02*
X151302119Y-69499171D01*
X151302119Y-69499171D02*
X151397357Y-69546790D01*
X151397357Y-69546790D02*
X151444976Y-69594409D01*
X151444976Y-69594409D02*
X151492595Y-69689647D01*
X151492595Y-69689647D02*
X151492595Y-69927742D01*
X151492595Y-69927742D02*
X151444976Y-70022980D01*
X151444976Y-70022980D02*
X151397357Y-70070600D01*
X151397357Y-70070600D02*
X151302119Y-70118219D01*
X151302119Y-70118219D02*
X151064024Y-70118219D01*
X151064024Y-70118219D02*
X150968786Y-70070600D01*
X150968786Y-70070600D02*
X150921167Y-70022980D01*
X152111643Y-69118219D02*
X152206881Y-69118219D01*
X152206881Y-69118219D02*
X152302119Y-69165838D01*
X152302119Y-69165838D02*
X152349738Y-69213457D01*
X152349738Y-69213457D02*
X152397357Y-69308695D01*
X152397357Y-69308695D02*
X152444976Y-69499171D01*
X152444976Y-69499171D02*
X152444976Y-69737266D01*
X152444976Y-69737266D02*
X152397357Y-69927742D01*
X152397357Y-69927742D02*
X152349738Y-70022980D01*
X152349738Y-70022980D02*
X152302119Y-70070600D01*
X152302119Y-70070600D02*
X152206881Y-70118219D01*
X152206881Y-70118219D02*
X152111643Y-70118219D01*
X152111643Y-70118219D02*
X152016405Y-70070600D01*
X152016405Y-70070600D02*
X151968786Y-70022980D01*
X151968786Y-70022980D02*
X151921167Y-69927742D01*
X151921167Y-69927742D02*
X151873548Y-69737266D01*
X151873548Y-69737266D02*
X151873548Y-69499171D01*
X151873548Y-69499171D02*
X151921167Y-69308695D01*
X151921167Y-69308695D02*
X151968786Y-69213457D01*
X151968786Y-69213457D02*
X152016405Y-69165838D01*
X152016405Y-69165838D02*
X152111643Y-69118219D01*
X153635453Y-70118219D02*
X153635453Y-69451552D01*
X153635453Y-69546790D02*
X153683072Y-69499171D01*
X153683072Y-69499171D02*
X153778310Y-69451552D01*
X153778310Y-69451552D02*
X153921167Y-69451552D01*
X153921167Y-69451552D02*
X154016405Y-69499171D01*
X154016405Y-69499171D02*
X154064024Y-69594409D01*
X154064024Y-69594409D02*
X154064024Y-70118219D01*
X154064024Y-69594409D02*
X154111643Y-69499171D01*
X154111643Y-69499171D02*
X154206881Y-69451552D01*
X154206881Y-69451552D02*
X154349738Y-69451552D01*
X154349738Y-69451552D02*
X154444977Y-69499171D01*
X154444977Y-69499171D02*
X154492596Y-69594409D01*
X154492596Y-69594409D02*
X154492596Y-70118219D01*
X154968786Y-70118219D02*
X154968786Y-69451552D01*
X154968786Y-69546790D02*
X155016405Y-69499171D01*
X155016405Y-69499171D02*
X155111643Y-69451552D01*
X155111643Y-69451552D02*
X155254500Y-69451552D01*
X155254500Y-69451552D02*
X155349738Y-69499171D01*
X155349738Y-69499171D02*
X155397357Y-69594409D01*
X155397357Y-69594409D02*
X155397357Y-70118219D01*
X155397357Y-69594409D02*
X155444976Y-69499171D01*
X155444976Y-69499171D02*
X155540214Y-69451552D01*
X155540214Y-69451552D02*
X155683071Y-69451552D01*
X155683071Y-69451552D02*
X155778310Y-69499171D01*
X155778310Y-69499171D02*
X155825929Y-69594409D01*
X155825929Y-69594409D02*
X155825929Y-70118219D01*
X121157000Y-72783000D02*
X121157000Y-70279580D01*
X181352000Y-72783000D02*
X181352000Y-70279580D01*
X121157000Y-70866000D02*
X181352000Y-70866000D01*
X121157000Y-70866000D02*
X181352000Y-70866000D01*
X121157000Y-70866000D02*
X122283504Y-70279579D01*
X121157000Y-70866000D02*
X122283504Y-71452421D01*
X181352000Y-70866000D02*
X180225496Y-71452421D01*
X181352000Y-70866000D02*
X180225496Y-70279579D01*
D10*
D11*
X116314553Y-98122856D02*
X116981220Y-98122856D01*
X115933601Y-98360951D02*
X116647886Y-98599046D01*
X116647886Y-98599046D02*
X116647886Y-97979999D01*
X116981220Y-97075237D02*
X116981220Y-97646665D01*
X116981220Y-97360951D02*
X115981220Y-97360951D01*
X115981220Y-97360951D02*
X116124077Y-97456189D01*
X116124077Y-97456189D02*
X116219315Y-97551427D01*
X116219315Y-97551427D02*
X116266934Y-97646665D01*
X116885981Y-96646665D02*
X116933601Y-96599046D01*
X116933601Y-96599046D02*
X116981220Y-96646665D01*
X116981220Y-96646665D02*
X116933601Y-96694284D01*
X116933601Y-96694284D02*
X116885981Y-96646665D01*
X116885981Y-96646665D02*
X116981220Y-96646665D01*
X115981220Y-96265713D02*
X115981220Y-95646666D01*
X115981220Y-95646666D02*
X116362172Y-95979999D01*
X116362172Y-95979999D02*
X116362172Y-95837142D01*
X116362172Y-95837142D02*
X116409791Y-95741904D01*
X116409791Y-95741904D02*
X116457410Y-95694285D01*
X116457410Y-95694285D02*
X116552648Y-95646666D01*
X116552648Y-95646666D02*
X116790743Y-95646666D01*
X116790743Y-95646666D02*
X116885981Y-95694285D01*
X116885981Y-95694285D02*
X116933601Y-95741904D01*
X116933601Y-95741904D02*
X116981220Y-95837142D01*
X116981220Y-95837142D02*
X116981220Y-96122856D01*
X116981220Y-96122856D02*
X116933601Y-96218094D01*
X116933601Y-96218094D02*
X116885981Y-96265713D01*
X116981220Y-95170475D02*
X116981220Y-94979999D01*
X116981220Y-94979999D02*
X116933601Y-94884761D01*
X116933601Y-94884761D02*
X116885981Y-94837142D01*
X116885981Y-94837142D02*
X116743124Y-94741904D01*
X116743124Y-94741904D02*
X116552648Y-94694285D01*
X116552648Y-94694285D02*
X116171696Y-94694285D01*
X116171696Y-94694285D02*
X116076458Y-94741904D01*
X116076458Y-94741904D02*
X116028839Y-94789523D01*
X116028839Y-94789523D02*
X115981220Y-94884761D01*
X115981220Y-94884761D02*
X115981220Y-95075237D01*
X115981220Y-95075237D02*
X116028839Y-95170475D01*
X116028839Y-95170475D02*
X116076458Y-95218094D01*
X116076458Y-95218094D02*
X116171696Y-95265713D01*
X116171696Y-95265713D02*
X116409791Y-95265713D01*
X116409791Y-95265713D02*
X116505029Y-95218094D01*
X116505029Y-95218094D02*
X116552648Y-95170475D01*
X116552648Y-95170475D02*
X116600267Y-95075237D01*
X116600267Y-95075237D02*
X116600267Y-94884761D01*
X116600267Y-94884761D02*
X116552648Y-94789523D01*
X116552648Y-94789523D02*
X116505029Y-94741904D01*
X116505029Y-94741904D02*
X116409791Y-94694285D01*
X116314553Y-93837142D02*
X116981220Y-93837142D01*
X115933601Y-94075237D02*
X116647886Y-94313332D01*
X116647886Y-94313332D02*
X116647886Y-93694285D01*
X115981220Y-93122856D02*
X115981220Y-93027618D01*
X115981220Y-93027618D02*
X116028839Y-92932380D01*
X116028839Y-92932380D02*
X116076458Y-92884761D01*
X116076458Y-92884761D02*
X116171696Y-92837142D01*
X116171696Y-92837142D02*
X116362172Y-92789523D01*
X116362172Y-92789523D02*
X116600267Y-92789523D01*
X116600267Y-92789523D02*
X116790743Y-92837142D01*
X116790743Y-92837142D02*
X116885981Y-92884761D01*
X116885981Y-92884761D02*
X116933601Y-92932380D01*
X116933601Y-92932380D02*
X116981220Y-93027618D01*
X116981220Y-93027618D02*
X116981220Y-93122856D01*
X116981220Y-93122856D02*
X116933601Y-93218094D01*
X116933601Y-93218094D02*
X116885981Y-93265713D01*
X116885981Y-93265713D02*
X116790743Y-93313332D01*
X116790743Y-93313332D02*
X116600267Y-93360951D01*
X116600267Y-93360951D02*
X116362172Y-93360951D01*
X116362172Y-93360951D02*
X116171696Y-93313332D01*
X116171696Y-93313332D02*
X116076458Y-93265713D01*
X116076458Y-93265713D02*
X116028839Y-93218094D01*
X116028839Y-93218094D02*
X115981220Y-93122856D01*
X116981220Y-91599046D02*
X116314553Y-91599046D01*
X116409791Y-91599046D02*
X116362172Y-91551427D01*
X116362172Y-91551427D02*
X116314553Y-91456189D01*
X116314553Y-91456189D02*
X116314553Y-91313332D01*
X116314553Y-91313332D02*
X116362172Y-91218094D01*
X116362172Y-91218094D02*
X116457410Y-91170475D01*
X116457410Y-91170475D02*
X116981220Y-91170475D01*
X116457410Y-91170475D02*
X116362172Y-91122856D01*
X116362172Y-91122856D02*
X116314553Y-91027618D01*
X116314553Y-91027618D02*
X116314553Y-90884761D01*
X116314553Y-90884761D02*
X116362172Y-90789522D01*
X116362172Y-90789522D02*
X116457410Y-90741903D01*
X116457410Y-90741903D02*
X116981220Y-90741903D01*
X116981220Y-90265713D02*
X116314553Y-90265713D01*
X116409791Y-90265713D02*
X116362172Y-90218094D01*
X116362172Y-90218094D02*
X116314553Y-90122856D01*
X116314553Y-90122856D02*
X116314553Y-89979999D01*
X116314553Y-89979999D02*
X116362172Y-89884761D01*
X116362172Y-89884761D02*
X116457410Y-89837142D01*
X116457410Y-89837142D02*
X116981220Y-89837142D01*
X116457410Y-89837142D02*
X116362172Y-89789523D01*
X116362172Y-89789523D02*
X116314553Y-89694285D01*
X116314553Y-89694285D02*
X116314553Y-89551428D01*
X116314553Y-89551428D02*
X116362172Y-89456189D01*
X116362172Y-89456189D02*
X116457410Y-89408570D01*
X116457410Y-89408570D02*
X116981220Y-89408570D01*
X120657000Y-73283000D02*
X117142581Y-73283000D01*
X120657000Y-114677000D02*
X117142581Y-114677000D01*
X117729001Y-73283000D02*
X117729001Y-114677000D01*
X117729001Y-73283000D02*
X117729001Y-114677000D01*
X117729001Y-73283000D02*
X118315422Y-74409504D01*
X117729001Y-73283000D02*
X117142580Y-74409504D01*
X117729001Y-114677000D02*
X117142580Y-113550496D01*
X117729001Y-114677000D02*
X118315422Y-113550496D01*
D12*
X137989000Y-111247000D03*
D13*
X140529000Y-111247000D03*
X143069000Y-111247000D03*
X145609000Y-111247000D03*
X148149000Y-111247000D03*
X150689000Y-111247000D03*
X153229000Y-111247000D03*
X155769000Y-111247000D03*
X158309000Y-111247000D03*
X160849000Y-111247000D03*
X163389000Y-111247000D03*
X165929000Y-111247000D03*
D12*
X178562000Y-74803000D03*
D13*
X178562000Y-77343000D03*
X178562000Y-79883000D03*
X178562000Y-82423000D03*
X178562000Y-84963000D03*
X178562000Y-87503000D03*
X178562000Y-90043000D03*
X178562000Y-92583000D03*
X178562000Y-95123000D03*
X178562000Y-97663000D03*
X178562000Y-100203000D03*
X178562000Y-102743000D03*
X178562000Y-105283000D03*
X178562000Y-107823000D03*
D14*
X142858200Y-74803000D03*
X142858200Y-76073000D03*
X142858200Y-77343000D03*
X142858200Y-78613000D03*
X142858200Y-79883000D03*
X142858200Y-81153000D03*
X142858200Y-82423000D03*
X142858200Y-83693000D03*
X142858200Y-84963000D03*
X142858200Y-86233000D03*
X142858200Y-87503000D03*
X142858200Y-88773000D03*
X142858200Y-90043000D03*
X142858200Y-91313000D03*
D15*
X144454100Y-92387600D03*
X145724100Y-92387600D03*
X146994100Y-92387600D03*
X148264100Y-92387600D03*
X149534100Y-92387600D03*
X150804100Y-92387600D03*
X152074100Y-92387600D03*
X153344100Y-92387600D03*
X154614100Y-92387600D03*
X155884100Y-92387600D03*
X157154100Y-92387600D03*
X158424100Y-92387600D03*
D14*
X160020000Y-91313000D03*
X160020000Y-90043000D03*
X160020000Y-88773000D03*
X160020000Y-87503000D03*
X160020000Y-86233000D03*
X160020000Y-84963000D03*
X160020000Y-83693000D03*
X160020000Y-82423000D03*
X160020000Y-81153000D03*
X160020000Y-79883000D03*
X160020000Y-78613000D03*
X160020000Y-77343000D03*
X160020000Y-76073000D03*
X160020000Y-74803000D03*
D16*
X149943401Y-82517500D03*
D12*
X124587000Y-74803000D03*
D13*
X124587000Y-77343000D03*
X124587000Y-79883000D03*
X124587000Y-82423000D03*
X124587000Y-84963000D03*
X124587000Y-87503000D03*
X124587000Y-90043000D03*
X124587000Y-92583000D03*
X124587000Y-95123000D03*
X124587000Y-97663000D03*
X124587000Y-100203000D03*
X124587000Y-102743000D03*
X124587000Y-105283000D03*
X124587000Y-107823000D03*
D17*
X169799000Y-74803000D03*
X137541000Y-100838000D03*
X164338000Y-100838000D03*
X134493000Y-74803000D03*
D18*
X132314000Y-82316000D02*
X142762000Y-82316000D01*
X124587000Y-90043000D02*
X132314000Y-82316000D01*
X133584000Y-83586000D02*
X142762000Y-83586000D01*
X124587000Y-92583000D02*
X133584000Y-83586000D01*
X124587000Y-87503000D02*
X131044000Y-81046000D01*
X131044000Y-81046000D02*
X142762000Y-81046000D01*
D19*
X124587000Y-77343000D02*
X125964000Y-75966000D01*
X125964000Y-75966000D02*
X142762000Y-75966000D01*
D18*
X124587000Y-79883000D02*
X127234000Y-77236000D01*
X127234000Y-77236000D02*
X142762000Y-77236000D01*
X134854000Y-84856000D02*
X142762000Y-84856000D01*
X124587000Y-95123000D02*
X134854000Y-84856000D01*
X124587000Y-84963000D02*
X129774000Y-79776000D01*
X129774000Y-79776000D02*
X142762000Y-79776000D01*
X128504000Y-78506000D02*
X142762000Y-78506000D01*
X124587000Y-82423000D02*
X128504000Y-78506000D01*
X124587000Y-97663000D02*
X136124000Y-86126000D01*
X136124000Y-86126000D02*
X142762000Y-86126000D01*
X124587000Y-100203000D02*
X137394000Y-87396000D01*
X137394000Y-87396000D02*
X142762000Y-87396000D01*
X138664000Y-88666000D02*
X142762000Y-88666000D01*
X124587000Y-102743000D02*
X138664000Y-88666000D01*
X124587000Y-107823000D02*
X141204000Y-91206000D01*
X141204000Y-91206000D02*
X142762000Y-91206000D01*
X124587000Y-105283000D02*
X139934000Y-89936000D01*
X139934000Y-89936000D02*
X142762000Y-89936000D01*
X155957000Y-106355000D02*
X155957000Y-92456000D01*
X160849000Y-111247000D02*
X155957000Y-106355000D01*
X157227000Y-105085000D02*
X157227000Y-92456000D01*
X163389000Y-111247000D02*
X157227000Y-105085000D01*
X140529000Y-111247000D02*
X145797000Y-105979000D01*
X145797000Y-105979000D02*
X145797000Y-92456000D01*
X145609000Y-111247000D02*
X148337000Y-108519000D01*
X148337000Y-108519000D02*
X148337000Y-92456000D01*
X152147000Y-110165000D02*
X153229000Y-111247000D01*
X152147000Y-92456000D02*
X152147000Y-110165000D01*
X158309000Y-111247000D02*
X154687000Y-107625000D01*
X154687000Y-107625000D02*
X154687000Y-92456000D01*
X147067000Y-107249000D02*
X147067000Y-92456000D01*
X143069000Y-111247000D02*
X147067000Y-107249000D01*
X158497000Y-103815000D02*
X165929000Y-111247000D01*
X158497000Y-92456000D02*
X158497000Y-103815000D01*
X150877000Y-111059000D02*
X150689000Y-111247000D01*
X150877000Y-92456000D02*
X150877000Y-111059000D01*
X144527000Y-92456000D02*
X144527000Y-104709000D01*
X144527000Y-104709000D02*
X137989000Y-111247000D01*
X149607000Y-109789000D02*
X149607000Y-92456000D01*
X148149000Y-111247000D02*
X149607000Y-109789000D01*
X155769000Y-111247000D02*
X153417000Y-108895000D01*
X153417000Y-108895000D02*
X153417000Y-92456000D01*
X169438000Y-83586000D02*
X160262000Y-83586000D01*
X178435000Y-92583000D02*
X169438000Y-83586000D01*
X178435000Y-102743000D02*
X164358000Y-88666000D01*
X164358000Y-88666000D02*
X160262000Y-88666000D01*
X178435000Y-97663000D02*
X166898000Y-86126000D01*
X166898000Y-86126000D02*
X160262000Y-86126000D01*
X160262000Y-91206000D02*
X161818000Y-91206000D01*
X161818000Y-91206000D02*
X178435000Y-107823000D01*
X174518000Y-78506000D02*
X160262000Y-78506000D01*
X178435000Y-82423000D02*
X174518000Y-78506000D01*
X168168000Y-84856000D02*
X160262000Y-84856000D01*
X178435000Y-95123000D02*
X168168000Y-84856000D01*
X155702000Y-77724000D02*
X155702000Y-77597000D01*
D19*
X158623000Y-74803000D02*
X160020000Y-74803000D01*
X178435000Y-74803000D02*
X169799000Y-74803000D01*
X169799000Y-74803000D02*
X160369000Y-74803000D01*
D18*
X160369000Y-74803000D02*
X160262000Y-74696000D01*
D19*
X149943401Y-82517500D02*
X152432500Y-82517500D01*
X155702000Y-79248000D02*
X155702000Y-77724000D01*
X152432500Y-82517500D02*
X155702000Y-79248000D01*
X155702000Y-77724000D02*
X158623000Y-74803000D01*
D18*
X160262000Y-74696000D02*
X159962000Y-74696000D01*
X142655000Y-74803000D02*
X142762000Y-74696000D01*
D19*
X134493000Y-74803000D02*
X142655000Y-74803000D01*
X124587000Y-74803000D02*
X134493000Y-74803000D01*
D18*
X160262000Y-75966000D02*
X177058000Y-75966000D01*
X177058000Y-75966000D02*
X178435000Y-77343000D01*
X165628000Y-87396000D02*
X160262000Y-87396000D01*
X178435000Y-100203000D02*
X165628000Y-87396000D01*
X178435000Y-84963000D02*
X173248000Y-79776000D01*
X173248000Y-79776000D02*
X160262000Y-79776000D01*
X163088000Y-89936000D02*
X160262000Y-89936000D01*
X178435000Y-105283000D02*
X163088000Y-89936000D01*
X178435000Y-87503000D02*
X171978000Y-81046000D01*
X171978000Y-81046000D02*
X160262000Y-81046000D01*
X178435000Y-90043000D02*
X170708000Y-82316000D01*
X170708000Y-82316000D02*
X160262000Y-82316000D01*
X175788000Y-77236000D02*
X160262000Y-77236000D01*
X178435000Y-79883000D02*
X175788000Y-77236000D01*
G04 #@! TA.AperFunction,Conductor*
G36*
X141881640Y-91480185D02*
G01*
X141927395Y-91532989D01*
X141938601Y-91584500D01*
X141938601Y-91805376D01*
X141945008Y-91864983D01*
X141995302Y-91999828D01*
X141995306Y-91999835D01*
X142081552Y-92115044D01*
X142081555Y-92115047D01*
X142196764Y-92201293D01*
X142196771Y-92201297D01*
X142331617Y-92251591D01*
X142331616Y-92251591D01*
X142338544Y-92252335D01*
X142391227Y-92258000D01*
X143325172Y-92257999D01*
X143371847Y-92252981D01*
X143440604Y-92265387D01*
X143491742Y-92312997D01*
X143509100Y-92376271D01*
X143509100Y-92854570D01*
X143509101Y-92854576D01*
X143515508Y-92914183D01*
X143565802Y-93049028D01*
X143565806Y-93049035D01*
X143652052Y-93164244D01*
X143652055Y-93164247D01*
X143767264Y-93250493D01*
X143767271Y-93250497D01*
X143812218Y-93267261D01*
X143902117Y-93300791D01*
X143961727Y-93307200D01*
X144148500Y-93307199D01*
X144215539Y-93326883D01*
X144261294Y-93379687D01*
X144272500Y-93431199D01*
X144272500Y-104552219D01*
X144252815Y-104619258D01*
X144236181Y-104639900D01*
X138847531Y-110028549D01*
X138786208Y-110062034D01*
X138746598Y-110064158D01*
X138737349Y-110063163D01*
X138721873Y-110061500D01*
X138721868Y-110061500D01*
X137256129Y-110061500D01*
X137256123Y-110061501D01*
X137196516Y-110067908D01*
X137061671Y-110118202D01*
X137061664Y-110118206D01*
X136946455Y-110204452D01*
X136946452Y-110204455D01*
X136860206Y-110319664D01*
X136860202Y-110319671D01*
X136809908Y-110454517D01*
X136803501Y-110514116D01*
X136803501Y-110514123D01*
X136803500Y-110514135D01*
X136803500Y-111979870D01*
X136803501Y-111979876D01*
X136809908Y-112039483D01*
X136832729Y-112100667D01*
X136837713Y-112170359D01*
X136804228Y-112231682D01*
X136742905Y-112265166D01*
X136716547Y-112268000D01*
X123568000Y-112268000D01*
X123500961Y-112248315D01*
X123455206Y-112195511D01*
X123444000Y-112144000D01*
X123444000Y-108646584D01*
X123463685Y-108579545D01*
X123516489Y-108533790D01*
X123585647Y-108523846D01*
X123649203Y-108552871D01*
X123666951Y-108571854D01*
X123684449Y-108595025D01*
X123707153Y-108625090D01*
X123831251Y-108738220D01*
X123869516Y-108773103D01*
X124056313Y-108888763D01*
X124261183Y-108968129D01*
X124477147Y-109008500D01*
X124477149Y-109008500D01*
X124696851Y-109008500D01*
X124696853Y-109008500D01*
X124912817Y-108968129D01*
X125117687Y-108888763D01*
X125304484Y-108773103D01*
X125466848Y-108625088D01*
X125599251Y-108449759D01*
X125697182Y-108253087D01*
X125757307Y-108041768D01*
X125777579Y-107823000D01*
X125757307Y-107604232D01*
X125697182Y-107392913D01*
X125697181Y-107392911D01*
X125697180Y-107392907D01*
X125697179Y-107392906D01*
X125630518Y-107259031D01*
X125618257Y-107190246D01*
X125645130Y-107125751D01*
X125653827Y-107116089D01*
X141273099Y-91496819D01*
X141334422Y-91463334D01*
X141360780Y-91460500D01*
X141814601Y-91460500D01*
X141881640Y-91480185D01*
G37*
G04 #@! TD.AperFunction*
G04 #@! TA.AperFunction,Conductor*
G36*
X161728259Y-91480185D02*
G01*
X161748901Y-91496819D01*
X177453318Y-107201236D01*
X177486803Y-107262559D01*
X177481819Y-107332251D01*
X177476638Y-107344187D01*
X177452286Y-107393092D01*
X177452283Y-107393099D01*
X177392186Y-107604321D01*
X177392185Y-107604324D01*
X177371923Y-107822999D01*
X177371923Y-107823000D01*
X177392185Y-108041675D01*
X177392186Y-108041677D01*
X177452284Y-108252900D01*
X177452290Y-108252915D01*
X177550172Y-108449489D01*
X177550177Y-108449497D01*
X177563846Y-108467597D01*
X178054082Y-107977362D01*
X178072652Y-107967221D01*
X178086755Y-108019853D01*
X178153898Y-108136147D01*
X178248853Y-108231102D01*
X178365147Y-108298245D01*
X178424424Y-108314127D01*
X177919567Y-108818984D01*
X177919568Y-108818985D01*
X178031533Y-108888311D01*
X178031539Y-108888314D01*
X178236321Y-108967646D01*
X178452197Y-109008000D01*
X178671803Y-109008000D01*
X178887677Y-108967646D01*
X178887678Y-108967646D01*
X179092460Y-108888314D01*
X179092466Y-108888311D01*
X179261723Y-108783512D01*
X179329083Y-108764957D01*
X179395783Y-108785765D01*
X179440644Y-108839330D01*
X179451000Y-108888939D01*
X179451000Y-112144000D01*
X179431315Y-112211039D01*
X179378511Y-112256794D01*
X179327000Y-112268000D01*
X166888794Y-112268000D01*
X166821755Y-112248315D01*
X166776000Y-112195511D01*
X166766056Y-112126353D01*
X166795081Y-112062797D01*
X166805251Y-112052366D01*
X166808848Y-112049088D01*
X166941251Y-111873759D01*
X167039182Y-111677087D01*
X167099307Y-111465768D01*
X167119579Y-111247000D01*
X167099307Y-111028232D01*
X167039182Y-110816913D01*
X166941251Y-110620241D01*
X166842444Y-110489400D01*
X166808846Y-110444909D01*
X166646485Y-110296898D01*
X166646484Y-110296897D01*
X166459687Y-110181237D01*
X166459685Y-110181236D01*
X166357252Y-110141554D01*
X166254817Y-110101871D01*
X166038853Y-110061500D01*
X165819147Y-110061500D01*
X165603183Y-110101871D01*
X165603180Y-110101871D01*
X165603180Y-110101872D01*
X165398314Y-110181236D01*
X165398312Y-110181237D01*
X165373639Y-110196514D01*
X165306278Y-110215067D01*
X165239579Y-110194258D01*
X165220683Y-110178766D01*
X158787819Y-103745901D01*
X158754334Y-103684578D01*
X158751500Y-103658220D01*
X158751500Y-93431199D01*
X158771185Y-93364160D01*
X158823989Y-93318405D01*
X158875500Y-93307199D01*
X158916471Y-93307199D01*
X158916472Y-93307199D01*
X158976083Y-93300791D01*
X159110931Y-93250496D01*
X159226146Y-93164246D01*
X159312396Y-93049031D01*
X159362691Y-92914183D01*
X159369100Y-92854573D01*
X159369099Y-92376270D01*
X159388783Y-92309232D01*
X159441587Y-92263477D01*
X159506355Y-92252982D01*
X159553027Y-92258000D01*
X160486972Y-92257999D01*
X160546583Y-92251591D01*
X160681431Y-92201296D01*
X160796646Y-92115046D01*
X160882896Y-91999831D01*
X160933191Y-91864983D01*
X160939600Y-91805373D01*
X160939600Y-91584500D01*
X160959285Y-91517461D01*
X161012089Y-91471706D01*
X161063600Y-91460500D01*
X161661220Y-91460500D01*
X161728259Y-91480185D01*
G37*
G04 #@! TD.AperFunction*
G04 #@! TA.AperFunction,Conductor*
G36*
X179394039Y-73302685D02*
G01*
X179439794Y-73355489D01*
X179451000Y-73407000D01*
X179451000Y-73496744D01*
X179431315Y-73563783D01*
X179378511Y-73609538D01*
X179313744Y-73620033D01*
X179294844Y-73618000D01*
X178812000Y-73618000D01*
X178812000Y-74358439D01*
X178758853Y-74327755D01*
X178629143Y-74293000D01*
X178494857Y-74293000D01*
X178365147Y-74327755D01*
X178312000Y-74358439D01*
X178312000Y-73618000D01*
X177829155Y-73618000D01*
X177769627Y-73624401D01*
X177769620Y-73624403D01*
X177634913Y-73674645D01*
X177634906Y-73674649D01*
X177519812Y-73760809D01*
X177519809Y-73760812D01*
X177433649Y-73875906D01*
X177433645Y-73875913D01*
X177383403Y-74010620D01*
X177383401Y-74010627D01*
X177377000Y-74070155D01*
X177377000Y-74553000D01*
X178117440Y-74553000D01*
X178086755Y-74606147D01*
X178052000Y-74735857D01*
X178052000Y-74870143D01*
X178086755Y-74999853D01*
X178117440Y-75053000D01*
X177377000Y-75053000D01*
X177377000Y-75535844D01*
X177383401Y-75595372D01*
X177383403Y-75595382D01*
X177386319Y-75603199D01*
X177391301Y-75672891D01*
X177357815Y-75734213D01*
X177296490Y-75767696D01*
X177226799Y-75762709D01*
X177203631Y-75750852D01*
X177108626Y-75711501D01*
X177108624Y-75711500D01*
X177108623Y-75711500D01*
X177108621Y-75711500D01*
X161063599Y-75711500D01*
X160996560Y-75691815D01*
X160950805Y-75639011D01*
X160939599Y-75587500D01*
X160939599Y-75580629D01*
X160939598Y-75580623D01*
X160939597Y-75580616D01*
X160933191Y-75521017D01*
X160918122Y-75480617D01*
X160913139Y-75410927D01*
X160918124Y-75393949D01*
X160932698Y-75354876D01*
X160939099Y-75295344D01*
X160939100Y-75295327D01*
X160939100Y-75053000D01*
X159100900Y-75053000D01*
X159100900Y-75295344D01*
X159107301Y-75354872D01*
X159107303Y-75354880D01*
X159121876Y-75393952D01*
X159126860Y-75463644D01*
X159121877Y-75480616D01*
X159106808Y-75521018D01*
X159100401Y-75580616D01*
X159100401Y-75580623D01*
X159100400Y-75580635D01*
X159100400Y-76565370D01*
X159100401Y-76565376D01*
X159106808Y-76624982D01*
X159121610Y-76664669D01*
X159126593Y-76734361D01*
X159121610Y-76751331D01*
X159106808Y-76791017D01*
X159102601Y-76830153D01*
X159100401Y-76850623D01*
X159100400Y-76850635D01*
X159100400Y-77835370D01*
X159100401Y-77835376D01*
X159106808Y-77894982D01*
X159121610Y-77934669D01*
X159126593Y-78004361D01*
X159121610Y-78021331D01*
X159106808Y-78061017D01*
X159100401Y-78120616D01*
X159100401Y-78120623D01*
X159100400Y-78120635D01*
X159100400Y-79105370D01*
X159100401Y-79105376D01*
X159106808Y-79164982D01*
X159121610Y-79204669D01*
X159126593Y-79274361D01*
X159121610Y-79291331D01*
X159106808Y-79331017D01*
X159100401Y-79390616D01*
X159100401Y-79390623D01*
X159100400Y-79390635D01*
X159100400Y-80375370D01*
X159100401Y-80375376D01*
X159106808Y-80434982D01*
X159121610Y-80474669D01*
X159126593Y-80544361D01*
X159121610Y-80561331D01*
X159106808Y-80601017D01*
X159100401Y-80660616D01*
X159100401Y-80660623D01*
X159100400Y-80660635D01*
X159100400Y-81645370D01*
X159100401Y-81645376D01*
X159106808Y-81704982D01*
X159121610Y-81744669D01*
X159126593Y-81814361D01*
X159121610Y-81831331D01*
X159106808Y-81871017D01*
X159100401Y-81930616D01*
X159100401Y-81930623D01*
X159100400Y-81930635D01*
X159100400Y-82915370D01*
X159100401Y-82915376D01*
X159106808Y-82974982D01*
X159121610Y-83014669D01*
X159126593Y-83084361D01*
X159121610Y-83101331D01*
X159106808Y-83141017D01*
X159100401Y-83200616D01*
X159100401Y-83200623D01*
X159100400Y-83200635D01*
X159100400Y-84185370D01*
X159100401Y-84185376D01*
X159106808Y-84244982D01*
X159121610Y-84284669D01*
X159126593Y-84354361D01*
X159121610Y-84371331D01*
X159106808Y-84411017D01*
X159100401Y-84470616D01*
X159100401Y-84470623D01*
X159100400Y-84470635D01*
X159100400Y-85455370D01*
X159100401Y-85455376D01*
X159106808Y-85514982D01*
X159121610Y-85554669D01*
X159126593Y-85624361D01*
X159121610Y-85641331D01*
X159106808Y-85681017D01*
X159100401Y-85740616D01*
X159100401Y-85740623D01*
X159100400Y-85740635D01*
X159100400Y-86725370D01*
X159100401Y-86725376D01*
X159106808Y-86784982D01*
X159121610Y-86824669D01*
X159126593Y-86894361D01*
X159121610Y-86911331D01*
X159106808Y-86951017D01*
X159100401Y-87010616D01*
X159100401Y-87010623D01*
X159100400Y-87010635D01*
X159100400Y-87995370D01*
X159100401Y-87995376D01*
X159106808Y-88054982D01*
X159121610Y-88094669D01*
X159126593Y-88164361D01*
X159121610Y-88181331D01*
X159106808Y-88221017D01*
X159100401Y-88280616D01*
X159100401Y-88280623D01*
X159100400Y-88280635D01*
X159100400Y-89265370D01*
X159100401Y-89265376D01*
X159106808Y-89324982D01*
X159121610Y-89364669D01*
X159126593Y-89434361D01*
X159121610Y-89451331D01*
X159106808Y-89491017D01*
X159100401Y-89550616D01*
X159100401Y-89550623D01*
X159100400Y-89550635D01*
X159100400Y-90535370D01*
X159100401Y-90535376D01*
X159106808Y-90594982D01*
X159121610Y-90634669D01*
X159126593Y-90704361D01*
X159121610Y-90721331D01*
X159106808Y-90761017D01*
X159100401Y-90820616D01*
X159100401Y-90820623D01*
X159100400Y-90820635D01*
X159100400Y-91349728D01*
X159080715Y-91416767D01*
X159027911Y-91462522D01*
X158963147Y-91473018D01*
X158950942Y-91471706D01*
X158916473Y-91468000D01*
X158916467Y-91468000D01*
X157931729Y-91468000D01*
X157931723Y-91468001D01*
X157872117Y-91474408D01*
X157832431Y-91489210D01*
X157762739Y-91494193D01*
X157745769Y-91489210D01*
X157706081Y-91474408D01*
X157706083Y-91474408D01*
X157646483Y-91468001D01*
X157646481Y-91468000D01*
X157646473Y-91468000D01*
X157646464Y-91468000D01*
X156661729Y-91468000D01*
X156661723Y-91468001D01*
X156602117Y-91474408D01*
X156562431Y-91489210D01*
X156492739Y-91494193D01*
X156475769Y-91489210D01*
X156436081Y-91474408D01*
X156436083Y-91474408D01*
X156376483Y-91468001D01*
X156376481Y-91468000D01*
X156376473Y-91468000D01*
X156376464Y-91468000D01*
X155391729Y-91468000D01*
X155391723Y-91468001D01*
X155332117Y-91474408D01*
X155292431Y-91489210D01*
X155222739Y-91494193D01*
X155205769Y-91489210D01*
X155166081Y-91474408D01*
X155166083Y-91474408D01*
X155106483Y-91468001D01*
X155106481Y-91468000D01*
X155106473Y-91468000D01*
X155106464Y-91468000D01*
X154121729Y-91468000D01*
X154121723Y-91468001D01*
X154062117Y-91474408D01*
X154022431Y-91489210D01*
X153952739Y-91494193D01*
X153935769Y-91489210D01*
X153896081Y-91474408D01*
X153896083Y-91474408D01*
X153836483Y-91468001D01*
X153836481Y-91468000D01*
X153836473Y-91468000D01*
X153836464Y-91468000D01*
X152851729Y-91468000D01*
X152851723Y-91468001D01*
X152792117Y-91474408D01*
X152752431Y-91489210D01*
X152682739Y-91494193D01*
X152665769Y-91489210D01*
X152626081Y-91474408D01*
X152626083Y-91474408D01*
X152566483Y-91468001D01*
X152566481Y-91468000D01*
X152566473Y-91468000D01*
X152566464Y-91468000D01*
X151581729Y-91468000D01*
X151581723Y-91468001D01*
X151522117Y-91474408D01*
X151482431Y-91489210D01*
X151412739Y-91494193D01*
X151395769Y-91489210D01*
X151356081Y-91474408D01*
X151356083Y-91474408D01*
X151296483Y-91468001D01*
X151296481Y-91468000D01*
X151296473Y-91468000D01*
X151296464Y-91468000D01*
X150311729Y-91468000D01*
X150311723Y-91468001D01*
X150252117Y-91474408D01*
X150212431Y-91489210D01*
X150142739Y-91494193D01*
X150125769Y-91489210D01*
X150086081Y-91474408D01*
X150086083Y-91474408D01*
X150026483Y-91468001D01*
X150026481Y-91468000D01*
X150026473Y-91468000D01*
X150026464Y-91468000D01*
X149041729Y-91468000D01*
X149041723Y-91468001D01*
X148982117Y-91474408D01*
X148942431Y-91489210D01*
X148872739Y-91494193D01*
X148855769Y-91489210D01*
X148816081Y-91474408D01*
X148816083Y-91474408D01*
X148756483Y-91468001D01*
X148756481Y-91468000D01*
X148756473Y-91468000D01*
X148756464Y-91468000D01*
X147771729Y-91468000D01*
X147771723Y-91468001D01*
X147712117Y-91474408D01*
X147672431Y-91489210D01*
X147602739Y-91494193D01*
X147585769Y-91489210D01*
X147546081Y-91474408D01*
X147546083Y-91474408D01*
X147486483Y-91468001D01*
X147486481Y-91468000D01*
X147486473Y-91468000D01*
X147486464Y-91468000D01*
X146501729Y-91468000D01*
X146501723Y-91468001D01*
X146442117Y-91474408D01*
X146402431Y-91489210D01*
X146332739Y-91494193D01*
X146315769Y-91489210D01*
X146276081Y-91474408D01*
X146276083Y-91474408D01*
X146216483Y-91468001D01*
X146216481Y-91468000D01*
X146216473Y-91468000D01*
X146216464Y-91468000D01*
X145231729Y-91468000D01*
X145231723Y-91468001D01*
X145172117Y-91474408D01*
X145132431Y-91489210D01*
X145062739Y-91494193D01*
X145045769Y-91489210D01*
X145006081Y-91474408D01*
X145006083Y-91474408D01*
X144946483Y-91468001D01*
X144946481Y-91468000D01*
X144946473Y-91468000D01*
X144946464Y-91468000D01*
X143961729Y-91468000D01*
X143961720Y-91468001D01*
X143915051Y-91473018D01*
X143846292Y-91460611D01*
X143795156Y-91412999D01*
X143777799Y-91349728D01*
X143777799Y-90820629D01*
X143777798Y-90820623D01*
X143777797Y-90820616D01*
X143771391Y-90761017D01*
X143768695Y-90753790D01*
X143756590Y-90721334D01*
X143751605Y-90651642D01*
X143756589Y-90634669D01*
X143771391Y-90594983D01*
X143777800Y-90535373D01*
X143777799Y-89550628D01*
X143771391Y-89491017D01*
X143766920Y-89479031D01*
X143756590Y-89451334D01*
X143751605Y-89381642D01*
X143756589Y-89364669D01*
X143771391Y-89324983D01*
X143777800Y-89265373D01*
X143777799Y-88280628D01*
X143771391Y-88221017D01*
X143768695Y-88213790D01*
X143756590Y-88181334D01*
X143751605Y-88111642D01*
X143756589Y-88094669D01*
X143771391Y-88054983D01*
X143777800Y-87995373D01*
X143777799Y-87010628D01*
X143771391Y-86951017D01*
X143768755Y-86943951D01*
X143756590Y-86911334D01*
X143751605Y-86841642D01*
X143756589Y-86824669D01*
X143771391Y-86784983D01*
X143777800Y-86725373D01*
X143777799Y-85740628D01*
X143771391Y-85681017D01*
X143768695Y-85673790D01*
X143756590Y-85641334D01*
X143751605Y-85571642D01*
X143756589Y-85554669D01*
X143771391Y-85514983D01*
X143777800Y-85455373D01*
X143777799Y-84470628D01*
X143771391Y-84411017D01*
X143768755Y-84403951D01*
X143756590Y-84371334D01*
X143751605Y-84301642D01*
X143756589Y-84284669D01*
X143771391Y-84244983D01*
X143777800Y-84185373D01*
X143777799Y-83200628D01*
X143771391Y-83141017D01*
X143768695Y-83133790D01*
X143756590Y-83101334D01*
X143751605Y-83031642D01*
X143756589Y-83014669D01*
X143771391Y-82974983D01*
X143777800Y-82915373D01*
X143777800Y-82767500D01*
X147589201Y-82767500D01*
X147589201Y-84419544D01*
X147595602Y-84479072D01*
X147595604Y-84479079D01*
X147645846Y-84613786D01*
X147645850Y-84613793D01*
X147732010Y-84728887D01*
X147732013Y-84728890D01*
X147847107Y-84815050D01*
X147847114Y-84815054D01*
X147981821Y-84865296D01*
X147981828Y-84865298D01*
X148041356Y-84871699D01*
X148041373Y-84871700D01*
X149693401Y-84871700D01*
X149693401Y-82767500D01*
X150193401Y-82767500D01*
X150193401Y-84871700D01*
X151845429Y-84871700D01*
X151845445Y-84871699D01*
X151904973Y-84865298D01*
X151904980Y-84865296D01*
X152039687Y-84815054D01*
X152039694Y-84815050D01*
X152154788Y-84728890D01*
X152154791Y-84728887D01*
X152240951Y-84613793D01*
X152240955Y-84613786D01*
X152291197Y-84479079D01*
X152291199Y-84479072D01*
X152297600Y-84419544D01*
X152297601Y-84419527D01*
X152297601Y-82767500D01*
X150193401Y-82767500D01*
X149693401Y-82767500D01*
X147589201Y-82767500D01*
X143777800Y-82767500D01*
X143777799Y-82267500D01*
X147589201Y-82267500D01*
X149693401Y-82267500D01*
X149693401Y-80163300D01*
X150193401Y-80163300D01*
X150193401Y-82267500D01*
X152297601Y-82267500D01*
X152297601Y-80615472D01*
X152297600Y-80615455D01*
X152291199Y-80555927D01*
X152291197Y-80555920D01*
X152240955Y-80421213D01*
X152240951Y-80421206D01*
X152154791Y-80306112D01*
X152154788Y-80306109D01*
X152039694Y-80219949D01*
X152039687Y-80219945D01*
X151904980Y-80169703D01*
X151904973Y-80169701D01*
X151845445Y-80163300D01*
X150193401Y-80163300D01*
X149693401Y-80163300D01*
X148041356Y-80163300D01*
X147981828Y-80169701D01*
X147981821Y-80169703D01*
X147847114Y-80219945D01*
X147847107Y-80219949D01*
X147732013Y-80306109D01*
X147732010Y-80306112D01*
X147645850Y-80421206D01*
X147645846Y-80421213D01*
X147595604Y-80555920D01*
X147595602Y-80555927D01*
X147589201Y-80615455D01*
X147589201Y-82267500D01*
X143777799Y-82267500D01*
X143777799Y-81930628D01*
X143771391Y-81871017D01*
X143766920Y-81859031D01*
X143756590Y-81831334D01*
X143751605Y-81761642D01*
X143756589Y-81744669D01*
X143771391Y-81704983D01*
X143777800Y-81645373D01*
X143777799Y-80660628D01*
X143771391Y-80601017D01*
X143768695Y-80593790D01*
X143756590Y-80561334D01*
X143751605Y-80491642D01*
X143756589Y-80474669D01*
X143771391Y-80434983D01*
X143777800Y-80375373D01*
X143777799Y-79390628D01*
X143771391Y-79331017D01*
X143766920Y-79319031D01*
X143756590Y-79291334D01*
X143751605Y-79221642D01*
X143756589Y-79204669D01*
X143771391Y-79164983D01*
X143777800Y-79105373D01*
X143777799Y-78120628D01*
X143771391Y-78061017D01*
X143768695Y-78053790D01*
X143756590Y-78021334D01*
X143751605Y-77951642D01*
X143756589Y-77934669D01*
X143771391Y-77894983D01*
X143777800Y-77835373D01*
X143777799Y-76850628D01*
X143771391Y-76791017D01*
X143756590Y-76751334D01*
X143751605Y-76681642D01*
X143756589Y-76664669D01*
X143771391Y-76624983D01*
X143777800Y-76565373D01*
X143777799Y-75580628D01*
X143771391Y-75521017D01*
X143756322Y-75480617D01*
X143751339Y-75410927D01*
X143756324Y-75393949D01*
X143770898Y-75354876D01*
X143777299Y-75295344D01*
X143777300Y-75295327D01*
X143777300Y-75053000D01*
X141939100Y-75053000D01*
X141939100Y-75295344D01*
X141945501Y-75354872D01*
X141945503Y-75354880D01*
X141960076Y-75393952D01*
X141965060Y-75463644D01*
X141960077Y-75480615D01*
X141951419Y-75503830D01*
X141909549Y-75559765D01*
X141844086Y-75584184D01*
X141835236Y-75584500D01*
X125913771Y-75584500D01*
X125912183Y-75584709D01*
X125910843Y-75584500D01*
X125905648Y-75584500D01*
X125905648Y-75583689D01*
X125843148Y-75573942D01*
X125790893Y-75527561D01*
X125772000Y-75461770D01*
X125772000Y-75053000D01*
X125031560Y-75053000D01*
X125062245Y-74999853D01*
X125097000Y-74870143D01*
X125097000Y-74735857D01*
X125062245Y-74606147D01*
X125031560Y-74553000D01*
X125772000Y-74553000D01*
X141939100Y-74553000D01*
X142608200Y-74553000D01*
X142608200Y-73858500D01*
X143108200Y-73858500D01*
X143108200Y-74553000D01*
X143777300Y-74553000D01*
X159100900Y-74553000D01*
X159770000Y-74553000D01*
X159770000Y-73858500D01*
X160270000Y-73858500D01*
X160270000Y-74553000D01*
X160939100Y-74553000D01*
X160939100Y-74310672D01*
X160939099Y-74310655D01*
X160932698Y-74251127D01*
X160932696Y-74251120D01*
X160882454Y-74116413D01*
X160882450Y-74116406D01*
X160796290Y-74001312D01*
X160796287Y-74001309D01*
X160681193Y-73915149D01*
X160681186Y-73915145D01*
X160546479Y-73864903D01*
X160546472Y-73864901D01*
X160486944Y-73858500D01*
X160270000Y-73858500D01*
X159770000Y-73858500D01*
X159553055Y-73858500D01*
X159493527Y-73864901D01*
X159493520Y-73864903D01*
X159358813Y-73915145D01*
X159358806Y-73915149D01*
X159243712Y-74001309D01*
X159243709Y-74001312D01*
X159157549Y-74116406D01*
X159157545Y-74116413D01*
X159107303Y-74251120D01*
X159107301Y-74251127D01*
X159100900Y-74310655D01*
X159100900Y-74553000D01*
X143777300Y-74553000D01*
X143777300Y-74310672D01*
X143777299Y-74310655D01*
X143770898Y-74251127D01*
X143770896Y-74251120D01*
X143720654Y-74116413D01*
X143720650Y-74116406D01*
X143634490Y-74001312D01*
X143634487Y-74001309D01*
X143519393Y-73915149D01*
X143519386Y-73915145D01*
X143384679Y-73864903D01*
X143384672Y-73864901D01*
X143325144Y-73858500D01*
X143108200Y-73858500D01*
X142608200Y-73858500D01*
X142391255Y-73858500D01*
X142331727Y-73864901D01*
X142331720Y-73864903D01*
X142197013Y-73915145D01*
X142197006Y-73915149D01*
X142081912Y-74001309D01*
X142081909Y-74001312D01*
X141995749Y-74116406D01*
X141995745Y-74116413D01*
X141945503Y-74251120D01*
X141945501Y-74251127D01*
X141939100Y-74310655D01*
X141939100Y-74553000D01*
X125772000Y-74553000D01*
X125772000Y-74070172D01*
X125771999Y-74070155D01*
X125765598Y-74010627D01*
X125765596Y-74010620D01*
X125715354Y-73875913D01*
X125715350Y-73875906D01*
X125629190Y-73760812D01*
X125629187Y-73760809D01*
X125514093Y-73674649D01*
X125514086Y-73674645D01*
X125379379Y-73624403D01*
X125379372Y-73624401D01*
X125319844Y-73618000D01*
X124837000Y-73618000D01*
X124837000Y-74358439D01*
X124783853Y-74327755D01*
X124654143Y-74293000D01*
X124519857Y-74293000D01*
X124390147Y-74327755D01*
X124337000Y-74358439D01*
X124337000Y-73618000D01*
X123854155Y-73618000D01*
X123794627Y-73624401D01*
X123794620Y-73624403D01*
X123659913Y-73674645D01*
X123659906Y-73674649D01*
X123642310Y-73687822D01*
X123576845Y-73712239D01*
X123508573Y-73697387D01*
X123459168Y-73647981D01*
X123444000Y-73588555D01*
X123444000Y-73407000D01*
X123463685Y-73339961D01*
X123516489Y-73294206D01*
X123568000Y-73283000D01*
X179327000Y-73283000D01*
X179394039Y-73302685D01*
G37*
G04 #@! TD.AperFunction*
M02*
