M48
; DRILL file {KiCad 8.0.0} date 2024-03-04T00:39:36-0600
; FORMAT={-:-/ absolute / inch / decimal}
; #@! TF.CreationDate,2024-03-04T00:39:36-06:00
; #@! TF.GenerationSoftware,Kicad,Pcbnew,8.0.0
; #@! TF.FileFunction,MixedPlating,1,2
FMAT,2
INCH
; #@! TA.AperFunction,Plated,PTH,ViaDrill
T1C0.0118
; #@! TA.AperFunction,Plated,PTH,ComponentDrill
T2C0.0402
%
G90
G05
T1
X5.295Y-2.945
X5.415Y-3.97
X6.47Y-3.97
X6.685Y-2.945
T2
X4.905Y-2.945
X4.905Y-3.045
X4.905Y-3.145
X4.905Y-3.245
X4.905Y-3.345
X4.905Y-3.445
X4.905Y-3.545
X4.905Y-3.645
X4.905Y-3.745
X4.905Y-3.845
X4.905Y-3.945
X4.905Y-4.045
X4.905Y-4.145
X4.905Y-4.245
X5.4326Y-4.3798
X5.5326Y-4.3798
X5.6326Y-4.3798
X5.7326Y-4.3798
X5.8326Y-4.3798
X5.9326Y-4.3798
X6.0326Y-4.3798
X6.1326Y-4.3798
X6.2326Y-4.3798
X6.3326Y-4.3798
X6.4326Y-4.3798
X6.5326Y-4.3798
X7.03Y-2.945
X7.03Y-3.045
X7.03Y-3.145
X7.03Y-3.245
X7.03Y-3.345
X7.03Y-3.445
X7.03Y-3.545
X7.03Y-3.645
X7.03Y-3.745
X7.03Y-3.845
X7.03Y-3.945
X7.03Y-4.045
X7.03Y-4.145
X7.03Y-4.245
M30
