%TF.GenerationSoftware,KiCad,Pcbnew,8.0.0*%
%TF.CreationDate,2024-03-04T00:39:04-06:00*%
%TF.ProjectId,MicrocontrollerTestBoard,4d696372-6f63-46f6-9e74-726f6c6c6572,rev?*%
%TF.SameCoordinates,Original*%
%TF.FileFunction,Other,User*%
%FSLAX46Y46*%
G04 Gerber Fmt 4.6, Leading zero omitted, Abs format (unit mm)*
G04 Created by KiCad (PCBNEW 8.0.0) date 2024-03-04 00:39:04*
%MOMM*%
%LPD*%
G01*
G04 APERTURE LIST*
%ADD10C,0.152400*%
%ADD11C,0.050000*%
G04 APERTURE END LIST*
D10*
%TO.C,U2*%
X142180800Y-93061500D02*
X142180800Y-89010200D01*
X142180800Y-89010200D02*
X142180800Y-89010200D01*
X142180800Y-89010200D02*
X142180800Y-71103200D01*
X142180800Y-71103200D02*
X142180800Y-71103200D01*
X142180800Y-71103200D02*
X142180800Y-67051900D01*
X142180800Y-67051900D02*
X143755600Y-67051900D01*
X143755600Y-67051900D02*
X143755600Y-67051900D01*
X143755600Y-67051900D02*
X159122600Y-67051900D01*
X159122600Y-67051900D02*
X159122600Y-67051900D01*
X159122600Y-67051900D02*
X160697400Y-67051900D01*
X160697400Y-67051900D02*
X160697400Y-71103200D01*
X160697400Y-71103200D02*
X160697400Y-71103200D01*
X160697400Y-71103200D02*
X160697400Y-89010200D01*
X160697400Y-89010200D02*
X160697400Y-89010200D01*
X160697400Y-89010200D02*
X160697400Y-93061500D01*
X160697400Y-93061500D02*
X159122600Y-93061500D01*
X159122600Y-93061500D02*
X159122600Y-93061500D01*
X159122600Y-93061500D02*
X143755600Y-93061500D01*
X143755600Y-93061500D02*
X143755600Y-93061500D01*
X143755600Y-93061500D02*
X142180800Y-93061500D01*
D11*
%TO.C,J3*%
X181352000Y-109343000D02*
X175132000Y-109343000D01*
X175132000Y-109343000D02*
X175132000Y-73283000D01*
X175132000Y-73283000D02*
X181352000Y-73283000D01*
X181352000Y-73283000D02*
X181352000Y-109343000D01*
%TO.C,J2*%
X136469000Y-108457000D02*
X167449000Y-108457000D01*
X136469000Y-114677000D02*
X136469000Y-108457000D01*
X167449000Y-114677000D02*
X136469000Y-114677000D01*
X167449000Y-108457000D02*
X167449000Y-114677000D01*
%TO.C,J1*%
X127377000Y-73283000D02*
X127377000Y-109343000D01*
X121157000Y-73283000D02*
X127377000Y-73283000D01*
X121157000Y-109343000D02*
X121157000Y-73283000D01*
X127377000Y-109343000D02*
X121157000Y-109343000D01*
%TD*%
M02*
